  0
SECTION
  2
HEADER
  9
$ACADVER
  1
AC1014
  9
$ACADMAINTVER
 70
     9
  9
$DWGCODEPAGE
  3
ANSI_1252
  9
$INSBASE
 10
0.0
 20
0.0
 30
0.0
  9
$EXTMIN
 10
0.0
 20
0.0
 30
0.0
  9
$EXTMAX
 10
2440.0
 20
1220.0
 30
0.0
  9
$LIMMIN
 10
0.0
 20
0.0
  9
$LIMMAX
 10
2440.0
 20
1220.0
  9
$ORTHOMODE
 70
     0
  9
$REGENMODE
 70
     1
  9
$FILLMODE
 70
     1
  9
$QTEXTMODE
 70
     0
  9
$MIRRTEXT
 70
     1
  9
$DRAGMODE
 70
     2
  9
$LTSCALE
 40
1.0
  9
$OSMODE
 70
    37
  9
$ATTMODE
 70
     1
  9
$TEXTSIZE
 40
3.5
  9
$TRACEWID
 40
1.0
  9
$TEXTSTYLE
  7
STANDARD
  9
$CLAYER
  8
0
  9
$CELTYPE
  6
BYLAYER
  9
$CECOLOR
 62
   256
  9
$CELTSCALE
 40
1.0
  9
$DELOBJ
 70
     1
  9
$DISPSILH
 70
     0
  9
$DIMSCALE
 40
1.0
  9
$DIMASZ
 40
3.302
  9
$DIMEXO
 40
1.0
  9
$DIMDLI
 40
3.75
  9
$DIMRND
 40
0.0
  9
$DIMDLE
 40
0.0
  9
$DIMEXE
 40
1.0
  9
$DIMTP
 40
0.0
  9
$DIMTM
 40
0.0
  9
$DIMTXT
 40
4.5861111111
  9
$DIMCEN
 40
2.5
  9
$DIMTSZ
 40
0.0
  9
$DIMTOL
 70
     0
  9
$DIMLIM
 70
     0
  9
$DIMTIH
 70
     1
  9
$DIMTOH
 70
     1
  9
$DIMSE1
 70
     0
  9
$DIMSE2
 70
     0
  9
$DIMTAD
 70
     1
  9
$DIMZIN
 70
     0
  9
$DIMBLK
  1

  9
$DIMASO
 70
     1
  9
$DIMSHO
 70
     1
  9
$DIMPOST
  1

  9
$DIMAPOST
  1

  9
$DIMALT
 70
     0
  9
$DIMALTD
 70
     3
  9
$DIMALTF
 40
0.0393700787
  9
$DIMLFAC
 40
1.0
  9
$DIMTOFL
 70
     1
  9
$DIMTVP
 40
0.0
  9
$DIMTIX
 70
     0
  9
$DIMSOXD
 70
     0
  9
$DIMSAH
 70
     0
  9
$DIMBLK1
  1

  9
$DIMBLK2
  1

  9
$DIMSTYLE
  2
ISO-25
  9
$DIMCLRD
 70
     0
  9
$DIMCLRE
 70
     0
  9
$DIMCLRT
 70
     0
  9
$DIMTFAC
 40
1.0
  9
$DIMGAP
 40
1.524
  9
$DIMJUST
 70
     0
  9
$DIMSD1
 70
     0
  9
$DIMSD2
 70
     0
  9
$DIMTOLJ
 70
     0
  9
$DIMTZIN
 70
     0
  9
$DIMALTZ
 70
     0
  9
$DIMALTTZ
 70
     0
  9
$DIMFIT
 70
     3
  9
$DIMUPT
 70
     0
  9
$DIMUNIT
 70
     2
  9
$DIMDEC
 70
     2
  9
$DIMTDEC
 70
     2
  9
$DIMALTU
 70
     2
  9
$DIMALTTD
 70
     3
  9
$DIMTXSTY
  7
STANDARD
  9
$DIMAUNIT
 70
     0
  9
$LUNITS
 70
     2
  9
$LUPREC
 70
     2
  9
$SKETCHINC
 40
1.0
  9
$FILLETRAD
 40
10.0
  9
$AUNITS
 70
     0
  9
$AUPREC
 70
     2
  9
$MENU
  1
.
  9
$ELEVATION
 40
0.0
  9
$PELEVATION
 40
0.0
  9
$THICKNESS
 40
0.0
  9
$LIMCHECK
 70
     0
  9
$CHAMFERA
 40
0.0
  9
$CHAMFERB
 40
0.0
  9
$CHAMFERC
 40
0.0
  9
$CHAMFERD
 40
0.0
  9
$SKPOLY
 70
     0
  9
$TDCREATE
 40
2457722.441402905
  9
$TDUPDATE
 40
2457722.441403229
  9
$TDINDWG
 40
0.0000000116
  9
$TDUSRTIMER
 40
0.0000000116
  9
$USRTIMER
 70
     1
  9
$ANGBASE
 50
0.0
  9
$ANGDIR
 70
     0
  9
$PDMODE
 70
     0
  9
$PDSIZE
 40
-1.0
  9
$PLINEWID
 40
0.0
  9
$COORDS
 70
     1
  9
$SPLFRAME
 70
     0
  9
$SPLINETYPE
 70
     6
  9
$SPLINESEGS
 70
     8
  9
$ATTDIA
 70
     0
  9
$ATTREQ
 70
     1
  9
$HANDLING
 70
     1
  9
$HANDSEED
  5
375
  9
$SURFTAB1
 70
     6
  9
$SURFTAB2
 70
     6
  9
$SURFTYPE
 70
     6
  9
$SURFU
 70
     6
  9
$SURFV
 70
     6
  9
$UCSNAME
  2

  9
$UCSORG
 10
0.0
 20
0.0
 30
0.0
  9
$UCSXDIR
 10
1.0
 20
0.0
 30
0.0
  9
$UCSYDIR
 10
0.0
 20
1.0
 30
0.0
  9
$PUCSNAME
  2

  9
$PUCSORG
 10
0.0
 20
0.0
 30
0.0
  9
$PUCSXDIR
 10
1.0
 20
0.0
 30
0.0
  9
$PUCSYDIR
 10
0.0
 20
1.0
 30
0.0
  9
$USERI1
 70
     0
  9
$USERI2
 70
     0
  9
$USERI3
 70
     0
  9
$USERI4
 70
     0
  9
$USERI5
 70
     0
  9
$USERR1
 40
0.0
  9
$USERR2
 40
0.0
  9
$USERR3
 40
0.0
  9
$USERR4
 40
0.0
  9
$USERR5
 40
0.0
  9
$WORLDVIEW
 70
     1
  9
$SHADEDGE
 70
     3
  9
$SHADEDIF
 70
    70
  9
$TILEMODE
 70
     1
  9
$MAXACTVP
 70
    64
  9
$PINSBASE
 10
0.0
 20
0.0
 30
0.0
  9
$PLIMCHECK
 70
     0
  9
$PEXTMIN
 10
1.0000000000E+20
 20
1.0000000000E+20
 30
1.0000000000E+20
  9
$PEXTMAX
 10
-1.0000000000E+20
 20
-1.0000000000E+20
 30
-1.0000000000E+20
  9
$PLIMMIN
 10
0.0
 20
0.0
  9
$PLIMMAX
 10
420.0
 20
297.0
  9
$UNITMODE
 70
     0
  9
$VISRETAIN
 70
     1
  9
$PLINEGEN
 70
     0
  9
$PSLTSCALE
 70
     1
  9
$TREEDEPTH
 70
  3020
  9
$PICKSTYLE
 70
     1
  9
$CMLSTYLE
  2
STANDARD
  9
$CMLJUST
 70
     0
  9
$CMLSCALE
 40
20.0
  9
$PROXYGRAPHICS
 70
     1
  9
$MEASUREMENT
 70
     1
  0
ENDSEC
  0
SECTION
  2
CLASSES
  0
CLASS
  1
ACDBDICTIONARYWDFLT
  2
AcDbDictionaryWithDefault
  3
ObjectDBX Classes
 90
        0
280
     0
281
     0
  0
CLASS
  1
VISUALSTYLE
  2
AcDbVisualStyle
  3
ObjectDBX Classes
 90
     4095
280
     0
281
     0
  0
CLASS
  1
MATERIAL
  2
AcDbMaterial
  3
ObjectDBX Classes
 90
     1153
280
     0
281
     0
  0
CLASS
  1
SCALE
  2
AcDbScale
  3
ObjectDBX Classes
 90
     1153
280
     0
281
     0
  0
CLASS
  1
TABLESTYLE
  2
AcDbTableStyle
  3
ObjectDBX Classes
 90
     4095
280
     0
281
     0
  0
CLASS
  1
MLEADERSTYLE
  2
AcDbMLeaderStyle
  3
ACDB_MLEADERSTYLE_CLASS
 90
     4095
280
     0
281
     0
  0
CLASS
  1
SUN
  2
AcDbSun
  3
SCENEOE
 90
     1153
280
     0
281
     0
  0
CLASS
  1
XRECORD
  2
AcDbXrecord
  3
ObjectDBX Classes
 90
        0
280
     0
281
     0
  0
CLASS
  1
LWPOLYLINE
  2
AcDbPolyline
  3
ObjectDBX Classes
 90
        0
280
     0
281
     1
  0
CLASS
  1
HATCH
  2
AcDbHatch
  3
ObjectDBX Classes
 90
        0
280
     0
281
     1
  0
ENDSEC
  0
SECTION
  2
TABLES
  0
TABLE
  2
VPORT
  5
8
330
0
100
AcDbSymbolTable
 70
     1
  0
VPORT
  5
29
330
8
100
AcDbSymbolTableRecord
100
AcDbViewportTableRecord
  2
*ACTIVE
 70
     0
 10
0.0
 20
0.0
 11
1.0
 21
1.0
 12
1220.0
 22
610.0
 13
0.0
 23
0.0
 14
10.0
 24
10.0
 15
10.0
 25
10.0
 16
0.0
 26
0.0
 36
1.0
 17
0.0
 27
0.0
 37
0.0
 40
1220.0
 41
2.0
 42
50.0
 43
0.0
 44
0.0
 50
0.0
 51
0.0
 71
     0
 72
  2000
 73
     1
 74
     3
 75
     0
 76
     0
 77
     0
 78
     0
  0
ENDTAB
  0
TABLE
  2
LTYPE
  5
5
330
0
100
AcDbSymbolTable
 70
     6
  0
LTYPE
  5
14
330
5
100
AcDbSymbolTableRecord
100
AcDbLinetypeTableRecord
  2
BYBLOCK
 70
     0
  3

 72
    65
 73
     0
 40
0.0
  0
LTYPE
  5
15
330
5
100
AcDbSymbolTableRecord
100
AcDbLinetypeTableRecord
  2
BYLAYER
 70
     0
  3

 72
    65
 73
     0
 40
0.0
  0
LTYPE
  5
16
330
5
100
AcDbSymbolTableRecord
100
AcDbLinetypeTableRecord
  2
CONTINUOUS
 70
     0
  3
Solid line
 72
    65
 73
     0
 40
0.0
  0
LTYPE
  5
6E
330
5
100
AcDbSymbolTableRecord
100
AcDbLinetypeTableRecord
  2
HIDDEN
 70
     0
  3
Hidden __ __ __ __ __ __ __ __ __ __ __ __ __ __
 72
    65
 73
     2
 40
1.905
 49
1.27
 74
     0
 49
-0.635
 74
     0
  0
LTYPE
  5
6F
330
5
100
AcDbSymbolTableRecord
100
AcDbLinetypeTableRecord
  2
PHANTOM
 70
     0
  3
Phantom ______  __  __  ______  __  __  ______
 72
    65
 73
     6
 40
12.7
 49
6.35
 74
     0
 49
-1.27
 74
     0
 49
1.27
 74
     0
 49
-1.27
 74
     0
 49
1.27
 74
     0
 49
-1.27
 74
     0
  0
LTYPE
  5
70
330
5
100
AcDbSymbolTableRecord
100
AcDbLinetypeTableRecord
  2
CENTER
 70
     0
  3
Center ____ _ ____ _ ____ _ ____ _ ____ _ ____
 72
    65
 73
     4
 40
10.16
 49
6.35
 74
     0
 49
-1.27
 74
     0
 49
1.27
 74
     0
 49
-1.27
 74
     0
  0
LTYPE
  5
71
330
5
100
AcDbSymbolTableRecord
100
AcDbLinetypeTableRecord
  2
CENTERX2
 70
     0
  3
Center (2x) ________  __  ________  __  _____
 72
    65
 73
     4
 40
20.32
 49
12.7
 74
     0
 49
-2.54
 74
     0
 49
2.54
 74
     0
 49
-2.54
 74
     0
  0
LTYPE
  5
72
330
5
100
AcDbSymbolTableRecord
100
AcDbLinetypeTableRecord
  2
DOT2
 70
     0
  3
Dot (.5x) ........................................
 72
    65
 73
     2
 40
0.635
 49
0.0
 74
     0
 49
-0.635
 74
     0
  0
ENDTAB
  0
TABLE
  2
LAYER
  5
2
330
0
100
AcDbSymbolTable
 70
     6
  0
LAYER
  5
10
330
2
100
AcDbSymbolTableRecord
100
AcDbLayerTableRecord
  2
0
 70
     0
 62
     7
  6
CONTINUOUS
  0
LAYER
  5
73
330
2
100
AcDbSymbolTableRecord
100
AcDbLayerTableRecord
  2
BOX_STOCK
 70
     0
 62
     1
  6
CONTINUOUS
  0
LAYER
  5
74
330
2
100
AcDbSymbolTableRecord
100
AcDbLayerTableRecord
  2
HOLES
 70
     0
 62
    30
  6
CONTINUOUS
  0
LAYER
  5
75
330
2
100
AcDbSymbolTableRecord
100
AcDbLayerTableRecord
  2
POCKETS
 70
     0
 62
   171
  6
CONTINUOUS
  0
LAYER
  5
76
330
2
100
AcDbSymbolTableRecord
100
AcDbLayerTableRecord
  2
PROFILES_OUTSIDE
 70
     0
 62
     6
  6
CONTINUOUS
  0
LAYER
  5
77
330
2
100
AcDbSymbolTableRecord
100
AcDbLayerTableRecord
  2
PROFILES_INSIDE
 70
     0
 62
     4
  6
CONTINUOUS
  0
ENDTAB
  0
TABLE
  2
STYLE
  5
3
330
0
100
AcDbSymbolTable
 70
     1
  0
STYLE
  5
11
330
3
100
AcDbSymbolTableRecord
100
AcDbTextStyleTableRecord
  2
STANDARD
 70
     0
 40
0.0
 41
1.0
 50
0.0
 71
     0
 42
3.5
  3
txt
  4

  0
ENDTAB
  0
TABLE
  2
VIEW
  5
6
330
0
100
AcDbSymbolTable
 70
     0
  0
ENDTAB
  0
TABLE
  2
UCS
  5
7
330
0
100
AcDbSymbolTable
 70
     0
  0
ENDTAB
  0
TABLE
  2
APPID
  5
9
330
0
100
AcDbSymbolTable
 70
     1
  0
APPID
  5
12
330
9
100
AcDbSymbolTableRecord
100
AcDbRegAppTableRecord
  2
ACAD
 70
     0
  0
ENDTAB
  0
TABLE
  2
DIMSTYLE
  5
A
330
0
100
AcDbSymbolTable
 70
     1
  0
DIMSTYLE
105
27
330
A
100
AcDbSymbolTableRecord
100
AcDbDimStyleTableRecord
  2
ISO-25
 70
     0
  3

  4

  5

  6

  7

 40
1.0
 41
2.5
 42
0.625
 43
3.75
 44
1.25
 45
0.0
 46
0.0
 47
0.0
 48
0.0
140
2.5
141
2.5
142
0.0
143
0.0393700787
144
1.0
145
0.0
146
1.0
147
0.625
 71
     0
 72
     0
 73
     0
 74
     0
 75
     0
 76
     0
 77
     1
 78
     8
170
     0
171
     3
172
     1
173
     0
174
     0
175
     0
176
     0
177
     0
178
     0
270
     2
271
     2
272
     2
273
     2
274
     3
340
11
275
     0
280
     0
281
     0
282
     0
283
     0
284
     8
285
     0
286
     0
287
     3
288
     0
  0
ENDTAB
  0
TABLE
  2
BLOCK_RECORD
  5
1
330
0
100
AcDbSymbolTable
 70
     1
  0
BLOCK_RECORD
  5
1F
330
1
100
AcDbSymbolTableRecord
100
AcDbBlockTableRecord
  2
*MODEL_SPACE
  0
BLOCK_RECORD
  5
1B
330
1
100
AcDbSymbolTableRecord
100
AcDbBlockTableRecord
  2
*PAPER_SPACE
  0
BLOCK_RECORD
  5
23
330
1
100
AcDbSymbolTableRecord
100
AcDbBlockTableRecord
  2
*PAPER_SPACE0
  0
ENDTAB
  0
ENDSEC
  0
SECTION
  2
BLOCKS
  0
BLOCK
  5
20
330
1F
100
AcDbEntity
  8
0
100
AcDbBlockBegin
  2
*MODEL_SPACE
 70
     0
 10
0.0
 20
0.0
 30
0.0
  3
*MODEL_SPACE
  1

  0
ENDBLK
  5
21
330
1F
100
AcDbEntity
  8
0
100
AcDbBlockEnd
  0
BLOCK
  5
1C
330
1B
100
AcDbEntity
 67
     1
  8
0
100
AcDbBlockBegin
  2
*PAPER_SPACE
 70
     0
 10
0.0
 20
0.0
 30
0.0
  3
*PAPER_SPACE
  1

  0
ENDBLK
  5
1D
330
1B
100
AcDbEntity
 67
     1
  8
0
100
AcDbBlockEnd
  0
BLOCK
  5
24
330
23
100
AcDbEntity
  8
0
100
AcDbBlockBegin
  2
*PAPER_SPACE0
 70
     0
 10
0.0
 20
0.0
 30
0.0
  3
*PAPER_SPACE0
  1

  0
ENDBLK
  5
25
330
23
100
AcDbEntity
  8
0
100
AcDbBlockEnd
  0
ENDSEC
  0
SECTION
  2
ENTITIES
  0
ARC
  5
78
330
1F
100
AcDbEntity
  8
0
  6
CONTINUOUS
 62
     7
100
AcDbCircle
 10
1941.8682800697
 20
588.5532622726
 30
0.0
 40
5.999999999999886
100
AcDbArc
 50
90.0
 51
180.0
  0
LINE
  5
79
330
1F
100
AcDbEntity
  8
0
  6
CONTINUOUS
 62
     7
100
AcDbLine
 10
2079.8183893989
 20
594.5532633484
 30
0.0
 11
1941.8683266472
 21
594.5532633484
 31
0.0
  0
ARC
  5
7A
330
1F
100
AcDbEntity
  8
0
  6
CONTINUOUS
 62
     7
100
AcDbCircle
 10
2079.8182800697
 20
606.5532622726
 30
0.0
 40
11.99999999999977
100
AcDbArc
 50
270.0
 51
0.0
  0
LINE
  5
7B
330
1F
100
AcDbEntity
  8
0
  6
CONTINUOUS
 62
     7
100
AcDbLine
 10
2091.8182349037
 20
729.5505716026
 30
0.0
 11
2091.8182349037
 21
606.5532876671
 31
0.0
  0
ARC
  5
7C
330
1F
100
AcDbEntity
  8
0
  6
CONTINUOUS
 62
     7
100
AcDbCircle
 10
2110.8682800697
 20
729.550595606
 30
0.0
 40
19.04999999999988
100
AcDbArc
 50
120.0
 51
180.0
  0
ARC
  5
7D
330
1F
100
AcDbEntity
  8
0
  6
CONTINUOUS
 62
     7
100
AcDbCircle
 10
2091.8182800697
 20
762.5461634902
 30
0.0
 40
19.04999999999992
100
AcDbArc
 50
300.0
 51
0.0
  0
LINE
  5
7E
330
1F
100
AcDbEntity
  8
0
  6
CONTINUOUS
 62
     7
100
AcDbLine
 10
2110.8683562111
 20
844.554336232
 30
0.0
 11
2110.8683562111
 21
762.5461532295
 31
0.0
  0
ARC
  5
7F
330
1F
100
AcDbEntity
  8
0
  6
CONTINUOUS
 62
     7
100
AcDbCircle
 10
2091.8182800697
 20
844.5543610551
 30
0.0
 40
19.05000000000001
100
AcDbArc
 50
0.0
 51
60.0
  0
ARC
  5
80
330
1F
100
AcDbEntity
  8
0
  6
CONTINUOUS
 62
     7
100
AcDbCircle
 10
2110.8682800697
 20
877.5499289393
 30
0.0
 40
19.04999999999973
100
AcDbArc
 50
180.0
 51
240.0
  0
LINE
  5
81
330
1F
100
AcDbEntity
  8
0
  6
CONTINUOUS
 62
     7
100
AcDbLine
 10
2091.8182349037
 20
1000.5472613991
 30
0.0
 11
2091.8182349037
 21
877.5499178589
 31
0.0
  0
ARC
  5
82
330
1F
100
AcDbEntity
  8
0
  6
CONTINUOUS
 62
     7
100
AcDbCircle
 10
2079.8182800697
 20
1000.5472622726
 30
0.0
 40
12.0
100
AcDbArc
 50
0.0
 51
90.0
  0
LINE
  5
83
330
1F
100
AcDbEntity
  8
0
  6
CONTINUOUS
 62
     7
100
AcDbLine
 10
1941.8683266472
 20
1012.5472857178
 30
0.0
 11
2079.8183893989
 21
1012.5472857178
 31
0.0
  0
ARC
  5
84
330
1F
100
AcDbEntity
  8
0
  6
CONTINUOUS
 62
     7
100
AcDbCircle
 10
1941.8682800697
 20
1018.5472622726
 30
0.0
 40
6.0
100
AcDbArc
 50
180.0
 51
270.0
  0
LINE
  5
85
330
1F
100
AcDbEntity
  8
0
  6
CONTINUOUS
 62
     7
100
AcDbLine
 10
1935.8682846855
 20
1030.2973105133
 30
0.0
 11
1935.8682846855
 21
1018.5472084701
 31
0.0
  0
ARC
  5
86
330
1F
100
AcDbEntity
  8
0
  6
CONTINUOUS
 62
     7
100
AcDbCircle
 10
1936.8682800697
 20
1030.2972622726
 30
0.0
 40
1.000000000000227
100
AcDbArc
 50
90.0
 51
180.0
  0
LINE
  5
87
330
1F
100
AcDbEntity
  8
0
  6
CONTINUOUS
 62
     7
100
AcDbLine
 10
1936.8683314155
 20
1031.297238034
 30
0.0
 11
1942.1283221077
 21
1031.297238034
 31
0.0
  0
LINE
  5
88
330
1F
100
AcDbEntity
  8
0
  6
CONTINUOUS
 62
     7
100
AcDbLine
 10
1942.1283221077
 20
1031.297238034
 30
0.0
 11
1942.4684262108
 21
1025.983364743
 31
0.0
  0
ARC
  5
89
330
1F
100
AcDbEntity
  8
0
  6
CONTINUOUS
 62
     7
100
AcDbCircle
 10
1943.4663259768
 20
1026.0472622726
 30
0.0
 40
1.000000000000227
100
AcDbArc
 50
183.6619355755
 51
270.0
  0
LINE
  5
8A
330
1F
100
AcDbEntity
  8
0
  6
CONTINUOUS
 62
     7
100
AcDbLine
 10
1943.4663271736
 20
1025.0472141922
 30
0.0
 11
1957.4059462379
 21
1025.0472141922
 31
0.0
  0
ARC
  5
8B
330
1F
100
AcDbEntity
  8
0
  6
CONTINUOUS
 62
     7
100
AcDbCircle
 10
1957.4060016863
 20
1024.0472622726
 30
0.0
 40
0.9999999999999415
100
AcDbArc
 50
65.1121079736
 51
90.0
  0
ARC
  5
8C
330
1F
100
AcDbEntity
  8
0
  6
CONTINUOUS
 62
     7
100
AcDbCircle
 10
1960.0026099301
 20
1029.6442726914
 30
0.0
 40
5.169999999999962
100
AcDbArc
 50
245.1121079736
 51
72.3995332141
  0
ARC
  5
8D
330
1F
100
AcDbEntity
  8
0
  6
CONTINUOUS
 62
     7
100
AcDbCircle
 10
1961.8682800697
 20
1035.5254439124
 30
0.0
 40
1.0
100
AcDbArc
 50
180.0
 51
252.3995332141
  0
LINE
  5
8E
330
1F
100
AcDbEntity
  8
0
  6
CONTINUOUS
 62
     7
100
AcDbLine
 10
1960.8682608436
 20
1037.5492884338
 30
0.0
 11
1960.8682608436
 21
1035.5254723251
 31
0.0
  0
LINE
  5
8F
330
1F
100
AcDbEntity
  8
0
  6
CONTINUOUS
 62
     7
100
AcDbLine
 10
2098.8682722877
 20
1037.5492884338
 30
0.0
 11
1960.8682608436
 21
1037.5492884338
 31
0.0
  0
ARC
  5
90
330
1F
100
AcDbEntity
  8
0
  6
CONTINUOUS
 62
     7
100
AcDbCircle
 10
2098.8682800697
 20
1025.5492622726
 30
0.0
 40
12.0
100
AcDbArc
 50
0.0
 51
90.0
  0
LINE
  5
91
330
1F
100
AcDbEntity
  8
0
  6
CONTINUOUS
 62
     7
100
AcDbLine
 10
2110.8683562111
 20
889.5499421776
 30
0.0
 11
2110.8683562111
 21
1025.5492045105
 31
0.0
  0
ARC
  5
92
330
1F
100
AcDbEntity
  8
0
  6
CONTINUOUS
 62
     7
100
AcDbCircle
 10
2122.8682800697
 20
889.5499289393
 30
0.0
 40
12.00000000000045
100
AcDbArc
 50
180.0
 51
270.0
  0
LINE
  5
93
330
1F
100
AcDbEntity
  8
0
  6
CONTINUOUS
 62
     7
100
AcDbLine
 10
2148.868224604
 20
877.5499178589
 30
0.0
 11
2122.8682017158
 21
877.5499178589
 31
0.0
  0
ARC
  5
94
330
1F
100
AcDbEntity
  8
0
  6
CONTINUOUS
 62
     7
100
AcDbCircle
 10
2148.8682800697
 20
889.5499289393
 30
0.0
 40
11.99999999999989
100
AcDbArc
 50
270.0
 51
0.0
  0
LINE
  5
95
330
1F
100
AcDbEntity
  8
0
  6
CONTINUOUS
 62
     7
100
AcDbLine
 10
2160.8683085273
 20
1025.5492045105
 30
0.0
 11
2160.8683085273
 21
889.5499421776
 31
0.0
  0
ARC
  5
96
330
1F
100
AcDbEntity
  8
0
  6
CONTINUOUS
 62
     7
100
AcDbCircle
 10
2172.8682800697
 20
1025.5492622726
 30
0.0
 40
12.0
100
AcDbArc
 50
90.0
 51
180.0
  0
LINE
  5
97
330
1F
100
AcDbEntity
  8
0
  6
CONTINUOUS
 62
     7
100
AcDbLine
 10
2310.8681654762
 20
1037.5492884338
 30
0.0
 11
2172.8683924507
 21
1037.5492884338
 31
0.0
  0
LINE
  5
98
330
1F
100
AcDbEntity
  8
0
  6
CONTINUOUS
 62
     7
100
AcDbLine
 10
2310.8681654762
 20
1035.5254723251
 30
0.0
 11
2310.8681654762
 21
1037.5492884338
 31
0.0
  0
ARC
  5
99
330
1F
100
AcDbEntity
  8
0
  6
CONTINUOUS
 62
     7
100
AcDbCircle
 10
2309.8682800697
 20
1035.5254439124
 30
0.0
 40
0.9999999999998535
100
AcDbArc
 50
287.6004667858
 51
0.0
  0
ARC
  5
9A
330
1F
100
AcDbEntity
  8
0
  6
CONTINUOUS
 62
     7
100
AcDbCircle
 10
2311.7339502093
 20
1029.6442726914
 30
0.0
 40
5.17000000000003
100
AcDbArc
 50
107.6004667859
 51
294.8878920264
  0
ARC
  5
9B
330
1F
100
AcDbEntity
  8
0
  6
CONTINUOUS
 62
     7
100
AcDbCircle
 10
2314.3305584531
 20
1024.0472622726
 30
0.0
 40
0.9999999999998458
100
AcDbArc
 50
90.0
 51
114.8878920263
  0
LINE
  5
9C
330
1F
100
AcDbEntity
  8
0
  6
CONTINUOUS
 62
     7
100
AcDbLine
 10
2314.3304800819
 20
1025.0472141922
 30
0.0
 11
2328.2703375648
 21
1025.0472141922
 31
0.0
  0
ARC
  5
9D
330
1F
100
AcDbEntity
  8
0
  6
CONTINUOUS
 62
     7
100
AcDbCircle
 10
2328.2702341626
 20
1026.0472622726
 30
0.0
 40
1.000000000000227
100
AcDbArc
 50
270.0
 51
356.3380644245
  0
LINE
  5
9E
330
1F
100
AcDbEntity
  8
0
  6
CONTINUOUS
 62
     7
100
AcDbLine
 10
2329.2681193184
 20
1025.983364743
 30
0.0
 11
2329.6083426307
 21
1031.297238034
 31
0.0
  0
LINE
  5
9F
330
1F
100
AcDbEntity
  8
0
  6
CONTINUOUS
 62
     7
100
AcDbLine
 10
2329.6083426307
 20
1031.297238034
 30
0.0
 11
2334.8683333229
 21
1031.297238034
 31
0.0
  0
ARC
  5
A0
330
1F
100
AcDbEntity
  8
0
  6
CONTINUOUS
 62
     7
100
AcDbCircle
 10
2334.8682800697
 20
1030.2972622726
 30
0.0
 40
1.000000000000455
100
AcDbArc
 50
0.0
 51
90.0
  0
LINE
  5
A1
330
1F
100
AcDbEntity
  8
0
  6
CONTINUOUS
 62
     7
100
AcDbLine
 10
2335.8682608436
 20
1018.5472084701
 30
0.0
 11
2335.8682608436
 21
1030.2973105133
 31
0.0
  0
ARC
  5
A2
330
1F
100
AcDbEntity
  8
0
  6
CONTINUOUS
 62
     7
100
AcDbCircle
 10
2329.8682800697
 20
1018.5472622726
 30
0.0
 40
6.000000000000455
100
AcDbArc
 50
270.0
 51
0.0
  0
LINE
  5
A3
330
1F
100
AcDbEntity
  8
0
  6
CONTINUOUS
 62
     7
100
AcDbLine
 10
2191.9182753395
 20
1012.5472857178
 30
0.0
 11
2329.868218882
 21
1012.5472857178
 31
0.0
  0
ARC
  5
A4
330
1F
100
AcDbEntity
  8
0
  6
CONTINUOUS
 62
     7
100
AcDbCircle
 10
2191.9182800697
 20
1000.5472622726
 30
0.0
 40
12.00000000000045
100
AcDbArc
 50
90.0
 51
180.0
  0
LINE
  5
A5
330
1F
100
AcDbEntity
  8
0
  6
CONTINUOUS
 62
     7
100
AcDbLine
 10
2179.9181914161
 20
877.5499178589
 30
0.0
 11
2179.9181914161
 21
1000.5472613991
 31
0.0
  0
ARC
  5
A6
330
1F
100
AcDbEntity
  8
0
  6
CONTINUOUS
 62
     7
100
AcDbCircle
 10
2160.8682800697
 20
877.5499289393
 30
0.0
 40
19.05000000000047
100
AcDbArc
 50
300.0
 51
0.0
  0
ARC
  5
A7
330
1F
100
AcDbEntity
  8
0
  6
CONTINUOUS
 62
     7
100
AcDbCircle
 10
2179.9182800697
 20
844.5543610551
 30
0.0
 40
19.04999999999956
100
AcDbArc
 50
120.0
 51
180.0
  0
LINE
  5
A8
330
1F
100
AcDbEntity
  8
0
  6
CONTINUOUS
 62
     7
100
AcDbLine
 10
2160.8683085273
 20
762.5461532295
 30
0.0
 11
2160.8683085273
 21
844.554336232
 31
0.0
  0
ARC
  5
A9
330
1F
100
AcDbEntity
  8
0
  6
CONTINUOUS
 62
     7
100
AcDbCircle
 10
2179.9182800697
 20
762.5461634902
 30
0.0
 40
19.05000000000018
100
AcDbArc
 50
180.0
 51
240.0
  0
ARC
  5
AA
330
1F
100
AcDbEntity
  8
0
  6
CONTINUOUS
 62
     7
100
AcDbCircle
 10
2160.8682800697
 20
729.550595606
 30
0.0
 40
19.05000000000011
100
AcDbArc
 50
0.0
 51
60.0
  0
LINE
  5
AB
330
1F
100
AcDbEntity
  8
0
  6
CONTINUOUS
 62
     7
100
AcDbLine
 10
2179.9181914161
 20
606.5532876671
 30
0.0
 11
2179.9181914161
 21
729.5505716026
 31
0.0
  0
ARC
  5
AC
330
1F
100
AcDbEntity
  8
0
  6
CONTINUOUS
 62
     7
100
AcDbCircle
 10
2191.9182800697
 20
606.5532622726
 30
0.0
 40
12.00000000000045
100
AcDbArc
 50
180.0
 51
270.0
  0
LINE
  5
AD
330
1F
100
AcDbEntity
  8
0
  6
CONTINUOUS
 62
     7
100
AcDbLine
 10
2329.868218882
 20
594.5532633484
 30
0.0
 11
2191.9182753395
 21
594.5532633484
 31
0.0
  0
ARC
  5
AE
330
1F
100
AcDbEntity
  8
0
  6
CONTINUOUS
 62
     7
100
AcDbCircle
 10
2329.8682800697
 20
588.5532622726
 30
0.0
 40
6.000000000000455
100
AcDbArc
 50
0.0
 51
90.0
  0
LINE
  5
AF
330
1F
100
AcDbEntity
  8
0
  6
CONTINUOUS
 62
     7
100
AcDbLine
 10
2334.8683333229
 20
575.8032514274
 30
0.0
 11
2329.6083426307
 21
575.8032514274
 31
0.0
  0
LINE
  5
B0
330
1F
100
AcDbEntity
  8
0
  6
CONTINUOUS
 62
     7
100
AcDbLine
 10
2329.6083426307
 20
575.8032514274
 30
0.0
 11
2329.2681193184
 21
581.1171247185
 31
0.0
  0
ARC
  5
B1
330
1F
100
AcDbEntity
  8
0
  6
CONTINUOUS
 62
     7
100
AcDbCircle
 10
2328.2702341626
 20
581.0532622726
 30
0.0
 40
1.000000000000163
100
AcDbArc
 50
3.6619355755
 51
90.0
  0
LINE
  5
B2
330
1F
100
AcDbEntity
  8
0
  6
CONTINUOUS
 62
     7
100
AcDbLine
 10
2328.2703375648
 20
582.0532752693
 30
0.0
 11
2314.3304800819
 21
582.0532752693
 31
0.0
  0
ARC
  5
B3
330
1F
100
AcDbEntity
  8
0
  6
CONTINUOUS
 62
     7
100
AcDbCircle
 10
2314.3305584531
 20
583.0532622726
 30
0.0
 40
1.0
100
AcDbArc
 50
245.1121079737
 51
270.0
  0
ARC
  5
B4
330
1F
100
AcDbEntity
  8
0
  6
CONTINUOUS
 62
     7
100
AcDbCircle
 10
2311.7339502093
 20
577.4562518538
 30
0.0
 40
5.17000000000003
100
AcDbArc
 50
65.1121079736
 51
252.3995332141
  0
ARC
  5
B5
330
1F
100
AcDbEntity
  8
0
  6
CONTINUOUS
 62
     7
100
AcDbCircle
 10
2309.8682800697
 20
571.5750806329
 30
0.0
 40
0.9999999999999618
100
AcDbArc
 50
0.0
 51
72.3995332142
  0
LINE
  5
B6
330
1F
100
AcDbEntity
  8
0
  6
CONTINUOUS
 62
     7
100
AcDbLine
 10
2310.8681654762
 20
569.5512606323
 30
0.0
 11
2310.8681654762
 21
571.575076741
 31
0.0
  0
LINE
  5
B7
330
1F
100
AcDbEntity
  8
0
  6
CONTINUOUS
 62
     7
100
AcDbLine
 10
2172.8683924507
 20
569.5512606323
 30
0.0
 11
2310.8681654762
 21
569.5512606323
 31
0.0
  0
ARC
  5
B8
330
1F
100
AcDbEntity
  8
0
  6
CONTINUOUS
 62
     7
100
AcDbCircle
 10
2172.8682800697
 20
581.5512622726
 30
0.0
 40
12.0
100
AcDbArc
 50
180.0
 51
270.0
  0
LINE
  5
B9
330
1F
100
AcDbEntity
  8
0
  6
CONTINUOUS
 62
     7
100
AcDbLine
 10
2160.8683085273
 20
717.5506068886
 30
0.0
 11
2160.8683085273
 21
581.551284951
 31
0.0
  0
ARC
  5
BA
330
1F
100
AcDbEntity
  8
0
  6
CONTINUOUS
 62
     7
100
AcDbCircle
 10
2148.8682800697
 20
717.550595606
 30
0.0
 40
12.00000000000045
100
AcDbArc
 50
0.0
 51
90.0
  0
LINE
  5
BB
330
1F
100
AcDbEntity
  8
0
  6
CONTINUOUS
 62
     7
100
AcDbLine
 10
2122.8682017158
 20
729.5505716026
 30
0.0
 11
2148.868224604
 21
729.5505716026
 31
0.0
  0
ARC
  5
BC
330
1F
100
AcDbEntity
  8
0
  6
CONTINUOUS
 62
     7
100
AcDbCircle
 10
2122.8682800697
 20
717.550595606
 30
0.0
 40
12.00000000000045
100
AcDbArc
 50
90.0
 51
180.0
  0
LINE
  5
BD
330
1F
100
AcDbEntity
  8
0
  6
CONTINUOUS
 62
     7
100
AcDbLine
 10
2110.8683562111
 20
581.551284951
 30
0.0
 11
2110.8683562111
 21
717.5506068886
 31
0.0
  0
ARC
  5
BE
330
1F
100
AcDbEntity
  8
0
  6
CONTINUOUS
 62
     7
100
AcDbCircle
 10
2098.8682800697
 20
581.5512622726
 30
0.0
 40
12.0
100
AcDbArc
 50
270.0
 51
0.0
  0
LINE
  5
BF
330
1F
100
AcDbEntity
  8
0
  6
CONTINUOUS
 62
     7
100
AcDbLine
 10
1960.8682608436
 20
569.5512606323
 30
0.0
 11
2098.8682722877
 21
569.5512606323
 31
0.0
  0
LINE
  5
C0
330
1F
100
AcDbEntity
  8
0
  6
CONTINUOUS
 62
     7
100
AcDbLine
 10
1960.8682608436
 20
571.575076741
 30
0.0
 11
1960.8682608436
 21
569.5512606323
 31
0.0
  0
ARC
  5
C1
330
1F
100
AcDbEntity
  8
0
  6
CONTINUOUS
 62
     7
100
AcDbCircle
 10
1961.8682800697
 20
571.5750806329
 30
0.0
 40
0.9999999999998825
100
AcDbArc
 50
107.6004667859
 51
180.0
  0
ARC
  5
C2
330
1F
100
AcDbEntity
  8
0
  6
CONTINUOUS
 62
     7
100
AcDbCircle
 10
1960.0026099301
 20
577.4562518538
 30
0.0
 40
5.17000000000011
100
AcDbArc
 50
287.6004667859
 51
114.8878920264
  0
ARC
  5
C3
330
1F
100
AcDbEntity
  8
0
  6
CONTINUOUS
 62
     7
100
AcDbCircle
 10
1957.4060016863
 20
583.0532622726
 30
0.0
 40
0.999999999999934
100
AcDbArc
 50
270.0
 51
294.8878920264
  0
LINE
  5
C4
330
1F
100
AcDbEntity
  8
0
  6
CONTINUOUS
 62
     7
100
AcDbLine
 10
1957.4059462379
 20
582.0532752693
 30
0.0
 11
1943.4663271736
 21
582.0532752693
 31
0.0
  0
ARC
  5
C5
330
1F
100
AcDbEntity
  8
0
  6
CONTINUOUS
 62
     7
100
AcDbCircle
 10
1943.4663259768
 20
581.0532622726
 30
0.0
 40
1.000000000000156
100
AcDbArc
 50
90.0
 51
176.3380644245
  0
LINE
  5
C6
330
1F
100
AcDbEntity
  8
0
  6
CONTINUOUS
 62
     7
100
AcDbLine
 10
1942.4684262108
 20
581.1171247185
 30
0.0
 11
1942.1283221077
 21
575.8032514274
 31
0.0
  0
LINE
  5
C7
330
1F
100
AcDbEntity
  8
0
  6
CONTINUOUS
 62
     7
100
AcDbLine
 10
1942.1283221077
 20
575.8032514274
 30
0.0
 11
1936.8683314155
 21
575.8032514274
 31
0.0
  0
ARC
  5
C8
330
1F
100
AcDbEntity
  8
0
  6
CONTINUOUS
 62
     7
100
AcDbCircle
 10
1936.8682800697
 20
576.8032622726
 30
0.0
 40
1.0
100
AcDbArc
 50
180.0
 51
270.0
  0
LINE
  5
C9
330
1F
100
AcDbEntity
  8
0
  6
CONTINUOUS
 62
     7
100
AcDbLine
 10
1935.8682846855
 20
588.5532809914
 30
0.0
 11
1935.8682846855
 21
576.8032385528
 31
0.0
  0
ARC
  5
CA
330
1F
100
AcDbEntity
  8
0
  6
CONTINUOUS
 62
     7
100
AcDbCircle
 10
2334.8682800697
 20
576.8032622726
 30
0.0
 40
1.000000000000455
100
AcDbArc
 50
270.0
 51
0.0
  0
LINE
  5
CB
330
1F
100
AcDbEntity
  8
0
  6
CONTINUOUS
 62
     7
100
AcDbLine
 10
2335.8682608436
 20
576.8032385528
 30
0.0
 11
2335.8682608436
 21
588.5532809914
 31
0.0
  0
ARC
  5
CC
330
1F
100
AcDbEntity
  8
0
  6
CONTINUOUS
 62
     7
100
AcDbCircle
 10
1898.3882800697
 20
1018.5452622726
 30
0.0
 40
6.0
100
AcDbArc
 50
270.0
 51
0.0
  0
LINE
  5
CD
330
1F
100
AcDbEntity
  8
0
  6
CONTINUOUS
 62
     7
100
AcDbLine
 10
1760.4382252525
 20
1012.5452591598
 30
0.0
 11
1898.3882880043
 21
1012.5452591598
 31
0.0
  0
ARC
  5
CE
330
1F
100
AcDbEntity
  8
0
  6
CONTINUOUS
 62
     7
100
AcDbCircle
 10
1760.4382800697
 20
1000.5452622726
 30
0.0
 40
12.0
100
AcDbArc
 50
90.0
 51
180.0
  0
LINE
  5
CF
330
1F
100
AcDbEntity
  8
0
  6
CONTINUOUS
 62
     7
100
AcDbLine
 10
1748.4382605385
 20
877.5479509056
 30
0.0
 11
1748.4382605385
 21
1000.5452348411
 31
0.0
  0
ARC
  5
D0
330
1F
100
AcDbEntity
  8
0
  6
CONTINUOUS
 62
     7
100
AcDbCircle
 10
1729.3882800697
 20
877.5479289393
 30
0.0
 40
19.05000000000018
100
AcDbArc
 50
300.0
 51
0.0
  0
ARC
  5
D1
330
1F
100
AcDbEntity
  8
0
  6
CONTINUOUS
 62
     7
100
AcDbCircle
 10
1748.4382800697
 20
844.5523610551
 30
0.0
 40
19.05000000000018
100
AcDbArc
 50
120.0
 51
180.0
  0
LINE
  5
D2
330
1F
100
AcDbEntity
  8
0
  6
CONTINUOUS
 62
     7
100
AcDbLine
 10
1729.3882584404
 20
762.5441862762
 30
0.0
 11
1729.3882584404
 21
844.5523692787
 31
0.0
  0
ARC
  5
D3
330
1F
100
AcDbEntity
  8
0
  6
CONTINUOUS
 62
     7
100
AcDbCircle
 10
1748.4382800697
 20
762.5441634902
 30
0.0
 40
19.05000000000018
100
AcDbArc
 50
180.0
 51
240.0
  0
ARC
  5
D4
330
1F
100
AcDbEntity
  8
0
  6
CONTINUOUS
 62
     7
100
AcDbCircle
 10
1729.3882800697
 20
729.548595606
 30
0.0
 40
19.05000000000018
100
AcDbArc
 50
0.0
 51
60.0
  0
LINE
  5
D5
330
1F
100
AcDbEntity
  8
0
  6
CONTINUOUS
 62
     7
100
AcDbLine
 10
1748.4382605385
 20
606.5512611091
 30
0.0
 11
1748.4382605385
 21
729.5486046493
 31
0.0
  0
ARC
  5
D6
330
1F
100
AcDbEntity
  8
0
  6
CONTINUOUS
 62
     7
100
AcDbCircle
 10
1760.4382800697
 20
606.5512622726
 30
0.0
 40
12.0
100
AcDbArc
 50
180.0
 51
270.0
  0
LINE
  5
D7
330
1F
100
AcDbEntity
  8
0
  6
CONTINUOUS
 62
     7
100
AcDbLine
 10
1898.3882880043
 20
594.5512367905
 30
0.0
 11
1760.4382252525
 21
594.5512367905
 31
0.0
  0
ARC
  5
D8
330
1F
100
AcDbEntity
  8
0
  6
CONTINUOUS
 62
     7
100
AcDbCircle
 10
1898.3882800697
 20
588.5512622726
 30
0.0
 40
6.0
100
AcDbArc
 50
0.0
 51
90.0
  0
LINE
  5
D9
330
1F
100
AcDbEntity
  8
0
  6
CONTINUOUS
 62
     7
100
AcDbLine
 10
1903.3882832359
 20
575.8012844742
 30
0.0
 11
1898.1282925438
 21
575.8012844742
 31
0.0
  0
LINE
  5
DA
330
1F
100
AcDbEntity
  8
0
  6
CONTINUOUS
 62
     7
100
AcDbLine
 10
1898.1282925438
 20
575.8012844742
 30
0.0
 11
1897.7881884407
 21
581.1151577652
 31
0.0
  0
ARC
  5
DB
330
1F
100
AcDbEntity
  8
0
  6
CONTINUOUS
 62
     7
100
AcDbCircle
 10
1896.7902341626
 20
581.0512622726
 30
0.0
 40
0.9999999999999293
100
AcDbArc
 50
3.6619355755
 51
90.0
  0
LINE
  5
DC
330
1F
100
AcDbEntity
  8
0
  6
CONTINUOUS
 62
     7
100
AcDbLine
 10
1896.7902874778
 20
582.0512487114
 30
0.0
 11
1882.8505492042
 21
582.0512487114
 31
0.0
  0
ARC
  5
DD
330
1F
100
AcDbEntity
  8
0
  6
CONTINUOUS
 62
     7
100
AcDbCircle
 10
1882.8505584531
 20
583.0512622726
 30
0.0
 40
1.000000000000114
100
AcDbArc
 50
245.1121079736
 51
270.0
  0
ARC
  5
DE
330
1F
100
AcDbEntity
  8
0
  6
CONTINUOUS
 62
     7
100
AcDbCircle
 10
1880.2539502093
 20
577.4542518538
 30
0.0
 40
5.170000000000036
100
AcDbArc
 50
65.1121079736
 51
252.3995332141
  0
ARC
  5
DF
330
1F
100
AcDbEntity
  8
0
  6
CONTINUOUS
 62
     7
100
AcDbCircle
 10
1878.3882800697
 20
571.5730806329
 30
0.0
 40
1.000000000000227
100
AcDbArc
 50
0.0
 51
72.3995332141
  0
LINE
  5
E0
330
1F
100
AcDbEntity
  8
0
  6
CONTINUOUS
 62
     7
100
AcDbLine
 10
1879.3882345985
 20
569.5492340744
 30
0.0
 11
1879.3882345985
 21
571.5731097877
 31
0.0
  0
LINE
  5
E1
330
1F
100
AcDbEntity
  8
0
  6
CONTINUOUS
 62
     7
100
AcDbLine
 10
1741.3882231544
 20
569.5492340744
 30
0.0
 11
1879.3882345985
 21
569.5492340744
 31
0.0
  0
ARC
  5
E2
330
1F
100
AcDbEntity
  8
0
  6
CONTINUOUS
 62
     7
100
AcDbCircle
 10
1741.3882800697
 20
581.5492622726
 30
0.0
 40
12.0
100
AcDbArc
 50
180.0
 51
270.0
  0
LINE
  5
E3
330
1F
100
AcDbEntity
  8
0
  6
CONTINUOUS
 62
     7
100
AcDbLine
 10
1729.3882584404
 20
717.5485803306
 30
0.0
 11
1729.3882584404
 21
581.5492583931
 31
0.0
  0
ARC
  5
E4
330
1F
100
AcDbEntity
  8
0
  6
CONTINUOUS
 62
     7
100
AcDbCircle
 10
1717.3882800697
 20
717.548595606
 30
0.0
 40
12.0
100
AcDbArc
 50
0.0
 51
90.0
  0
LINE
  5
E5
330
1F
100
AcDbEntity
  8
0
  6
CONTINUOUS
 62
     7
100
AcDbLine
 10
1691.3882708381
 20
729.5486046493
 30
0.0
 11
1717.3882937263
 21
729.5486046493
 31
0.0
  0
ARC
  5
E6
330
1F
100
AcDbEntity
  8
0
  6
CONTINUOUS
 62
     7
100
AcDbCircle
 10
1691.3882800697
 20
717.548595606
 30
0.0
 40
12.0
100
AcDbArc
 50
90.0
 51
180.0
  0
LINE
  5
E7
330
1F
100
AcDbEntity
  8
0
  6
CONTINUOUS
 62
     7
100
AcDbLine
 10
1679.3883061241
 20
581.5492583931
 30
0.0
 11
1679.3883061241
 21
717.5485803306
 31
0.0
  0
ARC
  5
E8
330
1F
100
AcDbEntity
  8
0
  6
CONTINUOUS
 62
     7
100
AcDbCircle
 10
1667.3882800697
 20
581.5492622726
 30
0.0
 40
12.0
100
AcDbArc
 50
270.0
 51
0.0
  0
LINE
  5
E9
330
1F
100
AcDbEntity
  8
0
  6
CONTINUOUS
 62
     7
100
AcDbLine
 10
1529.3883299659
 20
569.5492340744
 30
0.0
 11
1667.3882222007
 21
569.5492340744
 31
0.0
  0
LINE
  5
EA
330
1F
100
AcDbEntity
  8
0
  6
CONTINUOUS
 62
     7
100
AcDbLine
 10
1529.3883299659
 20
571.5731097877
 30
0.0
 11
1529.3883299659
 21
569.5492340744
 31
0.0
  0
ARC
  5
EB
330
1F
100
AcDbEntity
  8
0
  6
CONTINUOUS
 62
     7
100
AcDbCircle
 10
1530.3882800697
 20
571.5730806329
 30
0.0
 40
1.000000000000227
100
AcDbArc
 50
107.6004667859
 51
180.0
  0
ARC
  5
EC
330
1F
100
AcDbEntity
  8
0
  6
CONTINUOUS
 62
     7
100
AcDbCircle
 10
1528.5226099301
 20
577.4542518538
 30
0.0
 40
5.170000000000036
100
AcDbArc
 50
287.6004667859
 51
114.8878920264
  0
ARC
  5
ED
330
1F
100
AcDbEntity
  8
0
  6
CONTINUOUS
 62
     7
100
AcDbCircle
 10
1525.9260016863
 20
583.0512622726
 30
0.0
 40
1.0
100
AcDbArc
 50
270.0
 51
294.8878920264
  0
LINE
  5
EE
330
1F
100
AcDbEntity
  8
0
  6
CONTINUOUS
 62
     7
100
AcDbLine
 10
1525.9260153602
 20
582.0512487114
 30
0.0
 11
1511.9862770866
 21
582.0512487114
 31
0.0
  0
ARC
  5
EF
330
1F
100
AcDbEntity
  8
0
  6
CONTINUOUS
 62
     7
100
AcDbCircle
 10
1511.9863259768
 20
581.0512622726
 30
0.0
 40
1.0
100
AcDbArc
 50
90.0
 51
176.3380644245
  0
LINE
  5
F0
330
1F
100
AcDbEntity
  8
0
  6
CONTINUOUS
 62
     7
100
AcDbLine
 10
1510.9883761238
 20
581.1151577652
 30
0.0
 11
1510.6482720207
 21
575.8012844742
 31
0.0
  0
LINE
  5
F1
330
1F
100
AcDbEntity
  8
0
  6
CONTINUOUS
 62
     7
100
AcDbLine
 10
1510.6482720207
 20
575.8012844742
 30
0.0
 11
1505.3882813286
 21
575.8012844742
 31
0.0
  0
ARC
  5
F2
330
1F
100
AcDbEntity
  8
0
  6
CONTINUOUS
 62
     7
100
AcDbCircle
 10
1505.3882800697
 20
576.8012622726
 30
0.0
 40
1.000000000000114
100
AcDbArc
 50
180.0
 51
270.0
  0
LINE
  5
F3
330
1F
100
AcDbEntity
  8
0
  6
CONTINUOUS
 62
     7
100
AcDbLine
 10
1504.3882345985
 20
588.5512544334
 30
0.0
 11
1504.3882345985
 21
576.8012715996
 31
0.0
  0
ARC
  5
F4
330
1F
100
AcDbEntity
  8
0
  6
CONTINUOUS
 62
     7
100
AcDbCircle
 10
1510.3882800697
 20
588.5512622726
 30
0.0
 40
6.0
100
AcDbArc
 50
90.0
 51
180.0
  0
LINE
  5
F5
330
1F
100
AcDbEntity
  8
0
  6
CONTINUOUS
 62
     7
100
AcDbLine
 10
1648.338339312
 20
594.5512367905
 30
0.0
 11
1510.3882765602
 21
594.5512367905
 31
0.0
  0
ARC
  5
F6
330
1F
100
AcDbEntity
  8
0
  6
CONTINUOUS
 62
     7
100
AcDbCircle
 10
1648.3382800697
 20
606.5512622726
 30
0.0
 40
12.0
100
AcDbArc
 50
270.0
 51
0.0
  0
LINE
  5
F7
330
1F
100
AcDbEntity
  8
0
  6
CONTINUOUS
 62
     7
100
AcDbLine
 10
1660.338304026
 20
729.5486046493
 30
0.0
 11
1660.338304026
 21
606.5512611091
 31
0.0
  0
ARC
  5
F8
330
1F
100
AcDbEntity
  8
0
  6
CONTINUOUS
 62
     7
100
AcDbCircle
 10
1679.3882800697
 20
729.548595606
 30
0.0
 40
19.05000000000011
100
AcDbArc
 50
120.0
 51
180.0
  0
ARC
  5
F9
330
1F
100
AcDbEntity
  8
0
  6
CONTINUOUS
 62
     7
100
AcDbCircle
 10
1660.3382800697
 20
762.5441634902
 30
0.0
 40
19.04999999999995
100
AcDbArc
 50
300.0
 51
0.0
  0
LINE
  5
FA
330
1F
100
AcDbEntity
  8
0
  6
CONTINUOUS
 62
     7
100
AcDbLine
 10
1679.3883061241
 20
844.5523692787
 30
0.0
 11
1679.3883061241
 21
762.5441862762
 31
0.0
  0
ARC
  5
FB
330
1F
100
AcDbEntity
  8
0
  6
CONTINUOUS
 62
     7
100
AcDbCircle
 10
1660.3382800697
 20
844.5523610551
 30
0.0
 40
19.04999999999995
100
AcDbArc
 50
0.0
 51
60.0
  0
ARC
  5
FC
330
1F
100
AcDbEntity
  8
0
  6
CONTINUOUS
 62
     7
100
AcDbCircle
 10
1679.3882800697
 20
877.5479289393
 30
0.0
 40
19.05000000000001
100
AcDbArc
 50
180.0
 51
240.0
  0
LINE
  5
FD
330
1F
100
AcDbEntity
  8
0
  6
CONTINUOUS
 62
     7
100
AcDbLine
 10
1660.338304026
 20
1000.5452348411
 30
0.0
 11
1660.338304026
 21
877.5479509056
 31
0.0
  0
ARC
  5
FE
330
1F
100
AcDbEntity
  8
0
  6
CONTINUOUS
 62
     7
100
AcDbCircle
 10
1648.3382800697
 20
1000.5452622726
 30
0.0
 40
12.00000000000023
100
AcDbArc
 50
0.0
 51
90.0
  0
LINE
  5
FF
330
1F
100
AcDbEntity
  8
0
  6
CONTINUOUS
 62
     7
100
AcDbLine
 10
1510.3882765602
 20
1012.5452591598
 30
0.0
 11
1648.338339312
 21
1012.5452591598
 31
0.0
  0
ARC
  5
100
330
1F
100
AcDbEntity
  8
0
  6
CONTINUOUS
 62
     7
100
AcDbCircle
 10
1510.3882800697
 20
1018.5452622726
 30
0.0
 40
6.0
100
AcDbArc
 50
180.0
 51
270.0
  0
LINE
  5
101
330
1F
100
AcDbEntity
  8
0
  6
CONTINUOUS
 62
     7
100
AcDbLine
 10
1504.3882345985
 20
1030.2952839554
 30
0.0
 11
1504.3882345985
 21
1018.5453011215
 31
0.0
  0
ARC
  5
102
330
1F
100
AcDbEntity
  8
0
  6
CONTINUOUS
 62
     7
100
AcDbCircle
 10
1505.3882800697
 20
1030.2952622726
 30
0.0
 40
1.0
100
AcDbArc
 50
90.0
 51
180.0
  0
LINE
  5
103
330
1F
100
AcDbEntity
  8
0
  6
CONTINUOUS
 62
     7
100
AcDbLine
 10
1505.3882813286
 20
1031.2952114761
 30
0.0
 11
1510.6482720207
 21
1031.2952114761
 31
0.0
  0
LINE
  5
104
330
1F
100
AcDbEntity
  8
0
  6
CONTINUOUS
 62
     7
100
AcDbLine
 10
1510.6482720207
 20
1031.2952114761
 30
0.0
 11
1510.9883761238
 21
1025.9813381851
 31
0.0
  0
ARC
  5
105
330
1F
100
AcDbEntity
  8
0
  6
CONTINUOUS
 62
     7
100
AcDbCircle
 10
1511.9863259768
 20
1026.0452622726
 30
0.0
 40
1.0
100
AcDbArc
 50
183.6619355755
 51
270.0
  0
LINE
  5
106
330
1F
100
AcDbEntity
  8
0
  6
CONTINUOUS
 62
     7
100
AcDbLine
 10
1511.9862770866
 20
1025.0453068436
 30
0.0
 11
1525.9260153602
 21
1025.0453068436
 31
0.0
  0
ARC
  5
107
330
1F
100
AcDbEntity
  8
0
  6
CONTINUOUS
 62
     7
100
AcDbCircle
 10
1525.9260016863
 20
1024.0452622726
 30
0.0
 40
0.9999999999998309
100
AcDbArc
 50
65.1121079736
 51
90.0
  0
ARC
  5
108
330
1F
100
AcDbEntity
  8
0
  6
CONTINUOUS
 62
     7
100
AcDbCircle
 10
1528.5226099301
 20
1029.6422726914
 30
0.0
 40
5.170000000000235
100
AcDbArc
 50
245.1121079736
 51
72.3995332141
  0
ARC
  5
109
330
1F
100
AcDbEntity
  8
0
  6
CONTINUOUS
 62
     7
100
AcDbCircle
 10
1530.3882800697
 20
1035.5234439124
 30
0.0
 40
1.0
100
AcDbArc
 50
180.0
 51
252.3995332141
  0
LINE
  5
10A
330
1F
100
AcDbEntity
  8
0
  6
CONTINUOUS
 62
     7
100
AcDbLine
 10
1529.3883299659
 20
1037.5472618759
 30
0.0
 11
1529.3883299659
 21
1035.5234457672
 31
0.0
  0
LINE
  5
10B
330
1F
100
AcDbEntity
  8
0
  6
CONTINUOUS
 62
     7
100
AcDbLine
 10
1667.3882222007
 20
1037.5472618759
 30
0.0
 11
1529.3883299659
 21
1037.5472618759
 31
0.0
  0
ARC
  5
10C
330
1F
100
AcDbEntity
  8
0
  6
CONTINUOUS
 62
     7
100
AcDbCircle
 10
1667.3882800697
 20
1025.5472622726
 30
0.0
 40
12.0
100
AcDbArc
 50
0.0
 51
90.0
  0
LINE
  5
10D
330
1F
100
AcDbEntity
  8
0
  6
CONTINUOUS
 62
     7
100
AcDbLine
 10
1679.3883061241
 20
889.5479156196
 30
0.0
 11
1679.3883061241
 21
1025.5472971619
 31
0.0
  0
ARC
  5
10E
330
1F
100
AcDbEntity
  8
0
  6
CONTINUOUS
 62
     7
100
AcDbCircle
 10
1691.3882800697
 20
889.5479289393
 30
0.0
 40
12.0
100
AcDbArc
 50
180.0
 51
270.0
  0
LINE
  5
10F
330
1F
100
AcDbEntity
  8
0
  6
CONTINUOUS
 62
     7
100
AcDbLine
 10
1717.3882937263
 20
877.5479509056
 30
0.0
 11
1691.3882708381
 21
877.5479509056
 31
0.0
  0
ARC
  5
110
330
1F
100
AcDbEntity
  8
0
  6
CONTINUOUS
 62
     7
100
AcDbCircle
 10
1717.3882800697
 20
889.5479289393
 30
0.0
 40
12.0
100
AcDbArc
 50
270.0
 51
0.0
  0
LINE
  5
111
330
1F
100
AcDbEntity
  8
0
  6
CONTINUOUS
 62
     7
100
AcDbLine
 10
1729.3882584404
 20
1025.5472971619
 30
0.0
 11
1729.3882584404
 21
889.5479156196
 31
0.0
  0
ARC
  5
112
330
1F
100
AcDbEntity
  8
0
  6
CONTINUOUS
 62
     7
100
AcDbCircle
 10
1741.3882800697
 20
1025.5472622726
 30
0.0
 40
12.0
100
AcDbArc
 50
90.0
 51
180.0
  0
LINE
  5
113
330
1F
100
AcDbEntity
  8
0
  6
CONTINUOUS
 62
     7
100
AcDbLine
 10
1879.3882345985
 20
1037.5472618759
 30
0.0
 11
1741.3882231544
 21
1037.5472618759
 31
0.0
  0
LINE
  5
114
330
1F
100
AcDbEntity
  8
0
  6
CONTINUOUS
 62
     7
100
AcDbLine
 10
1879.3882345985
 20
1035.5234457672
 30
0.0
 11
1879.3882345985
 21
1037.5472618759
 31
0.0
  0
ARC
  5
115
330
1F
100
AcDbEntity
  8
0
  6
CONTINUOUS
 62
     7
100
AcDbCircle
 10
1878.3882800697
 20
1035.5234439124
 30
0.0
 40
1.000000000000227
100
AcDbArc
 50
287.6004667859
 51
0.0
  0
ARC
  5
116
330
1F
100
AcDbEntity
  8
0
  6
CONTINUOUS
 62
     7
100
AcDbCircle
 10
1880.2539502093
 20
1029.6422726914
 30
0.0
 40
5.170000000000331
100
AcDbArc
 50
107.6004667859
 51
294.8878920264
  0
ARC
  5
117
330
1F
100
AcDbEntity
  8
0
  6
CONTINUOUS
 62
     7
100
AcDbCircle
 10
1882.8505584531
 20
1024.0452622726
 30
0.0
 40
0.9999999999997726
100
AcDbArc
 50
90.0
 51
114.8878920264
  0
LINE
  5
118
330
1F
100
AcDbEntity
  8
0
  6
CONTINUOUS
 62
     7
100
AcDbLine
 10
1882.8505492042
 20
1025.0453068436
 30
0.0
 11
1896.7902874778
 21
1025.0453068436
 31
0.0
  0
ARC
  5
119
330
1F
100
AcDbEntity
  8
0
  6
CONTINUOUS
 62
     7
100
AcDbCircle
 10
1896.7902341626
 20
1026.0452622726
 30
0.0
 40
1.000000000000227
100
AcDbArc
 50
270.0
 51
356.3380644245
  0
LINE
  5
11A
330
1F
100
AcDbEntity
  8
0
  6
CONTINUOUS
 62
     7
100
AcDbLine
 10
1897.7881884407
 20
1025.9813381851
 30
0.0
 11
1898.1282925438
 21
1031.2952114761
 31
0.0
  0
LINE
  5
11B
330
1F
100
AcDbEntity
  8
0
  6
CONTINUOUS
 62
     7
100
AcDbLine
 10
1898.1282925438
 20
1031.2952114761
 30
0.0
 11
1903.3882832359
 21
1031.2952114761
 31
0.0
  0
ARC
  5
11C
330
1F
100
AcDbEntity
  8
0
  6
CONTINUOUS
 62
     7
100
AcDbCircle
 10
1903.3882800697
 20
1030.2952622726
 30
0.0
 40
1.000000000000227
100
AcDbArc
 50
0.0
 51
90.0
  0
LINE
  5
11D
330
1F
100
AcDbEntity
  8
0
  6
CONTINUOUS
 62
     7
100
AcDbLine
 10
1904.3883299659
 20
1018.5453011215
 30
0.0
 11
1904.3883299659
 21
1030.2952839554
 31
0.0
  0
ARC
  5
11E
330
1F
100
AcDbEntity
  8
0
  6
CONTINUOUS
 62
     7
100
AcDbCircle
 10
1903.3882800697
 20
576.8012622726
 30
0.0
 40
1.000000000000114
100
AcDbArc
 50
270.0
 51
0.0
  0
LINE
  5
11F
330
1F
100
AcDbEntity
  8
0
  6
CONTINUOUS
 62
     7
100
AcDbLine
 10
1904.3883299659
 20
576.8012715996
 30
0.0
 11
1904.3883299659
 21
588.5512544334
 31
0.0
  0
LINE
  5
120
330
1F
100
AcDbEntity
  8
0
  6
CONTINUOUS
 62
     7
100
AcDbLine
 10
2271.8683695625
 20
30.0712617606
 30
0.0
 11
2271.8683695625
 21
70.0712590039
 31
0.0
  0
LINE
  5
121
330
1F
100
AcDbEntity
  8
0
  6
CONTINUOUS
 62
     7
100
AcDbLine
 10
1903.8683390449
 20
30.0712617606
 30
0.0
 11
2271.8683695625
 21
30.0712617606
 31
0.0
  0
LINE
  5
122
330
1F
100
AcDbEntity
  8
0
  6
CONTINUOUS
 62
     7
100
AcDbLine
 10
1903.8683390449
 20
70.0712590039
 30
0.0
 11
1903.8683390449
 21
30.0712617606
 31
0.0
  0
LINE
  5
123
330
1F
100
AcDbEntity
  8
0
  6
CONTINUOUS
 62
     7
100
AcDbLine
 10
1903.8683390449
 20
70.0712590039
 30
0.0
 11
2271.8683695625
 21
70.0712590039
 31
0.0
  0
LINE
  5
124
330
1F
100
AcDbEntity
  8
0
  6
CONTINUOUS
 62
     7
100
AcDbLine
 10
2271.8683695625
 20
538.0712463081
 30
0.0
 11
1903.8683390449
 21
538.0712463081
 31
0.0
  0
LINE
  5
125
330
1F
100
AcDbEntity
  8
0
  6
CONTINUOUS
 62
     7
100
AcDbLine
 10
2271.8683695625
 20
88.2412655771
 30
0.0
 11
1903.8683390449
 21
88.2412655771
 31
0.0
  0
LINE
  5
126
330
1F
100
AcDbEntity
  8
0
  6
CONTINUOUS
 62
     7
100
AcDbLine
 10
1903.8683390449
 20
538.0712463081
 30
0.0
 11
1903.8683390449
 21
88.2412655771
 31
0.0
  0
LINE
  5
127
330
1F
100
AcDbEntity
  8
0
  6
CONTINUOUS
 62
     7
100
AcDbLine
 10
2271.8683695625
 20
88.2412655771
 30
0.0
 11
2271.8683695625
 21
538.0712463081
 31
0.0
  0
LINE
  5
128
330
1F
100
AcDbEntity
  8
0
  6
CONTINUOUS
 62
     7
100
AcDbLine
 10
1903.8683390449
 20
70.0712590039
 30
0.0
 11
1903.8683390449
 21
88.2412655771
 31
0.0
  0
LINE
  5
129
330
1F
100
AcDbEntity
  8
0
  6
CONTINUOUS
 62
     7
100
AcDbLine
 10
2271.8683695625
 20
88.2412655771
 30
0.0
 11
2271.8683695625
 21
70.0712590039
 31
0.0
  0
LINE
  5
12A
330
1F
100
AcDbEntity
  8
0
  6
CONTINUOUS
 62
     7
100
AcDbLine
 10
1504.3882345985
 20
70.0712590039
 30
0.0
 11
1504.3882345985
 21
30.0712617606
 31
0.0
  0
LINE
  5
12B
330
1F
100
AcDbEntity
  8
0
  6
CONTINUOUS
 62
     7
100
AcDbLine
 10
1872.3882651161
 20
70.0712590039
 30
0.0
 11
1504.3882345985
 21
70.0712590039
 31
0.0
  0
LINE
  5
12C
330
1F
100
AcDbEntity
  8
0
  6
CONTINUOUS
 62
     7
100
AcDbLine
 10
1872.3882651161
 20
30.0712617606
 30
0.0
 11
1872.3882651161
 21
70.0712590039
 31
0.0
  0
LINE
  5
12D
330
1F
100
AcDbEntity
  8
0
  6
CONTINUOUS
 62
     7
100
AcDbLine
 10
1504.3882345985
 20
30.0712617606
 30
0.0
 11
1872.3882651161
 21
30.0712617606
 31
0.0
  0
LINE
  5
12E
330
1F
100
AcDbEntity
  8
0
  6
CONTINUOUS
 62
     7
100
AcDbLine
 10
1872.3882651161
 20
538.0712463081
 30
0.0
 11
1504.3882345985
 21
538.0712463081
 31
0.0
  0
LINE
  5
12F
330
1F
100
AcDbEntity
  8
0
  6
CONTINUOUS
 62
     7
100
AcDbLine
 10
1504.3882345985
 20
88.2412655771
 30
0.0
 11
1872.3882651161
 21
88.2412655771
 31
0.0
  0
LINE
  5
130
330
1F
100
AcDbEntity
  8
0
  6
CONTINUOUS
 62
     7
100
AcDbLine
 10
1504.3882345985
 20
538.0712463081
 30
0.0
 11
1504.3882345985
 21
88.2412655771
 31
0.0
  0
LINE
  5
131
330
1F
100
AcDbEntity
  8
0
  6
CONTINUOUS
 62
     7
100
AcDbLine
 10
1872.3882651161
 20
88.2412655771
 30
0.0
 11
1872.3882651161
 21
538.0712463081
 31
0.0
  0
LINE
  5
132
330
1F
100
AcDbEntity
  8
0
  6
CONTINUOUS
 62
     7
100
AcDbLine
 10
1504.3882345985
 20
70.0712590039
 30
0.0
 11
1504.3882345985
 21
88.2412655771
 31
0.0
  0
LINE
  5
133
330
1F
100
AcDbEntity
  8
0
  6
CONTINUOUS
 62
     7
100
AcDbLine
 10
1872.3882651161
 20
88.2412655771
 30
0.0
 11
1872.3882651161
 21
70.0712590039
 31
0.0
  0
ARC
  5
134
330
1F
100
AcDbEntity
  8
0
  6
CONTINUOUS
 62
     7
100
AcDbCircle
 10
1041.1582703373
 20
1119.7669360572
 30
0.0
 40
5.170000000000082
100
AcDbArc
 50
356.0551806805
 51
24.887907172
  0
ARC
  5
135
330
1F
100
AcDbEntity
  8
0
  6
CONTINUOUS
 62
     7
100
AcDbCircle
 10
1046.7552800697
 20
1122.3635457805
 30
0.0
 40
0.9999999999998916
100
AcDbArc
 50
180.0
 51
204.887907172
  0
LINE
  5
136
330
1F
100
AcDbEntity
  8
0
  6
CONTINUOUS
 62
     7
100
AcDbLine
 10
1045.7552885841
 20
1133.7789608658
 30
0.0
 11
1045.7552885841
 21
1122.3635985077
 31
0.0
  0
ARC
  5
137
330
1F
100
AcDbEntity
  8
0
  6
CONTINUOUS
 62
     7
100
AcDbCircle
 10
1046.7553265148
 20
1133.7789787648
 30
0.0
 40
1.000046445083679
100
AcDbArc
 50
155.1122182924
 51
180.0
  0
ARC
  5
138
330
1F
100
AcDbEntity
  8
0
  6
CONTINUOUS
 62
     7
100
AcDbCircle
 10
1041.1582689645
 20
1136.375595778
 30
0.0
 40
5.170000000000019
100
AcDbArc
 50
335.1122182924
 51
162.3995466116
  0
ARC
  5
139
330
1F
100
AcDbEntity
  8
0
  6
CONTINUOUS
 62
     7
100
AcDbCircle
 10
1035.2770973073
 20
1138.2412645424
 30
0.0
 40
1.000000000000295
100
AcDbArc
 50
270.0000643223
 51
342.3995466116
  0
LINE
  5
13A
330
1F
100
AcDbEntity
  8
0
  6
CONTINUOUS
 62
     7
100
AcDbLine
 10
1031.2334513496
 20
1137.2412754715
 30
0.0
 11
1035.2771496605
 21
1137.2412754715
 31
0.0
  0
ARC
  5
13B
330
1F
100
AcDbEntity
  8
0
  6
CONTINUOUS
 62
     7
100
AcDbCircle
 10
1031.2334605868
 20
1138.2412600029
 30
0.0
 40
1.000001253065136
100
AcDbArc
 50
197.6004801833
 51
270.0000643223
  0
ARC
  5
13C
330
1F
100
AcDbEntity
  8
0
  6
CONTINUOUS
 62
     7
100
AcDbCircle
 10
1025.3522898021
 20
1136.3755884881
 30
0.0
 40
5.16999874693494
100
AcDbArc
 50
17.6004801833
 51
204.8878208368
  0
ARC
  5
13D
330
1F
100
AcDbEntity
  8
0
  6
CONTINUOUS
 62
     7
100
AcDbCircle
 10
1019.7552800697
 20
1133.7789890137
 30
0.0
 40
0.9999981929289613
100
AcDbArc
 50
0.0
 51
24.8878208368
  0
LINE
  5
13E
330
1F
100
AcDbEntity
  8
0
  6
CONTINUOUS
 62
     7
100
AcDbLine
 10
1020.755312426
 20
1122.3634792984
 30
0.0
 11
1020.755312426
 21
1133.7789608658
 31
0.0
  0
ARC
  5
13F
330
1F
100
AcDbEntity
  8
0
  6
CONTINUOUS
 62
     7
100
AcDbCircle
 10
1019.7552800697
 20
1122.3635355316
 30
0.0
 40
1.000000000000114
100
AcDbArc
 50
335.1121231192
 51
0.0
  0
ARC
  5
140
330
1F
100
AcDbEntity
  8
0
  6
CONTINUOUS
 62
     7
100
AcDbCircle
 10
1025.3522911749
 20
1119.7669287673
 30
0.0
 40
5.169999999999918
100
AcDbArc
 50
155.1121231192
 51
183.9447383383
  0
LINE
  5
141
330
1F
100
AcDbEntity
  8
0
  6
CONTINUOUS
 62
     7
100
AcDbLine
 10
1020.1945519279
 20
1119.4112612427
 30
0.0
 11
628.466627581
 21
1119.4112612427
 31
0.0
  0
ARC
  5
142
330
1F
100
AcDbEntity
  8
0
  6
CONTINUOUS
 62
     7
100
AcDbCircle
 10
623.3088703373
 20
1119.7669360572
 30
0.0
 40
5.170000000000082
100
AcDbArc
 50
356.0551806805
 51
24.887907172
  0
ARC
  5
143
330
1F
100
AcDbEntity
  8
0
  6
CONTINUOUS
 62
     7
100
AcDbCircle
 10
628.9058800697
 20
1122.3635457805
 30
0.0
 40
1.0
100
AcDbArc
 50
180.0
 51
204.887907172
  0
LINE
  5
144
330
1F
100
AcDbEntity
  8
0
  6
CONTINUOUS
 62
     7
100
AcDbLine
 10
627.9058670829
 20
1133.7789608658
 30
0.0
 11
627.9058670829
 21
1122.3635985077
 31
0.0
  0
ARC
  5
145
330
1F
100
AcDbEntity
  8
0
  6
CONTINUOUS
 62
     7
100
AcDbCircle
 10
628.9059265148
 20
1133.7789787648
 30
0.0
 40
1.00004644508374
100
AcDbArc
 50
155.1122182924
 51
180.0
  0
ARC
  5
146
330
1F
100
AcDbEntity
  8
0
  6
CONTINUOUS
 62
     7
100
AcDbCircle
 10
623.3088689645
 20
1136.375595778
 30
0.0
 40
5.170000000000109
100
AcDbArc
 50
335.1122182924
 51
162.3995466116
  0
ARC
  5
147
330
1F
100
AcDbEntity
  8
0
  6
CONTINUOUS
 62
     7
100
AcDbCircle
 10
617.4276973073
 20
1138.2412645424
 30
0.0
 40
1.000000000000175
100
AcDbArc
 50
270.0000643223
 51
342.3995466116
  0
LINE
  5
148
330
1F
100
AcDbEntity
  8
0
  6
CONTINUOUS
 62
     7
100
AcDbLine
 10
613.3840894531
 20
1137.2412754715
 30
0.0
 11
617.4277281593
 21
1137.2412754715
 31
0.0
  0
ARC
  5
149
330
1F
100
AcDbEntity
  8
0
  6
CONTINUOUS
 62
     7
100
AcDbCircle
 10
613.3840605868
 20
1138.2412600029
 30
0.0
 40
1.000001253065245
100
AcDbArc
 50
197.6004801833
 51
270.0000643223
  0
ARC
  5
14A
330
1F
100
AcDbEntity
  8
0
  6
CONTINUOUS
 62
     7
100
AcDbCircle
 10
607.5028898021
 20
1136.3755884881
 30
0.0
 40
5.169998746934831
100
AcDbArc
 50
17.6004801833
 51
204.8878208368
  0
ARC
  5
14B
330
1F
100
AcDbEntity
  8
0
  6
CONTINUOUS
 62
     7
100
AcDbCircle
 10
601.9058800697
 20
1133.7789890137
 30
0.0
 40
0.9999981929289613
100
AcDbArc
 50
0.0
 51
24.8878208368
  0
LINE
  5
14C
330
1F
100
AcDbEntity
  8
0
  6
CONTINUOUS
 62
     7
100
AcDbLine
 10
602.9058909248
 20
1122.3634792984
 30
0.0
 11
602.9058909248
 21
1133.7789608658
 31
0.0
  0
ARC
  5
14D
330
1F
100
AcDbEntity
  8
0
  6
CONTINUOUS
 62
     7
100
AcDbCircle
 10
601.9058800697
 20
1122.3635355316
 30
0.0
 40
0.9999999999999283
100
AcDbArc
 50
335.1121231192
 51
0.0
  0
ARC
  5
14E
330
1F
100
AcDbEntity
  8
0
  6
CONTINUOUS
 62
     7
100
AcDbCircle
 10
607.5028911749
 20
1119.7669287673
 30
0.0
 40
5.170000000000117
100
AcDbArc
 50
155.1121231192
 51
183.9447383383
  0
LINE
  5
14F
330
1F
100
AcDbEntity
  8
0
  6
CONTINUOUS
 62
     7
100
AcDbLine
 10
602.3451304268
 20
1119.4112612427
 30
0.0
 11
565.4282784294
 21
1119.4112612427
 31
0.0
  0
LINE
  5
150
330
1F
100
AcDbEntity
  8
0
  6
CONTINUOUS
 62
     7
100
AcDbLine
 10
565.4282784294
 20
1146.0712267578
 30
0.0
 11
565.4282784294
 21
1119.4112612427
 31
0.0
  0
ARC
  5
151
330
1F
100
AcDbEntity
  8
0
  6
CONTINUOUS
 62
     7
100
AcDbCircle
 10
571.4282800697
 20
1146.0712622726
 30
0.0
 40
6.0
100
AcDbArc
 50
90.0
 51
180.0
  0
LINE
  5
152
330
1F
100
AcDbEntity
  8
0
  6
CONTINUOUS
 62
     7
100
AcDbLine
 10
1067.4282526802
 20
1152.0712687195
 30
0.0
 11
571.4282607864
 21
1152.0712687195
 31
0.0
  0
ARC
  5
153
330
1F
100
AcDbEntity
  8
0
  6
CONTINUOUS
 62
     7
100
AcDbCircle
 10
1067.4282800697
 20
1146.0712622726
 30
0.0
 40
6.0
100
AcDbArc
 50
0.0
 51
90.0
  0
LINE
  5
154
330
1F
100
AcDbEntity
  8
0
  6
CONTINUOUS
 62
     7
100
AcDbLine
 10
1073.4282946418
 20
1119.4112612427
 30
0.0
 11
1073.4282946418
 21
1146.0712267578
 31
0.0
  0
LINE
  5
155
330
1F
100
AcDbEntity
  8
0
  6
CONTINUOUS
 62
     7
100
AcDbLine
 10
1073.4282946418
 20
1119.4112612427
 30
0.0
 11
1046.3160490822
 21
1119.4112612427
 31
0.0
  0
ARC
  5
156
330
1F
100
AcDbEntity
  8
0
  6
CONTINUOUS
 62
     7
100
AcDbCircle
 10
607.5028898021
 20
62.3755884881
 30
0.0
 40
5.169998746934819
100
AcDbArc
 50
176.0551797229
 51
204.8878208368
  0
ARC
  5
157
330
1F
100
AcDbEntity
  8
0
  6
CONTINUOUS
 62
     7
100
AcDbCircle
 10
601.9058800697
 20
59.7789890137
 30
0.0
 40
0.9999981929289561
100
AcDbArc
 50
0.0
 51
24.8878208368
  0
LINE
  5
158
330
1F
100
AcDbEntity
  8
0
  6
CONTINUOUS
 62
     7
100
AcDbLine
 10
602.9058909248
 20
48.3635342241
 30
0.0
 11
602.9058909248
 21
59.7789897144
 31
0.0
  0
ARC
  5
159
330
1F
100
AcDbEntity
  8
0
  6
CONTINUOUS
 62
     7
100
AcDbCircle
 10
601.9058800697
 20
48.3635355316
 30
0.0
 40
1.000000000000067
100
AcDbArc
 50
335.1121231192
 51
0.0
  0
ARC
  5
15A
330
1F
100
AcDbEntity
  8
0
  6
CONTINUOUS
 62
     7
100
AcDbCircle
 10
607.5028911749
 20
45.7669287673
 30
0.0
 40
5.170000000000001
100
AcDbArc
 50
155.1121231192
 51
342.3995466116
  0
ARC
  5
15B
330
1F
100
AcDbEntity
  8
0
  6
CONTINUOUS
 62
     7
100
AcDbCircle
 10
613.3840628321
 20
43.9012600029
 30
0.0
 40
0.9999999999999966
100
AcDbArc
 50
90.0000643223
 51
162.3995466116
  0
LINE
  5
15C
330
1F
100
AcDbEntity
  8
0
  6
CONTINUOUS
 62
     7
100
AcDbLine
 10
617.4277281593
 20
44.9012643218
 30
0.0
 11
613.3840894531
 21
44.9012605965
 31
0.0
  0
ARC
  5
15D
330
1F
100
AcDbEntity
  8
0
  6
CONTINUOUS
 62
     7
100
AcDbCircle
 10
617.4276995526
 20
43.9012645424
 30
0.0
 40
1.000000000000082
100
AcDbArc
 50
17.6004801833
 51
90.0000643223
  0
ARC
  5
15E
330
1F
100
AcDbEntity
  8
0
  6
CONTINUOUS
 62
     7
100
AcDbCircle
 10
623.3088703373
 20
45.7669360572
 30
0.0
 40
5.170000000000078
100
AcDbArc
 50
197.6004801833
 51
24.887907172
  0
ARC
  5
15F
330
1F
100
AcDbEntity
  8
0
  6
CONTINUOUS
 62
     7
100
AcDbCircle
 10
628.9058800697
 20
48.3635457805
 30
0.0
 40
1.000000000000114
100
AcDbArc
 50
180.0
 51
204.887907172
  0
LINE
  5
160
330
1F
100
AcDbEntity
  8
0
  6
CONTINUOUS
 62
     7
100
AcDbLine
 10
627.9058670829
 20
59.7789785385
 30
0.0
 11
627.9058670829
 21
48.3635453999
 31
0.0
  0
ARC
  5
161
330
1F
100
AcDbEntity
  8
0
  6
CONTINUOUS
 62
     7
100
AcDbCircle
 10
628.9059265148
 20
59.7789787648
 30
0.0
 40
1.00004644508374
100
AcDbArc
 50
155.1122182924
 51
180.0
  0
ARC
  5
162
330
1F
100
AcDbEntity
  8
0
  6
CONTINUOUS
 62
     7
100
AcDbCircle
 10
623.3088689645
 20
62.375595778
 30
0.0
 40
5.169999999999911
100
AcDbArc
 50
335.1122182924
 51
3.9447383382
  0
LINE
  5
163
330
1F
100
AcDbEntity
  8
0
  6
CONTINUOUS
 62
     7
100
AcDbLine
 10
628.466627581
 20
62.7312636495
 30
0.0
 11
1020.1945519279
 21
62.7312636495
 31
0.0
  0
ARC
  5
164
330
1F
100
AcDbEntity
  8
0
  6
CONTINUOUS
 62
     7
100
AcDbCircle
 10
1025.3522898021
 20
62.3755884881
 30
0.0
 40
5.169998746934931
100
AcDbArc
 50
176.0551797229
 51
204.8878208368
  0
ARC
  5
165
330
1F
100
AcDbEntity
  8
0
  6
CONTINUOUS
 62
     7
100
AcDbCircle
 10
1019.7552800697
 20
59.7789890137
 30
0.0
 40
0.9999981929289561
100
AcDbArc
 50
0.0
 51
24.8878208368
  0
LINE
  5
166
330
1F
100
AcDbEntity
  8
0
  6
CONTINUOUS
 62
     7
100
AcDbLine
 10
1020.755312426
 20
48.3635342241
 30
0.0
 11
1020.755312426
 21
59.7789897144
 31
0.0
  0
ARC
  5
167
330
1F
100
AcDbEntity
  8
0
  6
CONTINUOUS
 62
     7
100
AcDbCircle
 10
1019.7552800697
 20
48.3635355316
 30
0.0
 40
0.9999999999999641
100
AcDbArc
 50
335.1121231192
 51
0.0
  0
ARC
  5
168
330
1F
100
AcDbEntity
  8
0
  6
CONTINUOUS
 62
     7
100
AcDbCircle
 10
1025.3522911749
 20
45.7669287673
 30
0.0
 40
5.170000000000086
100
AcDbArc
 50
155.1121231192
 51
342.3995466116
  0
ARC
  5
169
330
1F
100
AcDbEntity
  8
0
  6
CONTINUOUS
 62
     7
100
AcDbCircle
 10
1031.2334628321
 20
43.9012600029
 30
0.0
 40
1.000000000000029
100
AcDbArc
 50
90.0000643223
 51
162.3995466116
  0
LINE
  5
16A
330
1F
100
AcDbEntity
  8
0
  6
CONTINUOUS
 62
     7
100
AcDbLine
 10
1035.2771496605
 20
44.9012643218
 30
0.0
 11
1031.2334513496
 21
44.9012605965
 31
0.0
  0
ARC
  5
16B
330
1F
100
AcDbEntity
  8
0
  6
CONTINUOUS
 62
     7
100
AcDbCircle
 10
1035.2770995526
 20
43.9012645424
 30
0.0
 40
0.9999999999999734
100
AcDbArc
 50
17.6004801833
 51
90.0000643223
  0
ARC
  5
16C
330
1F
100
AcDbEntity
  8
0
  6
CONTINUOUS
 62
     7
100
AcDbCircle
 10
1041.1582703373
 20
45.7669360572
 30
0.0
 40
5.170000000000082
100
AcDbArc
 50
197.6004801833
 51
24.887907172
  0
ARC
  5
16D
330
1F
100
AcDbEntity
  8
0
  6
CONTINUOUS
 62
     7
100
AcDbCircle
 10
1046.7552800697
 20
48.3635457805
 30
0.0
 40
0.9999999999999276
100
AcDbArc
 50
180.0
 51
204.887907172
  0
LINE
  5
16E
330
1F
100
AcDbEntity
  8
0
  6
CONTINUOUS
 62
     7
100
AcDbLine
 10
1045.7552885841
 20
59.7789785385
 30
0.0
 11
1045.7552885841
 21
48.3635453999
 31
0.0
  0
ARC
  5
16F
330
1F
100
AcDbEntity
  8
0
  6
CONTINUOUS
 62
     7
100
AcDbCircle
 10
1046.7553265148
 20
59.7789787648
 30
0.0
 40
1.000046445083693
100
AcDbArc
 50
155.1122182924
 51
180.0
  0
ARC
  5
170
330
1F
100
AcDbEntity
  8
0
  6
CONTINUOUS
 62
     7
100
AcDbCircle
 10
1041.1582689645
 20
62.375595778
 30
0.0
 40
5.170000000000119
100
AcDbArc
 50
335.1122182924
 51
3.9447383382
  0
LINE
  5
171
330
1F
100
AcDbEntity
  8
0
  6
CONTINUOUS
 62
     7
100
AcDbLine
 10
1046.3160490822
 20
62.7312636495
 30
0.0
 11
1073.4282946418
 21
62.7312636495
 31
0.0
  0
LINE
  5
172
330
1F
100
AcDbEntity
  8
0
  6
CONTINUOUS
 62
     7
100
AcDbLine
 10
1073.4282946418
 20
36.0712608815
 30
0.0
 11
1073.4282946418
 21
62.7312636495
 31
0.0
  0
ARC
  5
173
330
1F
100
AcDbEntity
  8
0
  6
CONTINUOUS
 62
     7
100
AcDbCircle
 10
1067.4282800697
 20
36.0712622726
 30
0.0
 40
6.000000000000004
100
AcDbArc
 50
270.0
 51
0.0
  0
LINE
  5
174
330
1F
100
AcDbEntity
  8
0
  6
CONTINUOUS
 62
     7
100
AcDbLine
 10
571.4282607864
 20
30.0712617606
 30
0.0
 11
1067.4282526802
 21
30.0712617606
 31
0.0
  0
ARC
  5
175
330
1F
100
AcDbEntity
  8
0
  6
CONTINUOUS
 62
     7
100
AcDbCircle
 10
571.4282800697
 20
36.0712622726
 30
0.0
 40
6.000000000000004
100
AcDbArc
 50
180.0
 51
270.0
  0
LINE
  5
176
330
1F
100
AcDbEntity
  8
0
  6
CONTINUOUS
 62
     7
100
AcDbLine
 10
565.4282784294
 20
62.7312636495
 30
0.0
 11
565.4282784294
 21
36.0712608815
 31
0.0
  0
LINE
  5
177
330
1F
100
AcDbEntity
  8
0
  6
CONTINUOUS
 62
     7
100
AcDbLine
 10
565.4282784294
 20
62.7312636495
 30
0.0
 11
602.3451304268
 21
62.7312636495
 31
0.0
  0
LINE
  5
178
330
1F
100
AcDbEntity
  8
0
  6
CONTINUOUS
 62
     7
100
AcDbLine
 10
1073.4282946418
 20
81.4112587393
 30
0.0
 11
1073.4282946418
 21
1100.7312847793
 31
0.0
  0
LINE
  5
179
330
1F
100
AcDbEntity
  8
0
  6
CONTINUOUS
 62
     7
100
AcDbLine
 10
1073.4282946418
 20
81.4112587393
 30
0.0
 11
1033.4283327888
 21
81.4112587393
 31
0.0
  0
LINE
  5
17A
330
1F
100
AcDbEntity
  8
0
  6
CONTINUOUS
 62
     7
100
AcDbLine
 10
1033.4283327888
 20
81.4112587393
 30
0.0
 11
1033.4283327888
 21
1100.7312847793
 31
0.0
  0
LINE
  5
17B
330
1F
100
AcDbEntity
  8
0
  6
CONTINUOUS
 62
     7
100
AcDbLine
 10
1033.4283327888
 20
1100.7312847793
 30
0.0
 11
1073.4282946418
 21
1100.7312847793
 31
0.0
  0
LINE
  5
17C
330
1F
100
AcDbEntity
  8
0
  6
CONTINUOUS
 62
     7
100
AcDbLine
 10
565.4282784294
 20
1100.7312847793
 30
0.0
 11
565.4282784294
 21
81.4112587393
 31
0.0
  0
LINE
  5
17D
330
1F
100
AcDbEntity
  8
0
  6
CONTINUOUS
 62
     7
100
AcDbLine
 10
565.4282784294
 20
1100.7312847793
 30
0.0
 11
1015.08822201
 21
1100.7312847793
 31
0.0
  0
LINE
  5
17E
330
1F
100
AcDbEntity
  8
0
  6
CONTINUOUS
 62
     7
100
AcDbLine
 10
1015.08822201
 20
1100.7312847793
 30
0.0
 11
1015.08822201
 21
81.4112587393
 31
0.0
  0
LINE
  5
17F
330
1F
100
AcDbEntity
  8
0
  6
CONTINUOUS
 62
     7
100
AcDbLine
 10
1015.08822201
 20
81.4112587393
 30
0.0
 11
565.4282784294
 21
81.4112587393
 31
0.0
  0
ARC
  5
180
330
1F
100
AcDbEntity
  8
0
  6
CONTINUOUS
 62
     7
100
AcDbCircle
 10
1035.2770973073
 20
64.2412645424
 30
0.0
 40
1.000000000000226
100
AcDbArc
 50
270.0000643223
 51
342.3995466116
  0
LINE
  5
181
330
1F
100
AcDbEntity
  8
0
  6
CONTINUOUS
 62
     7
100
AcDbLine
 10
1035.2771496605
 20
63.2412633419
 30
0.0
 11
1031.2334513496
 21
63.2412596166
 31
0.0
  0
ARC
  5
182
330
1F
100
AcDbEntity
  8
0
  6
CONTINUOUS
 62
     7
100
AcDbCircle
 10
1031.2334605868
 20
64.2412600029
 30
0.0
 40
1.00000000000019
100
AcDbArc
 50
197.6004801833
 51
270.0000643223
  0
ARC
  5
183
330
1F
100
AcDbEntity
  8
0
  6
CONTINUOUS
 62
     7
100
AcDbCircle
 10
617.4276973073
 20
64.2412645424
 30
0.0
 40
1.000000000000076
100
AcDbArc
 50
270.0000643223
 51
342.3995466116
  0
LINE
  5
184
330
1F
100
AcDbEntity
  8
0
  6
CONTINUOUS
 62
     7
100
AcDbLine
 10
617.4277281593
 20
63.2412633419
 30
0.0
 11
613.3840894531
 21
63.2412596166
 31
0.0
  0
ARC
  5
185
330
1F
100
AcDbEntity
  8
0
  6
CONTINUOUS
 62
     7
100
AcDbCircle
 10
613.3840605868
 20
64.2412600029
 30
0.0
 40
0.9999999999999734
100
AcDbArc
 50
197.6004801833
 51
270.0000643223
  0
ARC
  5
186
330
1F
100
AcDbEntity
  8
0
  6
CONTINUOUS
 62
     7
100
AcDbCircle
 10
613.3840628321
 20
1117.9012600029
 30
0.0
 40
1.000000000000049
100
AcDbArc
 50
90.0000643223
 51
162.3995466116
  0
LINE
  5
187
330
1F
100
AcDbEntity
  8
0
  6
CONTINUOUS
 62
     7
100
AcDbLine
 10
613.3840894531
 20
1118.901283902
 30
0.0
 11
617.4277281593
 21
1118.901283902
 31
0.0
  0
ARC
  5
188
330
1F
100
AcDbEntity
  8
0
  6
CONTINUOUS
 62
     7
100
AcDbCircle
 10
617.4276995526
 20
1117.9012645424
 30
0.0
 40
1.000000000000175
100
AcDbArc
 50
17.6004801833
 51
90.0000643223
  0
ARC
  5
189
330
1F
100
AcDbEntity
  8
0
  6
CONTINUOUS
 62
     7
100
AcDbCircle
 10
1031.2334628321
 20
1117.9012600029
 30
0.0
 40
0.999999999999948
100
AcDbArc
 50
90.0000643223
 51
162.3995466116
  0
LINE
  5
18A
330
1F
100
AcDbEntity
  8
0
  6
CONTINUOUS
 62
     7
100
AcDbLine
 10
1031.2334513496
 20
1118.901283902
 30
0.0
 11
1035.2771496605
 21
1118.901283902
 31
0.0
  0
ARC
  5
18B
330
1F
100
AcDbEntity
  8
0
  6
CONTINUOUS
 62
     7
100
AcDbCircle
 10
1035.2770995526
 20
1117.9012645424
 30
0.0
 40
1.000000000000175
100
AcDbArc
 50
17.6004801833
 51
90.0000643223
  0
LINE
  5
18C
330
1F
100
AcDbEntity
  8
0
  6
CONTINUOUS
 62
     7
100
AcDbLine
 10
565.4282784294
 20
1100.7312847793
 30
0.0
 11
565.4282784294
 21
1119.4112612427
 31
0.0
  0
LINE
  5
18D
330
1F
100
AcDbEntity
  8
0
  6
CONTINUOUS
 62
     7
100
AcDbLine
 10
565.4282784294
 20
62.7312636495
 30
0.0
 11
565.4282784294
 21
81.4112587393
 31
0.0
  0
ARC
  5
18E
330
1F
100
AcDbEntity
  8
0
  6
CONTINUOUS
 62
     7
100
AcDbCircle
 10
1025.3522898021
 20
62.3755884881
 30
0.0
 40
5.170000000000099
100
AcDbArc
 50
17.6004801833
 51
176.0551797229
  0
ARC
  5
18F
330
1F
100
AcDbEntity
  8
0
  6
CONTINUOUS
 62
     7
100
AcDbCircle
 10
1025.3522911749
 20
1119.7669287673
 30
0.0
 40
5.170000000000109
100
AcDbArc
 50
183.9447383383
 51
342.3995466116
  0
ARC
  5
190
330
1F
100
AcDbEntity
  8
0
  6
CONTINUOUS
 62
     7
100
AcDbCircle
 10
1041.1582689645
 20
62.375595778
 30
0.0
 40
5.170000000000119
100
AcDbArc
 50
3.9447383382
 51
162.3995466116
  0
ARC
  5
191
330
1F
100
AcDbEntity
  8
0
  6
CONTINUOUS
 62
     7
100
AcDbCircle
 10
1041.1582703373
 20
1119.7669360572
 30
0.0
 40
5.170000000000118
100
AcDbArc
 50
197.6004801833
 51
356.0551806805
  0
LINE
  5
192
330
1F
100
AcDbEntity
  8
0
  6
CONTINUOUS
 62
     7
100
AcDbLine
 10
1073.4282946418
 20
1119.4112612427
 30
0.0
 11
1073.4282946418
 21
1100.7312847793
 31
0.0
  0
LINE
  5
193
330
1F
100
AcDbEntity
  8
0
  6
CONTINUOUS
 62
     7
100
AcDbLine
 10
1073.4282946418
 20
81.4112587393
 30
0.0
 11
1073.4282946418
 21
62.7312636495
 31
0.0
  0
ARC
  5
194
330
1F
100
AcDbEntity
  8
0
  6
CONTINUOUS
 62
     7
100
AcDbCircle
 10
623.3088703373
 20
1119.7669360572
 30
0.0
 40
5.170000000000082
100
AcDbArc
 50
197.6004801833
 51
356.0551806805
  0
ARC
  5
195
330
1F
100
AcDbEntity
  8
0
  6
CONTINUOUS
 62
     7
100
AcDbCircle
 10
623.3088689645
 20
62.375595778
 30
0.0
 40
5.170000000000088
100
AcDbArc
 50
3.9447383382
 51
162.3995466116
  0
ARC
  5
196
330
1F
100
AcDbEntity
  8
0
  6
CONTINUOUS
 62
     7
100
AcDbCircle
 10
607.5028898021
 20
62.3755884881
 30
0.0
 40
5.170000000000115
100
AcDbArc
 50
17.6004801833
 51
176.0551797229
  0
ARC
  5
197
330
1F
100
AcDbEntity
  8
0
  6
CONTINUOUS
 62
     7
100
AcDbCircle
 10
607.5028911749
 20
1119.7669287673
 30
0.0
 40
5.170000000000055
100
AcDbArc
 50
183.9447383383
 51
342.3995466116
  0
ARC
  5
198
330
1F
100
AcDbEntity
  8
0
  6
CONTINUOUS
 62
     7
100
AcDbCircle
 10
31.9482800697
 20
1146.0712622726
 30
0.0
 40
6.000000000000007
100
AcDbArc
 50
90.0
 51
180.0
  0
LINE
  5
199
330
1F
100
AcDbEntity
  8
0
  6
CONTINUOUS
 62
     7
100
AcDbLine
 10
31.9482786785
 20
1152.0712687195
 30
0.0
 11
527.9482817482
 21
1152.0712687195
 31
0.0
  0
ARC
  5
19A
330
1F
100
AcDbEntity
  8
0
  6
CONTINUOUS
 62
     7
100
AcDbCircle
 10
527.9482800697
 20
1146.0712622726
 30
0.0
 40
6.0
100
AcDbArc
 50
0.0
 51
90.0
  0
LINE
  5
19B
330
1F
100
AcDbEntity
  8
0
  6
CONTINUOUS
 62
     7
100
AcDbLine
 10
506.8360185455
 20
1119.4112612427
 30
0.0
 11
533.9482641052
 21
1119.4112612427
 31
0.0
  0
ARC
  5
19C
330
1F
100
AcDbEntity
  8
0
  6
CONTINUOUS
 62
     7
100
AcDbCircle
 10
501.6782703373
 20
1119.7669360572
 30
0.0
 40
5.169999999999954
100
AcDbArc
 50
356.0551806805
 51
24.887907172
  0
LINE
  5
19D
330
1F
100
AcDbEntity
  8
0
  6
CONTINUOUS
 62
     7
100
AcDbLine
 10
506.2752580475
 20
1133.7789608658
 30
0.0
 11
506.2752580475
 21
1122.3635985077
 31
0.0
  0
ARC
  5
19E
330
1F
100
AcDbEntity
  8
0
  6
CONTINUOUS
 62
     7
100
AcDbCircle
 10
507.2753265148
 20
1133.7789787648
 30
0.0
 40
1.000046445083774
100
AcDbArc
 50
155.1122182924
 51
180.0
  0
ARC
  5
19F
330
1F
100
AcDbEntity
  8
0
  6
CONTINUOUS
 62
     7
100
AcDbCircle
 10
501.6782689645
 20
1136.375595778
 30
0.0
 40
5.170000000000011
100
AcDbArc
 50
335.1122182924
 51
162.3995466116
  0
ARC
  5
1A0
330
1F
100
AcDbEntity
  8
0
  6
CONTINUOUS
 62
     7
100
AcDbCircle
 10
495.7970973073
 20
1138.2412645424
 30
0.0
 40
1.000000000000064
100
AcDbArc
 50
270.0000643223
 51
342.3995466116
  0
LINE
  5
1A1
330
1F
100
AcDbEntity
  8
0
  6
CONTINUOUS
 62
     7
100
AcDbLine
 10
491.7534506153
 20
1137.2412754715
 30
0.0
 11
495.7970893215
 21
1137.2412754715
 31
0.0
  0
ARC
  5
1A2
330
1F
100
AcDbEntity
  8
0
  6
CONTINUOUS
 62
     7
100
AcDbCircle
 10
491.7534605868
 20
1138.2412600029
 30
0.0
 40
1.000001253065136
100
AcDbArc
 50
197.6004801833
 51
270.0000643223
  0
ARC
  5
1A3
330
1F
100
AcDbEntity
  8
0
  6
CONTINUOUS
 62
     7
100
AcDbCircle
 10
485.8722898021
 20
1136.3755884881
 30
0.0
 40
5.169998746934831
100
AcDbArc
 50
17.6004801833
 51
204.8878208368
  0
ARC
  5
1A4
330
1F
100
AcDbEntity
  8
0
  6
CONTINUOUS
 62
     7
100
AcDbCircle
 10
480.2752800697
 20
1133.7789890137
 30
0.0
 40
0.9999981929289613
100
AcDbArc
 50
0.0
 51
24.8878208368
  0
LINE
  5
1A5
330
1F
100
AcDbEntity
  8
0
  6
CONTINUOUS
 62
     7
100
AcDbLine
 10
481.2752818893
 20
1122.3634792984
 30
0.0
 11
481.2752818893
 21
1133.7789608658
 31
0.0
  0
ARC
  5
1A6
330
1F
100
AcDbEntity
  8
0
  6
CONTINUOUS
 62
     7
100
AcDbCircle
 10
480.2752800697
 20
1122.3635355316
 30
0.0
 40
0.9999999999999283
100
AcDbArc
 50
335.1121231192
 51
0.0
  0
ARC
  5
1A7
330
1F
100
AcDbEntity
  8
0
  6
CONTINUOUS
 62
     7
100
AcDbCircle
 10
485.8722911749
 20
1119.7669287673
 30
0.0
 40
5.170000000000114
100
AcDbArc
 50
155.1121231192
 51
183.9447383382
  0
LINE
  5
1A8
330
1F
100
AcDbEntity
  8
0
  6
CONTINUOUS
 62
     7
100
AcDbLine
 10
88.8420185279
 20
1119.4112612427
 30
0.0
 11
480.7145511936
 21
1119.4112612427
 31
0.0
  0
ARC
  5
1A9
330
1F
100
AcDbEntity
  8
0
  6
CONTINUOUS
 62
     7
100
AcDbCircle
 10
83.6842703373
 20
1119.7669360572
 30
0.0
 40
5.170000000000041
100
AcDbArc
 50
356.0551806805
 51
24.887907172
  0
ARC
  5
1AA
330
1F
100
AcDbEntity
  8
0
  6
CONTINUOUS
 62
     7
100
AcDbCircle
 10
89.2812800697
 20
1122.3635457805
 30
0.0
 40
1.000000000000114
100
AcDbArc
 50
180.0
 51
204.887907172
  0
LINE
  5
1AB
330
1F
100
AcDbEntity
  8
0
  6
CONTINUOUS
 62
     7
100
AcDbLine
 10
88.2812803816
 20
1133.7789608658
 30
0.0
 11
88.2812803816
 21
1122.3635985077
 31
0.0
  0
ARC
  5
1AC
330
1F
100
AcDbEntity
  8
0
  6
CONTINUOUS
 62
     7
100
AcDbCircle
 10
89.2813265148
 20
1133.7789787648
 30
0.0
 40
1.000046445083671
100
AcDbArc
 50
155.1122182924
 51
180.0
  0
ARC
  5
1AD
330
1F
100
AcDbEntity
  8
0
  6
CONTINUOUS
 62
     7
100
AcDbCircle
 10
83.6842689645
 20
1136.375595778
 30
0.0
 40
5.170000000000054
100
AcDbArc
 50
335.1122182924
 51
162.3995466116
  0
ARC
  5
1AE
330
1F
100
AcDbEntity
  8
0
  6
CONTINUOUS
 62
     7
100
AcDbCircle
 10
77.8030973073
 20
1138.2412645424
 30
0.0
 40
0.9999999999999688
100
AcDbArc
 50
270.0000643223
 51
342.3995466116
  0
LINE
  5
1AF
330
1F
100
AcDbEntity
  8
0
  6
CONTINUOUS
 62
     7
100
AcDbLine
 10
73.7594580482
 20
1137.2412754715
 30
0.0
 11
77.8030967544
 21
1137.2412754715
 31
0.0
  0
ARC
  5
1B0
330
1F
100
AcDbEntity
  8
0
  6
CONTINUOUS
 62
     7
100
AcDbCircle
 10
73.7594605868
 20
1138.2412600029
 30
0.0
 40
1.000001253064946
100
AcDbArc
 50
197.6004801833
 51
270.0000643223
  0
ARC
  5
1B1
330
1F
100
AcDbEntity
  8
0
  6
CONTINUOUS
 62
     7
100
AcDbCircle
 10
67.8782898021
 20
1136.3755884881
 30
0.0
 40
5.169998746935048
100
AcDbArc
 50
17.6004801833
 51
204.8878208368
  0
ARC
  5
1B2
330
1F
100
AcDbEntity
  8
0
  6
CONTINUOUS
 62
     7
100
AcDbCircle
 10
62.2812800697
 20
1133.7789890137
 30
0.0
 40
0.9999981929289548
100
AcDbArc
 50
0.0
 51
24.8878208368
  0
LINE
  5
1B3
330
1F
100
AcDbEntity
  8
0
  6
CONTINUOUS
 62
     7
100
AcDbLine
 10
63.2812818717
 20
1122.3634792984
 30
0.0
 11
63.2812818717
 21
1133.7789608658
 31
0.0
  0
ARC
  5
1B4
330
1F
100
AcDbEntity
  8
0
  6
CONTINUOUS
 62
     7
100
AcDbCircle
 10
62.2812800697
 20
1122.3635355316
 30
0.0
 40
1.000000000000114
100
AcDbArc
 50
335.1121231192
 51
0.0
  0
ARC
  5
1B5
330
1F
100
AcDbEntity
  8
0
  6
CONTINUOUS
 62
     7
100
AcDbCircle
 10
67.8782911749
 20
1119.7669287673
 30
0.0
 40
5.169999999999986
100
AcDbArc
 50
155.1121231192
 51
183.9447383382
  0
LINE
  5
1B6
330
1F
100
AcDbEntity
  8
0
  6
CONTINUOUS
 62
     7
100
AcDbLine
 10
25.9482795577
 20
1119.4112612427
 30
0.0
 11
62.7205362748
 21
1119.4112612427
 31
0.0
  0
LINE
  5
1B7
330
1F
100
AcDbEntity
  8
0
  6
CONTINUOUS
 62
     7
100
AcDbLine
 10
25.9482795577
 20
1119.4112612427
 30
0.0
 11
25.9482795577
 21
1146.0712267578
 31
0.0
  0
ARC
  5
1B8
330
1F
100
AcDbEntity
  8
0
  6
CONTINUOUS
 62
     7
100
AcDbCircle
 10
507.2752800697
 20
1122.3635457805
 30
0.0
 40
1.0
100
AcDbArc
 50
180.0
 51
204.887907172
  0
LINE
  5
1B9
330
1F
100
AcDbEntity
  8
0
  6
CONTINUOUS
 62
     7
100
AcDbLine
 10
533.9482641052
 20
1146.0712267578
 30
0.0
 11
533.9482641052
 21
1119.4112612427
 31
0.0
  0
LINE
  5
1BA
330
1F
100
AcDbEntity
  8
0
  6
CONTINUOUS
 62
     7
100
AcDbLine
 10
493.9482724498
 20
1100.7312847793
 30
0.0
 11
493.9482724498
 21
81.4112587393
 31
0.0
  0
LINE
  5
1BB
330
1F
100
AcDbEntity
  8
0
  6
CONTINUOUS
 62
     7
100
AcDbLine
 10
533.9482641052
 20
1100.7312847793
 30
0.0
 11
493.9482724498
 21
1100.7312847793
 31
0.0
  0
LINE
  5
1BC
330
1F
100
AcDbEntity
  8
0
  6
CONTINUOUS
 62
     7
100
AcDbLine
 10
493.9482724498
 20
81.4112587393
 30
0.0
 11
533.9482641052
 21
81.4112587393
 31
0.0
  0
LINE
  5
1BD
330
1F
100
AcDbEntity
  8
0
  6
CONTINUOUS
 62
     7
100
AcDbLine
 10
533.9482641052
 20
1100.7312847793
 30
0.0
 11
533.9482641052
 21
81.4112587393
 31
0.0
  0
LINE
  5
1BE
330
1F
100
AcDbEntity
  8
0
  6
CONTINUOUS
 62
     7
100
AcDbLine
 10
527.9482817482
 20
30.0712617606
 30
0.0
 11
31.9482786785
 21
30.0712617606
 31
0.0
  0
ARC
  5
1BF
330
1F
100
AcDbEntity
  8
0
  6
CONTINUOUS
 62
     7
100
AcDbCircle
 10
31.9482800697
 20
36.0712622726
 30
0.0
 40
6.000000000000007
100
AcDbArc
 50
180.0
 51
270.0
  0
LINE
  5
1C0
330
1F
100
AcDbEntity
  8
0
  6
CONTINUOUS
 62
     7
100
AcDbLine
 10
25.9482795577
 20
36.0712608815
 30
0.0
 11
25.9482795577
 21
62.7312636495
 31
0.0
  0
LINE
  5
1C1
330
1F
100
AcDbEntity
  8
0
  6
CONTINUOUS
 62
     7
100
AcDbLine
 10
62.7205362748
 20
62.7312636495
 30
0.0
 11
25.9482795577
 21
62.7312636495
 31
0.0
  0
ARC
  5
1C2
330
1F
100
AcDbEntity
  8
0
  6
CONTINUOUS
 62
     7
100
AcDbCircle
 10
67.8782898021
 20
62.3755884881
 30
0.0
 40
5.169998746934901
100
AcDbArc
 50
176.0551797229
 51
204.8878208368
  0
ARC
  5
1C3
330
1F
100
AcDbEntity
  8
0
  6
CONTINUOUS
 62
     7
100
AcDbCircle
 10
62.2812800697
 20
59.7789890137
 30
0.0
 40
0.9999981929289667
100
AcDbArc
 50
0.0
 51
24.8878208368
  0
LINE
  5
1C4
330
1F
100
AcDbEntity
  8
0
  6
CONTINUOUS
 62
     7
100
AcDbLine
 10
63.2812818717
 20
48.3635342241
 30
0.0
 11
63.2812818717
 21
59.7789897144
 31
0.0
  0
ARC
  5
1C5
330
1F
100
AcDbEntity
  8
0
  6
CONTINUOUS
 62
     7
100
AcDbCircle
 10
62.2812800697
 20
48.3635355316
 30
0.0
 40
1.0
100
AcDbArc
 50
335.1121231192
 51
0.0
  0
ARC
  5
1C6
330
1F
100
AcDbEntity
  8
0
  6
CONTINUOUS
 62
     7
100
AcDbCircle
 10
67.8782911749
 20
45.7669287673
 30
0.0
 40
5.170000000000075
100
AcDbArc
 50
155.1121231192
 51
342.3995466116
  0
ARC
  5
1C7
330
1F
100
AcDbEntity
  8
0
  6
CONTINUOUS
 62
     7
100
AcDbCircle
 10
73.7594628321
 20
43.9012600029
 30
0.0
 40
0.9999999999999215
100
AcDbArc
 50
90.0000643223
 51
162.3995466116
  0
LINE
  5
1C8
330
1F
100
AcDbEntity
  8
0
  6
CONTINUOUS
 62
     7
100
AcDbLine
 10
77.8030967544
 20
44.9012643218
 30
0.0
 11
73.7594580482
 21
44.9012605965
 31
0.0
  0
ARC
  5
1C9
330
1F
100
AcDbEntity
  8
0
  6
CONTINUOUS
 62
     7
100
AcDbCircle
 10
77.8030995526
 20
43.9012645424
 30
0.0
 40
1.000000000000082
100
AcDbArc
 50
17.6004801833
 51
90.0000643223
  0
ARC
  5
1CA
330
1F
100
AcDbEntity
  8
0
  6
CONTINUOUS
 62
     7
100
AcDbCircle
 10
83.6842703373
 20
45.7669360572
 30
0.0
 40
5.170000000000094
100
AcDbArc
 50
197.6004801833
 51
24.887907172
  0
ARC
  5
1CB
330
1F
100
AcDbEntity
  8
0
  6
CONTINUOUS
 62
     7
100
AcDbCircle
 10
89.2812800697
 20
48.3635457805
 30
0.0
 40
1.0
100
AcDbArc
 50
180.0
 51
204.887907172
  0
LINE
  5
1CC
330
1F
100
AcDbEntity
  8
0
  6
CONTINUOUS
 62
     7
100
AcDbLine
 10
88.2812803816
 20
59.7789785385
 30
0.0
 11
88.2812803816
 21
48.3635453999
 31
0.0
  0
ARC
  5
1CD
330
1F
100
AcDbEntity
  8
0
  6
CONTINUOUS
 62
     7
100
AcDbCircle
 10
89.2813265148
 20
59.7789787648
 30
0.0
 40
1.000046445083669
100
AcDbArc
 50
155.1122182924
 51
180.0
  0
ARC
  5
1CE
330
1F
100
AcDbEntity
  8
0
  6
CONTINUOUS
 62
     7
100
AcDbCircle
 10
83.6842689645
 20
62.375595778
 30
0.0
 40
5.170000000000006
100
AcDbArc
 50
335.1122182924
 51
3.9447383382
  0
LINE
  5
1CF
330
1F
100
AcDbEntity
  8
0
  6
CONTINUOUS
 62
     7
100
AcDbLine
 10
480.7145511936
 20
62.7312636495
 30
0.0
 11
88.8420185279
 21
62.7312636495
 31
0.0
  0
ARC
  5
1D0
330
1F
100
AcDbEntity
  8
0
  6
CONTINUOUS
 62
     7
100
AcDbCircle
 10
485.8722898021
 20
62.3755884881
 30
0.0
 40
5.169998746934869
100
AcDbArc
 50
176.055179723
 51
204.8878208368
  0
ARC
  5
1D1
330
1F
100
AcDbEntity
  8
0
  6
CONTINUOUS
 62
     7
100
AcDbCircle
 10
480.2752800697
 20
59.7789890137
 30
0.0
 40
0.9999981929289733
100
AcDbArc
 50
0.0
 51
24.8878208368
  0
LINE
  5
1D2
330
1F
100
AcDbEntity
  8
0
  6
CONTINUOUS
 62
     7
100
AcDbLine
 10
481.2752818893
 20
48.3635342241
 30
0.0
 11
481.2752818893
 21
59.7789897144
 31
0.0
  0
ARC
  5
1D3
330
1F
100
AcDbEntity
  8
0
  6
CONTINUOUS
 62
     7
100
AcDbCircle
 10
480.2752800697
 20
48.3635355316
 30
0.0
 40
1.00000000000002
100
AcDbArc
 50
335.1121231192
 51
0.0
  0
ARC
  5
1D4
330
1F
100
AcDbEntity
  8
0
  6
CONTINUOUS
 62
     7
100
AcDbCircle
 10
485.8722911749
 20
45.7669287673
 30
0.0
 40
5.17000000000012
100
AcDbArc
 50
155.1121231192
 51
342.3995466116
  0
ARC
  5
1D5
330
1F
100
AcDbEntity
  8
0
  6
CONTINUOUS
 62
     7
100
AcDbCircle
 10
491.7534628321
 20
43.9012600029
 30
0.0
 40
0.999999999999908
100
AcDbArc
 50
90.0000643223
 51
162.3995466116
  0
LINE
  5
1D6
330
1F
100
AcDbEntity
  8
0
  6
CONTINUOUS
 62
     7
100
AcDbLine
 10
495.7970893215
 20
44.9012643218
 30
0.0
 11
491.7534506153
 21
44.9012605965
 31
0.0
  0
ARC
  5
1D7
330
1F
100
AcDbEntity
  8
0
  6
CONTINUOUS
 62
     7
100
AcDbCircle
 10
495.7970995526
 20
43.9012645424
 30
0.0
 40
1.000000000000076
100
AcDbArc
 50
17.6004801833
 51
90.0000643223
  0
ARC
  5
1D8
330
1F
100
AcDbEntity
  8
0
  6
CONTINUOUS
 62
     7
100
AcDbCircle
 10
507.2753265148
 20
59.7789787648
 30
0.0
 40
1.000046445083643
100
AcDbArc
 50
155.1122182924
 51
180.0
  0
LINE
  5
1D9
330
1F
100
AcDbEntity
  8
0
  6
CONTINUOUS
 62
     7
100
AcDbLine
 10
506.2752580475
 20
59.7789785385
 30
0.0
 11
506.2752580475
 21
48.3635453999
 31
0.0
  0
LINE
  5
1DA
330
1F
100
AcDbEntity
  8
0
  6
CONTINUOUS
 62
     7
100
AcDbLine
 10
533.9482641052
 20
62.7312636495
 30
0.0
 11
506.8360185455
 21
62.7312636495
 31
0.0
  0
ARC
  5
1DB
330
1F
100
AcDbEntity
  8
0
  6
CONTINUOUS
 62
     7
100
AcDbCircle
 10
527.9482800697
 20
36.0712622726
 30
0.0
 40
6.000000000000007
100
AcDbArc
 50
270.0
 51
0.0
  0
ARC
  5
1DC
330
1F
100
AcDbEntity
  8
0
  6
CONTINUOUS
 62
     7
100
AcDbCircle
 10
501.6782689645
 20
62.375595778
 30
0.0
 40
5.170000000000003
100
AcDbArc
 50
335.1122182924
 51
3.9447383381
  0
ARC
  5
1DD
330
1F
100
AcDbEntity
  8
0
  6
CONTINUOUS
 62
     7
100
AcDbCircle
 10
501.6782703373
 20
45.7669360572
 30
0.0
 40
5.170000000000081
100
AcDbArc
 50
197.6004801833
 51
24.887907172
  0
LINE
  5
1DE
330
1F
100
AcDbEntity
  8
0
  6
CONTINUOUS
 62
     7
100
AcDbLine
 10
533.9482641052
 20
62.7312636495
 30
0.0
 11
533.9482641052
 21
36.0712608815
 31
0.0
  0
ARC
  5
1DF
330
1F
100
AcDbEntity
  8
0
  6
CONTINUOUS
 62
     7
100
AcDbCircle
 10
507.2752800697
 20
48.3635457805
 30
0.0
 40
1.0
100
AcDbArc
 50
180.0
 51
204.887907172
  0
LINE
  5
1E0
330
1F
100
AcDbEntity
  8
0
  6
CONTINUOUS
 62
     7
100
AcDbLine
 10
25.9482795577
 20
81.4112587393
 30
0.0
 11
25.9482795577
 21
1100.7312847793
 31
0.0
  0
LINE
  5
1E1
330
1F
100
AcDbEntity
  8
0
  6
CONTINUOUS
 62
     7
100
AcDbLine
 10
475.6082808803
 20
81.4112587393
 30
0.0
 11
475.6082808803
 21
1100.7312847793
 31
0.0
  0
LINE
  5
1E2
330
1F
100
AcDbEntity
  8
0
  6
CONTINUOUS
 62
     7
100
AcDbLine
 10
475.6082808803
 20
1100.7312847793
 30
0.0
 11
25.9482795577
 21
1100.7312847793
 31
0.0
  0
LINE
  5
1E3
330
1F
100
AcDbEntity
  8
0
  6
CONTINUOUS
 62
     7
100
AcDbLine
 10
25.9482795577
 20
81.4112587393
 30
0.0
 11
475.6082808803
 21
81.4112587393
 31
0.0
  0
ARC
  5
1E4
330
1F
100
AcDbEntity
  8
0
  6
CONTINUOUS
 62
     7
100
AcDbCircle
 10
495.7970973073
 20
64.2412645424
 30
0.0
 40
1.000000000000083
100
AcDbArc
 50
270.0000643223
 51
342.3995466116
  0
LINE
  5
1E5
330
1F
100
AcDbEntity
  8
0
  6
CONTINUOUS
 62
     7
100
AcDbLine
 10
495.7970893215
 20
63.2412633419
 30
0.0
 11
491.7534506153
 21
63.2412596166
 31
0.0
  0
ARC
  5
1E6
330
1F
100
AcDbEntity
  8
0
  6
CONTINUOUS
 62
     7
100
AcDbCircle
 10
491.7534605868
 20
64.2412600029
 30
0.0
 40
1.000000000000079
100
AcDbArc
 50
197.6004801833
 51
270.0000643223
  0
ARC
  5
1E7
330
1F
100
AcDbEntity
  8
0
  6
CONTINUOUS
 62
     7
100
AcDbCircle
 10
77.8030973073
 20
64.2412645424
 30
0.0
 40
1.000000000000097
100
AcDbArc
 50
270.0000643223
 51
342.3995466116
  0
LINE
  5
1E8
330
1F
100
AcDbEntity
  8
0
  6
CONTINUOUS
 62
     7
100
AcDbLine
 10
77.8030967544
 20
63.2412633419
 30
0.0
 11
73.7594580482
 21
63.2412596166
 31
0.0
  0
ARC
  5
1E9
330
1F
100
AcDbEntity
  8
0
  6
CONTINUOUS
 62
     7
100
AcDbCircle
 10
73.7594605868
 20
64.2412600029
 30
0.0
 40
1.000000000000079
100
AcDbArc
 50
197.6004801833
 51
270.0000643223
  0
ARC
  5
1EA
330
1F
100
AcDbEntity
  8
0
  6
CONTINUOUS
 62
     7
100
AcDbCircle
 10
73.7594628321
 20
1117.9012600029
 30
0.0
 40
1.000000000000175
100
AcDbArc
 50
90.0000643223
 51
162.3995466116
  0
LINE
  5
1EB
330
1F
100
AcDbEntity
  8
0
  6
CONTINUOUS
 62
     7
100
AcDbLine
 10
73.7594580482
 20
1118.901283902
 30
0.0
 11
77.8030967544
 21
1118.901283902
 31
0.0
  0
ARC
  5
1EC
330
1F
100
AcDbEntity
  8
0
  6
CONTINUOUS
 62
     7
100
AcDbCircle
 10
77.8030995526
 20
1117.9012645424
 30
0.0
 40
0.9999999999999584
100
AcDbArc
 50
17.6004801833
 51
90.0000643223
  0
ARC
  5
1ED
330
1F
100
AcDbEntity
  8
0
  6
CONTINUOUS
 62
     7
100
AcDbCircle
 10
491.7534628321
 20
1117.9012600029
 30
0.0
 40
1.000000000000175
100
AcDbArc
 50
90.0000643223
 51
162.3995466116
  0
LINE
  5
1EE
330
1F
100
AcDbEntity
  8
0
  6
CONTINUOUS
 62
     7
100
AcDbLine
 10
491.7534506153
 20
1118.901283902
 30
0.0
 11
495.7970893215
 21
1118.901283902
 31
0.0
  0
ARC
  5
1EF
330
1F
100
AcDbEntity
  8
0
  6
CONTINUOUS
 62
     7
100
AcDbCircle
 10
495.7970995526
 20
1117.9012645424
 30
0.0
 40
1.000000000000067
100
AcDbArc
 50
17.6004801833
 51
90.0000643223
  0
ARC
  5
1F0
330
1F
100
AcDbEntity
  8
0
  6
CONTINUOUS
 62
     7
100
AcDbCircle
 10
67.8782898021
 20
62.3755884881
 30
0.0
 40
5.169999999999924
100
AcDbArc
 50
17.6004801833
 51
176.0551797229
  0
LINE
  5
1F1
330
1F
100
AcDbEntity
  8
0
  6
CONTINUOUS
 62
     7
100
AcDbLine
 10
25.9482795577
 20
81.4112587393
 30
0.0
 11
25.9482795577
 21
62.7312636495
 31
0.0
  0
LINE
  5
1F2
330
1F
100
AcDbEntity
  8
0
  6
CONTINUOUS
 62
     7
100
AcDbLine
 10
25.9482795577
 20
1119.4112612427
 30
0.0
 11
25.9482795577
 21
1100.7312847793
 31
0.0
  0
ARC
  5
1F3
330
1F
100
AcDbEntity
  8
0
  6
CONTINUOUS
 62
     7
100
AcDbCircle
 10
67.8782911749
 20
1119.7669287673
 30
0.0
 40
5.169999999999986
100
AcDbArc
 50
183.9447383382
 51
342.3995466116
  0
ARC
  5
1F4
330
1F
100
AcDbEntity
  8
0
  6
CONTINUOUS
 62
     7
100
AcDbCircle
 10
83.6842689645
 20
62.375595778
 30
0.0
 40
5.170000000000026
100
AcDbArc
 50
3.9447383383
 51
162.3995466116
  0
ARC
  5
1F5
330
1F
100
AcDbEntity
  8
0
  6
CONTINUOUS
 62
     7
100
AcDbCircle
 10
83.6842703373
 20
1119.7669360572
 30
0.0
 40
5.170000000000041
100
AcDbArc
 50
197.6004801833
 51
356.0551806805
  0
ARC
  5
1F6
330
1F
100
AcDbEntity
  8
0
  6
CONTINUOUS
 62
     7
100
AcDbCircle
 10
485.8722911749
 20
1119.7669287673
 30
0.0
 40
5.170000000000016
100
AcDbArc
 50
183.9447383382
 51
342.3995466116
  0
ARC
  5
1F7
330
1F
100
AcDbEntity
  8
0
  6
CONTINUOUS
 62
     7
100
AcDbCircle
 10
485.8722898021
 20
62.3755884881
 30
0.0
 40
5.169999999999897
100
AcDbArc
 50
17.6004801833
 51
176.0551797229
  0
ARC
  5
1F8
330
1F
100
AcDbEntity
  8
0
  6
CONTINUOUS
 62
     7
100
AcDbCircle
 10
501.6782703373
 20
1119.7669360572
 30
0.0
 40
5.170000000000009
100
AcDbArc
 50
197.6004801833
 51
356.0551806805
  0
ARC
  5
1F9
330
1F
100
AcDbEntity
  8
0
  6
CONTINUOUS
 62
     7
100
AcDbCircle
 10
501.6782689645
 20
62.375595778
 30
0.0
 40
5.169999999999957
100
AcDbArc
 50
3.9447383383
 51
162.3995466116
  0
LINE
  5
1FA
330
1F
100
AcDbEntity
  8
0
  6
CONTINUOUS
 62
     7
100
AcDbLine
 10
533.9482641052
 20
1100.7312847793
 30
0.0
 11
533.9482641052
 21
1119.4112612427
 31
0.0
  0
LINE
  5
1FB
330
1F
100
AcDbEntity
  8
0
  6
CONTINUOUS
 62
     7
100
AcDbLine
 10
533.9482641052
 20
62.7312636495
 30
0.0
 11
533.9482641052
 21
81.4112587393
 31
0.0
  0
LINE
  5
1FC
330
1F
100
AcDbEntity
  8
0
  6
CONTINUOUS
 62
     7
100
AcDbLine
 10
1472.908279879
 20
1068.0712773025
 30
0.0
 11
1104.9082493614
 21
1068.0712773025
 31
0.0
  0
LINE
  5
1FD
330
1F
100
AcDbEntity
  8
0
  6
CONTINUOUS
 62
     7
100
AcDbLine
 10
1472.908279879
 20
30.0712617606
 30
0.0
 11
1472.908279879
 21
1068.0712773025
 31
0.0
  0
LINE
  5
1FE
330
1F
100
AcDbEntity
  8
0
  6
CONTINUOUS
 62
     7
100
AcDbLine
 10
1104.9082493614
 20
30.0712617606
 30
0.0
 11
1472.908279879
 21
30.0712617606
 31
0.0
  0
LINE
  5
1FF
330
1F
100
AcDbEntity
  8
0
  6
CONTINUOUS
 62
     7
100
AcDbLine
 10
1104.9082493614
 20
1068.0712773025
 30
0.0
 11
1104.9082493614
 21
30.0712617606
 31
0.0
  0
LINE
  5
200
330
1F
100
AcDbEntity
  8
PROFILES_OUTSIDE
100
AcDbLine
 10
1073.4282800697
 20
36.0712622726
 30
0.0
 11
1073.4282800697
 21
1146.0712622726
 31
0.0
  0
LINE
  5
201
330
1F
100
AcDbEntity
  8
PROFILES_OUTSIDE
100
AcDbLine
 10
533.9482800697
 20
30.0712622726
 30
0.0
 11
533.9482800697
 21
1152.0712622726
 31
0.0
  0
LINE
  5
202
330
1F
100
AcDbEntity
  8
POCKETS
100
AcDbLine
 10
1882.3882800697
 20
88.2412622726
 30
0.0
 11
1494.3882800697
 21
88.2412622726
 31
0.0
  0
LINE
  5
203
330
1F
100
AcDbEntity
  8
POCKETS
100
AcDbLine
 10
1494.3882800697
 20
88.2412622726
 30
0.0
 11
1494.3882800697
 21
70.0712622726
 31
0.0
  0
LINE
  5
204
330
1F
100
AcDbEntity
  8
POCKETS
100
AcDbLine
 10
1494.3882800697
 20
70.0712622726
 30
0.0
 11
1882.3882800697
 21
70.0712622726
 31
0.0
  0
LINE
  5
205
330
1F
100
AcDbEntity
  8
PROFILES_OUTSIDE
100
AcDbLine
 10
533.9482800697
 20
1152.0712622726
 30
0.0
 11
25.9482800697
 21
1152.0712622726
 31
0.0
  0
LINE
  5
206
330
1F
100
AcDbEntity
  8
PROFILES_OUTSIDE
100
AcDbLine
 10
25.9482800697
 20
1152.0712622726
 30
0.0
 11
25.9482800697
 21
30.0712622726
 31
0.0
  0
LINE
  5
207
330
1F
100
AcDbEntity
  8
PROFILES_OUTSIDE
100
AcDbLine
 10
25.9482800697
 20
30.0712622726
 30
0.0
 11
533.9482800697
 21
30.0712622726
 31
0.0
  0
LINE
  5
208
330
1F
100
AcDbEntity
  8
POCKETS
100
AcDbLine
 10
1882.3882800697
 20
70.0712622726
 30
0.0
 11
1882.3882800697
 21
88.2412622726
 31
0.0
  0
LINE
  5
209
330
1F
100
AcDbEntity
  8
PROFILES_INSIDE
100
AcDbLine
 10
506.2752800697
 20
1122.3635457805
 30
0.0
 11
506.2752800697
 21
1133.7789787648
 31
0.0
  0
LINE
  5
20A
330
1F
100
AcDbEntity
  8
PROFILES_INSIDE
100
AcDbLine
 10
491.7534617095
 20
1118.9012600029
 30
0.0
 11
495.7970984299
 21
1118.9012645424
 31
0.0
  0
LINE
  5
20B
330
1F
100
AcDbEntity
  8
PROFILES_INSIDE
100
AcDbLine
 10
481.2752782626
 20
1133.7789890137
 30
0.0
 11
481.2752800697
 21
1122.3635355316
 31
0.0
  0
LINE
  5
20C
330
1F
100
AcDbEntity
  8
PROFILES_INSIDE
100
AcDbLine
 10
495.7970984299
 20
1137.2412645424
 30
0.0
 11
491.7534617095
 21
1137.2412582799
 31
0.0
  0
LINE
  5
20D
330
1F
100
AcDbEntity
  8
PROFILES_OUTSIDE
100
AcDbLine
 10
1472.9082800697
 20
30.0712622726
 30
0.0
 11
1472.9082800697
 21
1068.0712622726
 31
0.0
  0
LINE
  5
20E
330
1F
100
AcDbEntity
  8
PROFILES_OUTSIDE
100
AcDbLine
 10
1472.9082800697
 20
1068.0712622726
 30
0.0
 11
1104.9082800697
 21
1068.0712622726
 31
0.0
  0
LINE
  5
20F
330
1F
100
AcDbEntity
  8
PROFILES_OUTSIDE
100
AcDbLine
 10
1104.9082800697
 20
1068.0712622726
 30
0.0
 11
1104.9082800697
 21
30.0712622726
 31
0.0
  0
LINE
  5
210
330
1F
100
AcDbEntity
  8
PROFILES_OUTSIDE
100
AcDbLine
 10
1104.9082800697
 20
30.0712622726
 30
0.0
 11
1472.9082800697
 21
30.0712622726
 31
0.0
  0
LINE
  5
211
330
1F
100
AcDbEntity
  8
PROFILES_OUTSIDE
100
AcDbLine
 10
1872.3882800697
 20
538.0712622726
 30
0.0
 11
1504.3882800697
 21
538.0712622726
 31
0.0
  0
LINE
  5
212
330
1F
100
AcDbEntity
  8
PROFILES_OUTSIDE
100
AcDbLine
 10
1504.3882800697
 20
538.0712622726
 30
0.0
 11
1504.3882800697
 21
30.0712622726
 31
0.0
  0
LINE
  5
213
330
1F
100
AcDbEntity
  8
PROFILES_OUTSIDE
100
AcDbLine
 10
1504.3882800697
 20
30.0712622726
 30
0.0
 11
1872.3882800697
 21
30.0712622726
 31
0.0
  0
LINE
  5
214
330
1F
100
AcDbEntity
  8
PROFILES_OUTSIDE
100
AcDbLine
 10
1872.3882800697
 20
30.0712622726
 30
0.0
 11
1872.3882800697
 21
538.0712622726
 31
0.0
  0
LINE
  5
215
330
1F
100
AcDbEntity
  8
PROFILES_OUTSIDE
100
AcDbLine
 10
1903.8682800697
 20
538.0712622726
 30
0.0
 11
1903.8682800697
 21
30.0712622726
 31
0.0
  0
LINE
  5
216
330
1F
100
AcDbEntity
  8
PROFILES_OUTSIDE
100
AcDbLine
 10
1903.8682800697
 20
30.0712622726
 30
0.0
 11
2271.8682800697
 21
30.0712622726
 31
0.0
  0
LINE
  5
217
330
1F
100
AcDbEntity
  8
BOX_STOCK
100
AcDbLine
 10
0.2082800697
 20
4.3312622726
 30
0.0
 11
2440.2082800697
 21
4.3312622726
 31
0.0
  0
LINE
  5
218
330
1F
100
AcDbEntity
  8
BOX_STOCK
100
AcDbLine
 10
2440.2082800697
 20
4.3312622726
 30
0.0
 11
2440.2082800697
 21
1224.3312622726
 31
0.0
  0
LINE
  5
219
330
1F
100
AcDbEntity
  8
BOX_STOCK
100
AcDbLine
 10
2440.2082800697
 20
1224.3312622726
 30
0.0
 11
0.2082800697
 21
1224.3312622726
 31
0.0
  0
LINE
  5
21A
330
1F
100
AcDbEntity
  8
BOX_STOCK
100
AcDbLine
 10
0.2082800697
 20
1224.3312622726
 30
0.0
 11
0.2082800697
 21
4.3312622726
 31
0.0
  0
LINE
  5
21B
330
1F
100
AcDbEntity
  8
POCKETS
100
AcDbLine
 10
2281.8682800697
 20
88.2412622726
 30
0.0
 11
1893.8682800697
 21
88.2412622726
 31
0.0
  0
LINE
  5
21C
330
1F
100
AcDbEntity
  8
PROFILES_OUTSIDE
100
AcDbLine
 10
2271.8682800697
 20
30.0712622726
 30
0.0
 11
2271.8682800697
 21
538.0712622726
 31
0.0
  0
LINE
  5
21D
330
1F
100
AcDbEntity
  8
POCKETS
100
AcDbLine
 10
1893.8682800697
 20
88.2412622726
 30
0.0
 11
1893.8682800697
 21
70.0712622726
 31
0.0
  0
LINE
  5
21E
330
1F
100
AcDbEntity
  8
POCKETS
100
AcDbLine
 10
1893.8682800697
 20
70.0712622726
 30
0.0
 11
2281.8682800697
 21
70.0712622726
 31
0.0
  0
LINE
  5
21F
330
1F
100
AcDbEntity
  8
POCKETS
100
AcDbLine
 10
2281.8682800697
 20
70.0712622726
 30
0.0
 11
2281.8682800697
 21
88.2412622726
 31
0.0
  0
LINE
  5
220
330
1F
100
AcDbEntity
  8
PROFILES_OUTSIDE
100
AcDbLine
 10
2271.8682800697
 20
538.0712622726
 30
0.0
 11
1903.8682800697
 21
538.0712622726
 31
0.0
  0
LINE
  5
221
330
1F
100
AcDbEntity
  8
PROFILES_INSIDE
100
AcDbLine
 10
88.2812800697
 20
1122.3635457805
 30
0.0
 11
88.2812800697
 21
1133.7789787648
 31
0.0
  0
LINE
  5
222
330
1F
100
AcDbEntity
  8
PROFILES_INSIDE
100
AcDbLine
 10
77.8030984299
 20
1137.2412645424
 30
0.0
 11
73.7594617095
 21
1137.2412593763
 31
0.0
  0
LINE
  5
223
330
1F
100
AcDbEntity
  8
PROFILES_INSIDE
100
AcDbLine
 10
63.281278106
 20
1133.7789890137
 30
0.0
 11
63.2812800697
 21
1122.3635355316
 31
0.0
  0
LINE
  5
224
330
1F
100
AcDbEntity
  8
PROFILES_INSIDE
100
AcDbLine
 10
73.7594617095
 20
1118.9012600029
 30
0.0
 11
77.8030984299
 21
1118.9012645424
 31
0.0
  0
LINE
  5
225
330
1F
100
AcDbEntity
  8
PROFILES_INSIDE
100
AcDbLine
 10
506.2752800697
 20
48.3635457805
 30
0.0
 11
506.2752800697
 21
59.7789787648
 31
0.0
  0
LINE
  5
226
330
1F
100
AcDbEntity
  8
PROFILES_INSIDE
100
AcDbLine
 10
495.7970984299
 20
63.2412645424
 30
0.0
 11
491.7534617095
 21
63.2412598462
 31
0.0
  0
LINE
  5
227
330
1F
100
AcDbEntity
  8
PROFILES_INSIDE
100
AcDbLine
 10
481.2752779494
 20
59.7789890137
 30
0.0
 11
481.2752800697
 21
48.3635355316
 31
0.0
  0
LINE
  5
228
330
1F
100
AcDbEntity
  8
PROFILES_INSIDE
100
AcDbLine
 10
491.7534617095
 20
44.9012600029
 30
0.0
 11
495.7970984299
 21
44.9012645424
 31
0.0
  0
LINE
  5
229
330
1F
100
AcDbEntity
  8
PROFILES_INSIDE
100
AcDbLine
 10
63.2812782626
 20
59.7789890137
 30
0.0
 11
63.2812800697
 21
48.3635355316
 31
0.0
  0
LINE
  5
22A
330
1F
100
AcDbEntity
  8
PROFILES_INSIDE
100
AcDbLine
 10
73.7594617095
 20
44.9012600029
 30
0.0
 11
77.8030984299
 21
44.9012645424
 31
0.0
  0
LINE
  5
22B
330
1F
100
AcDbEntity
  8
PROFILES_INSIDE
100
AcDbLine
 10
88.2812800697
 20
48.3635457805
 30
0.0
 11
88.2812800697
 21
59.7789787648
 31
0.0
  0
LINE
  5
22C
330
1F
100
AcDbEntity
  8
PROFILES_INSIDE
100
AcDbLine
 10
77.8030984299
 20
63.2412645424
 30
0.0
 11
73.7594617095
 21
63.2412600029
 31
0.0
  0
LINE
  5
22D
330
1F
100
AcDbEntity
  8
PROFILES_OUTSIDE
100
AcDbLine
 10
1898.1282800697
 20
575.8012622726
 30
0.0
 11
1903.3882800697
 21
575.8012622726
 31
0.0
  0
LINE
  5
22E
330
1F
100
AcDbEntity
  8
PROFILES_OUTSIDE
100
AcDbLine
 10
1897.7881924326
 20
581.1151316019
 30
0.0
 11
1898.1282800697
 21
575.8012622726
 31
0.0
  0
LINE
  5
22F
330
1F
100
AcDbEntity
  8
PROFILES_OUTSIDE
100
AcDbLine
 10
1882.8505584531
 20
582.0512622726
 30
0.0
 11
1896.7902341626
 21
582.0512622726
 31
0.0
  0
LINE
  5
230
330
1F
100
AcDbEntity
  8
PROFILES_OUTSIDE
100
AcDbLine
 10
1879.3882800697
 20
569.5492622726
 30
0.0
 11
1879.3882800697
 21
571.5730806329
 31
0.0
  0
LINE
  5
231
330
1F
100
AcDbEntity
  8
PROFILES_OUTSIDE
100
AcDbLine
 10
1741.3882800697
 20
569.5492622726
 30
0.0
 11
1879.3882800697
 21
569.5492622726
 31
0.0
  0
LINE
  5
232
330
1F
100
AcDbEntity
  8
PROFILES_OUTSIDE
100
AcDbLine
 10
1729.3882800697
 20
717.548595606
 30
0.0
 11
1729.3882800697
 21
581.5492622726
 31
0.0
  0
LINE
  5
233
330
1F
100
AcDbEntity
  8
PROFILES_OUTSIDE
100
AcDbLine
 10
1691.3882800697
 20
729.548595606
 30
0.0
 11
1717.3882800697
 21
729.548595606
 31
0.0
  0
LINE
  5
234
330
1F
100
AcDbEntity
  8
PROFILES_OUTSIDE
100
AcDbLine
 10
1679.3882800697
 20
581.5492622726
 30
0.0
 11
1679.3882800697
 21
717.548595606
 31
0.0
  0
LINE
  5
235
330
1F
100
AcDbEntity
  8
PROFILES_INSIDE
100
AcDbLine
 10
1045.7552800697
 20
1122.3635457805
 30
0.0
 11
1045.7552800697
 21
1133.7789787648
 31
0.0
  0
LINE
  5
236
330
1F
100
AcDbEntity
  8
PROFILES_INSIDE
100
AcDbLine
 10
1031.2334617095
 20
1118.9012600029
 30
0.0
 11
1035.2770984299
 21
1118.9012645424
 31
0.0
  0
LINE
  5
237
330
1F
100
AcDbEntity
  8
PROFILES_INSIDE
100
AcDbLine
 10
1020.7552782626
 20
1133.7789890137
 30
0.0
 11
1020.7552800697
 21
1122.3635355316
 31
0.0
  0
LINE
  5
238
330
1F
100
AcDbEntity
  8
PROFILES_INSIDE
100
AcDbLine
 10
1035.2770984299
 20
1137.2412645424
 30
0.0
 11
1031.2334617095
 21
1137.2412582799
 31
0.0
  0
LINE
  5
239
330
1F
100
AcDbEntity
  8
PROFILES_INSIDE
100
AcDbLine
 10
627.9058800697
 20
1122.3635457805
 30
0.0
 11
627.9058800697
 21
1133.7789787648
 31
0.0
  0
LINE
  5
23A
330
1F
100
AcDbEntity
  8
PROFILES_INSIDE
100
AcDbLine
 10
617.4276984299
 20
1137.2412645424
 30
0.0
 11
613.3840617095
 21
1137.2412593763
 31
0.0
  0
LINE
  5
23B
330
1F
100
AcDbEntity
  8
PROFILES_INSIDE
100
AcDbLine
 10
602.905878106
 20
1133.7789890137
 30
0.0
 11
602.9058800697
 21
1122.3635355316
 31
0.0
  0
LINE
  5
23C
330
1F
100
AcDbEntity
  8
PROFILES_INSIDE
100
AcDbLine
 10
613.3840617095
 20
1118.9012600029
 30
0.0
 11
617.4276984299
 21
1118.9012645424
 31
0.0
  0
LINE
  5
23D
330
1F
100
AcDbEntity
  8
PROFILES_INSIDE
100
AcDbLine
 10
1045.7552800697
 20
48.3635457805
 30
0.0
 11
1045.7552800697
 21
59.7789787648
 31
0.0
  0
LINE
  5
23E
330
1F
100
AcDbEntity
  8
PROFILES_INSIDE
100
AcDbLine
 10
1035.2770984299
 20
63.2412645424
 30
0.0
 11
1031.2334617095
 21
63.2412598462
 31
0.0
  0
LINE
  5
23F
330
1F
100
AcDbEntity
  8
PROFILES_INSIDE
100
AcDbLine
 10
1020.7552779494
 20
59.7789890137
 30
0.0
 11
1020.7552800697
 21
48.3635355316
 31
0.0
  0
LINE
  5
240
330
1F
100
AcDbEntity
  8
PROFILES_INSIDE
100
AcDbLine
 10
1031.2334617095
 20
44.9012600029
 30
0.0
 11
1035.2770984299
 21
44.9012645424
 31
0.0
  0
LINE
  5
241
330
1F
100
AcDbEntity
  8
PROFILES_OUTSIDE
100
AcDbLine
 10
1529.3882800697
 20
569.5492622726
 30
0.0
 11
1667.3882800697
 21
569.5492622726
 31
0.0
  0
LINE
  5
242
330
1F
100
AcDbEntity
  8
PROFILES_OUTSIDE
100
AcDbLine
 10
1529.3882800697
 20
571.5730806329
 30
0.0
 11
1529.3882800697
 21
569.5492622726
 31
0.0
  0
LINE
  5
243
330
1F
100
AcDbEntity
  8
PROFILES_OUTSIDE
100
AcDbLine
 10
1511.9863259768
 20
582.0512622726
 30
0.0
 11
1525.9260016863
 21
582.0512622726
 31
0.0
  0
LINE
  5
244
330
1F
100
AcDbEntity
  8
PROFILES_OUTSIDE
100
AcDbLine
 10
1510.6482800697
 20
575.8012622726
 30
0.0
 11
1510.9883677068
 21
581.1151316019
 31
0.0
  0
LINE
  5
245
330
1F
100
AcDbEntity
  8
PROFILES_OUTSIDE
100
AcDbLine
 10
1505.3882800697
 20
575.8012622726
 30
0.0
 11
1510.6482800697
 21
575.8012622726
 31
0.0
  0
LINE
  5
246
330
1F
100
AcDbEntity
  8
PROFILES_INSIDE
100
AcDbLine
 10
602.9058782626
 20
59.7789890137
 30
0.0
 11
602.9058800697
 21
48.3635355316
 31
0.0
  0
LINE
  5
247
330
1F
100
AcDbEntity
  8
PROFILES_INSIDE
100
AcDbLine
 10
613.3840617095
 20
44.9012600029
 30
0.0
 11
617.4276984299
 21
44.9012645424
 31
0.0
  0
LINE
  5
248
330
1F
100
AcDbEntity
  8
PROFILES_INSIDE
100
AcDbLine
 10
627.9058800697
 20
48.3635457805
 30
0.0
 11
627.9058800697
 21
59.7789787648
 31
0.0
  0
LINE
  5
249
330
1F
100
AcDbEntity
  8
PROFILES_INSIDE
100
AcDbLine
 10
617.4276984299
 20
63.2412645424
 30
0.0
 11
613.3840617095
 21
63.2412600029
 31
0.0
  0
LINE
  5
24A
330
1F
100
AcDbEntity
  8
PROFILES_OUTSIDE
100
AcDbLine
 10
565.4282800697
 20
1146.0712622726
 30
0.0
 11
565.4282800697
 21
36.0712622726
 31
0.0
  0
LINE
  5
24B
330
1F
100
AcDbEntity
  8
PROFILES_OUTSIDE
100
AcDbLine
 10
1067.4282800697
 20
1152.0712622726
 30
0.0
 11
571.4282800697
 21
1152.0712622726
 31
0.0
  0
LINE
  5
24C
330
1F
100
AcDbEntity
  8
POCKETS
100
AcDbLine
 10
544.2882800697
 20
81.4112622726
 30
0.0
 11
534.2882800697
 21
81.4112622726
 31
0.0
  0
LINE
  5
24D
330
1F
100
AcDbEntity
  8
PROFILES_OUTSIDE
100
AcDbLine
 10
1504.3882800697
 20
588.5512622726
 30
0.0
 11
1504.3882800697
 21
576.8012622726
 31
0.0
  0
LINE
  5
24E
330
1F
100
AcDbEntity
  8
PROFILES_OUTSIDE
100
AcDbLine
 10
1648.3382800697
 20
594.5512622726
 30
0.0
 11
1510.3882800697
 21
594.5512622726
 31
0.0
  0
LINE
  5
24F
330
1F
100
AcDbEntity
  8
PROFILES_OUTSIDE
100
AcDbLine
 10
1660.3382800697
 20
729.548595606
 30
0.0
 11
1660.3382800697
 21
606.5512622726
 31
0.0
  0
LINE
  5
250
330
1F
100
AcDbEntity
  8
PROFILES_OUTSIDE
100
AcDbLine
 10
1679.3882800697
 20
844.5523610551
 30
0.0
 11
1679.3882800697
 21
762.5441634902
 31
0.0
  0
LINE
  5
251
330
1F
100
AcDbEntity
  8
PROFILES_OUTSIDE
100
AcDbLine
 10
1660.3382800697
 20
1000.5452622726
 30
0.0
 11
1660.3382800697
 21
877.5479289393
 31
0.0
  0
LINE
  5
252
330
1F
100
AcDbEntity
  8
PROFILES_OUTSIDE
100
AcDbLine
 10
1510.3882800697
 20
1012.5452622726
 30
0.0
 11
1648.3382800697
 21
1012.5452622726
 31
0.0
  0
LINE
  5
253
330
1F
100
AcDbEntity
  8
PROFILES_OUTSIDE
100
AcDbLine
 10
1504.3882800697
 20
1030.2952622726
 30
0.0
 11
1504.3882800697
 21
1018.5452622726
 31
0.0
  0
LINE
  5
254
330
1F
100
AcDbEntity
  8
PROFILES_OUTSIDE
100
AcDbLine
 10
1510.6482800697
 20
1031.2952622726
 30
0.0
 11
1505.3882800697
 21
1031.2952622726
 31
0.0
  0
LINE
  5
255
330
1F
100
AcDbEntity
  8
PROFILES_OUTSIDE
100
AcDbLine
 10
1510.9883677068
 20
1025.9813929433
 30
0.0
 11
1510.6482800697
 21
1031.2952622726
 31
0.0
  0
LINE
  5
256
330
1F
100
AcDbEntity
  8
PROFILES_OUTSIDE
100
AcDbLine
 10
1525.9260016863
 20
1025.0452622726
 30
0.0
 11
1511.9863259768
 21
1025.0452622726
 31
0.0
  0
LINE
  5
257
330
1F
100
AcDbEntity
  8
PROFILES_OUTSIDE
100
AcDbLine
 10
1529.3882800697
 20
1037.5472622726
 30
0.0
 11
1529.3882800697
 21
1035.5234439124
 31
0.0
  0
LINE
  5
258
330
1F
100
AcDbEntity
  8
PROFILES_OUTSIDE
100
AcDbLine
 10
1667.3882800697
 20
1037.5472622726
 30
0.0
 11
1529.3882800697
 21
1037.5472622726
 31
0.0
  0
LINE
  5
259
330
1F
100
AcDbEntity
  8
PROFILES_OUTSIDE
100
AcDbLine
 10
1679.3882800697
 20
889.5479289393
 30
0.0
 11
1679.3882800697
 21
1025.5472622726
 31
0.0
  0
LINE
  5
25A
330
1F
100
AcDbEntity
  8
PROFILES_OUTSIDE
100
AcDbLine
 10
1717.3882800697
 20
877.5479289393
 30
0.0
 11
1691.3882800697
 21
877.5479289393
 31
0.0
  0
LINE
  5
25B
330
1F
100
AcDbEntity
  8
PROFILES_OUTSIDE
100
AcDbLine
 10
1729.3882800697
 20
1025.5472622726
 30
0.0
 11
1729.3882800697
 21
889.5479289393
 31
0.0
  0
LINE
  5
25C
330
1F
100
AcDbEntity
  8
PROFILES_OUTSIDE
100
AcDbLine
 10
1879.3882800697
 20
1037.5472622726
 30
0.0
 11
1741.3882800697
 21
1037.5472622726
 31
0.0
  0
LINE
  5
25D
330
1F
100
AcDbEntity
  8
POCKETS
100
AcDbLine
 10
544.2882800697
 20
62.7312622726
 30
0.0
 11
544.2882800697
 21
81.4112622726
 31
0.0
  0
LINE
  5
25E
330
1F
100
AcDbEntity
  8
POCKETS
100
AcDbLine
 10
534.2882800697
 20
62.7312622726
 30
0.0
 11
544.2882800697
 21
62.7312622726
 31
0.0
  0
LINE
  5
25F
330
1F
100
AcDbEntity
  8
POCKETS
100
AcDbLine
 10
25.6082800697
 20
62.7312622726
 30
0.0
 11
534.2882800697
 21
62.7312622726
 31
0.0
  0
LINE
  5
260
330
1F
100
AcDbEntity
  8
POCKETS
100
AcDbLine
 10
15.6082800697
 20
62.7312622726
 30
0.0
 11
25.6082800697
 21
62.7312622726
 31
0.0
  0
LINE
  5
261
330
1F
100
AcDbEntity
  8
POCKETS
100
AcDbLine
 10
15.6082800697
 20
81.4112622726
 30
0.0
 11
15.6082800697
 21
62.7312622726
 31
0.0
  0
LINE
  5
262
330
1F
100
AcDbEntity
  8
POCKETS
100
AcDbLine
 10
25.6082800697
 20
81.4112622726
 30
0.0
 11
15.6082800697
 21
81.4112622726
 31
0.0
  0
LINE
  5
263
330
1F
100
AcDbEntity
  8
POCKETS
100
AcDbLine
 10
475.6082800697
 20
81.4112622726
 30
0.0
 11
25.6082800697
 21
81.4112622726
 31
0.0
  0
LINE
  5
264
330
1F
100
AcDbEntity
  8
POCKETS
100
AcDbLine
 10
475.6082800697
 20
1100.7312622726
 30
0.0
 11
475.6082800697
 21
81.4112622726
 31
0.0
  0
LINE
  5
265
330
1F
100
AcDbEntity
  8
POCKETS
100
AcDbLine
 10
25.6082800697
 20
1100.7312622726
 30
0.0
 11
475.6082800697
 21
1100.7312622726
 31
0.0
  0
LINE
  5
266
330
1F
100
AcDbEntity
  8
POCKETS
100
AcDbLine
 10
15.6082800697
 20
1100.7312622726
 30
0.0
 11
25.6082800697
 21
1100.7312622726
 31
0.0
  0
LINE
  5
267
330
1F
100
AcDbEntity
  8
POCKETS
100
AcDbLine
 10
15.6082800697
 20
1119.4112622726
 30
0.0
 11
15.6082800697
 21
1100.7312622726
 31
0.0
  0
LINE
  5
268
330
1F
100
AcDbEntity
  8
POCKETS
100
AcDbLine
 10
25.6082800697
 20
1119.4112622726
 30
0.0
 11
15.6082800697
 21
1119.4112622726
 31
0.0
  0
LINE
  5
269
330
1F
100
AcDbEntity
  8
POCKETS
100
AcDbLine
 10
534.2882800697
 20
1119.4112622726
 30
0.0
 11
25.6082800697
 21
1119.4112622726
 31
0.0
  0
LINE
  5
26A
330
1F
100
AcDbEntity
  8
POCKETS
100
AcDbLine
 10
544.2882800697
 20
1119.4112622726
 30
0.0
 11
534.2882800697
 21
1119.4112622726
 31
0.0
  0
LINE
  5
26B
330
1F
100
AcDbEntity
  8
POCKETS
100
AcDbLine
 10
544.2882800697
 20
1100.7312622726
 30
0.0
 11
544.2882800697
 21
1119.4112622726
 31
0.0
  0
LINE
  5
26C
330
1F
100
AcDbEntity
  8
POCKETS
100
AcDbLine
 10
534.2882800697
 20
1100.7312622726
 30
0.0
 11
544.2882800697
 21
1100.7312622726
 31
0.0
  0
LINE
  5
26D
330
1F
100
AcDbEntity
  8
POCKETS
100
AcDbLine
 10
493.9482800697
 20
1100.7312622726
 30
0.0
 11
534.2882800697
 21
1100.7312622726
 31
0.0
  0
LINE
  5
26E
330
1F
100
AcDbEntity
  8
PROFILES_OUTSIDE
100
AcDbLine
 10
1879.3882800697
 20
1035.5234439124
 30
0.0
 11
1879.3882800697
 21
1037.5472622726
 31
0.0
  0
LINE
  5
26F
330
1F
100
AcDbEntity
  8
PROFILES_OUTSIDE
100
AcDbLine
 10
1896.7902341626
 20
1025.0452622726
 30
0.0
 11
1882.8505584531
 21
1025.0452622726
 31
0.0
  0
LINE
  5
270
330
1F
100
AcDbEntity
  8
PROFILES_OUTSIDE
100
AcDbLine
 10
1898.1282800697
 20
1031.2952622726
 30
0.0
 11
1897.7881924326
 21
1025.9813929433
 31
0.0
  0
LINE
  5
271
330
1F
100
AcDbEntity
  8
PROFILES_OUTSIDE
100
AcDbLine
 10
1903.3882800697
 20
1031.2952622726
 30
0.0
 11
1898.1282800697
 21
1031.2952622726
 31
0.0
  0
LINE
  5
272
330
1F
100
AcDbEntity
  8
PROFILES_OUTSIDE
100
AcDbLine
 10
1904.3882800697
 20
1018.5452622726
 30
0.0
 11
1904.3882800697
 21
1030.2952622726
 31
0.0
  0
LINE
  5
273
330
1F
100
AcDbEntity
  8
PROFILES_OUTSIDE
100
AcDbLine
 10
1760.4382800697
 20
1012.5452622726
 30
0.0
 11
1898.3882800697
 21
1012.5452622726
 31
0.0
  0
LINE
  5
274
330
1F
100
AcDbEntity
  8
PROFILES_OUTSIDE
100
AcDbLine
 10
1748.4382800697
 20
877.5479289393
 30
0.0
 11
1748.4382800697
 21
1000.5452622726
 31
0.0
  0
LINE
  5
275
330
1F
100
AcDbEntity
  8
PROFILES_OUTSIDE
100
AcDbLine
 10
1729.3882800697
 20
762.5441634902
 30
0.0
 11
1729.3882800697
 21
844.5523610551
 31
0.0
  0
LINE
  5
276
330
1F
100
AcDbEntity
  8
PROFILES_OUTSIDE
100
AcDbLine
 10
1748.4382800697
 20
606.5512622726
 30
0.0
 11
1748.4382800697
 21
729.548595606
 31
0.0
  0
LINE
  5
277
330
1F
100
AcDbEntity
  8
PROFILES_OUTSIDE
100
AcDbLine
 10
1898.3882800697
 20
594.5512622726
 30
0.0
 11
1760.4382800697
 21
594.5512622726
 31
0.0
  0
LINE
  5
278
330
1F
100
AcDbEntity
  8
PROFILES_OUTSIDE
100
AcDbLine
 10
1904.3882800697
 20
576.8012622726
 30
0.0
 11
1904.3882800697
 21
588.5512622726
 31
0.0
  0
LINE
  5
279
330
1F
100
AcDbEntity
  8
POCKETS
100
AcDbLine
 10
493.9482800697
 20
81.4112622726
 30
0.0
 11
493.9482800697
 21
1100.7312622726
 31
0.0
  0
LINE
  5
27A
330
1F
100
AcDbEntity
  8
PROFILES_OUTSIDE
100
AcDbLine
 10
1942.1282800697
 20
1031.2972622726
 30
0.0
 11
1936.8682800697
 21
1031.2972622726
 31
0.0
  0
LINE
  5
27B
330
1F
100
AcDbEntity
  8
PROFILES_OUTSIDE
100
AcDbLine
 10
1942.4683677068
 20
1025.9833929433
 30
0.0
 11
1942.1282800697
 21
1031.2972622726
 31
0.0
  0
LINE
  5
27C
330
1F
100
AcDbEntity
  8
PROFILES_OUTSIDE
100
AcDbLine
 10
1957.4060016863
 20
1025.0472622726
 30
0.0
 11
1943.4663259768
 21
1025.0472622726
 31
0.0
  0
LINE
  5
27D
330
1F
100
AcDbEntity
  8
PROFILES_OUTSIDE
100
AcDbLine
 10
1960.8682800697
 20
1037.5492622726
 30
0.0
 11
1960.8682800697
 21
1035.5254439124
 31
0.0
  0
LINE
  5
27E
330
1F
100
AcDbEntity
  8
PROFILES_OUTSIDE
100
AcDbLine
 10
2098.8682800697
 20
1037.5492622726
 30
0.0
 11
1960.8682800697
 21
1037.5492622726
 31
0.0
  0
LINE
  5
27F
330
1F
100
AcDbEntity
  8
PROFILES_OUTSIDE
100
AcDbLine
 10
2110.8682800697
 20
889.5499289393
 30
0.0
 11
2110.8682800697
 21
1025.5492622726
 31
0.0
  0
LINE
  5
280
330
1F
100
AcDbEntity
  8
PROFILES_OUTSIDE
100
AcDbLine
 10
2148.8682800697
 20
877.5499289393
 30
0.0
 11
2122.8682800697
 21
877.5499289393
 31
0.0
  0
LINE
  5
281
330
1F
100
AcDbEntity
  8
PROFILES_OUTSIDE
100
AcDbLine
 10
2160.8682800697
 20
1025.5492622726
 30
0.0
 11
2160.8682800697
 21
889.5499289393
 31
0.0
  0
LINE
  5
282
330
1F
100
AcDbEntity
  8
PROFILES_OUTSIDE
100
AcDbLine
 10
2310.8682800697
 20
1037.5492622726
 30
0.0
 11
2172.8682800697
 21
1037.5492622726
 31
0.0
  0
LINE
  5
283
330
1F
100
AcDbEntity
  8
PROFILES_OUTSIDE
100
AcDbLine
 10
2310.8682800697
 20
1035.5254439124
 30
0.0
 11
2310.8682800697
 21
1037.5492622726
 31
0.0
  0
LINE
  5
284
330
1F
100
AcDbEntity
  8
PROFILES_OUTSIDE
100
AcDbLine
 10
2328.2702341626
 20
1025.0472622726
 30
0.0
 11
2314.3305584531
 21
1025.0472622726
 31
0.0
  0
LINE
  5
285
330
1F
100
AcDbEntity
  8
PROFILES_OUTSIDE
100
AcDbLine
 10
2329.6082800697
 20
1031.2972622726
 30
0.0
 11
2329.2681924326
 21
1025.9833929433
 31
0.0
  0
LINE
  5
286
330
1F
100
AcDbEntity
  8
PROFILES_OUTSIDE
100
AcDbLine
 10
2334.8682800697
 20
1031.2972622726
 30
0.0
 11
2329.6082800697
 21
1031.2972622726
 31
0.0
  0
LINE
  5
287
330
1F
100
AcDbEntity
  8
PROFILES_OUTSIDE
100
AcDbLine
 10
2335.8682800697
 20
1018.5472622726
 30
0.0
 11
2335.8682800697
 21
1030.2972622726
 31
0.0
  0
LINE
  5
288
330
1F
100
AcDbEntity
  8
PROFILES_OUTSIDE
100
AcDbLine
 10
2191.9182800697
 20
1012.5472622726
 30
0.0
 11
2329.8682800697
 21
1012.5472622726
 31
0.0
  0
LINE
  5
289
330
1F
100
AcDbEntity
  8
PROFILES_OUTSIDE
100
AcDbLine
 10
2179.9182800697
 20
877.5499289393
 30
0.0
 11
2179.9182800697
 21
1000.5472622726
 31
0.0
  0
LINE
  5
28A
330
1F
100
AcDbEntity
  8
PROFILES_OUTSIDE
100
AcDbLine
 10
2160.8682800697
 20
762.5461634902
 30
0.0
 11
2160.8682800697
 21
844.5543610551
 31
0.0
  0
LINE
  5
28B
330
1F
100
AcDbEntity
  8
PROFILES_OUTSIDE
100
AcDbLine
 10
2179.9182800697
 20
606.5532622726
 30
0.0
 11
2179.9182800697
 21
729.550595606
 31
0.0
  0
LINE
  5
28C
330
1F
100
AcDbEntity
  8
PROFILES_OUTSIDE
100
AcDbLine
 10
2329.8682800697
 20
594.5532622726
 30
0.0
 11
2191.9182800697
 21
594.5532622726
 31
0.0
  0
LINE
  5
28D
330
1F
100
AcDbEntity
  8
PROFILES_OUTSIDE
100
AcDbLine
 10
2335.8682800697
 20
576.8032622726
 30
0.0
 11
2335.8682800697
 21
588.5532622726
 31
0.0
  0
LINE
  5
28E
330
1F
100
AcDbEntity
  8
PROFILES_OUTSIDE
100
AcDbLine
 10
2329.6082800697
 20
575.8032622726
 30
0.0
 11
2334.8682800697
 21
575.8032622726
 31
0.0
  0
LINE
  5
28F
330
1F
100
AcDbEntity
  8
PROFILES_OUTSIDE
100
AcDbLine
 10
2329.2681924326
 20
581.1171316019
 30
0.0
 11
2329.6082800697
 21
575.8032622726
 31
0.0
  0
LINE
  5
290
330
1F
100
AcDbEntity
  8
PROFILES_OUTSIDE
100
AcDbLine
 10
2314.3305584531
 20
582.0532622726
 30
0.0
 11
2328.2702341626
 21
582.0532622726
 31
0.0
  0
LINE
  5
291
330
1F
100
AcDbEntity
  8
PROFILES_OUTSIDE
100
AcDbLine
 10
2310.8682800697
 20
569.5512622726
 30
0.0
 11
2310.8682800697
 21
571.5750806329
 31
0.0
  0
LINE
  5
292
330
1F
100
AcDbEntity
  8
PROFILES_OUTSIDE
100
AcDbLine
 10
2172.8682800697
 20
569.5512622726
 30
0.0
 11
2310.8682800697
 21
569.5512622726
 31
0.0
  0
LINE
  5
293
330
1F
100
AcDbEntity
  8
PROFILES_OUTSIDE
100
AcDbLine
 10
2160.8682800697
 20
717.550595606
 30
0.0
 11
2160.8682800697
 21
581.5512622726
 31
0.0
  0
LINE
  5
294
330
1F
100
AcDbEntity
  8
PROFILES_OUTSIDE
100
AcDbLine
 10
2122.8682800697
 20
729.550595606
 30
0.0
 11
2148.8682800697
 21
729.550595606
 31
0.0
  0
LINE
  5
295
330
1F
100
AcDbEntity
  8
PROFILES_OUTSIDE
100
AcDbLine
 10
2110.8682800697
 20
581.5512622726
 30
0.0
 11
2110.8682800697
 21
717.550595606
 31
0.0
  0
LINE
  5
296
330
1F
100
AcDbEntity
  8
PROFILES_OUTSIDE
100
AcDbLine
 10
1960.8682800697
 20
569.5512622726
 30
0.0
 11
2098.8682800697
 21
569.5512622726
 31
0.0
  0
LINE
  5
297
330
1F
100
AcDbEntity
  8
PROFILES_OUTSIDE
100
AcDbLine
 10
1960.8682800697
 20
571.5750806329
 30
0.0
 11
1960.8682800697
 21
569.5512622726
 31
0.0
  0
LINE
  5
298
330
1F
100
AcDbEntity
  8
PROFILES_OUTSIDE
100
AcDbLine
 10
1943.4663259768
 20
582.0532622726
 30
0.0
 11
1957.4060016863
 21
582.0532622726
 31
0.0
  0
LINE
  5
299
330
1F
100
AcDbEntity
  8
PROFILES_OUTSIDE
100
AcDbLine
 10
1942.1282800697
 20
575.8032622726
 30
0.0
 11
1942.4683677068
 21
581.1171316019
 31
0.0
  0
LINE
  5
29A
330
1F
100
AcDbEntity
  8
PROFILES_OUTSIDE
100
AcDbLine
 10
1936.8682800697
 20
575.8032622726
 30
0.0
 11
1942.1282800697
 21
575.8032622726
 31
0.0
  0
LINE
  5
29B
330
1F
100
AcDbEntity
  8
PROFILES_OUTSIDE
100
AcDbLine
 10
1935.8682800697
 20
588.5532622726
 30
0.0
 11
1935.8682800697
 21
576.8032622726
 31
0.0
  0
LINE
  5
29C
330
1F
100
AcDbEntity
  8
PROFILES_OUTSIDE
100
AcDbLine
 10
2079.8182800697
 20
594.5532622726
 30
0.0
 11
1941.8682800697
 21
594.5532622726
 31
0.0
  0
LINE
  5
29D
330
1F
100
AcDbEntity
  8
PROFILES_OUTSIDE
100
AcDbLine
 10
2091.8182800697
 20
729.550595606
 30
0.0
 11
2091.8182800697
 21
606.5532622726
 31
0.0
  0
LINE
  5
29E
330
1F
100
AcDbEntity
  8
PROFILES_OUTSIDE
100
AcDbLine
 10
2110.8682800697
 20
844.5543610551
 30
0.0
 11
2110.8682800697
 21
762.5461634902
 31
0.0
  0
LINE
  5
29F
330
1F
100
AcDbEntity
  8
PROFILES_OUTSIDE
100
AcDbLine
 10
2091.8182800697
 20
1000.5472622726
 30
0.0
 11
2091.8182800697
 21
877.5499289393
 31
0.0
  0
LINE
  5
2A0
330
1F
100
AcDbEntity
  8
PROFILES_OUTSIDE
100
AcDbLine
 10
1941.8682800697
 20
1012.5472622726
 30
0.0
 11
2079.8182800697
 21
1012.5472622726
 31
0.0
  0
LINE
  5
2A1
330
1F
100
AcDbEntity
  8
PROFILES_OUTSIDE
100
AcDbLine
 10
1935.8682800697
 20
1030.2972622726
 30
0.0
 11
1935.8682800697
 21
1018.5472622726
 31
0.0
  0
LINE
  5
2A2
330
1F
100
AcDbEntity
  8
POCKETS
100
AcDbLine
 10
534.2882800697
 20
81.4112622726
 30
0.0
 11
493.9482800697
 21
81.4112622726
 31
0.0
  0
LINE
  5
2A3
330
1F
100
AcDbEntity
  8
POCKETS
100
AcDbLine
 10
1033.4282800697
 20
1100.7312622726
 30
0.0
 11
1073.7682800697
 21
1100.7312622726
 31
0.0
  0
LINE
  5
2A4
330
1F
100
AcDbEntity
  8
POCKETS
100
AcDbLine
 10
1073.7682800697
 20
1100.7312622726
 30
0.0
 11
1083.7682800697
 21
1100.7312622726
 31
0.0
  0
LINE
  5
2A5
330
1F
100
AcDbEntity
  8
POCKETS
100
AcDbLine
 10
1083.7682800697
 20
1100.7312622726
 30
0.0
 11
1083.7682800697
 21
1119.4112622726
 31
0.0
  0
LINE
  5
2A6
330
1F
100
AcDbEntity
  8
POCKETS
100
AcDbLine
 10
1083.7682800697
 20
1119.4112622726
 30
0.0
 11
1073.7682800697
 21
1119.4112622726
 31
0.0
  0
LINE
  5
2A7
330
1F
100
AcDbEntity
  8
POCKETS
100
AcDbLine
 10
1073.7682800697
 20
1119.4112622726
 30
0.0
 11
565.0882800697
 21
1119.4112622726
 31
0.0
  0
LINE
  5
2A8
330
1F
100
AcDbEntity
  8
POCKETS
100
AcDbLine
 10
565.0882800697
 20
1119.4112622726
 30
0.0
 11
555.0882800697
 21
1119.4112622726
 31
0.0
  0
LINE
  5
2A9
330
1F
100
AcDbEntity
  8
POCKETS
100
AcDbLine
 10
555.0882800697
 20
1119.4112622726
 30
0.0
 11
555.0882800697
 21
1100.7312622726
 31
0.0
  0
LINE
  5
2AA
330
1F
100
AcDbEntity
  8
POCKETS
100
AcDbLine
 10
555.0882800697
 20
1100.7312622726
 30
0.0
 11
565.0882800697
 21
1100.7312622726
 31
0.0
  0
LINE
  5
2AB
330
1F
100
AcDbEntity
  8
POCKETS
100
AcDbLine
 10
565.0882800697
 20
1100.7312622726
 30
0.0
 11
1015.0882800697
 21
1100.7312622726
 31
0.0
  0
LINE
  5
2AC
330
1F
100
AcDbEntity
  8
POCKETS
100
AcDbLine
 10
1015.0882800697
 20
1100.7312622726
 30
0.0
 11
1015.0882800697
 21
81.4112622726
 31
0.0
  0
LINE
  5
2AD
330
1F
100
AcDbEntity
  8
POCKETS
100
AcDbLine
 10
1015.0882800697
 20
81.4112622726
 30
0.0
 11
565.0882800697
 21
81.4112622726
 31
0.0
  0
LINE
  5
2AE
330
1F
100
AcDbEntity
  8
POCKETS
100
AcDbLine
 10
565.0882800697
 20
81.4112622726
 30
0.0
 11
555.0882800697
 21
81.4112622726
 31
0.0
  0
LINE
  5
2AF
330
1F
100
AcDbEntity
  8
POCKETS
100
AcDbLine
 10
555.0882800697
 20
81.4112622726
 30
0.0
 11
555.0882800697
 21
62.7312622726
 31
0.0
  0
LINE
  5
2B0
330
1F
100
AcDbEntity
  8
POCKETS
100
AcDbLine
 10
555.0882800697
 20
62.7312622726
 30
0.0
 11
565.0882800697
 21
62.7312622726
 31
0.0
  0
LINE
  5
2B1
330
1F
100
AcDbEntity
  8
POCKETS
100
AcDbLine
 10
565.0882800697
 20
62.7312622726
 30
0.0
 11
1073.7682800697
 21
62.7312622726
 31
0.0
  0
LINE
  5
2B2
330
1F
100
AcDbEntity
  8
POCKETS
100
AcDbLine
 10
1073.7682800697
 20
62.7312622726
 30
0.0
 11
1083.7682800697
 21
62.7312622726
 31
0.0
  0
LINE
  5
2B3
330
1F
100
AcDbEntity
  8
POCKETS
100
AcDbLine
 10
1083.7682800697
 20
62.7312622726
 30
0.0
 11
1083.7682800697
 21
81.4112622726
 31
0.0
  0
LINE
  5
2B4
330
1F
100
AcDbEntity
  8
POCKETS
100
AcDbLine
 10
1083.7682800697
 20
81.4112622726
 30
0.0
 11
1073.7682800697
 21
81.4112622726
 31
0.0
  0
LINE
  5
2B5
330
1F
100
AcDbEntity
  8
POCKETS
100
AcDbLine
 10
1073.7682800697
 20
81.4112622726
 30
0.0
 11
1033.4282800697
 21
81.4112622726
 31
0.0
  0
LINE
  5
2B6
330
1F
100
AcDbEntity
  8
POCKETS
100
AcDbLine
 10
1033.4282800697
 20
81.4112622726
 30
0.0
 11
1033.4282800697
 21
1100.7312622726
 31
0.0
  0
LINE
  5
2B7
330
1F
100
AcDbEntity
  8
PROFILES_OUTSIDE
100
AcDbLine
 10
571.4282800697
 20
30.0712622726
 30
0.0
 11
1067.4282800697
 21
30.0712622726
 31
0.0
  0
ARC
  5
2B8
330
1F
100
AcDbEntity
  8
PROFILES_INSIDE
100
AcDbCircle
 10
521.9482800697
 20
875.673225193
 30
0.0
 40
6.00000000000009
100
AcDbArc
 50
280.0
 51
0.0
  0
ARC
  5
2B9
330
1F
100
AcDbEntity
  8
PROFILES_OUTSIDE
100
AcDbCircle
 10
1505.3882800697
 20
576.8012622726
 30
0.0
 40
1.000000000000114
100
AcDbArc
 50
180.0
 51
270.0
  0
ARC
  5
2BA
330
1F
100
AcDbEntity
  8
PROFILES_INSIDE
100
AcDbCircle
 10
495.7970973073
 20
1138.2412645424
 30
0.0
 40
0.9999999999999553
100
AcDbArc
 50
270.0000643223
 51
342.3995466116
  0
ARC
  5
2BB
330
1F
100
AcDbEntity
  8
PROFILES_INSIDE
100
AcDbCircle
 10
501.6782689645
 20
1136.375595778
 30
0.0
 40
5.169999999999987
100
AcDbArc
 50
335.1122182924
 51
162.3995466116
  0
ARC
  5
2BC
330
1F
100
AcDbEntity
  8
PROFILES_INSIDE
100
AcDbCircle
 10
507.2753265148
 20
1133.7789787648
 30
0.0
 40
1.000046445083782
100
AcDbArc
 50
155.1122182924
 51
180.0
  0
ARC
  5
2BD
330
1F
100
AcDbEntity
  8
PROFILES_INSIDE
100
AcDbCircle
 10
507.2752800697
 20
1122.3635457805
 30
0.0
 40
1.000000000000039
100
AcDbArc
 50
180.0
 51
204.887907172
  0
ARC
  5
2BE
330
1F
100
AcDbEntity
  8
PROFILES_INSIDE
100
AcDbCircle
 10
501.6782703373
 20
1119.7669360572
 30
0.0
 40
5.170000000000009
100
AcDbArc
 50
197.6004801833
 51
24.887907172
  0
ARC
  5
2BF
330
1F
100
AcDbEntity
  8
PROFILES_INSIDE
100
AcDbCircle
 10
495.7970995526
 20
1117.9012645424
 30
0.0
 40
0.9999999999999584
100
AcDbArc
 50
17.6004801833
 51
90.0000643223
  0
ARC
  5
2C0
330
1F
100
AcDbEntity
  8
PROFILES_INSIDE
100
AcDbCircle
 10
491.7534628321
 20
1117.9012600029
 30
0.0
 40
1.000000000000078
100
AcDbArc
 50
90.0000643223
 51
162.3995466116
  0
ARC
  5
2C1
330
1F
100
AcDbEntity
  8
PROFILES_INSIDE
100
AcDbCircle
 10
485.8722911749
 20
1119.7669287673
 30
0.0
 40
5.170000000000001
100
AcDbArc
 50
155.1121231192
 51
342.3995466116
  0
ARC
  5
2C2
330
1F
100
AcDbEntity
  8
PROFILES_INSIDE
100
AcDbCircle
 10
480.2752800697
 20
1122.3635355316
 30
0.0
 40
1.000000000000127
100
AcDbArc
 50
335.1121231192
 51
0.0
  0
ARC
  5
2C3
330
1F
100
AcDbEntity
  8
PROFILES_INSIDE
100
AcDbCircle
 10
480.2752800697
 20
1133.7789890137
 30
0.0
 40
0.9999981929289561
100
AcDbArc
 50
0.0
 51
24.8878208368
  0
ARC
  5
2C4
330
1F
100
AcDbEntity
  8
PROFILES_INSIDE
100
AcDbCircle
 10
485.8722898021
 20
1136.3755884881
 30
0.0
 40
5.169998277035402
100
AcDbArc
 50
17.6004801833
 51
204.8878208368
  0
ARC
  5
2C5
330
1F
100
AcDbEntity
  8
PROFILES_INSIDE
100
AcDbCircle
 10
491.7534605868
 20
1138.2412600029
 30
0.0
 40
1.000001722964674
100
AcDbArc
 50
197.6004801833
 51
270.0000643223
  0
ARC
  5
2C6
330
1F
100
AcDbEntity
  8
PROFILES_INSIDE
100
AcDbCircle
 10
89.2813265148
 20
1133.7789787648
 30
0.0
 40
1.000046445083669
100
AcDbArc
 50
155.1122182924
 51
180.0
  0
ARC
  5
2C7
330
1F
100
AcDbEntity
  8
PROFILES_INSIDE
100
AcDbCircle
 10
83.6842689645
 20
1136.375595778
 30
0.0
 40
5.170000000000043
100
AcDbArc
 50
335.1122182924
 51
162.3995466116
  0
ARC
  5
2C8
330
1F
100
AcDbEntity
  8
PROFILES_INSIDE
100
AcDbCircle
 10
77.8030973073
 20
1138.2412645424
 30
0.0
 40
1.000000000000077
100
AcDbArc
 50
270.0000643223
 51
342.3995466116
  0
ARC
  5
2C9
330
1F
100
AcDbEntity
  8
PROFILES_INSIDE
100
AcDbCircle
 10
73.7594605868
 20
1138.2412600029
 30
0.0
 40
1.000000939798748
100
AcDbArc
 50
197.6004801833
 51
270.0000643223
  0
ARC
  5
2CA
330
1F
100
AcDbEntity
  8
PROFILES_INSIDE
100
AcDbCircle
 10
67.8782898021
 20
1136.3755884881
 30
0.0
 40
5.169999060201246
100
AcDbArc
 50
17.6004801833
 51
204.8878208368
  0
ARC
  5
2CB
330
1F
100
AcDbEntity
  8
PROFILES_INSIDE
100
AcDbCircle
 10
62.2812800697
 20
1133.7789890137
 30
0.0
 40
0.9999980362957999
100
AcDbArc
 50
0.0
 51
24.8878208368
  0
ARC
  5
2CC
330
1F
100
AcDbEntity
  8
PROFILES_INSIDE
100
AcDbCircle
 10
62.2812800697
 20
1122.3635355316
 30
0.0
 40
1.000000000000114
100
AcDbArc
 50
335.1121231192
 51
0.0
  0
ARC
  5
2CD
330
1F
100
AcDbEntity
  8
PROFILES_INSIDE
100
AcDbCircle
 10
67.8782911749
 20
1119.7669287673
 30
0.0
 40
5.170000000000015
100
AcDbArc
 50
155.1121231192
 51
342.3995466116
  0
ARC
  5
2CE
330
1F
100
AcDbEntity
  8
PROFILES_INSIDE
100
AcDbCircle
 10
73.7594628321
 20
1117.9012600029
 30
0.0
 40
0.9999999999999688
100
AcDbArc
 50
90.0000643223
 51
162.3995466116
  0
ARC
  5
2CF
330
1F
100
AcDbEntity
  8
PROFILES_INSIDE
100
AcDbCircle
 10
77.8030995526
 20
1117.9012645424
 30
0.0
 40
0.9999999999999979
100
AcDbArc
 50
17.6004801833
 51
90.0000643223
  0
ARC
  5
2D0
330
1F
100
AcDbEntity
  8
PROFILES_INSIDE
100
AcDbCircle
 10
83.6842703373
 20
1119.7669360572
 30
0.0
 40
5.169999999999967
100
AcDbArc
 50
197.6004801833
 51
24.887907172
  0
ARC
  5
2D1
330
1F
100
AcDbEntity
  8
PROFILES_INSIDE
100
AcDbCircle
 10
89.2812800697
 20
1122.3635457805
 30
0.0
 40
1.000000000000114
100
AcDbArc
 50
180.0
 51
204.887907172
  0
ARC
  5
2D2
330
1F
100
AcDbEntity
  8
PROFILES_INSIDE
100
AcDbCircle
 10
501.6782703373
 20
45.7669360572
 30
0.0
 40
5.169999999999978
100
AcDbArc
 50
197.6004801833
 51
24.887907172
  0
ARC
  5
2D3
330
1F
100
AcDbEntity
  8
PROFILES_INSIDE
100
AcDbCircle
 10
507.2752800697
 20
48.3635457805
 30
0.0
 40
1.000000000000085
100
AcDbArc
 50
180.0
 51
204.887907172
  0
ARC
  5
2D4
330
1F
100
AcDbEntity
  8
PROFILES_INSIDE
100
AcDbCircle
 10
507.2753265148
 20
59.7789787648
 30
0.0
 40
1.000046445083643
100
AcDbArc
 50
155.1122182924
 51
180.0
  0
ARC
  5
2D5
330
1F
100
AcDbEntity
  8
PROFILES_INSIDE
100
AcDbCircle
 10
501.6782689645
 20
62.375595778
 30
0.0
 40
5.170000000000066
100
AcDbArc
 50
335.1122182924
 51
162.3995466116
  0
ARC
  5
2D6
330
1F
100
AcDbEntity
  8
PROFILES_INSIDE
100
AcDbCircle
 10
495.7970973073
 20
64.2412645424
 30
0.0
 40
1.000000000000076
100
AcDbArc
 50
270.0000643223
 51
342.3995466116
  0
ARC
  5
2D7
330
1F
100
AcDbEntity
  8
PROFILES_INSIDE
100
AcDbCircle
 10
491.7534605868
 20
64.2412600029
 30
0.0
 40
1.000000783165754
100
AcDbArc
 50
197.6004801833
 51
270.0000643223
  0
ARC
  5
2D8
330
1F
100
AcDbEntity
  8
PROFILES_INSIDE
100
AcDbCircle
 10
485.8722898021
 20
62.3755884881
 30
0.0
 40
5.169999216834222
100
AcDbArc
 50
17.6004801833
 51
204.8878208368
  0
ARC
  5
2D9
330
1F
100
AcDbEntity
  8
PROFILES_INSIDE
100
AcDbCircle
 10
480.2752800697
 20
59.7789890137
 30
0.0
 40
0.9999978796627715
100
AcDbArc
 50
0.0
 51
24.8878208368
  0
ARC
  5
2DA
330
1F
100
AcDbEntity
  8
PROFILES_INSIDE
100
AcDbCircle
 10
480.2752800697
 20
48.3635355316
 30
0.0
 40
1.00000000000002
100
AcDbArc
 50
335.1121231192
 51
0.0
  0
ARC
  5
2DB
330
1F
100
AcDbEntity
  8
PROFILES_INSIDE
100
AcDbCircle
 10
485.8722911749
 20
45.7669287673
 30
0.0
 40
5.170000000000049
100
AcDbArc
 50
155.1121231192
 51
342.3995466116
  0
ARC
  5
2DC
330
1F
100
AcDbEntity
  8
PROFILES_INSIDE
100
AcDbCircle
 10
491.7534628321
 20
43.9012600029
 30
0.0
 40
0.999999999999908
100
AcDbArc
 50
90.0000643223
 51
162.3995466116
  0
ARC
  5
2DD
330
1F
100
AcDbEntity
  8
PROFILES_INSIDE
100
AcDbCircle
 10
495.7970995526
 20
43.9012645424
 30
0.0
 40
1.000000000000082
100
AcDbArc
 50
17.6004801833
 51
90.0000643223
  0
ARC
  5
2DE
330
1F
100
AcDbEntity
  8
PROFILES_INSIDE
100
AcDbCircle
 10
62.2812800697
 20
48.3635355316
 30
0.0
 40
1.000000000000083
100
AcDbArc
 50
335.1121231192
 51
0.0
  0
ARC
  5
2DF
330
1F
100
AcDbEntity
  8
PROFILES_INSIDE
100
AcDbCircle
 10
67.8782911749
 20
45.7669287673
 30
0.0
 40
5.170000000000026
100
AcDbArc
 50
155.1121231192
 51
342.3995466116
  0
ARC
  5
2E0
330
1F
100
AcDbEntity
  8
PROFILES_INSIDE
100
AcDbCircle
 10
73.7594628321
 20
43.9012600029
 30
0.0
 40
0.9999999999999215
100
AcDbArc
 50
90.0000643223
 51
162.3995466116
  0
ARC
  5
2E1
330
1F
100
AcDbEntity
  8
PROFILES_INSIDE
100
AcDbCircle
 10
77.8030995526
 20
43.9012645424
 30
0.0
 40
1.000000000000082
100
AcDbArc
 50
17.6004801833
 51
90.0000643223
  0
ARC
  5
2E2
330
1F
100
AcDbEntity
  8
PROFILES_INSIDE
100
AcDbCircle
 10
83.6842703373
 20
45.7669360572
 30
0.0
 40
5.169999999999991
100
AcDbArc
 50
197.6004801833
 51
24.887907172
  0
ARC
  5
2E3
330
1F
100
AcDbEntity
  8
PROFILES_INSIDE
100
AcDbCircle
 10
89.2812800697
 20
48.3635457805
 30
0.0
 40
1.000000000000047
100
AcDbArc
 50
180.0
 51
204.887907172
  0
ARC
  5
2E4
330
1F
100
AcDbEntity
  8
PROFILES_INSIDE
100
AcDbCircle
 10
89.2813265148
 20
59.7789787648
 30
0.0
 40
1.000046445083669
100
AcDbArc
 50
155.1122182924
 51
180.0
  0
ARC
  5
2E5
330
1F
100
AcDbEntity
  8
PROFILES_INSIDE
100
AcDbCircle
 10
83.6842689645
 20
62.375595778
 30
0.0
 40
5.170000000000026
100
AcDbArc
 50
335.1122182924
 51
162.3995466116
  0
ARC
  5
2E6
330
1F
100
AcDbEntity
  8
PROFILES_INSIDE
100
AcDbCircle
 10
77.8030973073
 20
64.2412645424
 30
0.0
 40
1.000000000000097
100
AcDbArc
 50
270.0000643223
 51
342.3995466116
  0
ARC
  5
2E7
330
1F
100
AcDbEntity
  8
PROFILES_INSIDE
100
AcDbCircle
 10
73.7594605868
 20
64.2412600029
 30
0.0
 40
1.000000156633191
100
AcDbArc
 50
197.6004801833
 51
270.0000643223
  0
ARC
  5
2E8
330
1F
100
AcDbEntity
  8
PROFILES_INSIDE
100
AcDbCircle
 10
67.8782898021
 20
62.3755884881
 30
0.0
 40
5.169999843366812
100
AcDbArc
 50
17.6004801833
 51
204.8878208368
  0
ARC
  5
2E9
330
1F
100
AcDbEntity
  8
PROFILES_INSIDE
100
AcDbCircle
 10
62.2812800697
 20
59.7789890137
 30
0.0
 40
0.999998192928949
100
AcDbArc
 50
0.0
 51
24.8878208368
  0
ARC
  5
2EA
330
1F
100
AcDbEntity
  8
PROFILES_INSIDE
100
AcDbCircle
 10
1035.2770973073
 20
1138.2412645424
 30
0.0
 40
1.000000000000295
100
AcDbArc
 50
270.0000643223
 51
342.3995466116
  0
ARC
  5
2EB
330
1F
100
AcDbEntity
  8
PROFILES_INSIDE
100
AcDbCircle
 10
1041.1582689645
 20
1136.375595778
 30
0.0
 40
5.170000000000019
100
AcDbArc
 50
335.1122182924
 51
162.3995466116
  0
ARC
  5
2EC
330
1F
100
AcDbEntity
  8
PROFILES_INSIDE
100
AcDbCircle
 10
1046.7553265148
 20
1133.7789787648
 30
0.0
 40
1.000046445083679
100
AcDbArc
 50
155.1122182924
 51
180.0
  0
ARC
  5
2ED
330
1F
100
AcDbEntity
  8
PROFILES_INSIDE
100
AcDbCircle
 10
1046.7552800697
 20
1122.3635457805
 30
0.0
 40
0.9999999999998916
100
AcDbArc
 50
180.0
 51
204.887907172
  0
ARC
  5
2EE
330
1F
100
AcDbEntity
  8
PROFILES_INSIDE
100
AcDbCircle
 10
1041.1582703373
 20
1119.7669360572
 30
0.0
 40
5.170000000000334
100
AcDbArc
 50
197.6004801833
 51
24.887907172
  0
ARC
  5
2EF
330
1F
100
AcDbEntity
  8
PROFILES_INSIDE
100
AcDbCircle
 10
1035.2770995526
 20
1117.9012645424
 30
0.0
 40
1.000000000000175
100
AcDbArc
 50
17.6004801833
 51
90.0000643223
  0
ARC
  5
2F0
330
1F
100
AcDbEntity
  8
PROFILES_INSIDE
100
AcDbCircle
 10
1031.2334628321
 20
1117.9012600029
 30
0.0
 40
0.999999999999948
100
AcDbArc
 50
90.0000643223
 51
162.3995466116
  0
ARC
  5
2F1
330
1F
100
AcDbEntity
  8
PROFILES_INSIDE
100
AcDbCircle
 10
1025.3522911749
 20
1119.7669287673
 30
0.0
 40
5.170000000000326
100
AcDbArc
 50
155.1121231192
 51
342.3995466116
  0
ARC
  5
2F2
330
1F
100
AcDbEntity
  8
PROFILES_INSIDE
100
AcDbCircle
 10
1019.7552800697
 20
1122.3635355316
 30
0.0
 40
1.000000000000024
100
AcDbArc
 50
335.1121231192
 51
0.0
  0
ARC
  5
2F3
330
1F
100
AcDbEntity
  8
PROFILES_INSIDE
100
AcDbCircle
 10
1019.7552800697
 20
1133.7789890137
 30
0.0
 40
0.9999981929289561
100
AcDbArc
 50
0.0
 51
24.8878208368
  0
ARC
  5
2F4
330
1F
100
AcDbEntity
  8
PROFILES_INSIDE
100
AcDbCircle
 10
1025.3522898021
 20
1136.3755884881
 30
0.0
 40
5.169998277035579
100
AcDbArc
 50
17.6004801833
 51
204.8878208368
  0
ARC
  5
2F5
330
1F
100
AcDbEntity
  8
PROFILES_INSIDE
100
AcDbCircle
 10
1031.2334605868
 20
1138.2412600029
 30
0.0
 40
1.000001722964497
100
AcDbArc
 50
197.6004801833
 51
270.0000643223
  0
ARC
  5
2F6
330
1F
100
AcDbEntity
  8
PROFILES_INSIDE
100
AcDbCircle
 10
628.9059265148
 20
1133.7789787648
 30
0.0
 40
1.00004644508374
100
AcDbArc
 50
155.1122182924
 51
180.0
  0
ARC
  5
2F7
330
1F
100
AcDbEntity
  8
PROFILES_INSIDE
100
AcDbCircle
 10
623.3088689645
 20
1136.375595778
 30
0.0
 40
5.170000000000109
100
AcDbArc
 50
335.1122182924
 51
162.3995466116
  0
ARC
  5
2F8
330
1F
100
AcDbEntity
  8
PROFILES_INSIDE
100
AcDbCircle
 10
617.4276973073
 20
1138.2412645424
 30
0.0
 40
1.000000000000175
100
AcDbArc
 50
270.0000643223
 51
342.3995466116
  0
ARC
  5
2F9
330
1F
100
AcDbEntity
  8
PROFILES_INSIDE
100
AcDbCircle
 10
613.3840605868
 20
1138.2412600029
 30
0.0
 40
1.000000939799004
100
AcDbArc
 50
197.6004801833
 51
270.0000643223
  0
ARC
  5
2FA
330
1F
100
AcDbEntity
  8
PROFILES_INSIDE
100
AcDbCircle
 10
607.5028898021
 20
1136.3755884881
 30
0.0
 40
5.169999060201071
100
AcDbArc
 50
17.6004801833
 51
204.8878208368
  0
ARC
  5
2FB
330
1F
100
AcDbEntity
  8
PROFILES_INSIDE
100
AcDbCircle
 10
601.9058800697
 20
1133.7789890137
 30
0.0
 40
0.9999980362957785
100
AcDbArc
 50
0.0
 51
24.8878208368
  0
ARC
  5
2FC
330
1F
100
AcDbEntity
  8
PROFILES_INSIDE
100
AcDbCircle
 10
601.9058800697
 20
1122.3635355316
 30
0.0
 40
0.9999999999999283
100
AcDbArc
 50
335.1121231192
 51
0.0
  0
ARC
  5
2FD
330
1F
100
AcDbEntity
  8
PROFILES_INSIDE
100
AcDbCircle
 10
607.5028911749
 20
1119.7669287673
 30
0.0
 40
5.170000000000117
100
AcDbArc
 50
155.1121231192
 51
342.3995466116
  0
ARC
  5
2FE
330
1F
100
AcDbEntity
  8
PROFILES_INSIDE
100
AcDbCircle
 10
613.3840628321
 20
1117.9012600029
 30
0.0
 40
0.999999999999948
100
AcDbArc
 50
90.0000643223
 51
162.3995466116
  0
ARC
  5
2FF
330
1F
100
AcDbEntity
  8
PROFILES_INSIDE
100
AcDbCircle
 10
617.4276995526
 20
1117.9012645424
 30
0.0
 40
1.000000000000175
100
AcDbArc
 50
17.6004801833
 51
90.0000643223
  0
ARC
  5
300
330
1F
100
AcDbEntity
  8
PROFILES_INSIDE
100
AcDbCircle
 10
623.3088703373
 20
1119.7669360572
 30
0.0
 40
5.170000000000057
100
AcDbArc
 50
197.6004801833
 51
24.887907172
  0
ARC
  5
301
330
1F
100
AcDbEntity
  8
PROFILES_INSIDE
100
AcDbCircle
 10
628.9058800697
 20
1122.3635457805
 30
0.0
 40
1.0
100
AcDbArc
 50
180.0
 51
204.887907172
  0
ARC
  5
302
330
1F
100
AcDbEntity
  8
PROFILES_INSIDE
100
AcDbCircle
 10
1041.1582703373
 20
45.7669360572
 30
0.0
 40
5.170000000000114
100
AcDbArc
 50
197.6004801833
 51
24.887907172
  0
ARC
  5
303
330
1F
100
AcDbEntity
  8
PROFILES_INSIDE
100
AcDbCircle
 10
1046.7552800697
 20
48.3635457805
 30
0.0
 40
0.9999999999999276
100
AcDbArc
 50
180.0
 51
204.887907172
  0
ARC
  5
304
330
1F
100
AcDbEntity
  8
PROFILES_INSIDE
100
AcDbCircle
 10
1046.7553265148
 20
59.7789787648
 30
0.0
 40
1.000046445083691
100
AcDbArc
 50
155.1122182924
 51
180.0
  0
ARC
  5
305
330
1F
100
AcDbEntity
  8
PROFILES_INSIDE
100
AcDbCircle
 10
1041.1582689645
 20
62.375595778
 30
0.0
 40
5.17000000000012
100
AcDbArc
 50
335.1122182924
 51
162.3995466116
  0
ARC
  5
306
330
1F
100
AcDbEntity
  8
PROFILES_INSIDE
100
AcDbCircle
 10
1035.2770973073
 20
64.2412645424
 30
0.0
 40
1.000000000000243
100
AcDbArc
 50
270.0000643223
 51
342.3995466116
  0
ARC
  5
307
330
1F
100
AcDbEntity
  8
PROFILES_INSIDE
100
AcDbCircle
 10
1031.2334605868
 20
64.2412600029
 30
0.0
 40
1.000000783165791
100
AcDbArc
 50
197.6004801833
 51
270.0000643223
  0
ARC
  5
308
330
1F
100
AcDbEntity
  8
PROFILES_INSIDE
100
AcDbCircle
 10
1025.3522898021
 20
62.3755884881
 30
0.0
 40
5.169999216834281
100
AcDbArc
 50
17.6004801833
 51
204.8878208368
  0
ARC
  5
309
330
1F
100
AcDbEntity
  8
PROFILES_INSIDE
100
AcDbCircle
 10
1019.7552800697
 20
59.7789890137
 30
0.0
 40
0.999997879662601
100
AcDbArc
 50
0.0
 51
24.8878208368
  0
ARC
  5
30A
330
1F
100
AcDbEntity
  8
PROFILES_INSIDE
100
AcDbCircle
 10
1019.7552800697
 20
48.3635355316
 30
0.0
 40
0.9999999999999641
100
AcDbArc
 50
335.1121231192
 51
0.0
  0
ARC
  5
30B
330
1F
100
AcDbEntity
  8
PROFILES_INSIDE
100
AcDbCircle
 10
1025.3522911749
 20
45.7669287673
 30
0.0
 40
5.170000000000051
100
AcDbArc
 50
155.1121231192
 51
342.3995466116
  0
ARC
  5
30C
330
1F
100
AcDbEntity
  8
PROFILES_INSIDE
100
AcDbCircle
 10
1031.2334628321
 20
43.9012600029
 30
0.0
 40
0.9999999999999623
100
AcDbArc
 50
90.0000643223
 51
162.3995466116
  0
ARC
  5
30D
330
1F
100
AcDbEntity
  8
PROFILES_INSIDE
100
AcDbCircle
 10
1035.2770995526
 20
43.9012645424
 30
0.0
 40
1.000000000000076
100
AcDbArc
 50
17.6004801833
 51
90.0000643223
  0
ARC
  5
30E
330
1F
100
AcDbEntity
  8
PROFILES_INSIDE
100
AcDbCircle
 10
601.9058800697
 20
48.3635355316
 30
0.0
 40
1.000000000000022
100
AcDbArc
 50
335.1121231192
 51
0.0
  0
ARC
  5
30F
330
1F
100
AcDbEntity
  8
PROFILES_INSIDE
100
AcDbCircle
 10
607.5028911749
 20
45.7669287673
 30
0.0
 40
5.170000000000045
100
AcDbArc
 50
155.1121231192
 51
342.3995466116
  0
ARC
  5
310
330
1F
100
AcDbEntity
  8
PROFILES_INSIDE
100
AcDbCircle
 10
613.3840628321
 20
43.9012600029
 30
0.0
 40
1.000000000000076
100
AcDbArc
 50
90.0000643223
 51
162.3995466116
  0
ARC
  5
311
330
1F
100
AcDbEntity
  8
PROFILES_INSIDE
100
AcDbCircle
 10
617.4276995526
 20
43.9012645424
 30
0.0
 40
1.000000000000082
100
AcDbArc
 50
17.6004801833
 51
90.0000643223
  0
ARC
  5
312
330
1F
100
AcDbEntity
  8
PROFILES_INSIDE
100
AcDbCircle
 10
623.3088703373
 20
45.7669360572
 30
0.0
 40
5.170000000000034
100
AcDbArc
 50
197.6004801833
 51
24.887907172
  0
ARC
  5
313
330
1F
100
AcDbEntity
  8
PROFILES_INSIDE
100
AcDbCircle
 10
628.9058800697
 20
48.3635457805
 30
0.0
 40
1.000000000000114
100
AcDbArc
 50
180.0
 51
204.887907172
  0
ARC
  5
314
330
1F
100
AcDbEntity
  8
PROFILES_INSIDE
100
AcDbCircle
 10
628.9059265148
 20
59.7789787648
 30
0.0
 40
1.00004644508374
100
AcDbArc
 50
155.1122182924
 51
180.0
  0
ARC
  5
315
330
1F
100
AcDbEntity
  8
PROFILES_INSIDE
100
AcDbCircle
 10
623.3088689645
 20
62.375595778
 30
0.0
 40
5.170000000000071
100
AcDbArc
 50
335.1122182924
 51
162.3995466116
  0
ARC
  5
316
330
1F
100
AcDbEntity
  8
PROFILES_INSIDE
100
AcDbCircle
 10
617.4276973073
 20
64.2412645424
 30
0.0
 40
1.000000000000027
100
AcDbArc
 50
270.0000643223
 51
342.3995466116
  0
ARC
  5
317
330
1F
100
AcDbEntity
  8
PROFILES_INSIDE
100
AcDbCircle
 10
613.3840605868
 20
64.2412600029
 30
0.0
 40
1.000000156633094
100
AcDbArc
 50
197.6004801833
 51
270.0000643223
  0
ARC
  5
318
330
1F
100
AcDbEntity
  8
PROFILES_INSIDE
100
AcDbCircle
 10
607.5028898021
 20
62.3755884881
 30
0.0
 40
5.169999843366996
100
AcDbArc
 50
17.6004801833
 51
204.8878208368
  0
ARC
  5
319
330
1F
100
AcDbEntity
  8
PROFILES_INSIDE
100
AcDbCircle
 10
601.9058800697
 20
59.7789890137
 30
0.0
 40
0.9999981929289561
100
AcDbArc
 50
0.0
 51
24.8878208368
  0
ARC
  5
31A
330
1F
100
AcDbEntity
  8
PROFILES_OUTSIDE
100
AcDbCircle
 10
571.4282800697
 20
1146.0712622726
 30
0.0
 40
6.0
100
AcDbArc
 50
90.0
 51
180.0
  0
ARC
  5
31B
330
1F
100
AcDbEntity
  8
PROFILES_OUTSIDE
100
AcDbCircle
 10
1067.4282800697
 20
1146.0712622726
 30
0.0
 40
6.000000000000227
100
AcDbArc
 50
0.0
 51
90.0
  0
ARC
  5
31C
330
1F
100
AcDbEntity
  8
PROFILES_OUTSIDE
100
AcDbCircle
 10
1067.4282800697
 20
36.0712622726
 30
0.0
 40
6.000000000000004
100
AcDbArc
 50
270.0
 51
0.0
  0
ARC
  5
31D
330
1F
100
AcDbEntity
  8
PROFILES_OUTSIDE
100
AcDbCircle
 10
571.4282800697
 20
36.0712622726
 30
0.0
 40
6.000000000000004
100
AcDbArc
 50
180.0
 51
270.0
  0
ARC
  5
31E
330
1F
100
AcDbEntity
  8
PROFILES_OUTSIDE
100
AcDbCircle
 10
1648.3382800697
 20
606.5512622726
 30
0.0
 40
12.00000000000023
100
AcDbArc
 50
270.0
 51
0.0
  0
ARC
  5
31F
330
1F
100
AcDbEntity
  8
PROFILES_OUTSIDE
100
AcDbCircle
 10
1648.3382800697
 20
1000.5452622726
 30
0.0
 40
12.00000000000023
100
AcDbArc
 50
0.0
 51
90.0
  0
ARC
  5
320
330
1F
100
AcDbEntity
  8
PROFILES_OUTSIDE
100
AcDbCircle
 10
1505.3882800697
 20
1030.2952622726
 30
0.0
 40
1.0
100
AcDbArc
 50
90.0
 51
180.0
  0
ARC
  5
321
330
1F
100
AcDbEntity
  8
PROFILES_OUTSIDE
100
AcDbCircle
 10
1896.7902341626
 20
581.0512622726
 30
0.0
 40
1.000000000000156
100
AcDbArc
 50
3.6619355755
 51
90.0
  0
ARC
  5
322
330
1F
100
AcDbEntity
  8
PROFILES_OUTSIDE
100
AcDbCircle
 10
1882.8505584531
 20
583.0512622726
 30
0.0
 40
1.0
100
AcDbArc
 50
245.1121079736
 51
270.0
  0
ARC
  5
323
330
1F
100
AcDbEntity
  8
PROFILES_OUTSIDE
100
AcDbCircle
 10
1880.2539502093
 20
577.4542518538
 30
0.0
 40
5.170000000000036
100
AcDbArc
 50
65.1121079736
 51
252.3995332141
  0
ARC
  5
324
330
1F
100
AcDbEntity
  8
PROFILES_OUTSIDE
100
AcDbCircle
 10
1878.3882800697
 20
571.5730806329
 30
0.0
 40
1.000000000000227
100
AcDbArc
 50
0.0
 51
72.3995332141
  0
ARC
  5
325
330
1F
100
AcDbEntity
  8
PROFILES_OUTSIDE
100
AcDbCircle
 10
1741.3882800697
 20
581.5492622726
 30
0.0
 40
12.0
100
AcDbArc
 50
180.0
 51
270.0
  0
ARC
  5
326
330
1F
100
AcDbEntity
  8
PROFILES_OUTSIDE
100
AcDbCircle
 10
1717.3882800697
 20
717.548595606
 30
0.0
 40
12.0
100
AcDbArc
 50
0.0
 51
90.0
  0
ARC
  5
327
330
1F
100
AcDbEntity
  8
PROFILES_OUTSIDE
100
AcDbCircle
 10
1691.3882800697
 20
717.548595606
 30
0.0
 40
12.0
100
AcDbArc
 50
90.0
 51
180.0
  0
ARC
  5
328
330
1F
100
AcDbEntity
  8
PROFILES_OUTSIDE
100
AcDbCircle
 10
1667.3882800697
 20
581.5492622726
 30
0.0
 40
12.0
100
AcDbArc
 50
270.0
 51
0.0
  0
ARC
  5
329
330
1F
100
AcDbEntity
  8
PROFILES_OUTSIDE
100
AcDbCircle
 10
1530.3882800697
 20
571.5730806329
 30
0.0
 40
1.000000000000227
100
AcDbArc
 50
107.6004667859
 51
180.0
  0
ARC
  5
32A
330
1F
100
AcDbEntity
  8
PROFILES_OUTSIDE
100
AcDbCircle
 10
1528.5226099301
 20
577.4542518538
 30
0.0
 40
5.170000000000036
100
AcDbArc
 50
287.6004667859
 51
114.8878920264
  0
ARC
  5
32B
330
1F
100
AcDbEntity
  8
PROFILES_OUTSIDE
100
AcDbCircle
 10
1525.9260016863
 20
583.0512622726
 30
0.0
 40
1.0
100
AcDbArc
 50
270.0
 51
294.8878920264
  0
ARC
  5
32C
330
1F
100
AcDbEntity
  8
PROFILES_OUTSIDE
100
AcDbCircle
 10
1511.9863259768
 20
581.0512622726
 30
0.0
 40
1.0
100
AcDbArc
 50
90.0
 51
176.3380644245
  0
ARC
  5
32D
330
1F
100
AcDbEntity
  8
PROFILES_OUTSIDE
100
AcDbCircle
 10
1510.3882800697
 20
588.5512622726
 30
0.0
 40
6.0
100
AcDbArc
 50
90.0
 51
180.0
  0
ARC
  5
32E
330
1F
100
AcDbEntity
  8
PROFILES_OUTSIDE
100
AcDbCircle
 10
1903.3882800697
 20
1030.2952622726
 30
0.0
 40
1.000000000000227
100
AcDbArc
 50
0.0
 51
90.0
  0
ARC
  5
32F
330
1F
100
AcDbEntity
  8
PROFILES_OUTSIDE
100
AcDbCircle
 10
1679.3882800697
 20
729.548595606
 30
0.0
 40
19.05000000000011
100
AcDbArc
 50
120.0
 51
180.0
  0
ARC
  5
330
330
1F
100
AcDbEntity
  8
PROFILES_OUTSIDE
100
AcDbCircle
 10
1660.3382800697
 20
762.5441634902
 30
0.0
 40
19.04999999999995
100
AcDbArc
 50
300.0
 51
0.0
  0
ARC
  5
331
330
1F
100
AcDbEntity
  8
PROFILES_OUTSIDE
100
AcDbCircle
 10
1660.3382800697
 20
844.5523610551
 30
0.0
 40
19.04999999999995
100
AcDbArc
 50
0.0
 51
60.0
  0
ARC
  5
332
330
1F
100
AcDbEntity
  8
PROFILES_OUTSIDE
100
AcDbCircle
 10
1679.3882800697
 20
877.5479289393
 30
0.0
 40
19.05000000000001
100
AcDbArc
 50
180.0
 51
240.0
  0
ARC
  5
333
330
1F
100
AcDbEntity
  8
PROFILES_OUTSIDE
100
AcDbCircle
 10
1510.3882800697
 20
1018.5452622726
 30
0.0
 40
6.0
100
AcDbArc
 50
180.0
 51
270.0
  0
ARC
  5
334
330
1F
100
AcDbEntity
  8
PROFILES_OUTSIDE
100
AcDbCircle
 10
1760.4382800697
 20
1000.5452622726
 30
0.0
 40
12.0
100
AcDbArc
 50
90.0
 51
180.0
  0
ARC
  5
335
330
1F
100
AcDbEntity
  8
PROFILES_OUTSIDE
100
AcDbCircle
 10
1511.9863259768
 20
1026.0452622726
 30
0.0
 40
1.0
100
AcDbArc
 50
183.6619355755
 51
270.0
  0
ARC
  5
336
330
1F
100
AcDbEntity
  8
PROFILES_OUTSIDE
100
AcDbCircle
 10
1525.9260016863
 20
1024.0452622726
 30
0.0
 40
0.9999999999998309
100
AcDbArc
 50
65.1121079736
 51
90.0
  0
ARC
  5
337
330
1F
100
AcDbEntity
  8
PROFILES_OUTSIDE
100
AcDbCircle
 10
1528.5226099301
 20
1029.6422726914
 30
0.0
 40
5.170000000000178
100
AcDbArc
 50
245.1121079736
 51
72.3995332141
  0
ARC
  5
338
330
1F
100
AcDbEntity
  8
PROFILES_OUTSIDE
100
AcDbCircle
 10
1530.3882800697
 20
1035.5234439124
 30
0.0
 40
1.0
100
AcDbArc
 50
180.0
 51
252.3995332141
  0
ARC
  5
339
330
1F
100
AcDbEntity
  8
PROFILES_OUTSIDE
100
AcDbCircle
 10
1667.3882800697
 20
1025.5472622726
 30
0.0
 40
12.0
100
AcDbArc
 50
0.0
 51
90.0
  0
ARC
  5
33A
330
1F
100
AcDbEntity
  8
PROFILES_OUTSIDE
100
AcDbCircle
 10
1691.3882800697
 20
889.5479289393
 30
0.0
 40
12.0
100
AcDbArc
 50
180.0
 51
270.0
  0
ARC
  5
33B
330
1F
100
AcDbEntity
  8
PROFILES_OUTSIDE
100
AcDbCircle
 10
1717.3882800697
 20
889.5479289393
 30
0.0
 40
12.0
100
AcDbArc
 50
270.0
 51
0.0
  0
ARC
  5
33C
330
1F
100
AcDbEntity
  8
PROFILES_OUTSIDE
100
AcDbCircle
 10
1741.3882800697
 20
1025.5472622726
 30
0.0
 40
12.0
100
AcDbArc
 50
90.0
 51
180.0
  0
ARC
  5
33D
330
1F
100
AcDbEntity
  8
PROFILES_OUTSIDE
100
AcDbCircle
 10
1878.3882800697
 20
1035.5234439124
 30
0.0
 40
1.00000000000006
100
AcDbArc
 50
287.6004667859
 51
0.0
  0
ARC
  5
33E
330
1F
100
AcDbEntity
  8
PROFILES_OUTSIDE
100
AcDbCircle
 10
1880.2539502093
 20
1029.6422726914
 30
0.0
 40
5.170000000000139
100
AcDbArc
 50
107.6004667859
 51
294.8878920264
  0
ARC
  5
33F
330
1F
100
AcDbEntity
  8
PROFILES_OUTSIDE
100
AcDbCircle
 10
1882.8505584531
 20
1024.0452622726
 30
0.0
 40
0.9999999999998309
100
AcDbArc
 50
90.0
 51
114.8878920264
  0
ARC
  5
340
330
1F
100
AcDbEntity
  8
PROFILES_OUTSIDE
100
AcDbCircle
 10
1896.7902341626
 20
1026.0452622726
 30
0.0
 40
1.000000000000227
100
AcDbArc
 50
270.0
 51
356.3380644245
  0
ARC
  5
341
330
1F
100
AcDbEntity
  8
PROFILES_OUTSIDE
100
AcDbCircle
 10
1898.3882800697
 20
1018.5452622726
 30
0.0
 40
6.0
100
AcDbArc
 50
270.0
 51
0.0
  0
ARC
  5
342
330
1F
100
AcDbEntity
  8
PROFILES_OUTSIDE
100
AcDbCircle
 10
1760.4382800697
 20
606.5512622726
 30
0.0
 40
12.0
100
AcDbArc
 50
180.0
 51
270.0
  0
ARC
  5
343
330
1F
100
AcDbEntity
  8
PROFILES_OUTSIDE
100
AcDbCircle
 10
1729.3882800697
 20
877.5479289393
 30
0.0
 40
19.05000000000018
100
AcDbArc
 50
300.0
 51
0.0
  0
ARC
  5
344
330
1F
100
AcDbEntity
  8
PROFILES_OUTSIDE
100
AcDbCircle
 10
1748.4382800697
 20
844.5523610551
 30
0.0
 40
19.05000000000018
100
AcDbArc
 50
120.0
 51
180.0
  0
ARC
  5
345
330
1F
100
AcDbEntity
  8
PROFILES_OUTSIDE
100
AcDbCircle
 10
1748.4382800697
 20
762.5441634902
 30
0.0
 40
19.05000000000018
100
AcDbArc
 50
180.0
 51
240.0
  0
ARC
  5
346
330
1F
100
AcDbEntity
  8
PROFILES_OUTSIDE
100
AcDbCircle
 10
1729.3882800697
 20
729.548595606
 30
0.0
 40
19.05000000000018
100
AcDbArc
 50
0.0
 51
60.0
  0
ARC
  5
347
330
1F
100
AcDbEntity
  8
PROFILES_OUTSIDE
100
AcDbCircle
 10
1898.3882800697
 20
588.5512622726
 30
0.0
 40
6.0
100
AcDbArc
 50
0.0
 51
90.0
  0
ARC
  5
348
330
1F
100
AcDbEntity
  8
PROFILES_OUTSIDE
100
AcDbCircle
 10
1903.3882800697
 20
576.8012622726
 30
0.0
 40
1.000000000000114
100
AcDbArc
 50
270.0
 51
0.0
  0
ARC
  5
349
330
1F
100
AcDbEntity
  8
PROFILES_OUTSIDE
100
AcDbCircle
 10
2334.8682800697
 20
1030.2972622726
 30
0.0
 40
1.000000000000455
100
AcDbArc
 50
0.0
 51
90.0
  0
ARC
  5
34A
330
1F
100
AcDbEntity
  8
PROFILES_OUTSIDE
100
AcDbCircle
 10
2191.9182800697
 20
1000.5472622726
 30
0.0
 40
12.0
100
AcDbArc
 50
90.0
 51
180.0
  0
ARC
  5
34B
330
1F
100
AcDbEntity
  8
PROFILES_OUTSIDE
100
AcDbCircle
 10
2191.9182800697
 20
606.5532622726
 30
0.0
 40
12.00000000000045
100
AcDbArc
 50
180.0
 51
270.0
  0
ARC
  5
34C
330
1F
100
AcDbEntity
  8
PROFILES_OUTSIDE
100
AcDbCircle
 10
2334.8682800697
 20
576.8032622726
 30
0.0
 40
1.000000000000455
100
AcDbArc
 50
270.0
 51
0.0
  0
ARC
  5
34D
330
1F
100
AcDbEntity
  8
PROFILES_OUTSIDE
100
AcDbCircle
 10
1943.4663259768
 20
1026.0472622726
 30
0.0
 40
1.000000000000149
100
AcDbArc
 50
183.6619355755
 51
270.0
  0
ARC
  5
34E
330
1F
100
AcDbEntity
  8
PROFILES_OUTSIDE
100
AcDbCircle
 10
1957.4060016863
 20
1024.0472622726
 30
0.0
 40
1.0
100
AcDbArc
 50
65.1121079736
 51
90.0
  0
ARC
  5
34F
330
1F
100
AcDbEntity
  8
PROFILES_OUTSIDE
100
AcDbCircle
 10
1960.0026099301
 20
1029.6442726914
 30
0.0
 40
5.170000000000178
100
AcDbArc
 50
245.1121079736
 51
72.3995332141
  0
ARC
  5
350
330
1F
100
AcDbEntity
  8
PROFILES_OUTSIDE
100
AcDbCircle
 10
1961.8682800697
 20
1035.5254439124
 30
0.0
 40
1.0
100
AcDbArc
 50
180.0
 51
252.3995332141
  0
ARC
  5
351
330
1F
100
AcDbEntity
  8
PROFILES_OUTSIDE
100
AcDbCircle
 10
2098.8682800697
 20
1025.5492622726
 30
0.0
 40
12.0
100
AcDbArc
 50
0.0
 51
90.0
  0
ARC
  5
352
330
1F
100
AcDbEntity
  8
PROFILES_OUTSIDE
100
AcDbCircle
 10
2122.8682800697
 20
889.5499289393
 30
0.0
 40
12.00000000000045
100
AcDbArc
 50
180.0
 51
270.0
  0
ARC
  5
353
330
1F
100
AcDbEntity
  8
PROFILES_OUTSIDE
100
AcDbCircle
 10
2148.8682800697
 20
889.5499289393
 30
0.0
 40
12.0
100
AcDbArc
 50
270.0
 51
0.0
  0
ARC
  5
354
330
1F
100
AcDbEntity
  8
PROFILES_OUTSIDE
100
AcDbCircle
 10
2172.8682800697
 20
1025.5492622726
 30
0.0
 40
12.0
100
AcDbArc
 50
90.0
 51
180.0
  0
ARC
  5
355
330
1F
100
AcDbEntity
  8
PROFILES_OUTSIDE
100
AcDbCircle
 10
2309.8682800697
 20
1035.5254439124
 30
0.0
 40
0.9999999999996366
100
AcDbArc
 50
287.6004667858
 51
0.0
  0
ARC
  5
356
330
1F
100
AcDbEntity
  8
PROFILES_OUTSIDE
100
AcDbCircle
 10
2311.7339502093
 20
1029.6442726914
 30
0.0
 40
5.170000000000248
100
AcDbArc
 50
107.6004667859
 51
294.8878920264
  0
ARC
  5
357
330
1F
100
AcDbEntity
  8
PROFILES_OUTSIDE
100
AcDbCircle
 10
2314.3305584531
 20
1024.0472622726
 30
0.0
 40
1.0
100
AcDbArc
 50
90.0
 51
114.8878920263
  0
ARC
  5
358
330
1F
100
AcDbEntity
  8
PROFILES_OUTSIDE
100
AcDbCircle
 10
2328.2702341626
 20
1026.0472622726
 30
0.0
 40
1.000000000000149
100
AcDbArc
 50
270.0
 51
356.3380644245
  0
ARC
  5
359
330
1F
100
AcDbEntity
  8
PROFILES_OUTSIDE
100
AcDbCircle
 10
2329.8682800697
 20
1018.5472622726
 30
0.0
 40
6.000000000000455
100
AcDbArc
 50
270.0
 51
0.0
  0
ARC
  5
35A
330
1F
100
AcDbEntity
  8
PROFILES_OUTSIDE
100
AcDbCircle
 10
1936.8682800697
 20
576.8032622726
 30
0.0
 40
1.000000000000227
100
AcDbArc
 50
180.0
 51
270.0
  0
ARC
  5
35B
330
1F
100
AcDbEntity
  8
PROFILES_OUTSIDE
100
AcDbCircle
 10
2160.8682800697
 20
877.5499289393
 30
0.0
 40
19.05000000000018
100
AcDbArc
 50
300.0
 51
0.0
  0
ARC
  5
35C
330
1F
100
AcDbEntity
  8
PROFILES_OUTSIDE
100
AcDbCircle
 10
2179.9182800697
 20
844.5543610551
 30
0.0
 40
19.05000000000018
100
AcDbArc
 50
120.0
 51
180.0
  0
ARC
  5
35D
330
1F
100
AcDbEntity
  8
PROFILES_OUTSIDE
100
AcDbCircle
 10
2179.9182800697
 20
762.5461634902
 30
0.0
 40
19.05000000000001
100
AcDbArc
 50
180.0
 51
240.0
  0
ARC
  5
35E
330
1F
100
AcDbEntity
  8
PROFILES_OUTSIDE
100
AcDbCircle
 10
2160.8682800697
 20
729.550595606
 30
0.0
 40
19.05000000000018
100
AcDbArc
 50
0.0
 51
60.0
  0
ARC
  5
35F
330
1F
100
AcDbEntity
  8
PROFILES_OUTSIDE
100
AcDbCircle
 10
2329.8682800697
 20
588.5532622726
 30
0.0
 40
6.000000000000455
100
AcDbArc
 50
0.0
 51
90.0
  0
ARC
  5
360
330
1F
100
AcDbEntity
  8
PROFILES_OUTSIDE
100
AcDbCircle
 10
2079.8182800697
 20
606.5532622726
 30
0.0
 40
12.0
100
AcDbArc
 50
270.0
 51
0.0
  0
ARC
  5
361
330
1F
100
AcDbEntity
  8
PROFILES_OUTSIDE
100
AcDbCircle
 10
2328.2702341626
 20
581.0532622726
 30
0.0
 40
1.000000000000163
100
AcDbArc
 50
3.6619355755
 51
90.0
  0
ARC
  5
362
330
1F
100
AcDbEntity
  8
PROFILES_OUTSIDE
100
AcDbCircle
 10
2314.3305584531
 20
583.0532622726
 30
0.0
 40
1.000000000000114
100
AcDbArc
 50
245.1121079736
 51
270.0
  0
ARC
  5
363
330
1F
100
AcDbEntity
  8
PROFILES_OUTSIDE
100
AcDbCircle
 10
2311.7339502093
 20
577.4562518538
 30
0.0
 40
5.170000000000138
100
AcDbArc
 50
65.1121079736
 51
252.3995332141
  0
ARC
  5
364
330
1F
100
AcDbEntity
  8
PROFILES_OUTSIDE
100
AcDbCircle
 10
2309.8682800697
 20
571.5750806329
 30
0.0
 40
0.9999999999997451
100
AcDbArc
 50
360.0
 51
72.3995332142
  0
ARC
  5
365
330
1F
100
AcDbEntity
  8
PROFILES_OUTSIDE
100
AcDbCircle
 10
2172.8682800697
 20
581.5512622726
 30
0.0
 40
12.0
100
AcDbArc
 50
180.0
 51
270.0
  0
ARC
  5
366
330
1F
100
AcDbEntity
  8
PROFILES_OUTSIDE
100
AcDbCircle
 10
2148.8682800697
 20
717.550595606
 30
0.0
 40
12.0
100
AcDbArc
 50
0.0
 51
90.0
  0
ARC
  5
367
330
1F
100
AcDbEntity
  8
PROFILES_OUTSIDE
100
AcDbCircle
 10
2122.8682800697
 20
717.550595606
 30
0.0
 40
12.00000000000045
100
AcDbArc
 50
90.0
 51
180.0
  0
ARC
  5
368
330
1F
100
AcDbEntity
  8
PROFILES_OUTSIDE
100
AcDbCircle
 10
2098.8682800697
 20
581.5512622726
 30
0.0
 40
12.0
100
AcDbArc
 50
270.0
 51
0.0
  0
ARC
  5
369
330
1F
100
AcDbEntity
  8
PROFILES_OUTSIDE
100
AcDbCircle
 10
1961.8682800697
 20
571.5750806329
 30
0.0
 40
0.9999999999998825
100
AcDbArc
 50
107.6004667859
 51
180.0
  0
ARC
  5
36A
330
1F
100
AcDbEntity
  8
PROFILES_OUTSIDE
100
AcDbCircle
 10
1960.0026099301
 20
577.4562518538
 30
0.0
 40
5.170000000000131
100
AcDbArc
 50
287.6004667859
 51
114.8878920264
  0
ARC
  5
36B
330
1F
100
AcDbEntity
  8
PROFILES_OUTSIDE
100
AcDbCircle
 10
1957.4060016863
 20
583.0532622726
 30
0.0
 40
1.0
100
AcDbArc
 50
270.0
 51
294.8878920264
  0
ARC
  5
36C
330
1F
100
AcDbEntity
  8
PROFILES_OUTSIDE
100
AcDbCircle
 10
1943.4663259768
 20
581.0532622726
 30
0.0
 40
1.000000000000163
100
AcDbArc
 50
90.0
 51
176.3380644245
  0
ARC
  5
36D
330
1F
100
AcDbEntity
  8
PROFILES_OUTSIDE
100
AcDbCircle
 10
1941.8682800697
 20
588.5532622726
 30
0.0
 40
6.000000000000227
100
AcDbArc
 50
90.0
 51
180.0
  0
ARC
  5
36E
330
1F
100
AcDbEntity
  8
PROFILES_OUTSIDE
100
AcDbCircle
 10
2079.8182800697
 20
1000.5472622726
 30
0.0
 40
12.0
100
AcDbArc
 50
0.0
 51
90.0
  0
ARC
  5
36F
330
1F
100
AcDbEntity
  8
PROFILES_OUTSIDE
100
AcDbCircle
 10
2110.8682800697
 20
729.550595606
 30
0.0
 40
19.04999999999998
100
AcDbArc
 50
120.0
 51
180.0
  0
ARC
  5
370
330
1F
100
AcDbEntity
  8
PROFILES_OUTSIDE
100
AcDbCircle
 10
2091.8182800697
 20
762.5461634902
 30
0.0
 40
19.04999999999969
100
AcDbArc
 50
300.0
 51
0.0
  0
ARC
  5
371
330
1F
100
AcDbEntity
  8
PROFILES_OUTSIDE
100
AcDbCircle
 10
2091.8182800697
 20
844.5543610551
 30
0.0
 40
19.04999999999988
100
AcDbArc
 50
0.0
 51
60.0
  0
ARC
  5
372
330
1F
100
AcDbEntity
  8
PROFILES_OUTSIDE
100
AcDbCircle
 10
2110.8682800697
 20
877.5499289393
 30
0.0
 40
19.04999999999969
100
AcDbArc
 50
180.0
 51
240.0
  0
ARC
  5
373
330
1F
100
AcDbEntity
  8
PROFILES_OUTSIDE
100
AcDbCircle
 10
1941.8682800697
 20
1018.5472622726
 30
0.0
 40
6.000000000000227
100
AcDbArc
 50
180.0
 51
270.0
  0
ARC
  5
374
330
1F
100
AcDbEntity
  8
PROFILES_OUTSIDE
100
AcDbCircle
 10
1936.8682800697
 20
1030.2972622726
 30
0.0
 40
1.000000000000227
100
AcDbArc
 50
90.0
 51
180.0
  0
ENDSEC
  0
SECTION
  2
OBJECTS
  0
DICTIONARY
  5
C
330
0
100
AcDbDictionary
  3
ACAD_GROUP
350
D
  3
ACAD_MLINESTYLE
350
17
  3
ACAD_SCALELIST
350
47
  0
DICTIONARY
  5
D
102
{ACAD_REACTORS
330
C
102
}
330
C
100
AcDbDictionary
  0
DICTIONARY
  5
17
102
{ACAD_REACTORS
330
C
102
}
330
C
100
AcDbDictionary
  3
STANDARD
350
18
  0
DICTIONARY
  5
47
102
{ACAD_REACTORS
330
C
102
}
330
C
100
AcDbDictionary
  0
MLINESTYLE
  5
18
102
{ACAD_REACTORS
330
17
102
}
330
17
100
AcDbMlineStyle
  2
Standard
 70
     0
  3

 62
   256
 51
90.0
 52
90.0
 71
     2
 49
0.5
 62
   256
  6
BYLAYER
 49
-0.5
 62
   256
  6
BYLAYER
  0
ENDSEC
  0
EOF
