  0
SECTION
  2
HEADER
  9
$ACADVER
  1
AC1014
  9
$ACADMAINTVER
 70
     9
  9
$DWGCODEPAGE
  3
ANSI_1252
  9
$INSBASE
 10
0.0
 20
0.0
 30
0.0
  9
$EXTMIN
 10
0.0
 20
0.0
 30
0.0
  9
$EXTMAX
 10
2440.0
 20
1220.0
 30
0.0
  9
$LIMMIN
 10
0.0
 20
0.0
  9
$LIMMAX
 10
2440.0
 20
1220.0
  9
$ORTHOMODE
 70
     0
  9
$REGENMODE
 70
     1
  9
$FILLMODE
 70
     1
  9
$QTEXTMODE
 70
     0
  9
$MIRRTEXT
 70
     1
  9
$DRAGMODE
 70
     2
  9
$LTSCALE
 40
1.0
  9
$OSMODE
 70
    37
  9
$ATTMODE
 70
     1
  9
$TEXTSIZE
 40
3.5
  9
$TRACEWID
 40
1.0
  9
$TEXTSTYLE
  7
STANDARD
  9
$CLAYER
  8
0
  9
$CELTYPE
  6
BYLAYER
  9
$CECOLOR
 62
   256
  9
$CELTSCALE
 40
1.0
  9
$DELOBJ
 70
     1
  9
$DISPSILH
 70
     0
  9
$DIMSCALE
 40
1.0
  9
$DIMASZ
 40
3.302
  9
$DIMEXO
 40
1.0
  9
$DIMDLI
 40
3.75
  9
$DIMRND
 40
0.0
  9
$DIMDLE
 40
0.0
  9
$DIMEXE
 40
1.0
  9
$DIMTP
 40
0.0
  9
$DIMTM
 40
0.0
  9
$DIMTXT
 40
4.5861111111
  9
$DIMCEN
 40
2.5
  9
$DIMTSZ
 40
0.0
  9
$DIMTOL
 70
     0
  9
$DIMLIM
 70
     0
  9
$DIMTIH
 70
     1
  9
$DIMTOH
 70
     1
  9
$DIMSE1
 70
     0
  9
$DIMSE2
 70
     0
  9
$DIMTAD
 70
     1
  9
$DIMZIN
 70
     0
  9
$DIMBLK
  1

  9
$DIMASO
 70
     1
  9
$DIMSHO
 70
     1
  9
$DIMPOST
  1

  9
$DIMAPOST
  1

  9
$DIMALT
 70
     0
  9
$DIMALTD
 70
     3
  9
$DIMALTF
 40
0.0393700787
  9
$DIMLFAC
 40
1.0
  9
$DIMTOFL
 70
     1
  9
$DIMTVP
 40
0.0
  9
$DIMTIX
 70
     0
  9
$DIMSOXD
 70
     0
  9
$DIMSAH
 70
     0
  9
$DIMBLK1
  1

  9
$DIMBLK2
  1

  9
$DIMSTYLE
  2
ISO-25
  9
$DIMCLRD
 70
     0
  9
$DIMCLRE
 70
     0
  9
$DIMCLRT
 70
     0
  9
$DIMTFAC
 40
1.0
  9
$DIMGAP
 40
1.524
  9
$DIMJUST
 70
     0
  9
$DIMSD1
 70
     0
  9
$DIMSD2
 70
     0
  9
$DIMTOLJ
 70
     0
  9
$DIMTZIN
 70
     0
  9
$DIMALTZ
 70
     0
  9
$DIMALTTZ
 70
     0
  9
$DIMFIT
 70
     3
  9
$DIMUPT
 70
     0
  9
$DIMUNIT
 70
     2
  9
$DIMDEC
 70
     2
  9
$DIMTDEC
 70
     2
  9
$DIMALTU
 70
     2
  9
$DIMALTTD
 70
     3
  9
$DIMTXSTY
  7
STANDARD
  9
$DIMAUNIT
 70
     0
  9
$LUNITS
 70
     2
  9
$LUPREC
 70
     2
  9
$SKETCHINC
 40
1.0
  9
$FILLETRAD
 40
10.0
  9
$AUNITS
 70
     0
  9
$AUPREC
 70
     2
  9
$MENU
  1
.
  9
$ELEVATION
 40
0.0
  9
$PELEVATION
 40
0.0
  9
$THICKNESS
 40
0.0
  9
$LIMCHECK
 70
     0
  9
$CHAMFERA
 40
0.0
  9
$CHAMFERB
 40
0.0
  9
$CHAMFERC
 40
0.0
  9
$CHAMFERD
 40
0.0
  9
$SKPOLY
 70
     0
  9
$TDCREATE
 40
2457722.441406204
  9
$TDUPDATE
 40
2457722.441406539
  9
$TDINDWG
 40
0.0000000116
  9
$TDUSRTIMER
 40
0.0000000116
  9
$USRTIMER
 70
     1
  9
$ANGBASE
 50
0.0
  9
$ANGDIR
 70
     0
  9
$PDMODE
 70
     0
  9
$PDSIZE
 40
-1.0
  9
$PLINEWID
 40
0.0
  9
$COORDS
 70
     1
  9
$SPLFRAME
 70
     0
  9
$SPLINETYPE
 70
     6
  9
$SPLINESEGS
 70
     8
  9
$ATTDIA
 70
     0
  9
$ATTREQ
 70
     1
  9
$HANDLING
 70
     1
  9
$HANDSEED
  5
375
  9
$SURFTAB1
 70
     6
  9
$SURFTAB2
 70
     6
  9
$SURFTYPE
 70
     6
  9
$SURFU
 70
     6
  9
$SURFV
 70
     6
  9
$UCSNAME
  2

  9
$UCSORG
 10
0.0
 20
0.0
 30
0.0
  9
$UCSXDIR
 10
1.0
 20
0.0
 30
0.0
  9
$UCSYDIR
 10
0.0
 20
1.0
 30
0.0
  9
$PUCSNAME
  2

  9
$PUCSORG
 10
0.0
 20
0.0
 30
0.0
  9
$PUCSXDIR
 10
1.0
 20
0.0
 30
0.0
  9
$PUCSYDIR
 10
0.0
 20
1.0
 30
0.0
  9
$USERI1
 70
     0
  9
$USERI2
 70
     0
  9
$USERI3
 70
     0
  9
$USERI4
 70
     0
  9
$USERI5
 70
     0
  9
$USERR1
 40
0.0
  9
$USERR2
 40
0.0
  9
$USERR3
 40
0.0
  9
$USERR4
 40
0.0
  9
$USERR5
 40
0.0
  9
$WORLDVIEW
 70
     1
  9
$SHADEDGE
 70
     3
  9
$SHADEDIF
 70
    70
  9
$TILEMODE
 70
     1
  9
$MAXACTVP
 70
    64
  9
$PINSBASE
 10
0.0
 20
0.0
 30
0.0
  9
$PLIMCHECK
 70
     0
  9
$PEXTMIN
 10
1.0000000000E+20
 20
1.0000000000E+20
 30
1.0000000000E+20
  9
$PEXTMAX
 10
-1.0000000000E+20
 20
-1.0000000000E+20
 30
-1.0000000000E+20
  9
$PLIMMIN
 10
0.0
 20
0.0
  9
$PLIMMAX
 10
420.0
 20
297.0
  9
$UNITMODE
 70
     0
  9
$VISRETAIN
 70
     1
  9
$PLINEGEN
 70
     0
  9
$PSLTSCALE
 70
     1
  9
$TREEDEPTH
 70
  3020
  9
$PICKSTYLE
 70
     1
  9
$CMLSTYLE
  2
STANDARD
  9
$CMLJUST
 70
     0
  9
$CMLSCALE
 40
20.0
  9
$PROXYGRAPHICS
 70
     1
  9
$MEASUREMENT
 70
     1
  0
ENDSEC
  0
SECTION
  2
CLASSES
  0
CLASS
  1
ACDBDICTIONARYWDFLT
  2
AcDbDictionaryWithDefault
  3
ObjectDBX Classes
 90
        0
280
     0
281
     0
  0
CLASS
  1
VISUALSTYLE
  2
AcDbVisualStyle
  3
ObjectDBX Classes
 90
     4095
280
     0
281
     0
  0
CLASS
  1
MATERIAL
  2
AcDbMaterial
  3
ObjectDBX Classes
 90
     1153
280
     0
281
     0
  0
CLASS
  1
SCALE
  2
AcDbScale
  3
ObjectDBX Classes
 90
     1153
280
     0
281
     0
  0
CLASS
  1
TABLESTYLE
  2
AcDbTableStyle
  3
ObjectDBX Classes
 90
     4095
280
     0
281
     0
  0
CLASS
  1
MLEADERSTYLE
  2
AcDbMLeaderStyle
  3
ACDB_MLEADERSTYLE_CLASS
 90
     4095
280
     0
281
     0
  0
CLASS
  1
SUN
  2
AcDbSun
  3
SCENEOE
 90
     1153
280
     0
281
     0
  0
CLASS
  1
XRECORD
  2
AcDbXrecord
  3
ObjectDBX Classes
 90
        0
280
     0
281
     0
  0
CLASS
  1
LWPOLYLINE
  2
AcDbPolyline
  3
ObjectDBX Classes
 90
        0
280
     0
281
     1
  0
CLASS
  1
HATCH
  2
AcDbHatch
  3
ObjectDBX Classes
 90
        0
280
     0
281
     1
  0
ENDSEC
  0
SECTION
  2
TABLES
  0
TABLE
  2
VPORT
  5
8
330
0
100
AcDbSymbolTable
 70
     1
  0
VPORT
  5
29
330
8
100
AcDbSymbolTableRecord
100
AcDbViewportTableRecord
  2
*ACTIVE
 70
     0
 10
0.0
 20
0.0
 11
1.0
 21
1.0
 12
1220.0
 22
610.0
 13
0.0
 23
0.0
 14
10.0
 24
10.0
 15
10.0
 25
10.0
 16
0.0
 26
0.0
 36
1.0
 17
0.0
 27
0.0
 37
0.0
 40
1220.0
 41
2.0
 42
50.0
 43
0.0
 44
0.0
 50
0.0
 51
0.0
 71
     0
 72
  2000
 73
     1
 74
     3
 75
     0
 76
     0
 77
     0
 78
     0
  0
ENDTAB
  0
TABLE
  2
LTYPE
  5
5
330
0
100
AcDbSymbolTable
 70
     6
  0
LTYPE
  5
14
330
5
100
AcDbSymbolTableRecord
100
AcDbLinetypeTableRecord
  2
BYBLOCK
 70
     0
  3

 72
    65
 73
     0
 40
0.0
  0
LTYPE
  5
15
330
5
100
AcDbSymbolTableRecord
100
AcDbLinetypeTableRecord
  2
BYLAYER
 70
     0
  3

 72
    65
 73
     0
 40
0.0
  0
LTYPE
  5
16
330
5
100
AcDbSymbolTableRecord
100
AcDbLinetypeTableRecord
  2
CONTINUOUS
 70
     0
  3
Solid line
 72
    65
 73
     0
 40
0.0
  0
LTYPE
  5
6E
330
5
100
AcDbSymbolTableRecord
100
AcDbLinetypeTableRecord
  2
HIDDEN
 70
     0
  3
Hidden __ __ __ __ __ __ __ __ __ __ __ __ __ __
 72
    65
 73
     2
 40
1.905
 49
1.27
 74
     0
 49
-0.635
 74
     0
  0
LTYPE
  5
6F
330
5
100
AcDbSymbolTableRecord
100
AcDbLinetypeTableRecord
  2
PHANTOM
 70
     0
  3
Phantom ______  __  __  ______  __  __  ______
 72
    65
 73
     6
 40
12.7
 49
6.35
 74
     0
 49
-1.27
 74
     0
 49
1.27
 74
     0
 49
-1.27
 74
     0
 49
1.27
 74
     0
 49
-1.27
 74
     0
  0
LTYPE
  5
70
330
5
100
AcDbSymbolTableRecord
100
AcDbLinetypeTableRecord
  2
CENTER
 70
     0
  3
Center ____ _ ____ _ ____ _ ____ _ ____ _ ____
 72
    65
 73
     4
 40
10.16
 49
6.35
 74
     0
 49
-1.27
 74
     0
 49
1.27
 74
     0
 49
-1.27
 74
     0
  0
LTYPE
  5
71
330
5
100
AcDbSymbolTableRecord
100
AcDbLinetypeTableRecord
  2
CENTERX2
 70
     0
  3
Center (2x) ________  __  ________  __  _____
 72
    65
 73
     4
 40
20.32
 49
12.7
 74
     0
 49
-2.54
 74
     0
 49
2.54
 74
     0
 49
-2.54
 74
     0
  0
LTYPE
  5
72
330
5
100
AcDbSymbolTableRecord
100
AcDbLinetypeTableRecord
  2
DOT2
 70
     0
  3
Dot (.5x) ........................................
 72
    65
 73
     2
 40
0.635
 49
0.0
 74
     0
 49
-0.635
 74
     0
  0
ENDTAB
  0
TABLE
  2
LAYER
  5
2
330
0
100
AcDbSymbolTable
 70
     6
  0
LAYER
  5
10
330
2
100
AcDbSymbolTableRecord
100
AcDbLayerTableRecord
  2
0
 70
     0
 62
     7
  6
CONTINUOUS
  0
LAYER
  5
73
330
2
100
AcDbSymbolTableRecord
100
AcDbLayerTableRecord
  2
BOX_STOCK
 70
     0
 62
     1
  6
CONTINUOUS
  0
LAYER
  5
74
330
2
100
AcDbSymbolTableRecord
100
AcDbLayerTableRecord
  2
HOLES
 70
     0
 62
    30
  6
CONTINUOUS
  0
LAYER
  5
75
330
2
100
AcDbSymbolTableRecord
100
AcDbLayerTableRecord
  2
POCKETS
 70
     0
 62
   171
  6
CONTINUOUS
  0
LAYER
  5
76
330
2
100
AcDbSymbolTableRecord
100
AcDbLayerTableRecord
  2
PROFILES_OUTSIDE
 70
     0
 62
     6
  6
CONTINUOUS
  0
LAYER
  5
77
330
2
100
AcDbSymbolTableRecord
100
AcDbLayerTableRecord
  2
PROFILES_INSIDE
 70
     0
 62
     4
  6
CONTINUOUS
  0
ENDTAB
  0
TABLE
  2
STYLE
  5
3
330
0
100
AcDbSymbolTable
 70
     1
  0
STYLE
  5
11
330
3
100
AcDbSymbolTableRecord
100
AcDbTextStyleTableRecord
  2
STANDARD
 70
     0
 40
0.0
 41
1.0
 50
0.0
 71
     0
 42
3.5
  3
txt
  4

  0
ENDTAB
  0
TABLE
  2
VIEW
  5
6
330
0
100
AcDbSymbolTable
 70
     0
  0
ENDTAB
  0
TABLE
  2
UCS
  5
7
330
0
100
AcDbSymbolTable
 70
     0
  0
ENDTAB
  0
TABLE
  2
APPID
  5
9
330
0
100
AcDbSymbolTable
 70
     1
  0
APPID
  5
12
330
9
100
AcDbSymbolTableRecord
100
AcDbRegAppTableRecord
  2
ACAD
 70
     0
  0
ENDTAB
  0
TABLE
  2
DIMSTYLE
  5
A
330
0
100
AcDbSymbolTable
 70
     1
  0
DIMSTYLE
105
27
330
A
100
AcDbSymbolTableRecord
100
AcDbDimStyleTableRecord
  2
ISO-25
 70
     0
  3

  4

  5

  6

  7

 40
1.0
 41
2.5
 42
0.625
 43
3.75
 44
1.25
 45
0.0
 46
0.0
 47
0.0
 48
0.0
140
2.5
141
2.5
142
0.0
143
0.0393700787
144
1.0
145
0.0
146
1.0
147
0.625
 71
     0
 72
     0
 73
     0
 74
     0
 75
     0
 76
     0
 77
     1
 78
     8
170
     0
171
     3
172
     1
173
     0
174
     0
175
     0
176
     0
177
     0
178
     0
270
     2
271
     2
272
     2
273
     2
274
     3
340
11
275
     0
280
     0
281
     0
282
     0
283
     0
284
     8
285
     0
286
     0
287
     3
288
     0
  0
ENDTAB
  0
TABLE
  2
BLOCK_RECORD
  5
1
330
0
100
AcDbSymbolTable
 70
     1
  0
BLOCK_RECORD
  5
1F
330
1
100
AcDbSymbolTableRecord
100
AcDbBlockTableRecord
  2
*MODEL_SPACE
  0
BLOCK_RECORD
  5
1B
330
1
100
AcDbSymbolTableRecord
100
AcDbBlockTableRecord
  2
*PAPER_SPACE
  0
BLOCK_RECORD
  5
23
330
1
100
AcDbSymbolTableRecord
100
AcDbBlockTableRecord
  2
*PAPER_SPACE0
  0
ENDTAB
  0
ENDSEC
  0
SECTION
  2
BLOCKS
  0
BLOCK
  5
20
330
1F
100
AcDbEntity
  8
0
100
AcDbBlockBegin
  2
*MODEL_SPACE
 70
     0
 10
0.0
 20
0.0
 30
0.0
  3
*MODEL_SPACE
  1

  0
ENDBLK
  5
21
330
1F
100
AcDbEntity
  8
0
100
AcDbBlockEnd
  0
BLOCK
  5
1C
330
1B
100
AcDbEntity
 67
     1
  8
0
100
AcDbBlockBegin
  2
*PAPER_SPACE
 70
     0
 10
0.0
 20
0.0
 30
0.0
  3
*PAPER_SPACE
  1

  0
ENDBLK
  5
1D
330
1B
100
AcDbEntity
 67
     1
  8
0
100
AcDbBlockEnd
  0
BLOCK
  5
24
330
23
100
AcDbEntity
  8
0
100
AcDbBlockBegin
  2
*PAPER_SPACE0
 70
     0
 10
0.0
 20
0.0
 30
0.0
  3
*PAPER_SPACE0
  1

  0
ENDBLK
  5
25
330
23
100
AcDbEntity
  8
0
100
AcDbBlockEnd
  0
ENDSEC
  0
SECTION
  2
ENTITIES
  0
ARC
  5
78
330
1F
100
AcDbEntity
  8
0
  6
CONTINUOUS
 62
     7
100
AcDbCircle
 10
1029.1582705162
 20
441.7669370072
 30
0.0
 40
5.170000000000023
100
AcDbArc
 50
356.0551701269
 51
24.8879111195
  0
ARC
  5
79
330
1F
100
AcDbEntity
  8
0
  6
CONTINUOUS
 62
     7
100
AcDbCircle
 10
1034.7552800697
 20
444.3635471162
 30
0.0
 40
1.000000000000044
100
AcDbArc
 50
180.0
 51
204.8879111195
  0
LINE
  5
7A
330
1F
100
AcDbEntity
  8
0
  6
CONTINUOUS
 62
     7
100
AcDbLine
 10
1033.7553238701
 20
449.7789754093
 30
0.0
 11
1033.7553238701
 21
444.3635358036
 31
0.0
  0
ARC
  5
7B
330
1F
100
AcDbEntity
  8
0
  6
CONTINUOUS
 62
     7
100
AcDbCircle
 10
1034.7553386204
 20
449.7789774291
 30
0.0
 40
1.000058550651829
100
AcDbArc
 50
155.1122470459
 51
180.0
  0
ARC
  5
7C
330
1F
100
AcDbEntity
  8
0
  6
CONTINUOUS
 62
     7
100
AcDbCircle
 10
1029.1582687856
 20
452.375596728
 30
0.0
 40
5.170000000000006
100
AcDbArc
 50
335.1122470459
 51
162.3995501035
  0
ARC
  5
7D
330
1F
100
AcDbEntity
  8
0
  6
CONTINUOUS
 62
     7
100
AcDbCircle
 10
1023.2770970147
 20
454.241265134
 30
0.0
 40
1.000000000000151
100
AcDbArc
 50
270.0000810874
 51
342.3995501035
  0
LINE
  5
7E
330
1F
100
AcDbEntity
  8
0
  6
CONTINUOUS
 62
     7
100
AcDbLine
 10
1019.2334866356
 20
453.2412602127
 30
0.0
 11
1023.2770657371
 21
453.2412602127
 31
0.0
  0
ARC
  5
7F
330
1F
100
AcDbEntity
  8
0
  6
CONTINUOUS
 62
     7
100
AcDbCircle
 10
1019.2334602942
 20
454.2412594113
 30
0.0
 40
1.000001579665678
100
AcDbArc
 50
197.6004836752
 51
270.0000810874
  0
ARC
  5
80
330
1F
100
AcDbEntity
  8
0
  6
CONTINUOUS
 62
     7
100
AcDbCircle
 10
1013.3522896232
 20
452.3755875381
 30
0.0
 40
5.169998420334232
100
AcDbArc
 50
17.6004836752
 51
204.8878022818
  0
ARC
  5
81
330
1F
100
AcDbEntity
  8
0
  6
CONTINUOUS
 62
     7
100
AcDbCircle
 10
1007.7552800697
 20
449.7789903494
 30
0.0
 40
0.999997721931408
100
AcDbArc
 50
0.0
 51
24.8878022818
  0
LINE
  5
82
330
1F
100
AcDbEntity
  8
0
  6
CONTINUOUS
 62
     7
100
AcDbLine
 10
1008.7552285026
 20
444.3635358036
 30
0.0
 11
1008.7552285026
 21
449.7790052116
 31
0.0
  0
ARC
  5
83
330
1F
100
AcDbEntity
  8
0
  6
CONTINUOUS
 62
     7
100
AcDbCircle
 10
1007.7552800697
 20
444.3635341959
 30
0.0
 40
1.000000000000114
100
AcDbArc
 50
335.1121270667
 51
0.0
  0
ARC
  5
84
330
1F
100
AcDbEntity
  8
0
  6
CONTINUOUS
 62
     7
100
AcDbCircle
 10
1013.3522913538
 20
441.7669278172
 30
0.0
 40
5.170000000000058
100
AcDbArc
 50
155.1121270667
 51
183.9447277847
  0
LINE
  5
85
330
1F
100
AcDbEntity
  8
0
  6
CONTINUOUS
 62
     7
100
AcDbLine
 10
1008.1945872139
 20
441.4112581432
 30
0.0
 11
622.466645224
 21
441.4112581432
 31
0.0
  0
ARC
  5
86
330
1F
100
AcDbEntity
  8
0
  6
CONTINUOUS
 62
     7
100
AcDbCircle
 10
617.3088705162
 20
441.7669370072
 30
0.0
 40
5.169999999999946
100
AcDbArc
 50
356.0551701269
 51
24.8879111195
  0
ARC
  5
87
330
1F
100
AcDbEntity
  8
0
  6
CONTINUOUS
 62
     7
100
AcDbCircle
 10
622.9058800697
 20
444.3635471162
 30
0.0
 40
1.000000000000044
100
AcDbArc
 50
180.0
 51
204.8879111195
  0
LINE
  5
88
330
1F
100
AcDbEntity
  8
0
  6
CONTINUOUS
 62
     7
100
AcDbLine
 10
621.9058847259
 20
449.7789754093
 30
0.0
 11
621.9058847259
 21
444.3635358036
 31
0.0
  0
ARC
  5
89
330
1F
100
AcDbEntity
  8
0
  6
CONTINUOUS
 62
     7
100
AcDbCircle
 10
622.9059386204
 20
449.7789774291
 30
0.0
 40
1.000058550652125
100
AcDbArc
 50
155.1122470459
 51
180.0
  0
ARC
  5
8A
330
1F
100
AcDbEntity
  8
0
  6
CONTINUOUS
 62
     7
100
AcDbCircle
 10
617.3088687856
 20
452.375596728
 30
0.0
 40
5.170000000000006
100
AcDbArc
 50
335.1122470459
 51
162.3995501035
  0
ARC
  5
8B
330
1F
100
AcDbEntity
  8
0
  6
CONTINUOUS
 62
     7
100
AcDbCircle
 10
611.4276970147
 20
454.241265134
 30
0.0
 40
1.000000000000035
100
AcDbArc
 50
270.0000810874
 51
342.3995501035
  0
LINE
  5
8C
330
1F
100
AcDbEntity
  8
0
  6
CONTINUOUS
 62
     7
100
AcDbLine
 10
607.3840474914
 20
453.2412602127
 30
0.0
 11
611.4276861976
 21
453.2412602127
 31
0.0
  0
ARC
  5
8D
330
1F
100
AcDbEntity
  8
0
  6
CONTINUOUS
 62
     7
100
AcDbCircle
 10
607.3840602942
 20
454.2412594113
 30
0.0
 40
1.000001579665695
100
AcDbArc
 50
197.6004836752
 51
270.0000810874
  0
ARC
  5
8E
330
1F
100
AcDbEntity
  8
0
  6
CONTINUOUS
 62
     7
100
AcDbCircle
 10
601.5028896232
 20
452.3755875381
 30
0.0
 40
5.169998420334306
100
AcDbArc
 50
17.6004836752
 51
204.8878022818
  0
ARC
  5
8F
330
1F
100
AcDbEntity
  8
0
  6
CONTINUOUS
 62
     7
100
AcDbCircle
 10
595.9058800697
 20
449.7789903494
 30
0.0
 40
0.9999977219313223
100
AcDbArc
 50
0.0
 51
24.8878022818
  0
LINE
  5
90
330
1F
100
AcDbEntity
  8
0
  6
CONTINUOUS
 62
     7
100
AcDbLine
 10
596.9059085678
 20
444.3635358036
 30
0.0
 11
596.9058489631
 21
449.7790052116
 31
0.0
  0
ARC
  5
91
330
1F
100
AcDbEntity
  8
0
  6
CONTINUOUS
 62
     7
100
AcDbCircle
 10
595.9058800697
 20
444.3635341959
 30
0.0
 40
1.000000000000001
100
AcDbArc
 50
335.1121270667
 51
0.0
  0
ARC
  5
92
330
1F
100
AcDbEntity
  8
0
  6
CONTINUOUS
 62
     7
100
AcDbCircle
 10
601.5028913538
 20
441.7669278172
 30
0.0
 40
5.170000000000027
100
AcDbArc
 50
155.1121270667
 51
183.9447277847
  0
LINE
  5
93
330
1F
100
AcDbEntity
  8
0
  6
CONTINUOUS
 62
     7
100
AcDbLine
 10
596.3451480697
 20
441.4112581432
 30
0.0
 11
559.4282960724
 21
441.4112581432
 31
0.0
  0
LINE
  5
94
330
1F
100
AcDbEntity
  8
0
  6
CONTINUOUS
 62
     7
100
AcDbLine
 10
559.4282960724
 20
462.0712711037
 30
0.0
 11
559.4282960724
 21
441.4112581432
 31
0.0
  0
ARC
  5
95
330
1F
100
AcDbEntity
  8
0
  6
CONTINUOUS
 62
     7
100
AcDbCircle
 10
565.4282800697
 20
462.0712622726
 30
0.0
 40
6.0
100
AcDbArc
 50
90.0
 51
180.0
  0
LINE
  5
96
330
1F
100
AcDbEntity
  8
0
  6
CONTINUOUS
 62
     7
100
AcDbLine
 10
1055.4282879661
 20
468.0712534607
 30
0.0
 11
565.4282784294
 21
468.0712534607
 31
0.0
  0
ARC
  5
97
330
1F
100
AcDbEntity
  8
0
  6
CONTINUOUS
 62
     7
100
AcDbCircle
 10
1055.4282800697
 20
462.0712622726
 30
0.0
 40
6.0
100
AcDbArc
 50
0.0
 51
90.0
  0
LINE
  5
98
330
1F
100
AcDbEntity
  8
0
  6
CONTINUOUS
 62
     7
100
AcDbLine
 10
1061.4283299278
 20
441.4112581432
 30
0.0
 11
1061.4283299278
 21
462.0712711037
 31
0.0
  0
LINE
  5
99
330
1F
100
AcDbEntity
  8
0
  6
CONTINUOUS
 62
     7
100
AcDbLine
 10
1061.4283299278
 20
441.4112581432
 30
0.0
 11
1034.3159651588
 21
441.4112581432
 31
0.0
  0
ARC
  5
9A
330
1F
100
AcDbEntity
  8
0
  6
CONTINUOUS
 62
     7
100
AcDbCircle
 10
601.502889656
 20
56.3755877122
 30
0.0
 40
5.169998480218216
100
AcDbArc
 50
176.0551709005
 51
204.887805684
  0
ARC
  5
9B
330
1F
100
AcDbEntity
  8
0
  6
CONTINUOUS
 62
     7
100
AcDbCircle
 10
595.9058800697
 20
53.7789901044
 30
0.0
 40
0.9999978082911412
100
AcDbArc
 50
0.0
 51
24.887805684
  0
LINE
  5
9C
330
1F
100
AcDbEntity
  8
0
  6
CONTINUOUS
 62
     7
100
AcDbLine
 10
596.9059085678
 20
48.3635342241
 30
0.0
 11
596.9058489631
 21
53.7789887309
 31
0.0
  0
ARC
  5
9D
330
1F
100
AcDbEntity
  8
0
  6
CONTINUOUS
 62
     7
100
AcDbCircle
 10
595.9058800697
 20
48.3635344408
 30
0.0
 40
1.0
100
AcDbArc
 50
335.1121263429
 51
0.0
  0
ARC
  5
9E
330
1F
100
AcDbEntity
  8
0
  6
CONTINUOUS
 62
     7
100
AcDbCircle
 10
601.502891321
 20
45.7669279914
 30
0.0
 40
5.17000000000003
100
AcDbArc
 50
155.1121263429
 51
342.3995494632
  0
ARC
  5
9F
330
1F
100
AcDbEntity
  8
0
  6
CONTINUOUS
 62
     7
100
AcDbCircle
 10
607.3840630711
 20
43.9012595197
 30
0.0
 40
0.9999999999999978
100
AcDbArc
 50
90.0000780134
 51
162.3995494633
  0
LINE
  5
A0
330
1F
100
AcDbEntity
  8
0
  6
CONTINUOUS
 62
     7
100
AcDbLine
 10
611.4276861976
 20
44.9012643218
 30
0.0
 11
607.3840474914
 21
44.9012605965
 31
0.0
  0
ARC
  5
A1
330
1F
100
AcDbEntity
  8
0
  6
CONTINUOUS
 62
     7
100
AcDbCircle
 10
611.4276997915
 20
43.9012650255
 30
0.0
 40
0.9999999999999636
100
AcDbArc
 50
17.600483035
 51
90.0000780134
  0
ARC
  5
A2
330
1F
100
AcDbEntity
  8
0
  6
CONTINUOUS
 62
     7
100
AcDbCircle
 10
617.3088704834
 20
45.766936833
 30
0.0
 40
5.170000000000068
100
AcDbArc
 50
197.600483035
 51
24.8879103957
  0
ARC
  5
A3
330
1F
100
AcDbEntity
  8
0
  6
CONTINUOUS
 62
     7
100
AcDbCircle
 10
622.9058800697
 20
48.3635468713
 30
0.0
 40
0.9999999999999156
100
AcDbArc
 50
180.0
 51
204.8879103957
  0
LINE
  5
A4
330
1F
100
AcDbEntity
  8
0
  6
CONTINUOUS
 62
     7
100
AcDbLine
 10
621.9058847259
 20
53.7789775551
 30
0.0
 11
621.9058847259
 21
48.3635453999
 31
0.0
  0
ARC
  5
A5
330
1F
100
AcDbEntity
  8
0
  6
CONTINUOUS
 62
     7
100
AcDbCircle
 10
622.9059386204
 20
53.7789774291
 30
0.0
 40
1.000058499120344
100
AcDbArc
 50
155.1122825634
 51
179.9999859692
  0
ARC
  5
A6
330
1F
100
AcDbEntity
  8
0
  6
CONTINUOUS
 62
     7
100
AcDbCircle
 10
617.3088688184
 20
56.3755965538
 30
0.0
 40
5.170000000000036
100
AcDbArc
 50
335.1122417738
 51
3.9447297197
  0
LINE
  5
A7
330
1F
100
AcDbEntity
  8
0
  6
CONTINUOUS
 62
     7
100
AcDbLine
 10
622.466645224
 20
56.731262666
 30
0.0
 11
1008.1945872139
 21
56.731262666
 31
0.0
  0
ARC
  5
A8
330
1F
100
AcDbEntity
  8
0
  6
CONTINUOUS
 62
     7
100
AcDbCircle
 10
1013.352289656
 20
56.3755877122
 30
0.0
 40
5.169998480218216
100
AcDbArc
 50
176.0551709005
 51
204.887805684
  0
ARC
  5
A9
330
1F
100
AcDbEntity
  8
0
  6
CONTINUOUS
 62
     7
100
AcDbCircle
 10
1007.7552800697
 20
53.7789901044
 30
0.0
 40
0.9999978082912171
100
AcDbArc
 50
0.0
 51
24.887805684
  0
LINE
  5
AA
330
1F
100
AcDbEntity
  8
0
  6
CONTINUOUS
 62
     7
100
AcDbLine
 10
1008.7552285026
 20
48.3635342241
 30
0.0
 11
1008.7552285026
 21
53.7789887309
 31
0.0
  0
ARC
  5
AB
330
1F
100
AcDbEntity
  8
0
  6
CONTINUOUS
 62
     7
100
AcDbCircle
 10
1007.7552800697
 20
48.3635344408
 30
0.0
 40
1.000000000000114
100
AcDbArc
 50
335.1121263429
 51
0.0
  0
ARC
  5
AC
330
1F
100
AcDbEntity
  8
0
  6
CONTINUOUS
 62
     7
100
AcDbCircle
 10
1013.352291321
 20
45.7669279914
 30
0.0
 40
5.170000000000188
100
AcDbArc
 50
155.1121263429
 51
342.3995494633
  0
ARC
  5
AD
330
1F
100
AcDbEntity
  8
0
  6
CONTINUOUS
 62
     7
100
AcDbCircle
 10
1019.2334630711
 20
43.9012595197
 30
0.0
 40
1.000000000000039
100
AcDbArc
 50
90.0000780134
 51
162.3995494632
  0
LINE
  5
AE
330
1F
100
AcDbEntity
  8
0
  6
CONTINUOUS
 62
     7
100
AcDbLine
 10
1023.2770657371
 20
44.9012643218
 30
0.0
 11
1019.2334866356
 21
44.9012605965
 31
0.0
  0
ARC
  5
AF
330
1F
100
AcDbEntity
  8
0
  6
CONTINUOUS
 62
     7
100
AcDbCircle
 10
1023.2770997915
 20
43.9012650255
 30
0.0
 40
1.000000000000072
100
AcDbArc
 50
17.600483035
 51
90.0000780134
  0
ARC
  5
B0
330
1F
100
AcDbEntity
  8
0
  6
CONTINUOUS
 62
     7
100
AcDbCircle
 10
1029.1582704834
 20
45.766936833
 30
0.0
 40
5.170000000000126
100
AcDbArc
 50
197.600483035
 51
24.8879103957
  0
ARC
  5
B1
330
1F
100
AcDbEntity
  8
0
  6
CONTINUOUS
 62
     7
100
AcDbCircle
 10
1034.7552800697
 20
48.3635468713
 30
0.0
 40
1.0
100
AcDbArc
 50
180.0
 51
204.8879103957
  0
LINE
  5
B2
330
1F
100
AcDbEntity
  8
0
  6
CONTINUOUS
 62
     7
100
AcDbLine
 10
1033.7553238701
 20
53.7789775551
 30
0.0
 11
1033.7553238701
 21
48.3635453999
 31
0.0
  0
ARC
  5
B3
330
1F
100
AcDbEntity
  8
0
  6
CONTINUOUS
 62
     7
100
AcDbCircle
 10
1034.7553386204
 20
53.7789774291
 30
0.0
 40
1.000058499120344
100
AcDbArc
 50
155.1122825633
 51
179.9999859692
  0
ARC
  5
B4
330
1F
100
AcDbEntity
  8
0
  6
CONTINUOUS
 62
     7
100
AcDbCircle
 10
1029.1582688184
 20
56.3755965538
 30
0.0
 40
5.17000000000027
100
AcDbArc
 50
335.1122417738
 51
3.9447297197
  0
LINE
  5
B5
330
1F
100
AcDbEntity
  8
0
  6
CONTINUOUS
 62
     7
100
AcDbLine
 10
1034.3159651588
 20
56.731262666
 30
0.0
 11
1061.4283299278
 21
56.731262666
 31
0.0
  0
LINE
  5
B6
330
1F
100
AcDbEntity
  8
0
  6
CONTINUOUS
 62
     7
100
AcDbLine
 10
1061.4283299278
 20
36.0712608815
 30
0.0
 11
1061.4283299278
 21
56.731262666
 31
0.0
  0
ARC
  5
B7
330
1F
100
AcDbEntity
  8
0
  6
CONTINUOUS
 62
     7
100
AcDbCircle
 10
1055.4282800697
 20
36.0712622726
 30
0.0
 40
6.000000000000004
100
AcDbArc
 50
270.0
 51
0.0
  0
LINE
  5
B8
330
1F
100
AcDbEntity
  8
0
  6
CONTINUOUS
 62
     7
100
AcDbLine
 10
565.4282784294
 20
30.0712617606
 30
0.0
 11
1055.4282879661
 21
30.0712617606
 31
0.0
  0
ARC
  5
B9
330
1F
100
AcDbEntity
  8
0
  6
CONTINUOUS
 62
     7
100
AcDbCircle
 10
565.4282800697
 20
36.0712622726
 30
0.0
 40
6.000000000000004
100
AcDbArc
 50
180.0
 51
270.0
  0
LINE
  5
BA
330
1F
100
AcDbEntity
  8
0
  6
CONTINUOUS
 62
     7
100
AcDbLine
 10
559.4282960724
 20
56.731262666
 30
0.0
 11
559.4282960724
 21
36.0712608815
 31
0.0
  0
LINE
  5
BB
330
1F
100
AcDbEntity
  8
0
  6
CONTINUOUS
 62
     7
100
AcDbLine
 10
559.4282960724
 20
56.731262666
 30
0.0
 11
596.3451480697
 21
56.731262666
 31
0.0
  0
LINE
  5
BC
330
1F
100
AcDbEntity
  8
0
  6
CONTINUOUS
 62
     7
100
AcDbLine
 10
1021.4282488655
 20
69.4112642229
 30
0.0
 11
1021.4282488655
 21
428.7312640369
 31
0.0
  0
LINE
  5
BD
330
1F
100
AcDbEntity
  8
0
  6
CONTINUOUS
 62
     7
100
AcDbLine
 10
1021.4282488655
 20
428.7312640369
 30
0.0
 11
1061.4283299278
 21
428.7312640369
 31
0.0
  0
LINE
  5
BE
330
1F
100
AcDbEntity
  8
0
  6
CONTINUOUS
 62
     7
100
AcDbLine
 10
1061.4283299278
 20
69.4112642229
 30
0.0
 11
1021.4282488655
 21
69.4112642229
 31
0.0
  0
LINE
  5
BF
330
1F
100
AcDbEntity
  8
0
  6
CONTINUOUS
 62
     7
100
AcDbLine
 10
1061.4283299278
 20
69.4112642229
 30
0.0
 11
1061.4283299278
 21
428.7312640369
 31
0.0
  0
LINE
  5
C0
330
1F
100
AcDbEntity
  8
0
  6
CONTINUOUS
 62
     7
100
AcDbLine
 10
559.4282960724
 20
428.7312640369
 30
0.0
 11
559.4282960724
 21
69.4112642229
 31
0.0
  0
LINE
  5
C1
330
1F
100
AcDbEntity
  8
0
  6
CONTINUOUS
 62
     7
100
AcDbLine
 10
1009.0882992576
 20
69.4112642229
 30
0.0
 11
559.4282960724
 21
69.4112642229
 31
0.0
  0
LINE
  5
C2
330
1F
100
AcDbEntity
  8
0
  6
CONTINUOUS
 62
     7
100
AcDbLine
 10
559.4282960724
 20
428.7312640369
 30
0.0
 11
1009.0882992576
 21
428.7312640369
 31
0.0
  0
LINE
  5
C3
330
1F
100
AcDbEntity
  8
0
  6
CONTINUOUS
 62
     7
100
AcDbLine
 10
1009.0882992576
 20
428.7312640369
 30
0.0
 11
1009.0882992576
 21
69.4112642229
 31
0.0
  0
ARC
  5
C4
330
1F
100
AcDbEntity
  8
0
  6
CONTINUOUS
 62
     7
100
AcDbCircle
 10
1023.2770970684
 20
58.2412650255
 30
0.0
 40
0.9999999999999322
100
AcDbArc
 50
270.0000780134
 51
342.3995494633
  0
LINE
  5
C5
330
1F
100
AcDbEntity
  8
0
  6
CONTINUOUS
 62
     7
100
AcDbLine
 10
1023.2770657371
 20
57.2412660838
 30
0.0
 11
1019.2334866356
 21
57.2412586332
 31
0.0
  0
ARC
  5
C6
330
1F
100
AcDbEntity
  8
0
  6
CONTINUOUS
 62
     7
100
AcDbCircle
 10
1019.2334603479
 20
58.2412595197
 30
0.0
 40
1.00000000000004
100
AcDbArc
 50
197.600483035
 51
270.0000780134
  0
ARC
  5
C7
330
1F
100
AcDbEntity
  8
0
  6
CONTINUOUS
 62
     7
100
AcDbCircle
 10
611.4276970684
 20
58.2412650255
 30
0.0
 40
1.000000000000039
100
AcDbArc
 50
270.0000780134
 51
342.3995494632
  0
LINE
  5
C8
330
1F
100
AcDbEntity
  8
0
  6
CONTINUOUS
 62
     7
100
AcDbLine
 10
611.4276861976
 20
57.2412660838
 30
0.0
 11
607.3840474914
 21
57.2412586332
 31
0.0
  0
ARC
  5
C9
330
1F
100
AcDbEntity
  8
0
  6
CONTINUOUS
 62
     7
100
AcDbCircle
 10
607.3840603479
 20
58.2412595197
 30
0.0
 40
1.000000000000039
100
AcDbArc
 50
197.600483035
 51
270.0000780134
  0
ARC
  5
CA
330
1F
100
AcDbEntity
  8
0
  6
CONTINUOUS
 62
     7
100
AcDbCircle
 10
607.3840631247
 20
439.9012594113
 30
0.0
 40
1.000000000000043
100
AcDbArc
 50
90.0000810874
 51
162.3995501035
  0
LINE
  5
CB
330
1F
100
AcDbEntity
  8
0
  6
CONTINUOUS
 62
     7
100
AcDbLine
 10
607.3840474914
 20
440.9012510002
 30
0.0
 11
611.4276861976
 21
440.9012510002
 31
0.0
  0
ARC
  5
CC
330
1F
100
AcDbEntity
  8
0
  6
CONTINUOUS
 62
     7
100
AcDbCircle
 10
611.4276998452
 20
439.901265134
 30
0.0
 40
0.9999999999999782
100
AcDbArc
 50
17.6004836752
 51
90.0000810874
  0
ARC
  5
CD
330
1F
100
AcDbEntity
  8
0
  6
CONTINUOUS
 62
     7
100
AcDbCircle
 10
1019.2334631247
 20
439.9012594113
 30
0.0
 40
1.000000000000043
100
AcDbArc
 50
90.0000810874
 51
162.3995501035
  0
LINE
  5
CE
330
1F
100
AcDbEntity
  8
0
  6
CONTINUOUS
 62
     7
100
AcDbLine
 10
1019.2334866356
 20
440.9012510002
 30
0.0
 11
1023.2770657371
 21
440.9012510002
 31
0.0
  0
ARC
  5
CF
330
1F
100
AcDbEntity
  8
0
  6
CONTINUOUS
 62
     7
100
AcDbCircle
 10
1023.2770998452
 20
439.901265134
 30
0.0
 40
1.000000000000035
100
AcDbArc
 50
17.6004836752
 51
90.0000810874
  0
LINE
  5
D0
330
1F
100
AcDbEntity
  8
0
  6
CONTINUOUS
 62
     7
100
AcDbLine
 10
559.4282960724
 20
428.7312640369
 30
0.0
 11
559.4282960724
 21
441.4112581432
 31
0.0
  0
LINE
  5
D1
330
1F
100
AcDbEntity
  8
0
  6
CONTINUOUS
 62
     7
100
AcDbLine
 10
559.4282960724
 20
56.731262666
 30
0.0
 11
559.4282960724
 21
69.4112642229
 31
0.0
  0
ARC
  5
D2
330
1F
100
AcDbEntity
  8
0
  6
CONTINUOUS
 62
     7
100
AcDbCircle
 10
1013.352289656
 20
56.3755877122
 30
0.0
 40
5.169999999999992
100
AcDbArc
 50
17.600483035
 51
176.0551709005
  0
ARC
  5
D3
330
1F
100
AcDbEntity
  8
0
  6
CONTINUOUS
 62
     7
100
AcDbCircle
 10
1029.1582688184
 20
56.3755965538
 30
0.0
 40
5.17000000000027
100
AcDbArc
 50
3.9447297197
 51
162.3995494632
  0
ARC
  5
D4
330
1F
100
AcDbEntity
  8
0
  6
CONTINUOUS
 62
     7
100
AcDbCircle
 10
1013.3522913538
 20
441.7669278172
 30
0.0
 40
5.170000000000006
100
AcDbArc
 50
183.9447277847
 51
342.3995501035
  0
ARC
  5
D5
330
1F
100
AcDbEntity
  8
0
  6
CONTINUOUS
 62
     7
100
AcDbCircle
 10
1029.1582705162
 20
441.7669370072
 30
0.0
 40
5.170000000000078
100
AcDbArc
 50
197.6004836752
 51
356.0551701269
  0
LINE
  5
D6
330
1F
100
AcDbEntity
  8
0
  6
CONTINUOUS
 62
     7
100
AcDbLine
 10
1061.4283299278
 20
441.4112581432
 30
0.0
 11
1061.4283299278
 21
428.7312640369
 31
0.0
  0
LINE
  5
D7
330
1F
100
AcDbEntity
  8
0
  6
CONTINUOUS
 62
     7
100
AcDbLine
 10
1061.4283299278
 20
69.4112642229
 30
0.0
 11
1061.4283299278
 21
56.731262666
 31
0.0
  0
ARC
  5
D8
330
1F
100
AcDbEntity
  8
0
  6
CONTINUOUS
 62
     7
100
AcDbCircle
 10
617.3088688184
 20
56.3755965538
 30
0.0
 40
5.169999999999998
100
AcDbArc
 50
3.9447297197
 51
162.3995494633
  0
ARC
  5
D9
330
1F
100
AcDbEntity
  8
0
  6
CONTINUOUS
 62
     7
100
AcDbCircle
 10
617.3088705162
 20
441.7669370072
 30
0.0
 40
5.170000000000023
100
AcDbArc
 50
197.6004836752
 51
356.0551701269
  0
ARC
  5
DA
330
1F
100
AcDbEntity
  8
0
  6
CONTINUOUS
 62
     7
100
AcDbCircle
 10
601.502889656
 20
56.3755877122
 30
0.0
 40
5.1700000000001
100
AcDbArc
 50
17.600483035
 51
176.0551709005
  0
ARC
  5
DB
330
1F
100
AcDbEntity
  8
0
  6
CONTINUOUS
 62
     7
100
AcDbCircle
 10
601.5028913538
 20
441.7669278172
 30
0.0
 40
5.170000000000023
100
AcDbArc
 50
183.9447277847
 51
342.3995501035
  0
ARC
  5
DC
330
1F
100
AcDbEntity
  8
0
  6
CONTINUOUS
 62
     7
100
AcDbCircle
 10
31.9482800697
 20
462.0712622726
 30
0.0
 40
6.000000000000007
100
AcDbArc
 50
90.0
 51
180.0
  0
LINE
  5
DD
330
1F
100
AcDbEntity
  8
0
  6
CONTINUOUS
 62
     7
100
AcDbLine
 10
31.9482786785
 20
468.0712534607
 30
0.0
 11
521.9482993911
 21
468.0712534607
 31
0.0
  0
ARC
  5
DE
330
1F
100
AcDbEntity
  8
0
  6
CONTINUOUS
 62
     7
100
AcDbCircle
 10
521.9482800697
 20
462.0712622726
 30
0.0
 40
6.000000000000057
100
AcDbArc
 50
360.0
 51
90.0
  0
LINE
  5
DF
330
1F
100
AcDbEntity
  8
0
  6
CONTINUOUS
 62
     7
100
AcDbLine
 10
527.9482817482
 20
462.0712711037
 30
0.0
 11
527.9482817482
 21
441.4112581432
 31
0.0
  0
LINE
  5
E0
330
1F
100
AcDbEntity
  8
0
  6
CONTINUOUS
 62
     7
100
AcDbLine
 10
500.8360361885
 20
441.4112581432
 30
0.0
 11
527.9482817482
 21
441.4112581432
 31
0.0
  0
ARC
  5
E1
330
1F
100
AcDbEntity
  8
0
  6
CONTINUOUS
 62
     7
100
AcDbCircle
 10
495.6782704834
 20
441.766936833
 30
0.0
 40
5.170000000000014
100
AcDbArc
 50
356.055172062
 51
24.8879103957
  0
ARC
  5
E2
330
1F
100
AcDbEntity
  8
0
  6
CONTINUOUS
 62
     7
100
AcDbCircle
 10
501.2752800697
 20
444.3635468713
 30
0.0
 40
1.000000000000057
100
AcDbArc
 50
180.0
 51
204.8879103957
  0
LINE
  5
E3
330
1F
100
AcDbEntity
  8
0
  6
CONTINUOUS
 62
     7
100
AcDbLine
 10
500.2752756904
 20
449.7789754093
 30
0.0
 11
500.2752756904
 21
444.3635358036
 31
0.0
  0
ARC
  5
E4
330
1F
100
AcDbEntity
  8
0
  6
CONTINUOUS
 62
     7
100
AcDbCircle
 10
501.2753386204
 20
449.7789774291
 30
0.0
 40
1.000058499120117
100
AcDbArc
 50
155.1122825634
 51
179.9999859692
  0
ARC
  5
E5
330
1F
100
AcDbEntity
  8
0
  6
CONTINUOUS
 62
     7
100
AcDbCircle
 10
495.6782688184
 20
452.3755965538
 30
0.0
 40
5.169999999999942
100
AcDbArc
 50
335.1122417738
 51
162.3995494633
  0
ARC
  5
E6
330
1F
100
AcDbEntity
  8
0
  6
CONTINUOUS
 62
     7
100
AcDbCircle
 10
489.7970970684
 20
454.2412650255
 30
0.0
 40
1.000000000000095
100
AcDbArc
 50
270.0000780134
 51
342.3995494632
  0
LINE
  5
E7
330
1F
100
AcDbEntity
  8
0
  6
CONTINUOUS
 62
     7
100
AcDbLine
 10
485.7534682583
 20
453.2412602127
 30
0.0
 11
489.7971069645
 21
453.2412602127
 31
0.0
  0
ARC
  5
E8
330
1F
100
AcDbEntity
  8
0
  6
CONTINUOUS
 62
     7
100
AcDbCircle
 10
485.7534603479
 20
454.2412595197
 30
0.0
 40
1.000001519781799
100
AcDbArc
 50
197.600483035
 51
270.0000780134
  0
ARC
  5
E9
330
1F
100
AcDbEntity
  8
0
  6
CONTINUOUS
 62
     7
100
AcDbCircle
 10
479.872289656
 20
452.3755877122
 30
0.0
 40
5.16999848021826
100
AcDbArc
 50
17.600483035
 51
204.887805684
  0
ARC
  5
EA
330
1F
100
AcDbEntity
  8
0
  6
CONTINUOUS
 62
     7
100
AcDbCircle
 10
474.2752800697
 20
449.7789901045
 30
0.0
 40
0.9999978082910497
100
AcDbArc
 50
0.0
 51
24.887805684
  0
LINE
  5
EB
330
1F
100
AcDbEntity
  8
0
  6
CONTINUOUS
 62
     7
100
AcDbLine
 10
475.27526973
 20
444.3635358036
 30
0.0
 11
475.27526973
 21
449.7789754093
 31
0.0
  0
ARC
  5
EC
330
1F
100
AcDbEntity
  8
0
  6
CONTINUOUS
 62
     7
100
AcDbCircle
 10
474.2752800697
 20
444.3635344408
 30
0.0
 40
0.9999999999999882
100
AcDbArc
 50
335.1121263429
 51
0.0
  0
ARC
  5
ED
330
1F
100
AcDbEntity
  8
0
  6
CONTINUOUS
 62
     7
100
AcDbCircle
 10
479.872291321
 20
441.7669279914
 30
0.0
 40
5.169999999999987
100
AcDbArc
 50
155.1121263429
 51
183.9447297197
  0
LINE
  5
EE
330
1F
100
AcDbEntity
  8
0
  6
CONTINUOUS
 62
     7
100
AcDbLine
 10
88.8420185279
 20
441.4112581432
 30
0.0
 11
474.7145390342
 21
441.4112581432
 31
0.0
  0
ARC
  5
EF
330
1F
100
AcDbEntity
  8
0
  6
CONTINUOUS
 62
     7
100
AcDbCircle
 10
83.6842704834
 20
441.766936833
 30
0.0
 40
5.170000000000012
100
AcDbArc
 50
356.055172062
 51
24.8879103957
  0
ARC
  5
F0
330
1F
100
AcDbEntity
  8
0
  6
CONTINUOUS
 62
     7
100
AcDbCircle
 10
89.2812800697
 20
444.3635468713
 30
0.0
 40
1.0
100
AcDbArc
 50
180.0
 51
204.8879103957
  0
LINE
  5
F1
330
1F
100
AcDbEntity
  8
0
  6
CONTINUOUS
 62
     7
100
AcDbLine
 10
88.2812803816
 20
449.7789754093
 30
0.0
 11
88.2812803816
 21
444.3635358036
 31
0.0
  0
ARC
  5
F2
330
1F
100
AcDbEntity
  8
0
  6
CONTINUOUS
 62
     7
100
AcDbCircle
 10
89.2813386204
 20
449.7789774291
 30
0.0
 40
1.000058499120245
100
AcDbArc
 50
155.1122825634
 51
179.9999859692
  0
ARC
  5
F3
330
1F
100
AcDbEntity
  8
0
  6
CONTINUOUS
 62
     7
100
AcDbCircle
 10
83.6842688184
 20
452.3755965538
 30
0.0
 40
5.170000000000064
100
AcDbArc
 50
335.1122417738
 51
162.3995494633
  0
ARC
  5
F4
330
1F
100
AcDbEntity
  8
0
  6
CONTINUOUS
 62
     7
100
AcDbCircle
 10
77.8030970684
 20
454.2412650255
 30
0.0
 40
1.000000000000017
100
AcDbArc
 50
270.0000780134
 51
342.3995494632
  0
LINE
  5
F5
330
1F
100
AcDbEntity
  8
0
  6
CONTINUOUS
 62
     7
100
AcDbLine
 10
73.7594580482
 20
453.2412602127
 30
0.0
 11
77.8030967544
 21
453.2412602127
 31
0.0
  0
ARC
  5
F6
330
1F
100
AcDbEntity
  8
0
  6
CONTINUOUS
 62
     7
100
AcDbCircle
 10
73.7594603479
 20
454.2412595197
 30
0.0
 40
1.000001519781813
100
AcDbArc
 50
197.600483035
 51
270.0000780134
  0
ARC
  5
F7
330
1F
100
AcDbEntity
  8
0
  6
CONTINUOUS
 62
     7
100
AcDbCircle
 10
67.878289656
 20
452.3755877122
 30
0.0
 40
5.169998480218216
100
AcDbArc
 50
17.600483035
 51
204.887805684
  0
ARC
  5
F8
330
1F
100
AcDbEntity
  8
0
  6
CONTINUOUS
 62
     7
100
AcDbCircle
 10
62.2812800697
 20
449.7789901045
 30
0.0
 40
0.9999978082910065
100
AcDbArc
 50
0.0
 51
24.887805684
  0
LINE
  5
F9
330
1F
100
AcDbEntity
  8
0
  6
CONTINUOUS
 62
     7
100
AcDbLine
 10
63.2812818717
 20
444.3635358036
 30
0.0
 11
63.2812744211
 21
449.7789754093
 31
0.0
  0
ARC
  5
FA
330
1F
100
AcDbEntity
  8
0
  6
CONTINUOUS
 62
     7
100
AcDbCircle
 10
62.2812800697
 20
444.3635344408
 30
0.0
 40
1.000000000000091
100
AcDbArc
 50
335.1121263429
 51
0.0
  0
ARC
  5
FB
330
1F
100
AcDbEntity
  8
0
  6
CONTINUOUS
 62
     7
100
AcDbCircle
 10
67.878291321
 20
441.7669279914
 30
0.0
 40
5.16999999999999
100
AcDbArc
 50
155.1121263429
 51
183.9447297197
  0
LINE
  5
FC
330
1F
100
AcDbEntity
  8
0
  6
CONTINUOUS
 62
     7
100
AcDbLine
 10
25.9482795577
 20
441.4112581432
 30
0.0
 11
62.7205362748
 21
441.4112581432
 31
0.0
  0
LINE
  5
FD
330
1F
100
AcDbEntity
  8
0
  6
CONTINUOUS
 62
     7
100
AcDbLine
 10
25.9482795577
 20
441.4112581432
 30
0.0
 11
25.9482795577
 21
462.0712711037
 31
0.0
  0
LINE
  5
FE
330
1F
100
AcDbEntity
  8
0
  6
CONTINUOUS
 62
     7
100
AcDbLine
 10
487.9482900928
 20
428.7312640369
 30
0.0
 11
487.9482900928
 21
69.4112642229
 31
0.0
  0
LINE
  5
FF
330
1F
100
AcDbEntity
  8
0
  6
CONTINUOUS
 62
     7
100
AcDbLine
 10
527.9482817482
 20
428.7312640369
 30
0.0
 11
527.9482817482
 21
69.4112642229
 31
0.0
  0
LINE
  5
100
330
1F
100
AcDbEntity
  8
0
  6
CONTINUOUS
 62
     7
100
AcDbLine
 10
527.9482817482
 20
428.7312640369
 30
0.0
 11
487.9482900928
 21
428.7312640369
 31
0.0
  0
LINE
  5
101
330
1F
100
AcDbEntity
  8
0
  6
CONTINUOUS
 62
     7
100
AcDbLine
 10
487.9482900928
 20
69.4112642229
 30
0.0
 11
527.9482817482
 21
69.4112642229
 31
0.0
  0
ARC
  5
102
330
1F
100
AcDbEntity
  8
0
  6
CONTINUOUS
 62
     7
100
AcDbCircle
 10
31.9482800697
 20
36.0712622726
 30
0.0
 40
6.000000000000227
100
AcDbArc
 50
180.0
 51
270.0
  0
LINE
  5
103
330
1F
100
AcDbEntity
  8
0
  6
CONTINUOUS
 62
     7
100
AcDbLine
 10
25.9482795577
 20
36.0712608815
 30
0.0
 11
25.9482795577
 21
56.731262666
 31
0.0
  0
LINE
  5
104
330
1F
100
AcDbEntity
  8
0
  6
CONTINUOUS
 62
     7
100
AcDbLine
 10
62.7205437254
 20
56.731262666
 30
0.0
 11
25.9482795577
 21
56.731262666
 31
0.0
  0
ARC
  5
105
330
1F
100
AcDbEntity
  8
0
  6
CONTINUOUS
 62
     7
100
AcDbCircle
 10
67.8782896232
 20
56.375587538
 30
0.0
 40
5.169998420334319
100
AcDbArc
 50
176.0551689197
 51
204.8878022818
  0
ARC
  5
106
330
1F
100
AcDbEntity
  8
0
  6
CONTINUOUS
 62
     7
100
AcDbCircle
 10
62.2812800697
 20
53.7789903493
 30
0.0
 40
0.9999977219312144
100
AcDbArc
 50
0.0
 51
24.8878022818
  0
LINE
  5
107
330
1F
100
AcDbEntity
  8
0
  6
CONTINUOUS
 62
     7
100
AcDbLine
 10
63.2812818717
 20
48.3635342241
 30
0.0
 11
63.2812744211
 21
53.7789887309
 31
0.0
  0
ARC
  5
108
330
1F
100
AcDbEntity
  8
0
  6
CONTINUOUS
 62
     7
100
AcDbCircle
 10
62.2812800697
 20
48.3635341959
 30
0.0
 40
1.000000000000081
100
AcDbArc
 50
335.1121270667
 51
0.0
  0
ARC
  5
109
330
1F
100
AcDbEntity
  8
0
  6
CONTINUOUS
 62
     7
100
AcDbCircle
 10
67.8782913538
 20
45.7669278172
 30
0.0
 40
5.170000000000025
100
AcDbArc
 50
155.1121270667
 51
342.3995501035
  0
ARC
  5
10A
330
1F
100
AcDbEntity
  8
0
  6
CONTINUOUS
 62
     7
100
AcDbCircle
 10
73.7594631247
 20
43.9012594113
 30
0.0
 40
1.000000000000033
100
AcDbArc
 50
90.0000810874
 51
162.3995501035
  0
LINE
  5
10B
330
1F
100
AcDbEntity
  8
0
  6
CONTINUOUS
 62
     7
100
AcDbLine
 10
77.8030967544
 20
44.9012643218
 30
0.0
 11
73.7594580482
 21
44.9012605965
 31
0.0
  0
ARC
  5
10C
330
1F
100
AcDbEntity
  8
0
  6
CONTINUOUS
 62
     7
100
AcDbCircle
 10
77.8030998452
 20
43.901265134
 30
0.0
 40
1.000000000000061
100
AcDbArc
 50
17.6004836752
 51
90.0000810874
  0
ARC
  5
10D
330
1F
100
AcDbEntity
  8
0
  6
CONTINUOUS
 62
     7
100
AcDbCircle
 10
83.6842705162
 20
45.7669370072
 30
0.0
 40
5.169999999999989
100
AcDbArc
 50
197.6004836752
 51
24.8879111195
  0
ARC
  5
10E
330
1F
100
AcDbEntity
  8
0
  6
CONTINUOUS
 62
     7
100
AcDbCircle
 10
89.2812800697
 20
48.3635471161
 30
0.0
 40
1.0
100
AcDbArc
 50
180.0
 51
204.8879111195
  0
LINE
  5
10F
330
1F
100
AcDbEntity
  8
0
  6
CONTINUOUS
 62
     7
100
AcDbLine
 10
88.2812803816
 20
53.7789775551
 30
0.0
 11
88.2812803816
 21
48.3635453999
 31
0.0
  0
ARC
  5
110
330
1F
100
AcDbEntity
  8
0
  6
CONTINUOUS
 62
     7
100
AcDbCircle
 10
89.2813386204
 20
53.7789774291
 30
0.0
 40
1.000058550652
100
AcDbArc
 50
155.1122470459
 51
180.0
  0
ARC
  5
111
330
1F
100
AcDbEntity
  8
0
  6
CONTINUOUS
 62
     7
100
AcDbCircle
 10
83.6842687856
 20
56.375596728
 30
0.0
 40
5.170000000000059
100
AcDbArc
 50
335.1122470459
 51
3.9447277847
  0
LINE
  5
112
330
1F
100
AcDbEntity
  8
0
  6
CONTINUOUS
 62
     7
100
AcDbLine
 10
474.7145390342
 20
56.731262666
 30
0.0
 11
88.8420185279
 21
56.731262666
 31
0.0
  0
ARC
  5
113
330
1F
100
AcDbEntity
  8
0
  6
CONTINUOUS
 62
     7
100
AcDbCircle
 10
479.8722896232
 20
56.375587538
 30
0.0
 40
5.169998420334204
100
AcDbArc
 50
176.0551689198
 51
204.8878022818
  0
ARC
  5
114
330
1F
100
AcDbEntity
  8
0
  6
CONTINUOUS
 62
     7
100
AcDbCircle
 10
474.2752800697
 20
53.7789903493
 30
0.0
 40
0.9999977219313071
100
AcDbArc
 50
0.0
 51
24.8878022819
  0
LINE
  5
115
330
1F
100
AcDbEntity
  8
0
  6
CONTINUOUS
 62
     7
100
AcDbLine
 10
475.27526973
 20
48.3635342241
 30
0.0
 11
475.27526973
 21
53.7789887309
 31
0.0
  0
ARC
  5
116
330
1F
100
AcDbEntity
  8
0
  6
CONTINUOUS
 62
     7
100
AcDbCircle
 10
474.2752800697
 20
48.3635341959
 30
0.0
 40
1.0
100
AcDbArc
 50
335.1121270667
 51
0.0
  0
ARC
  5
117
330
1F
100
AcDbEntity
  8
0
  6
CONTINUOUS
 62
     7
100
AcDbCircle
 10
479.8722913538
 20
45.7669278172
 30
0.0
 40
5.170000000000038
100
AcDbArc
 50
155.1121270667
 51
342.3995501035
  0
ARC
  5
118
330
1F
100
AcDbEntity
  8
0
  6
CONTINUOUS
 62
     7
100
AcDbCircle
 10
485.7534631247
 20
43.9012594113
 30
0.0
 40
1.000000000000054
100
AcDbArc
 50
90.0000810874
 51
162.3995501035
  0
LINE
  5
119
330
1F
100
AcDbEntity
  8
0
  6
CONTINUOUS
 62
     7
100
AcDbLine
 10
489.7971069645
 20
44.9012643218
 30
0.0
 11
485.7534682583
 21
44.9012605965
 31
0.0
  0
ARC
  5
11A
330
1F
100
AcDbEntity
  8
0
  6
CONTINUOUS
 62
     7
100
AcDbCircle
 10
489.7970998452
 20
43.901265134
 30
0.0
 40
0.9999999999999684
100
AcDbArc
 50
17.6004836752
 51
90.0000810874
  0
ARC
  5
11B
330
1F
100
AcDbEntity
  8
0
  6
CONTINUOUS
 62
     7
100
AcDbCircle
 10
495.6782705162
 20
45.7669370072
 30
0.0
 40
5.17000000000007
100
AcDbArc
 50
197.6004836752
 51
24.8879111195
  0
ARC
  5
11C
330
1F
100
AcDbEntity
  8
0
  6
CONTINUOUS
 62
     7
100
AcDbCircle
 10
501.2752800697
 20
48.3635471161
 30
0.0
 40
1.0
100
AcDbArc
 50
180.0
 51
204.8879111195
  0
LINE
  5
11D
330
1F
100
AcDbEntity
  8
0
  6
CONTINUOUS
 62
     7
100
AcDbLine
 10
500.2752756904
 20
53.7789775551
 30
0.0
 11
500.2752756904
 21
48.3635453999
 31
0.0
  0
ARC
  5
11E
330
1F
100
AcDbEntity
  8
0
  6
CONTINUOUS
 62
     7
100
AcDbCircle
 10
501.2753386204
 20
53.7789774291
 30
0.0
 40
1.000058550652
100
AcDbArc
 50
155.1122470459
 51
180.0
  0
ARC
  5
11F
330
1F
100
AcDbEntity
  8
0
  6
CONTINUOUS
 62
     7
100
AcDbCircle
 10
495.6782687856
 20
56.375596728
 30
0.0
 40
5.170000000000081
100
AcDbArc
 50
335.1122470459
 51
3.9447277846
  0
LINE
  5
120
330
1F
100
AcDbEntity
  8
0
  6
CONTINUOUS
 62
     7
100
AcDbLine
 10
527.9482817482
 20
56.731262666
 30
0.0
 11
527.9482817482
 21
36.0712608815
 31
0.0
  0
ARC
  5
121
330
1F
100
AcDbEntity
  8
0
  6
CONTINUOUS
 62
     7
100
AcDbCircle
 10
521.9482800697
 20
36.0712622726
 30
0.0
 40
6.000000000000004
100
AcDbArc
 50
270.0
 51
0.0
  0
LINE
  5
122
330
1F
100
AcDbEntity
  8
0
  6
CONTINUOUS
 62
     7
100
AcDbLine
 10
521.9482993911
 20
30.0712617606
 30
0.0
 11
31.9482786785
 21
30.0712617606
 31
0.0
  0
LINE
  5
123
330
1F
100
AcDbEntity
  8
0
  6
CONTINUOUS
 62
     7
100
AcDbLine
 10
527.9482817482
 20
56.731262666
 30
0.0
 11
500.8360361885
 21
56.731262666
 31
0.0
  0
LINE
  5
124
330
1F
100
AcDbEntity
  8
0
  6
CONTINUOUS
 62
     7
100
AcDbLine
 10
25.9482795577
 20
69.4112642229
 30
0.0
 11
25.9482795577
 21
428.7312640369
 31
0.0
  0
LINE
  5
125
330
1F
100
AcDbEntity
  8
0
  6
CONTINUOUS
 62
     7
100
AcDbLine
 10
475.6082808803
 20
69.4112642229
 30
0.0
 11
475.6082808803
 21
428.7312640369
 31
0.0
  0
LINE
  5
126
330
1F
100
AcDbEntity
  8
0
  6
CONTINUOUS
 62
     7
100
AcDbLine
 10
475.6082808803
 20
428.7312640369
 30
0.0
 11
25.9482795577
 21
428.7312640369
 31
0.0
  0
LINE
  5
127
330
1F
100
AcDbEntity
  8
0
  6
CONTINUOUS
 62
     7
100
AcDbLine
 10
25.9482795577
 20
69.4112642229
 30
0.0
 11
475.6082808803
 21
69.4112642229
 31
0.0
  0
ARC
  5
128
330
1F
100
AcDbEntity
  8
0
  6
CONTINUOUS
 62
     7
100
AcDbCircle
 10
489.7970970147
 20
58.241265134
 30
0.0
 40
1.000000000000007
100
AcDbArc
 50
270.0000810874
 51
342.3995501035
  0
LINE
  5
129
330
1F
100
AcDbEntity
  8
0
  6
CONTINUOUS
 62
     7
100
AcDbLine
 10
489.7971069645
 20
57.2412660838
 30
0.0
 11
485.7534682583
 21
57.2412586332
 31
0.0
  0
ARC
  5
12A
330
1F
100
AcDbEntity
  8
0
  6
CONTINUOUS
 62
     7
100
AcDbCircle
 10
485.7534602942
 20
58.2412594113
 30
0.0
 40
1.000000000000109
100
AcDbArc
 50
197.6004836752
 51
270.0000810874
  0
ARC
  5
12B
330
1F
100
AcDbEntity
  8
0
  6
CONTINUOUS
 62
     7
100
AcDbCircle
 10
77.8030970147
 20
58.241265134
 30
0.0
 40
1.000000000000007
100
AcDbArc
 50
270.0000810874
 51
342.3995501035
  0
LINE
  5
12C
330
1F
100
AcDbEntity
  8
0
  6
CONTINUOUS
 62
     7
100
AcDbLine
 10
77.8030967544
 20
57.2412660838
 30
0.0
 11
73.7594580482
 21
57.2412586332
 31
0.0
  0
ARC
  5
12D
330
1F
100
AcDbEntity
  8
0
  6
CONTINUOUS
 62
     7
100
AcDbCircle
 10
73.7594602942
 20
58.2412594113
 30
0.0
 40
1.000000000000097
100
AcDbArc
 50
197.6004836752
 51
270.0000810874
  0
ARC
  5
12E
330
1F
100
AcDbEntity
  8
0
  6
CONTINUOUS
 62
     7
100
AcDbCircle
 10
73.7594630711
 20
439.9012595197
 30
0.0
 40
1.000000000000017
100
AcDbArc
 50
90.0000780134
 51
162.3995494632
  0
LINE
  5
12F
330
1F
100
AcDbEntity
  8
0
  6
CONTINUOUS
 62
     7
100
AcDbLine
 10
73.7594580482
 20
440.9012510002
 30
0.0
 11
77.8030967544
 21
440.9012510002
 31
0.0
  0
ARC
  5
130
330
1F
100
AcDbEntity
  8
0
  6
CONTINUOUS
 62
     7
100
AcDbCircle
 10
77.8030997915
 20
439.9012650255
 30
0.0
 40
1.000000000000017
100
AcDbArc
 50
17.600483035
 51
90.0000780134
  0
ARC
  5
131
330
1F
100
AcDbEntity
  8
0
  6
CONTINUOUS
 62
     7
100
AcDbCircle
 10
485.7534630711
 20
439.9012595197
 30
0.0
 40
1.000000000000017
100
AcDbArc
 50
90.0000780134
 51
162.3995494632
  0
LINE
  5
132
330
1F
100
AcDbEntity
  8
0
  6
CONTINUOUS
 62
     7
100
AcDbLine
 10
485.7534682583
 20
440.9012510002
 30
0.0
 11
489.7971069645
 21
440.9012510002
 31
0.0
  0
ARC
  5
133
330
1F
100
AcDbEntity
  8
0
  6
CONTINUOUS
 62
     7
100
AcDbCircle
 10
489.7970997915
 20
439.9012650255
 30
0.0
 40
1.000000000000024
100
AcDbArc
 50
17.600483035
 51
90.0000780134
  0
LINE
  5
134
330
1F
100
AcDbEntity
  8
0
  6
CONTINUOUS
 62
     7
100
AcDbLine
 10
25.9482795577
 20
69.4112642229
 30
0.0
 11
25.9482795577
 21
56.731262666
 31
0.0
  0
LINE
  5
135
330
1F
100
AcDbEntity
  8
0
  6
CONTINUOUS
 62
     7
100
AcDbLine
 10
25.9482795577
 20
441.4112581432
 30
0.0
 11
25.9482795577
 21
428.7312640369
 31
0.0
  0
ARC
  5
136
330
1F
100
AcDbEntity
  8
0
  6
CONTINUOUS
 62
     7
100
AcDbCircle
 10
83.6842687856
 20
56.375596728
 30
0.0
 40
5.17000000000002
100
AcDbArc
 50
3.9447277847
 51
162.3995501035
  0
ARC
  5
137
330
1F
100
AcDbEntity
  8
0
  6
CONTINUOUS
 62
     7
100
AcDbCircle
 10
67.8782896232
 20
56.375587538
 30
0.0
 40
5.170000000000052
100
AcDbArc
 50
17.6004836752
 51
176.0551689197
  0
ARC
  5
138
330
1F
100
AcDbEntity
  8
0
  6
CONTINUOUS
 62
     7
100
AcDbCircle
 10
83.6842704834
 20
441.766936833
 30
0.0
 40
5.169999999999982
100
AcDbArc
 50
197.600483035
 51
356.055172062
  0
ARC
  5
139
330
1F
100
AcDbEntity
  8
0
  6
CONTINUOUS
 62
     7
100
AcDbCircle
 10
67.878291321
 20
441.7669279914
 30
0.0
 40
5.169999999999998
100
AcDbArc
 50
183.9447297197
 51
342.3995494633
  0
ARC
  5
13A
330
1F
100
AcDbEntity
  8
0
  6
CONTINUOUS
 62
     7
100
AcDbCircle
 10
479.872291321
 20
441.7669279914
 30
0.0
 40
5.170000000000013
100
AcDbArc
 50
183.9447297197
 51
342.3995494633
  0
ARC
  5
13B
330
1F
100
AcDbEntity
  8
0
  6
CONTINUOUS
 62
     7
100
AcDbCircle
 10
479.8722896232
 20
56.375587538
 30
0.0
 40
5.170000000000007
100
AcDbArc
 50
17.6004836752
 51
176.0551689197
  0
ARC
  5
13C
330
1F
100
AcDbEntity
  8
0
  6
CONTINUOUS
 62
     7
100
AcDbCircle
 10
495.6782687856
 20
56.375596728
 30
0.0
 40
5.17000000000003
100
AcDbArc
 50
3.9447277847
 51
162.3995501035
  0
ARC
  5
13D
330
1F
100
AcDbEntity
  8
0
  6
CONTINUOUS
 62
     7
100
AcDbCircle
 10
495.6782704834
 20
441.766936833
 30
0.0
 40
5.170000000000003
100
AcDbArc
 50
197.600483035
 51
356.055172062
  0
LINE
  5
13E
330
1F
100
AcDbEntity
  8
0
  6
CONTINUOUS
 62
     7
100
AcDbLine
 10
527.9482817482
 20
428.7312640369
 30
0.0
 11
527.9482817482
 21
441.4112581432
 31
0.0
  0
LINE
  5
13F
330
1F
100
AcDbEntity
  8
0
  6
CONTINUOUS
 62
     7
100
AcDbLine
 10
527.9482817482
 20
56.731262666
 30
0.0
 11
527.9482817482
 21
69.4112642229
 31
0.0
  0
LINE
  5
140
330
1F
100
AcDbEntity
  8
0
  6
CONTINUOUS
 62
     7
100
AcDbLine
 10
1454.9082732032
 20
402.0712687195
 30
0.0
 11
1092.9082846473
 21
402.0712687195
 31
0.0
  0
LINE
  5
141
330
1F
100
AcDbEntity
  8
0
  6
CONTINUOUS
 62
     7
100
AcDbLine
 10
1454.9082732032
 20
30.0712617606
 30
0.0
 11
1454.9082732032
 21
402.0712687195
 31
0.0
  0
LINE
  5
142
330
1F
100
AcDbEntity
  8
0
  6
CONTINUOUS
 62
     7
100
AcDbLine
 10
1092.9082846473
 20
30.0712617606
 30
0.0
 11
1454.9082732032
 21
30.0712617606
 31
0.0
  0
LINE
  5
143
330
1F
100
AcDbEntity
  8
0
  6
CONTINUOUS
 62
     7
100
AcDbLine
 10
1092.9082846473
 20
402.0712687195
 30
0.0
 11
1092.9082846473
 21
30.0712617606
 31
0.0
  0
ARC
  5
144
330
1F
100
AcDbEntity
  8
0
  6
CONTINUOUS
 62
     7
100
AcDbCircle
 10
2273.8682800697
 20
966.5412622726
 30
0.0
 40
6.0
100
AcDbArc
 50
270.0
 51
0.0
  0
LINE
  5
145
330
1F
100
AcDbEntity
  8
0
  6
CONTINUOUS
 62
     7
100
AcDbLine
 10
2135.9182810615
 20
960.5412794769
 30
0.0
 11
2273.868224604
 21
960.5412794769
 31
0.0
  0
ARC
  5
146
330
1F
100
AcDbEntity
  8
0
  6
CONTINUOUS
 62
     7
100
AcDbCircle
 10
2135.9182800697
 20
948.5412622726
 30
0.0
 40
12.00000000000045
100
AcDbArc
 50
90.0
 51
180.0
  0
LINE
  5
147
330
1F
100
AcDbEntity
  8
0
  6
CONTINUOUS
 62
     7
100
AcDbLine
 10
2123.9181971382
 20
827.5439454735
 30
0.0
 11
2123.9181971382
 21
948.5412551582
 31
0.0
  0
ARC
  5
148
330
1F
100
AcDbEntity
  8
0
  6
CONTINUOUS
 62
     7
100
AcDbCircle
 10
2104.8682800697
 20
827.5439289393
 30
0.0
 40
19.05000000000011
100
AcDbArc
 50
300.0
 51
0.0
  0
ARC
  5
149
330
1F
100
AcDbEntity
  8
0
  6
CONTINUOUS
 62
     7
100
AcDbCircle
 10
2123.9182800697
 20
794.5483610551
 30
0.0
 40
19.04999999999973
100
AcDbArc
 50
120.0
 51
180.0
  0
LINE
  5
14A
330
1F
100
AcDbEntity
  8
0
  6
CONTINUOUS
 62
     7
100
AcDbLine
 10
2104.8683142494
 20
714.5401550949
 30
0.0
 11
2104.8683142494
 21
794.5483638466
 31
0.0
  0
ARC
  5
14B
330
1F
100
AcDbEntity
  8
0
  6
CONTINUOUS
 62
     7
100
AcDbCircle
 10
2123.9182800697
 20
714.5401634902
 30
0.0
 40
19.04999999999979
100
AcDbArc
 50
180.0
 51
240.0
  0
ARC
  5
14C
330
1F
100
AcDbEntity
  8
0
  6
CONTINUOUS
 62
     7
100
AcDbCircle
 10
2104.8682800697
 20
681.544595606
 30
0.0
 40
19.04999999999992
100
AcDbArc
 50
0.0
 51
60.0
  0
LINE
  5
14D
330
1F
100
AcDbEntity
  8
0
  6
CONTINUOUS
 62
     7
100
AcDbLine
 10
2123.9181971382
 20
560.5472637833
 30
0.0
 11
2123.9181971382
 21
681.544573468
 31
0.0
  0
ARC
  5
14E
330
1F
100
AcDbEntity
  8
0
  6
CONTINUOUS
 62
     7
100
AcDbCircle
 10
2135.9182800697
 20
560.5472622726
 30
0.0
 40
12.00000000000045
100
AcDbArc
 50
180.0
 51
270.0
  0
LINE
  5
14F
330
1F
100
AcDbEntity
  8
0
  6
CONTINUOUS
 62
     7
100
AcDbLine
 10
2273.868224604
 20
548.5472394646
 30
0.0
 11
2135.9182810615
 21
548.5472394646
 31
0.0
  0
ARC
  5
150
330
1F
100
AcDbEntity
  8
0
  6
CONTINUOUS
 62
     7
100
AcDbCircle
 10
2273.8682800697
 20
542.5472622726
 30
0.0
 40
6.0
100
AcDbArc
 50
0.0
 51
90.0
  0
ARC
  5
151
330
1F
100
AcDbEntity
  8
0
  6
CONTINUOUS
 62
     7
100
AcDbCircle
 10
2278.8682800697
 20
530.7972622726
 30
0.0
 40
1.0
100
AcDbArc
 50
270.0
 51
0.0
  0
LINE
  5
152
330
1F
100
AcDbEntity
  8
0
  6
CONTINUOUS
 62
     7
100
AcDbLine
 10
2267.6083063911
 20
529.7972871483
 30
0.0
 11
2267.2680830787
 21
535.1111604393
 31
0.0
  0
ARC
  5
153
330
1F
100
AcDbEntity
  8
0
  6
CONTINUOUS
 62
     7
100
AcDbCircle
 10
2266.2702341626
 20
535.0472622726
 30
0.0
 40
1.000000000000171
100
AcDbArc
 50
3.6619355755
 51
90.0
  0
LINE
  5
154
330
1F
100
AcDbEntity
  8
0
  6
CONTINUOUS
 62
     7
100
AcDbLine
 10
2266.2703013252
 20
536.0472513855
 30
0.0
 11
2258.330485804
 21
536.0472513855
 31
0.0
  0
ARC
  5
155
330
1F
100
AcDbEntity
  8
0
  6
CONTINUOUS
 62
     7
100
AcDbCircle
 10
2258.3305584531
 20
537.0472622726
 30
0.0
 40
0.9999999999998863
100
AcDbArc
 50
245.1121079736
 51
270.0
  0
ARC
  5
156
330
1F
100
AcDbEntity
  8
0
  6
CONTINUOUS
 62
     7
100
AcDbCircle
 10
2255.7339502093
 20
531.4502518538
 30
0.0
 40
5.170000000000036
100
AcDbArc
 50
65.1121079736
 51
252.3995332141
  0
ARC
  5
157
330
1F
100
AcDbEntity
  8
0
  6
CONTINUOUS
 62
     7
100
AcDbCircle
 10
2253.8682800697
 20
525.5690806329
 30
0.0
 40
1.000000000000455
100
AcDbArc
 50
0.0
 51
72.3995332141
  0
LINE
  5
158
330
1F
100
AcDbEntity
  8
0
  6
CONTINUOUS
 62
     7
100
AcDbLine
 10
2254.8681711982
 20
523.5452367485
 30
0.0
 11
2254.8681711982
 21
525.5690528572
 31
0.0
  0
LINE
  5
159
330
1F
100
AcDbEntity
  8
0
  6
CONTINUOUS
 62
     7
100
AcDbLine
 10
2116.8683981727
 20
523.5452367485
 30
0.0
 11
2254.8681711982
 21
523.5452367485
 31
0.0
  0
ARC
  5
15A
330
1F
100
AcDbEntity
  8
0
  6
CONTINUOUS
 62
     7
100
AcDbCircle
 10
2116.8682800697
 20
535.5452622726
 30
0.0
 40
12.00000000000045
100
AcDbArc
 50
180.0
 51
270.0
  0
LINE
  5
15B
330
1F
100
AcDbEntity
  8
0
  6
CONTINUOUS
 62
     7
100
AcDbLine
 10
2104.8683142494
 20
669.544608754
 30
0.0
 11
2104.8683142494
 21
535.5452610672
 31
0.0
  0
ARC
  5
15C
330
1F
100
AcDbEntity
  8
0
  6
CONTINUOUS
 62
     7
100
AcDbCircle
 10
2092.8682800697
 20
669.544595606
 30
0.0
 40
11.99999999999989
100
AcDbArc
 50
0.0
 51
90.0
  0
LINE
  5
15D
330
1F
100
AcDbEntity
  8
0
  6
CONTINUOUS
 62
     7
100
AcDbLine
 10
2066.8682074379
 20
681.544573468
 30
0.0
 11
2092.868230326
 21
681.544573468
 31
0.0
  0
ARC
  5
15E
330
1F
100
AcDbEntity
  8
0
  6
CONTINUOUS
 62
     7
100
AcDbCircle
 10
2066.8682800697
 20
669.544595606
 30
0.0
 40
12.00000000000045
100
AcDbArc
 50
90.0
 51
180.0
  0
LINE
  5
15F
330
1F
100
AcDbEntity
  8
0
  6
CONTINUOUS
 62
     7
100
AcDbLine
 10
2054.8683619331
 20
535.5452610672
 30
0.0
 11
2054.8683619331
 21
669.544608754
 31
0.0
  0
ARC
  5
160
330
1F
100
AcDbEntity
  8
0
  6
CONTINUOUS
 62
     7
100
AcDbCircle
 10
2042.8682800697
 20
535.5452622726
 30
0.0
 40
12.0
100
AcDbArc
 50
270.0
 51
0.0
  0
LINE
  5
161
330
1F
100
AcDbEntity
  8
0
  6
CONTINUOUS
 62
     7
100
AcDbLine
 10
1904.8682665657
 20
523.5452367485
 30
0.0
 11
2042.8682780098
 21
523.5452367485
 31
0.0
  0
LINE
  5
162
330
1F
100
AcDbEntity
  8
0
  6
CONTINUOUS
 62
     7
100
AcDbLine
 10
1904.8682665657
 20
525.5690528572
 30
0.0
 11
1904.8682665657
 21
523.5452367485
 31
0.0
  0
ARC
  5
163
330
1F
100
AcDbEntity
  8
0
  6
CONTINUOUS
 62
     7
100
AcDbCircle
 10
1905.8682800697
 20
525.5690806329
 30
0.0
 40
1.0
100
AcDbArc
 50
107.6004667859
 51
180.0
  0
ARC
  5
164
330
1F
100
AcDbEntity
  8
0
  6
CONTINUOUS
 62
     7
100
AcDbCircle
 10
1904.0026099301
 20
531.4502518538
 30
0.0
 40
5.17000000000007
100
AcDbArc
 50
287.6004667859
 51
114.8878920264
  0
ARC
  5
165
330
1F
100
AcDbEntity
  8
0
  6
CONTINUOUS
 62
     7
100
AcDbCircle
 10
1901.4060016863
 20
537.0472622726
 30
0.0
 40
1.000000000000037
100
AcDbArc
 50
270.0
 51
294.8878920264
  0
LINE
  5
166
330
1F
100
AcDbEntity
  8
0
  6
CONTINUOUS
 62
     7
100
AcDbLine
 10
1901.40595196
 20
536.0472513855
 30
0.0
 11
1893.4663748573
 21
536.0472513855
 31
0.0
  0
ARC
  5
167
330
1F
100
AcDbEntity
  8
0
  6
CONTINUOUS
 62
     7
100
AcDbCircle
 10
1893.4663259768
 20
535.0472622726
 30
0.0
 40
1.0
100
AcDbArc
 50
90.0
 51
176.3380644245
  0
LINE
  5
168
330
1F
100
AcDbEntity
  8
0
  6
CONTINUOUS
 62
     7
100
AcDbLine
 10
1892.4683546852
 20
535.1111604393
 30
0.0
 11
1892.1282505821
 21
529.7972871483
 31
0.0
  0
LINE
  5
169
330
1F
100
AcDbEntity
  8
0
  6
CONTINUOUS
 62
     7
100
AcDbLine
 10
1892.1282505821
 20
529.7972871483
 30
0.0
 11
1880.8683371376
 21
529.7972871483
 31
0.0
  0
ARC
  5
16A
330
1F
100
AcDbEntity
  8
0
  6
CONTINUOUS
 62
     7
100
AcDbCircle
 10
1880.8682800697
 20
530.7972622726
 30
0.0
 40
1.0
100
AcDbArc
 50
180.0
 51
270.0
  0
LINE
  5
16B
330
1F
100
AcDbEntity
  8
0
  6
CONTINUOUS
 62
     7
100
AcDbLine
 10
1879.8682904075
 20
542.5472571075
 30
0.0
 11
1879.8682904075
 21
530.7972742737
 31
0.0
  0
ARC
  5
16C
330
1F
100
AcDbEntity
  8
0
  6
CONTINUOUS
 62
     7
100
AcDbCircle
 10
1885.8682800697
 20
542.5472622726
 30
0.0
 40
6.0
100
AcDbArc
 50
90.0
 51
180.0
  0
LINE
  5
16D
330
1F
100
AcDbEntity
  8
0
  6
CONTINUOUS
 62
     7
100
AcDbLine
 10
2023.818395121
 20
548.5472394646
 30
0.0
 11
1885.8683323692
 21
548.5472394646
 31
0.0
  0
ARC
  5
16E
330
1F
100
AcDbEntity
  8
0
  6
CONTINUOUS
 62
     7
100
AcDbCircle
 10
2023.8182800697
 20
560.5472622726
 30
0.0
 40
12.0
100
AcDbArc
 50
270.0
 51
0.0
  0
LINE
  5
16F
330
1F
100
AcDbEntity
  8
0
  6
CONTINUOUS
 62
     7
100
AcDbLine
 10
2035.8182406257
 20
681.544573468
 30
0.0
 11
2035.8182406257
 21
560.5472637833
 31
0.0
  0
ARC
  5
170
330
1F
100
AcDbEntity
  8
0
  6
CONTINUOUS
 62
     7
100
AcDbCircle
 10
2054.8682800697
 20
681.544595606
 30
0.0
 40
19.04999999999995
100
AcDbArc
 50
120.0
 51
180.0
  0
ARC
  5
171
330
1F
100
AcDbEntity
  8
0
  6
CONTINUOUS
 62
     7
100
AcDbCircle
 10
2035.8182800697
 20
714.5401634902
 30
0.0
 40
19.05000000000001
100
AcDbArc
 50
300.0
 51
0.0
  0
LINE
  5
172
330
1F
100
AcDbEntity
  8
0
  6
CONTINUOUS
 62
     7
100
AcDbLine
 10
2054.8683619331
 20
794.5483638466
 30
0.0
 11
2054.8683619331
 21
714.5401550949
 31
0.0
  0
ARC
  5
173
330
1F
100
AcDbEntity
  8
0
  6
CONTINUOUS
 62
     7
100
AcDbCircle
 10
2035.8182800697
 20
794.5483610551
 30
0.0
 40
19.05000000000001
100
AcDbArc
 50
0.0
 51
60.0
  0
ARC
  5
174
330
1F
100
AcDbEntity
  8
0
  6
CONTINUOUS
 62
     7
100
AcDbCircle
 10
2054.8682800697
 20
827.5439289393
 30
0.0
 40
19.05
100
AcDbArc
 50
180.0
 51
240.0
  0
LINE
  5
175
330
1F
100
AcDbEntity
  8
0
  6
CONTINUOUS
 62
     7
100
AcDbLine
 10
2035.8182406257
 20
948.5412551582
 30
0.0
 11
2035.8182406257
 21
827.5439454735
 31
0.0
  0
ARC
  5
176
330
1F
100
AcDbEntity
  8
0
  6
CONTINUOUS
 62
     7
100
AcDbCircle
 10
2023.8182800697
 20
948.5412622726
 30
0.0
 40
12.00000000000023
100
AcDbArc
 50
0.0
 51
90.0
  0
LINE
  5
177
330
1F
100
AcDbEntity
  8
0
  6
CONTINUOUS
 62
     7
100
AcDbLine
 10
1885.8683323692
 20
960.5412794769
 30
0.0
 11
2023.818395121
 21
960.5412794769
 31
0.0
  0
ARC
  5
178
330
1F
100
AcDbEntity
  8
0
  6
CONTINUOUS
 62
     7
100
AcDbCircle
 10
1885.8682800697
 20
966.5412622726
 30
0.0
 40
6.0
100
AcDbArc
 50
180.0
 51
270.0
  0
LINE
  5
179
330
1F
100
AcDbEntity
  8
0
  6
CONTINUOUS
 62
     7
100
AcDbLine
 10
1879.8682904075
 20
978.2912446678
 30
0.0
 11
1879.8682904075
 21
966.5412618339
 31
0.0
  0
ARC
  5
17A
330
1F
100
AcDbEntity
  8
0
  6
CONTINUOUS
 62
     7
100
AcDbCircle
 10
1880.8682800697
 20
978.2912622726
 30
0.0
 40
1.0
100
AcDbArc
 50
90.0
 51
180.0
  0
LINE
  5
17B
330
1F
100
AcDbEntity
  8
0
  6
CONTINUOUS
 62
     7
100
AcDbLine
 10
1880.8683371376
 20
979.2912913978
 30
0.0
 11
1892.1282505821
 21
979.2912913978
 31
0.0
  0
LINE
  5
17C
330
1F
100
AcDbEntity
  8
0
  6
CONTINUOUS
 62
     7
100
AcDbLine
 10
1892.1282505821
 20
979.2912913978
 30
0.0
 11
1892.4683546852
 21
973.9774181068
 31
0.0
  0
ARC
  5
17D
330
1F
100
AcDbEntity
  8
0
  6
CONTINUOUS
 62
     7
100
AcDbCircle
 10
1893.4663259768
 20
974.0412622726
 30
0.0
 40
1.000000000000163
100
AcDbArc
 50
183.6619355755
 51
270.0
  0
LINE
  5
17E
330
1F
100
AcDbEntity
  8
0
  6
CONTINUOUS
 62
     7
100
AcDbLine
 10
1893.4663748573
 20
973.041267556
 30
0.0
 11
1901.40595196
 21
973.041267556
 31
0.0
  0
ARC
  5
17F
330
1F
100
AcDbEntity
  8
0
  6
CONTINUOUS
 62
     7
100
AcDbCircle
 10
1901.4060016863
 20
972.0412622726
 30
0.0
 40
1.000000000000133
100
AcDbArc
 50
65.1121079736
 51
90.0
  0
ARC
  5
180
330
1F
100
AcDbEntity
  8
0
  6
CONTINUOUS
 62
     7
100
AcDbCircle
 10
1904.0026099301
 20
977.6382726914
 30
0.0
 40
5.170000000000036
100
AcDbArc
 50
245.1121079736
 51
72.3995332141
  0
ARC
  5
181
330
1F
100
AcDbEntity
  8
0
  6
CONTINUOUS
 62
     7
100
AcDbCircle
 10
1905.8682800697
 20
983.5194439124
 30
0.0
 40
0.9999999999999909
100
AcDbArc
 50
180.0
 51
252.3995332141
  0
LINE
  5
182
330
1F
100
AcDbEntity
  8
0
  6
CONTINUOUS
 62
     7
100
AcDbLine
 10
1904.8682665657
 20
985.543282193
 30
0.0
 11
1904.8682665657
 21
983.5194660843
 31
0.0
  0
LINE
  5
183
330
1F
100
AcDbEntity
  8
0
  6
CONTINUOUS
 62
     7
100
AcDbLine
 10
2042.8682780098
 20
985.543282193
 30
0.0
 11
1904.8682665657
 21
985.543282193
 31
0.0
  0
ARC
  5
184
330
1F
100
AcDbEntity
  8
0
  6
CONTINUOUS
 62
     7
100
AcDbCircle
 10
2042.8682800697
 20
973.5432622726
 30
0.0
 40
12.0
100
AcDbArc
 50
0.0
 51
90.0
  0
LINE
  5
185
330
1F
100
AcDbEntity
  8
0
  6
CONTINUOUS
 62
     7
100
AcDbLine
 10
2054.8683619331
 20
839.5439101875
 30
0.0
 11
2054.8683619331
 21
973.5432578743
 31
0.0
  0
ARC
  5
186
330
1F
100
AcDbEntity
  8
0
  6
CONTINUOUS
 62
     7
100
AcDbCircle
 10
2066.8682800697
 20
839.5439289393
 30
0.0
 40
12.00000000000045
100
AcDbArc
 50
180.0
 51
270.0
  0
LINE
  5
187
330
1F
100
AcDbEntity
  8
0
  6
CONTINUOUS
 62
     7
100
AcDbLine
 10
2092.868230326
 20
827.5439454735
 30
0.0
 11
2066.8682074379
 21
827.5439454735
 31
0.0
  0
ARC
  5
188
330
1F
100
AcDbEntity
  8
0
  6
CONTINUOUS
 62
     7
100
AcDbCircle
 10
2092.8682800697
 20
839.5439289393
 30
0.0
 40
12.0
100
AcDbArc
 50
270.0
 51
0.0
  0
LINE
  5
189
330
1F
100
AcDbEntity
  8
0
  6
CONTINUOUS
 62
     7
100
AcDbLine
 10
2104.8683142494
 20
973.5432578743
 30
0.0
 11
2104.8683142494
 21
839.5439101875
 31
0.0
  0
ARC
  5
18A
330
1F
100
AcDbEntity
  8
0
  6
CONTINUOUS
 62
     7
100
AcDbCircle
 10
2116.8682800697
 20
973.5432622726
 30
0.0
 40
12.00000000000045
100
AcDbArc
 50
90.0
 51
180.0
  0
LINE
  5
18B
330
1F
100
AcDbEntity
  8
0
  6
CONTINUOUS
 62
     7
100
AcDbLine
 10
2254.8681711982
 20
985.543282193
 30
0.0
 11
2116.8683981727
 21
985.543282193
 31
0.0
  0
LINE
  5
18C
330
1F
100
AcDbEntity
  8
0
  6
CONTINUOUS
 62
     7
100
AcDbLine
 10
2254.8681711982
 20
983.5194660843
 30
0.0
 11
2254.8681711982
 21
985.543282193
 31
0.0
  0
ARC
  5
18D
330
1F
100
AcDbEntity
  8
0
  6
CONTINUOUS
 62
     7
100
AcDbCircle
 10
2253.8682800697
 20
983.5194439124
 30
0.0
 40
1.000000000000455
100
AcDbArc
 50
287.6004667859
 51
0.0
  0
ARC
  5
18E
330
1F
100
AcDbEntity
  8
0
  6
CONTINUOUS
 62
     7
100
AcDbCircle
 10
2255.7339502093
 20
977.6382726914
 30
0.0
 40
5.170000000000138
100
AcDbArc
 50
107.6004667859
 51
294.8878920264
  0
ARC
  5
18F
330
1F
100
AcDbEntity
  8
0
  6
CONTINUOUS
 62
     7
100
AcDbCircle
 10
2258.3305584531
 20
972.0412622726
 30
0.0
 40
1.0
100
AcDbArc
 50
90.0
 51
114.8878920263
  0
LINE
  5
190
330
1F
100
AcDbEntity
  8
0
  6
CONTINUOUS
 62
     7
100
AcDbLine
 10
2258.330485804
 20
973.041267556
 30
0.0
 11
2266.2703013252
 21
973.041267556
 31
0.0
  0
ARC
  5
191
330
1F
100
AcDbEntity
  8
0
  6
CONTINUOUS
 62
     7
100
AcDbCircle
 10
2266.2702341626
 20
974.0412622726
 30
0.0
 40
1.000000000000163
100
AcDbArc
 50
270.0
 51
356.3380644245
  0
LINE
  5
192
330
1F
100
AcDbEntity
  8
0
  6
CONTINUOUS
 62
     7
100
AcDbLine
 10
2267.2680830787
 20
973.9774181068
 30
0.0
 11
2267.6083063911
 21
979.2912913978
 31
0.0
  0
LINE
  5
193
330
1F
100
AcDbEntity
  8
0
  6
CONTINUOUS
 62
     7
100
AcDbLine
 10
2267.6083063911
 20
979.2912913978
 30
0.0
 11
2278.8683390449
 21
979.2912913978
 31
0.0
  0
ARC
  5
194
330
1F
100
AcDbEntity
  8
0
  6
CONTINUOUS
 62
     7
100
AcDbCircle
 10
2278.8682800697
 20
978.2912622726
 30
0.0
 40
1.0
100
AcDbArc
 50
0.0
 51
90.0
  0
LINE
  5
195
330
1F
100
AcDbEntity
  8
0
  6
CONTINUOUS
 62
     7
100
AcDbLine
 10
2279.8682665657
 20
966.5412618339
 30
0.0
 11
2279.8682665657
 21
978.2912446678
 31
0.0
  0
LINE
  5
196
330
1F
100
AcDbEntity
  8
0
  6
CONTINUOUS
 62
     7
100
AcDbLine
 10
2279.8682665657
 20
530.7972742737
 30
0.0
 11
2279.8682665657
 21
542.5472571075
 31
0.0
  0
LINE
  5
197
330
1F
100
AcDbEntity
  8
0
  6
CONTINUOUS
 62
     7
100
AcDbLine
 10
2278.8683390449
 20
529.7972871483
 30
0.0
 11
2267.6083063911
 21
529.7972871483
 31
0.0
  0
ARC
  5
198
330
1F
100
AcDbEntity
  8
0
  6
CONTINUOUS
 62
     7
100
AcDbCircle
 10
1885.8682800697
 20
49.0732622726
 30
0.0
 40
6.0
100
AcDbArc
 50
90.0
 51
180.0
  0
LINE
  5
199
330
1F
100
AcDbEntity
  8
0
  6
CONTINUOUS
 62
     7
100
AcDbLine
 10
2023.818395121
 20
55.073262614
 30
0.0
 11
1885.8683323692
 21
55.073262614
 31
0.0
  0
ARC
  5
19A
330
1F
100
AcDbEntity
  8
0
  6
CONTINUOUS
 62
     7
100
AcDbCircle
 10
2023.8182800697
 20
67.0732622726
 30
0.0
 40
11.99999999999973
100
AcDbArc
 50
270.0
 51
0.0
  0
LINE
  5
19B
330
1F
100
AcDbEntity
  8
0
  6
CONTINUOUS
 62
     7
100
AcDbLine
 10
2035.8182406257
 20
188.0705966175
 30
0.0
 11
2035.8182406257
 21
67.073264581
 31
0.0
  0
ARC
  5
19C
330
1F
100
AcDbEntity
  8
0
  6
CONTINUOUS
 62
     7
100
AcDbCircle
 10
2054.8682800697
 20
188.070595606
 30
0.0
 40
19.04999999999995
100
AcDbArc
 50
120.0
 51
180.0
  0
ARC
  5
19D
330
1F
100
AcDbEntity
  8
0
  6
CONTINUOUS
 62
     7
100
AcDbCircle
 10
2035.8182800697
 20
221.0661634902
 30
0.0
 40
19.04999999999999
100
AcDbArc
 50
300.0
 51
0.0
  0
LINE
  5
19E
330
1F
100
AcDbEntity
  8
0
  6
CONTINUOUS
 62
     7
100
AcDbLine
 10
2054.8683619331
 20
301.0743571937
 30
0.0
 11
2054.8683619331
 21
221.0661633432
 31
0.0
  0
ARC
  5
19F
330
1F
100
AcDbEntity
  8
0
  6
CONTINUOUS
 62
     7
100
AcDbCircle
 10
2035.8182800697
 20
301.0743610551
 30
0.0
 40
19.05000000000006
100
AcDbArc
 50
0.0
 51
60.0
  0
ARC
  5
1A0
330
1F
100
AcDbEntity
  8
0
  6
CONTINUOUS
 62
     7
100
AcDbCircle
 10
2054.8682800697
 20
334.0699289393
 30
0.0
 40
19.04999999999995
100
AcDbArc
 50
180.0
 51
240.0
  0
LINE
  5
1A1
330
1F
100
AcDbEntity
  8
0
  6
CONTINUOUS
 62
     7
100
AcDbLine
 10
2035.8182406257
 20
455.0672485054
 30
0.0
 11
2035.8182406257
 21
334.0699388206
 31
0.0
  0
ARC
  5
1A2
330
1F
100
AcDbEntity
  8
0
  6
CONTINUOUS
 62
     7
100
AcDbCircle
 10
2023.8182800697
 20
455.0672622726
 30
0.0
 40
12.0
100
AcDbArc
 50
0.0
 51
90.0
  0
LINE
  5
1A3
330
1F
100
AcDbEntity
  8
0
  6
CONTINUOUS
 62
     7
100
AcDbLine
 10
1885.8683323692
 20
467.0672728241
 30
0.0
 11
2023.818395121
 21
467.0672728241
 31
0.0
  0
ARC
  5
1A4
330
1F
100
AcDbEntity
  8
0
  6
CONTINUOUS
 62
     7
100
AcDbCircle
 10
1885.8682800697
 20
473.0672622726
 30
0.0
 40
6.0
100
AcDbArc
 50
180.0
 51
270.0
  0
LINE
  5
1A5
330
1F
100
AcDbEntity
  8
0
  6
CONTINUOUS
 62
     7
100
AcDbLine
 10
1879.8682904075
 20
484.8172678173
 30
0.0
 11
1879.8682904075
 21
473.0672551811
 31
0.0
  0
ARC
  5
1A6
330
1F
100
AcDbEntity
  8
0
  6
CONTINUOUS
 62
     7
100
AcDbCircle
 10
1880.8682800697
 20
484.8172622726
 30
0.0
 40
1.000000000000057
100
AcDbArc
 50
90.0
 51
180.0
  0
LINE
  5
1A7
330
1F
100
AcDbEntity
  8
0
  6
CONTINUOUS
 62
     7
100
AcDbLine
 10
1880.8683371376
 20
485.8172549427
 30
0.0
 11
1892.1282505821
 21
485.8172549427
 31
0.0
  0
LINE
  5
1A8
330
1F
100
AcDbEntity
  8
0
  6
CONTINUOUS
 62
     7
100
AcDbLine
 10
1892.1282505821
 20
485.8172549427
 30
0.0
 11
1892.4683546852
 21
480.5033816517
 31
0.0
  0
ARC
  5
1A9
330
1F
100
AcDbEntity
  8
0
  6
CONTINUOUS
 62
     7
100
AcDbCircle
 10
1893.4663259768
 20
480.5672622726
 30
0.0
 40
1.0
100
AcDbArc
 50
183.6619355755
 51
270.0
  0
LINE
  5
1AA
330
1F
100
AcDbEntity
  8
0
  6
CONTINUOUS
 62
     7
100
AcDbLine
 10
1893.4663748573
 20
479.5672609032
 30
0.0
 11
1901.40595196
 21
479.5672609032
 31
0.0
  0
ARC
  5
1AB
330
1F
100
AcDbEntity
  8
0
  6
CONTINUOUS
 62
     7
100
AcDbCircle
 10
1901.4060016863
 20
478.5672622726
 30
0.0
 40
1.000000000000089
100
AcDbArc
 50
65.1121079736
 51
90.0
  0
ARC
  5
1AC
330
1F
100
AcDbEntity
  8
0
  6
CONTINUOUS
 62
     7
100
AcDbCircle
 10
1904.0026099301
 20
484.1642726914
 30
0.0
 40
5.169999999999985
100
AcDbArc
 50
245.1121079736
 51
72.3995332141
  0
ARC
  5
1AD
330
1F
100
AcDbEntity
  8
0
  6
CONTINUOUS
 62
     7
100
AcDbCircle
 10
1905.8682800697
 20
490.0454439124
 30
0.0
 40
1.0
100
AcDbArc
 50
180.0
 51
252.3995332141
  0
LINE
  5
1AE
330
1F
100
AcDbEntity
  8
0
  6
CONTINUOUS
 62
     7
100
AcDbLine
 10
1904.8682665657
 20
492.0692755401
 30
0.0
 11
1904.8682665657
 21
490.0454296291
 31
0.0
  0
LINE
  5
1AF
330
1F
100
AcDbEntity
  8
0
  6
CONTINUOUS
 62
     7
100
AcDbLine
 10
2042.8682780098
 20
492.0692755401
 30
0.0
 11
1904.8682665657
 21
492.0692755401
 31
0.0
  0
ARC
  5
1B0
330
1F
100
AcDbEntity
  8
0
  6
CONTINUOUS
 62
     7
100
AcDbCircle
 10
2042.8682800697
 20
480.0692622726
 30
0.0
 40
12.0
100
AcDbArc
 50
0.0
 51
90.0
  0
LINE
  5
1B1
330
1F
100
AcDbEntity
  8
0
  6
CONTINUOUS
 62
     7
100
AcDbLine
 10
2054.8683619331
 20
346.069933337
 30
0.0
 11
2054.8683619331
 21
480.0692512215
 31
0.0
  0
ARC
  5
1B2
330
1F
100
AcDbEntity
  8
0
  6
CONTINUOUS
 62
     7
100
AcDbCircle
 10
2066.8682800697
 20
346.0699289393
 30
0.0
 40
12.00000000000045
100
AcDbArc
 50
180.0
 51
270.0
  0
LINE
  5
1B3
330
1F
100
AcDbEntity
  8
0
  6
CONTINUOUS
 62
     7
100
AcDbLine
 10
2092.868230326
 20
334.0699388206
 30
0.0
 11
2066.8682074379
 21
334.0699388206
 31
0.0
  0
ARC
  5
1B4
330
1F
100
AcDbEntity
  8
0
  6
CONTINUOUS
 62
     7
100
AcDbCircle
 10
2092.8682800697
 20
346.0699289393
 30
0.0
 40
11.99999999999989
100
AcDbArc
 50
270.0
 51
0.0
  0
LINE
  5
1B5
330
1F
100
AcDbEntity
  8
0
  6
CONTINUOUS
 62
     7
100
AcDbLine
 10
2104.8683142494
 20
480.0692512215
 30
0.0
 11
2104.8683142494
 21
346.069933337
 31
0.0
  0
ARC
  5
1B6
330
1F
100
AcDbEntity
  8
0
  6
CONTINUOUS
 62
     7
100
AcDbCircle
 10
2116.8682800697
 20
480.0692622726
 30
0.0
 40
12.00000000000045
100
AcDbArc
 50
90.0
 51
180.0
  0
LINE
  5
1B7
330
1F
100
AcDbEntity
  8
0
  6
CONTINUOUS
 62
     7
100
AcDbLine
 10
2254.8681711982
 20
492.0692755401
 30
0.0
 11
2116.8683981727
 21
492.0692755401
 31
0.0
  0
LINE
  5
1B8
330
1F
100
AcDbEntity
  8
0
  6
CONTINUOUS
 62
     7
100
AcDbLine
 10
2254.8681711982
 20
490.0454296291
 30
0.0
 11
2254.8681711982
 21
492.0692755401
 31
0.0
  0
ARC
  5
1B9
330
1F
100
AcDbEntity
  8
0
  6
CONTINUOUS
 62
     7
100
AcDbCircle
 10
2253.8682800697
 20
490.0454439124
 30
0.0
 40
0.9999999999998535
100
AcDbArc
 50
287.6004667858
 51
0.0
  0
ARC
  5
1BA
330
1F
100
AcDbEntity
  8
0
  6
CONTINUOUS
 62
     7
100
AcDbCircle
 10
2255.7339502093
 20
484.1642726914
 30
0.0
 40
5.170000000000138
100
AcDbArc
 50
107.6004667859
 51
294.8878920264
  0
ARC
  5
1BB
330
1F
100
AcDbEntity
  8
0
  6
CONTINUOUS
 62
     7
100
AcDbCircle
 10
2258.3305584531
 20
478.5672622726
 30
0.0
 40
1.0
100
AcDbArc
 50
90.0
 51
114.8878920263
  0
LINE
  5
1BC
330
1F
100
AcDbEntity
  8
0
  6
CONTINUOUS
 62
     7
100
AcDbLine
 10
2258.330485804
 20
479.5672609032
 30
0.0
 11
2266.2703013252
 21
479.5672609032
 31
0.0
  0
ARC
  5
1BD
330
1F
100
AcDbEntity
  8
0
  6
CONTINUOUS
 62
     7
100
AcDbCircle
 10
2266.2702341626
 20
480.5672622726
 30
0.0
 40
1.00000000000016
100
AcDbArc
 50
270.0
 51
356.3380644245
  0
LINE
  5
1BE
330
1F
100
AcDbEntity
  8
0
  6
CONTINUOUS
 62
     7
100
AcDbLine
 10
2267.2680830787
 20
480.5033816517
 30
0.0
 11
2267.6083063911
 21
485.8172549427
 31
0.0
  0
LINE
  5
1BF
330
1F
100
AcDbEntity
  8
0
  6
CONTINUOUS
 62
     7
100
AcDbLine
 10
2267.6083063911
 20
485.8172549427
 30
0.0
 11
2278.8683390449
 21
485.8172549427
 31
0.0
  0
ARC
  5
1C0
330
1F
100
AcDbEntity
  8
0
  6
CONTINUOUS
 62
     7
100
AcDbCircle
 10
2278.8682800697
 20
484.8172622726
 30
0.0
 40
1.000000000000057
100
AcDbArc
 50
0.0
 51
90.0
  0
LINE
  5
1C1
330
1F
100
AcDbEntity
  8
0
  6
CONTINUOUS
 62
     7
100
AcDbLine
 10
2279.8682665657
 20
473.0672551811
 30
0.0
 11
2279.8682665657
 21
484.8172678173
 31
0.0
  0
ARC
  5
1C2
330
1F
100
AcDbEntity
  8
0
  6
CONTINUOUS
 62
     7
100
AcDbCircle
 10
2273.8682800697
 20
473.0672622726
 30
0.0
 40
6.0
100
AcDbArc
 50
270.0
 51
0.0
  0
LINE
  5
1C3
330
1F
100
AcDbEntity
  8
0
  6
CONTINUOUS
 62
     7
100
AcDbLine
 10
2135.9182810615
 20
467.0672728241
 30
0.0
 11
2273.868224604
 21
467.0672728241
 31
0.0
  0
ARC
  5
1C4
330
1F
100
AcDbEntity
  8
0
  6
CONTINUOUS
 62
     7
100
AcDbCircle
 10
2135.9182800697
 20
455.0672622726
 30
0.0
 40
12.00000000000045
100
AcDbArc
 50
90.0
 51
180.0
  0
LINE
  5
1C5
330
1F
100
AcDbEntity
  8
0
  6
CONTINUOUS
 62
     7
100
AcDbLine
 10
2123.9181971382
 20
334.0699388206
 30
0.0
 11
2123.9181971382
 21
455.0672485054
 31
0.0
  0
ARC
  5
1C6
330
1F
100
AcDbEntity
  8
0
  6
CONTINUOUS
 62
     7
100
AcDbCircle
 10
2104.8682800697
 20
334.0699289393
 30
0.0
 40
19.05000000000006
100
AcDbArc
 50
300.0
 51
0.0
  0
ARC
  5
1C7
330
1F
100
AcDbEntity
  8
0
  6
CONTINUOUS
 62
     7
100
AcDbCircle
 10
2123.9182800697
 20
301.0743610551
 30
0.0
 40
19.04999999999984
100
AcDbArc
 50
120.0
 51
180.0
  0
LINE
  5
1C8
330
1F
100
AcDbEntity
  8
0
  6
CONTINUOUS
 62
     7
100
AcDbLine
 10
2104.8683142494
 20
221.0661633432
 30
0.0
 11
2104.8683142494
 21
301.0743571937
 31
0.0
  0
ARC
  5
1C9
330
1F
100
AcDbEntity
  8
0
  6
CONTINUOUS
 62
     7
100
AcDbCircle
 10
2123.9182800697
 20
221.0661634902
 30
0.0
 40
19.04999999999976
100
AcDbArc
 50
180.0
 51
240.0
  0
ARC
  5
1CA
330
1F
100
AcDbEntity
  8
0
  6
CONTINUOUS
 62
     7
100
AcDbCircle
 10
2104.8682800697
 20
188.070595606
 30
0.0
 40
19.04999999999999
100
AcDbArc
 50
0.0
 51
60.0
  0
LINE
  5
1CB
330
1F
100
AcDbEntity
  8
0
  6
CONTINUOUS
 62
     7
100
AcDbLine
 10
2123.9181971382
 20
67.073264581
 30
0.0
 11
2123.9181971382
 21
188.0705966175
 31
0.0
  0
ARC
  5
1CC
330
1F
100
AcDbEntity
  8
0
  6
CONTINUOUS
 62
     7
100
AcDbCircle
 10
2135.9182800697
 20
67.0732622726
 30
0.0
 40
12.00000000000045
100
AcDbArc
 50
180.0
 51
270.0
  0
LINE
  5
1CD
330
1F
100
AcDbEntity
  8
0
  6
CONTINUOUS
 62
     7
100
AcDbLine
 10
2273.868224604
 20
55.073262614
 30
0.0
 11
2135.9182810615
 21
55.073262614
 31
0.0
  0
ARC
  5
1CE
330
1F
100
AcDbEntity
  8
0
  6
CONTINUOUS
 62
     7
100
AcDbCircle
 10
2273.8682800697
 20
49.0732622726
 30
0.0
 40
6.0
100
AcDbArc
 50
0.0
 51
90.0
  0
LINE
  5
1CF
330
1F
100
AcDbEntity
  8
0
  6
CONTINUOUS
 62
     7
100
AcDbLine
 10
2279.8682665657
 20
37.3232638955
 30
0.0
 11
2279.8682665657
 21
49.0732616306
 31
0.0
  0
ARC
  5
1D0
330
1F
100
AcDbEntity
  8
0
  6
CONTINUOUS
 62
     7
100
AcDbCircle
 10
2278.8682800697
 20
37.3232622726
 30
0.0
 40
1.000000000000114
100
AcDbArc
 50
270.0
 51
0.0
  0
LINE
  5
1D1
330
1F
100
AcDbEntity
  8
0
  6
CONTINUOUS
 62
     7
100
AcDbLine
 10
2278.8683390449
 20
36.323261869
 30
0.0
 11
2267.6083063911
 21
36.323261869
 31
0.0
  0
LINE
  5
1D2
330
1F
100
AcDbEntity
  8
0
  6
CONTINUOUS
 62
     7
100
AcDbLine
 10
2267.6083063911
 20
36.323261869
 30
0.0
 11
2267.2680830787
 21
41.6371314347
 31
0.0
  0
ARC
  5
1D3
330
1F
100
AcDbEntity
  8
0
  6
CONTINUOUS
 62
     7
100
AcDbCircle
 10
2266.2702341626
 20
41.5732622726
 30
0.0
 40
1.00000000000016
100
AcDbArc
 50
3.6619355755
 51
90.0
  0
LINE
  5
1D4
330
1F
100
AcDbEntity
  8
0
  6
CONTINUOUS
 62
     7
100
AcDbLine
 10
2266.2703013252
 20
42.5732633591
 30
0.0
 11
2258.330485804
 21
42.5732633591
 31
0.0
  0
ARC
  5
1D5
330
1F
100
AcDbEntity
  8
0
  6
CONTINUOUS
 62
     7
100
AcDbCircle
 10
2258.3305584531
 20
43.5732622726
 30
0.0
 40
1.0
100
AcDbArc
 50
245.1121079737
 51
270.0
  0
ARC
  5
1D6
330
1F
100
AcDbEntity
  8
0
  6
CONTINUOUS
 62
     7
100
AcDbCircle
 10
2255.7339502093
 20
37.9762518538
 30
0.0
 40
5.170000000000023
100
AcDbArc
 50
65.1121079736
 51
252.3995332141
  0
ARC
  5
1D7
330
1F
100
AcDbEntity
  8
0
  6
CONTINUOUS
 62
     7
100
AcDbCircle
 10
2253.8682800697
 20
32.0950806329
 30
0.0
 40
0.9999999999998331
100
AcDbArc
 50
0.0
 51
72.3995332142
  0
LINE
  5
1D8
330
1F
100
AcDbEntity
  8
0
  6
CONTINUOUS
 62
     7
100
AcDbLine
 10
2254.8681711982
 20
30.0712617606
 30
0.0
 11
2254.8681711982
 21
32.095079732
 31
0.0
  0
LINE
  5
1D9
330
1F
100
AcDbEntity
  8
0
  6
CONTINUOUS
 62
     7
100
AcDbLine
 10
2116.8683981727
 20
30.0712617606
 30
0.0
 11
2254.8681711982
 21
30.0712617606
 31
0.0
  0
ARC
  5
1DA
330
1F
100
AcDbEntity
  8
0
  6
CONTINUOUS
 62
     7
100
AcDbCircle
 10
2116.8682800697
 20
42.0712622726
 30
0.0
 40
12.00000000000001
100
AcDbArc
 50
180.0
 51
270.0
  0
LINE
  5
1DB
330
1F
100
AcDbEntity
  8
0
  6
CONTINUOUS
 62
     7
100
AcDbLine
 10
2104.8683142494
 20
176.0706021011
 30
0.0
 11
2104.8683142494
 21
42.0712618649
 31
0.0
  0
ARC
  5
1DC
330
1F
100
AcDbEntity
  8
0
  6
CONTINUOUS
 62
     7
100
AcDbCircle
 10
2092.8682800697
 20
176.070595606
 30
0.0
 40
12.00000000000003
100
AcDbArc
 50
0.0
 51
90.0
  0
LINE
  5
1DD
330
1F
100
AcDbEntity
  8
0
  6
CONTINUOUS
 62
     7
100
AcDbLine
 10
2066.8682074379
 20
188.0705966175
 30
0.0
 11
2092.868230326
 21
188.0705966175
 31
0.0
  0
ARC
  5
1DE
330
1F
100
AcDbEntity
  8
0
  6
CONTINUOUS
 62
     7
100
AcDbCircle
 10
2066.8682800697
 20
176.070595606
 30
0.0
 40
12.00000000000045
100
AcDbArc
 50
90.0
 51
180.0
  0
LINE
  5
1DF
330
1F
100
AcDbEntity
  8
0
  6
CONTINUOUS
 62
     7
100
AcDbLine
 10
2054.8683619331
 20
42.0712618649
 30
0.0
 11
2054.8683619331
 21
176.0706021011
 31
0.0
  0
ARC
  5
1E0
330
1F
100
AcDbEntity
  8
0
  6
CONTINUOUS
 62
     7
100
AcDbCircle
 10
2042.8682800697
 20
42.0712622726
 30
0.0
 40
12.00000000000001
100
AcDbArc
 50
270.0
 51
0.0
  0
LINE
  5
1E1
330
1F
100
AcDbEntity
  8
0
  6
CONTINUOUS
 62
     7
100
AcDbLine
 10
1904.8682665657
 20
30.0712617606
 30
0.0
 11
2042.8682780098
 21
30.0712617606
 31
0.0
  0
LINE
  5
1E2
330
1F
100
AcDbEntity
  8
0
  6
CONTINUOUS
 62
     7
100
AcDbLine
 10
1904.8682665657
 20
32.095079732
 30
0.0
 11
1904.8682665657
 21
30.0712617606
 31
0.0
  0
ARC
  5
1E3
330
1F
100
AcDbEntity
  8
0
  6
CONTINUOUS
 62
     7
100
AcDbCircle
 10
1905.8682800697
 20
32.0950806329
 30
0.0
 40
1.0
100
AcDbArc
 50
107.6004667859
 51
180.0
  0
ARC
  5
1E4
330
1F
100
AcDbEntity
  8
0
  6
CONTINUOUS
 62
     7
100
AcDbCircle
 10
1904.0026099301
 20
37.9762518538
 30
0.0
 40
5.170000000000017
100
AcDbArc
 50
287.6004667859
 51
114.8878920264
  0
ARC
  5
1E5
330
1F
100
AcDbEntity
  8
0
  6
CONTINUOUS
 62
     7
100
AcDbCircle
 10
1901.4060016863
 20
43.5732622726
 30
0.0
 40
1.000000000000178
100
AcDbArc
 50
270.0
 51
294.8878920264
  0
LINE
  5
1E6
330
1F
100
AcDbEntity
  8
0
  6
CONTINUOUS
 62
     7
100
AcDbLine
 10
1901.40595196
 20
42.5732633591
 30
0.0
 11
1893.4663748573
 21
42.5732633591
 31
0.0
  0
ARC
  5
1E7
330
1F
100
AcDbEntity
  8
0
  6
CONTINUOUS
 62
     7
100
AcDbCircle
 10
1893.4663259768
 20
41.5732622726
 30
0.0
 40
1.00000000000016
100
AcDbArc
 50
90.0
 51
176.3380644245
  0
LINE
  5
1E8
330
1F
100
AcDbEntity
  8
0
  6
CONTINUOUS
 62
     7
100
AcDbLine
 10
1892.4683546852
 20
41.6371314347
 30
0.0
 11
1892.1282505821
 21
36.323261869
 31
0.0
  0
LINE
  5
1E9
330
1F
100
AcDbEntity
  8
0
  6
CONTINUOUS
 62
     7
100
AcDbLine
 10
1892.1282505821
 20
36.323261869
 30
0.0
 11
1880.8683371376
 21
36.323261869
 31
0.0
  0
ARC
  5
1EA
330
1F
100
AcDbEntity
  8
0
  6
CONTINUOUS
 62
     7
100
AcDbCircle
 10
1880.8682800697
 20
37.3232622726
 30
0.0
 40
1.000000000000227
100
AcDbArc
 50
180.0
 51
270.0
  0
LINE
  5
1EB
330
1F
100
AcDbEntity
  8
0
  6
CONTINUOUS
 62
     7
100
AcDbLine
 10
1879.8682904075
 20
49.0732616306
 30
0.0
 11
1879.8682904075
 21
37.3232638955
 31
0.0
  0
LINE
  5
1EC
330
1F
100
AcDbEntity
  8
0
  6
CONTINUOUS
 62
     7
100
AcDbLine
 10
1848.388335688
 20
563.5512782753
 30
0.0
 11
1848.388335688
 21
603.5512401283
 31
0.0
  0
LINE
  5
1ED
330
1F
100
AcDbEntity
  8
0
  6
CONTINUOUS
 62
     7
100
AcDbLine
 10
1486.3882279228
 20
563.5512782753
 30
0.0
 11
1848.388335688
 21
563.5512782753
 31
0.0
  0
LINE
  5
1EE
330
1F
100
AcDbEntity
  8
0
  6
CONTINUOUS
 62
     7
100
AcDbLine
 10
1486.3882279228
 20
603.5512401283
 30
0.0
 11
1486.3882279228
 21
563.5512782753
 31
0.0
  0
LINE
  5
1EF
330
1F
100
AcDbEntity
  8
0
  6
CONTINUOUS
 62
     7
100
AcDbLine
 10
1486.3882279228
 20
603.5512401283
 30
0.0
 11
1848.388335688
 21
603.5512401283
 31
0.0
  0
LINE
  5
1F0
330
1F
100
AcDbEntity
  8
0
  6
CONTINUOUS
 62
     7
100
AcDbLine
 10
1848.388335688
 20
1065.5513121307
 30
0.0
 11
1486.3882279228
 21
1065.5513121307
 31
0.0
  0
LINE
  5
1F1
330
1F
100
AcDbEntity
  8
0
  6
CONTINUOUS
 62
     7
100
AcDbLine
 10
1848.388335688
 20
615.7212568939
 30
0.0
 11
1486.3882279228
 21
615.7212568939
 31
0.0
  0
LINE
  5
1F2
330
1F
100
AcDbEntity
  8
0
  6
CONTINUOUS
 62
     7
100
AcDbLine
 10
1486.3882279228
 20
1065.5513121307
 30
0.0
 11
1486.3882279228
 21
615.7212568939
 31
0.0
  0
LINE
  5
1F3
330
1F
100
AcDbEntity
  8
0
  6
CONTINUOUS
 62
     7
100
AcDbLine
 10
1848.388335688
 20
615.7212568939
 30
0.0
 11
1848.388335688
 21
1065.5513121307
 31
0.0
  0
LINE
  5
1F4
330
1F
100
AcDbEntity
  8
0
  6
CONTINUOUS
 62
     7
100
AcDbLine
 10
1486.3882279228
 20
603.5512401283
 30
0.0
 11
1486.3882279228
 21
615.7212568939
 31
0.0
  0
LINE
  5
1F5
330
1F
100
AcDbEntity
  8
0
  6
CONTINUOUS
 62
     7
100
AcDbLine
 10
1848.388335688
 20
615.7212568939
 30
0.0
 11
1848.388335688
 21
603.5512401283
 31
0.0
  0
LINE
  5
1F6
330
1F
100
AcDbEntity
  8
0
  6
CONTINUOUS
 62
     7
100
AcDbLine
 10
1486.3882279228
 20
30.0712617606
 30
0.0
 11
1848.388335688
 21
30.0712617606
 31
0.0
  0
LINE
  5
1F7
330
1F
100
AcDbEntity
  8
0
  6
CONTINUOUS
 62
     7
100
AcDbLine
 10
1486.3882279228
 20
70.0712590039
 30
0.0
 11
1486.3882279228
 21
30.0712617606
 31
0.0
  0
LINE
  5
1F8
330
1F
100
AcDbEntity
  8
0
  6
CONTINUOUS
 62
     7
100
AcDbLine
 10
1848.388335688
 20
70.0712590039
 30
0.0
 11
1486.3882279228
 21
70.0712590039
 31
0.0
  0
LINE
  5
1F9
330
1F
100
AcDbEntity
  8
0
  6
CONTINUOUS
 62
     7
100
AcDbLine
 10
1848.388335688
 20
30.0712617606
 30
0.0
 11
1848.388335688
 21
70.0712590039
 31
0.0
  0
LINE
  5
1FA
330
1F
100
AcDbEntity
  8
0
  6
CONTINUOUS
 62
     7
100
AcDbLine
 10
1848.388335688
 20
532.0712639511
 30
0.0
 11
1486.3882279228
 21
532.0712639511
 31
0.0
  0
LINE
  5
1FB
330
1F
100
AcDbEntity
  8
0
  6
CONTINUOUS
 62
     7
100
AcDbLine
 10
1486.3882279228
 20
82.2412608683
 30
0.0
 11
1848.388335688
 21
82.2412608683
 31
0.0
  0
LINE
  5
1FC
330
1F
100
AcDbEntity
  8
0
  6
CONTINUOUS
 62
     7
100
AcDbLine
 10
1486.3882279228
 20
532.0712639511
 30
0.0
 11
1486.3882279228
 21
82.2412608683
 31
0.0
  0
LINE
  5
1FD
330
1F
100
AcDbEntity
  8
0
  6
CONTINUOUS
 62
     7
100
AcDbLine
 10
1848.388335688
 20
82.2412608683
 30
0.0
 11
1848.388335688
 21
532.0712639511
 31
0.0
  0
LINE
  5
1FE
330
1F
100
AcDbEntity
  8
0
  6
CONTINUOUS
 62
     7
100
AcDbLine
 10
1486.3882279228
 20
70.0712590039
 30
0.0
 11
1486.3882279228
 21
82.2412608683
 31
0.0
  0
LINE
  5
1FF
330
1F
100
AcDbEntity
  8
0
  6
CONTINUOUS
 62
     7
100
AcDbLine
 10
1848.388335688
 20
82.2412608683
 30
0.0
 11
1848.388335688
 21
70.0712590039
 31
0.0
  0
LINE
  5
200
330
1F
100
AcDbEntity
  8
PROFILES_OUTSIDE
100
AcDbLine
 10
1061.4282800697
 20
36.0712622726
 30
0.0
 11
1061.4282800697
 21
462.0712622726
 31
0.0
  0
LINE
  5
201
330
1F
100
AcDbEntity
  8
PROFILES_OUTSIDE
100
AcDbLine
 10
527.9482800697
 20
30.0712622726
 30
0.0
 11
527.9482800697
 21
468.0712622726
 31
0.0
  0
LINE
  5
202
330
1F
100
AcDbEntity
  8
POCKETS
100
AcDbLine
 10
1858.3882800697
 20
82.2412622726
 30
0.0
 11
1476.3882800697
 21
82.2412622726
 31
0.0
  0
LINE
  5
203
330
1F
100
AcDbEntity
  8
POCKETS
100
AcDbLine
 10
1476.3882800697
 20
82.2412622726
 30
0.0
 11
1476.3882800697
 21
70.0712622726
 31
0.0
  0
LINE
  5
204
330
1F
100
AcDbEntity
  8
POCKETS
100
AcDbLine
 10
1476.3882800697
 20
70.0712622726
 30
0.0
 11
1858.3882800697
 21
70.0712622726
 31
0.0
  0
LINE
  5
205
330
1F
100
AcDbEntity
  8
PROFILES_OUTSIDE
100
AcDbLine
 10
527.9482800697
 20
468.0712622726
 30
0.0
 11
25.9482800697
 21
468.0712622726
 31
0.0
  0
LINE
  5
206
330
1F
100
AcDbEntity
  8
PROFILES_OUTSIDE
100
AcDbLine
 10
25.9482800697
 20
468.0712622726
 30
0.0
 11
25.9482800697
 21
30.0712622726
 31
0.0
  0
LINE
  5
207
330
1F
100
AcDbEntity
  8
PROFILES_OUTSIDE
100
AcDbLine
 10
25.9482800697
 20
30.0712622726
 30
0.0
 11
527.9482800697
 21
30.0712622726
 31
0.0
  0
LINE
  5
208
330
1F
100
AcDbEntity
  8
POCKETS
100
AcDbLine
 10
1858.3882800697
 20
70.0712622726
 30
0.0
 11
1858.3882800697
 21
82.2412622726
 31
0.0
  0
LINE
  5
209
330
1F
100
AcDbEntity
  8
PROFILES_INSIDE
100
AcDbLine
 10
500.2752800697
 20
444.3635468713
 30
0.0
 11
500.2752801212
 21
449.778977674
 31
0.0
  0
LINE
  5
20A
330
1F
100
AcDbEntity
  8
PROFILES_INSIDE
100
AcDbLine
 10
485.7534617095
 20
440.9012595197
 30
0.0
 11
489.7970984299
 21
440.9012650255
 31
0.0
  0
LINE
  5
20B
330
1F
100
AcDbEntity
  8
PROFILES_INSIDE
100
AcDbLine
 10
475.275277878
 20
449.7789901045
 30
0.0
 11
475.2752800697
 21
444.3635344408
 31
0.0
  0
LINE
  5
20C
330
1F
100
AcDbEntity
  8
PROFILES_INSIDE
100
AcDbLine
 10
489.7970984299
 20
453.2412650255
 30
0.0
 11
485.7534617095
 21
453.2412574301
 31
0.0
  0
LINE
  5
20D
330
1F
100
AcDbEntity
  8
PROFILES_OUTSIDE
100
AcDbLine
 10
1454.9082800697
 20
30.0712622726
 30
0.0
 11
1454.9082800697
 21
402.0712622726
 31
0.0
  0
LINE
  5
20E
330
1F
100
AcDbEntity
  8
PROFILES_OUTSIDE
100
AcDbLine
 10
1454.9082800697
 20
402.0712622726
 30
0.0
 11
1092.9082800697
 21
402.0712622726
 31
0.0
  0
LINE
  5
20F
330
1F
100
AcDbEntity
  8
PROFILES_OUTSIDE
100
AcDbLine
 10
1092.9082800697
 20
402.0712622726
 30
0.0
 11
1092.9082800697
 21
30.0712622726
 31
0.0
  0
LINE
  5
210
330
1F
100
AcDbEntity
  8
PROFILES_OUTSIDE
100
AcDbLine
 10
1092.9082800697
 20
30.0712622726
 30
0.0
 11
1454.9082800697
 21
30.0712622726
 31
0.0
  0
LINE
  5
211
330
1F
100
AcDbEntity
  8
PROFILES_OUTSIDE
100
AcDbLine
 10
1848.3882800697
 20
532.0712622726
 30
0.0
 11
1486.3882800697
 21
532.0712622726
 31
0.0
  0
LINE
  5
212
330
1F
100
AcDbEntity
  8
PROFILES_OUTSIDE
100
AcDbLine
 10
1486.3882800697
 20
532.0712622726
 30
0.0
 11
1486.3882800697
 21
30.0712622726
 31
0.0
  0
LINE
  5
213
330
1F
100
AcDbEntity
  8
PROFILES_OUTSIDE
100
AcDbLine
 10
1486.3882800697
 20
30.0712622726
 30
0.0
 11
1848.3882800697
 21
30.0712622726
 31
0.0
  0
LINE
  5
214
330
1F
100
AcDbEntity
  8
PROFILES_OUTSIDE
100
AcDbLine
 10
1848.3882800697
 20
30.0712622726
 30
0.0
 11
1848.3882800697
 21
532.0712622726
 31
0.0
  0
LINE
  5
215
330
1F
100
AcDbEntity
  8
PROFILES_OUTSIDE
100
AcDbLine
 10
1486.3882800697
 20
1065.5512622726
 30
0.0
 11
1486.3882800697
 21
563.5512622726
 31
0.0
  0
LINE
  5
216
330
1F
100
AcDbEntity
  8
PROFILES_OUTSIDE
100
AcDbLine
 10
1486.3882800697
 20
563.5512622726
 30
0.0
 11
1848.3882800697
 21
563.5512622726
 31
0.0
  0
LINE
  5
217
330
1F
100
AcDbEntity
  8
BOX_STOCK
100
AcDbLine
 10
0.2082800697
 20
4.3312622726
 30
0.0
 11
2440.2082800697
 21
4.3312622726
 31
0.0
  0
LINE
  5
218
330
1F
100
AcDbEntity
  8
BOX_STOCK
100
AcDbLine
 10
2440.2082800697
 20
4.3312622726
 30
0.0
 11
2440.2082800697
 21
1224.3312622726
 31
0.0
  0
LINE
  5
219
330
1F
100
AcDbEntity
  8
BOX_STOCK
100
AcDbLine
 10
2440.2082800697
 20
1224.3312622726
 30
0.0
 11
0.2082800697
 21
1224.3312622726
 31
0.0
  0
LINE
  5
21A
330
1F
100
AcDbEntity
  8
BOX_STOCK
100
AcDbLine
 10
0.2082800697
 20
1224.3312622726
 30
0.0
 11
0.2082800697
 21
4.3312622726
 31
0.0
  0
LINE
  5
21B
330
1F
100
AcDbEntity
  8
POCKETS
100
AcDbLine
 10
1858.3882800697
 20
615.7212622726
 30
0.0
 11
1476.3882800697
 21
615.7212622726
 31
0.0
  0
LINE
  5
21C
330
1F
100
AcDbEntity
  8
PROFILES_OUTSIDE
100
AcDbLine
 10
1848.3882800697
 20
563.5512622726
 30
0.0
 11
1848.3882800697
 21
1065.5512622726
 31
0.0
  0
LINE
  5
21D
330
1F
100
AcDbEntity
  8
POCKETS
100
AcDbLine
 10
1476.3882800697
 20
615.7212622726
 30
0.0
 11
1476.3882800697
 21
603.5512622726
 31
0.0
  0
LINE
  5
21E
330
1F
100
AcDbEntity
  8
POCKETS
100
AcDbLine
 10
1476.3882800697
 20
603.5512622726
 30
0.0
 11
1858.3882800697
 21
603.5512622726
 31
0.0
  0
LINE
  5
21F
330
1F
100
AcDbEntity
  8
POCKETS
100
AcDbLine
 10
1858.3882800697
 20
603.5512622726
 30
0.0
 11
1858.3882800697
 21
615.7212622726
 31
0.0
  0
LINE
  5
220
330
1F
100
AcDbEntity
  8
PROFILES_OUTSIDE
100
AcDbLine
 10
1848.3882800697
 20
1065.5512622726
 30
0.0
 11
1486.3882800697
 21
1065.5512622726
 31
0.0
  0
LINE
  5
221
330
1F
100
AcDbEntity
  8
PROFILES_INSIDE
100
AcDbLine
 10
88.2812800697
 20
444.3635468713
 30
0.0
 11
88.2812800697
 21
449.778977674
 31
0.0
  0
LINE
  5
222
330
1F
100
AcDbEntity
  8
PROFILES_INSIDE
100
AcDbLine
 10
77.8030984299
 20
453.2412650255
 30
0.0
 11
73.7594617095
 21
453.2412587599
 31
0.0
  0
LINE
  5
223
330
1F
100
AcDbEntity
  8
PROFILES_INSIDE
100
AcDbLine
 10
63.281277688
 20
449.7789901045
 30
0.0
 11
63.2812800697
 21
444.3635344408
 31
0.0
  0
LINE
  5
224
330
1F
100
AcDbEntity
  8
PROFILES_INSIDE
100
AcDbLine
 10
73.7594617095
 20
440.9012595197
 30
0.0
 11
77.8030984299
 21
440.9012650255
 31
0.0
  0
LINE
  5
225
330
1F
100
AcDbEntity
  8
PROFILES_INSIDE
100
AcDbLine
 10
500.2752800697
 20
48.3635471161
 30
0.0
 11
500.2752800697
 21
53.7789774291
 31
0.0
  0
LINE
  5
226
330
1F
100
AcDbEntity
  8
PROFILES_INSIDE
100
AcDbLine
 10
489.7970984299
 20
57.241265134
 30
0.0
 11
485.7534617095
 21
57.2412592138
 31
0.0
  0
LINE
  5
227
330
1F
100
AcDbEntity
  8
PROFILES_INSIDE
100
AcDbLine
 10
475.2752773967
 20
53.7789903493
 30
0.0
 11
475.2752800697
 21
48.3635341959
 31
0.0
  0
LINE
  5
228
330
1F
100
AcDbEntity
  8
PROFILES_INSIDE
100
AcDbLine
 10
485.7534617095
 20
44.9012594113
 30
0.0
 11
489.7970984299
 21
44.901265134
 31
0.0
  0
LINE
  5
229
330
1F
100
AcDbEntity
  8
PROFILES_INSIDE
100
AcDbLine
 10
63.2812777916
 20
53.7789903493
 30
0.0
 11
63.2812800697
 21
48.3635341959
 31
0.0
  0
LINE
  5
22A
330
1F
100
AcDbEntity
  8
PROFILES_INSIDE
100
AcDbLine
 10
73.7594617095
 20
44.9012594113
 30
0.0
 11
77.8030984299
 21
44.901265134
 31
0.0
  0
LINE
  5
22B
330
1F
100
AcDbEntity
  8
PROFILES_INSIDE
100
AcDbLine
 10
88.2812800697
 20
48.3635471161
 30
0.0
 11
88.2812800697
 21
53.7789774291
 31
0.0
  0
LINE
  5
22C
330
1F
100
AcDbEntity
  8
PROFILES_INSIDE
100
AcDbLine
 10
77.8030984299
 20
57.241265134
 30
0.0
 11
73.7594617095
 21
57.2412594113
 31
0.0
  0
LINE
  5
22D
330
1F
100
AcDbEntity
  8
PROFILES_OUTSIDE
100
AcDbLine
 10
1892.1282800697
 20
485.8172622726
 30
0.0
 11
1880.8682800697
 21
485.8172622726
 31
0.0
  0
LINE
  5
22E
330
1F
100
AcDbEntity
  8
PROFILES_OUTSIDE
100
AcDbLine
 10
1892.4683677068
 20
480.5033929433
 30
0.0
 11
1892.1282800697
 21
485.8172622726
 31
0.0
  0
LINE
  5
22F
330
1F
100
AcDbEntity
  8
PROFILES_OUTSIDE
100
AcDbLine
 10
1901.4060016863
 20
479.5672622726
 30
0.0
 11
1893.4663259768
 21
479.5672622726
 31
0.0
  0
LINE
  5
230
330
1F
100
AcDbEntity
  8
PROFILES_OUTSIDE
100
AcDbLine
 10
1904.8682800697
 20
492.0692622726
 30
0.0
 11
1904.8682800697
 21
490.0454439124
 31
0.0
  0
LINE
  5
231
330
1F
100
AcDbEntity
  8
PROFILES_OUTSIDE
100
AcDbLine
 10
2042.8682800697
 20
492.0692622726
 30
0.0
 11
1904.8682800697
 21
492.0692622726
 31
0.0
  0
LINE
  5
232
330
1F
100
AcDbEntity
  8
PROFILES_OUTSIDE
100
AcDbLine
 10
2054.8682800697
 20
346.0699289393
 30
0.0
 11
2054.8682800697
 21
480.0692622726
 31
0.0
  0
LINE
  5
233
330
1F
100
AcDbEntity
  8
PROFILES_OUTSIDE
100
AcDbLine
 10
2092.8682800697
 20
334.0699289393
 30
0.0
 11
2066.8682800697
 21
334.0699289393
 31
0.0
  0
LINE
  5
234
330
1F
100
AcDbEntity
  8
PROFILES_OUTSIDE
100
AcDbLine
 10
2104.8682800697
 20
480.0692622726
 30
0.0
 11
2104.8682800697
 21
346.0699289393
 31
0.0
  0
LINE
  5
235
330
1F
100
AcDbEntity
  8
PROFILES_INSIDE
100
AcDbLine
 10
1033.7552800697
 20
444.3635471162
 30
0.0
 11
1033.7552800697
 21
449.7789774291
 31
0.0
  0
LINE
  5
236
330
1F
100
AcDbEntity
  8
PROFILES_INSIDE
100
AcDbLine
 10
1019.2334617095
 20
440.9012594113
 30
0.0
 11
1023.2770984299
 21
440.901265134
 31
0.0
  0
LINE
  5
237
330
1F
100
AcDbEntity
  8
PROFILES_INSIDE
100
AcDbLine
 10
1008.7552777916
 20
449.7789903494
 30
0.0
 11
1008.7552800697
 21
444.3635341959
 31
0.0
  0
LINE
  5
238
330
1F
100
AcDbEntity
  8
PROFILES_INSIDE
100
AcDbLine
 10
1023.2770984299
 20
453.241265134
 30
0.0
 11
1019.2334617095
 21
453.2412572392
 31
0.0
  0
LINE
  5
239
330
1F
100
AcDbEntity
  8
PROFILES_INSIDE
100
AcDbLine
 10
621.9058800697
 20
444.3635471162
 30
0.0
 11
621.9058800697
 21
449.7789774291
 31
0.0
  0
LINE
  5
23A
330
1F
100
AcDbEntity
  8
PROFILES_INSIDE
100
AcDbLine
 10
611.4276984299
 20
453.241265134
 30
0.0
 11
607.3840617095
 21
453.2412586215
 31
0.0
  0
LINE
  5
23B
330
1F
100
AcDbEntity
  8
PROFILES_INSIDE
100
AcDbLine
 10
596.9058775942
 20
449.7789903494
 30
0.0
 11
596.9058800697
 21
444.3635341959
 31
0.0
  0
LINE
  5
23C
330
1F
100
AcDbEntity
  8
PROFILES_INSIDE
100
AcDbLine
 10
607.3840617095
 20
440.9012594113
 30
0.0
 11
611.4276984299
 21
440.901265134
 31
0.0
  0
LINE
  5
23D
330
1F
100
AcDbEntity
  8
PROFILES_INSIDE
100
AcDbLine
 10
1033.7552800697
 20
48.3635468713
 30
0.0
 11
1033.7552800955
 21
53.778977674
 31
0.0
  0
LINE
  5
23E
330
1F
100
AcDbEntity
  8
PROFILES_INSIDE
100
AcDbLine
 10
1023.2770984299
 20
57.2412650255
 30
0.0
 11
1019.2334617095
 21
57.2412593298
 31
0.0
  0
LINE
  5
23F
330
1F
100
AcDbEntity
  8
PROFILES_INSIDE
100
AcDbLine
 10
1008.755277498
 20
53.7789901044
 30
0.0
 11
1008.7552800697
 21
48.3635344408
 31
0.0
  0
LINE
  5
240
330
1F
100
AcDbEntity
  8
PROFILES_INSIDE
100
AcDbLine
 10
1019.2334617095
 20
44.9012595197
 30
0.0
 11
1023.2770984299
 21
44.9012650255
 31
0.0
  0
LINE
  5
241
330
1F
100
AcDbEntity
  8
PROFILES_OUTSIDE
100
AcDbLine
 10
2254.8682800697
 20
492.0692622726
 30
0.0
 11
2116.8682800697
 21
492.0692622726
 31
0.0
  0
LINE
  5
242
330
1F
100
AcDbEntity
  8
PROFILES_OUTSIDE
100
AcDbLine
 10
2254.8682800697
 20
490.0454439124
 30
0.0
 11
2254.8682800697
 21
492.0692622726
 31
0.0
  0
LINE
  5
243
330
1F
100
AcDbEntity
  8
PROFILES_OUTSIDE
100
AcDbLine
 10
2266.2702341626
 20
479.5672622726
 30
0.0
 11
2258.3305584531
 21
479.5672622726
 31
0.0
  0
LINE
  5
244
330
1F
100
AcDbEntity
  8
PROFILES_OUTSIDE
100
AcDbLine
 10
2267.6082800697
 20
485.8172622726
 30
0.0
 11
2267.2681924326
 21
480.5033929433
 31
0.0
  0
LINE
  5
245
330
1F
100
AcDbEntity
  8
PROFILES_OUTSIDE
100
AcDbLine
 10
2278.8682800697
 20
485.8172622726
 30
0.0
 11
2267.6082800697
 21
485.8172622726
 31
0.0
  0
LINE
  5
246
330
1F
100
AcDbEntity
  8
PROFILES_INSIDE
100
AcDbLine
 10
596.905877878
 20
53.7789901044
 30
0.0
 11
596.9058800697
 21
48.3635344408
 31
0.0
  0
LINE
  5
247
330
1F
100
AcDbEntity
  8
PROFILES_INSIDE
100
AcDbLine
 10
607.3840617095
 20
44.9012595197
 30
0.0
 11
611.4276984299
 21
44.9012650255
 31
0.0
  0
LINE
  5
248
330
1F
100
AcDbEntity
  8
PROFILES_INSIDE
100
AcDbLine
 10
621.9058800697
 20
48.3635468713
 30
0.0
 11
621.9058800697
 21
53.778977674
 31
0.0
  0
LINE
  5
249
330
1F
100
AcDbEntity
  8
PROFILES_INSIDE
100
AcDbLine
 10
611.4276984299
 20
57.2412650255
 30
0.0
 11
607.3840617095
 21
57.2412595197
 31
0.0
  0
LINE
  5
24A
330
1F
100
AcDbEntity
  8
PROFILES_OUTSIDE
100
AcDbLine
 10
559.4282800697
 20
462.0712622726
 30
0.0
 11
559.4282800697
 21
36.0712622726
 31
0.0
  0
LINE
  5
24B
330
1F
100
AcDbEntity
  8
PROFILES_OUTSIDE
100
AcDbLine
 10
1055.4282800697
 20
468.0712622726
 30
0.0
 11
565.4282800697
 21
468.0712622726
 31
0.0
  0
LINE
  5
24C
330
1F
100
AcDbEntity
  8
POCKETS
100
AcDbLine
 10
538.2882800697
 20
69.4112622726
 30
0.0
 11
528.2882800697
 21
69.4112622726
 31
0.0
  0
LINE
  5
24D
330
1F
100
AcDbEntity
  8
PROFILES_OUTSIDE
100
AcDbLine
 10
2279.8682800697
 20
473.0672622726
 30
0.0
 11
2279.8682800697
 21
484.8172622726
 31
0.0
  0
LINE
  5
24E
330
1F
100
AcDbEntity
  8
PROFILES_OUTSIDE
100
AcDbLine
 10
2135.9182800697
 20
467.0672622726
 30
0.0
 11
2273.8682800697
 21
467.0672622726
 31
0.0
  0
LINE
  5
24F
330
1F
100
AcDbEntity
  8
PROFILES_OUTSIDE
100
AcDbLine
 10
2123.9182800697
 20
334.0699289393
 30
0.0
 11
2123.9182800697
 21
455.0672622726
 31
0.0
  0
LINE
  5
250
330
1F
100
AcDbEntity
  8
PROFILES_OUTSIDE
100
AcDbLine
 10
2104.8682800697
 20
221.0661634902
 30
0.0
 11
2104.8682800697
 21
301.0743610551
 31
0.0
  0
LINE
  5
251
330
1F
100
AcDbEntity
  8
PROFILES_OUTSIDE
100
AcDbLine
 10
2123.9182800697
 20
67.0732622726
 30
0.0
 11
2123.9182800697
 21
188.070595606
 31
0.0
  0
LINE
  5
252
330
1F
100
AcDbEntity
  8
PROFILES_OUTSIDE
100
AcDbLine
 10
2273.8682800697
 20
55.0732622726
 30
0.0
 11
2135.9182800697
 21
55.0732622726
 31
0.0
  0
LINE
  5
253
330
1F
100
AcDbEntity
  8
PROFILES_OUTSIDE
100
AcDbLine
 10
2279.8682800697
 20
37.3232622726
 30
0.0
 11
2279.8682800697
 21
49.0732622726
 31
0.0
  0
LINE
  5
254
330
1F
100
AcDbEntity
  8
PROFILES_OUTSIDE
100
AcDbLine
 10
2267.6082800697
 20
36.3232622726
 30
0.0
 11
2278.8682800697
 21
36.3232622726
 31
0.0
  0
LINE
  5
255
330
1F
100
AcDbEntity
  8
PROFILES_OUTSIDE
100
AcDbLine
 10
2267.2681924326
 20
41.6371316019
 30
0.0
 11
2267.6082800697
 21
36.3232622726
 31
0.0
  0
LINE
  5
256
330
1F
100
AcDbEntity
  8
PROFILES_OUTSIDE
100
AcDbLine
 10
2258.3305584531
 20
42.5732622726
 30
0.0
 11
2266.2702341626
 21
42.5732622726
 31
0.0
  0
LINE
  5
257
330
1F
100
AcDbEntity
  8
PROFILES_OUTSIDE
100
AcDbLine
 10
2254.8682800697
 20
30.0712622726
 30
0.0
 11
2254.8682800697
 21
32.0950806329
 31
0.0
  0
LINE
  5
258
330
1F
100
AcDbEntity
  8
PROFILES_OUTSIDE
100
AcDbLine
 10
2116.8682800697
 20
30.0712622726
 30
0.0
 11
2254.8682800697
 21
30.0712622726
 31
0.0
  0
LINE
  5
259
330
1F
100
AcDbEntity
  8
PROFILES_OUTSIDE
100
AcDbLine
 10
2104.8682800697
 20
176.070595606
 30
0.0
 11
2104.8682800697
 21
42.0712622726
 31
0.0
  0
LINE
  5
25A
330
1F
100
AcDbEntity
  8
PROFILES_OUTSIDE
100
AcDbLine
 10
2066.8682800697
 20
188.070595606
 30
0.0
 11
2092.8682800697
 21
188.070595606
 31
0.0
  0
LINE
  5
25B
330
1F
100
AcDbEntity
  8
PROFILES_OUTSIDE
100
AcDbLine
 10
2054.8682800697
 20
42.0712622726
 30
0.0
 11
2054.8682800697
 21
176.070595606
 31
0.0
  0
LINE
  5
25C
330
1F
100
AcDbEntity
  8
PROFILES_OUTSIDE
100
AcDbLine
 10
1904.8682800697
 20
30.0712622726
 30
0.0
 11
2042.8682800697
 21
30.0712622726
 31
0.0
  0
LINE
  5
25D
330
1F
100
AcDbEntity
  8
POCKETS
100
AcDbLine
 10
538.2882800697
 20
56.7312622726
 30
0.0
 11
538.2882800697
 21
69.4112622726
 31
0.0
  0
LINE
  5
25E
330
1F
100
AcDbEntity
  8
POCKETS
100
AcDbLine
 10
528.2882800697
 20
56.7312622726
 30
0.0
 11
538.2882800697
 21
56.7312622726
 31
0.0
  0
LINE
  5
25F
330
1F
100
AcDbEntity
  8
POCKETS
100
AcDbLine
 10
25.6082800697
 20
56.7312622726
 30
0.0
 11
528.2882800697
 21
56.7312622726
 31
0.0
  0
LINE
  5
260
330
1F
100
AcDbEntity
  8
POCKETS
100
AcDbLine
 10
15.6082800697
 20
56.7312622726
 30
0.0
 11
25.6082800697
 21
56.7312622726
 31
0.0
  0
LINE
  5
261
330
1F
100
AcDbEntity
  8
POCKETS
100
AcDbLine
 10
15.6082800697
 20
69.4112622726
 30
0.0
 11
15.6082800697
 21
56.7312622726
 31
0.0
  0
LINE
  5
262
330
1F
100
AcDbEntity
  8
POCKETS
100
AcDbLine
 10
25.6082800697
 20
69.4112622726
 30
0.0
 11
15.6082800697
 21
69.4112622726
 31
0.0
  0
LINE
  5
263
330
1F
100
AcDbEntity
  8
POCKETS
100
AcDbLine
 10
475.6082800697
 20
69.4112622726
 30
0.0
 11
25.6082800697
 21
69.4112622726
 31
0.0
  0
LINE
  5
264
330
1F
100
AcDbEntity
  8
POCKETS
100
AcDbLine
 10
475.6082800697
 20
428.7312622726
 30
0.0
 11
475.6082800697
 21
69.4112622726
 31
0.0
  0
LINE
  5
265
330
1F
100
AcDbEntity
  8
POCKETS
100
AcDbLine
 10
25.6082800697
 20
428.7312622726
 30
0.0
 11
475.6082800697
 21
428.7312622726
 31
0.0
  0
LINE
  5
266
330
1F
100
AcDbEntity
  8
POCKETS
100
AcDbLine
 10
15.6082800697
 20
428.7312622726
 30
0.0
 11
25.6082800697
 21
428.7312622726
 31
0.0
  0
LINE
  5
267
330
1F
100
AcDbEntity
  8
POCKETS
100
AcDbLine
 10
15.6082800697
 20
441.4112622726
 30
0.0
 11
15.6082800697
 21
428.7312622726
 31
0.0
  0
LINE
  5
268
330
1F
100
AcDbEntity
  8
POCKETS
100
AcDbLine
 10
25.6082800697
 20
441.4112622726
 30
0.0
 11
15.6082800697
 21
441.4112622726
 31
0.0
  0
LINE
  5
269
330
1F
100
AcDbEntity
  8
POCKETS
100
AcDbLine
 10
528.2882800697
 20
441.4112622726
 30
0.0
 11
25.6082800697
 21
441.4112622726
 31
0.0
  0
LINE
  5
26A
330
1F
100
AcDbEntity
  8
POCKETS
100
AcDbLine
 10
538.2882800697
 20
441.4112622726
 30
0.0
 11
528.2882800697
 21
441.4112622726
 31
0.0
  0
LINE
  5
26B
330
1F
100
AcDbEntity
  8
POCKETS
100
AcDbLine
 10
538.2882800697
 20
428.7312622726
 30
0.0
 11
538.2882800697
 21
441.4112622726
 31
0.0
  0
LINE
  5
26C
330
1F
100
AcDbEntity
  8
POCKETS
100
AcDbLine
 10
528.2882800697
 20
428.7312622726
 30
0.0
 11
538.2882800697
 21
428.7312622726
 31
0.0
  0
LINE
  5
26D
330
1F
100
AcDbEntity
  8
POCKETS
100
AcDbLine
 10
487.9482800697
 20
428.7312622726
 30
0.0
 11
528.2882800697
 21
428.7312622726
 31
0.0
  0
LINE
  5
26E
330
1F
100
AcDbEntity
  8
PROFILES_OUTSIDE
100
AcDbLine
 10
1904.8682800697
 20
32.0950806329
 30
0.0
 11
1904.8682800697
 21
30.0712622726
 31
0.0
  0
LINE
  5
26F
330
1F
100
AcDbEntity
  8
PROFILES_OUTSIDE
100
AcDbLine
 10
1893.4663259768
 20
42.5732622726
 30
0.0
 11
1901.4060016863
 21
42.5732622726
 31
0.0
  0
LINE
  5
270
330
1F
100
AcDbEntity
  8
PROFILES_OUTSIDE
100
AcDbLine
 10
1892.1282800697
 20
36.3232622726
 30
0.0
 11
1892.4683677068
 21
41.6371316019
 31
0.0
  0
LINE
  5
271
330
1F
100
AcDbEntity
  8
PROFILES_OUTSIDE
100
AcDbLine
 10
1880.8682800697
 20
36.3232622726
 30
0.0
 11
1892.1282800697
 21
36.3232622726
 31
0.0
  0
LINE
  5
272
330
1F
100
AcDbEntity
  8
PROFILES_OUTSIDE
100
AcDbLine
 10
1879.8682800697
 20
49.0732622726
 30
0.0
 11
1879.8682800697
 21
37.3232622726
 31
0.0
  0
LINE
  5
273
330
1F
100
AcDbEntity
  8
PROFILES_OUTSIDE
100
AcDbLine
 10
2023.8182800697
 20
55.0732622726
 30
0.0
 11
1885.8682800697
 21
55.0732622726
 31
0.0
  0
LINE
  5
274
330
1F
100
AcDbEntity
  8
PROFILES_OUTSIDE
100
AcDbLine
 10
2035.8182800697
 20
188.070595606
 30
0.0
 11
2035.8182800697
 21
67.0732622726
 31
0.0
  0
LINE
  5
275
330
1F
100
AcDbEntity
  8
PROFILES_OUTSIDE
100
AcDbLine
 10
2054.8682800697
 20
301.0743610551
 30
0.0
 11
2054.8682800697
 21
221.0661634902
 31
0.0
  0
LINE
  5
276
330
1F
100
AcDbEntity
  8
PROFILES_OUTSIDE
100
AcDbLine
 10
2035.8182800697
 20
455.0672622726
 30
0.0
 11
2035.8182800697
 21
334.0699289393
 31
0.0
  0
LINE
  5
277
330
1F
100
AcDbEntity
  8
PROFILES_OUTSIDE
100
AcDbLine
 10
1885.8682800697
 20
467.0672622726
 30
0.0
 11
2023.8182800697
 21
467.0672622726
 31
0.0
  0
LINE
  5
278
330
1F
100
AcDbEntity
  8
PROFILES_OUTSIDE
100
AcDbLine
 10
1879.8682800697
 20
484.8172622726
 30
0.0
 11
1879.8682800697
 21
473.0672622726
 31
0.0
  0
LINE
  5
279
330
1F
100
AcDbEntity
  8
POCKETS
100
AcDbLine
 10
487.9482800697
 20
69.4112622726
 30
0.0
 11
487.9482800697
 21
428.7312622726
 31
0.0
  0
LINE
  5
27A
330
1F
100
AcDbEntity
  8
PROFILES_OUTSIDE
100
AcDbLine
 10
2267.6082800697
 20
529.7972622726
 30
0.0
 11
2278.8682800697
 21
529.7972622726
 31
0.0
  0
LINE
  5
27B
330
1F
100
AcDbEntity
  8
PROFILES_OUTSIDE
100
AcDbLine
 10
2267.2681924326
 20
535.1111316019
 30
0.0
 11
2267.6082800697
 21
529.7972622726
 31
0.0
  0
LINE
  5
27C
330
1F
100
AcDbEntity
  8
PROFILES_OUTSIDE
100
AcDbLine
 10
2258.3305584531
 20
536.0472622726
 30
0.0
 11
2266.2702341626
 21
536.0472622726
 31
0.0
  0
LINE
  5
27D
330
1F
100
AcDbEntity
  8
PROFILES_OUTSIDE
100
AcDbLine
 10
2254.8682800697
 20
523.5452622726
 30
0.0
 11
2254.8682800697
 21
525.5690806329
 31
0.0
  0
LINE
  5
27E
330
1F
100
AcDbEntity
  8
PROFILES_OUTSIDE
100
AcDbLine
 10
2116.8682800697
 20
523.5452622726
 30
0.0
 11
2254.8682800697
 21
523.5452622726
 31
0.0
  0
LINE
  5
27F
330
1F
100
AcDbEntity
  8
PROFILES_OUTSIDE
100
AcDbLine
 10
2104.8682800697
 20
669.544595606
 30
0.0
 11
2104.8682800697
 21
535.5452622726
 31
0.0
  0
LINE
  5
280
330
1F
100
AcDbEntity
  8
PROFILES_OUTSIDE
100
AcDbLine
 10
2066.8682800697
 20
681.544595606
 30
0.0
 11
2092.8682800697
 21
681.544595606
 31
0.0
  0
LINE
  5
281
330
1F
100
AcDbEntity
  8
PROFILES_OUTSIDE
100
AcDbLine
 10
2054.8682800697
 20
535.5452622726
 30
0.0
 11
2054.8682800697
 21
669.544595606
 31
0.0
  0
LINE
  5
282
330
1F
100
AcDbEntity
  8
PROFILES_OUTSIDE
100
AcDbLine
 10
1904.8682800697
 20
523.5452622726
 30
0.0
 11
2042.8682800697
 21
523.5452622726
 31
0.0
  0
LINE
  5
283
330
1F
100
AcDbEntity
  8
PROFILES_OUTSIDE
100
AcDbLine
 10
1904.8682800697
 20
525.5690806329
 30
0.0
 11
1904.8682800697
 21
523.5452622726
 31
0.0
  0
LINE
  5
284
330
1F
100
AcDbEntity
  8
PROFILES_OUTSIDE
100
AcDbLine
 10
1893.4663259768
 20
536.0472622726
 30
0.0
 11
1901.4060016863
 21
536.0472622726
 31
0.0
  0
LINE
  5
285
330
1F
100
AcDbEntity
  8
PROFILES_OUTSIDE
100
AcDbLine
 10
1892.1282800697
 20
529.7972622726
 30
0.0
 11
1892.4683677068
 21
535.1111316019
 31
0.0
  0
LINE
  5
286
330
1F
100
AcDbEntity
  8
PROFILES_OUTSIDE
100
AcDbLine
 10
1880.8682800697
 20
529.7972622726
 30
0.0
 11
1892.1282800697
 21
529.7972622726
 31
0.0
  0
LINE
  5
287
330
1F
100
AcDbEntity
  8
PROFILES_OUTSIDE
100
AcDbLine
 10
1879.8682800697
 20
542.5472622726
 30
0.0
 11
1879.8682800697
 21
530.7972622726
 31
0.0
  0
LINE
  5
288
330
1F
100
AcDbEntity
  8
PROFILES_OUTSIDE
100
AcDbLine
 10
2023.8182800697
 20
548.5472622726
 30
0.0
 11
1885.8682800697
 21
548.5472622726
 31
0.0
  0
LINE
  5
289
330
1F
100
AcDbEntity
  8
PROFILES_OUTSIDE
100
AcDbLine
 10
2035.8182800697
 20
681.544595606
 30
0.0
 11
2035.8182800697
 21
560.5472622726
 31
0.0
  0
LINE
  5
28A
330
1F
100
AcDbEntity
  8
PROFILES_OUTSIDE
100
AcDbLine
 10
2054.8682800697
 20
794.5483610551
 30
0.0
 11
2054.8682800697
 21
714.5401634902
 31
0.0
  0
LINE
  5
28B
330
1F
100
AcDbEntity
  8
PROFILES_OUTSIDE
100
AcDbLine
 10
2035.8182800697
 20
948.5412622726
 30
0.0
 11
2035.8182800697
 21
827.5439289393
 31
0.0
  0
LINE
  5
28C
330
1F
100
AcDbEntity
  8
PROFILES_OUTSIDE
100
AcDbLine
 10
1885.8682800697
 20
960.5412622726
 30
0.0
 11
2023.8182800697
 21
960.5412622726
 31
0.0
  0
LINE
  5
28D
330
1F
100
AcDbEntity
  8
PROFILES_OUTSIDE
100
AcDbLine
 10
1879.8682800697
 20
978.2912622726
 30
0.0
 11
1879.8682800697
 21
966.5412622726
 31
0.0
  0
LINE
  5
28E
330
1F
100
AcDbEntity
  8
PROFILES_OUTSIDE
100
AcDbLine
 10
1892.1282800697
 20
979.2912622726
 30
0.0
 11
1880.8682800697
 21
979.2912622726
 31
0.0
  0
LINE
  5
28F
330
1F
100
AcDbEntity
  8
PROFILES_OUTSIDE
100
AcDbLine
 10
1892.4683677068
 20
973.9773929433
 30
0.0
 11
1892.1282800697
 21
979.2912622726
 31
0.0
  0
LINE
  5
290
330
1F
100
AcDbEntity
  8
PROFILES_OUTSIDE
100
AcDbLine
 10
1901.4060016863
 20
973.0412622726
 30
0.0
 11
1893.4663259768
 21
973.0412622726
 31
0.0
  0
LINE
  5
291
330
1F
100
AcDbEntity
  8
PROFILES_OUTSIDE
100
AcDbLine
 10
1904.8682800697
 20
985.5432622726
 30
0.0
 11
1904.8682800697
 21
983.5194439124
 31
0.0
  0
LINE
  5
292
330
1F
100
AcDbEntity
  8
PROFILES_OUTSIDE
100
AcDbLine
 10
2042.8682800697
 20
985.5432622726
 30
0.0
 11
1904.8682800697
 21
985.5432622726
 31
0.0
  0
LINE
  5
293
330
1F
100
AcDbEntity
  8
PROFILES_OUTSIDE
100
AcDbLine
 10
2054.8682800697
 20
839.5439289393
 30
0.0
 11
2054.8682800697
 21
973.5432622726
 31
0.0
  0
LINE
  5
294
330
1F
100
AcDbEntity
  8
PROFILES_OUTSIDE
100
AcDbLine
 10
2092.8682800697
 20
827.5439289393
 30
0.0
 11
2066.8682800697
 21
827.5439289393
 31
0.0
  0
LINE
  5
295
330
1F
100
AcDbEntity
  8
PROFILES_OUTSIDE
100
AcDbLine
 10
2104.8682800697
 20
973.5432622726
 30
0.0
 11
2104.8682800697
 21
839.5439289393
 31
0.0
  0
LINE
  5
296
330
1F
100
AcDbEntity
  8
PROFILES_OUTSIDE
100
AcDbLine
 10
2254.8682800697
 20
985.5432622726
 30
0.0
 11
2116.8682800697
 21
985.5432622726
 31
0.0
  0
LINE
  5
297
330
1F
100
AcDbEntity
  8
PROFILES_OUTSIDE
100
AcDbLine
 10
2254.8682800697
 20
983.5194439124
 30
0.0
 11
2254.8682800697
 21
985.5432622726
 31
0.0
  0
LINE
  5
298
330
1F
100
AcDbEntity
  8
PROFILES_OUTSIDE
100
AcDbLine
 10
2266.2702341626
 20
973.0412622726
 30
0.0
 11
2258.3305584531
 21
973.0412622726
 31
0.0
  0
LINE
  5
299
330
1F
100
AcDbEntity
  8
PROFILES_OUTSIDE
100
AcDbLine
 10
2267.6082800697
 20
979.2912622726
 30
0.0
 11
2267.2681924326
 21
973.9773929433
 31
0.0
  0
LINE
  5
29A
330
1F
100
AcDbEntity
  8
PROFILES_OUTSIDE
100
AcDbLine
 10
2278.8682800697
 20
979.2912622726
 30
0.0
 11
2267.6082800697
 21
979.2912622726
 31
0.0
  0
LINE
  5
29B
330
1F
100
AcDbEntity
  8
PROFILES_OUTSIDE
100
AcDbLine
 10
2279.8682800697
 20
966.5412622726
 30
0.0
 11
2279.8682800697
 21
978.2912622726
 31
0.0
  0
LINE
  5
29C
330
1F
100
AcDbEntity
  8
PROFILES_OUTSIDE
100
AcDbLine
 10
2135.9182800697
 20
960.5412622726
 30
0.0
 11
2273.8682800697
 21
960.5412622726
 31
0.0
  0
LINE
  5
29D
330
1F
100
AcDbEntity
  8
PROFILES_OUTSIDE
100
AcDbLine
 10
2123.9182800697
 20
827.5439289393
 30
0.0
 11
2123.9182800697
 21
948.5412622726
 31
0.0
  0
LINE
  5
29E
330
1F
100
AcDbEntity
  8
PROFILES_OUTSIDE
100
AcDbLine
 10
2104.8682800697
 20
714.5401634902
 30
0.0
 11
2104.8682800697
 21
794.5483610551
 31
0.0
  0
LINE
  5
29F
330
1F
100
AcDbEntity
  8
PROFILES_OUTSIDE
100
AcDbLine
 10
2123.9182800697
 20
560.5472622726
 30
0.0
 11
2123.9182800697
 21
681.544595606
 31
0.0
  0
LINE
  5
2A0
330
1F
100
AcDbEntity
  8
PROFILES_OUTSIDE
100
AcDbLine
 10
2273.8682800697
 20
548.5472622726
 30
0.0
 11
2135.9182800697
 21
548.5472622726
 31
0.0
  0
LINE
  5
2A1
330
1F
100
AcDbEntity
  8
PROFILES_OUTSIDE
100
AcDbLine
 10
2279.8682800697
 20
530.7972622726
 30
0.0
 11
2279.8682800697
 21
542.5472622726
 31
0.0
  0
LINE
  5
2A2
330
1F
100
AcDbEntity
  8
POCKETS
100
AcDbLine
 10
528.2882800697
 20
69.4112622726
 30
0.0
 11
487.9482800697
 21
69.4112622726
 31
0.0
  0
LINE
  5
2A3
330
1F
100
AcDbEntity
  8
POCKETS
100
AcDbLine
 10
1021.4282800697
 20
428.7312622726
 30
0.0
 11
1061.7682800697
 21
428.7312622726
 31
0.0
  0
LINE
  5
2A4
330
1F
100
AcDbEntity
  8
POCKETS
100
AcDbLine
 10
1061.7682800697
 20
428.7312622726
 30
0.0
 11
1071.7682800697
 21
428.7312622726
 31
0.0
  0
LINE
  5
2A5
330
1F
100
AcDbEntity
  8
POCKETS
100
AcDbLine
 10
1071.7682800697
 20
428.7312622726
 30
0.0
 11
1071.7682800697
 21
441.4112622726
 31
0.0
  0
LINE
  5
2A6
330
1F
100
AcDbEntity
  8
POCKETS
100
AcDbLine
 10
1071.7682800697
 20
441.4112622726
 30
0.0
 11
1061.7682800697
 21
441.4112622726
 31
0.0
  0
LINE
  5
2A7
330
1F
100
AcDbEntity
  8
POCKETS
100
AcDbLine
 10
1061.7682800697
 20
441.4112622726
 30
0.0
 11
559.0882800697
 21
441.4112622726
 31
0.0
  0
LINE
  5
2A8
330
1F
100
AcDbEntity
  8
POCKETS
100
AcDbLine
 10
559.0882800697
 20
441.4112622726
 30
0.0
 11
549.0882800697
 21
441.4112622726
 31
0.0
  0
LINE
  5
2A9
330
1F
100
AcDbEntity
  8
POCKETS
100
AcDbLine
 10
549.0882800697
 20
441.4112622726
 30
0.0
 11
549.0882800697
 21
428.7312622726
 31
0.0
  0
LINE
  5
2AA
330
1F
100
AcDbEntity
  8
POCKETS
100
AcDbLine
 10
549.0882800697
 20
428.7312622726
 30
0.0
 11
559.0882800697
 21
428.7312622726
 31
0.0
  0
LINE
  5
2AB
330
1F
100
AcDbEntity
  8
POCKETS
100
AcDbLine
 10
559.0882800697
 20
428.7312622726
 30
0.0
 11
1009.0882800697
 21
428.7312622726
 31
0.0
  0
LINE
  5
2AC
330
1F
100
AcDbEntity
  8
POCKETS
100
AcDbLine
 10
1009.0882800697
 20
428.7312622726
 30
0.0
 11
1009.0882800697
 21
69.4112622726
 31
0.0
  0
LINE
  5
2AD
330
1F
100
AcDbEntity
  8
POCKETS
100
AcDbLine
 10
1009.0882800697
 20
69.4112622726
 30
0.0
 11
559.0882800697
 21
69.4112622726
 31
0.0
  0
LINE
  5
2AE
330
1F
100
AcDbEntity
  8
POCKETS
100
AcDbLine
 10
559.0882800697
 20
69.4112622726
 30
0.0
 11
549.0882800697
 21
69.4112622726
 31
0.0
  0
LINE
  5
2AF
330
1F
100
AcDbEntity
  8
POCKETS
100
AcDbLine
 10
549.0882800697
 20
69.4112622726
 30
0.0
 11
549.0882800697
 21
56.7312622726
 31
0.0
  0
LINE
  5
2B0
330
1F
100
AcDbEntity
  8
POCKETS
100
AcDbLine
 10
549.0882800697
 20
56.7312622726
 30
0.0
 11
559.0882800697
 21
56.7312622726
 31
0.0
  0
LINE
  5
2B1
330
1F
100
AcDbEntity
  8
POCKETS
100
AcDbLine
 10
559.0882800697
 20
56.7312622726
 30
0.0
 11
1061.7682800697
 21
56.7312622726
 31
0.0
  0
LINE
  5
2B2
330
1F
100
AcDbEntity
  8
POCKETS
100
AcDbLine
 10
1061.7682800697
 20
56.7312622726
 30
0.0
 11
1071.7682800697
 21
56.7312622726
 31
0.0
  0
LINE
  5
2B3
330
1F
100
AcDbEntity
  8
POCKETS
100
AcDbLine
 10
1071.7682800697
 20
56.7312622726
 30
0.0
 11
1071.7682800697
 21
69.4112622726
 31
0.0
  0
LINE
  5
2B4
330
1F
100
AcDbEntity
  8
POCKETS
100
AcDbLine
 10
1071.7682800697
 20
69.4112622726
 30
0.0
 11
1061.7682800697
 21
69.4112622726
 31
0.0
  0
LINE
  5
2B5
330
1F
100
AcDbEntity
  8
POCKETS
100
AcDbLine
 10
1061.7682800697
 20
69.4112622726
 30
0.0
 11
1021.4282800697
 21
69.4112622726
 31
0.0
  0
LINE
  5
2B6
330
1F
100
AcDbEntity
  8
POCKETS
100
AcDbLine
 10
1021.4282800697
 20
69.4112622726
 30
0.0
 11
1021.4282800697
 21
428.7312622726
 31
0.0
  0
LINE
  5
2B7
330
1F
100
AcDbEntity
  8
PROFILES_OUTSIDE
100
AcDbLine
 10
565.4282800697
 20
30.0712622726
 30
0.0
 11
1055.4282800697
 21
30.0712622726
 31
0.0
  0
ARC
  5
2B8
330
1F
100
AcDbEntity
  8
PROFILES_INSIDE
100
AcDbCircle
 10
521.9482800697
 20
203.673225193
 30
0.0
 40
6.000000000000006
100
AcDbArc
 50
280.0
 51
0.0
  0
ARC
  5
2B9
330
1F
100
AcDbEntity
  8
PROFILES_OUTSIDE
100
AcDbCircle
 10
2278.8682800697
 20
484.8172622726
 30
0.0
 40
1.0
100
AcDbArc
 50
0.0
 51
90.0
  0
ARC
  5
2BA
330
1F
100
AcDbEntity
  8
PROFILES_INSIDE
100
AcDbCircle
 10
489.7970970684
 20
454.2412650255
 30
0.0
 40
1.000000000000095
100
AcDbArc
 50
270.0000780134
 51
342.3995494632
  0
ARC
  5
2BB
330
1F
100
AcDbEntity
  8
PROFILES_INSIDE
100
AcDbCircle
 10
495.6782688184
 20
452.3755965538
 30
0.0
 40
5.169999999999941
100
AcDbArc
 50
335.1122417738
 51
162.3995494633
  0
ARC
  5
2BC
330
1F
100
AcDbEntity
  8
PROFILES_INSIDE
100
AcDbCircle
 10
501.2753386204
 20
449.7789774291
 30
0.0
 40
1.000058499120117
100
AcDbArc
 50
155.1122825634
 51
179.9999859692
  0
ARC
  5
2BD
330
1F
100
AcDbEntity
  8
PROFILES_INSIDE
100
AcDbCircle
 10
501.2752800697
 20
444.3635468713
 30
0.0
 40
1.000000000000057
100
AcDbArc
 50
180.0
 51
204.8879103957
  0
ARC
  5
2BE
330
1F
100
AcDbEntity
  8
PROFILES_INSIDE
100
AcDbCircle
 10
495.6782704834
 20
441.766936833
 30
0.0
 40
5.170000000000014
100
AcDbArc
 50
197.600483035
 51
24.8879103957
  0
ARC
  5
2BF
330
1F
100
AcDbEntity
  8
PROFILES_INSIDE
100
AcDbCircle
 10
489.7970997915
 20
439.9012650255
 30
0.0
 40
1.000000000000133
100
AcDbArc
 50
17.600483035
 51
90.0000780134
  0
ARC
  5
2C0
330
1F
100
AcDbEntity
  8
PROFILES_INSIDE
100
AcDbCircle
 10
485.7534630711
 20
439.9012595197
 30
0.0
 40
1.000000000000078
100
AcDbArc
 50
90.0000780134
 51
162.3995494632
  0
ARC
  5
2C1
330
1F
100
AcDbEntity
  8
PROFILES_INSIDE
100
AcDbCircle
 10
479.872291321
 20
441.7669279914
 30
0.0
 40
5.170000000000013
100
AcDbArc
 50
155.1121263429
 51
342.3995494633
  0
ARC
  5
2C2
330
1F
100
AcDbEntity
  8
PROFILES_INSIDE
100
AcDbCircle
 10
474.2752800697
 20
444.3635344408
 30
0.0
 40
1.000000000000067
100
AcDbArc
 50
335.1121263429
 51
0.0
  0
ARC
  5
2C3
330
1F
100
AcDbEntity
  8
PROFILES_INSIDE
100
AcDbCircle
 10
474.2752800697
 20
449.7789901045
 30
0.0
 40
0.9999978082910843
100
AcDbArc
 50
0.0
 51
24.887805684
  0
ARC
  5
2C4
330
1F
100
AcDbEntity
  8
PROFILES_INSIDE
100
AcDbCircle
 10
479.872289656
 20
452.3755877122
 30
0.0
 40
5.169997910299964
100
AcDbArc
 50
17.600483035
 51
204.887805684
  0
ARC
  5
2C5
330
1F
100
AcDbEntity
  8
PROFILES_INSIDE
100
AcDbCircle
 10
485.7534603479
 20
454.2412595197
 30
0.0
 40
1.000002089700007
100
AcDbArc
 50
197.600483035
 51
270.0000780134
  0
ARC
  5
2C6
330
1F
100
AcDbEntity
  8
PROFILES_INSIDE
100
AcDbCircle
 10
89.2813386204
 20
449.7789774291
 30
0.0
 40
1.000058550652143
100
AcDbArc
 50
155.1122825634
 51
179.9999859692
  0
ARC
  5
2C7
330
1F
100
AcDbEntity
  8
PROFILES_INSIDE
100
AcDbCircle
 10
83.6842688184
 20
452.3755965538
 30
0.0
 40
5.169999974234019
100
AcDbArc
 50
335.1122417738
 51
162.3995494632
  0
ARC
  5
2C8
330
1F
100
AcDbEntity
  8
PROFILES_INSIDE
100
AcDbCircle
 10
77.8030970684
 20
454.2412650255
 30
0.0
 40
1.000000025766032
100
AcDbArc
 50
270.0000780134
 51
342.3995494632
  0
ARC
  5
2C9
330
1F
100
AcDbEntity
  8
PROFILES_INSIDE
100
AcDbCircle
 10
73.7594603479
 20
454.2412595197
 30
0.0
 40
1.00000113983632
100
AcDbArc
 50
197.600483035
 51
270.0000780134
  0
ARC
  5
2CA
330
1F
100
AcDbEntity
  8
PROFILES_INSIDE
100
AcDbCircle
 10
67.878289656
 20
452.3755877122
 30
0.0
 40
5.169998860163709
100
AcDbArc
 50
17.600483035
 51
204.887805684
  0
ARC
  5
2CB
330
1F
100
AcDbEntity
  8
PROFILES_INSIDE
100
AcDbCircle
 10
62.2812800697
 20
449.7789901045
 30
0.0
 40
0.9999976183182611
100
AcDbArc
 50
0.0
 51
24.887805684
  0
ARC
  5
2CC
330
1F
100
AcDbEntity
  8
PROFILES_INSIDE
100
AcDbCircle
 10
62.2812800697
 20
444.3635344408
 30
0.0
 40
1.000000000000091
100
AcDbArc
 50
335.1121263429
 51
0.0
  0
ARC
  5
2CD
330
1F
100
AcDbEntity
  8
PROFILES_INSIDE
100
AcDbCircle
 10
67.878291321
 20
441.7669279914
 30
0.0
 40
5.169999999999986
100
AcDbArc
 50
155.1121263429
 51
342.3995494633
  0
ARC
  5
2CE
330
1F
100
AcDbEntity
  8
PROFILES_INSIDE
100
AcDbCircle
 10
73.7594630711
 20
439.9012595197
 30
0.0
 40
1.000000000000017
100
AcDbArc
 50
90.0000780134
 51
162.3995494632
  0
ARC
  5
2CF
330
1F
100
AcDbEntity
  8
PROFILES_INSIDE
100
AcDbCircle
 10
77.8030997915
 20
439.9012650255
 30
0.0
 40
1.000000000000017
100
AcDbArc
 50
17.600483035
 51
90.0000780134
  0
ARC
  5
2D0
330
1F
100
AcDbEntity
  8
PROFILES_INSIDE
100
AcDbCircle
 10
83.6842704834
 20
441.766936833
 30
0.0
 40
5.169999999999988
100
AcDbArc
 50
197.600483035
 51
24.8879103957
  0
ARC
  5
2D1
330
1F
100
AcDbEntity
  8
PROFILES_INSIDE
100
AcDbCircle
 10
89.2812800697
 20
444.3635468713
 30
0.0
 40
1.0
100
AcDbArc
 50
180.0
 51
204.8879103957
  0
ARC
  5
2D2
330
1F
100
AcDbEntity
  8
PROFILES_INSIDE
100
AcDbCircle
 10
495.6782705162
 20
45.7669370072
 30
0.0
 40
5.170000000000041
100
AcDbArc
 50
197.6004836752
 51
24.8879111195
  0
ARC
  5
2D3
330
1F
100
AcDbEntity
  8
PROFILES_INSIDE
100
AcDbCircle
 10
501.2752800697
 20
48.3635471161
 30
0.0
 40
1.0
100
AcDbArc
 50
180.0
 51
204.8879111195
  0
ARC
  5
2D4
330
1F
100
AcDbEntity
  8
PROFILES_INSIDE
100
AcDbCircle
 10
501.2753386204
 20
53.7789774291
 30
0.0
 40
1.000058550652
100
AcDbArc
 50
155.1122470459
 51
180.0
  0
ARC
  5
2D5
330
1F
100
AcDbEntity
  8
PROFILES_INSIDE
100
AcDbCircle
 10
495.6782687856
 20
56.375596728
 30
0.0
 40
5.170000000000058
100
AcDbArc
 50
335.1122470459
 51
162.3995501035
  0
ARC
  5
2D6
330
1F
100
AcDbEntity
  8
PROFILES_INSIDE
100
AcDbCircle
 10
489.7970970147
 20
58.241265134
 30
0.0
 40
1.000000000000007
100
AcDbArc
 50
270.0000810874
 51
342.3995501035
  0
ARC
  5
2D7
330
1F
100
AcDbEntity
  8
PROFILES_INSIDE
100
AcDbCircle
 10
485.7534602942
 20
58.2412594113
 30
0.0
 40
1.000000987291036
100
AcDbArc
 50
197.6004836752
 51
270.0000810874
  0
ARC
  5
2D8
330
1F
100
AcDbEntity
  8
PROFILES_INSIDE
100
AcDbCircle
 10
479.8722896232
 20
56.375587538
 30
0.0
 40
5.169999012708971
100
AcDbArc
 50
17.6004836752
 51
204.8878022818
  0
ARC
  5
2D9
330
1F
100
AcDbEntity
  8
PROFILES_INSIDE
100
AcDbCircle
 10
474.2752800697
 20
53.7789903493
 30
0.0
 40
0.999997327014853
100
AcDbArc
 50
0.0
 51
24.8878022818
  0
ARC
  5
2DA
330
1F
100
AcDbEntity
  8
PROFILES_INSIDE
100
AcDbCircle
 10
474.2752800697
 20
48.3635341959
 30
0.0
 40
1.0
100
AcDbArc
 50
335.1121270667
 51
0.0
  0
ARC
  5
2DB
330
1F
100
AcDbEntity
  8
PROFILES_INSIDE
100
AcDbCircle
 10
479.8722913538
 20
45.7669278172
 30
0.0
 40
5.170000000000038
100
AcDbArc
 50
155.1121270667
 51
342.3995501035
  0
ARC
  5
2DC
330
1F
100
AcDbEntity
  8
PROFILES_INSIDE
100
AcDbCircle
 10
485.7534631247
 20
43.9012594113
 30
0.0
 40
1.000000000000054
100
AcDbArc
 50
90.0000810874
 51
162.3995501035
  0
ARC
  5
2DD
330
1F
100
AcDbEntity
  8
PROFILES_INSIDE
100
AcDbCircle
 10
489.7970998452
 20
43.901265134
 30
0.0
 40
0.9999999999999684
100
AcDbArc
 50
17.6004836752
 51
90.0000810874
  0
ARC
  5
2DE
330
1F
100
AcDbEntity
  8
PROFILES_INSIDE
100
AcDbCircle
 10
62.2812800697
 20
48.3635341959
 30
0.0
 40
1.000000000000081
100
AcDbArc
 50
335.1121270667
 51
0.0
  0
ARC
  5
2DF
330
1F
100
AcDbEntity
  8
PROFILES_INSIDE
100
AcDbCircle
 10
67.8782913538
 20
45.7669278172
 30
0.0
 40
5.169999999999916
100
AcDbArc
 50
155.1121270667
 51
342.3995501035
  0
ARC
  5
2E0
330
1F
100
AcDbEntity
  8
PROFILES_INSIDE
100
AcDbCircle
 10
73.7594631247
 20
43.9012594113
 30
0.0
 40
1.000000000000141
100
AcDbArc
 50
90.0000810874
 51
162.3995501035
  0
ARC
  5
2E1
330
1F
100
AcDbEntity
  8
PROFILES_INSIDE
100
AcDbCircle
 10
77.8030998452
 20
43.901265134
 30
0.0
 40
0.9999999999999996
100
AcDbArc
 50
17.6004836752
 51
90.0000810874
  0
ARC
  5
2E2
330
1F
100
AcDbEntity
  8
PROFILES_INSIDE
100
AcDbCircle
 10
83.6842705162
 20
45.7669370072
 30
0.0
 40
5.170000000000055
100
AcDbArc
 50
197.6004836752
 51
24.8879111195
  0
ARC
  5
2E3
330
1F
100
AcDbEntity
  8
PROFILES_INSIDE
100
AcDbCircle
 10
89.2812800697
 20
48.3635471161
 30
0.0
 40
1.0
100
AcDbArc
 50
180.0
 51
204.8879111195
  0
ARC
  5
2E4
330
1F
100
AcDbEntity
  8
PROFILES_INSIDE
100
AcDbCircle
 10
89.2813386204
 20
53.7789774291
 30
0.0
 40
1.000058550652
100
AcDbArc
 50
155.1122470459
 51
180.0
  0
ARC
  5
2E5
330
1F
100
AcDbEntity
  8
PROFILES_INSIDE
100
AcDbCircle
 10
83.6842687856
 20
56.375596728
 30
0.0
 40
5.170000000000059
100
AcDbArc
 50
335.1122470459
 51
162.3995501035
  0
ARC
  5
2E6
330
1F
100
AcDbEntity
  8
PROFILES_INSIDE
100
AcDbCircle
 10
77.8030970147
 20
58.241265134
 30
0.0
 40
1.000000000000007
100
AcDbArc
 50
270.0000810874
 51
342.3995501035
  0
ARC
  5
2E7
330
1F
100
AcDbEntity
  8
PROFILES_INSIDE
100
AcDbCircle
 10
73.7594602942
 20
58.2412594113
 30
0.0
 40
1.000000197458244
100
AcDbArc
 50
197.6004836752
 51
270.0000810874
  0
ARC
  5
2E8
330
1F
100
AcDbEntity
  8
PROFILES_INSIDE
100
AcDbCircle
 10
67.8782896232
 20
56.375587538
 30
0.0
 40
5.169999802541906
100
AcDbArc
 50
17.6004836752
 51
204.8878022818
  0
ARC
  5
2E9
330
1F
100
AcDbEntity
  8
PROFILES_INSIDE
100
AcDbCircle
 10
62.2812800697
 20
53.7789903493
 30
0.0
 40
0.9999977219311518
100
AcDbArc
 50
0.0
 51
24.8878022818
  0
ARC
  5
2EA
330
1F
100
AcDbEntity
  8
PROFILES_INSIDE
100
AcDbCircle
 10
1023.2770970147
 20
454.241265134
 30
0.0
 40
1.000000000000151
100
AcDbArc
 50
270.0000810874
 51
342.3995501035
  0
ARC
  5
2EB
330
1F
100
AcDbEntity
  8
PROFILES_INSIDE
100
AcDbCircle
 10
1029.1582687856
 20
452.375596728
 30
0.0
 40
5.170000000000006
100
AcDbArc
 50
335.1122470459
 51
162.3995501035
  0
ARC
  5
2EC
330
1F
100
AcDbEntity
  8
PROFILES_INSIDE
100
AcDbCircle
 10
1034.7553386204
 20
449.7789774291
 30
0.0
 40
1.000058550651829
100
AcDbArc
 50
155.1122470459
 51
180.0
  0
ARC
  5
2ED
330
1F
100
AcDbEntity
  8
PROFILES_INSIDE
100
AcDbCircle
 10
1034.7552800697
 20
444.3635471162
 30
0.0
 40
1.000000000000044
100
AcDbArc
 50
180.0
 51
204.8879111195
  0
ARC
  5
2EE
330
1F
100
AcDbEntity
  8
PROFILES_INSIDE
100
AcDbCircle
 10
1029.1582705162
 20
441.7669370072
 30
0.0
 40
5.170000000000078
100
AcDbArc
 50
197.6004836752
 51
24.8879111195
  0
ARC
  5
2EF
330
1F
100
AcDbEntity
  8
PROFILES_INSIDE
100
AcDbCircle
 10
1023.2770998452
 20
439.901265134
 30
0.0
 40
1.000000000000035
100
AcDbArc
 50
17.6004836752
 51
90.0000810874
  0
ARC
  5
2F0
330
1F
100
AcDbEntity
  8
PROFILES_INSIDE
100
AcDbCircle
 10
1019.2334631247
 20
439.9012594113
 30
0.0
 40
1.000000000000043
100
AcDbArc
 50
90.0000810874
 51
162.3995501035
  0
ARC
  5
2F1
330
1F
100
AcDbEntity
  8
PROFILES_INSIDE
100
AcDbCircle
 10
1013.3522913538
 20
441.7669278172
 30
0.0
 40
5.170000000000058
100
AcDbArc
 50
155.1121270667
 51
342.3995501035
  0
ARC
  5
2F2
330
1F
100
AcDbEntity
  8
PROFILES_INSIDE
100
AcDbCircle
 10
1007.7552800697
 20
444.3635341959
 30
0.0
 40
1.000000000000114
100
AcDbArc
 50
335.1121270667
 51
0.0
  0
ARC
  5
2F3
330
1F
100
AcDbEntity
  8
PROFILES_INSIDE
100
AcDbCircle
 10
1007.7552800697
 20
449.7789903494
 30
0.0
 40
0.9999977219313223
100
AcDbArc
 50
0.0
 51
24.8878022818
  0
ARC
  5
2F4
330
1F
100
AcDbEntity
  8
PROFILES_INSIDE
100
AcDbCircle
 10
1013.3522896232
 20
452.3755875381
 30
0.0
 40
5.169997827959751
100
AcDbArc
 50
17.6004836752
 51
204.8878022818
  0
ARC
  5
2F5
330
1F
100
AcDbEntity
  8
PROFILES_INSIDE
100
AcDbCircle
 10
1019.2334602942
 20
454.2412594113
 30
0.0
 40
1.000002172040275
100
AcDbArc
 50
197.6004836752
 51
270.0000810874
  0
ARC
  5
2F6
330
1F
100
AcDbEntity
  8
PROFILES_INSIDE
100
AcDbCircle
 10
622.9059386204
 20
449.7789774291
 30
0.0
 40
1.000058550652125
100
AcDbArc
 50
155.1122470459
 51
180.0
  0
ARC
  5
2F7
330
1F
100
AcDbEntity
  8
PROFILES_INSIDE
100
AcDbCircle
 10
617.3088687856
 20
452.375596728
 30
0.0
 40
5.170000000000006
100
AcDbArc
 50
335.1122470459
 51
162.3995501035
  0
ARC
  5
2F8
330
1F
100
AcDbEntity
  8
PROFILES_INSIDE
100
AcDbCircle
 10
611.4276970147
 20
454.241265134
 30
0.0
 40
1.000000000000035
100
AcDbArc
 50
270.0000810874
 51
342.3995501035
  0
ARC
  5
2F9
330
1F
100
AcDbEntity
  8
PROFILES_INSIDE
100
AcDbCircle
 10
607.3840602942
 20
454.2412594113
 30
0.0
 40
1.000001184749387
100
AcDbArc
 50
197.6004836752
 51
270.0000810874
  0
ARC
  5
2FA
330
1F
100
AcDbEntity
  8
PROFILES_INSIDE
100
AcDbCircle
 10
601.5028896232
 20
452.3755875381
 30
0.0
 40
5.169998815250613
100
AcDbArc
 50
17.6004836752
 51
204.8878022818
  0
ARC
  5
2FB
330
1F
100
AcDbEntity
  8
PROFILES_INSIDE
100
AcDbCircle
 10
595.9058800697
 20
449.7789903494
 30
0.0
 40
0.999997524472974
100
AcDbArc
 50
0.0
 51
24.8878022818
  0
ARC
  5
2FC
330
1F
100
AcDbEntity
  8
PROFILES_INSIDE
100
AcDbCircle
 10
595.9058800697
 20
444.3635341959
 30
0.0
 40
1.000000000000001
100
AcDbArc
 50
335.1121270667
 51
0.0
  0
ARC
  5
2FD
330
1F
100
AcDbEntity
  8
PROFILES_INSIDE
100
AcDbCircle
 10
601.5028913538
 20
441.7669278172
 30
0.0
 40
5.170000000000023
100
AcDbArc
 50
155.1121270667
 51
342.3995501035
  0
ARC
  5
2FE
330
1F
100
AcDbEntity
  8
PROFILES_INSIDE
100
AcDbCircle
 10
607.3840631247
 20
439.9012594113
 30
0.0
 40
0.9999999999999782
100
AcDbArc
 50
90.0000810874
 51
162.3995501035
  0
ARC
  5
2FF
330
1F
100
AcDbEntity
  8
PROFILES_INSIDE
100
AcDbCircle
 10
611.4276998452
 20
439.901265134
 30
0.0
 40
1.000000000000048
100
AcDbArc
 50
17.6004836752
 51
90.0000810874
  0
ARC
  5
300
330
1F
100
AcDbEntity
  8
PROFILES_INSIDE
100
AcDbCircle
 10
617.3088705162
 20
441.7669370072
 30
0.0
 40
5.16999999999997
100
AcDbArc
 50
197.6004836752
 51
24.8879111195
  0
ARC
  5
301
330
1F
100
AcDbEntity
  8
PROFILES_INSIDE
100
AcDbCircle
 10
622.9058800697
 20
444.3635471162
 30
0.0
 40
1.000000000000044
100
AcDbArc
 50
180.0
 51
204.8879111195
  0
ARC
  5
302
330
1F
100
AcDbEntity
  8
PROFILES_INSIDE
100
AcDbCircle
 10
1029.1582704834
 20
45.766936833
 30
0.0
 40
5.170000000000078
100
AcDbArc
 50
197.600483035
 51
24.8879103957
  0
ARC
  5
303
330
1F
100
AcDbEntity
  8
PROFILES_INSIDE
100
AcDbCircle
 10
1034.7552800697
 20
48.3635468713
 30
0.0
 40
1.000000000000019
100
AcDbArc
 50
180.0
 51
204.8879103957
  0
ARC
  5
304
330
1F
100
AcDbEntity
  8
PROFILES_INSIDE
100
AcDbCircle
 10
1034.7553386204
 20
53.7789774291
 30
0.0
 40
1.000058524886102
100
AcDbArc
 50
155.1122825633
 51
179.9999859692
  0
ARC
  5
305
330
1F
100
AcDbEntity
  8
PROFILES_INSIDE
100
AcDbCircle
 10
1029.1582688184
 20
56.3755965538
 30
0.0
 40
5.17000000000003
100
AcDbArc
 50
335.1122417738
 51
162.3995494632
  0
ARC
  5
306
330
1F
100
AcDbEntity
  8
PROFILES_INSIDE
100
AcDbCircle
 10
1023.2770970684
 20
58.2412650255
 30
0.0
 40
1.000000000000106
100
AcDbArc
 50
270.0000780134
 51
342.3995494633
  0
ARC
  5
307
330
1F
100
AcDbEntity
  8
PROFILES_INSIDE
100
AcDbCircle
 10
1019.2334603479
 20
58.2412595197
 30
0.0
 40
1.000000949863769
100
AcDbArc
 50
197.600483035
 51
270.0000780134
  0
ARC
  5
308
330
1F
100
AcDbEntity
  8
PROFILES_INSIDE
100
AcDbCircle
 10
1013.352289656
 20
56.3755877122
 30
0.0
 40
5.169999050136262
100
AcDbArc
 50
17.600483035
 51
204.887805684
  0
ARC
  5
309
330
1F
100
AcDbEntity
  8
PROFILES_INSIDE
100
AcDbCircle
 10
1007.7552800697
 20
53.7789901044
 30
0.0
 40
0.9999974283456368
100
AcDbArc
 50
0.0
 51
24.887805684
  0
ARC
  5
30A
330
1F
100
AcDbEntity
  8
PROFILES_INSIDE
100
AcDbCircle
 10
1007.7552800697
 20
48.3635344408
 30
0.0
 40
1.000000000000197
100
AcDbArc
 50
335.1121263429
 51
0.0
  0
ARC
  5
30B
330
1F
100
AcDbEntity
  8
PROFILES_INSIDE
100
AcDbCircle
 10
1013.352291321
 20
45.7669279914
 30
0.0
 40
5.169999999999982
100
AcDbArc
 50
155.1121263429
 51
342.3995494633
  0
ARC
  5
30C
330
1F
100
AcDbEntity
  8
PROFILES_INSIDE
100
AcDbCircle
 10
1019.2334630711
 20
43.9012595197
 30
0.0
 40
1.000000000000039
100
AcDbArc
 50
90.0000780134
 51
162.3995494632
  0
ARC
  5
30D
330
1F
100
AcDbEntity
  8
PROFILES_INSIDE
100
AcDbCircle
 10
1023.2770997915
 20
43.9012650255
 30
0.0
 40
1.000000000000072
100
AcDbArc
 50
17.600483035
 51
90.0000780134
  0
ARC
  5
30E
330
1F
100
AcDbEntity
  8
PROFILES_INSIDE
100
AcDbCircle
 10
595.9058800697
 20
48.3635344408
 30
0.0
 40
1.0
100
AcDbArc
 50
335.1121263429
 51
0.0
  0
ARC
  5
30F
330
1F
100
AcDbEntity
  8
PROFILES_INSIDE
100
AcDbCircle
 10
601.502891321
 20
45.7669279914
 30
0.0
 40
5.17000000000003
100
AcDbArc
 50
155.1121263429
 51
342.3995494632
  0
ARC
  5
310
330
1F
100
AcDbEntity
  8
PROFILES_INSIDE
100
AcDbCircle
 10
607.3840630711
 20
43.9012595197
 30
0.0
 40
0.9999999999999978
100
AcDbArc
 50
90.0000780134
 51
162.3995494633
  0
ARC
  5
311
330
1F
100
AcDbEntity
  8
PROFILES_INSIDE
100
AcDbCircle
 10
611.4276997915
 20
43.9012650255
 30
0.0
 40
1.000000000000039
100
AcDbArc
 50
17.600483035
 51
90.0000780134
  0
ARC
  5
312
330
1F
100
AcDbEntity
  8
PROFILES_INSIDE
100
AcDbCircle
 10
617.3088704834
 20
45.766936833
 30
0.0
 40
5.170000000000068
100
AcDbArc
 50
197.600483035
 51
24.8879103957
  0
ARC
  5
313
330
1F
100
AcDbEntity
  8
PROFILES_INSIDE
100
AcDbCircle
 10
622.9058800697
 20
48.3635468713
 30
0.0
 40
0.9999999999999156
100
AcDbArc
 50
180.0
 51
204.8879103957
  0
ARC
  5
314
330
1F
100
AcDbEntity
  8
PROFILES_INSIDE
100
AcDbCircle
 10
622.9059386204
 20
53.7789774291
 30
0.0
 40
1.000058550651973
100
AcDbArc
 50
155.1122825634
 51
179.9999859692
  0
ARC
  5
315
330
1F
100
AcDbEntity
  8
PROFILES_INSIDE
100
AcDbCircle
 10
617.3088688184
 20
56.3755965538
 30
0.0
 40
5.169999974234205
100
AcDbArc
 50
335.1122417738
 51
162.3995494633
  0
ARC
  5
316
330
1F
100
AcDbEntity
  8
PROFILES_INSIDE
100
AcDbCircle
 10
611.4276970684
 20
58.2412650255
 30
0.0
 40
1.000000025765715
100
AcDbArc
 50
270.0000780134
 51
342.3995494632
  0
ARC
  5
317
330
1F
100
AcDbEntity
  8
PROFILES_INSIDE
100
AcDbCircle
 10
607.3840603479
 20
58.2412595197
 30
0.0
 40
1.000000189972747
100
AcDbArc
 50
197.600483035
 51
270.0000780134
  0
ARC
  5
318
330
1F
100
AcDbEntity
  8
PROFILES_INSIDE
100
AcDbCircle
 10
601.502889656
 20
56.3755877122
 30
0.0
 40
5.169999810027208
100
AcDbArc
 50
17.600483035
 51
204.887805684
  0
ARC
  5
319
330
1F
100
AcDbEntity
  8
PROFILES_INSIDE
100
AcDbCircle
 10
595.9058800697
 20
53.7789901044
 30
0.0
 40
0.9999978082911412
100
AcDbArc
 50
0.0
 51
24.887805684
  0
ARC
  5
31A
330
1F
100
AcDbEntity
  8
PROFILES_OUTSIDE
100
AcDbCircle
 10
565.4282800697
 20
462.0712622726
 30
0.0
 40
6.0
100
AcDbArc
 50
90.0
 51
180.0
  0
ARC
  5
31B
330
1F
100
AcDbEntity
  8
PROFILES_OUTSIDE
100
AcDbCircle
 10
1055.4282800697
 20
462.0712622726
 30
0.0
 40
6.0
100
AcDbArc
 50
0.0
 51
90.0
  0
ARC
  5
31C
330
1F
100
AcDbEntity
  8
PROFILES_OUTSIDE
100
AcDbCircle
 10
1055.4282800697
 20
36.0712622726
 30
0.0
 40
6.000000000000004
100
AcDbArc
 50
270.0
 51
0.0
  0
ARC
  5
31D
330
1F
100
AcDbEntity
  8
PROFILES_OUTSIDE
100
AcDbCircle
 10
565.4282800697
 20
36.0712622726
 30
0.0
 40
6.000000000000004
100
AcDbArc
 50
180.0
 51
270.0
  0
ARC
  5
31E
330
1F
100
AcDbEntity
  8
PROFILES_OUTSIDE
100
AcDbCircle
 10
2135.9182800697
 20
455.0672622726
 30
0.0
 40
12.0
100
AcDbArc
 50
90.0
 51
180.0
  0
ARC
  5
31F
330
1F
100
AcDbEntity
  8
PROFILES_OUTSIDE
100
AcDbCircle
 10
2135.9182800697
 20
67.0732622726
 30
0.0
 40
12.00000000000045
100
AcDbArc
 50
180.0
 51
270.0
  0
ARC
  5
320
330
1F
100
AcDbEntity
  8
PROFILES_OUTSIDE
100
AcDbCircle
 10
2278.8682800697
 20
37.3232622726
 30
0.0
 40
1.0
100
AcDbArc
 50
270.0
 51
0.0
  0
ARC
  5
321
330
1F
100
AcDbEntity
  8
PROFILES_OUTSIDE
100
AcDbCircle
 10
1893.4663259768
 20
480.5672622726
 30
0.0
 40
1.00000000000016
100
AcDbArc
 50
183.6619355755
 51
270.0
  0
ARC
  5
322
330
1F
100
AcDbEntity
  8
PROFILES_OUTSIDE
100
AcDbCircle
 10
1901.4060016863
 20
478.5672622726
 30
0.0
 40
1.000000000000089
100
AcDbArc
 50
65.1121079736
 51
90.0
  0
ARC
  5
323
330
1F
100
AcDbEntity
  8
PROFILES_OUTSIDE
100
AcDbCircle
 10
1904.0026099301
 20
484.1642726914
 30
0.0
 40
5.170000000000016
100
AcDbArc
 50
245.1121079736
 51
72.3995332141
  0
ARC
  5
324
330
1F
100
AcDbEntity
  8
PROFILES_OUTSIDE
100
AcDbCircle
 10
1905.8682800697
 20
490.0454439124
 30
0.0
 40
1.00000000000006
100
AcDbArc
 50
180.0
 51
252.3995332141
  0
ARC
  5
325
330
1F
100
AcDbEntity
  8
PROFILES_OUTSIDE
100
AcDbCircle
 10
2042.8682800697
 20
480.0692622726
 30
0.0
 40
12.0
100
AcDbArc
 50
0.0
 51
90.0
  0
ARC
  5
326
330
1F
100
AcDbEntity
  8
PROFILES_OUTSIDE
100
AcDbCircle
 10
2066.8682800697
 20
346.0699289393
 30
0.0
 40
12.0
100
AcDbArc
 50
180.0
 51
270.0
  0
ARC
  5
327
330
1F
100
AcDbEntity
  8
PROFILES_OUTSIDE
100
AcDbCircle
 10
2092.8682800697
 20
346.0699289393
 30
0.0
 40
12.0
100
AcDbArc
 50
270.0
 51
0.0
  0
ARC
  5
328
330
1F
100
AcDbEntity
  8
PROFILES_OUTSIDE
100
AcDbCircle
 10
2116.8682800697
 20
480.0692622726
 30
0.0
 40
12.0
100
AcDbArc
 50
90.0
 51
180.0
  0
ARC
  5
329
330
1F
100
AcDbEntity
  8
PROFILES_OUTSIDE
100
AcDbCircle
 10
2253.8682800697
 20
490.0454439124
 30
0.0
 40
0.9999999999998535
100
AcDbArc
 50
287.6004667858
 51
0.0
  0
ARC
  5
32A
330
1F
100
AcDbEntity
  8
PROFILES_OUTSIDE
100
AcDbCircle
 10
2255.7339502093
 20
484.1642726914
 30
0.0
 40
5.170000000000085
100
AcDbArc
 50
107.6004667859
 51
294.8878920264
  0
ARC
  5
32B
330
1F
100
AcDbEntity
  8
PROFILES_OUTSIDE
100
AcDbCircle
 10
2258.3305584531
 20
478.5672622726
 30
0.0
 40
1.0
100
AcDbArc
 50
90.0
 51
114.8878920263
  0
ARC
  5
32C
330
1F
100
AcDbEntity
  8
PROFILES_OUTSIDE
100
AcDbCircle
 10
2266.2702341626
 20
480.5672622726
 30
0.0
 40
1.00000000000016
100
AcDbArc
 50
270.0
 51
356.3380644245
  0
ARC
  5
32D
330
1F
100
AcDbEntity
  8
PROFILES_OUTSIDE
100
AcDbCircle
 10
2273.8682800697
 20
473.0672622726
 30
0.0
 40
6.0
100
AcDbArc
 50
270.0
 51
0.0
  0
ARC
  5
32E
330
1F
100
AcDbEntity
  8
PROFILES_OUTSIDE
100
AcDbCircle
 10
1880.8682800697
 20
37.3232622726
 30
0.0
 40
1.000000000000227
100
AcDbArc
 50
180.0
 51
270.0
  0
ARC
  5
32F
330
1F
100
AcDbEntity
  8
PROFILES_OUTSIDE
100
AcDbCircle
 10
2104.8682800697
 20
334.0699289393
 30
0.0
 40
19.04999999999997
100
AcDbArc
 50
300.0
 51
0.0
  0
ARC
  5
330
330
1F
100
AcDbEntity
  8
PROFILES_OUTSIDE
100
AcDbCircle
 10
2123.9182800697
 20
301.0743610551
 30
0.0
 40
19.04999999999984
100
AcDbArc
 50
120.0
 51
180.0
  0
ARC
  5
331
330
1F
100
AcDbEntity
  8
PROFILES_OUTSIDE
100
AcDbCircle
 10
2123.9182800697
 20
221.0661634902
 30
0.0
 40
19.04999999999981
100
AcDbArc
 50
180.0
 51
240.0
  0
ARC
  5
332
330
1F
100
AcDbEntity
  8
PROFILES_OUTSIDE
100
AcDbCircle
 10
2104.8682800697
 20
188.070595606
 30
0.0
 40
19.05000000000001
100
AcDbArc
 50
0.0
 51
60.0
  0
ARC
  5
333
330
1F
100
AcDbEntity
  8
PROFILES_OUTSIDE
100
AcDbCircle
 10
2273.8682800697
 20
49.0732622726
 30
0.0
 40
6.0
100
AcDbArc
 50
0.0
 51
90.0
  0
ARC
  5
334
330
1F
100
AcDbEntity
  8
PROFILES_OUTSIDE
100
AcDbCircle
 10
2023.8182800697
 20
67.0732622726
 30
0.0
 40
12.00000000000001
100
AcDbArc
 50
270.0
 51
0.0
  0
ARC
  5
335
330
1F
100
AcDbEntity
  8
PROFILES_OUTSIDE
100
AcDbCircle
 10
2266.2702341626
 20
41.5732622726
 30
0.0
 40
1.00000000000016
100
AcDbArc
 50
3.6619355755
 51
90.0
  0
ARC
  5
336
330
1F
100
AcDbEntity
  8
PROFILES_OUTSIDE
100
AcDbCircle
 10
2258.3305584531
 20
43.5732622726
 30
0.0
 40
1.0
100
AcDbArc
 50
245.1121079737
 51
270.0
  0
ARC
  5
337
330
1F
100
AcDbEntity
  8
PROFILES_OUTSIDE
100
AcDbCircle
 10
2255.7339502093
 20
37.9762518538
 30
0.0
 40
5.170000000000112
100
AcDbArc
 50
65.1121079736
 51
252.3995332141
  0
ARC
  5
338
330
1F
100
AcDbEntity
  8
PROFILES_OUTSIDE
100
AcDbCircle
 10
2253.8682800697
 20
32.0950806329
 30
0.0
 40
0.9999999999998331
100
AcDbArc
 50
0.0
 51
72.3995332142
  0
ARC
  5
339
330
1F
100
AcDbEntity
  8
PROFILES_OUTSIDE
100
AcDbCircle
 10
2116.8682800697
 20
42.0712622726
 30
0.0
 40
12.00000000000001
100
AcDbArc
 50
180.0
 51
270.0
  0
ARC
  5
33A
330
1F
100
AcDbEntity
  8
PROFILES_OUTSIDE
100
AcDbCircle
 10
2092.8682800697
 20
176.070595606
 30
0.0
 40
12.0
100
AcDbArc
 50
0.0
 51
90.0
  0
ARC
  5
33B
330
1F
100
AcDbEntity
  8
PROFILES_OUTSIDE
100
AcDbCircle
 10
2066.8682800697
 20
176.070595606
 30
0.0
 40
12.00000000000045
100
AcDbArc
 50
90.0
 51
180.0
  0
ARC
  5
33C
330
1F
100
AcDbEntity
  8
PROFILES_OUTSIDE
100
AcDbCircle
 10
2042.8682800697
 20
42.0712622726
 30
0.0
 40
12.00000000000001
100
AcDbArc
 50
270.0
 51
0.0
  0
ARC
  5
33D
330
1F
100
AcDbEntity
  8
PROFILES_OUTSIDE
100
AcDbCircle
 10
1905.8682800697
 20
32.0950806329
 30
0.0
 40
1.0
100
AcDbArc
 50
107.6004667859
 51
180.0
  0
ARC
  5
33E
330
1F
100
AcDbEntity
  8
PROFILES_OUTSIDE
100
AcDbCircle
 10
1904.0026099301
 20
37.9762518538
 30
0.0
 40
5.170000000000023
100
AcDbArc
 50
287.6004667859
 51
114.8878920264
  0
ARC
  5
33F
330
1F
100
AcDbEntity
  8
PROFILES_OUTSIDE
100
AcDbCircle
 10
1901.4060016863
 20
43.5732622726
 30
0.0
 40
1.000000000000076
100
AcDbArc
 50
270.0
 51
294.8878920264
  0
ARC
  5
340
330
1F
100
AcDbEntity
  8
PROFILES_OUTSIDE
100
AcDbCircle
 10
1893.4663259768
 20
41.5732622726
 30
0.0
 40
1.000000000000153
100
AcDbArc
 50
90.0
 51
176.3380644245
  0
ARC
  5
341
330
1F
100
AcDbEntity
  8
PROFILES_OUTSIDE
100
AcDbCircle
 10
1885.8682800697
 20
49.0732622726
 30
0.0
 40
6.000000000000227
100
AcDbArc
 50
90.0
 51
180.0
  0
ARC
  5
342
330
1F
100
AcDbEntity
  8
PROFILES_OUTSIDE
100
AcDbCircle
 10
2023.8182800697
 20
455.0672622726
 30
0.0
 40
12.0
100
AcDbArc
 50
0.0
 51
90.0
  0
ARC
  5
343
330
1F
100
AcDbEntity
  8
PROFILES_OUTSIDE
100
AcDbCircle
 10
2054.8682800697
 20
188.070595606
 30
0.0
 40
19.04999999999977
100
AcDbArc
 50
120.0
 51
180.0
  0
ARC
  5
344
330
1F
100
AcDbEntity
  8
PROFILES_OUTSIDE
100
AcDbCircle
 10
2035.8182800697
 20
221.0661634902
 30
0.0
 40
19.04999999999989
100
AcDbArc
 50
300.0
 51
0.0
  0
ARC
  5
345
330
1F
100
AcDbEntity
  8
PROFILES_OUTSIDE
100
AcDbCircle
 10
2035.8182800697
 20
301.0743610551
 30
0.0
 40
19.05000000000006
100
AcDbArc
 50
0.0
 51
60.0
  0
ARC
  5
346
330
1F
100
AcDbEntity
  8
PROFILES_OUTSIDE
100
AcDbCircle
 10
2054.8682800697
 20
334.0699289393
 30
0.0
 40
19.04999999999962
100
AcDbArc
 50
180.0
 51
240.0
  0
ARC
  5
347
330
1F
100
AcDbEntity
  8
PROFILES_OUTSIDE
100
AcDbCircle
 10
1885.8682800697
 20
473.0672622726
 30
0.0
 40
6.000000000000227
100
AcDbArc
 50
180.0
 51
270.0
  0
ARC
  5
348
330
1F
100
AcDbEntity
  8
PROFILES_OUTSIDE
100
AcDbCircle
 10
1880.8682800697
 20
484.8172622726
 30
0.0
 40
1.000000000000227
100
AcDbArc
 50
90.0
 51
180.0
  0
ARC
  5
349
330
1F
100
AcDbEntity
  8
PROFILES_OUTSIDE
100
AcDbCircle
 10
1880.8682800697
 20
530.7972622726
 30
0.0
 40
1.0
100
AcDbArc
 50
180.0
 51
270.0
  0
ARC
  5
34A
330
1F
100
AcDbEntity
  8
PROFILES_OUTSIDE
100
AcDbCircle
 10
2023.8182800697
 20
560.5472622726
 30
0.0
 40
12.0
100
AcDbArc
 50
270.0
 51
0.0
  0
ARC
  5
34B
330
1F
100
AcDbEntity
  8
PROFILES_OUTSIDE
100
AcDbCircle
 10
2023.8182800697
 20
948.5412622726
 30
0.0
 40
12.00000000000023
100
AcDbArc
 50
0.0
 51
90.0
  0
ARC
  5
34C
330
1F
100
AcDbEntity
  8
PROFILES_OUTSIDE
100
AcDbCircle
 10
1880.8682800697
 20
978.2912622726
 30
0.0
 40
1.0
100
AcDbArc
 50
90.0
 51
180.0
  0
ARC
  5
34D
330
1F
100
AcDbEntity
  8
PROFILES_OUTSIDE
100
AcDbCircle
 10
2266.2702341626
 20
535.0472622726
 30
0.0
 40
1.000000000000171
100
AcDbArc
 50
3.6619355755
 51
90.0
  0
ARC
  5
34E
330
1F
100
AcDbEntity
  8
PROFILES_OUTSIDE
100
AcDbCircle
 10
2258.3305584531
 20
537.0472622726
 30
0.0
 40
0.9999999999998863
100
AcDbArc
 50
245.1121079736
 51
270.0
  0
ARC
  5
34F
330
1F
100
AcDbEntity
  8
PROFILES_OUTSIDE
100
AcDbCircle
 10
2255.7339502093
 20
531.4502518538
 30
0.0
 40
5.170000000000036
100
AcDbArc
 50
65.1121079736
 51
252.3995332141
  0
ARC
  5
350
330
1F
100
AcDbEntity
  8
PROFILES_OUTSIDE
100
AcDbCircle
 10
2253.8682800697
 20
525.5690806329
 30
0.0
 40
1.000000000000099
100
AcDbArc
 50
0.0
 51
72.3995332141
  0
ARC
  5
351
330
1F
100
AcDbEntity
  8
PROFILES_OUTSIDE
100
AcDbCircle
 10
2116.8682800697
 20
535.5452622726
 30
0.0
 40
12.0
100
AcDbArc
 50
180.0
 51
270.0
  0
ARC
  5
352
330
1F
100
AcDbEntity
  8
PROFILES_OUTSIDE
100
AcDbCircle
 10
2092.8682800697
 20
669.544595606
 30
0.0
 40
11.99999999999989
100
AcDbArc
 50
0.0
 51
90.0
  0
ARC
  5
353
330
1F
100
AcDbEntity
  8
PROFILES_OUTSIDE
100
AcDbCircle
 10
2066.8682800697
 20
669.544595606
 30
0.0
 40
12.00000000000045
100
AcDbArc
 50
90.0
 51
180.0
  0
ARC
  5
354
330
1F
100
AcDbEntity
  8
PROFILES_OUTSIDE
100
AcDbCircle
 10
2042.8682800697
 20
535.5452622726
 30
0.0
 40
12.0
100
AcDbArc
 50
270.0
 51
0.0
  0
ARC
  5
355
330
1F
100
AcDbEntity
  8
PROFILES_OUTSIDE
100
AcDbCircle
 10
1905.8682800697
 20
525.5690806329
 30
0.0
 40
1.00000000000006
100
AcDbArc
 50
107.6004667859
 51
180.0
  0
ARC
  5
356
330
1F
100
AcDbEntity
  8
PROFILES_OUTSIDE
100
AcDbCircle
 10
1904.0026099301
 20
531.4502518538
 30
0.0
 40
5.170000000000002
100
AcDbArc
 50
287.6004667859
 51
114.8878920264
  0
ARC
  5
357
330
1F
100
AcDbEntity
  8
PROFILES_OUTSIDE
100
AcDbCircle
 10
1901.4060016863
 20
537.0472622726
 30
0.0
 40
1.000000000000037
100
AcDbArc
 50
270.0
 51
294.8878920264
  0
ARC
  5
358
330
1F
100
AcDbEntity
  8
PROFILES_OUTSIDE
100
AcDbCircle
 10
1893.4663259768
 20
535.0472622726
 30
0.0
 40
1.000000000000163
100
AcDbArc
 50
90.0
 51
176.3380644245
  0
ARC
  5
359
330
1F
100
AcDbEntity
  8
PROFILES_OUTSIDE
100
AcDbCircle
 10
1885.8682800697
 20
542.5472622726
 30
0.0
 40
6.0
100
AcDbArc
 50
90.0
 51
180.0
  0
ARC
  5
35A
330
1F
100
AcDbEntity
  8
PROFILES_OUTSIDE
100
AcDbCircle
 10
2278.8682800697
 20
978.2912622726
 30
0.0
 40
1.0
100
AcDbArc
 50
0.0
 51
90.0
  0
ARC
  5
35B
330
1F
100
AcDbEntity
  8
PROFILES_OUTSIDE
100
AcDbCircle
 10
2054.8682800697
 20
681.544595606
 30
0.0
 40
19.04999999999995
100
AcDbArc
 50
120.0
 51
180.0
  0
ARC
  5
35C
330
1F
100
AcDbEntity
  8
PROFILES_OUTSIDE
100
AcDbCircle
 10
2035.8182800697
 20
714.5401634902
 30
0.0
 40
19.05000000000001
100
AcDbArc
 50
300.0
 51
0.0
  0
ARC
  5
35D
330
1F
100
AcDbEntity
  8
PROFILES_OUTSIDE
100
AcDbCircle
 10
2035.8182800697
 20
794.5483610551
 30
0.0
 40
19.05000000000001
100
AcDbArc
 50
0.0
 51
60.0
  0
ARC
  5
35E
330
1F
100
AcDbEntity
  8
PROFILES_OUTSIDE
100
AcDbCircle
 10
2054.8682800697
 20
827.5439289393
 30
0.0
 40
19.05
100
AcDbArc
 50
180.0
 51
240.0
  0
ARC
  5
35F
330
1F
100
AcDbEntity
  8
PROFILES_OUTSIDE
100
AcDbCircle
 10
1885.8682800697
 20
966.5412622726
 30
0.0
 40
6.0
100
AcDbArc
 50
180.0
 51
270.0
  0
ARC
  5
360
330
1F
100
AcDbEntity
  8
PROFILES_OUTSIDE
100
AcDbCircle
 10
2135.9182800697
 20
948.5412622726
 30
0.0
 40
12.00000000000045
100
AcDbArc
 50
90.0
 51
180.0
  0
ARC
  5
361
330
1F
100
AcDbEntity
  8
PROFILES_OUTSIDE
100
AcDbCircle
 10
1893.4663259768
 20
974.0412622726
 30
0.0
 40
1.000000000000171
100
AcDbArc
 50
183.6619355755
 51
270.0
  0
ARC
  5
362
330
1F
100
AcDbEntity
  8
PROFILES_OUTSIDE
100
AcDbCircle
 10
1901.4060016863
 20
972.0412622726
 30
0.0
 40
1.000000000000133
100
AcDbArc
 50
65.1121079736
 51
90.0
  0
ARC
  5
363
330
1F
100
AcDbEntity
  8
PROFILES_OUTSIDE
100
AcDbCircle
 10
1904.0026099301
 20
977.6382726914
 30
0.0
 40
5.170000000000036
100
AcDbArc
 50
245.1121079736
 51
72.3995332141
  0
ARC
  5
364
330
1F
100
AcDbEntity
  8
PROFILES_OUTSIDE
100
AcDbCircle
 10
1905.8682800697
 20
983.5194439124
 30
0.0
 40
0.9999999999999909
100
AcDbArc
 50
180.0
 51
252.3995332141
  0
ARC
  5
365
330
1F
100
AcDbEntity
  8
PROFILES_OUTSIDE
100
AcDbCircle
 10
2042.8682800697
 20
973.5432622726
 30
0.0
 40
12.0
100
AcDbArc
 50
0.0
 51
90.0
  0
ARC
  5
366
330
1F
100
AcDbEntity
  8
PROFILES_OUTSIDE
100
AcDbCircle
 10
2066.8682800697
 20
839.5439289393
 30
0.0
 40
12.00000000000045
100
AcDbArc
 50
180.0
 51
270.0
  0
ARC
  5
367
330
1F
100
AcDbEntity
  8
PROFILES_OUTSIDE
100
AcDbCircle
 10
2092.8682800697
 20
839.5439289393
 30
0.0
 40
12.0
100
AcDbArc
 50
270.0
 51
0.0
  0
ARC
  5
368
330
1F
100
AcDbEntity
  8
PROFILES_OUTSIDE
100
AcDbCircle
 10
2116.8682800697
 20
973.5432622726
 30
0.0
 40
12.00000000000045
100
AcDbArc
 50
90.0
 51
180.0
  0
ARC
  5
369
330
1F
100
AcDbEntity
  8
PROFILES_OUTSIDE
100
AcDbCircle
 10
2253.8682800697
 20
983.5194439124
 30
0.0
 40
1.0
100
AcDbArc
 50
287.6004667859
 51
0.0
  0
ARC
  5
36A
330
1F
100
AcDbEntity
  8
PROFILES_OUTSIDE
100
AcDbCircle
 10
2255.7339502093
 20
977.6382726914
 30
0.0
 40
5.170000000000248
100
AcDbArc
 50
107.6004667859
 51
294.8878920264
  0
ARC
  5
36B
330
1F
100
AcDbEntity
  8
PROFILES_OUTSIDE
100
AcDbCircle
 10
2258.3305584531
 20
972.0412622726
 30
0.0
 40
1.0
100
AcDbArc
 50
90.0
 51
114.8878920264
  0
ARC
  5
36C
330
1F
100
AcDbEntity
  8
PROFILES_OUTSIDE
100
AcDbCircle
 10
2266.2702341626
 20
974.0412622726
 30
0.0
 40
1.000000000000163
100
AcDbArc
 50
270.0
 51
356.3380644245
  0
ARC
  5
36D
330
1F
100
AcDbEntity
  8
PROFILES_OUTSIDE
100
AcDbCircle
 10
2273.8682800697
 20
966.5412622726
 30
0.0
 40
6.0
100
AcDbArc
 50
270.0
 51
0.0
  0
ARC
  5
36E
330
1F
100
AcDbEntity
  8
PROFILES_OUTSIDE
100
AcDbCircle
 10
2135.9182800697
 20
560.5472622726
 30
0.0
 40
12.00000000000045
100
AcDbArc
 50
180.0
 51
270.0
  0
ARC
  5
36F
330
1F
100
AcDbEntity
  8
PROFILES_OUTSIDE
100
AcDbCircle
 10
2104.8682800697
 20
827.5439289393
 30
0.0
 40
19.04999999999998
100
AcDbArc
 50
300.0
 51
0.0
  0
ARC
  5
370
330
1F
100
AcDbEntity
  8
PROFILES_OUTSIDE
100
AcDbCircle
 10
2123.9182800697
 20
794.5483610551
 30
0.0
 40
19.04999999999969
100
AcDbArc
 50
120.0
 51
180.0
  0
ARC
  5
371
330
1F
100
AcDbEntity
  8
PROFILES_OUTSIDE
100
AcDbCircle
 10
2123.9182800697
 20
714.5401634902
 30
0.0
 40
19.04999999999979
100
AcDbArc
 50
180.0
 51
240.0
  0
ARC
  5
372
330
1F
100
AcDbEntity
  8
PROFILES_OUTSIDE
100
AcDbCircle
 10
2104.8682800697
 20
681.544595606
 30
0.0
 40
19.04999999999969
100
AcDbArc
 50
0.0
 51
60.0
  0
ARC
  5
373
330
1F
100
AcDbEntity
  8
PROFILES_OUTSIDE
100
AcDbCircle
 10
2273.8682800697
 20
542.5472622726
 30
0.0
 40
6.0
100
AcDbArc
 50
0.0
 51
90.0
  0
ARC
  5
374
330
1F
100
AcDbEntity
  8
PROFILES_OUTSIDE
100
AcDbCircle
 10
2278.8682800697
 20
530.7972622726
 30
0.0
 40
1.0
100
AcDbArc
 50
270.0
 51
0.0
  0
ENDSEC
  0
SECTION
  2
OBJECTS
  0
DICTIONARY
  5
C
330
0
100
AcDbDictionary
  3
ACAD_GROUP
350
D
  3
ACAD_MLINESTYLE
350
17
  3
ACAD_SCALELIST
350
47
  0
DICTIONARY
  5
D
102
{ACAD_REACTORS
330
C
102
}
330
C
100
AcDbDictionary
  0
DICTIONARY
  5
17
102
{ACAD_REACTORS
330
C
102
}
330
C
100
AcDbDictionary
  3
STANDARD
350
18
  0
DICTIONARY
  5
47
102
{ACAD_REACTORS
330
C
102
}
330
C
100
AcDbDictionary
  0
MLINESTYLE
  5
18
102
{ACAD_REACTORS
330
17
102
}
330
17
100
AcDbMlineStyle
  2
Standard
 70
     0
  3

 62
   256
 51
90.0
 52
90.0
 71
     2
 49
0.5
 62
   256
  6
BYLAYER
 49
-0.5
 62
   256
  6
BYLAYER
  0
ENDSEC
  0
EOF
