  0
SECTION
  2
HEADER
  9
$ACADVER
  1
AC1014
  9
$ACADMAINTVER
 70
     9
  9
$DWGCODEPAGE
  3
ANSI_1252
  9
$INSBASE
 10
0.0
 20
0.0
 30
0.0
  9
$EXTMIN
 10
0.0
 20
0.0
 30
0.0
  9
$EXTMAX
 10
96.062992126
 20
48.031496063
 30
0.0
  9
$LIMMIN
 10
0.0
 20
0.0
  9
$LIMMAX
 10
96.062992126
 20
48.031496063
  9
$ORTHOMODE
 70
     0
  9
$REGENMODE
 70
     1
  9
$FILLMODE
 70
     1
  9
$QTEXTMODE
 70
     0
  9
$MIRRTEXT
 70
     1
  9
$DRAGMODE
 70
     2
  9
$LTSCALE
 40
1.0
  9
$OSMODE
 70
    37
  9
$ATTMODE
 70
     1
  9
$TEXTSIZE
 40
0.1377952756
  9
$TRACEWID
 40
0.05
  9
$TEXTSTYLE
  7
STANDARD
  9
$CLAYER
  8
0
  9
$CELTYPE
  6
BYLAYER
  9
$CECOLOR
 62
   256
  9
$CELTSCALE
 40
1.0
  9
$DELOBJ
 70
     1
  9
$DISPSILH
 70
     0
  9
$DIMSCALE
 40
1.0
  9
$DIMASZ
 40
0.13
  9
$DIMEXO
 40
0.0393700787
  9
$DIMDLI
 40
0.38
  9
$DIMRND
 40
0.0
  9
$DIMDLE
 40
0.0
  9
$DIMEXE
 40
0.0393700787
  9
$DIMTP
 40
0.0
  9
$DIMTM
 40
0.0
  9
$DIMTXT
 40
0.1805555556
  9
$DIMCEN
 40
0.09
  9
$DIMTSZ
 40
0.0
  9
$DIMTOL
 70
     0
  9
$DIMLIM
 70
     0
  9
$DIMTIH
 70
     1
  9
$DIMTOH
 70
     1
  9
$DIMSE1
 70
     0
  9
$DIMSE2
 70
     0
  9
$DIMTAD
 70
     1
  9
$DIMZIN
 70
     0
  9
$DIMBLK
  1

  9
$DIMASO
 70
     1
  9
$DIMSHO
 70
     1
  9
$DIMPOST
  1

  9
$DIMAPOST
  1

  9
$DIMALT
 70
     0
  9
$DIMALTD
 70
     2
  9
$DIMALTF
 40
25.4
  9
$DIMLFAC
 40
1.0
  9
$DIMTOFL
 70
     0
  9
$DIMTVP
 40
0.0
  9
$DIMTIX
 70
     0
  9
$DIMSOXD
 70
     0
  9
$DIMSAH
 70
     0
  9
$DIMBLK1
  1

  9
$DIMBLK2
  1

  9
$DIMSTYLE
  2
STANDARD
  9
$DIMCLRD
 70
     0
  9
$DIMCLRE
 70
     0
  9
$DIMCLRT
 70
     0
  9
$DIMTFAC
 40
1.0
  9
$DIMGAP
 40
0.06
  9
$DIMJUST
 70
     0
  9
$DIMSD1
 70
     0
  9
$DIMSD2
 70
     0
  9
$DIMTOLJ
 70
     1
  9
$DIMTZIN
 70
     0
  9
$DIMALTZ
 70
     0
  9
$DIMALTTZ
 70
     0
  9
$DIMFIT
 70
     3
  9
$DIMUPT
 70
     0
  9
$DIMUNIT
 70
     2
  9
$DIMDEC
 70
     2
  9
$DIMTDEC
 70
     2
  9
$DIMALTU
 70
     2
  9
$DIMALTTD
 70
     2
  9
$DIMTXSTY
  7
STANDARD
  9
$DIMAUNIT
 70
     0
  9
$LUNITS
 70
     2
  9
$LUPREC
 70
     2
  9
$SKETCHINC
 40
0.1
  9
$FILLETRAD
 40
0.5
  9
$AUNITS
 70
     0
  9
$AUPREC
 70
     2
  9
$MENU
  1
.
  9
$ELEVATION
 40
0.0
  9
$PELEVATION
 40
0.0
  9
$THICKNESS
 40
0.0
  9
$LIMCHECK
 70
     0
  9
$CHAMFERA
 40
0.0
  9
$CHAMFERB
 40
0.0
  9
$CHAMFERC
 40
0.0
  9
$CHAMFERD
 40
0.0
  9
$SKPOLY
 70
     0
  9
$TDCREATE
 40
2457722.439209051
  9
$TDUPDATE
 40
2457722.439209398
  9
$TDINDWG
 40
0.0000000116
  9
$TDUSRTIMER
 40
0.0000000116
  9
$USRTIMER
 70
     1
  9
$ANGBASE
 50
0.0
  9
$ANGDIR
 70
     0
  9
$PDMODE
 70
     0
  9
$PDSIZE
 40
-1.0
  9
$PLINEWID
 40
0.0
  9
$COORDS
 70
     1
  9
$SPLFRAME
 70
     0
  9
$SPLINETYPE
 70
     6
  9
$SPLINESEGS
 70
     8
  9
$ATTDIA
 70
     0
  9
$ATTREQ
 70
     1
  9
$HANDLING
 70
     1
  9
$HANDSEED
  5
375
  9
$SURFTAB1
 70
     6
  9
$SURFTAB2
 70
     6
  9
$SURFTYPE
 70
     6
  9
$SURFU
 70
     6
  9
$SURFV
 70
     6
  9
$UCSNAME
  2

  9
$UCSORG
 10
0.0
 20
0.0
 30
0.0
  9
$UCSXDIR
 10
1.0
 20
0.0
 30
0.0
  9
$UCSYDIR
 10
0.0
 20
1.0
 30
0.0
  9
$PUCSNAME
  2

  9
$PUCSORG
 10
0.0
 20
0.0
 30
0.0
  9
$PUCSXDIR
 10
1.0
 20
0.0
 30
0.0
  9
$PUCSYDIR
 10
0.0
 20
1.0
 30
0.0
  9
$USERI1
 70
     0
  9
$USERI2
 70
     0
  9
$USERI3
 70
     0
  9
$USERI4
 70
     0
  9
$USERI5
 70
     0
  9
$USERR1
 40
0.0
  9
$USERR2
 40
0.0
  9
$USERR3
 40
0.0
  9
$USERR4
 40
0.0
  9
$USERR5
 40
0.0
  9
$WORLDVIEW
 70
     1
  9
$SHADEDGE
 70
     3
  9
$SHADEDIF
 70
    70
  9
$TILEMODE
 70
     1
  9
$MAXACTVP
 70
    64
  9
$PINSBASE
 10
0.0
 20
0.0
 30
0.0
  9
$PLIMCHECK
 70
     0
  9
$PEXTMIN
 10
1.0000000000E+20
 20
1.0000000000E+20
 30
1.0000000000E+20
  9
$PEXTMAX
 10
-1.0000000000E+20
 20
-1.0000000000E+20
 30
-1.0000000000E+20
  9
$PLIMMIN
 10
0.0
 20
0.0
  9
$PLIMMAX
 10
12.0
 20
9.0
  9
$UNITMODE
 70
     0
  9
$VISRETAIN
 70
     1
  9
$PLINEGEN
 70
     0
  9
$PSLTSCALE
 70
     1
  9
$TREEDEPTH
 70
  3020
  9
$PICKSTYLE
 70
     1
  9
$CMLSTYLE
  2
STANDARD
  9
$CMLJUST
 70
     0
  9
$CMLSCALE
 40
1.0
  9
$PROXYGRAPHICS
 70
     1
  9
$MEASUREMENT
 70
     0
  0
ENDSEC
  0
SECTION
  2
CLASSES
  0
CLASS
  1
ACDBDICTIONARYWDFLT
  2
AcDbDictionaryWithDefault
  3
ObjectDBX Classes
 90
        0
280
     0
281
     0
  0
CLASS
  1
VISUALSTYLE
  2
AcDbVisualStyle
  3
ObjectDBX Classes
 90
     4095
280
     0
281
     0
  0
CLASS
  1
MATERIAL
  2
AcDbMaterial
  3
ObjectDBX Classes
 90
     1153
280
     0
281
     0
  0
CLASS
  1
SCALE
  2
AcDbScale
  3
ObjectDBX Classes
 90
     1153
280
     0
281
     0
  0
CLASS
  1
TABLESTYLE
  2
AcDbTableStyle
  3
ObjectDBX Classes
 90
     4095
280
     0
281
     0
  0
CLASS
  1
MLEADERSTYLE
  2
AcDbMLeaderStyle
  3
ACDB_MLEADERSTYLE_CLASS
 90
     4095
280
     0
281
     0
  0
CLASS
  1
SUN
  2
AcDbSun
  3
SCENEOE
 90
     1153
280
     0
281
     0
  0
CLASS
  1
XRECORD
  2
AcDbXrecord
  3
ObjectDBX Classes
 90
        0
280
     0
281
     0
  0
CLASS
  1
LWPOLYLINE
  2
AcDbPolyline
  3
ObjectDBX Classes
 90
        0
280
     0
281
     1
  0
CLASS
  1
HATCH
  2
AcDbHatch
  3
ObjectDBX Classes
 90
        0
280
     0
281
     1
  0
ENDSEC
  0
SECTION
  2
TABLES
  0
TABLE
  2
VPORT
  5
8
330
0
100
AcDbSymbolTable
 70
     1
  0
VPORT
  5
29
330
8
100
AcDbSymbolTableRecord
100
AcDbViewportTableRecord
  2
*ACTIVE
 70
     0
 10
0.0
 20
0.0
 11
1.0
 21
1.0
 12
48.031496063
 22
24.0157480315
 13
0.0
 23
0.0
 14
0.5
 24
0.5
 15
0.5
 25
0.5
 16
0.0
 26
0.0
 36
1.0
 17
0.0
 27
0.0
 37
0.0
 40
48.031496063
 41
2.0
 42
50.0
 43
0.0
 44
0.0
 50
0.0
 51
0.0
 71
     0
 72
  2000
 73
     1
 74
     3
 75
     0
 76
     0
 77
     0
 78
     0
  0
ENDTAB
  0
TABLE
  2
LTYPE
  5
5
330
0
100
AcDbSymbolTable
 70
     6
  0
LTYPE
  5
14
330
5
100
AcDbSymbolTableRecord
100
AcDbLinetypeTableRecord
  2
BYBLOCK
 70
     0
  3

 72
    65
 73
     0
 40
0.0
  0
LTYPE
  5
15
330
5
100
AcDbSymbolTableRecord
100
AcDbLinetypeTableRecord
  2
BYLAYER
 70
     0
  3

 72
    65
 73
     0
 40
0.0
  0
LTYPE
  5
16
330
5
100
AcDbSymbolTableRecord
100
AcDbLinetypeTableRecord
  2
CONTINUOUS
 70
     0
  3
Solid line
 72
    65
 73
     0
 40
0.0
  0
LTYPE
  5
6E
330
5
100
AcDbSymbolTableRecord
100
AcDbLinetypeTableRecord
  2
HIDDEN
 70
     0
  3
Hidden __ __ __ __ __ __ __ __ __ __ __ __ __ __
 72
    65
 73
     2
 40
0.075
 49
0.05
 74
     0
 49
-0.025
 74
     0
  0
LTYPE
  5
6F
330
5
100
AcDbSymbolTableRecord
100
AcDbLinetypeTableRecord
  2
PHANTOM
 70
     0
  3
Phantom ______  __  __  ______  __  __  ______
 72
    65
 73
     6
 40
0.5
 49
0.25
 74
     0
 49
-0.05
 74
     0
 49
0.05
 74
     0
 49
-0.05
 74
     0
 49
0.05
 74
     0
 49
-0.05
 74
     0
  0
LTYPE
  5
70
330
5
100
AcDbSymbolTableRecord
100
AcDbLinetypeTableRecord
  2
CENTER
 70
     0
  3
Center ____ _ ____ _ ____ _ ____ _ ____ _ ____
 72
    65
 73
     4
 40
0.4
 49
0.25
 74
     0
 49
-0.05
 74
     0
 49
0.05
 74
     0
 49
-0.05
 74
     0
  0
LTYPE
  5
71
330
5
100
AcDbSymbolTableRecord
100
AcDbLinetypeTableRecord
  2
CENTERX2
 70
     0
  3
Center (2x) ________  __  ________  __  _____
 72
    65
 73
     4
 40
0.8
 49
0.5
 74
     0
 49
-0.1
 74
     0
 49
0.1
 74
     0
 49
-0.1
 74
     0
  0
LTYPE
  5
72
330
5
100
AcDbSymbolTableRecord
100
AcDbLinetypeTableRecord
  2
DOT2
 70
     0
  3
Dot (.5x) ........................................
 72
    65
 73
     2
 40
0.025
 49
0.0
 74
     0
 49
-0.025
 74
     0
  0
ENDTAB
  0
TABLE
  2
LAYER
  5
2
330
0
100
AcDbSymbolTable
 70
     6
  0
LAYER
  5
10
330
2
100
AcDbSymbolTableRecord
100
AcDbLayerTableRecord
  2
0
 70
     0
 62
     7
  6
CONTINUOUS
  0
LAYER
  5
73
330
2
100
AcDbSymbolTableRecord
100
AcDbLayerTableRecord
  2
BOX_STOCK
 70
     0
 62
     1
  6
CONTINUOUS
  0
LAYER
  5
74
330
2
100
AcDbSymbolTableRecord
100
AcDbLayerTableRecord
  2
HOLES
 70
     0
 62
    30
  6
CONTINUOUS
  0
LAYER
  5
75
330
2
100
AcDbSymbolTableRecord
100
AcDbLayerTableRecord
  2
POCKETS
 70
     0
 62
   171
  6
CONTINUOUS
  0
LAYER
  5
76
330
2
100
AcDbSymbolTableRecord
100
AcDbLayerTableRecord
  2
PROFILES_OUTSIDE
 70
     0
 62
     6
  6
CONTINUOUS
  0
LAYER
  5
77
330
2
100
AcDbSymbolTableRecord
100
AcDbLayerTableRecord
  2
PROFILES_INSIDE
 70
     0
 62
     4
  6
CONTINUOUS
  0
ENDTAB
  0
TABLE
  2
STYLE
  5
3
330
0
100
AcDbSymbolTable
 70
     1
  0
STYLE
  5
11
330
3
100
AcDbSymbolTableRecord
100
AcDbTextStyleTableRecord
  2
STANDARD
 70
     0
 40
0.0
 41
1.0
 50
0.0
 71
     0
 42
0.1377952756
  3
txt
  4

  0
ENDTAB
  0
TABLE
  2
VIEW
  5
6
330
0
100
AcDbSymbolTable
 70
     0
  0
ENDTAB
  0
TABLE
  2
UCS
  5
7
330
0
100
AcDbSymbolTable
 70
     0
  0
ENDTAB
  0
TABLE
  2
APPID
  5
9
330
0
100
AcDbSymbolTable
 70
     1
  0
APPID
  5
12
330
9
100
AcDbSymbolTableRecord
100
AcDbRegAppTableRecord
  2
ACAD
 70
     0
  0
ENDTAB
  0
TABLE
  2
DIMSTYLE
  5
A
330
0
100
AcDbSymbolTable
 70
     1
  0
DIMSTYLE
105
27
330
A
100
AcDbSymbolTableRecord
100
AcDbDimStyleTableRecord
  2
STANDARD
 70
     0
  3

  4

  5

  6

  7

 40
1.0
 41
0.18
 42
0.0625
 43
0.38
 44
0.18
 45
0.0
 46
0.0
 47
0.0
 48
0.0
140
0.18
141
0.09
142
0.0
143
25.4
144
1.0
145
0.0
146
1.0
147
0.09
 71
     0
 72
     0
 73
     1
 74
     1
 75
     0
 76
     0
 77
     0
 78
     0
170
     0
171
     2
172
     0
173
     0
174
     0
175
     0
176
     0
177
     0
178
     0
270
     2
271
     4
272
     4
273
     2
274
     2
340
11
275
     0
280
     0
281
     0
282
     0
283
     1
284
     0
285
     0
286
     0
287
     3
288
     0
  0
ENDTAB
  0
TABLE
  2
BLOCK_RECORD
  5
1
330
0
100
AcDbSymbolTable
 70
     1
  0
BLOCK_RECORD
  5
1F
330
1
100
AcDbSymbolTableRecord
100
AcDbBlockTableRecord
  2
*MODEL_SPACE
  0
BLOCK_RECORD
  5
1B
330
1
100
AcDbSymbolTableRecord
100
AcDbBlockTableRecord
  2
*PAPER_SPACE
  0
BLOCK_RECORD
  5
23
330
1
100
AcDbSymbolTableRecord
100
AcDbBlockTableRecord
  2
*PAPER_SPACE0
  0
ENDTAB
  0
ENDSEC
  0
SECTION
  2
BLOCKS
  0
BLOCK
  5
20
330
1F
100
AcDbEntity
  8
0
100
AcDbBlockBegin
  2
*MODEL_SPACE
 70
     0
 10
0.0
 20
0.0
 30
0.0
  3
*MODEL_SPACE
  1

  0
ENDBLK
  5
21
330
1F
100
AcDbEntity
  8
0
100
AcDbBlockEnd
  0
BLOCK
  5
1C
330
1B
100
AcDbEntity
 67
     1
  8
0
100
AcDbBlockBegin
  2
*PAPER_SPACE
 70
     0
 10
0.0
 20
0.0
 30
0.0
  3
*PAPER_SPACE
  1

  0
ENDBLK
  5
1D
330
1B
100
AcDbEntity
 67
     1
  8
0
100
AcDbBlockEnd
  0
BLOCK
  5
24
330
23
100
AcDbEntity
  8
0
100
AcDbBlockBegin
  2
*PAPER_SPACE0
 70
     0
 10
0.0
 20
0.0
 30
0.0
  3
*PAPER_SPACE0
  1

  0
ENDBLK
  5
25
330
23
100
AcDbEntity
  8
0
100
AcDbBlockEnd
  0
ENDSEC
  0
SECTION
  2
ENTITIES
  0
ARC
  5
78
330
1F
100
AcDbEntity
  8
0
  6
CONTINUOUS
 62
     7
100
AcDbCircle
 10
90.6326094516
 20
38.6079237115
 30
0.0
 40
0.236220472440948
100
AcDbArc
 50
270.0
 51
0.0
  0
LINE
  5
79
330
1F
100
AcDbEntity
  8
0
  6
CONTINUOUS
 62
     7
100
AcDbLine
 10
85.2015036291
 20
38.3717021668
 30
0.0
 11
90.6326131551
 21
38.3717021668
 31
0.0
  0
ARC
  5
7A
330
1F
100
AcDbEntity
  8
0
  6
CONTINUOUS
 62
     7
100
AcDbCircle
 10
85.2015070894
 20
37.8992622942
 30
0.0
 40
0.4724409448818818
100
AcDbArc
 50
90.0
 51
180.0
  0
LINE
  5
7B
330
1F
100
AcDbEntity
  8
0
  6
CONTINUOUS
 62
     7
100
AcDbLine
 10
84.7290687667
 20
33.0430680436
 30
0.0
 11
84.7290687667
 21
37.8992626111
 31
0.0
  0
ARC
  5
7C
330
1F
100
AcDbEntity
  8
0
  6
CONTINUOUS
 62
     7
100
AcDbCircle
 10
83.9790661445
 20
33.0430680685
 30
0.0
 40
0.75
100
AcDbArc
 50
300.0
 51
0.0
  0
ARC
  5
7D
330
1F
100
AcDbEntity
  8
0
  6
CONTINUOUS
 62
     7
100
AcDbCircle
 10
84.7290661445
 20
31.7440299628
 30
0.0
 40
0.75
100
AcDbArc
 50
120.0
 51
180.0
  0
LINE
  5
7E
330
1F
100
AcDbEntity
  8
0
  6
CONTINUOUS
 62
     7
100
AcDbLine
 10
83.9790639908
 20
28.5015813072
 30
0.0
 11
83.9790639908
 21
31.7440293969
 31
0.0
  0
ARC
  5
7F
330
1F
100
AcDbEntity
  8
0
  6
CONTINUOUS
 62
     7
100
AcDbCircle
 10
84.7290661445
 20
28.5015812398
 30
0.0
 40
0.75
100
AcDbArc
 50
180.0
 51
240.0
  0
ARC
  5
80
330
1F
100
AcDbEntity
  8
0
  6
CONTINUOUS
 62
     7
100
AcDbCircle
 10
83.9790661445
 20
27.2025431341
 30
0.0
 40
0.75
100
AcDbArc
 50
0.0
 51
60.0
  0
LINE
  5
81
330
1F
100
AcDbEntity
  8
0
  6
CONTINUOUS
 62
     7
100
AcDbLine
 10
84.7290687667
 20
22.346348093
 30
0.0
 11
84.7290687667
 21
27.2025426605
 31
0.0
  0
ARC
  5
82
330
1F
100
AcDbEntity
  8
0
  6
CONTINUOUS
 62
     7
100
AcDbCircle
 10
85.2015070894
 20
22.3463489084
 30
0.0
 40
0.4724409448818889
100
AcDbArc
 50
180.0
 51
270.0
  0
LINE
  5
83
330
1F
100
AcDbEntity
  8
0
  6
CONTINUOUS
 62
     7
100
AcDbLine
 10
90.6326131551
 20
21.8739085373
 30
0.0
 11
85.2015036291
 21
21.8739085373
 31
0.0
  0
ARC
  5
84
330
1F
100
AcDbEntity
  8
0
  6
CONTINUOUS
 62
     7
100
AcDbCircle
 10
90.6326094516
 20
21.637687491
 30
0.0
 40
0.236220472440948
100
AcDbArc
 50
0.0
 51
90.0
  0
LINE
  5
85
330
1F
100
AcDbEntity
  8
0
  6
CONTINUOUS
 62
     7
100
AcDbLine
 10
90.868825893
 20
21.1750886635
 30
0.0
 11
90.868825893
 21
21.6376864129
 31
0.0
  0
ARC
  5
86
330
1F
100
AcDbEntity
  8
0
  6
CONTINUOUS
 62
     7
100
AcDbCircle
 10
90.8294598453
 20
21.1750890659
 30
0.0
 40
0.039370078740177
100
AcDbArc
 50
270.0
 51
0.0
  0
LINE
  5
87
330
1F
100
AcDbEntity
  8
0
  6
CONTINUOUS
 62
     7
100
AcDbLine
 10
90.8294586678
 20
21.1357190916
 30
0.0
 11
90.6637108225
 21
21.1357190916
 31
0.0
  0
LINE
  5
88
330
1F
100
AcDbEntity
  8
0
  6
CONTINUOUS
 62
     7
100
AcDbLine
 10
90.6637108225
 20
21.1357190916
 30
0.0
 11
90.6503255905
 21
21.3449267015
 31
0.0
  0
ARC
  5
89
330
1F
100
AcDbEntity
  8
0
  6
CONTINUOUS
 62
     7
100
AcDbCircle
 10
90.611032841
 20
21.3424119005
 30
0.0
 40
0.0393700787401627
100
AcDbArc
 50
3.6619355755
 51
90.0
  0
LINE
  5
8A
330
1F
100
AcDbEntity
  8
0
  6
CONTINUOUS
 62
     7
100
AcDbLine
 10
90.6110334577
 20
21.3817830224
 30
0.0
 11
90.0208911551
 21
21.3817830224
 31
0.0
  0
ARC
  5
8B
330
1F
100
AcDbEntity
  8
0
  6
CONTINUOUS
 62
     7
100
AcDbCircle
 10
90.0208881281
 20
21.421152058
 30
0.0
 40
0.0393700787401521
100
AcDbArc
 50
245.1121079736
 51
270.0
  0
ARC
  5
8C
330
1F
100
AcDbEntity
  8
0
  6
CONTINUOUS
 62
     7
100
AcDbCircle
 10
89.9186594571
 20
21.2007973171
 30
0.0
 40
0.2035433070866144
100
AcDbArc
 50
65.1121079736
 51
252.3995332141
  0
ARC
  5
8D
330
1F
100
AcDbEntity
  8
0
  6
CONTINUOUS
 62
     7
100
AcDbCircle
 10
89.8452078768
 20
20.969255143
 30
0.0
 40
0.039370078740156
100
AcDbArc
 50
0.0
 51
72.3995332142
  0
LINE
  5
8E
330
1F
100
AcDbEntity
  8
0
  6
CONTINUOUS
 62
     7
100
AcDbLine
 10
89.8845795565
 20
20.8895777218
 30
0.0
 11
89.8845795565
 21
20.9692555213
 31
0.0
  0
LINE
  5
8F
330
1F
100
AcDbEntity
  8
0
  6
CONTINUOUS
 62
     7
100
AcDbLine
 10
84.4515082398
 20
20.8895777218
 30
0.0
 11
89.8845795565
 21
20.8895777218
 31
0.0
  0
ARC
  5
90
330
1F
100
AcDbEntity
  8
0
  6
CONTINUOUS
 62
     7
100
AcDbCircle
 10
84.4515070894
 20
21.3620181997
 30
0.0
 40
0.4724409448818889
100
AcDbArc
 50
180.0
 51
270.0
  0
LINE
  5
91
330
1F
100
AcDbEntity
  8
0
  6
CONTINUOUS
 62
     7
100
AcDbLine
 10
83.9790639908
 20
26.7301031048
 30
0.0
 11
83.9790639908
 21
21.3620172774
 31
0.0
  0
ARC
  5
92
330
1F
100
AcDbEntity
  8
0
  6
CONTINUOUS
 62
     7
100
AcDbCircle
 10
83.5066251996
 20
26.7301021892
 30
0.0
 40
0.4724409448819102
100
AcDbArc
 50
0.0
 51
90.0
  0
LINE
  5
93
330
1F
100
AcDbEntity
  8
0
  6
CONTINUOUS
 62
     7
100
AcDbLine
 10
82.4830061801
 20
27.2025426605
 30
0.0
 11
83.5066291284
 21
27.2025426605
 31
0.0
  0
ARC
  5
94
330
1F
100
AcDbEntity
  8
0
  6
CONTINUOUS
 62
     7
100
AcDbCircle
 10
82.4830031524
 20
26.7301021892
 30
0.0
 40
0.4724409448819102
100
AcDbArc
 50
90.0
 51
180.0
  0
LINE
  5
95
330
1F
100
AcDbEntity
  8
0
  6
CONTINUOUS
 62
     7
100
AcDbLine
 10
82.0105619311
 20
21.3620172774
 30
0.0
 11
82.0105619311
 21
26.7301031048
 31
0.0
  0
ARC
  5
96
330
1F
100
AcDbEntity
  8
0
  6
CONTINUOUS
 62
     7
100
AcDbCircle
 10
81.5381212626
 20
21.3620181997
 30
0.0
 40
0.4724409448818889
100
AcDbArc
 50
270.0
 51
0.0
  0
LINE
  5
97
330
1F
100
AcDbEntity
  8
0
  6
CONTINUOUS
 62
     7
100
AcDbLine
 10
76.1050510588
 20
20.8895777218
 30
0.0
 11
81.5381176822
 21
20.8895777218
 31
0.0
  0
LINE
  5
98
330
1F
100
AcDbEntity
  8
0
  6
CONTINUOUS
 62
     7
100
AcDbLine
 10
76.1050510588
 20
20.9692555213
 30
0.0
 11
76.1050510588
 21
20.8895777218
 31
0.0
  0
ARC
  5
99
330
1F
100
AcDbEntity
  8
0
  6
CONTINUOUS
 62
     7
100
AcDbCircle
 10
76.1444204752
 20
20.969255143
 30
0.0
 40
0.0393700787401627
100
AcDbArc
 50
107.6004667859
 51
180.0
  0
ARC
  5
9A
330
1F
100
AcDbEntity
  8
0
  6
CONTINUOUS
 62
     7
100
AcDbCircle
 10
76.0709688949
 20
21.2007973171
 30
0.0
 40
0.2035433070866173
100
AcDbArc
 50
287.6004667859
 51
114.8878920264
  0
ARC
  5
9B
330
1F
100
AcDbEntity
  8
0
  6
CONTINUOUS
 62
     7
100
AcDbCircle
 10
75.9687402239
 20
21.421152058
 30
0.0
 40
0.0393700787401592
100
AcDbArc
 50
270.0
 51
294.8878920264
  0
LINE
  5
9C
330
1F
100
AcDbEntity
  8
0
  6
CONTINUOUS
 62
     7
100
AcDbLine
 10
75.9687394601
 20
21.3817830224
 30
0.0
 11
75.3785971575
 21
21.3817830224
 31
0.0
  0
ARC
  5
9D
330
1F
100
AcDbEntity
  8
0
  6
CONTINUOUS
 62
     7
100
AcDbCircle
 10
75.3785955109
 20
21.3424119005
 30
0.0
 40
0.0393700787401521
100
AcDbArc
 50
90.0
 51
176.3380644245
  0
LINE
  5
9E
330
1F
100
AcDbEntity
  8
0
  6
CONTINUOUS
 62
     7
100
AcDbLine
 10
75.3393050247
 20
21.3449267015
 30
0.0
 11
75.3259150994
 21
21.1357190916
 31
0.0
  0
LINE
  5
9F
330
1F
100
AcDbEntity
  8
0
  6
CONTINUOUS
 62
     7
100
AcDbLine
 10
75.3259150994
 20
21.1357190916
 30
0.0
 11
75.1601672541
 21
21.1357190916
 31
0.0
  0
ARC
  5
A0
330
1F
100
AcDbEntity
  8
0
  6
CONTINUOUS
 62
     7
100
AcDbCircle
 10
75.1601685067
 20
21.1750890659
 30
0.0
 40
0.0393700787401521
100
AcDbArc
 50
180.0
 51
270.0
  0
LINE
  5
A1
330
1F
100
AcDbEntity
  8
0
  6
CONTINUOUS
 62
     7
100
AcDbLine
 10
75.1208000289
 20
21.6376864129
 30
0.0
 11
75.1208000289
 21
21.1750886635
 31
0.0
  0
ARC
  5
A2
330
1F
100
AcDbEntity
  8
0
  6
CONTINUOUS
 62
     7
100
AcDbCircle
 10
75.3570189004
 20
21.637687491
 30
0.0
 40
0.2362204724409445
100
AcDbArc
 50
90.0
 51
180.0
  0
LINE
  5
A3
330
1F
100
AcDbEntity
  8
0
  6
CONTINUOUS
 62
     7
100
AcDbLine
 10
80.7881222929
 20
21.8739085373
 30
0.0
 11
75.3570174601
 21
21.8739085373
 31
0.0
  0
ARC
  5
A4
330
1F
100
AcDbEntity
  8
0
  6
CONTINUOUS
 62
     7
100
AcDbCircle
 10
80.7881212626
 20
22.3463489084
 30
0.0
 40
0.4724409448819102
100
AcDbArc
 50
270.0
 51
0.0
  0
LINE
  5
A5
330
1F
100
AcDbEntity
  8
0
  6
CONTINUOUS
 62
     7
100
AcDbLine
 10
81.2605665418
 20
27.2025426605
 30
0.0
 11
81.2605665418
 21
22.346348093
 31
0.0
  0
ARC
  5
A6
330
1F
100
AcDbEntity
  8
0
  6
CONTINUOUS
 62
     7
100
AcDbCircle
 10
82.0105622075
 20
27.2025431341
 30
0.0
 40
0.7500000000000031
100
AcDbArc
 50
120.0
 51
180.0
  0
ARC
  5
A7
330
1F
100
AcDbEntity
  8
0
  6
CONTINUOUS
 62
     7
100
AcDbCircle
 10
81.2605622075
 20
28.5015812398
 30
0.0
 40
0.75
100
AcDbArc
 50
300.0
 51
0.0
  0
LINE
  5
A8
330
1F
100
AcDbEntity
  8
0
  6
CONTINUOUS
 62
     7
100
AcDbLine
 10
82.0105619311
 20
31.7440293969
 30
0.0
 11
82.0105619311
 21
28.5015813072
 31
0.0
  0
ARC
  5
A9
330
1F
100
AcDbEntity
  8
0
  6
CONTINUOUS
 62
     7
100
AcDbCircle
 10
81.2605622075
 20
31.7440299628
 30
0.0
 40
0.75
100
AcDbArc
 50
0.0
 51
60.0
  0
ARC
  5
AA
330
1F
100
AcDbEntity
  8
0
  6
CONTINUOUS
 62
     7
100
AcDbCircle
 10
82.0105622075
 20
33.0430680685
 30
0.0
 40
0.7499999999999939
100
AcDbArc
 50
180.0
 51
240.0
  0
LINE
  5
AB
330
1F
100
AcDbEntity
  8
0
  6
CONTINUOUS
 62
     7
100
AcDbLine
 10
81.2605665418
 20
37.8992626111
 30
0.0
 11
81.2605665418
 21
33.0430680436
 31
0.0
  0
ARC
  5
AC
330
1F
100
AcDbEntity
  8
0
  6
CONTINUOUS
 62
     7
100
AcDbCircle
 10
80.7881212626
 20
37.8992622942
 30
0.0
 40
0.4724409448819102
100
AcDbArc
 50
0.0
 51
90.0
  0
LINE
  5
AD
330
1F
100
AcDbEntity
  8
0
  6
CONTINUOUS
 62
     7
100
AcDbLine
 10
75.3570174601
 20
38.3717021668
 30
0.0
 11
80.7881222929
 21
38.3717021668
 31
0.0
  0
ARC
  5
AE
330
1F
100
AcDbEntity
  8
0
  6
CONTINUOUS
 62
     7
100
AcDbCircle
 10
75.3570189004
 20
38.6079237115
 30
0.0
 40
0.236220472440948
100
AcDbArc
 50
180.0
 51
270.0
  0
LINE
  5
AF
330
1F
100
AcDbEntity
  8
0
  6
CONTINUOUS
 62
     7
100
AcDbLine
 10
75.1208000289
 20
39.0705220406
 30
0.0
 11
75.1208000289
 21
38.6079242912
 31
0.0
  0
ARC
  5
B0
330
1F
100
AcDbEntity
  8
0
  6
CONTINUOUS
 62
     7
100
AcDbCircle
 10
75.1601685067
 20
39.0705221367
 30
0.0
 40
0.0393700787401627
100
AcDbArc
 50
90.0
 51
180.0
  0
LINE
  5
B1
330
1F
100
AcDbEntity
  8
0
  6
CONTINUOUS
 62
     7
100
AcDbLine
 10
75.1601672541
 20
39.1098916125
 30
0.0
 11
75.3259150994
 21
39.1098916125
 31
0.0
  0
LINE
  5
B2
330
1F
100
AcDbEntity
  8
0
  6
CONTINUOUS
 62
     7
100
AcDbLine
 10
75.3259150994
 20
39.1098916125
 30
0.0
 11
75.3393050247
 21
38.9006840026
 31
0.0
  0
ARC
  5
B3
330
1F
100
AcDbEntity
  8
0
  6
CONTINUOUS
 62
     7
100
AcDbCircle
 10
75.3785955109
 20
38.9031993021
 30
0.0
 40
0.0393700787401585
100
AcDbArc
 50
183.6619355755
 51
270.0
  0
LINE
  5
B4
330
1F
100
AcDbEntity
  8
0
  6
CONTINUOUS
 62
     7
100
AcDbLine
 10
75.3785971575
 20
38.8638300283
 30
0.0
 11
75.9687394601
 21
38.8638300283
 31
0.0
  0
ARC
  5
B5
330
1F
100
AcDbEntity
  8
0
  6
CONTINUOUS
 62
     7
100
AcDbCircle
 10
75.9687402239
 20
38.8244591446
 30
0.0
 40
0.0393700787401576
100
AcDbArc
 50
65.1121079736
 51
90.0
  0
ARC
  5
B6
330
1F
100
AcDbEntity
  8
0
  6
CONTINUOUS
 62
     7
100
AcDbCircle
 10
76.0709688949
 20
39.0448138855
 30
0.0
 40
0.2035433070866139
100
AcDbArc
 50
245.1121079736
 51
72.3995332141
  0
ARC
  5
B7
330
1F
100
AcDbEntity
  8
0
  6
CONTINUOUS
 62
     7
100
AcDbCircle
 10
76.1444204752
 20
39.2763560595
 30
0.0
 40
0.0393700787401636
100
AcDbArc
 50
180.0
 51
252.3995332141
  0
LINE
  5
B8
330
1F
100
AcDbEntity
  8
0
  6
CONTINUOUS
 62
     7
100
AcDbLine
 10
76.1050510588
 20
39.3560329824
 30
0.0
 11
76.1050510588
 21
39.2763551828
 31
0.0
  0
LINE
  5
B9
330
1F
100
AcDbEntity
  8
0
  6
CONTINUOUS
 62
     7
100
AcDbLine
 10
81.5381176822
 20
39.3560329824
 30
0.0
 11
76.1050510588
 21
39.3560329824
 31
0.0
  0
ARC
  5
BA
330
1F
100
AcDbEntity
  8
0
  6
CONTINUOUS
 62
     7
100
AcDbCircle
 10
81.5381212626
 20
38.8835930029
 30
0.0
 40
0.4724409448818889
100
AcDbArc
 50
360.0
 51
90.0
  0
LINE
  5
BB
330
1F
100
AcDbEntity
  8
0
  6
CONTINUOUS
 62
     7
100
AcDbLine
 10
82.0105619311
 20
33.5155099459
 30
0.0
 11
82.0105619311
 21
38.8835934267
 31
0.0
  0
ARC
  5
BC
330
1F
100
AcDbEntity
  8
0
  6
CONTINUOUS
 62
     7
100
AcDbCircle
 10
82.4830031524
 20
33.5155090134
 30
0.0
 40
0.4724409448819102
100
AcDbArc
 50
180.0
 51
270.0
  0
LINE
  5
BD
330
1F
100
AcDbEntity
  8
0
  6
CONTINUOUS
 62
     7
100
AcDbLine
 10
83.5066291284
 20
33.0430680436
 30
0.0
 11
82.4830061801
 21
33.0430680436
 31
0.0
  0
ARC
  5
BE
330
1F
100
AcDbEntity
  8
0
  6
CONTINUOUS
 62
     7
100
AcDbCircle
 10
83.5066251996
 20
33.5155090134
 30
0.0
 40
0.4724409448819102
100
AcDbArc
 50
270.0
 51
0.0
  0
LINE
  5
BF
330
1F
100
AcDbEntity
  8
0
  6
CONTINUOUS
 62
     7
100
AcDbLine
 10
83.9790639908
 20
38.8835934267
 30
0.0
 11
83.9790639908
 21
33.5155099459
 31
0.0
  0
ARC
  5
C0
330
1F
100
AcDbEntity
  8
0
  6
CONTINUOUS
 62
     7
100
AcDbCircle
 10
84.4515070894
 20
38.8835930029
 30
0.0
 40
0.4724409448818889
100
AcDbArc
 50
90.0
 51
180.0
  0
LINE
  5
C1
330
1F
100
AcDbEntity
  8
0
  6
CONTINUOUS
 62
     7
100
AcDbLine
 10
89.8845795565
 20
39.3560329824
 30
0.0
 11
84.4515082398
 21
39.3560329824
 31
0.0
  0
LINE
  5
C2
330
1F
100
AcDbEntity
  8
0
  6
CONTINUOUS
 62
     7
100
AcDbLine
 10
89.8845795565
 20
39.2763551828
 30
0.0
 11
89.8845795565
 21
39.3560329824
 31
0.0
  0
ARC
  5
C3
330
1F
100
AcDbEntity
  8
0
  6
CONTINUOUS
 62
     7
100
AcDbCircle
 10
89.8452078768
 20
39.2763560595
 30
0.0
 40
0.0393700787401526
100
AcDbArc
 50
287.6004667858
 51
0.0
  0
ARC
  5
C4
330
1F
100
AcDbEntity
  8
0
  6
CONTINUOUS
 62
     7
100
AcDbCircle
 10
89.9186594571
 20
39.0448138855
 30
0.0
 40
0.2035433070866241
100
AcDbArc
 50
107.6004667859
 51
294.8878920264
  0
ARC
  5
C5
330
1F
100
AcDbEntity
  8
0
  6
CONTINUOUS
 62
     7
100
AcDbCircle
 10
90.0208881281
 20
38.8244591446
 30
0.0
 40
0.0393700787401696
100
AcDbArc
 50
90.0
 51
114.8878920264
  0
LINE
  5
C6
330
1F
100
AcDbEntity
  8
0
  6
CONTINUOUS
 62
     7
100
AcDbLine
 10
90.0208911551
 20
38.8638300283
 30
0.0
 11
90.6110334577
 21
38.8638300283
 31
0.0
  0
ARC
  5
C7
330
1F
100
AcDbEntity
  8
0
  6
CONTINUOUS
 62
     7
100
AcDbCircle
 10
90.611032841
 20
38.9031993021
 30
0.0
 40
0.0393700787401585
100
AcDbArc
 50
270.0
 51
356.3380644245
  0
LINE
  5
C8
330
1F
100
AcDbEntity
  8
0
  6
CONTINUOUS
 62
     7
100
AcDbLine
 10
90.6503255905
 20
38.9006840026
 30
0.0
 11
90.6637108225
 21
39.1098916125
 31
0.0
  0
LINE
  5
C9
330
1F
100
AcDbEntity
  8
0
  6
CONTINUOUS
 62
     7
100
AcDbLine
 10
90.6637108225
 20
39.1098916125
 30
0.0
 11
90.8294586678
 21
39.1098916125
 31
0.0
  0
ARC
  5
CA
330
1F
100
AcDbEntity
  8
0
  6
CONTINUOUS
 62
     7
100
AcDbCircle
 10
90.8294598453
 20
39.0705221367
 30
0.0
 40
0.039370078740177
100
AcDbArc
 50
0.0
 51
90.0
  0
LINE
  5
CB
330
1F
100
AcDbEntity
  8
0
  6
CONTINUOUS
 62
     7
100
AcDbLine
 10
90.868825893
 20
38.6079242912
 30
0.0
 11
90.868825893
 21
39.0705220406
 31
0.0
  0
ARC
  5
CC
330
1F
100
AcDbEntity
  8
0
  6
CONTINUOUS
 62
     7
100
AcDbCircle
 10
75.3570189004
 20
1.9320181997
 30
0.0
 40
0.236220472440948
100
AcDbArc
 50
90.0
 51
180.0
  0
LINE
  5
CD
330
1F
100
AcDbEntity
  8
0
  6
CONTINUOUS
 62
     7
100
AcDbLine
 10
80.7881222929
 20
2.1682386856
 30
0.0
 11
75.3570174601
 21
2.1682386856
 31
0.0
  0
ARC
  5
CE
330
1F
100
AcDbEntity
  8
0
  6
CONTINUOUS
 62
     7
100
AcDbCircle
 10
80.7881212626
 20
2.640679617
 30
0.0
 40
0.4724409448818814
100
AcDbArc
 50
270.0
 51
0.0
  0
LINE
  5
CF
330
1F
100
AcDbEntity
  8
0
  6
CONTINUOUS
 62
     7
100
AcDbLine
 10
81.2605665418
 20
7.4968739821
 30
0.0
 11
81.2605665418
 21
2.6406797079
 31
0.0
  0
ARC
  5
D0
330
1F
100
AcDbEntity
  8
0
  6
CONTINUOUS
 62
     7
100
AcDbCircle
 10
82.0105622075
 20
7.4968738428
 30
0.0
 40
0.75
100
AcDbArc
 50
120.0
 51
180.0
  0
ARC
  5
D1
330
1F
100
AcDbEntity
  8
0
  6
CONTINUOUS
 62
     7
100
AcDbCircle
 10
81.2605622075
 20
8.7959119484
 30
0.0
 40
0.75
100
AcDbArc
 50
300.0
 51
0.0
  0
LINE
  5
D2
330
1F
100
AcDbEntity
  8
0
  6
CONTINUOUS
 62
     7
100
AcDbLine
 10
82.0105619311
 20
12.0383607184
 30
0.0
 11
82.0105619311
 21
8.7959120421
 31
0.0
  0
ARC
  5
D3
330
1F
100
AcDbEntity
  8
0
  6
CONTINUOUS
 62
     7
100
AcDbCircle
 10
81.2605622075
 20
12.0383606715
 30
0.0
 40
0.75
100
AcDbArc
 50
0.0
 51
60.0
  0
ARC
  5
D4
330
1F
100
AcDbEntity
  8
0
  6
CONTINUOUS
 62
     7
100
AcDbCircle
 10
82.0105622075
 20
13.3373987771
 30
0.0
 40
0.75
100
AcDbArc
 50
180.0
 51
240.0
  0
LINE
  5
D5
330
1F
100
AcDbEntity
  8
0
  6
CONTINUOUS
 62
     7
100
AcDbLine
 10
81.2605665418
 20
18.1935927593
 30
0.0
 11
81.2605665418
 21
13.3373981918
 31
0.0
  0
ARC
  5
D6
330
1F
100
AcDbEntity
  8
0
  6
CONTINUOUS
 62
     7
100
AcDbCircle
 10
80.7881212626
 20
18.1935930029
 30
0.0
 40
0.4724409448818889
100
AcDbArc
 50
0.0
 51
90.0
  0
LINE
  5
D7
330
1F
100
AcDbEntity
  8
0
  6
CONTINUOUS
 62
     7
100
AcDbLine
 10
75.3570174601
 20
18.6660334883
 30
0.0
 11
80.7881222929
 21
18.6660334883
 31
0.0
  0
ARC
  5
D8
330
1F
100
AcDbEntity
  8
0
  6
CONTINUOUS
 62
     7
100
AcDbCircle
 10
75.3570189004
 20
18.9022544202
 30
0.0
 40
0.236220472440948
100
AcDbArc
 50
180.0
 51
270.0
  0
LINE
  5
D9
330
1F
100
AcDbEntity
  8
0
  6
CONTINUOUS
 62
     7
100
AcDbLine
 10
75.1208000289
 20
19.3648533622
 30
0.0
 11
75.1208000289
 21
18.9022544395
 31
0.0
  0
ARC
  5
DA
330
1F
100
AcDbEntity
  8
0
  6
CONTINUOUS
 62
     7
100
AcDbCircle
 10
75.1601685067
 20
19.3648528454
 30
0.0
 40
0.0393700787401592
100
AcDbArc
 50
90.0
 51
180.0
  0
LINE
  5
DB
330
1F
100
AcDbEntity
  8
0
  6
CONTINUOUS
 62
     7
100
AcDbLine
 10
75.1601672541
 20
19.404222934
 30
0.0
 11
75.3259150994
 21
19.404222934
 31
0.0
  0
LINE
  5
DC
330
1F
100
AcDbEntity
  8
0
  6
CONTINUOUS
 62
     7
100
AcDbLine
 10
75.3259150994
 20
19.404222934
 30
0.0
 11
75.3393050247
 21
19.1950153241
 31
0.0
  0
ARC
  5
DD
330
1F
100
AcDbEntity
  8
0
  6
CONTINUOUS
 62
     7
100
AcDbCircle
 10
75.3785955109
 20
19.1975300107
 30
0.0
 40
0.0393700787401588
100
AcDbArc
 50
183.6619355755
 51
270.0
  0
LINE
  5
DE
330
1F
100
AcDbEntity
  8
0
  6
CONTINUOUS
 62
     7
100
AcDbLine
 10
75.3785971575
 20
19.1581601766
 30
0.0
 11
75.9687394601
 21
19.1581601766
 31
0.0
  0
ARC
  5
DF
330
1F
100
AcDbEntity
  8
0
  6
CONTINUOUS
 62
     7
100
AcDbCircle
 10
75.9687402239
 20
19.1187898533
 30
0.0
 40
0.0393700787401592
100
AcDbArc
 50
65.1121079736
 51
90.0
  0
ARC
  5
E0
330
1F
100
AcDbEntity
  8
0
  6
CONTINUOUS
 62
     7
100
AcDbCircle
 10
76.0709688949
 20
19.3391445942
 30
0.0
 40
0.2035433070866204
100
AcDbArc
 50
245.1121079736
 51
72.3995332141
  0
ARC
  5
E1
330
1F
100
AcDbEntity
  8
0
  6
CONTINUOUS
 62
     7
100
AcDbCircle
 10
76.1444204752
 20
19.5706867682
 30
0.0
 40
0.0393700787401627
100
AcDbArc
 50
180.0
 51
252.3995332141
  0
LINE
  5
E2
330
1F
100
AcDbEntity
  8
0
  6
CONTINUOUS
 62
     7
100
AcDbLine
 10
76.1050510588
 20
19.6503643039
 30
0.0
 11
76.1050510588
 21
19.5706865044
 31
0.0
  0
LINE
  5
E3
330
1F
100
AcDbEntity
  8
0
  6
CONTINUOUS
 62
     7
100
AcDbLine
 10
81.5381176822
 20
19.6503643039
 30
0.0
 11
76.1050510588
 21
19.6503643039
 31
0.0
  0
ARC
  5
E4
330
1F
100
AcDbEntity
  8
0
  6
CONTINUOUS
 62
     7
100
AcDbCircle
 10
81.5381212626
 20
19.1779237115
 30
0.0
 40
0.4724409448818925
100
AcDbArc
 50
0.0
 51
90.0
  0
LINE
  5
E5
330
1F
100
AcDbEntity
  8
0
  6
CONTINUOUS
 62
     7
100
AcDbLine
 10
82.0105619311
 20
13.8098400942
 30
0.0
 11
82.0105619311
 21
19.1779235749
 31
0.0
  0
ARC
  5
E6
330
1F
100
AcDbEntity
  8
0
  6
CONTINUOUS
 62
     7
100
AcDbCircle
 10
82.4830031524
 20
13.809839722
 30
0.0
 40
0.4724409448819102
100
AcDbArc
 50
180.0
 51
270.0
  0
LINE
  5
E7
330
1F
100
AcDbEntity
  8
0
  6
CONTINUOUS
 62
     7
100
AcDbLine
 10
83.5066291284
 20
13.3373981918
 30
0.0
 11
82.4830061801
 21
13.3373981918
 31
0.0
  0
ARC
  5
E8
330
1F
100
AcDbEntity
  8
0
  6
CONTINUOUS
 62
     7
100
AcDbCircle
 10
83.5066251996
 20
13.809839722
 30
0.0
 40
0.4724409448818907
100
AcDbArc
 50
270.0
 51
0.0
  0
LINE
  5
E9
330
1F
100
AcDbEntity
  8
0
  6
CONTINUOUS
 62
     7
100
AcDbLine
 10
83.9790639908
 20
19.1779235749
 30
0.0
 11
83.9790639908
 21
13.8098400942
 31
0.0
  0
ARC
  5
EA
330
1F
100
AcDbEntity
  8
0
  6
CONTINUOUS
 62
     7
100
AcDbCircle
 10
84.4515070894
 20
19.1779237115
 30
0.0
 40
0.4724409448819102
100
AcDbArc
 50
90.0
 51
180.0
  0
LINE
  5
EB
330
1F
100
AcDbEntity
  8
0
  6
CONTINUOUS
 62
     7
100
AcDbLine
 10
89.8845795565
 20
19.6503643039
 30
0.0
 11
84.4515082398
 21
19.6503643039
 31
0.0
  0
LINE
  5
EC
330
1F
100
AcDbEntity
  8
0
  6
CONTINUOUS
 62
     7
100
AcDbLine
 10
89.8845795565
 20
19.5706865044
 30
0.0
 11
89.8845795565
 21
19.6503643039
 31
0.0
  0
ARC
  5
ED
330
1F
100
AcDbEntity
  8
0
  6
CONTINUOUS
 62
     7
100
AcDbCircle
 10
89.8452078768
 20
19.5706867682
 30
0.0
 40
0.0393700787401526
100
AcDbArc
 50
287.6004667858
 51
0.0
  0
ARC
  5
EE
330
1F
100
AcDbEntity
  8
0
  6
CONTINUOUS
 62
     7
100
AcDbCircle
 10
89.9186594571
 20
19.3391445942
 30
0.0
 40
0.2035433070866144
100
AcDbArc
 50
107.6004667859
 51
294.8878920264
  0
ARC
  5
EF
330
1F
100
AcDbEntity
  8
0
  6
CONTINUOUS
 62
     7
100
AcDbCircle
 10
90.0208881281
 20
19.1187898533
 30
0.0
 40
0.0393700787401592
100
AcDbArc
 50
90.0
 51
114.8878920264
  0
LINE
  5
F0
330
1F
100
AcDbEntity
  8
0
  6
CONTINUOUS
 62
     7
100
AcDbLine
 10
90.0208911551
 20
19.1581601766
 30
0.0
 11
90.6110334577
 21
19.1581601766
 31
0.0
  0
ARC
  5
F1
330
1F
100
AcDbEntity
  8
0
  6
CONTINUOUS
 62
     7
100
AcDbCircle
 10
90.611032841
 20
19.1975300107
 30
0.0
 40
0.0393700787401592
100
AcDbArc
 50
270.0
 51
356.3380644245
  0
LINE
  5
F2
330
1F
100
AcDbEntity
  8
0
  6
CONTINUOUS
 62
     7
100
AcDbLine
 10
90.6503255905
 20
19.1950153241
 30
0.0
 11
90.6637108225
 21
19.404222934
 31
0.0
  0
LINE
  5
F3
330
1F
100
AcDbEntity
  8
0
  6
CONTINUOUS
 62
     7
100
AcDbLine
 10
90.6637108225
 20
19.404222934
 30
0.0
 11
90.8294586678
 21
19.404222934
 31
0.0
  0
ARC
  5
F4
330
1F
100
AcDbEntity
  8
0
  6
CONTINUOUS
 62
     7
100
AcDbCircle
 10
90.8294598453
 20
19.3648528454
 30
0.0
 40
0.039370078740177
100
AcDbArc
 50
0.0
 51
90.0
  0
LINE
  5
F5
330
1F
100
AcDbEntity
  8
0
  6
CONTINUOUS
 62
     7
100
AcDbLine
 10
90.868825893
 20
18.9022544395
 30
0.0
 11
90.868825893
 21
19.3648533622
 31
0.0
  0
ARC
  5
F6
330
1F
100
AcDbEntity
  8
0
  6
CONTINUOUS
 62
     7
100
AcDbCircle
 10
90.6326094516
 20
18.9022544202
 30
0.0
 40
0.236220472440948
100
AcDbArc
 50
270.0
 51
0.0
  0
LINE
  5
F7
330
1F
100
AcDbEntity
  8
0
  6
CONTINUOUS
 62
     7
100
AcDbLine
 10
85.2015036291
 20
18.6660334883
 30
0.0
 11
90.6326131551
 21
18.6660334883
 31
0.0
  0
ARC
  5
F8
330
1F
100
AcDbEntity
  8
0
  6
CONTINUOUS
 62
     7
100
AcDbCircle
 10
85.2015070894
 20
18.1935930029
 30
0.0
 40
0.4724409448819102
100
AcDbArc
 50
90.0
 51
180.0
  0
LINE
  5
F9
330
1F
100
AcDbEntity
  8
0
  6
CONTINUOUS
 62
     7
100
AcDbLine
 10
84.7290687667
 20
13.3373981918
 30
0.0
 11
84.7290687667
 21
18.1935927593
 31
0.0
  0
ARC
  5
FA
330
1F
100
AcDbEntity
  8
0
  6
CONTINUOUS
 62
     7
100
AcDbCircle
 10
83.9790661445
 20
13.3373987771
 30
0.0
 40
0.75
100
AcDbArc
 50
300.0
 51
0.0
  0
ARC
  5
FB
330
1F
100
AcDbEntity
  8
0
  6
CONTINUOUS
 62
     7
100
AcDbCircle
 10
84.7290661445
 20
12.0383606715
 30
0.0
 40
0.75
100
AcDbArc
 50
120.0
 51
180.0
  0
LINE
  5
FC
330
1F
100
AcDbEntity
  8
0
  6
CONTINUOUS
 62
     7
100
AcDbLine
 10
83.9790639908
 20
8.7959120421
 30
0.0
 11
83.9790639908
 21
12.0383607184
 31
0.0
  0
ARC
  5
FD
330
1F
100
AcDbEntity
  8
0
  6
CONTINUOUS
 62
     7
100
AcDbCircle
 10
84.7290661445
 20
8.7959119484
 30
0.0
 40
0.75
100
AcDbArc
 50
180.0
 51
240.0
  0
ARC
  5
FE
330
1F
100
AcDbEntity
  8
0
  6
CONTINUOUS
 62
     7
100
AcDbCircle
 10
83.9790661445
 20
7.4968738428
 30
0.0
 40
0.7499999999999954
100
AcDbArc
 50
0.0
 51
60.0
  0
LINE
  5
FF
330
1F
100
AcDbEntity
  8
0
  6
CONTINUOUS
 62
     7
100
AcDbLine
 10
84.7290687667
 20
2.6406797079
 30
0.0
 11
84.7290687667
 21
7.4968739821
 31
0.0
  0
ARC
  5
100
330
1F
100
AcDbEntity
  8
0
  6
CONTINUOUS
 62
     7
100
AcDbCircle
 10
85.2015070894
 20
2.640679617
 30
0.0
 40
0.4724409448819102
100
AcDbArc
 50
180.0
 51
270.0
  0
LINE
  5
101
330
1F
100
AcDbEntity
  8
0
  6
CONTINUOUS
 62
     7
100
AcDbLine
 10
90.6326131551
 20
2.1682386856
 30
0.0
 11
85.2015036291
 21
2.1682386856
 31
0.0
  0
ARC
  5
102
330
1F
100
AcDbEntity
  8
0
  6
CONTINUOUS
 62
     7
100
AcDbCircle
 10
90.6326094516
 20
1.9320181997
 30
0.0
 40
0.236220472440948
100
AcDbArc
 50
0.0
 51
90.0
  0
LINE
  5
103
330
1F
100
AcDbEntity
  8
0
  6
CONTINUOUS
 62
     7
100
AcDbLine
 10
90.868825893
 20
1.4694198384
 30
0.0
 11
90.868825893
 21
1.9320181744
 31
0.0
  0
ARC
  5
104
330
1F
100
AcDbEntity
  8
0
  6
CONTINUOUS
 62
     7
100
AcDbCircle
 10
90.8294598453
 20
1.4694197745
 30
0.0
 40
0.039370078740177
100
AcDbArc
 50
270.0
 51
0.0
  0
LINE
  5
105
330
1F
100
AcDbEntity
  8
0
  6
CONTINUOUS
 62
     7
100
AcDbLine
 10
90.8294586678
 20
1.4300496799
 30
0.0
 11
90.6637108225
 21
1.4300496799
 31
0.0
  0
LINE
  5
106
330
1F
100
AcDbEntity
  8
0
  6
CONTINUOUS
 62
     7
100
AcDbLine
 10
90.6637108225
 20
1.4300496799
 30
0.0
 11
90.6503255905
 21
1.6392571431
 31
0.0
  0
ARC
  5
107
330
1F
100
AcDbEntity
  8
0
  6
CONTINUOUS
 62
     7
100
AcDbCircle
 10
90.611032841
 20
1.6367426092
 30
0.0
 40
0.039370078740159
100
AcDbArc
 50
3.6619355755
 51
90.0
  0
LINE
  5
108
330
1F
100
AcDbEntity
  8
0
  6
CONTINUOUS
 62
     7
100
AcDbLine
 10
90.6110334577
 20
1.6761127307
 30
0.0
 11
90.0208911551
 21
1.6761127307
 31
0.0
  0
ARC
  5
109
330
1F
100
AcDbEntity
  8
0
  6
CONTINUOUS
 62
     7
100
AcDbCircle
 10
90.0208881281
 20
1.7154827666
 30
0.0
 40
0.0393700787401576
100
AcDbArc
 50
245.1121079736
 51
270.0
  0
ARC
  5
10A
330
1F
100
AcDbEntity
  8
0
  6
CONTINUOUS
 62
     7
100
AcDbCircle
 10
89.9186594571
 20
1.4951280257
 30
0.0
 40
0.2035433070866144
100
AcDbArc
 50
65.1121079736
 51
252.3995332141
  0
ARC
  5
10B
330
1F
100
AcDbEntity
  8
0
  6
CONTINUOUS
 62
     7
100
AcDbCircle
 10
89.8452078768
 20
1.2635858517
 30
0.0
 40
0.0393700787401519
100
AcDbArc
 50
0.0
 51
72.3995332142
  0
LINE
  5
10C
330
1F
100
AcDbEntity
  8
0
  6
CONTINUOUS
 62
     7
100
AcDbLine
 10
89.8845795565
 20
1.1839079433
 30
0.0
 11
89.8845795565
 21
1.2635858162
 31
0.0
  0
LINE
  5
10D
330
1F
100
AcDbEntity
  8
0
  6
CONTINUOUS
 62
     7
100
AcDbLine
 10
84.4515082398
 20
1.1839079433
 30
0.0
 11
89.8845795565
 21
1.1839079433
 31
0.0
  0
ARC
  5
10E
330
1F
100
AcDbEntity
  8
0
  6
CONTINUOUS
 62
     7
100
AcDbCircle
 10
84.4515070894
 20
1.6563489084
 30
0.0
 40
0.47244094488189
100
AcDbArc
 50
180.0
 51
270.0
  0
LINE
  5
10F
330
1F
100
AcDbEntity
  8
0
  6
CONTINUOUS
 62
     7
100
AcDbLine
 10
83.9790639908
 20
7.0244326664
 30
0.0
 11
83.9790639908
 21
1.6563488923
 31
0.0
  0
ARC
  5
110
330
1F
100
AcDbEntity
  8
0
  6
CONTINUOUS
 62
     7
100
AcDbCircle
 10
83.5066251996
 20
7.0244328979
 30
0.0
 40
0.4724409448818907
100
AcDbArc
 50
0.0
 51
90.0
  0
LINE
  5
111
330
1F
100
AcDbEntity
  8
0
  6
CONTINUOUS
 62
     7
100
AcDbLine
 10
82.4830061801
 20
7.4968739821
 30
0.0
 11
83.5066291284
 21
7.4968739821
 31
0.0
  0
ARC
  5
112
330
1F
100
AcDbEntity
  8
0
  6
CONTINUOUS
 62
     7
100
AcDbCircle
 10
82.4830031524
 20
7.0244328979
 30
0.0
 40
0.4724409448819102
100
AcDbArc
 50
90.0
 51
180.0
  0
LINE
  5
113
330
1F
100
AcDbEntity
  8
0
  6
CONTINUOUS
 62
     7
100
AcDbLine
 10
82.0105619311
 20
1.6563488923
 30
0.0
 11
82.0105619311
 21
7.0244326664
 31
0.0
  0
ARC
  5
114
330
1F
100
AcDbEntity
  8
0
  6
CONTINUOUS
 62
     7
100
AcDbCircle
 10
81.5381212626
 20
1.6563489084
 30
0.0
 40
0.4724409448818858
100
AcDbArc
 50
270.0
 51
0.0
  0
LINE
  5
115
330
1F
100
AcDbEntity
  8
0
  6
CONTINUOUS
 62
     7
100
AcDbLine
 10
76.1050510588
 20
1.1839079433
 30
0.0
 11
81.5381176822
 21
1.1839079433
 31
0.0
  0
LINE
  5
116
330
1F
100
AcDbEntity
  8
0
  6
CONTINUOUS
 62
     7
100
AcDbLine
 10
76.1050510588
 20
1.2635858162
 30
0.0
 11
76.1050510588
 21
1.1839079433
 31
0.0
  0
ARC
  5
117
330
1F
100
AcDbEntity
  8
0
  6
CONTINUOUS
 62
     7
100
AcDbCircle
 10
76.1444204752
 20
1.2635858517
 30
0.0
 40
0.0393700787401562
100
AcDbArc
 50
107.6004667859
 51
180.0
  0
ARC
  5
118
330
1F
100
AcDbEntity
  8
0
  6
CONTINUOUS
 62
     7
100
AcDbCircle
 10
76.0709688949
 20
1.4951280257
 30
0.0
 40
0.2035433070866159
100
AcDbArc
 50
287.6004667859
 51
114.8878920264
  0
ARC
  5
119
330
1F
100
AcDbEntity
  8
0
  6
CONTINUOUS
 62
     7
100
AcDbCircle
 10
75.9687402239
 20
1.7154827666
 30
0.0
 40
0.0393700787401572
100
AcDbArc
 50
270.0
 51
294.8878920264
  0
LINE
  5
11A
330
1F
100
AcDbEntity
  8
0
  6
CONTINUOUS
 62
     7
100
AcDbLine
 10
75.9687394601
 20
1.6761127307
 30
0.0
 11
75.3785971575
 21
1.6761127307
 31
0.0
  0
ARC
  5
11B
330
1F
100
AcDbEntity
  8
0
  6
CONTINUOUS
 62
     7
100
AcDbCircle
 10
75.3785955109
 20
1.6367426092
 30
0.0
 40
0.039370078740159
100
AcDbArc
 50
90.0
 51
176.3380644245
  0
LINE
  5
11C
330
1F
100
AcDbEntity
  8
0
  6
CONTINUOUS
 62
     7
100
AcDbLine
 10
75.3393050247
 20
1.6392571431
 30
0.0
 11
75.3259150994
 21
1.4300496799
 31
0.0
  0
LINE
  5
11D
330
1F
100
AcDbEntity
  8
0
  6
CONTINUOUS
 62
     7
100
AcDbLine
 10
75.3259150994
 20
1.4300496799
 30
0.0
 11
75.1601672541
 21
1.4300496799
 31
0.0
  0
ARC
  5
11E
330
1F
100
AcDbEntity
  8
0
  6
CONTINUOUS
 62
     7
100
AcDbCircle
 10
75.1601685067
 20
1.4694197745
 30
0.0
 40
0.0393700787401627
100
AcDbArc
 50
180.0
 51
270.0
  0
LINE
  5
11F
330
1F
100
AcDbEntity
  8
0
  6
CONTINUOUS
 62
     7
100
AcDbLine
 10
75.1208000289
 20
1.9320181744
 30
0.0
 11
75.1208000289
 21
1.4694198384
 31
0.0
  0
LINE
  5
120
330
1F
100
AcDbEntity
  8
0
  6
CONTINUOUS
 62
     7
100
AcDbLine
 10
73.8814270396
 20
22.4646163801
 30
0.0
 11
73.8814270396
 21
24.0394203745
 31
0.0
  0
LINE
  5
121
330
1F
100
AcDbEntity
  8
0
  6
CONTINUOUS
 62
     7
100
AcDbLine
 10
59.3518984593
 20
22.4646163801
 30
0.0
 11
73.8814270396
 21
22.4646163801
 31
0.0
  0
LINE
  5
122
330
1F
100
AcDbEntity
  8
0
  6
CONTINUOUS
 62
     7
100
AcDbLine
 10
59.3518984593
 20
24.0394203745
 30
0.0
 11
59.3518984593
 21
22.4646163801
 31
0.0
  0
LINE
  5
123
330
1F
100
AcDbEntity
  8
0
  6
CONTINUOUS
 62
     7
100
AcDbLine
 10
59.3518984593
 20
24.0394203745
 30
0.0
 11
73.8814270396
 21
24.0394203745
 31
0.0
  0
LINE
  5
124
330
1F
100
AcDbEntity
  8
0
  6
CONTINUOUS
 62
     7
100
AcDbLine
 10
73.8814270396
 20
42.5059554208
 30
0.0
 11
59.3518984593
 21
42.5059554208
 31
0.0
  0
LINE
  5
125
330
1F
100
AcDbEntity
  8
0
  6
CONTINUOUS
 62
     7
100
AcDbLine
 10
73.8814270396
 20
24.7961130731
 30
0.0
 11
59.3518984593
 21
24.7961130731
 31
0.0
  0
LINE
  5
126
330
1F
100
AcDbEntity
  8
0
  6
CONTINUOUS
 62
     7
100
AcDbLine
 10
59.3518984593
 20
42.5059554208
 30
0.0
 11
59.3518984593
 21
24.7961130731
 31
0.0
  0
LINE
  5
127
330
1F
100
AcDbEntity
  8
0
  6
CONTINUOUS
 62
     7
100
AcDbLine
 10
73.8814270396
 20
24.7961130731
 30
0.0
 11
73.8814270396
 21
42.5059554208
 31
0.0
  0
LINE
  5
128
330
1F
100
AcDbEntity
  8
0
  6
CONTINUOUS
 62
     7
100
AcDbLine
 10
59.3518984593
 20
24.0394203745
 30
0.0
 11
59.3518984593
 21
24.7961130731
 31
0.0
  0
LINE
  5
129
330
1F
100
AcDbEntity
  8
0
  6
CONTINUOUS
 62
     7
100
AcDbLine
 10
73.8814270396
 20
24.7961130731
 30
0.0
 11
73.8814270396
 21
24.0394203745
 31
0.0
  0
LINE
  5
12A
330
1F
100
AcDbEntity
  8
0
  6
CONTINUOUS
 62
     7
100
AcDbLine
 10
59.3518984593
 20
2.7587109844
 30
0.0
 11
59.3518984593
 21
1.1839079433
 31
0.0
  0
LINE
  5
12B
330
1F
100
AcDbEntity
  8
0
  6
CONTINUOUS
 62
     7
100
AcDbLine
 10
73.8814270396
 20
2.7587109844
 30
0.0
 11
59.3518984593
 21
2.7587109844
 31
0.0
  0
LINE
  5
12C
330
1F
100
AcDbEntity
  8
0
  6
CONTINUOUS
 62
     7
100
AcDbLine
 10
73.8814270396
 20
1.1839079433
 30
0.0
 11
73.8814270396
 21
2.7587109844
 31
0.0
  0
LINE
  5
12D
330
1F
100
AcDbEntity
  8
0
  6
CONTINUOUS
 62
     7
100
AcDbLine
 10
59.3518984593
 20
1.1839079433
 30
0.0
 11
73.8814270396
 21
1.1839079433
 31
0.0
  0
LINE
  5
12E
330
1F
100
AcDbEntity
  8
0
  6
CONTINUOUS
 62
     7
100
AcDbLine
 10
73.8814270396
 20
21.2252457374
 30
0.0
 11
59.3518984593
 21
21.2252457374
 31
0.0
  0
LINE
  5
12F
330
1F
100
AcDbEntity
  8
0
  6
CONTINUOUS
 62
     7
100
AcDbLine
 10
59.3518984593
 20
3.5154039764
 30
0.0
 11
73.8814270396
 21
3.5154039764
 31
0.0
  0
LINE
  5
130
330
1F
100
AcDbEntity
  8
0
  6
CONTINUOUS
 62
     7
100
AcDbLine
 10
59.3518984593
 20
21.2252457374
 30
0.0
 11
59.3518984593
 21
3.5154039764
 31
0.0
  0
LINE
  5
131
330
1F
100
AcDbEntity
  8
0
  6
CONTINUOUS
 62
     7
100
AcDbLine
 10
73.8814270396
 20
3.5154039764
 30
0.0
 11
73.8814270396
 21
21.2252457374
 31
0.0
  0
LINE
  5
132
330
1F
100
AcDbEntity
  8
0
  6
CONTINUOUS
 62
     7
100
AcDbLine
 10
59.3518984593
 20
2.7587109844
 30
0.0
 11
59.3518984593
 21
3.5154039764
 31
0.0
  0
LINE
  5
133
330
1F
100
AcDbEntity
  8
0
  6
CONTINUOUS
 62
     7
100
AcDbLine
 10
73.8814270396
 20
3.5154039764
 30
0.0
 11
73.8814270396
 21
2.7587109844
 31
0.0
  0
ARC
  5
134
330
1F
100
AcDbEntity
  8
0
  6
CONTINUOUS
 62
     7
100
AcDbCircle
 10
23.95877519
 20
2.4970704181
 30
0.0
 40
0.2035432595361063
100
AcDbArc
 50
176.0551812207
 51
204.8878234094
  0
ARC
  5
135
330
1F
100
AcDbEntity
  8
0
  6
CONTINUOUS
 62
     7
100
AcDbCircle
 10
23.7384204752
 20
2.3948420799
 30
0.0
 40
0.0393700101665928
100
AcDbArc
 50
0.0
 51
24.8878234094
  0
LINE
  5
136
330
1F
100
AcDbEntity
  8
0
  6
CONTINUOUS
 62
     7
100
AcDbLine
 10
23.7777908011
 20
1.9040761506
 30
0.0
 11
23.7777908011
 21
2.3948420812
 31
0.0
  0
ARC
  5
137
330
1F
100
AcDbEntity
  8
0
  6
CONTINUOUS
 62
     7
100
AcDbCircle
 10
23.7384204752
 20
1.9040762093
 30
0.0
 40
0.0393700787401627
100
AcDbArc
 50
335.1121225719
 51
0.0
  0
ARC
  5
138
330
1F
100
AcDbEntity
  8
0
  6
CONTINUOUS
 62
     7
100
AcDbCircle
 10
23.9587752421
 20
1.8018475944
 30
0.0
 40
0.2035433070866169
100
AcDbArc
 50
155.1121225719
 51
342.3995461274
  0
ARC
  5
139
330
1F
100
AcDbEntity
  8
0
  6
CONTINUOUS
 62
     7
100
AcDbCircle
 10
24.1903174327
 20
1.7283960663
 30
0.0
 40
0.0393700787401568
100
AcDbArc
 50
90.0000619979
 51
162.3995461274
  0
LINE
  5
13A
330
1F
100
AcDbEntity
  8
0
  6
CONTINUOUS
 62
     7
100
AcDbLine
 10
24.3495166764
 20
1.7677663119
 30
0.0
 11
24.1903183022
 21
1.7677661652
 31
0.0
  0
ARC
  5
13B
330
1F
100
AcDbEntity
  8
0
  6
CONTINUOUS
 62
     7
100
AcDbCircle
 10
24.3495157288
 20
1.7283962386
 30
0.0
 40
0.0393700787401611
100
AcDbArc
 50
17.6004796991
 51
90.0000619979
  0
ARC
  5
13C
330
1F
100
AcDbEntity
  8
0
  6
CONTINUOUS
 62
     7
100
AcDbCircle
 10
24.5810578863
 20
1.8018478711
 30
0.0
 40
0.2035433070866124
100
AcDbArc
 50
197.6004796991
 51
24.8879066246
  0
ARC
  5
13D
330
1F
100
AcDbEntity
  8
0
  6
CONTINUOUS
 62
     7
100
AcDbCircle
 10
24.8014126012
 20
1.9040765982
 30
0.0
 40
0.0393700787401625
100
AcDbArc
 50
180.0
 51
204.8879066246
  0
LINE
  5
13E
330
1F
100
AcDbEntity
  8
0
  6
CONTINUOUS
 62
     7
100
AcDbLine
 10
24.7620418309
 20
2.3948416412
 30
0.0
 11
24.7620418309
 21
1.9040765905
 31
0.0
  0
ARC
  5
13F
330
1F
100
AcDbEntity
  8
0
  6
CONTINUOUS
 62
     7
100
AcDbCircle
 10
24.8014143636
 20
2.3948416909
 30
0.0
 40
0.0393718412080908
100
AcDbArc
 50
155.1122143058
 51
180.0
  0
ARC
  5
140
330
1F
100
AcDbEntity
  8
0
  6
CONTINUOUS
 62
     7
100
AcDbCircle
 10
24.5810578342
 20
2.4970706947
 30
0.0
 40
0.2035433070866163
100
AcDbArc
 50
335.1122143058
 51
3.9447398014
  0
LINE
  5
141
330
1F
100
AcDbEntity
  8
0
  6
CONTINUOUS
 62
     7
100
AcDbLine
 10
24.7841190159
 20
2.5110733385
 30
0.0
 11
40.2478166446
 21
2.5110733385
 31
0.0
  0
ARC
  5
142
330
1F
100
AcDbEntity
  8
0
  6
CONTINUOUS
 62
     7
100
AcDbCircle
 10
40.4508775522
 20
2.4970704181
 30
0.0
 40
0.2035432595361066
100
AcDbArc
 50
176.0551812207
 51
204.8878234094
  0
ARC
  5
143
330
1F
100
AcDbEntity
  8
0
  6
CONTINUOUS
 62
     7
100
AcDbCircle
 10
40.2305228374
 20
2.3948420799
 30
0.0
 40
0.0393700101665868
100
AcDbArc
 50
0.0
 51
24.8878234094
  0
LINE
  5
144
330
1F
100
AcDbEntity
  8
0
  6
CONTINUOUS
 62
     7
100
AcDbLine
 10
40.2698938296
 20
1.9040761506
 30
0.0
 11
40.2698938296
 21
2.3948420812
 31
0.0
  0
ARC
  5
145
330
1F
100
AcDbEntity
  8
0
  6
CONTINUOUS
 62
     7
100
AcDbCircle
 10
40.2305228374
 20
1.9040762093
 30
0.0
 40
0.0393700787401533
100
AcDbArc
 50
335.1121225718
 51
0.0
  0
ARC
  5
146
330
1F
100
AcDbEntity
  8
0
  6
CONTINUOUS
 62
     7
100
AcDbCircle
 10
40.4508776043
 20
1.8018475944
 30
0.0
 40
0.2035433070866183
100
AcDbArc
 50
155.1121225719
 51
342.3995461274
  0
ARC
  5
147
330
1F
100
AcDbEntity
  8
0
  6
CONTINUOUS
 62
     7
100
AcDbCircle
 10
40.6824197949
 20
1.7283960663
 30
0.0
 40
0.0393700787401587
100
AcDbArc
 50
90.0000619979
 51
162.3995461274
  0
LINE
  5
148
330
1F
100
AcDbEntity
  8
0
  6
CONTINUOUS
 62
     7
100
AcDbLine
 10
40.8416197049
 20
1.7677663119
 30
0.0
 11
40.682418984
 21
1.7677661652
 31
0.0
  0
ARC
  5
149
330
1F
100
AcDbEntity
  8
0
  6
CONTINUOUS
 62
     7
100
AcDbCircle
 10
40.841618091
 20
1.7283962386
 30
0.0
 40
0.0393700787401545
100
AcDbArc
 50
17.6004796991
 51
90.0000619979
  0
ARC
  5
14A
330
1F
100
AcDbEntity
  8
0
  6
CONTINUOUS
 62
     7
100
AcDbCircle
 10
41.0731602485
 20
1.8018478711
 30
0.0
 40
0.2035433070866182
100
AcDbArc
 50
197.6004796991
 51
24.8879066246
  0
ARC
  5
14B
330
1F
100
AcDbEntity
  8
0
  6
CONTINUOUS
 62
     7
100
AcDbCircle
 10
41.2935149634
 20
1.9040765982
 30
0.0
 40
0.0393700787401556
100
AcDbArc
 50
180.0
 51
204.8879066246
  0
LINE
  5
14C
330
1F
100
AcDbEntity
  8
0
  6
CONTINUOUS
 62
     7
100
AcDbLine
 10
41.2541448594
 20
2.3948416412
 30
0.0
 11
41.2541448594
 21
1.9040765905
 31
0.0
  0
ARC
  5
14D
330
1F
100
AcDbEntity
  8
0
  6
CONTINUOUS
 62
     7
100
AcDbCircle
 10
41.2935167258
 20
2.3948416909
 30
0.0
 40
0.0393718412080872
100
AcDbArc
 50
155.1122143058
 51
180.0
  0
ARC
  5
14E
330
1F
100
AcDbEntity
  8
0
  6
CONTINUOUS
 62
     7
100
AcDbCircle
 10
41.0731601964
 20
2.4970706947
 30
0.0
 40
0.2035433070866163
100
AcDbArc
 50
335.1122143058
 51
3.9447398014
  0
LINE
  5
14F
330
1F
100
AcDbEntity
  8
0
  6
CONTINUOUS
 62
     7
100
AcDbLine
 10
41.2762220444
 20
2.5110733385
 30
0.0
 11
42.3436332869
 21
2.5110733385
 31
0.0
  0
LINE
  5
150
330
1F
100
AcDbEntity
  8
0
  6
CONTINUOUS
 62
     7
100
AcDbLine
 10
42.3436332869
 20
1.4201283812
 30
0.0
 11
42.3436332869
 21
2.5110733385
 31
0.0
  0
ARC
  5
151
330
1F
100
AcDbEntity
  8
0
  6
CONTINUOUS
 62
     7
100
AcDbCircle
 10
42.1074126012
 20
1.4201284359
 30
0.0
 40
0.2362204724409451
100
AcDbArc
 50
270.0
 51
0.0
  0
LINE
  5
152
330
1F
100
AcDbEntity
  8
0
  6
CONTINUOUS
 62
     7
100
AcDbLine
 10
22.538514024
 20
1.1839079433
 30
0.0
 11
42.1074111624
 21
1.1839079433
 31
0.0
  0
ARC
  5
153
330
1F
100
AcDbEntity
  8
0
  6
CONTINUOUS
 62
     7
100
AcDbCircle
 10
22.5385149634
 20
1.4201284359
 30
0.0
 40
0.2362204724409451
100
AcDbArc
 50
180.0
 51
270.0
  0
LINE
  5
154
330
1F
100
AcDbEntity
  8
0
  6
CONTINUOUS
 62
     7
100
AcDbLine
 10
22.3022942461
 20
2.5110733385
 30
0.0
 11
22.3022942461
 21
1.4201283812
 31
0.0
  0
LINE
  5
155
330
1F
100
AcDbEntity
  8
0
  6
CONTINUOUS
 62
     7
100
AcDbLine
 10
22.3022942461
 20
2.5110733385
 30
0.0
 11
23.7557136161
 21
2.5110733385
 31
0.0
  0
ARC
  5
156
330
1F
100
AcDbEntity
  8
0
  6
CONTINUOUS
 62
     7
100
AcDbCircle
 10
41.0731602485
 20
18.2250762175
 30
0.0
 40
0.2035433070866213
100
AcDbArc
 50
356.0551821437
 51
24.8879066246
  0
ARC
  5
157
330
1F
100
AcDbEntity
  8
0
  6
CONTINUOUS
 62
     7
100
AcDbCircle
 10
41.2935149634
 20
18.3273049447
 30
0.0
 40
0.0393700787401556
100
AcDbArc
 50
180.0
 51
204.8879066246
  0
LINE
  5
158
330
1F
100
AcDbEntity
  8
0
  6
CONTINUOUS
 62
     7
100
AcDbLine
 10
41.2541448594
 20
18.8180699187
 30
0.0
 11
41.2541448594
 21
18.3273054547
 31
0.0
  0
ARC
  5
159
330
1F
100
AcDbEntity
  8
0
  6
CONTINUOUS
 62
     7
100
AcDbCircle
 10
41.2935167258
 20
18.8180700374
 30
0.0
 40
0.0393718412080872
100
AcDbArc
 50
155.1122143058
 51
180.0
  0
ARC
  5
15A
330
1F
100
AcDbEntity
  8
0
  6
CONTINUOUS
 62
     7
100
AcDbCircle
 10
41.0731601964
 20
18.9202990412
 30
0.0
 40
0.2035433070866174
100
AcDbArc
 50
335.1122143058
 51
162.3995461274
  0
ARC
  5
15B
330
1F
100
AcDbEntity
  8
0
  6
CONTINUOUS
 62
     7
100
AcDbCircle
 10
40.8416180058
 20
18.9937505693
 30
0.0
 40
0.0393700787401574
100
AcDbArc
 50
270.0000619979
 51
342.3995461274
  0
LINE
  5
15C
330
1F
100
AcDbEntity
  8
0
  6
CONTINUOUS
 62
     7
100
AcDbLine
 10
40.682418984
 20
18.954380344
 30
0.0
 11
40.8416197049
 21
18.954380344
 31
0.0
  0
ARC
  5
15D
330
1F
100
AcDbEntity
  8
0
  6
CONTINUOUS
 62
     7
100
AcDbCircle
 10
40.6824197097
 20
18.993750397
 30
0.0
 40
0.0393701262906684
100
AcDbArc
 50
197.6004796991
 51
270.0000619979
  0
ARC
  5
15E
330
1F
100
AcDbEntity
  8
0
  6
CONTINUOUS
 62
     7
100
AcDbCircle
 10
40.4508775522
 20
18.9202987646
 30
0.0
 40
0.2035432595361025
100
AcDbArc
 50
17.6004796991
 51
204.8878234094
  0
ARC
  5
15F
330
1F
100
AcDbEntity
  8
0
  6
CONTINUOUS
 62
     7
100
AcDbCircle
 10
40.2305228374
 20
18.8180704263
 30
0.0
 40
0.0393700101665796
100
AcDbArc
 50
0.0
 51
24.8878234094
  0
LINE
  5
160
330
1F
100
AcDbEntity
  8
0
  6
CONTINUOUS
 62
     7
100
AcDbLine
 10
40.2698938296
 20
18.3273042814
 30
0.0
 11
40.2698938296
 21
18.8180699187
 31
0.0
  0
ARC
  5
161
330
1F
100
AcDbEntity
  8
0
  6
CONTINUOUS
 62
     7
100
AcDbCircle
 10
40.2305228374
 20
18.3273045558
 30
0.0
 40
0.0393700787401531
100
AcDbArc
 50
335.1121225718
 51
0.0
  0
ARC
  5
162
330
1F
100
AcDbEntity
  8
0
  6
CONTINUOUS
 62
     7
100
AcDbCircle
 10
40.4508776043
 20
18.2250759409
 30
0.0
 40
0.2035433070866166
100
AcDbArc
 50
155.1121225719
 51
183.9447398015
  0
LINE
  5
163
330
1F
100
AcDbEntity
  8
0
  6
CONTINUOUS
 62
     7
100
AcDbLine
 10
40.2478166446
 20
18.2110728774
 30
0.0
 11
24.7841190159
 21
18.2110728774
 31
0.0
  0
ARC
  5
164
330
1F
100
AcDbEntity
  8
0
  6
CONTINUOUS
 62
     7
100
AcDbCircle
 10
24.5810578863
 20
18.2250762175
 30
0.0
 40
0.2035433070866087
100
AcDbArc
 50
356.0551821437
 51
24.8879066246
  0
ARC
  5
165
330
1F
100
AcDbEntity
  8
0
  6
CONTINUOUS
 62
     7
100
AcDbCircle
 10
24.8014126012
 20
18.3273049447
 30
0.0
 40
0.0393700787401627
100
AcDbArc
 50
180.0
 51
204.8879066246
  0
LINE
  5
166
330
1F
100
AcDbEntity
  8
0
  6
CONTINUOUS
 62
     7
100
AcDbLine
 10
24.7620418309
 20
18.8180699187
 30
0.0
 11
24.7620418309
 21
18.3273054547
 31
0.0
  0
ARC
  5
167
330
1F
100
AcDbEntity
  8
0
  6
CONTINUOUS
 62
     7
100
AcDbCircle
 10
24.8014143636
 20
18.8180700374
 30
0.0
 40
0.0393718412080908
100
AcDbArc
 50
155.1122143058
 51
180.0
  0
ARC
  5
168
330
1F
100
AcDbEntity
  8
0
  6
CONTINUOUS
 62
     7
100
AcDbCircle
 10
24.5810578342
 20
18.9202990412
 30
0.0
 40
0.2035433070866161
100
AcDbArc
 50
335.1122143058
 51
162.3995461274
  0
ARC
  5
169
330
1F
100
AcDbEntity
  8
0
  6
CONTINUOUS
 62
     7
100
AcDbCircle
 10
24.3495156436
 20
18.9937505693
 30
0.0
 40
0.0393700787401538
100
AcDbArc
 50
270.0000619979
 51
342.3995461274
  0
LINE
  5
16A
330
1F
100
AcDbEntity
  8
0
  6
CONTINUOUS
 62
     7
100
AcDbLine
 10
24.1903183022
 20
18.954380344
 30
0.0
 11
24.3495166764
 21
18.954380344
 31
0.0
  0
ARC
  5
16B
330
1F
100
AcDbEntity
  8
0
  6
CONTINUOUS
 62
     7
100
AcDbCircle
 10
24.1903173475
 20
18.993750397
 30
0.0
 40
0.0393701262906684
100
AcDbArc
 50
197.6004796991
 51
270.0000619979
  0
ARC
  5
16C
330
1F
100
AcDbEntity
  8
0
  6
CONTINUOUS
 62
     7
100
AcDbCircle
 10
23.95877519
 20
18.9202987646
 30
0.0
 40
0.2035432595361048
100
AcDbArc
 50
17.6004796991
 51
204.8878234094
  0
ARC
  5
16D
330
1F
100
AcDbEntity
  8
0
  6
CONTINUOUS
 62
     7
100
AcDbCircle
 10
23.7384204752
 20
18.8180704263
 30
0.0
 40
0.0393700101665893
100
AcDbArc
 50
0.0
 51
24.8878234094
  0
LINE
  5
16E
330
1F
100
AcDbEntity
  8
0
  6
CONTINUOUS
 62
     7
100
AcDbLine
 10
23.7777908011
 20
18.3273042814
 30
0.0
 11
23.7777908011
 21
18.8180699187
 31
0.0
  0
ARC
  5
16F
330
1F
100
AcDbEntity
  8
0
  6
CONTINUOUS
 62
     7
100
AcDbCircle
 10
23.7384204752
 20
18.3273045558
 30
0.0
 40
0.0393700787401556
100
AcDbArc
 50
335.1121225719
 51
0.0
  0
ARC
  5
170
330
1F
100
AcDbEntity
  8
0
  6
CONTINUOUS
 62
     7
100
AcDbCircle
 10
23.9587752421
 20
18.2250759409
 30
0.0
 40
0.2035433070866145
100
AcDbArc
 50
155.1121225719
 51
183.9447398015
  0
LINE
  5
171
330
1F
100
AcDbEntity
  8
0
  6
CONTINUOUS
 62
     7
100
AcDbLine
 10
23.7557136161
 20
18.2110728774
 30
0.0
 11
22.3022942461
 21
18.2110728774
 31
0.0
  0
LINE
  5
172
330
1F
100
AcDbEntity
  8
0
  6
CONTINUOUS
 62
     7
100
AcDbLine
 10
22.3022942461
 20
19.302018568
 30
0.0
 11
22.3022942461
 21
18.2110728774
 31
0.0
  0
ARC
  5
173
330
1F
100
AcDbEntity
  8
0
  6
CONTINUOUS
 62
     7
100
AcDbCircle
 10
22.5385149634
 20
19.3020181997
 30
0.0
 40
0.2362204724409445
100
AcDbArc
 50
90.0
 51
180.0
  0
LINE
  5
174
330
1F
100
AcDbEntity
  8
0
  6
CONTINUOUS
 62
     7
100
AcDbLine
 10
42.1074111624
 20
19.5382383459
 30
0.0
 11
22.538514024
 21
19.5382383459
 31
0.0
  0
ARC
  5
175
330
1F
100
AcDbEntity
  8
0
  6
CONTINUOUS
 62
     7
100
AcDbCircle
 10
42.1074126012
 20
19.3020181997
 30
0.0
 40
0.2362204724409445
100
AcDbArc
 50
360.0
 51
90.0
  0
LINE
  5
176
330
1F
100
AcDbEntity
  8
0
  6
CONTINUOUS
 62
     7
100
AcDbLine
 10
42.3436332869
 20
18.2110728774
 30
0.0
 11
42.3436332869
 21
19.302018568
 31
0.0
  0
LINE
  5
177
330
1F
100
AcDbEntity
  8
0
  6
CONTINUOUS
 62
     7
100
AcDbLine
 10
42.3436332869
 20
18.2110728774
 30
0.0
 11
41.2762220444
 21
18.2110728774
 31
0.0
  0
LINE
  5
178
330
1F
100
AcDbEntity
  8
0
  6
CONTINUOUS
 62
     7
100
AcDbLine
 10
42.3436332869
 20
3.2878450585
 30
0.0
 11
42.3436332869
 21
17.4343011574
 31
0.0
  0
LINE
  5
179
330
1F
100
AcDbEntity
  8
0
  6
CONTINUOUS
 62
     7
100
AcDbLine
 10
42.3436332869
 20
3.2878450585
 30
0.0
 11
40.7688316391
 21
3.2878450585
 31
0.0
  0
LINE
  5
17A
330
1F
100
AcDbEntity
  8
0
  6
CONTINUOUS
 62
     7
100
AcDbLine
 10
40.7688316391
 20
3.2878450585
 30
0.0
 11
40.7688316391
 21
17.4343011574
 31
0.0
  0
LINE
  5
17B
330
1F
100
AcDbEntity
  8
0
  6
CONTINUOUS
 62
     7
100
AcDbLine
 10
40.7688316391
 20
17.4343011574
 30
0.0
 11
42.3436332869
 21
17.4343011574
 31
0.0
  0
LINE
  5
17C
330
1F
100
AcDbEntity
  8
0
  6
CONTINUOUS
 62
     7
100
AcDbLine
 10
22.3022942461
 20
17.4343011574
 30
0.0
 11
22.3022942461
 21
3.2878450585
 31
0.0
  0
LINE
  5
17D
330
1F
100
AcDbEntity
  8
0
  6
CONTINUOUS
 62
     7
100
AcDbLine
 10
22.3022942461
 20
17.4343011574
 30
0.0
 11
40.0054463245
 21
17.4343011574
 31
0.0
  0
LINE
  5
17E
330
1F
100
AcDbEntity
  8
0
  6
CONTINUOUS
 62
     7
100
AcDbLine
 10
40.0054463245
 20
3.2878450585
 30
0.0
 11
22.3022942461
 21
3.2878450585
 31
0.0
  0
LINE
  5
17F
330
1F
100
AcDbEntity
  8
0
  6
CONTINUOUS
 62
     7
100
AcDbLine
 10
40.0054463245
 20
17.4343011574
 30
0.0
 11
40.0054463245
 21
3.2878450585
 31
0.0
  0
ARC
  5
180
330
1F
100
AcDbEntity
  8
0
  6
CONTINUOUS
 62
     7
100
AcDbCircle
 10
40.8416180058
 20
2.5705222228
 30
0.0
 40
0.0393700787401565
100
AcDbArc
 50
270.0000619979
 51
342.3995461274
  0
LINE
  5
181
330
1F
100
AcDbEntity
  8
0
  6
CONTINUOUS
 62
     7
100
AcDbLine
 10
40.8416197049
 20
2.5311522132
 30
0.0
 11
40.682418984
 21
2.5311519199
 31
0.0
  0
ARC
  5
182
330
1F
100
AcDbEntity
  8
0
  6
CONTINUOUS
 62
     7
100
AcDbCircle
 10
40.6824197097
 20
2.5705220506
 30
0.0
 40
0.0393700787401571
100
AcDbArc
 50
197.6004796991
 51
270.0000619979
  0
ARC
  5
183
330
1F
100
AcDbEntity
  8
0
  6
CONTINUOUS
 62
     7
100
AcDbCircle
 10
24.3495156436
 20
2.5705222228
 30
0.0
 40
0.0393700787401568
100
AcDbArc
 50
270.0000619979
 51
342.3995461274
  0
LINE
  5
184
330
1F
100
AcDbEntity
  8
0
  6
CONTINUOUS
 62
     7
100
AcDbLine
 10
24.3495166764
 20
2.5311522132
 30
0.0
 11
24.1903183022
 21
2.5311519199
 31
0.0
  0
ARC
  5
185
330
1F
100
AcDbEntity
  8
0
  6
CONTINUOUS
 62
     7
100
AcDbCircle
 10
24.1903173475
 20
2.5705220506
 30
0.0
 40
0.0393700787401571
100
AcDbArc
 50
197.6004796991
 51
270.0000619979
  0
ARC
  5
186
330
1F
100
AcDbEntity
  8
0
  6
CONTINUOUS
 62
     7
100
AcDbCircle
 10
24.1903174327
 20
18.1516244128
 30
0.0
 40
0.0393700787401611
100
AcDbArc
 50
90.0000619979
 51
162.3995461274
  0
LINE
  5
187
330
1F
100
AcDbEntity
  8
0
  6
CONTINUOUS
 62
     7
100
AcDbLine
 10
24.1903183022
 20
18.1909950293
 30
0.0
 11
24.3495166764
 21
18.1909950293
 31
0.0
  0
ARC
  5
188
330
1F
100
AcDbEntity
  8
0
  6
CONTINUOUS
 62
     7
100
AcDbCircle
 10
24.3495157288
 20
18.1516245851
 30
0.0
 40
0.0393700787401609
100
AcDbArc
 50
17.6004796991
 51
90.0000619979
  0
ARC
  5
189
330
1F
100
AcDbEntity
  8
0
  6
CONTINUOUS
 62
     7
100
AcDbCircle
 10
40.6824197949
 20
18.1516244128
 30
0.0
 40
0.0393700787401574
100
AcDbArc
 50
90.0000619979
 51
162.3995461274
  0
LINE
  5
18A
330
1F
100
AcDbEntity
  8
0
  6
CONTINUOUS
 62
     7
100
AcDbLine
 10
40.682418984
 20
18.1909950293
 30
0.0
 11
40.8416197049
 21
18.1909950293
 31
0.0
  0
ARC
  5
18B
330
1F
100
AcDbEntity
  8
0
  6
CONTINUOUS
 62
     7
100
AcDbCircle
 10
40.841618091
 20
18.1516245851
 30
0.0
 40
0.0393700787401574
100
AcDbArc
 50
17.6004796991
 51
90.0000619979
  0
LINE
  5
18C
330
1F
100
AcDbEntity
  8
0
  6
CONTINUOUS
 62
     7
100
AcDbLine
 10
22.3022942461
 20
17.4343011574
 30
0.0
 11
22.3022942461
 21
18.2110728774
 31
0.0
  0
LINE
  5
18D
330
1F
100
AcDbEntity
  8
0
  6
CONTINUOUS
 62
     7
100
AcDbLine
 10
22.3022942461
 20
2.5110733385
 30
0.0
 11
22.3022942461
 21
3.2878450585
 31
0.0
  0
ARC
  5
18E
330
1F
100
AcDbEntity
  8
0
  6
CONTINUOUS
 62
     7
100
AcDbCircle
 10
40.4508776043
 20
18.2250759409
 30
0.0
 40
0.2035433070866213
100
AcDbArc
 50
183.9447398015
 51
342.3995461274
  0
ARC
  5
18F
330
1F
100
AcDbEntity
  8
0
  6
CONTINUOUS
 62
     7
100
AcDbCircle
 10
40.4508775522
 20
2.4970704181
 30
0.0
 40
0.2035433070866137
100
AcDbArc
 50
17.6004796991
 51
176.0551812207
  0
ARC
  5
190
330
1F
100
AcDbEntity
  8
0
  6
CONTINUOUS
 62
     7
100
AcDbCircle
 10
41.0731601964
 20
2.4970706947
 30
0.0
 40
0.203543307086617
100
AcDbArc
 50
3.9447398014
 51
162.3995461274
  0
ARC
  5
191
330
1F
100
AcDbEntity
  8
0
  6
CONTINUOUS
 62
     7
100
AcDbCircle
 10
41.0731602485
 20
18.2250762175
 30
0.0
 40
0.2035433070866213
100
AcDbArc
 50
197.6004796991
 51
356.0551821437
  0
LINE
  5
192
330
1F
100
AcDbEntity
  8
0
  6
CONTINUOUS
 62
     7
100
AcDbLine
 10
42.3436332869
 20
18.2110728774
 30
0.0
 11
42.3436332869
 21
17.4343011574
 31
0.0
  0
LINE
  5
193
330
1F
100
AcDbEntity
  8
0
  6
CONTINUOUS
 62
     7
100
AcDbLine
 10
42.3436332869
 20
3.2878450585
 30
0.0
 11
42.3436332869
 21
2.5110733385
 31
0.0
  0
ARC
  5
194
330
1F
100
AcDbEntity
  8
0
  6
CONTINUOUS
 62
     7
100
AcDbCircle
 10
24.5810578863
 20
18.2250762175
 30
0.0
 40
0.2035433070866207
100
AcDbArc
 50
197.6004796991
 51
356.0551821437
  0
ARC
  5
195
330
1F
100
AcDbEntity
  8
0
  6
CONTINUOUS
 62
     7
100
AcDbCircle
 10
24.5810578342
 20
2.4970706947
 30
0.0
 40
0.2035433070866151
100
AcDbArc
 50
3.9447398014
 51
162.3995461274
  0
ARC
  5
196
330
1F
100
AcDbEntity
  8
0
  6
CONTINUOUS
 62
     7
100
AcDbCircle
 10
23.95877519
 20
2.4970704181
 30
0.0
 40
0.2035433070866164
100
AcDbArc
 50
17.6004796991
 51
176.0551812207
  0
ARC
  5
197
330
1F
100
AcDbEntity
  8
0
  6
CONTINUOUS
 62
     7
100
AcDbCircle
 10
23.9587752421
 20
18.2250759409
 30
0.0
 40
0.2035433070866174
100
AcDbArc
 50
183.9447398015
 51
342.3995461274
  0
ARC
  5
198
330
1F
100
AcDbEntity
  8
0
  6
CONTINUOUS
 62
     7
100
AcDbCircle
 10
1.257806302
 20
19.3020181997
 30
0.0
 40
0.2362204724409451
100
AcDbArc
 50
90.0
 51
180.0
  0
LINE
  5
199
330
1F
100
AcDbEntity
  8
0
  6
CONTINUOUS
 62
     7
100
AcDbLine
 10
1.2578062472
 20
19.5382383459
 30
0.0
 11
20.8267038256
 21
19.5382383459
 31
0.0
  0
ARC
  5
19A
330
1F
100
AcDbEntity
  8
0
  6
CONTINUOUS
 62
     7
100
AcDbCircle
 10
20.8267039398
 20
19.3020181997
 30
0.0
 40
0.236220472440948
100
AcDbArc
 50
0.0
 51
90.0
  0
LINE
  5
19B
330
1F
100
AcDbEntity
  8
0
  6
CONTINUOUS
 62
     7
100
AcDbLine
 10
21.0629236034
 20
19.302018568
 30
0.0
 11
21.0629236034
 21
18.2110728774
 31
0.0
  0
ARC
  5
19C
330
1F
100
AcDbEntity
  8
0
  6
CONTINUOUS
 62
     7
100
AcDbCircle
 10
20.012806302
 20
18.3273049447
 30
0.0
 40
0.0393700787401608
100
AcDbArc
 50
180.0
 51
204.8879066246
  0
LINE
  5
19D
330
1F
100
AcDbEntity
  8
0
  6
CONTINUOUS
 62
     7
100
AcDbLine
 10
19.973435176
 20
18.8180699187
 30
0.0
 11
19.973435176
 21
18.3273054547
 31
0.0
  0
ARC
  5
19E
330
1F
100
AcDbEntity
  8
0
  6
CONTINUOUS
 62
     7
100
AcDbCircle
 10
20.0128080644
 20
18.8180700374
 30
0.0
 40
0.0393718412080908
100
AcDbArc
 50
155.1122143058
 51
180.0
  0
ARC
  5
19F
330
1F
100
AcDbEntity
  8
0
  6
CONTINUOUS
 62
     7
100
AcDbCircle
 10
19.792451535
 20
18.9202990412
 30
0.0
 40
0.2035433070866161
100
AcDbArc
 50
335.1122143058
 51
162.3995461274
  0
ARC
  5
1A0
330
1F
100
AcDbEntity
  8
0
  6
CONTINUOUS
 62
     7
100
AcDbCircle
 10
19.5609093444
 20
18.9937505693
 30
0.0
 40
0.0393700787401611
100
AcDbArc
 50
270.0000619979
 51
342.3995461274
  0
LINE
  5
1A1
330
1F
100
AcDbEntity
  8
0
  6
CONTINUOUS
 62
     7
100
AcDbLine
 10
19.4017116472
 20
18.954380344
 30
0.0
 11
19.5609088482
 21
18.954380344
 31
0.0
  0
ARC
  5
1A2
330
1F
100
AcDbEntity
  8
0
  6
CONTINUOUS
 62
     7
100
AcDbCircle
 10
19.4017110483
 20
18.993750397
 30
0.0
 40
0.0393701262906639
100
AcDbArc
 50
197.6004796991
 51
270.0000619979
  0
ARC
  5
1A3
330
1F
100
AcDbEntity
  8
0
  6
CONTINUOUS
 62
     7
100
AcDbCircle
 10
19.1701688908
 20
18.9202987646
 30
0.0
 40
0.2035432595361059
100
AcDbArc
 50
17.6004796991
 51
204.8878234094
  0
ARC
  5
1A4
330
1F
100
AcDbEntity
  8
0
  6
CONTINUOUS
 62
     7
100
AcDbCircle
 10
18.949814176
 20
18.8180704263
 30
0.0
 40
0.0393700101665893
100
AcDbArc
 50
0.0
 51
24.8878234094
  0
LINE
  5
1A5
330
1F
100
AcDbEntity
  8
0
  6
CONTINUOUS
 62
     7
100
AcDbLine
 10
18.9891841461
 20
18.3273042814
 30
0.0
 11
18.9891841461
 21
18.8180699187
 31
0.0
  0
ARC
  5
1A6
330
1F
100
AcDbEntity
  8
0
  6
CONTINUOUS
 62
     7
100
AcDbCircle
 10
18.949814176
 20
18.3273045558
 30
0.0
 40
0.0393700787401563
100
AcDbArc
 50
335.1121225719
 51
0.0
  0
ARC
  5
1A7
330
1F
100
AcDbEntity
  8
0
  6
CONTINUOUS
 62
     7
100
AcDbCircle
 10
19.1701689429
 20
18.2250759409
 30
0.0
 40
0.2035433070866149
100
AcDbArc
 50
155.1121225719
 51
183.9447398014
  0
LINE
  5
1A8
330
1F
100
AcDbEntity
  8
0
  6
CONTINUOUS
 62
     7
100
AcDbLine
 10
3.4977172649
 20
18.2110728774
 30
0.0
 11
18.9671081345
 21
18.2110728774
 31
0.0
  0
ARC
  5
1A9
330
1F
100
AcDbEntity
  8
0
  6
CONTINUOUS
 62
     7
100
AcDbCircle
 10
3.2946563115
 20
18.2250762175
 30
0.0
 40
0.2035433070866115
100
AcDbArc
 50
356.0551821437
 51
24.8879066246
  0
ARC
  5
1AA
330
1F
100
AcDbEntity
  8
0
  6
CONTINUOUS
 62
     7
100
AcDbCircle
 10
3.5150110264
 20
18.3273049447
 30
0.0
 40
0.0393700787401632
100
AcDbArc
 50
180.0
 51
204.8879066246
  0
LINE
  5
1AB
330
1F
100
AcDbEntity
  8
0
  6
CONTINUOUS
 62
     7
100
AcDbLine
 10
3.4756409599
 20
18.8180699187
 30
0.0
 11
3.4756409599
 21
18.3273054547
 31
0.0
  0
ARC
  5
1AC
330
1F
100
AcDbEntity
  8
0
  6
CONTINUOUS
 62
     7
100
AcDbCircle
 10
3.5150127888
 20
18.8180700374
 30
0.0
 40
0.0393718412080895
100
AcDbArc
 50
155.1122143058
 51
180.0
  0
ARC
  5
1AD
330
1F
100
AcDbEntity
  8
0
  6
CONTINUOUS
 62
     7
100
AcDbCircle
 10
3.2946562594
 20
18.9202990412
 30
0.0
 40
0.2035433070866165
100
AcDbArc
 50
335.1122143058
 51
162.3995461274
  0
ARC
  5
1AE
330
1F
100
AcDbEntity
  8
0
  6
CONTINUOUS
 62
     7
100
AcDbCircle
 10
3.0631140688
 20
18.9937505693
 30
0.0
 40
0.0393700787401574
100
AcDbArc
 50
270.0000619979
 51
342.3995461274
  0
LINE
  5
1AF
330
1F
100
AcDbEntity
  8
0
  6
CONTINUOUS
 62
     7
100
AcDbLine
 10
2.9039156712
 20
18.954380344
 30
0.0
 11
3.0631140454
 21
18.954380344
 31
0.0
  0
ARC
  5
1B0
330
1F
100
AcDbEntity
  8
0
  6
CONTINUOUS
 62
     7
100
AcDbCircle
 10
2.9039157727
 20
18.993750397
 30
0.0
 40
0.0393701262906684
100
AcDbArc
 50
197.6004796991
 51
270.0000619979
  0
ARC
  5
1B1
330
1F
100
AcDbEntity
  8
0
  6
CONTINUOUS
 62
     7
100
AcDbCircle
 10
2.6723736152
 20
18.9202987646
 30
0.0
 40
0.2035432595361052
100
AcDbArc
 50
17.6004796991
 51
204.8878234094
  0
ARC
  5
1B2
330
1F
100
AcDbEntity
  8
0
  6
CONTINUOUS
 62
     7
100
AcDbCircle
 10
2.4520189004
 20
18.8180704263
 30
0.0
 40
0.0393700101665897
100
AcDbArc
 50
0.0
 51
24.8878234094
  0
LINE
  5
1B3
330
1F
100
AcDbEntity
  8
0
  6
CONTINUOUS
 62
     7
100
AcDbLine
 10
2.4913890501
 20
18.3273042814
 30
0.0
 11
2.4913890501
 21
18.8180699187
 31
0.0
  0
ARC
  5
1B4
330
1F
100
AcDbEntity
  8
0
  6
CONTINUOUS
 62
     7
100
AcDbCircle
 10
2.4520189004
 20
18.3273045558
 30
0.0
 40
0.0393700787401627
100
AcDbArc
 50
335.1121225719
 51
0.0
  0
ARC
  5
1B5
330
1F
100
AcDbEntity
  8
0
  6
CONTINUOUS
 62
     7
100
AcDbCircle
 10
2.6723736673
 20
18.2250759409
 30
0.0
 40
0.2035433070866106
100
AcDbArc
 50
155.1121225719
 51
183.9447398014
  0
LINE
  5
1B6
330
1F
100
AcDbEntity
  8
0
  6
CONTINUOUS
 62
     7
100
AcDbLine
 10
1.0215858094
 20
18.2110728774
 30
0.0
 11
2.4693124518
 21
18.2110728774
 31
0.0
  0
LINE
  5
1B7
330
1F
100
AcDbEntity
  8
0
  6
CONTINUOUS
 62
     7
100
AcDbLine
 10
1.0215858094
 20
18.2110728774
 30
0.0
 11
1.0215858094
 21
19.302018568
 31
0.0
  0
LINE
  5
1B8
330
1F
100
AcDbEntity
  8
0
  6
CONTINUOUS
 62
     7
100
AcDbLine
 10
19.9955123609
 20
18.2110728774
 30
0.0
 11
21.0629236034
 21
18.2110728774
 31
0.0
  0
ARC
  5
1B9
330
1F
100
AcDbEntity
  8
0
  6
CONTINUOUS
 62
     7
100
AcDbCircle
 10
19.7924515871
 20
18.2250762175
 30
0.0
 40
0.2035433070866105
100
AcDbArc
 50
356.0551821437
 51
24.8879066246
  0
LINE
  5
1BA
330
1F
100
AcDbEntity
  8
0
  6
CONTINUOUS
 62
     7
100
AcDbLine
 10
19.4881207824
 20
3.2878450585
 30
0.0
 11
21.0629236034
 21
3.2878450585
 31
0.0
  0
LINE
  5
1BB
330
1F
100
AcDbEntity
  8
0
  6
CONTINUOUS
 62
     7
100
AcDbLine
 10
19.4881207824
 20
17.4343011574
 30
0.0
 11
19.4881207824
 21
3.2878450585
 31
0.0
  0
LINE
  5
1BC
330
1F
100
AcDbEntity
  8
0
  6
CONTINUOUS
 62
     7
100
AcDbLine
 10
21.0629236034
 20
17.4343011574
 30
0.0
 11
19.4881207824
 21
17.4343011574
 31
0.0
  0
LINE
  5
1BD
330
1F
100
AcDbEntity
  8
0
  6
CONTINUOUS
 62
     7
100
AcDbLine
 10
21.0629236034
 20
17.4343011574
 30
0.0
 11
21.0629236034
 21
3.2878450585
 31
0.0
  0
ARC
  5
1BE
330
1F
100
AcDbEntity
  8
0
  6
CONTINUOUS
 62
     7
100
AcDbCircle
 10
1.257806302
 20
1.4201284359
 30
0.0
 40
0.2362204724409451
100
AcDbArc
 50
180.0
 51
270.0
  0
LINE
  5
1BF
330
1F
100
AcDbEntity
  8
0
  6
CONTINUOUS
 62
     7
100
AcDbLine
 10
1.0215858094
 20
1.4201283812
 30
0.0
 11
1.0215858094
 21
2.5110733385
 31
0.0
  0
LINE
  5
1C0
330
1F
100
AcDbEntity
  8
0
  6
CONTINUOUS
 62
     7
100
AcDbLine
 10
2.4693124518
 20
2.5110733385
 30
0.0
 11
1.0215858094
 21
2.5110733385
 31
0.0
  0
ARC
  5
1C1
330
1F
100
AcDbEntity
  8
0
  6
CONTINUOUS
 62
     7
100
AcDbCircle
 10
2.6723736152
 20
2.4970704181
 30
0.0
 40
0.2035432595361061
100
AcDbArc
 50
176.0551812207
 51
204.8878234094
  0
ARC
  5
1C2
330
1F
100
AcDbEntity
  8
0
  6
CONTINUOUS
 62
     7
100
AcDbCircle
 10
2.4520189004
 20
2.3948420799
 30
0.0
 40
0.0393700101665898
100
AcDbArc
 50
0.0
 51
24.8878234094
  0
LINE
  5
1C3
330
1F
100
AcDbEntity
  8
0
  6
CONTINUOUS
 62
     7
100
AcDbLine
 10
2.4913890501
 20
1.9040761506
 30
0.0
 11
2.4913890501
 21
2.3948420812
 31
0.0
  0
ARC
  5
1C4
330
1F
100
AcDbEntity
  8
0
  6
CONTINUOUS
 62
     7
100
AcDbCircle
 10
2.4520189004
 20
1.9040762093
 30
0.0
 40
0.0393700787401619
100
AcDbArc
 50
335.1121225719
 51
0.0
  0
ARC
  5
1C5
330
1F
100
AcDbEntity
  8
0
  6
CONTINUOUS
 62
     7
100
AcDbCircle
 10
2.6723736673
 20
1.8018475944
 30
0.0
 40
0.203543307086616
100
AcDbArc
 50
155.1121225719
 51
342.3995461274
  0
ARC
  5
1C6
330
1F
100
AcDbEntity
  8
0
  6
CONTINUOUS
 62
     7
100
AcDbCircle
 10
2.9039158579
 20
1.7283960663
 30
0.0
 40
0.0393700787401543
100
AcDbArc
 50
90.0000619979
 51
162.3995461274
  0
LINE
  5
1C7
330
1F
100
AcDbEntity
  8
0
  6
CONTINUOUS
 62
     7
100
AcDbLine
 10
3.0631140454
 20
1.7677663119
 30
0.0
 11
2.9039156712
 21
1.7677661652
 31
0.0
  0
ARC
  5
1C8
330
1F
100
AcDbEntity
  8
0
  6
CONTINUOUS
 62
     7
100
AcDbCircle
 10
3.063114154
 20
1.7283962386
 30
0.0
 40
0.0393700787401598
100
AcDbArc
 50
17.6004796991
 51
90.0000619979
  0
ARC
  5
1C9
330
1F
100
AcDbEntity
  8
0
  6
CONTINUOUS
 62
     7
100
AcDbCircle
 10
3.2946563115
 20
1.8018478711
 30
0.0
 40
0.2035433070866141
100
AcDbArc
 50
197.6004796991
 51
24.8879066246
  0
ARC
  5
1CA
330
1F
100
AcDbEntity
  8
0
  6
CONTINUOUS
 62
     7
100
AcDbCircle
 10
3.5150110264
 20
1.9040765982
 30
0.0
 40
0.0393700787401609
100
AcDbArc
 50
180.0
 51
204.8879066246
  0
LINE
  5
1CB
330
1F
100
AcDbEntity
  8
0
  6
CONTINUOUS
 62
     7
100
AcDbLine
 10
3.4756409599
 20
2.3948416412
 30
0.0
 11
3.4756409599
 21
1.9040765905
 31
0.0
  0
ARC
  5
1CC
330
1F
100
AcDbEntity
  8
0
  6
CONTINUOUS
 62
     7
100
AcDbCircle
 10
3.5150127888
 20
2.3948416909
 30
0.0
 40
0.0393718412080939
100
AcDbArc
 50
155.1122143058
 51
180.0
  0
ARC
  5
1CD
330
1F
100
AcDbEntity
  8
0
  6
CONTINUOUS
 62
     7
100
AcDbCircle
 10
3.2946562594
 20
2.4970706947
 30
0.0
 40
0.2035433070866147
100
AcDbArc
 50
335.1122143058
 51
3.9447398015
  0
LINE
  5
1CE
330
1F
100
AcDbEntity
  8
0
  6
CONTINUOUS
 62
     7
100
AcDbLine
 10
18.9671081345
 20
2.5110733385
 30
0.0
 11
3.4977172649
 21
2.5110733385
 31
0.0
  0
ARC
  5
1CF
330
1F
100
AcDbEntity
  8
0
  6
CONTINUOUS
 62
     7
100
AcDbCircle
 10
19.1701688908
 20
2.4970704181
 30
0.0
 40
0.2035432595361042
100
AcDbArc
 50
176.0551812207
 51
204.8878234094
  0
ARC
  5
1D0
330
1F
100
AcDbEntity
  8
0
  6
CONTINUOUS
 62
     7
100
AcDbCircle
 10
18.949814176
 20
2.3948420799
 30
0.0
 40
0.0393700101665893
100
AcDbArc
 50
0.0
 51
24.8878234094
  0
LINE
  5
1D1
330
1F
100
AcDbEntity
  8
0
  6
CONTINUOUS
 62
     7
100
AcDbLine
 10
18.9891841461
 20
1.9040761506
 30
0.0
 11
18.9891841461
 21
2.3948420812
 31
0.0
  0
ARC
  5
1D2
330
1F
100
AcDbEntity
  8
0
  6
CONTINUOUS
 62
     7
100
AcDbCircle
 10
18.949814176
 20
1.9040762093
 30
0.0
 40
0.0393700787401556
100
AcDbArc
 50
335.1121225719
 51
0.0
  0
ARC
  5
1D3
330
1F
100
AcDbEntity
  8
0
  6
CONTINUOUS
 62
     7
100
AcDbCircle
 10
19.1701689429
 20
1.8018475944
 30
0.0
 40
0.2035433070866169
100
AcDbArc
 50
155.1121225719
 51
342.3995461274
  0
ARC
  5
1D4
330
1F
100
AcDbEntity
  8
0
  6
CONTINUOUS
 62
     7
100
AcDbCircle
 10
19.4017111335
 20
1.7283960663
 30
0.0
 40
0.0393700787401587
100
AcDbArc
 50
90.0000619979
 51
162.3995461274
  0
LINE
  5
1D5
330
1F
100
AcDbEntity
  8
0
  6
CONTINUOUS
 62
     7
100
AcDbLine
 10
19.5609088482
 20
1.7677663119
 30
0.0
 11
19.4017116472
 21
1.7677661652
 31
0.0
  0
ARC
  5
1D6
330
1F
100
AcDbEntity
  8
0
  6
CONTINUOUS
 62
     7
100
AcDbCircle
 10
19.5609094296
 20
1.7283962386
 30
0.0
 40
0.0393700787401611
100
AcDbArc
 50
17.6004796991
 51
90.0000619979
  0
LINE
  5
1D7
330
1F
100
AcDbEntity
  8
0
  6
CONTINUOUS
 62
     7
100
AcDbLine
 10
21.0629236034
 20
2.5110733385
 30
0.0
 11
21.0629236034
 21
1.4201283812
 31
0.0
  0
ARC
  5
1D8
330
1F
100
AcDbEntity
  8
0
  6
CONTINUOUS
 62
     7
100
AcDbCircle
 10
19.792451535
 20
2.4970706947
 30
0.0
 40
0.2035433070866191
100
AcDbArc
 50
335.1122143058
 51
3.9447398014
  0
LINE
  5
1D9
330
1F
100
AcDbEntity
  8
0
  6
CONTINUOUS
 62
     7
100
AcDbLine
 10
20.8267038256
 20
1.1839079433
 30
0.0
 11
1.2578062472
 21
1.1839079433
 31
0.0
  0
ARC
  5
1DA
330
1F
100
AcDbEntity
  8
0
  6
CONTINUOUS
 62
     7
100
AcDbCircle
 10
20.012806302
 20
1.9040765982
 30
0.0
 40
0.0393700787401592
100
AcDbArc
 50
180.0
 51
204.8879066246
  0
ARC
  5
1DB
330
1F
100
AcDbEntity
  8
0
  6
CONTINUOUS
 62
     7
100
AcDbCircle
 10
20.8267039398
 20
1.4201284359
 30
0.0
 40
0.236220472440948
100
AcDbArc
 50
270.0
 51
0.0
  0
ARC
  5
1DC
330
1F
100
AcDbEntity
  8
0
  6
CONTINUOUS
 62
     7
100
AcDbCircle
 10
20.0128080644
 20
2.3948416909
 30
0.0
 40
0.0393718412080908
100
AcDbArc
 50
155.1122143058
 51
180.0
  0
LINE
  5
1DD
330
1F
100
AcDbEntity
  8
0
  6
CONTINUOUS
 62
     7
100
AcDbLine
 10
19.973435176
 20
2.3948416412
 30
0.0
 11
19.973435176
 21
1.9040765905
 31
0.0
  0
LINE
  5
1DE
330
1F
100
AcDbEntity
  8
0
  6
CONTINUOUS
 62
     7
100
AcDbLine
 10
21.0629236034
 20
2.5110733385
 30
0.0
 11
19.9955123609
 21
2.5110733385
 31
0.0
  0
ARC
  5
1DF
330
1F
100
AcDbEntity
  8
0
  6
CONTINUOUS
 62
     7
100
AcDbCircle
 10
19.7924515871
 20
1.8018478711
 30
0.0
 40
0.2035433070866171
100
AcDbArc
 50
197.6004796991
 51
24.8879066246
  0
LINE
  5
1E0
330
1F
100
AcDbEntity
  8
0
  6
CONTINUOUS
 62
     7
100
AcDbLine
 10
1.0215858094
 20
3.2878450585
 30
0.0
 11
1.0215858094
 21
17.4343011574
 31
0.0
  0
LINE
  5
1E1
330
1F
100
AcDbEntity
  8
0
  6
CONTINUOUS
 62
     7
100
AcDbLine
 10
18.7247354677
 20
3.2878450585
 30
0.0
 11
18.7247354677
 21
17.4343011574
 31
0.0
  0
LINE
  5
1E2
330
1F
100
AcDbEntity
  8
0
  6
CONTINUOUS
 62
     7
100
AcDbLine
 10
18.7247354677
 20
17.4343011574
 30
0.0
 11
1.0215858094
 21
17.4343011574
 31
0.0
  0
LINE
  5
1E3
330
1F
100
AcDbEntity
  8
0
  6
CONTINUOUS
 62
     7
100
AcDbLine
 10
1.0215858094
 20
3.2878450585
 30
0.0
 11
18.7247354677
 21
3.2878450585
 31
0.0
  0
ARC
  5
1E4
330
1F
100
AcDbEntity
  8
0
  6
CONTINUOUS
 62
     7
100
AcDbCircle
 10
19.5609093444
 20
2.5705222228
 30
0.0
 40
0.0393700787401602
100
AcDbArc
 50
270.0000619979
 51
342.3995461274
  0
LINE
  5
1E5
330
1F
100
AcDbEntity
  8
0
  6
CONTINUOUS
 62
     7
100
AcDbLine
 10
19.5609088482
 20
2.5311522132
 30
0.0
 11
19.4017116472
 21
2.5311519199
 31
0.0
  0
ARC
  5
1E6
330
1F
100
AcDbEntity
  8
0
  6
CONTINUOUS
 62
     7
100
AcDbCircle
 10
19.4017110483
 20
2.5705220506
 30
0.0
 40
0.0393700787401569
100
AcDbArc
 50
197.6004796991
 51
270.0000619979
  0
ARC
  5
1E7
330
1F
100
AcDbEntity
  8
0
  6
CONTINUOUS
 62
     7
100
AcDbCircle
 10
3.0631140688
 20
2.5705222228
 30
0.0
 40
0.0393700787401565
100
AcDbArc
 50
270.0000619979
 51
342.3995461274
  0
LINE
  5
1E8
330
1F
100
AcDbEntity
  8
0
  6
CONTINUOUS
 62
     7
100
AcDbLine
 10
3.0631140454
 20
2.5311522132
 30
0.0
 11
2.9039156712
 21
2.5311519199
 31
0.0
  0
ARC
  5
1E9
330
1F
100
AcDbEntity
  8
0
  6
CONTINUOUS
 62
     7
100
AcDbCircle
 10
2.9039157727
 20
2.5705220506
 30
0.0
 40
0.0393700787401565
100
AcDbArc
 50
197.6004796991
 51
270.0000619979
  0
ARC
  5
1EA
330
1F
100
AcDbEntity
  8
0
  6
CONTINUOUS
 62
     7
100
AcDbCircle
 10
2.9039158579
 20
18.1516244128
 30
0.0
 40
0.0393700787401574
100
AcDbArc
 50
90.0000619979
 51
162.3995461274
  0
LINE
  5
1EB
330
1F
100
AcDbEntity
  8
0
  6
CONTINUOUS
 62
     7
100
AcDbLine
 10
2.9039156712
 20
18.1909950293
 30
0.0
 11
3.0631140454
 21
18.1909950293
 31
0.0
  0
ARC
  5
1EC
330
1F
100
AcDbEntity
  8
0
  6
CONTINUOUS
 62
     7
100
AcDbCircle
 10
3.063114154
 20
18.1516245851
 30
0.0
 40
0.0393700787401603
100
AcDbArc
 50
17.6004796991
 51
90.0000619979
  0
ARC
  5
1ED
330
1F
100
AcDbEntity
  8
0
  6
CONTINUOUS
 62
     7
100
AcDbCircle
 10
19.4017111335
 20
18.1516244128
 30
0.0
 40
0.0393700787401574
100
AcDbArc
 50
90.0000619979
 51
162.3995461274
  0
LINE
  5
1EE
330
1F
100
AcDbEntity
  8
0
  6
CONTINUOUS
 62
     7
100
AcDbLine
 10
19.4017116472
 20
18.1909950293
 30
0.0
 11
19.5609088482
 21
18.1909950293
 31
0.0
  0
ARC
  5
1EF
330
1F
100
AcDbEntity
  8
0
  6
CONTINUOUS
 62
     7
100
AcDbCircle
 10
19.5609094296
 20
18.1516245851
 30
0.0
 40
0.0393700787401603
100
AcDbArc
 50
17.6004796991
 51
90.0000619979
  0
ARC
  5
1F0
330
1F
100
AcDbEntity
  8
0
  6
CONTINUOUS
 62
     7
100
AcDbCircle
 10
2.6723736673
 20
18.2250759409
 30
0.0
 40
0.2035433070866154
100
AcDbArc
 50
183.9447398014
 51
342.3995461274
  0
ARC
  5
1F1
330
1F
100
AcDbEntity
  8
0
  6
CONTINUOUS
 62
     7
100
AcDbCircle
 10
2.6723736152
 20
2.4970704181
 30
0.0
 40
0.2035433070866135
100
AcDbArc
 50
17.6004796991
 51
176.0551812207
  0
LINE
  5
1F2
330
1F
100
AcDbEntity
  8
0
  6
CONTINUOUS
 62
     7
100
AcDbLine
 10
1.0215858094
 20
3.2878450585
 30
0.0
 11
1.0215858094
 21
2.5110733385
 31
0.0
  0
LINE
  5
1F3
330
1F
100
AcDbEntity
  8
0
  6
CONTINUOUS
 62
     7
100
AcDbLine
 10
1.0215858094
 20
18.2110728774
 30
0.0
 11
1.0215858094
 21
17.4343011574
 31
0.0
  0
ARC
  5
1F4
330
1F
100
AcDbEntity
  8
0
  6
CONTINUOUS
 62
     7
100
AcDbCircle
 10
3.2946562594
 20
2.4970706947
 30
0.0
 40
0.2035433070866168
100
AcDbArc
 50
3.9447398015
 51
162.3995461274
  0
ARC
  5
1F5
330
1F
100
AcDbEntity
  8
0
  6
CONTINUOUS
 62
     7
100
AcDbCircle
 10
3.2946563115
 20
18.2250762175
 30
0.0
 40
0.2035433070866144
100
AcDbArc
 50
197.6004796991
 51
356.0551821437
  0
ARC
  5
1F6
330
1F
100
AcDbEntity
  8
0
  6
CONTINUOUS
 62
     7
100
AcDbCircle
 10
19.1701688908
 20
2.4970704181
 30
0.0
 40
0.2035433070866171
100
AcDbArc
 50
17.6004796991
 51
176.0551812207
  0
ARC
  5
1F7
330
1F
100
AcDbEntity
  8
0
  6
CONTINUOUS
 62
     7
100
AcDbCircle
 10
19.1701689429
 20
18.2250759409
 30
0.0
 40
0.2035433070866141
100
AcDbArc
 50
183.9447398014
 51
342.3995461274
  0
LINE
  5
1F8
330
1F
100
AcDbEntity
  8
0
  6
CONTINUOUS
 62
     7
100
AcDbLine
 10
21.0629236034
 20
17.4343011574
 30
0.0
 11
21.0629236034
 21
18.2110728774
 31
0.0
  0
LINE
  5
1F9
330
1F
100
AcDbEntity
  8
0
  6
CONTINUOUS
 62
     7
100
AcDbLine
 10
21.0629236034
 20
2.5110733385
 30
0.0
 11
21.0629236034
 21
3.2878450585
 31
0.0
  0
ARC
  5
1FA
330
1F
100
AcDbEntity
  8
0
  6
CONTINUOUS
 62
     7
100
AcDbCircle
 10
19.792451535
 20
2.4970706947
 30
0.0
 40
0.2035433070866163
100
AcDbArc
 50
3.9447398015
 51
162.3995461274
  0
ARC
  5
1FB
330
1F
100
AcDbEntity
  8
0
  6
CONTINUOUS
 62
     7
100
AcDbCircle
 10
19.7924515871
 20
18.2250762175
 30
0.0
 40
0.2035433070866163
100
AcDbArc
 50
197.6004796991
 51
356.0551821437
  0
LINE
  5
1FC
330
1F
100
AcDbEntity
  8
0
  6
CONTINUOUS
 62
     7
100
AcDbLine
 10
43.5830015829
 20
1.1839079433
 30
0.0
 11
58.1125301632
 21
1.1839079433
 31
0.0
  0
LINE
  5
1FD
330
1F
100
AcDbEntity
  8
0
  6
CONTINUOUS
 62
     7
100
AcDbLine
 10
58.1125301632
 20
16.1071368623
 30
0.0
 11
43.5830015829
 21
16.1071368623
 31
0.0
  0
LINE
  5
1FE
330
1F
100
AcDbEntity
  8
0
  6
CONTINUOUS
 62
     7
100
AcDbLine
 10
58.1125301632
 20
1.1839079433
 30
0.0
 11
58.1125301632
 21
16.1071368623
 31
0.0
  0
LINE
  5
1FF
330
1F
100
AcDbEntity
  8
0
  6
CONTINUOUS
 62
     7
100
AcDbLine
 10
43.5830015829
 20
16.1071368623
 30
0.0
 11
43.5830015829
 21
1.1839079433
 31
0.0
  0
LINE
  5
200
330
1F
100
AcDbEntity
  8
PROFILES_OUTSIDE
100
AcDbLine
 10
42.3436330736
 20
1.4201284359
 30
0.0
 11
42.3436330736
 21
19.3020181997
 31
0.0
  0
LINE
  5
201
330
1F
100
AcDbEntity
  8
PROFILES_OUTSIDE
100
AcDbLine
 10
21.0629244122
 20
1.1839079635
 30
0.0
 11
21.0629244122
 21
19.5382386722
 31
0.0
  0
LINE
  5
202
330
1F
100
AcDbEntity
  8
POCKETS
100
AcDbLine
 10
74.2751291366
 20
3.5154040265
 30
0.0
 11
58.9582000027
 21
3.5154040265
 31
0.0
  0
LINE
  5
203
330
1F
100
AcDbEntity
  8
POCKETS
100
AcDbLine
 10
58.9582000027
 20
3.5154040265
 30
0.0
 11
58.9582000027
 21
2.7587111131
 31
0.0
  0
LINE
  5
204
330
1F
100
AcDbEntity
  8
POCKETS
100
AcDbLine
 10
58.9582000027
 20
2.7587111131
 30
0.0
 11
74.2751291366
 21
2.7587111131
 31
0.0
  0
LINE
  5
205
330
1F
100
AcDbEntity
  8
PROFILES_OUTSIDE
100
AcDbLine
 10
21.0629244122
 20
19.5382386722
 30
0.0
 11
1.0215858295
 21
19.5382386722
 31
0.0
  0
LINE
  5
206
330
1F
100
AcDbEntity
  8
PROFILES_OUTSIDE
100
AcDbLine
 10
1.0215858295
 20
19.5382386722
 30
0.0
 11
1.0215858295
 21
1.1839079635
 31
0.0
  0
LINE
  5
207
330
1F
100
AcDbEntity
  8
PROFILES_OUTSIDE
100
AcDbLine
 10
1.0215858295
 20
1.1839079635
 30
0.0
 11
21.0629244122
 21
1.1839079635
 31
0.0
  0
LINE
  5
208
330
1F
100
AcDbEntity
  8
POCKETS
100
AcDbLine
 10
74.2751291366
 20
2.7587111131
 30
0.0
 11
74.2751291366
 21
3.5154040265
 31
0.0
  0
LINE
  5
209
330
1F
100
AcDbEntity
  8
PROFILES_INSIDE
100
AcDbLine
 10
19.9734362232
 20
18.3273049447
 30
0.0
 11
19.9734362232
 21
18.8180700374
 31
0.0
  0
LINE
  5
20A
330
1F
100
AcDbEntity
  8
PROFILES_INSIDE
100
AcDbLine
 10
19.4017110909
 20
18.1909944915
 30
0.0
 11
19.560909387
 21
18.1909946638
 31
0.0
  0
LINE
  5
20B
330
1F
100
AcDbEntity
  8
PROFILES_INSIDE
100
AcDbLine
 10
18.9891841861
 20
18.8180704263
 30
0.0
 11
18.9891842547
 21
18.3273045558
 31
0.0
  0
LINE
  5
20C
330
1F
100
AcDbEntity
  8
PROFILES_INSIDE
100
AcDbLine
 10
19.560909387
 20
18.9543804906
 30
0.0
 11
19.4017110909
 21
18.9543802529
 31
0.0
  0
LINE
  5
20D
330
1F
100
AcDbEntity
  8
PROFILES_OUTSIDE
100
AcDbLine
 10
58.1125307114
 20
1.1839079635
 30
0.0
 11
58.1125307114
 21
16.1071363099
 31
0.0
  0
LINE
  5
20E
330
1F
100
AcDbEntity
  8
PROFILES_OUTSIDE
100
AcDbLine
 10
58.1125307114
 20
16.1071363099
 30
0.0
 11
43.5830031524
 21
16.1071363099
 31
0.0
  0
LINE
  5
20F
330
1F
100
AcDbEntity
  8
PROFILES_OUTSIDE
100
AcDbLine
 10
43.5830031524
 20
16.1071363099
 30
0.0
 11
43.5830031524
 21
1.1839079635
 31
0.0
  0
LINE
  5
210
330
1F
100
AcDbEntity
  8
PROFILES_OUTSIDE
100
AcDbLine
 10
43.5830031524
 20
1.1839079635
 30
0.0
 11
58.1125307114
 21
1.1839079635
 31
0.0
  0
LINE
  5
211
330
1F
100
AcDbEntity
  8
PROFILES_OUTSIDE
100
AcDbLine
 10
73.8814283492
 20
21.2252465462
 30
0.0
 11
59.3519007901
 21
21.2252465462
 31
0.0
  0
LINE
  5
212
330
1F
100
AcDbEntity
  8
PROFILES_OUTSIDE
100
AcDbLine
 10
59.3519007901
 20
21.2252465462
 30
0.0
 11
59.3519007901
 21
1.1839079635
 31
0.0
  0
LINE
  5
213
330
1F
100
AcDbEntity
  8
PROFILES_OUTSIDE
100
AcDbLine
 10
59.3519007901
 20
1.1839079635
 30
0.0
 11
73.8814283492
 21
1.1839079635
 31
0.0
  0
LINE
  5
214
330
1F
100
AcDbEntity
  8
PROFILES_OUTSIDE
100
AcDbLine
 10
73.8814283492
 20
1.1839079635
 30
0.0
 11
73.8814283492
 21
21.2252465462
 31
0.0
  0
LINE
  5
215
330
1F
100
AcDbEntity
  8
PROFILES_OUTSIDE
100
AcDbLine
 10
59.3519007901
 20
42.5059552076
 30
0.0
 11
59.3519007901
 21
22.4646166249
 31
0.0
  0
LINE
  5
216
330
1F
100
AcDbEntity
  8
PROFILES_OUTSIDE
100
AcDbLine
 10
59.3519007901
 20
22.4646166249
 30
0.0
 11
73.8814283492
 21
22.4646166249
 31
0.0
  0
LINE
  5
217
330
1F
100
AcDbEntity
  8
BOX_STOCK
100
AcDbLine
 10
0.0082000027
 20
0.1705221367
 30
0.0
 11
96.0711921287
 21
0.1705221367
 31
0.0
  0
LINE
  5
218
330
1F
100
AcDbEntity
  8
BOX_STOCK
100
AcDbLine
 10
96.0711921287
 20
0.1705221367
 30
0.0
 11
96.0711921287
 21
48.2020181997
 31
0.0
  0
LINE
  5
219
330
1F
100
AcDbEntity
  8
BOX_STOCK
100
AcDbLine
 10
96.0711921287
 20
48.2020181997
 30
0.0
 11
0.0082000027
 21
48.2020181997
 31
0.0
  0
LINE
  5
21A
330
1F
100
AcDbEntity
  8
BOX_STOCK
100
AcDbLine
 10
0.0082000027
 20
48.2020181997
 30
0.0
 11
0.0082000027
 21
0.1705221367
 31
0.0
  0
LINE
  5
21B
330
1F
100
AcDbEntity
  8
POCKETS
100
AcDbLine
 10
74.2751291366
 20
24.7961126879
 30
0.0
 11
58.9582000027
 21
24.7961126879
 31
0.0
  0
LINE
  5
21C
330
1F
100
AcDbEntity
  8
PROFILES_OUTSIDE
100
AcDbLine
 10
73.8814283492
 20
22.4646166249
 30
0.0
 11
73.8814283492
 21
42.5059552076
 31
0.0
  0
LINE
  5
21D
330
1F
100
AcDbEntity
  8
POCKETS
100
AcDbLine
 10
58.9582000027
 20
24.7961126879
 30
0.0
 11
58.9582000027
 21
24.0394197745
 31
0.0
  0
LINE
  5
21E
330
1F
100
AcDbEntity
  8
POCKETS
100
AcDbLine
 10
58.9582000027
 20
24.0394197745
 30
0.0
 11
74.2751291366
 21
24.0394197745
 31
0.0
  0
LINE
  5
21F
330
1F
100
AcDbEntity
  8
POCKETS
100
AcDbLine
 10
74.2751291366
 20
24.0394197745
 30
0.0
 11
74.2751291366
 21
24.7961126879
 31
0.0
  0
LINE
  5
220
330
1F
100
AcDbEntity
  8
PROFILES_OUTSIDE
100
AcDbLine
 10
73.8814283492
 20
42.5059552076
 30
0.0
 11
59.3519007901
 21
42.5059552076
 31
0.0
  0
LINE
  5
221
330
1F
100
AcDbEntity
  8
PROFILES_INSIDE
100
AcDbLine
 10
3.4756409476
 20
18.3273049447
 30
0.0
 11
3.4756409476
 21
18.8180700374
 31
0.0
  0
LINE
  5
222
330
1F
100
AcDbEntity
  8
PROFILES_INSIDE
100
AcDbLine
 10
3.0631141114
 20
18.9543804906
 30
0.0
 11
2.9039158153
 21
18.9543802945
 31
0.0
  0
LINE
  5
223
330
1F
100
AcDbEntity
  8
PROFILES_INSIDE
100
AcDbLine
 10
2.4913889046
 20
18.8180704263
 30
0.0
 11
2.4913889791
 21
18.3273045558
 31
0.0
  0
LINE
  5
224
330
1F
100
AcDbEntity
  8
PROFILES_INSIDE
100
AcDbLine
 10
2.9039158153
 20
18.1909944915
 30
0.0
 11
3.0631141114
 21
18.1909946638
 31
0.0
  0
LINE
  5
225
330
1F
100
AcDbEntity
  8
PROFILES_INSIDE
100
AcDbLine
 10
19.9734362232
 20
1.9040765982
 30
0.0
 11
19.9734362232
 21
2.3948416909
 31
0.0
  0
LINE
  5
226
330
1F
100
AcDbEntity
  8
PROFILES_INSIDE
100
AcDbLine
 10
19.560909387
 20
2.5311521441
 30
0.0
 11
19.4017110909
 21
2.5311519659
 31
0.0
  0
LINE
  5
227
330
1F
100
AcDbEntity
  8
PROFILES_INSIDE
100
AcDbLine
 10
18.9891841743
 20
2.3948420799
 30
0.0
 11
18.9891842547
 21
1.9040762093
 31
0.0
  0
LINE
  5
228
330
1F
100
AcDbEntity
  8
PROFILES_INSIDE
100
AcDbLine
 10
19.4017110909
 20
1.7677661451
 30
0.0
 11
19.560909387
 21
1.7677663173
 31
0.0
  0
LINE
  5
229
330
1F
100
AcDbEntity
  8
PROFILES_INSIDE
100
AcDbLine
 10
2.4913889105
 20
2.3948420799
 30
0.0
 11
2.4913889791
 21
1.9040762093
 31
0.0
  0
LINE
  5
22A
330
1F
100
AcDbEntity
  8
PROFILES_INSIDE
100
AcDbLine
 10
2.9039158153
 20
1.7677661451
 30
0.0
 11
3.0631141114
 21
1.7677663173
 31
0.0
  0
LINE
  5
22B
330
1F
100
AcDbEntity
  8
PROFILES_INSIDE
100
AcDbLine
 10
3.4756409476
 20
1.9040765982
 30
0.0
 11
3.4756409476
 21
2.3948416909
 31
0.0
  0
LINE
  5
22C
330
1F
100
AcDbEntity
  8
PROFILES_INSIDE
100
AcDbLine
 10
3.0631141114
 20
2.5311521441
 30
0.0
 11
2.9039158153
 21
2.5311519718
 31
0.0
  0
LINE
  5
22D
330
1F
100
AcDbEntity
  8
PROFILES_OUTSIDE
100
AcDbLine
 10
75.3259165382
 20
19.4042229241
 30
0.0
 11
75.1601685067
 21
19.4042229241
 31
0.0
  0
LINE
  5
22E
330
1F
100
AcDbEntity
  8
PROFILES_OUTSIDE
100
AcDbLine
 10
75.3393058152
 20
19.1950154702
 30
0.0
 11
75.3259165382
 21
19.4042229241
 31
0.0
  0
LINE
  5
22F
330
1F
100
AcDbEntity
  8
PROFILES_OUTSIDE
100
AcDbLine
 10
75.9687402239
 20
19.158159932
 30
0.0
 11
75.3785955109
 21
19.158159932
 31
0.0
  0
LINE
  5
230
330
1F
100
AcDbEntity
  8
PROFILES_OUTSIDE
100
AcDbLine
 10
76.1050503964
 20
19.6503646564
 30
0.0
 11
76.1050503964
 21
19.5706867682
 31
0.0
  0
LINE
  5
231
330
1F
100
AcDbEntity
  8
PROFILES_OUTSIDE
100
AcDbLine
 10
81.5381212626
 20
19.6503646564
 30
0.0
 11
76.1050503964
 21
19.6503646564
 31
0.0
  0
LINE
  5
232
330
1F
100
AcDbEntity
  8
PROFILES_OUTSIDE
100
AcDbLine
 10
82.0105622075
 20
13.809839722
 30
0.0
 11
82.0105622075
 21
19.1779237115
 31
0.0
  0
LINE
  5
233
330
1F
100
AcDbEntity
  8
PROFILES_OUTSIDE
100
AcDbLine
 10
83.5066251996
 20
13.3373987771
 30
0.0
 11
82.4830031524
 21
13.3373987771
 31
0.0
  0
LINE
  5
234
330
1F
100
AcDbEntity
  8
PROFILES_OUTSIDE
100
AcDbLine
 10
83.9790661445
 20
19.1779237115
 30
0.0
 11
83.9790661445
 21
13.809839722
 31
0.0
  0
LINE
  5
235
330
1F
100
AcDbEntity
  8
PROFILES_INSIDE
100
AcDbLine
 10
41.2541448846
 20
18.3273049447
 30
0.0
 11
41.2541448846
 21
18.8180700374
 31
0.0
  0
LINE
  5
236
330
1F
100
AcDbEntity
  8
PROFILES_INSIDE
100
AcDbLine
 10
40.6824197523
 20
18.1909944915
 30
0.0
 11
40.8416180484
 21
18.1909946638
 31
0.0
  0
LINE
  5
237
330
1F
100
AcDbEntity
  8
PROFILES_INSIDE
100
AcDbLine
 10
40.2698928476
 20
18.8180704263
 30
0.0
 11
40.2698929161
 21
18.3273045558
 31
0.0
  0
LINE
  5
238
330
1F
100
AcDbEntity
  8
PROFILES_INSIDE
100
AcDbLine
 10
40.8416180484
 20
18.9543804906
 30
0.0
 11
40.6824197523
 21
18.9543802529
 31
0.0
  0
LINE
  5
239
330
1F
100
AcDbEntity
  8
PROFILES_INSIDE
100
AcDbLine
 10
24.7620425224
 20
18.3273049447
 30
0.0
 11
24.7620425224
 21
18.8180700374
 31
0.0
  0
LINE
  5
23A
330
1F
100
AcDbEntity
  8
PROFILES_INSIDE
100
AcDbLine
 10
24.3495156862
 20
18.9543804906
 30
0.0
 11
24.1903173901
 21
18.9543802945
 31
0.0
  0
LINE
  5
23B
330
1F
100
AcDbEntity
  8
PROFILES_INSIDE
100
AcDbLine
 10
23.7777904794
 20
18.8180704263
 30
0.0
 11
23.7777905539
 21
18.3273045558
 31
0.0
  0
LINE
  5
23C
330
1F
100
AcDbEntity
  8
PROFILES_INSIDE
100
AcDbLine
 10
24.1903173901
 20
18.1909944915
 30
0.0
 11
24.3495156862
 21
18.1909946638
 31
0.0
  0
LINE
  5
23D
330
1F
100
AcDbEntity
  8
PROFILES_INSIDE
100
AcDbLine
 10
41.2541448846
 20
1.9040765982
 30
0.0
 11
41.2541448846
 21
2.3948416909
 31
0.0
  0
LINE
  5
23E
330
1F
100
AcDbEntity
  8
PROFILES_INSIDE
100
AcDbLine
 10
40.8416180484
 20
2.5311521441
 30
0.0
 11
40.6824197523
 21
2.5311519659
 31
0.0
  0
LINE
  5
23F
330
1F
100
AcDbEntity
  8
PROFILES_INSIDE
100
AcDbLine
 10
40.2698928357
 20
2.3948420799
 30
0.0
 11
40.2698929161
 21
1.9040762093
 31
0.0
  0
LINE
  5
240
330
1F
100
AcDbEntity
  8
PROFILES_INSIDE
100
AcDbLine
 10
40.6824197523
 20
1.7677661451
 30
0.0
 11
40.8416180484
 21
1.7677663173
 31
0.0
  0
LINE
  5
241
330
1F
100
AcDbEntity
  8
PROFILES_OUTSIDE
100
AcDbLine
 10
89.8845779555
 20
19.6503646564
 30
0.0
 11
84.4515070894
 21
19.6503646564
 31
0.0
  0
LINE
  5
242
330
1F
100
AcDbEntity
  8
PROFILES_OUTSIDE
100
AcDbLine
 10
89.8845779555
 20
19.5706867682
 30
0.0
 11
89.8845779555
 21
19.6503646564
 31
0.0
  0
LINE
  5
243
330
1F
100
AcDbEntity
  8
PROFILES_OUTSIDE
100
AcDbLine
 10
90.611032841
 20
19.158159932
 30
0.0
 11
90.0208881281
 21
19.158159932
 31
0.0
  0
LINE
  5
244
330
1F
100
AcDbEntity
  8
PROFILES_OUTSIDE
100
AcDbLine
 10
90.6637118138
 20
19.4042229241
 30
0.0
 11
90.6503225367
 21
19.1950154702
 31
0.0
  0
LINE
  5
245
330
1F
100
AcDbEntity
  8
PROFILES_OUTSIDE
100
AcDbLine
 10
90.8294598453
 20
19.4042229241
 30
0.0
 11
90.6637118138
 21
19.4042229241
 31
0.0
  0
LINE
  5
246
330
1F
100
AcDbEntity
  8
PROFILES_INSIDE
100
AcDbLine
 10
23.7777904854
 20
2.3948420799
 30
0.0
 11
23.7777905539
 21
1.9040762093
 31
0.0
  0
LINE
  5
247
330
1F
100
AcDbEntity
  8
PROFILES_INSIDE
100
AcDbLine
 10
24.1903173901
 20
1.7677661451
 30
0.0
 11
24.3495156862
 21
1.7677663173
 31
0.0
  0
LINE
  5
248
330
1F
100
AcDbEntity
  8
PROFILES_INSIDE
100
AcDbLine
 10
24.7620425224
 20
1.9040765982
 30
0.0
 11
24.7620425224
 21
2.3948416909
 31
0.0
  0
LINE
  5
249
330
1F
100
AcDbEntity
  8
PROFILES_INSIDE
100
AcDbLine
 10
24.3495156862
 20
2.5311521441
 30
0.0
 11
24.1903173901
 21
2.5311519718
 31
0.0
  0
LINE
  5
24A
330
1F
100
AcDbEntity
  8
PROFILES_OUTSIDE
100
AcDbLine
 10
22.3022944909
 20
19.3020181997
 30
0.0
 11
22.3022944909
 21
1.4201284359
 31
0.0
  0
LINE
  5
24B
330
1F
100
AcDbEntity
  8
PROFILES_OUTSIDE
100
AcDbLine
 10
42.1074126012
 20
19.5382386722
 30
0.0
 11
22.5385149634
 21
19.5382386722
 31
0.0
  0
LINE
  5
24C
330
1F
100
AcDbEntity
  8
POCKETS
100
AcDbLine
 10
21.4700110264
 20
3.2878449714
 30
0.0
 11
21.076310239
 21
3.2878449714
 31
0.0
  0
LINE
  5
24D
330
1F
100
AcDbEntity
  8
PROFILES_OUTSIDE
100
AcDbLine
 10
90.868829924
 20
18.9022544202
 30
0.0
 11
90.868829924
 21
19.3648528454
 31
0.0
  0
LINE
  5
24E
330
1F
100
AcDbEntity
  8
PROFILES_OUTSIDE
100
AcDbLine
 10
85.2015070894
 20
18.6660339477
 30
0.0
 11
90.6326094516
 21
18.6660339477
 31
0.0
  0
LINE
  5
24F
330
1F
100
AcDbEntity
  8
PROFILES_OUTSIDE
100
AcDbLine
 10
84.7290661445
 20
13.3373987771
 30
0.0
 11
84.7290661445
 21
18.1935930029
 31
0.0
  0
LINE
  5
250
330
1F
100
AcDbEntity
  8
PROFILES_OUTSIDE
100
AcDbLine
 10
83.9790661445
 20
8.7959119484
 30
0.0
 11
83.9790661445
 21
12.0383606715
 31
0.0
  0
LINE
  5
251
330
1F
100
AcDbEntity
  8
PROFILES_OUTSIDE
100
AcDbLine
 10
84.7290661445
 20
2.640679617
 30
0.0
 11
84.7290661445
 21
7.4968738428
 31
0.0
  0
LINE
  5
252
330
1F
100
AcDbEntity
  8
PROFILES_OUTSIDE
100
AcDbLine
 10
90.6326094516
 20
2.1682386722
 30
0.0
 11
85.2015070894
 21
2.1682386722
 31
0.0
  0
LINE
  5
253
330
1F
100
AcDbEntity
  8
PROFILES_OUTSIDE
100
AcDbLine
 10
90.868829924
 20
1.4694197745
 30
0.0
 11
90.868829924
 21
1.9320181997
 31
0.0
  0
LINE
  5
254
330
1F
100
AcDbEntity
  8
PROFILES_OUTSIDE
100
AcDbLine
 10
90.6637118138
 20
1.4300496958
 30
0.0
 11
90.8294598453
 21
1.4300496958
 31
0.0
  0
LINE
  5
255
330
1F
100
AcDbEntity
  8
PROFILES_OUTSIDE
100
AcDbLine
 10
90.6503225367
 20
1.6392571497
 30
0.0
 11
90.6637118138
 21
1.4300496958
 31
0.0
  0
LINE
  5
256
330
1F
100
AcDbEntity
  8
PROFILES_OUTSIDE
100
AcDbLine
 10
90.0208881281
 20
1.6761126879
 30
0.0
 11
90.611032841
 21
1.6761126879
 31
0.0
  0
LINE
  5
257
330
1F
100
AcDbEntity
  8
PROFILES_OUTSIDE
100
AcDbLine
 10
89.8845779555
 20
1.1839079635
 30
0.0
 11
89.8845779555
 21
1.2635858517
 31
0.0
  0
LINE
  5
258
330
1F
100
AcDbEntity
  8
PROFILES_OUTSIDE
100
AcDbLine
 10
84.4515070894
 20
1.1839079635
 30
0.0
 11
89.8845779555
 21
1.1839079635
 31
0.0
  0
LINE
  5
259
330
1F
100
AcDbEntity
  8
PROFILES_OUTSIDE
100
AcDbLine
 10
83.9790661445
 20
7.0244328979
 30
0.0
 11
83.9790661445
 21
1.6563489084
 31
0.0
  0
LINE
  5
25A
330
1F
100
AcDbEntity
  8
PROFILES_OUTSIDE
100
AcDbLine
 10
82.4830031524
 20
7.4968738428
 30
0.0
 11
83.5066251996
 21
7.4968738428
 31
0.0
  0
LINE
  5
25B
330
1F
100
AcDbEntity
  8
PROFILES_OUTSIDE
100
AcDbLine
 10
82.0105622075
 20
1.6563489084
 30
0.0
 11
82.0105622075
 21
7.0244328979
 31
0.0
  0
LINE
  5
25C
330
1F
100
AcDbEntity
  8
PROFILES_OUTSIDE
100
AcDbLine
 10
76.1050503964
 20
1.1839079635
 30
0.0
 11
81.5381212626
 21
1.1839079635
 31
0.0
  0
LINE
  5
25D
330
1F
100
AcDbEntity
  8
POCKETS
100
AcDbLine
 10
21.4700110264
 20
2.5110733178
 30
0.0
 11
21.4700110264
 21
3.2878449714
 31
0.0
  0
LINE
  5
25E
330
1F
100
AcDbEntity
  8
POCKETS
100
AcDbLine
 10
21.076310239
 20
2.5110733178
 30
0.0
 11
21.4700110264
 21
2.5110733178
 31
0.0
  0
LINE
  5
25F
330
1F
100
AcDbEntity
  8
POCKETS
100
AcDbLine
 10
1.0082000027
 20
2.5110733178
 30
0.0
 11
21.076310239
 21
2.5110733178
 31
0.0
  0
LINE
  5
260
330
1F
100
AcDbEntity
  8
POCKETS
100
AcDbLine
 10
0.6144992153
 20
2.5110733178
 30
0.0
 11
1.0082000027
 21
2.5110733178
 31
0.0
  0
LINE
  5
261
330
1F
100
AcDbEntity
  8
POCKETS
100
AcDbLine
 10
0.6144992153
 20
3.2878449714
 30
0.0
 11
0.6144992153
 21
2.5110733178
 31
0.0
  0
LINE
  5
262
330
1F
100
AcDbEntity
  8
POCKETS
100
AcDbLine
 10
1.0082000027
 20
3.2878449714
 30
0.0
 11
0.6144992153
 21
3.2878449714
 31
0.0
  0
LINE
  5
263
330
1F
100
AcDbEntity
  8
POCKETS
100
AcDbLine
 10
18.7247354358
 20
3.2878449714
 30
0.0
 11
1.0082000027
 21
3.2878449714
 31
0.0
  0
LINE
  5
264
330
1F
100
AcDbEntity
  8
POCKETS
100
AcDbLine
 10
18.7247354358
 20
17.4343016643
 30
0.0
 11
18.7247354358
 21
3.2878449714
 31
0.0
  0
LINE
  5
265
330
1F
100
AcDbEntity
  8
POCKETS
100
AcDbLine
 10
1.0082000027
 20
17.4343016643
 30
0.0
 11
18.7247354358
 21
17.4343016643
 31
0.0
  0
LINE
  5
266
330
1F
100
AcDbEntity
  8
POCKETS
100
AcDbLine
 10
0.6144992153
 20
17.4343016643
 30
0.0
 11
1.0082000027
 21
17.4343016643
 31
0.0
  0
LINE
  5
267
330
1F
100
AcDbEntity
  8
POCKETS
100
AcDbLine
 10
0.6144992153
 20
18.2110733178
 30
0.0
 11
0.6144992153
 21
17.4343016643
 31
0.0
  0
LINE
  5
268
330
1F
100
AcDbEntity
  8
POCKETS
100
AcDbLine
 10
1.0082000027
 20
18.2110733178
 30
0.0
 11
0.6144992153
 21
18.2110733178
 31
0.0
  0
LINE
  5
269
330
1F
100
AcDbEntity
  8
POCKETS
100
AcDbLine
 10
21.076310239
 20
18.2110733178
 30
0.0
 11
1.0082000027
 21
18.2110733178
 31
0.0
  0
LINE
  5
26A
330
1F
100
AcDbEntity
  8
POCKETS
100
AcDbLine
 10
21.4700110264
 20
18.2110733178
 30
0.0
 11
21.076310239
 21
18.2110733178
 31
0.0
  0
LINE
  5
26B
330
1F
100
AcDbEntity
  8
POCKETS
100
AcDbLine
 10
21.4700110264
 20
17.4343016643
 30
0.0
 11
21.4700110264
 21
18.2110733178
 31
0.0
  0
LINE
  5
26C
330
1F
100
AcDbEntity
  8
POCKETS
100
AcDbLine
 10
21.076310239
 20
17.4343016643
 30
0.0
 11
21.4700110264
 21
17.4343016643
 31
0.0
  0
LINE
  5
26D
330
1F
100
AcDbEntity
  8
POCKETS
100
AcDbLine
 10
19.4881212626
 20
17.4343016643
 30
0.0
 11
21.076310239
 21
17.4343016643
 31
0.0
  0
LINE
  5
26E
330
1F
100
AcDbEntity
  8
PROFILES_OUTSIDE
100
AcDbLine
 10
76.1050503964
 20
1.2635858517
 30
0.0
 11
76.1050503964
 21
1.1839079635
 31
0.0
  0
LINE
  5
26F
330
1F
100
AcDbEntity
  8
PROFILES_OUTSIDE
100
AcDbLine
 10
75.3785955109
 20
1.6761126879
 30
0.0
 11
75.9687402239
 21
1.6761126879
 31
0.0
  0
LINE
  5
270
330
1F
100
AcDbEntity
  8
PROFILES_OUTSIDE
100
AcDbLine
 10
75.3259165382
 20
1.4300496958
 30
0.0
 11
75.3393058152
 21
1.6392571497
 31
0.0
  0
LINE
  5
271
330
1F
100
AcDbEntity
  8
PROFILES_OUTSIDE
100
AcDbLine
 10
75.1601685067
 20
1.4300496958
 30
0.0
 11
75.3259165382
 21
1.4300496958
 31
0.0
  0
LINE
  5
272
330
1F
100
AcDbEntity
  8
PROFILES_OUTSIDE
100
AcDbLine
 10
75.1207984279
 20
1.9320181997
 30
0.0
 11
75.1207984279
 21
1.4694197745
 31
0.0
  0
LINE
  5
273
330
1F
100
AcDbEntity
  8
PROFILES_OUTSIDE
100
AcDbLine
 10
80.7881212626
 20
2.1682386722
 30
0.0
 11
75.3570189004
 21
2.1682386722
 31
0.0
  0
LINE
  5
274
330
1F
100
AcDbEntity
  8
PROFILES_OUTSIDE
100
AcDbLine
 10
81.2605622075
 20
7.4968738428
 30
0.0
 11
81.2605622075
 21
2.640679617
 31
0.0
  0
LINE
  5
275
330
1F
100
AcDbEntity
  8
PROFILES_OUTSIDE
100
AcDbLine
 10
82.0105622075
 20
12.0383606715
 30
0.0
 11
82.0105622075
 21
8.7959119484
 31
0.0
  0
LINE
  5
276
330
1F
100
AcDbEntity
  8
PROFILES_OUTSIDE
100
AcDbLine
 10
81.2605622075
 20
18.1935930029
 30
0.0
 11
81.2605622075
 21
13.3373987771
 31
0.0
  0
LINE
  5
277
330
1F
100
AcDbEntity
  8
PROFILES_OUTSIDE
100
AcDbLine
 10
75.3570189004
 20
18.6660339477
 30
0.0
 11
80.7881212626
 21
18.6660339477
 31
0.0
  0
LINE
  5
278
330
1F
100
AcDbEntity
  8
PROFILES_OUTSIDE
100
AcDbLine
 10
75.1207984279
 20
19.3648528454
 30
0.0
 11
75.1207984279
 21
18.9022544202
 31
0.0
  0
LINE
  5
279
330
1F
100
AcDbEntity
  8
POCKETS
100
AcDbLine
 10
19.4881212626
 20
3.2878449714
 30
0.0
 11
19.4881212626
 21
17.4343016643
 31
0.0
  0
LINE
  5
27A
330
1F
100
AcDbEntity
  8
PROFILES_OUTSIDE
100
AcDbLine
 10
90.6637118138
 20
21.1357189871
 30
0.0
 11
90.8294598453
 21
21.1357189871
 31
0.0
  0
LINE
  5
27B
330
1F
100
AcDbEntity
  8
PROFILES_OUTSIDE
100
AcDbLine
 10
90.6503225367
 20
21.344926441
 30
0.0
 11
90.6637118138
 21
21.1357189871
 31
0.0
  0
LINE
  5
27C
330
1F
100
AcDbEntity
  8
PROFILES_OUTSIDE
100
AcDbLine
 10
90.0208881281
 20
21.3817819792
 30
0.0
 11
90.611032841
 21
21.3817819792
 31
0.0
  0
LINE
  5
27D
330
1F
100
AcDbEntity
  8
PROFILES_OUTSIDE
100
AcDbLine
 10
89.8845779555
 20
20.8895772548
 30
0.0
 11
89.8845779555
 21
20.969255143
 31
0.0
  0
LINE
  5
27E
330
1F
100
AcDbEntity
  8
PROFILES_OUTSIDE
100
AcDbLine
 10
84.4515070894
 20
20.8895772548
 30
0.0
 11
89.8845779555
 21
20.8895772548
 31
0.0
  0
LINE
  5
27F
330
1F
100
AcDbEntity
  8
PROFILES_OUTSIDE
100
AcDbLine
 10
83.9790661445
 20
26.7301021892
 30
0.0
 11
83.9790661445
 21
21.3620181997
 31
0.0
  0
LINE
  5
280
330
1F
100
AcDbEntity
  8
PROFILES_OUTSIDE
100
AcDbLine
 10
82.4830031524
 20
27.2025431341
 30
0.0
 11
83.5066251996
 21
27.2025431341
 31
0.0
  0
LINE
  5
281
330
1F
100
AcDbEntity
  8
PROFILES_OUTSIDE
100
AcDbLine
 10
82.0105622075
 20
21.3620181997
 30
0.0
 11
82.0105622075
 21
26.7301021892
 31
0.0
  0
LINE
  5
282
330
1F
100
AcDbEntity
  8
PROFILES_OUTSIDE
100
AcDbLine
 10
76.1050503964
 20
20.8895772548
 30
0.0
 11
81.5381212626
 21
20.8895772548
 31
0.0
  0
LINE
  5
283
330
1F
100
AcDbEntity
  8
PROFILES_OUTSIDE
100
AcDbLine
 10
76.1050503964
 20
20.969255143
 30
0.0
 11
76.1050503964
 21
20.8895772548
 31
0.0
  0
LINE
  5
284
330
1F
100
AcDbEntity
  8
PROFILES_OUTSIDE
100
AcDbLine
 10
75.3785955109
 20
21.3817819792
 30
0.0
 11
75.9687402239
 21
21.3817819792
 31
0.0
  0
LINE
  5
285
330
1F
100
AcDbEntity
  8
PROFILES_OUTSIDE
100
AcDbLine
 10
75.3259165382
 20
21.1357189871
 30
0.0
 11
75.3393058152
 21
21.344926441
 31
0.0
  0
LINE
  5
286
330
1F
100
AcDbEntity
  8
PROFILES_OUTSIDE
100
AcDbLine
 10
75.1601685067
 20
21.1357189871
 30
0.0
 11
75.3259165382
 21
21.1357189871
 31
0.0
  0
LINE
  5
287
330
1F
100
AcDbEntity
  8
PROFILES_OUTSIDE
100
AcDbLine
 10
75.1207984279
 20
21.637687491
 30
0.0
 11
75.1207984279
 21
21.1750890659
 31
0.0
  0
LINE
  5
288
330
1F
100
AcDbEntity
  8
PROFILES_OUTSIDE
100
AcDbLine
 10
80.7881212626
 20
21.8739079635
 30
0.0
 11
75.3570189004
 21
21.8739079635
 31
0.0
  0
LINE
  5
289
330
1F
100
AcDbEntity
  8
PROFILES_OUTSIDE
100
AcDbLine
 10
81.2605622075
 20
27.2025431341
 30
0.0
 11
81.2605622075
 21
22.3463489084
 31
0.0
  0
LINE
  5
28A
330
1F
100
AcDbEntity
  8
PROFILES_OUTSIDE
100
AcDbLine
 10
82.0105622075
 20
31.7440299628
 30
0.0
 11
82.0105622075
 21
28.5015812398
 31
0.0
  0
LINE
  5
28B
330
1F
100
AcDbEntity
  8
PROFILES_OUTSIDE
100
AcDbLine
 10
81.2605622075
 20
37.8992622942
 30
0.0
 11
81.2605622075
 21
33.0430680685
 31
0.0
  0
LINE
  5
28C
330
1F
100
AcDbEntity
  8
PROFILES_OUTSIDE
100
AcDbLine
 10
75.3570189004
 20
38.3717032391
 30
0.0
 11
80.7881212626
 21
38.3717032391
 31
0.0
  0
LINE
  5
28D
330
1F
100
AcDbEntity
  8
PROFILES_OUTSIDE
100
AcDbLine
 10
75.1207984279
 20
39.0705221367
 30
0.0
 11
75.1207984279
 21
38.6079237115
 31
0.0
  0
LINE
  5
28E
330
1F
100
AcDbEntity
  8
PROFILES_OUTSIDE
100
AcDbLine
 10
75.3259165382
 20
39.1098922155
 30
0.0
 11
75.1601685067
 21
39.1098922155
 31
0.0
  0
LINE
  5
28F
330
1F
100
AcDbEntity
  8
PROFILES_OUTSIDE
100
AcDbLine
 10
75.3393058152
 20
38.9006847615
 30
0.0
 11
75.3259165382
 21
39.1098922155
 31
0.0
  0
LINE
  5
290
330
1F
100
AcDbEntity
  8
PROFILES_OUTSIDE
100
AcDbLine
 10
75.9687402239
 20
38.8638292233
 30
0.0
 11
75.3785955109
 21
38.8638292233
 31
0.0
  0
LINE
  5
291
330
1F
100
AcDbEntity
  8
PROFILES_OUTSIDE
100
AcDbLine
 10
76.1050503964
 20
39.3560339477
 30
0.0
 11
76.1050503964
 21
39.2763560595
 31
0.0
  0
LINE
  5
292
330
1F
100
AcDbEntity
  8
PROFILES_OUTSIDE
100
AcDbLine
 10
81.5381212626
 20
39.3560339477
 30
0.0
 11
76.1050503964
 21
39.3560339477
 31
0.0
  0
LINE
  5
293
330
1F
100
AcDbEntity
  8
PROFILES_OUTSIDE
100
AcDbLine
 10
82.0105622075
 20
33.5155090134
 30
0.0
 11
82.0105622075
 21
38.8835930029
 31
0.0
  0
LINE
  5
294
330
1F
100
AcDbEntity
  8
PROFILES_OUTSIDE
100
AcDbLine
 10
83.5066251996
 20
33.0430680685
 30
0.0
 11
82.4830031524
 21
33.0430680685
 31
0.0
  0
LINE
  5
295
330
1F
100
AcDbEntity
  8
PROFILES_OUTSIDE
100
AcDbLine
 10
83.9790661445
 20
38.8835930029
 30
0.0
 11
83.9790661445
 21
33.5155090134
 31
0.0
  0
LINE
  5
296
330
1F
100
AcDbEntity
  8
PROFILES_OUTSIDE
100
AcDbLine
 10
89.8845779555
 20
39.3560339477
 30
0.0
 11
84.4515070894
 21
39.3560339477
 31
0.0
  0
LINE
  5
297
330
1F
100
AcDbEntity
  8
PROFILES_OUTSIDE
100
AcDbLine
 10
89.8845779555
 20
39.2763560595
 30
0.0
 11
89.8845779555
 21
39.3560339477
 31
0.0
  0
LINE
  5
298
330
1F
100
AcDbEntity
  8
PROFILES_OUTSIDE
100
AcDbLine
 10
90.611032841
 20
38.8638292233
 30
0.0
 11
90.0208881281
 21
38.8638292233
 31
0.0
  0
LINE
  5
299
330
1F
100
AcDbEntity
  8
PROFILES_OUTSIDE
100
AcDbLine
 10
90.6637118138
 20
39.1098922155
 30
0.0
 11
90.6503225367
 21
38.9006847615
 31
0.0
  0
LINE
  5
29A
330
1F
100
AcDbEntity
  8
PROFILES_OUTSIDE
100
AcDbLine
 10
90.8294598453
 20
39.1098922155
 30
0.0
 11
90.6637118138
 21
39.1098922155
 31
0.0
  0
LINE
  5
29B
330
1F
100
AcDbEntity
  8
PROFILES_OUTSIDE
100
AcDbLine
 10
90.868829924
 20
38.6079237115
 30
0.0
 11
90.868829924
 21
39.0705221367
 31
0.0
  0
LINE
  5
29C
330
1F
100
AcDbEntity
  8
PROFILES_OUTSIDE
100
AcDbLine
 10
85.2015070894
 20
38.3717032391
 30
0.0
 11
90.6326094516
 21
38.3717032391
 31
0.0
  0
LINE
  5
29D
330
1F
100
AcDbEntity
  8
PROFILES_OUTSIDE
100
AcDbLine
 10
84.7290661445
 20
33.0430680685
 30
0.0
 11
84.7290661445
 21
37.8992622942
 31
0.0
  0
LINE
  5
29E
330
1F
100
AcDbEntity
  8
PROFILES_OUTSIDE
100
AcDbLine
 10
83.9790661445
 20
28.5015812398
 30
0.0
 11
83.9790661445
 21
31.7440299628
 31
0.0
  0
LINE
  5
29F
330
1F
100
AcDbEntity
  8
PROFILES_OUTSIDE
100
AcDbLine
 10
84.7290661445
 20
22.3463489084
 30
0.0
 11
84.7290661445
 21
27.2025431341
 31
0.0
  0
LINE
  5
2A0
330
1F
100
AcDbEntity
  8
PROFILES_OUTSIDE
100
AcDbLine
 10
90.6326094516
 20
21.8739079635
 30
0.0
 11
85.2015070894
 21
21.8739079635
 31
0.0
  0
LINE
  5
2A1
330
1F
100
AcDbEntity
  8
PROFILES_OUTSIDE
100
AcDbLine
 10
90.868829924
 20
21.1750890659
 30
0.0
 11
90.868829924
 21
21.637687491
 31
0.0
  0
LINE
  5
2A2
330
1F
100
AcDbEntity
  8
POCKETS
100
AcDbLine
 10
21.076310239
 20
3.2878449714
 30
0.0
 11
19.4881212626
 21
3.2878449714
 31
0.0
  0
LINE
  5
2A3
330
1F
100
AcDbEntity
  8
POCKETS
100
AcDbLine
 10
40.768829924
 20
17.4343016643
 30
0.0
 11
42.3570189004
 21
17.4343016643
 31
0.0
  0
LINE
  5
2A4
330
1F
100
AcDbEntity
  8
POCKETS
100
AcDbLine
 10
42.3570189004
 20
17.4343016643
 30
0.0
 11
42.7507196878
 21
17.4343016643
 31
0.0
  0
LINE
  5
2A5
330
1F
100
AcDbEntity
  8
POCKETS
100
AcDbLine
 10
42.7507196878
 20
17.4343016643
 30
0.0
 11
42.7507196878
 21
18.2110733178
 31
0.0
  0
LINE
  5
2A6
330
1F
100
AcDbEntity
  8
POCKETS
100
AcDbLine
 10
42.7507196878
 20
18.2110733178
 30
0.0
 11
42.3570189004
 21
18.2110733178
 31
0.0
  0
LINE
  5
2A7
330
1F
100
AcDbEntity
  8
POCKETS
100
AcDbLine
 10
42.3570189004
 20
18.2110733178
 30
0.0
 11
22.2889086642
 21
18.2110733178
 31
0.0
  0
LINE
  5
2A8
330
1F
100
AcDbEntity
  8
POCKETS
100
AcDbLine
 10
22.2889086642
 20
18.2110733178
 30
0.0
 11
21.8952078768
 21
18.2110733178
 31
0.0
  0
LINE
  5
2A9
330
1F
100
AcDbEntity
  8
POCKETS
100
AcDbLine
 10
21.8952078768
 20
18.2110733178
 30
0.0
 11
21.8952078768
 21
17.4343016643
 31
0.0
  0
LINE
  5
2AA
330
1F
100
AcDbEntity
  8
POCKETS
100
AcDbLine
 10
21.8952078768
 20
17.4343016643
 30
0.0
 11
22.2889086642
 21
17.4343016643
 31
0.0
  0
LINE
  5
2AB
330
1F
100
AcDbEntity
  8
POCKETS
100
AcDbLine
 10
22.2889086642
 20
17.4343016643
 30
0.0
 11
40.0054440972
 21
17.4343016643
 31
0.0
  0
LINE
  5
2AC
330
1F
100
AcDbEntity
  8
POCKETS
100
AcDbLine
 10
40.0054440972
 20
17.4343016643
 30
0.0
 11
40.0054440972
 21
3.2878449714
 31
0.0
  0
LINE
  5
2AD
330
1F
100
AcDbEntity
  8
POCKETS
100
AcDbLine
 10
40.0054440972
 20
3.2878449714
 30
0.0
 11
22.2889086642
 21
3.2878449714
 31
0.0
  0
LINE
  5
2AE
330
1F
100
AcDbEntity
  8
POCKETS
100
AcDbLine
 10
22.2889086642
 20
3.2878449714
 30
0.0
 11
21.8952078768
 21
3.2878449714
 31
0.0
  0
LINE
  5
2AF
330
1F
100
AcDbEntity
  8
POCKETS
100
AcDbLine
 10
21.8952078768
 20
3.2878449714
 30
0.0
 11
21.8952078768
 21
2.5110733178
 31
0.0
  0
LINE
  5
2B0
330
1F
100
AcDbEntity
  8
POCKETS
100
AcDbLine
 10
21.8952078768
 20
2.5110733178
 30
0.0
 11
22.2889086642
 21
2.5110733178
 31
0.0
  0
LINE
  5
2B1
330
1F
100
AcDbEntity
  8
POCKETS
100
AcDbLine
 10
22.2889086642
 20
2.5110733178
 30
0.0
 11
42.3570189004
 21
2.5110733178
 31
0.0
  0
LINE
  5
2B2
330
1F
100
AcDbEntity
  8
POCKETS
100
AcDbLine
 10
42.3570189004
 20
2.5110733178
 30
0.0
 11
42.7507196878
 21
2.5110733178
 31
0.0
  0
LINE
  5
2B3
330
1F
100
AcDbEntity
  8
POCKETS
100
AcDbLine
 10
42.7507196878
 20
2.5110733178
 30
0.0
 11
42.7507196878
 21
3.2878449714
 31
0.0
  0
LINE
  5
2B4
330
1F
100
AcDbEntity
  8
POCKETS
100
AcDbLine
 10
42.7507196878
 20
3.2878449714
 30
0.0
 11
42.3570189004
 21
3.2878449714
 31
0.0
  0
LINE
  5
2B5
330
1F
100
AcDbEntity
  8
POCKETS
100
AcDbLine
 10
42.3570189004
 20
3.2878449714
 30
0.0
 11
40.768829924
 21
3.2878449714
 31
0.0
  0
LINE
  5
2B6
330
1F
100
AcDbEntity
  8
POCKETS
100
AcDbLine
 10
40.768829924
 20
3.2878449714
 30
0.0
 11
40.768829924
 21
17.4343016643
 31
0.0
  0
LINE
  5
2B7
330
1F
100
AcDbEntity
  8
PROFILES_OUTSIDE
100
AcDbLine
 10
22.5385149634
 20
1.1839079635
 30
0.0
 11
42.1074126012
 21
1.1839079635
 31
0.0
  0
ARC
  5
2B8
330
1F
100
AcDbEntity
  8
PROFILES_INSIDE
100
AcDbCircle
 10
20.5491448846
 20
8.5737490233
 30
0.0
 40
0.2362204724409449
100
AcDbArc
 50
280.0
 51
0.0
  0
ARC
  5
2B9
330
1F
100
AcDbEntity
  8
PROFILES_OUTSIDE
100
AcDbCircle
 10
90.8294598453
 20
19.3648528454
 30
0.0
 40
0.039370078740177
100
AcDbArc
 50
0.0
 51
90.0
  0
ARC
  5
2BA
330
1F
100
AcDbEntity
  8
PROFILES_INSIDE
100
AcDbCircle
 10
19.5609093444
 20
18.9937505693
 30
0.0
 40
0.0393700787401578
100
AcDbArc
 50
270.0000619979
 51
342.3995461274
  0
ARC
  5
2BB
330
1F
100
AcDbEntity
  8
PROFILES_INSIDE
100
AcDbCircle
 10
19.792451535
 20
18.9202990412
 30
0.0
 40
0.2035433070866161
100
AcDbArc
 50
335.1122143058
 51
162.3995461274
  0
ARC
  5
2BC
330
1F
100
AcDbEntity
  8
PROFILES_INSIDE
100
AcDbCircle
 10
20.0128080644
 20
18.8180700374
 30
0.0
 40
0.0393718412080908
100
AcDbArc
 50
155.1122143058
 51
180.0
  0
ARC
  5
2BD
330
1F
100
AcDbEntity
  8
PROFILES_INSIDE
100
AcDbCircle
 10
20.012806302
 20
18.3273049447
 30
0.0
 40
0.0393700787401592
100
AcDbArc
 50
180.0
 51
204.8879066246
  0
ARC
  5
2BE
330
1F
100
AcDbEntity
  8
PROFILES_INSIDE
100
AcDbCircle
 10
19.7924515871
 20
18.2250762175
 30
0.0
 40
0.2035433070866151
100
AcDbArc
 50
197.6004796991
 51
24.8879066246
  0
ARC
  5
2BF
330
1F
100
AcDbEntity
  8
PROFILES_INSIDE
100
AcDbCircle
 10
19.5609094296
 20
18.1516245851
 30
0.0
 40
0.0393700787401569
100
AcDbArc
 50
17.6004796991
 51
90.0000619979
  0
ARC
  5
2C0
330
1F
100
AcDbEntity
  8
PROFILES_INSIDE
100
AcDbCircle
 10
19.4017111335
 20
18.1516244128
 30
0.0
 40
0.0393700787401567
100
AcDbArc
 50
90.0000619979
 51
162.3995461274
  0
ARC
  5
2C1
330
1F
100
AcDbEntity
  8
PROFILES_INSIDE
100
AcDbCircle
 10
19.1701689429
 20
18.2250759409
 30
0.0
 40
0.2035433070866174
100
AcDbArc
 50
155.1121225719
 51
342.3995461274
  0
ARC
  5
2C2
330
1F
100
AcDbEntity
  8
PROFILES_INSIDE
100
AcDbCircle
 10
18.949814176
 20
18.3273045558
 30
0.0
 40
0.0393700787401595
100
AcDbArc
 50
335.1121225719
 51
0.0
  0
ARC
  5
2C3
330
1F
100
AcDbEntity
  8
PROFILES_INSIDE
100
AcDbCircle
 10
18.949814176
 20
18.8180704263
 30
0.0
 40
0.0393700101665928
100
AcDbArc
 50
0.0
 51
24.8878234094
  0
ARC
  5
2C4
330
1F
100
AcDbEntity
  8
PROFILES_INSIDE
100
AcDbCircle
 10
19.1701688908
 20
18.9202987646
 30
0.0
 40
0.2035432417046667
100
AcDbArc
 50
17.6004796991
 51
204.8878234094
  0
ARC
  5
2C5
330
1F
100
AcDbEntity
  8
PROFILES_INSIDE
100
AcDbCircle
 10
19.4017110483
 20
18.993750397
 30
0.0
 40
0.0393701441221079
100
AcDbArc
 50
197.6004796992
 51
270.0000619979
  0
ARC
  5
2C6
330
1F
100
AcDbEntity
  8
PROFILES_INSIDE
100
AcDbCircle
 10
3.5150127888
 20
18.8180700374
 30
0.0
 40
0.039371841208085
100
AcDbArc
 50
155.1122143058
 51
180.0
  0
ARC
  5
2C7
330
1F
100
AcDbEntity
  8
PROFILES_INSIDE
100
AcDbCircle
 10
3.2946562594
 20
18.9202990412
 30
0.0
 40
0.2035433070866145
100
AcDbArc
 50
335.1122143058
 51
162.3995461274
  0
ARC
  5
2C8
330
1F
100
AcDbEntity
  8
PROFILES_INSIDE
100
AcDbCircle
 10
3.0631140688
 20
18.9937505693
 30
0.0
 40
0.0393700787401616
100
AcDbArc
 50
270.0000619979
 51
342.3995461274
  0
ARC
  5
2C9
330
1F
100
AcDbEntity
  8
PROFILES_INSIDE
100
AcDbCircle
 10
2.9039157727
 20
18.993750397
 30
0.0
 40
0.0393701144030396
100
AcDbArc
 50
197.6004796991
 51
270.0000619979
  0
ARC
  5
2CA
330
1F
100
AcDbEntity
  8
PROFILES_INSIDE
100
AcDbCircle
 10
2.6723736152
 20
18.9202987646
 30
0.0
 40
0.2035432714237299
100
AcDbArc
 50
17.6004796991
 51
204.8878234094
  0
ARC
  5
2CB
330
1F
100
AcDbEntity
  8
PROFILES_INSIDE
100
AcDbCircle
 10
2.4520189004
 20
18.8180704263
 30
0.0
 40
0.0393700042227749
100
AcDbArc
 50
0.0
 51
24.8878234094
  0
ARC
  5
2CC
330
1F
100
AcDbEntity
  8
PROFILES_INSIDE
100
AcDbCircle
 10
2.4520189004
 20
18.3273045558
 30
0.0
 40
0.0393700787401587
100
AcDbArc
 50
335.1121225719
 51
0.0
  0
ARC
  5
2CD
330
1F
100
AcDbEntity
  8
PROFILES_INSIDE
100
AcDbCircle
 10
2.6723736673
 20
18.2250759409
 30
0.0
 40
0.2035433070866154
100
AcDbArc
 50
155.1121225719
 51
342.3995461274
  0
ARC
  5
2CE
330
1F
100
AcDbEntity
  8
PROFILES_INSIDE
100
AcDbCircle
 10
2.9039158579
 20
18.1516244128
 30
0.0
 40
0.0393700787401574
100
AcDbArc
 50
90.0000619979
 51
162.3995461274
  0
ARC
  5
2CF
330
1F
100
AcDbEntity
  8
PROFILES_INSIDE
100
AcDbCircle
 10
3.063114154
 20
18.1516245851
 30
0.0
 40
0.0393700787401603
100
AcDbArc
 50
17.6004796991
 51
90.0000619979
  0
ARC
  5
2D0
330
1F
100
AcDbEntity
  8
PROFILES_INSIDE
100
AcDbCircle
 10
3.2946563115
 20
18.2250762175
 30
0.0
 40
0.203543307086613
100
AcDbArc
 50
197.6004796991
 51
24.8879066246
  0
ARC
  5
2D1
330
1F
100
AcDbEntity
  8
PROFILES_INSIDE
100
AcDbCircle
 10
3.5150110264
 20
18.3273049447
 30
0.0
 40
0.0393700787401632
100
AcDbArc
 50
180.0
 51
204.8879066246
  0
ARC
  5
2D2
330
1F
100
AcDbEntity
  8
PROFILES_INSIDE
100
AcDbCircle
 10
19.7924515871
 20
1.8018478711
 30
0.0
 40
0.2035433070866149
100
AcDbArc
 50
197.6004796991
 51
24.8879066246
  0
ARC
  5
2D3
330
1F
100
AcDbEntity
  8
PROFILES_INSIDE
100
AcDbCircle
 10
20.012806302
 20
1.9040765982
 30
0.0
 40
0.0393700787401607
100
AcDbArc
 50
180.0
 51
204.8879066246
  0
ARC
  5
2D4
330
1F
100
AcDbEntity
  8
PROFILES_INSIDE
100
AcDbCircle
 10
20.0128080644
 20
2.3948416909
 30
0.0
 40
0.0393718412080908
100
AcDbArc
 50
155.1122143058
 51
180.0
  0
ARC
  5
2D5
330
1F
100
AcDbEntity
  8
PROFILES_INSIDE
100
AcDbCircle
 10
19.792451535
 20
2.4970706947
 30
0.0
 40
0.2035433070866163
100
AcDbArc
 50
335.1122143058
 51
162.3995461274
  0
ARC
  5
2D6
330
1F
100
AcDbEntity
  8
PROFILES_INSIDE
100
AcDbCircle
 10
19.5609093444
 20
2.5705222228
 30
0.0
 40
0.0393700787401568
100
AcDbArc
 50
270.0000619979
 51
342.3995461274
  0
ARC
  5
2D7
330
1F
100
AcDbEntity
  8
PROFILES_INSIDE
100
AcDbCircle
 10
19.4017110483
 20
2.5705220506
 30
0.0
 40
0.0393701084592267
100
AcDbArc
 50
197.6004796991
 51
270.0000619979
  0
ARC
  5
2D8
330
1F
100
AcDbEntity
  8
PROFILES_INSIDE
100
AcDbCircle
 10
19.1701688908
 20
2.4970704181
 30
0.0
 40
0.2035432773675439
100
AcDbArc
 50
17.6004796991
 51
204.8878234094
  0
ARC
  5
2D9
330
1F
100
AcDbEntity
  8
PROFILES_INSIDE
100
AcDbCircle
 10
18.949814176
 20
2.3948420799
 30
0.0
 40
0.039369998278957
100
AcDbArc
 50
0.0
 51
24.8878234094
  0
ARC
  5
2DA
330
1F
100
AcDbEntity
  8
PROFILES_INSIDE
100
AcDbCircle
 10
18.949814176
 20
1.9040762093
 30
0.0
 40
0.0393700787401612
100
AcDbArc
 50
335.1121225719
 51
0.0
  0
ARC
  5
2DB
330
1F
100
AcDbEntity
  8
PROFILES_INSIDE
100
AcDbCircle
 10
19.1701689429
 20
1.8018475944
 30
0.0
 40
0.2035433070866122
100
AcDbArc
 50
155.1121225719
 51
342.3995461274
  0
ARC
  5
2DC
330
1F
100
AcDbEntity
  8
PROFILES_INSIDE
100
AcDbCircle
 10
19.4017111335
 20
1.7283960663
 30
0.0
 40
0.0393700787401587
100
AcDbArc
 50
90.0000619979
 51
162.3995461274
  0
ARC
  5
2DD
330
1F
100
AcDbEntity
  8
PROFILES_INSIDE
100
AcDbCircle
 10
19.5609094296
 20
1.7283962386
 30
0.0
 40
0.0393700787401587
100
AcDbArc
 50
17.6004796991
 51
90.0000619979
  0
ARC
  5
2DE
330
1F
100
AcDbEntity
  8
PROFILES_INSIDE
100
AcDbCircle
 10
2.4520189004
 20
1.9040762093
 30
0.0
 40
0.0393700787401574
100
AcDbArc
 50
335.1121225719
 51
0.0
  0
ARC
  5
2DF
330
1F
100
AcDbEntity
  8
PROFILES_INSIDE
100
AcDbCircle
 10
2.6723736673
 20
1.8018475944
 30
0.0
 40
0.2035433070866187
100
AcDbArc
 50
155.1121225719
 51
342.3995461274
  0
ARC
  5
2E0
330
1F
100
AcDbEntity
  8
PROFILES_INSIDE
100
AcDbCircle
 10
2.9039158579
 20
1.7283960663
 30
0.0
 40
0.0393700787401587
100
AcDbArc
 50
90.0000619979
 51
162.3995461274
  0
ARC
  5
2E1
330
1F
100
AcDbEntity
  8
PROFILES_INSIDE
100
AcDbCircle
 10
3.063114154
 20
1.7283962386
 30
0.0
 40
0.0393700787401598
100
AcDbArc
 50
17.6004796991
 51
90.0000619979
  0
ARC
  5
2E2
330
1F
100
AcDbEntity
  8
PROFILES_INSIDE
100
AcDbCircle
 10
3.2946563115
 20
1.8018478711
 30
0.0
 40
0.2035433070866114
100
AcDbArc
 50
197.6004796991
 51
24.8879066246
  0
ARC
  5
2E3
330
1F
100
AcDbEntity
  8
PROFILES_INSIDE
100
AcDbCircle
 10
3.5150110264
 20
1.9040765982
 30
0.0
 40
0.0393700787401609
100
AcDbArc
 50
180.0
 51
204.8879066246
  0
ARC
  5
2E4
330
1F
100
AcDbEntity
  8
PROFILES_INSIDE
100
AcDbCircle
 10
3.5150127888
 20
2.3948416909
 30
0.0
 40
0.0393718412080895
100
AcDbArc
 50
155.1122143058
 51
180.0
  0
ARC
  5
2E5
330
1F
100
AcDbEntity
  8
PROFILES_INSIDE
100
AcDbCircle
 10
3.2946562594
 20
2.4970706947
 30
0.0
 40
0.2035433070866147
100
AcDbArc
 50
335.1122143058
 51
162.3995461274
  0
ARC
  5
2E6
330
1F
100
AcDbEntity
  8
PROFILES_INSIDE
100
AcDbCircle
 10
3.0631140688
 20
2.5705222228
 30
0.0
 40
0.0393700787401605
100
AcDbArc
 50
270.0000619979
 51
342.3995461274
  0
ARC
  5
2E7
330
1F
100
AcDbEntity
  8
PROFILES_INSIDE
100
AcDbCircle
 10
2.9039157727
 20
2.5705220506
 30
0.0
 40
0.0393700846839666
100
AcDbArc
 50
197.6004796992
 51
270.0000619979
  0
ARC
  5
2E8
330
1F
100
AcDbEntity
  8
PROFILES_INSIDE
100
AcDbCircle
 10
2.6723736152
 20
2.4970704181
 30
0.0
 40
0.203543301142803
100
AcDbArc
 50
17.6004796991
 51
204.8878234094
  0
ARC
  5
2E9
330
1F
100
AcDbEntity
  8
PROFILES_INSIDE
100
AcDbCircle
 10
2.4520189004
 20
2.3948420799
 30
0.0
 40
0.0393700101665897
100
AcDbArc
 50
0.0
 51
24.8878234094
  0
ARC
  5
2EA
330
1F
100
AcDbEntity
  8
PROFILES_INSIDE
100
AcDbCircle
 10
40.8416180058
 20
18.9937505693
 30
0.0
 40
0.0393700787401574
100
AcDbArc
 50
270.0000619979
 51
342.3995461274
  0
ARC
  5
2EB
330
1F
100
AcDbEntity
  8
PROFILES_INSIDE
100
AcDbCircle
 10
41.0731601964
 20
18.9202990412
 30
0.0
 40
0.2035433070866174
100
AcDbArc
 50
335.1122143058
 51
162.3995461274
  0
ARC
  5
2EC
330
1F
100
AcDbEntity
  8
PROFILES_INSIDE
100
AcDbCircle
 10
41.2935167258
 20
18.8180700374
 30
0.0
 40
0.0393718412080943
100
AcDbArc
 50
155.1122143058
 51
180.0
  0
ARC
  5
2ED
330
1F
100
AcDbEntity
  8
PROFILES_INSIDE
100
AcDbCircle
 10
41.2935149634
 20
18.3273049447
 30
0.0
 40
0.0393700787401556
100
AcDbArc
 50
180.0
 51
204.8879066246
  0
ARC
  5
2EE
330
1F
100
AcDbEntity
  8
PROFILES_INSIDE
100
AcDbCircle
 10
41.0731602485
 20
18.2250762175
 30
0.0
 40
0.2035433070866184
100
AcDbArc
 50
197.6004796991
 51
24.8879066246
  0
ARC
  5
2EF
330
1F
100
AcDbEntity
  8
PROFILES_INSIDE
100
AcDbCircle
 10
40.841618091
 20
18.1516245851
 30
0.0
 40
0.0393700787401574
100
AcDbArc
 50
17.6004796991
 51
90.0000619979
  0
ARC
  5
2F0
330
1F
100
AcDbEntity
  8
PROFILES_INSIDE
100
AcDbCircle
 10
40.6824197949
 20
18.1516244128
 30
0.0
 40
0.0393700787401574
100
AcDbArc
 50
90.0000619979
 51
162.3995461274
  0
ARC
  5
2F1
330
1F
100
AcDbEntity
  8
PROFILES_INSIDE
100
AcDbCircle
 10
40.4508776043
 20
18.2250759409
 30
0.0
 40
0.2035433070866166
100
AcDbArc
 50
155.1121225719
 51
342.3995461274
  0
ARC
  5
2F2
330
1F
100
AcDbEntity
  8
PROFILES_INSIDE
100
AcDbCircle
 10
40.2305228374
 20
18.3273045558
 30
0.0
 40
0.0393700787401531
100
AcDbArc
 50
335.1121225718
 51
0.0
  0
ARC
  5
2F3
330
1F
100
AcDbEntity
  8
PROFILES_INSIDE
100
AcDbCircle
 10
40.2305228374
 20
18.8180704263
 30
0.0
 40
0.0393700101665857
100
AcDbArc
 50
0.0
 51
24.8878234094
  0
ARC
  5
2F4
330
1F
100
AcDbEntity
  8
PROFILES_INSIDE
100
AcDbCircle
 10
40.4508775522
 20
18.9202987646
 30
0.0
 40
0.2035432417046576
100
AcDbArc
 50
17.6004796991
 51
204.8878234094
  0
ARC
  5
2F5
330
1F
100
AcDbEntity
  8
PROFILES_INSIDE
100
AcDbCircle
 10
40.6824197097
 20
18.993750397
 30
0.0
 40
0.0393701441221133
100
AcDbArc
 50
197.6004796991
 51
270.0000619979
  0
ARC
  5
2F6
330
1F
100
AcDbEntity
  8
PROFILES_INSIDE
100
AcDbCircle
 10
24.8014143636
 20
18.8180700374
 30
0.0
 40
0.0393718412080908
100
AcDbArc
 50
155.1122143058
 51
180.0
  0
ARC
  5
2F7
330
1F
100
AcDbEntity
  8
PROFILES_INSIDE
100
AcDbCircle
 10
24.5810578342
 20
18.9202990412
 30
0.0
 40
0.2035433070866161
100
AcDbArc
 50
335.1122143058
 51
162.3995461274
  0
ARC
  5
2F8
330
1F
100
AcDbEntity
  8
PROFILES_INSIDE
100
AcDbCircle
 10
24.3495156436
 20
18.9937505693
 30
0.0
 40
0.0393700787401538
100
AcDbArc
 50
270.0000619979
 51
342.3995461274
  0
ARC
  5
2F9
330
1F
100
AcDbEntity
  8
PROFILES_INSIDE
100
AcDbCircle
 10
24.1903173475
 20
18.993750397
 30
0.0
 40
0.0393701144030411
100
AcDbArc
 50
197.6004796992
 51
270.0000619979
  0
ARC
  5
2FA
330
1F
100
AcDbEntity
  8
PROFILES_INSIDE
100
AcDbCircle
 10
23.95877519
 20
18.9202987646
 30
0.0
 40
0.2035432714237322
100
AcDbArc
 50
17.6004796991
 51
204.8878234094
  0
ARC
  5
2FB
330
1F
100
AcDbEntity
  8
PROFILES_INSIDE
100
AcDbCircle
 10
23.7384204752
 20
18.8180704263
 30
0.0
 40
0.0393700042227749
100
AcDbArc
 50
0.0
 51
24.8878234094
  0
ARC
  5
2FC
330
1F
100
AcDbEntity
  8
PROFILES_INSIDE
100
AcDbCircle
 10
23.7384204752
 20
18.3273045558
 30
0.0
 40
0.0393700787401556
100
AcDbArc
 50
335.1121225719
 51
0.0
  0
ARC
  5
2FD
330
1F
100
AcDbEntity
  8
PROFILES_INSIDE
100
AcDbCircle
 10
23.9587752421
 20
18.2250759409
 30
0.0
 40
0.2035433070866174
100
AcDbArc
 50
155.1121225719
 51
342.3995461274
  0
ARC
  5
2FE
330
1F
100
AcDbEntity
  8
PROFILES_INSIDE
100
AcDbCircle
 10
24.1903174327
 20
18.1516244128
 30
0.0
 40
0.0393700787401611
100
AcDbArc
 50
90.0000619979
 51
162.3995461274
  0
ARC
  5
2FF
330
1F
100
AcDbEntity
  8
PROFILES_INSIDE
100
AcDbCircle
 10
24.3495157288
 20
18.1516245851
 30
0.0
 40
0.0393700787401609
100
AcDbArc
 50
17.6004796991
 51
90.0000619979
  0
ARC
  5
300
330
1F
100
AcDbEntity
  8
PROFILES_INSIDE
100
AcDbCircle
 10
24.5810578863
 20
18.2250762175
 30
0.0
 40
0.2035433070866207
100
AcDbArc
 50
197.6004796991
 51
24.8879066246
  0
ARC
  5
301
330
1F
100
AcDbEntity
  8
PROFILES_INSIDE
100
AcDbCircle
 10
24.8014126012
 20
18.3273049447
 30
0.0
 40
0.0393700787401627
100
AcDbArc
 50
180.0
 51
204.8879066246
  0
ARC
  5
302
330
1F
100
AcDbEntity
  8
PROFILES_INSIDE
100
AcDbCircle
 10
41.0731602485
 20
1.8018478711
 30
0.0
 40
0.2035433070866182
100
AcDbArc
 50
197.6004796991
 51
24.8879066246
  0
ARC
  5
303
330
1F
100
AcDbEntity
  8
PROFILES_INSIDE
100
AcDbCircle
 10
41.2935149634
 20
1.9040765982
 30
0.0
 40
0.0393700787401556
100
AcDbArc
 50
180.0
 51
204.8879066246
  0
ARC
  5
304
330
1F
100
AcDbEntity
  8
PROFILES_INSIDE
100
AcDbCircle
 10
41.2935167258
 20
2.3948416909
 30
0.0
 40
0.0393718412080872
100
AcDbArc
 50
155.1122143058
 51
180.0
  0
ARC
  5
305
330
1F
100
AcDbEntity
  8
PROFILES_INSIDE
100
AcDbCircle
 10
41.0731601964
 20
2.4970706947
 30
0.0
 40
0.2035433070866163
100
AcDbArc
 50
335.1122143058
 51
162.3995461274
  0
ARC
  5
306
330
1F
100
AcDbEntity
  8
PROFILES_INSIDE
100
AcDbCircle
 10
40.8416180058
 20
2.5705222228
 30
0.0
 40
0.0393700787401568
100
AcDbArc
 50
270.0000619979
 51
342.3995461274
  0
ARC
  5
307
330
1F
100
AcDbEntity
  8
PROFILES_INSIDE
100
AcDbCircle
 10
40.6824197097
 20
2.5705220506
 30
0.0
 40
0.0393701084592235
100
AcDbArc
 50
197.6004796992
 51
270.0000619979
  0
ARC
  5
308
330
1F
100
AcDbEntity
  8
PROFILES_INSIDE
100
AcDbCircle
 10
40.4508775522
 20
2.4970704181
 30
0.0
 40
0.2035432773675466
100
AcDbArc
 50
17.6004796991
 51
204.8878234094
  0
ARC
  5
309
330
1F
100
AcDbEntity
  8
PROFILES_INSIDE
100
AcDbCircle
 10
40.2305228374
 20
2.3948420799
 30
0.0
 40
0.039369998278957
100
AcDbArc
 50
0.0
 51
24.8878234094
  0
ARC
  5
30A
330
1F
100
AcDbEntity
  8
PROFILES_INSIDE
100
AcDbCircle
 10
40.2305228374
 20
1.9040762093
 30
0.0
 40
0.0393700787401533
100
AcDbArc
 50
335.1121225718
 51
0.0
  0
ARC
  5
30B
330
1F
100
AcDbEntity
  8
PROFILES_INSIDE
100
AcDbCircle
 10
40.4508776043
 20
1.8018475944
 30
0.0
 40
0.2035433070866165
100
AcDbArc
 50
155.1121225719
 51
342.3995461274
  0
ARC
  5
30C
330
1F
100
AcDbEntity
  8
PROFILES_INSIDE
100
AcDbCircle
 10
40.6824197949
 20
1.7283960663
 30
0.0
 40
0.0393700787401587
100
AcDbArc
 50
90.0000619979
 51
162.3995461274
  0
ARC
  5
30D
330
1F
100
AcDbEntity
  8
PROFILES_INSIDE
100
AcDbCircle
 10
40.841618091
 20
1.7283962386
 30
0.0
 40
0.0393700787401563
100
AcDbArc
 50
17.6004796991
 51
90.0000619979
  0
ARC
  5
30E
330
1F
100
AcDbEntity
  8
PROFILES_INSIDE
100
AcDbCircle
 10
23.7384204752
 20
1.9040762093
 30
0.0
 40
0.0393700787401631
100
AcDbArc
 50
335.1121225719
 51
0.0
  0
ARC
  5
30F
330
1F
100
AcDbEntity
  8
PROFILES_INSIDE
100
AcDbCircle
 10
23.9587752421
 20
1.8018475944
 30
0.0
 40
0.2035433070866169
100
AcDbArc
 50
155.1121225719
 51
342.3995461274
  0
ARC
  5
310
330
1F
100
AcDbEntity
  8
PROFILES_INSIDE
100
AcDbCircle
 10
24.1903174327
 20
1.7283960663
 30
0.0
 40
0.0393700787401587
100
AcDbArc
 50
90.0000619979
 51
162.3995461274
  0
ARC
  5
311
330
1F
100
AcDbEntity
  8
PROFILES_INSIDE
100
AcDbCircle
 10
24.3495157288
 20
1.7283962386
 30
0.0
 40
0.0393700787401611
100
AcDbArc
 50
17.6004796991
 51
90.0000619979
  0
ARC
  5
312
330
1F
100
AcDbEntity
  8
PROFILES_INSIDE
100
AcDbCircle
 10
24.5810578863
 20
1.8018478711
 30
0.0
 40
0.2035433070866136
100
AcDbArc
 50
197.6004796991
 51
24.8879066246
  0
ARC
  5
313
330
1F
100
AcDbEntity
  8
PROFILES_INSIDE
100
AcDbCircle
 10
24.8014126012
 20
1.9040765982
 30
0.0
 40
0.0393700787401607
100
AcDbArc
 50
180.0
 51
204.8879066246
  0
ARC
  5
314
330
1F
100
AcDbEntity
  8
PROFILES_INSIDE
100
AcDbCircle
 10
24.8014143636
 20
2.3948416909
 30
0.0
 40
0.0393718412080908
100
AcDbArc
 50
155.1122143058
 51
180.0
  0
ARC
  5
315
330
1F
100
AcDbEntity
  8
PROFILES_INSIDE
100
AcDbCircle
 10
24.5810578342
 20
2.4970706947
 30
0.0
 40
0.2035433070866163
100
AcDbArc
 50
335.1122143058
 51
162.3995461274
  0
ARC
  5
316
330
1F
100
AcDbEntity
  8
PROFILES_INSIDE
100
AcDbCircle
 10
24.3495156436
 20
2.5705222228
 30
0.0
 40
0.0393700787401587
100
AcDbArc
 50
270.0000619979
 51
342.3995461274
  0
ARC
  5
317
330
1F
100
AcDbEntity
  8
PROFILES_INSIDE
100
AcDbCircle
 10
24.1903173475
 20
2.5705220506
 30
0.0
 40
0.0393700846839711
100
AcDbArc
 50
197.6004796991
 51
270.0000619979
  0
ARC
  5
318
330
1F
100
AcDbEntity
  8
PROFILES_INSIDE
100
AcDbCircle
 10
23.95877519
 20
2.4970704181
 30
0.0
 40
0.203543301142803
100
AcDbArc
 50
17.6004796991
 51
204.8878234094
  0
ARC
  5
319
330
1F
100
AcDbEntity
  8
PROFILES_INSIDE
100
AcDbCircle
 10
23.7384204752
 20
2.3948420799
 30
0.0
 40
0.0393700101665928
100
AcDbArc
 50
0.0
 51
24.8878234094
  0
ARC
  5
31A
330
1F
100
AcDbEntity
  8
PROFILES_OUTSIDE
100
AcDbCircle
 10
22.5385149634
 20
19.3020181997
 30
0.0
 40
0.236220472440948
100
AcDbArc
 50
90.0
 51
180.0
  0
ARC
  5
31B
330
1F
100
AcDbEntity
  8
PROFILES_OUTSIDE
100
AcDbCircle
 10
42.1074126012
 20
19.3020181997
 30
0.0
 40
0.2362204724409445
100
AcDbArc
 50
360.0
 51
90.0
  0
ARC
  5
31C
330
1F
100
AcDbEntity
  8
PROFILES_OUTSIDE
100
AcDbCircle
 10
42.1074126012
 20
1.4201284359
 30
0.0
 40
0.2362204724409409
100
AcDbArc
 50
270.0
 51
0.0
  0
ARC
  5
31D
330
1F
100
AcDbEntity
  8
PROFILES_OUTSIDE
100
AcDbCircle
 10
22.5385149634
 20
1.4201284359
 30
0.0
 40
0.2362204724409451
100
AcDbArc
 50
180.0
 51
270.0
  0
ARC
  5
31E
330
1F
100
AcDbEntity
  8
PROFILES_OUTSIDE
100
AcDbCircle
 10
85.2015070894
 20
18.1935930029
 30
0.0
 40
0.4724409448818889
100
AcDbArc
 50
90.0
 51
180.0
  0
ARC
  5
31F
330
1F
100
AcDbEntity
  8
PROFILES_OUTSIDE
100
AcDbCircle
 10
85.2015070894
 20
2.640679617
 30
0.0
 40
0.4724409448819102
100
AcDbArc
 50
180.0
 51
270.0
  0
ARC
  5
320
330
1F
100
AcDbEntity
  8
PROFILES_OUTSIDE
100
AcDbCircle
 10
90.8294598453
 20
1.4694197745
 30
0.0
 40
0.039370078740177
100
AcDbArc
 50
270.0
 51
0.0
  0
ARC
  5
321
330
1F
100
AcDbEntity
  8
PROFILES_OUTSIDE
100
AcDbCircle
 10
75.3785955109
 20
19.1975300107
 30
0.0
 40
0.0393700787401588
100
AcDbArc
 50
183.6619355755
 51
270.0
  0
ARC
  5
322
330
1F
100
AcDbEntity
  8
PROFILES_OUTSIDE
100
AcDbCircle
 10
75.9687402239
 20
19.1187898533
 30
0.0
 40
0.0393700787401592
100
AcDbArc
 50
65.1121079736
 51
90.0
  0
ARC
  5
323
330
1F
100
AcDbEntity
  8
PROFILES_OUTSIDE
100
AcDbCircle
 10
76.0709688949
 20
19.3391445942
 30
0.0
 40
0.2035433070866204
100
AcDbArc
 50
245.1121079736
 51
72.3995332141
  0
ARC
  5
324
330
1F
100
AcDbEntity
  8
PROFILES_OUTSIDE
100
AcDbCircle
 10
76.1444204752
 20
19.5706867682
 30
0.0
 40
0.0393700787401627
100
AcDbArc
 50
180.0
 51
252.3995332141
  0
ARC
  5
325
330
1F
100
AcDbEntity
  8
PROFILES_OUTSIDE
100
AcDbCircle
 10
81.5381212626
 20
19.1779237115
 30
0.0
 40
0.4724409448818925
100
AcDbArc
 50
0.0
 51
90.0
  0
ARC
  5
326
330
1F
100
AcDbEntity
  8
PROFILES_OUTSIDE
100
AcDbCircle
 10
82.4830031524
 20
13.809839722
 30
0.0
 40
0.4724409448819102
100
AcDbArc
 50
180.0
 51
270.0
  0
ARC
  5
327
330
1F
100
AcDbEntity
  8
PROFILES_OUTSIDE
100
AcDbCircle
 10
83.5066251996
 20
13.809839722
 30
0.0
 40
0.4724409448818907
100
AcDbArc
 50
270.0
 51
0.0
  0
ARC
  5
328
330
1F
100
AcDbEntity
  8
PROFILES_OUTSIDE
100
AcDbCircle
 10
84.4515070894
 20
19.1779237115
 30
0.0
 40
0.472440944881896
100
AcDbArc
 50
90.0
 51
180.0
  0
ARC
  5
329
330
1F
100
AcDbEntity
  8
PROFILES_OUTSIDE
100
AcDbCircle
 10
89.8452078768
 20
19.5706867682
 30
0.0
 40
0.0393700787401526
100
AcDbArc
 50
287.6004667858
 51
0.0
  0
ARC
  5
32A
330
1F
100
AcDbEntity
  8
PROFILES_OUTSIDE
100
AcDbCircle
 10
89.9186594571
 20
19.3391445942
 30
0.0
 40
0.2035433070866144
100
AcDbArc
 50
107.6004667859
 51
294.8878920264
  0
ARC
  5
32B
330
1F
100
AcDbEntity
  8
PROFILES_OUTSIDE
100
AcDbCircle
 10
90.0208881281
 20
19.1187898533
 30
0.0
 40
0.0393700787401592
100
AcDbArc
 50
90.0
 51
114.8878920264
  0
ARC
  5
32C
330
1F
100
AcDbEntity
  8
PROFILES_OUTSIDE
100
AcDbCircle
 10
90.611032841
 20
19.1975300107
 30
0.0
 40
0.039370078740159
100
AcDbArc
 50
270.0
 51
356.3380644245
  0
ARC
  5
32D
330
1F
100
AcDbEntity
  8
PROFILES_OUTSIDE
100
AcDbCircle
 10
90.6326094516
 20
18.9022544202
 30
0.0
 40
0.236220472440948
100
AcDbArc
 50
270.0
 51
0.0
  0
ARC
  5
32E
330
1F
100
AcDbEntity
  8
PROFILES_OUTSIDE
100
AcDbCircle
 10
75.1601685067
 20
1.4694197745
 30
0.0
 40
0.0393700787401627
100
AcDbArc
 50
180.0
 51
270.0
  0
ARC
  5
32F
330
1F
100
AcDbEntity
  8
PROFILES_OUTSIDE
100
AcDbCircle
 10
83.9790661445
 20
13.3373987771
 30
0.0
 40
0.7500000000000142
100
AcDbArc
 50
300.0
 51
0.0
  0
ARC
  5
330
330
1F
100
AcDbEntity
  8
PROFILES_OUTSIDE
100
AcDbCircle
 10
84.7290661445
 20
12.0383606715
 30
0.0
 40
0.7500000000000142
100
AcDbArc
 50
120.0
 51
180.0
  0
ARC
  5
331
330
1F
100
AcDbEntity
  8
PROFILES_OUTSIDE
100
AcDbCircle
 10
84.7290661445
 20
8.7959119484
 30
0.0
 40
0.750000000000004
100
AcDbArc
 50
180.0
 51
240.0
  0
ARC
  5
332
330
1F
100
AcDbEntity
  8
PROFILES_OUTSIDE
100
AcDbCircle
 10
83.9790661445
 20
7.4968738428
 30
0.0
 40
0.7500000000000142
100
AcDbArc
 50
0.0
 51
60.0
  0
ARC
  5
333
330
1F
100
AcDbEntity
  8
PROFILES_OUTSIDE
100
AcDbCircle
 10
90.6326094516
 20
1.9320181997
 30
0.0
 40
0.236220472440948
100
AcDbArc
 50
0.0
 51
90.0
  0
ARC
  5
334
330
1F
100
AcDbEntity
  8
PROFILES_OUTSIDE
100
AcDbCircle
 10
80.7881212626
 20
2.640679617
 30
0.0
 40
0.4724409448818898
100
AcDbArc
 50
270.0
 51
0.0
  0
ARC
  5
335
330
1F
100
AcDbEntity
  8
PROFILES_OUTSIDE
100
AcDbCircle
 10
90.611032841
 20
1.6367426092
 30
0.0
 40
0.039370078740159
100
AcDbArc
 50
3.6619355755
 51
90.0
  0
ARC
  5
336
330
1F
100
AcDbEntity
  8
PROFILES_OUTSIDE
100
AcDbCircle
 10
90.0208881281
 20
1.7154827666
 30
0.0
 40
0.0393700787401632
100
AcDbArc
 50
245.1121079736
 51
270.0
  0
ARC
  5
337
330
1F
100
AcDbEntity
  8
PROFILES_OUTSIDE
100
AcDbCircle
 10
89.9186594571
 20
1.4951280257
 30
0.0
 40
0.2035433070866186
100
AcDbArc
 50
65.1121079736
 51
252.3995332141
  0
ARC
  5
338
330
1F
100
AcDbEntity
  8
PROFILES_OUTSIDE
100
AcDbCircle
 10
89.8452078768
 20
1.2635858517
 30
0.0
 40
0.0393700787401477
100
AcDbArc
 50
0.0
 51
72.3995332142
  0
ARC
  5
339
330
1F
100
AcDbEntity
  8
PROFILES_OUTSIDE
100
AcDbCircle
 10
84.4515070894
 20
1.6563489084
 30
0.0
 40
0.472440944881896
100
AcDbArc
 50
180.0
 51
270.0
  0
ARC
  5
33A
330
1F
100
AcDbEntity
  8
PROFILES_OUTSIDE
100
AcDbCircle
 10
83.5066251996
 20
7.0244328979
 30
0.0
 40
0.4724409448818907
100
AcDbArc
 50
0.0
 51
90.0
  0
ARC
  5
33B
330
1F
100
AcDbEntity
  8
PROFILES_OUTSIDE
100
AcDbCircle
 10
82.4830031524
 20
7.0244328979
 30
0.0
 40
0.4724409448819102
100
AcDbArc
 50
90.0
 51
180.0
  0
ARC
  5
33C
330
1F
100
AcDbEntity
  8
PROFILES_OUTSIDE
100
AcDbCircle
 10
81.5381212626
 20
1.6563489084
 30
0.0
 40
0.47244094488189
100
AcDbArc
 50
270.0
 51
0.0
  0
ARC
  5
33D
330
1F
100
AcDbEntity
  8
PROFILES_OUTSIDE
100
AcDbCircle
 10
76.1444204752
 20
1.2635858517
 30
0.0
 40
0.039370078740152
100
AcDbArc
 50
107.6004667859
 51
180.0
  0
ARC
  5
33E
330
1F
100
AcDbEntity
  8
PROFILES_OUTSIDE
100
AcDbCircle
 10
76.0709688949
 20
1.4951280257
 30
0.0
 40
0.2035433070866159
100
AcDbArc
 50
287.6004667859
 51
114.8878920264
  0
ARC
  5
33F
330
1F
100
AcDbEntity
  8
PROFILES_OUTSIDE
100
AcDbCircle
 10
75.9687402239
 20
1.7154827666
 30
0.0
 40
0.0393700787401572
100
AcDbArc
 50
270.0
 51
294.8878920264
  0
ARC
  5
340
330
1F
100
AcDbEntity
  8
PROFILES_OUTSIDE
100
AcDbCircle
 10
75.3785955109
 20
1.6367426092
 30
0.0
 40
0.039370078740159
100
AcDbArc
 50
90.0
 51
176.3380644245
  0
ARC
  5
341
330
1F
100
AcDbEntity
  8
PROFILES_OUTSIDE
100
AcDbCircle
 10
75.3570189004
 20
1.9320181997
 30
0.0
 40
0.236220472440948
100
AcDbArc
 50
90.0
 51
180.0
  0
ARC
  5
342
330
1F
100
AcDbEntity
  8
PROFILES_OUTSIDE
100
AcDbCircle
 10
80.7881212626
 20
18.1935930029
 30
0.0
 40
0.4724409448818889
100
AcDbArc
 50
0.0
 51
90.0
  0
ARC
  5
343
330
1F
100
AcDbEntity
  8
PROFILES_OUTSIDE
100
AcDbCircle
 10
82.0105622075
 20
7.4968738428
 30
0.0
 40
0.7499999999999929
100
AcDbArc
 50
120.0
 51
180.0
  0
ARC
  5
344
330
1F
100
AcDbEntity
  8
PROFILES_OUTSIDE
100
AcDbCircle
 10
81.2605622075
 20
8.7959119484
 30
0.0
 40
0.7499999999999954
100
AcDbArc
 50
300.0
 51
0.0
  0
ARC
  5
345
330
1F
100
AcDbEntity
  8
PROFILES_OUTSIDE
100
AcDbCircle
 10
81.2605622075
 20
12.0383606715
 30
0.0
 40
0.7499999999999974
100
AcDbArc
 50
0.0
 51
60.0
  0
ARC
  5
346
330
1F
100
AcDbEntity
  8
PROFILES_OUTSIDE
100
AcDbCircle
 10
82.0105622075
 20
13.3373987771
 30
0.0
 40
0.7499999999999939
100
AcDbArc
 50
180.0
 51
240.0
  0
ARC
  5
347
330
1F
100
AcDbEntity
  8
PROFILES_OUTSIDE
100
AcDbCircle
 10
75.3570189004
 20
18.9022544202
 30
0.0
 40
0.236220472440948
100
AcDbArc
 50
180.0
 51
270.0
  0
ARC
  5
348
330
1F
100
AcDbEntity
  8
PROFILES_OUTSIDE
100
AcDbCircle
 10
75.1601685067
 20
19.3648528454
 30
0.0
 40
0.0393700787401627
100
AcDbArc
 50
90.0
 51
180.0
  0
ARC
  5
349
330
1F
100
AcDbEntity
  8
PROFILES_OUTSIDE
100
AcDbCircle
 10
75.1601685067
 20
21.1750890659
 30
0.0
 40
0.0393700787401627
100
AcDbArc
 50
180.0
 51
270.0
  0
ARC
  5
34A
330
1F
100
AcDbEntity
  8
PROFILES_OUTSIDE
100
AcDbCircle
 10
80.7881212626
 20
22.3463489084
 30
0.0
 40
0.4724409448818925
100
AcDbArc
 50
270.0
 51
0.0
  0
ARC
  5
34B
330
1F
100
AcDbEntity
  8
PROFILES_OUTSIDE
100
AcDbCircle
 10
80.7881212626
 20
37.8992622942
 30
0.0
 40
0.4724409448819102
100
AcDbArc
 50
0.0
 51
90.0
  0
ARC
  5
34C
330
1F
100
AcDbEntity
  8
PROFILES_OUTSIDE
100
AcDbCircle
 10
75.1601685067
 20
39.0705221367
 30
0.0
 40
0.0393700787401627
100
AcDbArc
 50
90.0
 51
180.0
  0
ARC
  5
34D
330
1F
100
AcDbEntity
  8
PROFILES_OUTSIDE
100
AcDbCircle
 10
90.611032841
 20
21.3424119005
 30
0.0
 40
0.0393700787401627
100
AcDbArc
 50
3.6619355755
 51
90.0
  0
ARC
  5
34E
330
1F
100
AcDbEntity
  8
PROFILES_OUTSIDE
100
AcDbCircle
 10
90.0208881281
 20
21.421152058
 30
0.0
 40
0.0393700787401521
100
AcDbArc
 50
245.1121079736
 51
270.0
  0
ARC
  5
34F
330
1F
100
AcDbEntity
  8
PROFILES_OUTSIDE
100
AcDbCircle
 10
89.9186594571
 20
21.2007973171
 30
0.0
 40
0.2035433070866173
100
AcDbArc
 50
65.1121079736
 51
252.3995332141
  0
ARC
  5
350
330
1F
100
AcDbEntity
  8
PROFILES_OUTSIDE
100
AcDbCircle
 10
89.8452078768
 20
20.969255143
 30
0.0
 40
0.0393700787401526
100
AcDbArc
 50
0.0
 51
72.3995332142
  0
ARC
  5
351
330
1F
100
AcDbEntity
  8
PROFILES_OUTSIDE
100
AcDbCircle
 10
84.4515070894
 20
21.3620181997
 30
0.0
 40
0.4724409448818889
100
AcDbArc
 50
180.0
 51
270.0
  0
ARC
  5
352
330
1F
100
AcDbEntity
  8
PROFILES_OUTSIDE
100
AcDbCircle
 10
83.5066251996
 20
26.7301021892
 30
0.0
 40
0.4724409448819102
100
AcDbArc
 50
0.0
 51
90.0
  0
ARC
  5
353
330
1F
100
AcDbEntity
  8
PROFILES_OUTSIDE
100
AcDbCircle
 10
82.4830031524
 20
26.7301021892
 30
0.0
 40
0.472440944881896
100
AcDbArc
 50
90.0
 51
180.0
  0
ARC
  5
354
330
1F
100
AcDbEntity
  8
PROFILES_OUTSIDE
100
AcDbCircle
 10
81.5381212626
 20
21.3620181997
 30
0.0
 40
0.4724409448818889
100
AcDbArc
 50
270.0
 51
0.0
  0
ARC
  5
355
330
1F
100
AcDbEntity
  8
PROFILES_OUTSIDE
100
AcDbCircle
 10
76.1444204752
 20
20.969255143
 30
0.0
 40
0.0393700787401569
100
AcDbArc
 50
107.6004667859
 51
180.0
  0
ARC
  5
356
330
1F
100
AcDbEntity
  8
PROFILES_OUTSIDE
100
AcDbCircle
 10
76.0709688949
 20
21.2007973171
 30
0.0
 40
0.2035433070866173
100
AcDbArc
 50
287.6004667859
 51
114.8878920264
  0
ARC
  5
357
330
1F
100
AcDbEntity
  8
PROFILES_OUTSIDE
100
AcDbCircle
 10
75.9687402239
 20
21.421152058
 30
0.0
 40
0.0393700787401592
100
AcDbArc
 50
270.0
 51
294.8878920264
  0
ARC
  5
358
330
1F
100
AcDbEntity
  8
PROFILES_OUTSIDE
100
AcDbCircle
 10
75.3785955109
 20
21.3424119005
 30
0.0
 40
0.0393700787401588
100
AcDbArc
 50
90.0
 51
176.3380644245
  0
ARC
  5
359
330
1F
100
AcDbEntity
  8
PROFILES_OUTSIDE
100
AcDbCircle
 10
75.3570189004
 20
21.637687491
 30
0.0
 40
0.2362204724409445
100
AcDbArc
 50
90.0
 51
180.0
  0
ARC
  5
35A
330
1F
100
AcDbEntity
  8
PROFILES_OUTSIDE
100
AcDbCircle
 10
90.8294598453
 20
39.0705221367
 30
0.0
 40
0.039370078740177
100
AcDbArc
 50
0.0
 51
90.0
  0
ARC
  5
35B
330
1F
100
AcDbEntity
  8
PROFILES_OUTSIDE
100
AcDbCircle
 10
82.0105622075
 20
27.2025431341
 30
0.0
 40
0.75
100
AcDbArc
 50
120.0
 51
180.0
  0
ARC
  5
35C
330
1F
100
AcDbEntity
  8
PROFILES_OUTSIDE
100
AcDbCircle
 10
81.2605622075
 20
28.5015812398
 30
0.0
 40
0.75
100
AcDbArc
 50
300.0
 51
0.0
  0
ARC
  5
35D
330
1F
100
AcDbEntity
  8
PROFILES_OUTSIDE
100
AcDbCircle
 10
81.2605622075
 20
31.7440299628
 30
0.0
 40
0.75
100
AcDbArc
 50
0.0
 51
60.0
  0
ARC
  5
35E
330
1F
100
AcDbEntity
  8
PROFILES_OUTSIDE
100
AcDbCircle
 10
82.0105622075
 20
33.0430680685
 30
0.0
 40
0.75
100
AcDbArc
 50
180.0
 51
240.0
  0
ARC
  5
35F
330
1F
100
AcDbEntity
  8
PROFILES_OUTSIDE
100
AcDbCircle
 10
75.3570189004
 20
38.6079237115
 30
0.0
 40
0.236220472440948
100
AcDbArc
 50
180.0
 51
270.0
  0
ARC
  5
360
330
1F
100
AcDbEntity
  8
PROFILES_OUTSIDE
100
AcDbCircle
 10
85.2015070894
 20
37.8992622942
 30
0.0
 40
0.4724409448818889
100
AcDbArc
 50
90.0
 51
180.0
  0
ARC
  5
361
330
1F
100
AcDbEntity
  8
PROFILES_OUTSIDE
100
AcDbCircle
 10
75.3785955109
 20
38.9031993021
 30
0.0
 40
0.0393700787401627
100
AcDbArc
 50
183.6619355755
 51
270.0
  0
ARC
  5
362
330
1F
100
AcDbEntity
  8
PROFILES_OUTSIDE
100
AcDbCircle
 10
75.9687402239
 20
38.8244591446
 30
0.0
 40
0.0393700787401576
100
AcDbArc
 50
65.1121079736
 51
90.0
  0
ARC
  5
363
330
1F
100
AcDbEntity
  8
PROFILES_OUTSIDE
100
AcDbCircle
 10
76.0709688949
 20
39.0448138855
 30
0.0
 40
0.2035433070866173
100
AcDbArc
 50
245.1121079736
 51
72.3995332141
  0
ARC
  5
364
330
1F
100
AcDbEntity
  8
PROFILES_OUTSIDE
100
AcDbCircle
 10
76.1444204752
 20
39.2763560595
 30
0.0
 40
0.0393700787401636
100
AcDbArc
 50
180.0
 51
252.3995332141
  0
ARC
  5
365
330
1F
100
AcDbEntity
  8
PROFILES_OUTSIDE
100
AcDbCircle
 10
81.5381212626
 20
38.8835930029
 30
0.0
 40
0.4724409448818889
100
AcDbArc
 50
360.0
 51
90.0
  0
ARC
  5
366
330
1F
100
AcDbEntity
  8
PROFILES_OUTSIDE
100
AcDbCircle
 10
82.4830031524
 20
33.5155090134
 30
0.0
 40
0.472440944881896
100
AcDbArc
 50
180.0
 51
270.0
  0
ARC
  5
367
330
1F
100
AcDbEntity
  8
PROFILES_OUTSIDE
100
AcDbCircle
 10
83.5066251996
 20
33.5155090134
 30
0.0
 40
0.4724409448819102
100
AcDbArc
 50
270.0
 51
0.0
  0
ARC
  5
368
330
1F
100
AcDbEntity
  8
PROFILES_OUTSIDE
100
AcDbCircle
 10
84.4515070894
 20
38.8835930029
 30
0.0
 40
0.4724409448818889
100
AcDbArc
 50
90.0
 51
180.0
  0
ARC
  5
369
330
1F
100
AcDbEntity
  8
PROFILES_OUTSIDE
100
AcDbCircle
 10
89.8452078768
 20
39.2763560595
 30
0.0
 40
0.0393700787401526
100
AcDbArc
 50
287.6004667858
 51
0.0
  0
ARC
  5
36A
330
1F
100
AcDbEntity
  8
PROFILES_OUTSIDE
100
AcDbCircle
 10
89.9186594571
 20
39.0448138855
 30
0.0
 40
0.2035433070866241
100
AcDbArc
 50
107.6004667859
 51
294.8878920264
  0
ARC
  5
36B
330
1F
100
AcDbEntity
  8
PROFILES_OUTSIDE
100
AcDbCircle
 10
90.0208881281
 20
38.8244591446
 30
0.0
 40
0.0393700787401576
100
AcDbArc
 50
90.0
 51
114.8878920264
  0
ARC
  5
36C
330
1F
100
AcDbEntity
  8
PROFILES_OUTSIDE
100
AcDbCircle
 10
90.611032841
 20
38.9031993021
 30
0.0
 40
0.0393700787401585
100
AcDbArc
 50
270.0
 51
356.3380644245
  0
ARC
  5
36D
330
1F
100
AcDbEntity
  8
PROFILES_OUTSIDE
100
AcDbCircle
 10
90.6326094516
 20
38.6079237115
 30
0.0
 40
0.236220472440948
100
AcDbArc
 50
270.0
 51
0.0
  0
ARC
  5
36E
330
1F
100
AcDbEntity
  8
PROFILES_OUTSIDE
100
AcDbCircle
 10
85.2015070894
 20
22.3463489084
 30
0.0
 40
0.4724409448818889
100
AcDbArc
 50
180.0
 51
270.0
  0
ARC
  5
36F
330
1F
100
AcDbEntity
  8
PROFILES_OUTSIDE
100
AcDbCircle
 10
83.9790661445
 20
33.0430680685
 30
0.0
 40
0.75
100
AcDbArc
 50
300.0
 51
0.0
  0
ARC
  5
370
330
1F
100
AcDbEntity
  8
PROFILES_OUTSIDE
100
AcDbCircle
 10
84.7290661445
 20
31.7440299628
 30
0.0
 40
0.7499999999999898
100
AcDbArc
 50
120.0
 51
180.0
  0
ARC
  5
371
330
1F
100
AcDbEntity
  8
PROFILES_OUTSIDE
100
AcDbCircle
 10
84.7290661445
 20
28.5015812398
 30
0.0
 40
0.75
100
AcDbArc
 50
180.0
 51
240.0
  0
ARC
  5
372
330
1F
100
AcDbEntity
  8
PROFILES_OUTSIDE
100
AcDbCircle
 10
83.9790661445
 20
27.2025431341
 30
0.0
 40
0.75
100
AcDbArc
 50
0.0
 51
60.0
  0
ARC
  5
373
330
1F
100
AcDbEntity
  8
PROFILES_OUTSIDE
100
AcDbCircle
 10
90.6326094516
 20
21.637687491
 30
0.0
 40
0.236220472440948
100
AcDbArc
 50
0.0
 51
90.0
  0
ARC
  5
374
330
1F
100
AcDbEntity
  8
PROFILES_OUTSIDE
100
AcDbCircle
 10
90.8294598453
 20
21.1750890659
 30
0.0
 40
0.039370078740177
100
AcDbArc
 50
270.0
 51
0.0
  0
ENDSEC
  0
SECTION
  2
OBJECTS
  0
DICTIONARY
  5
C
330
0
100
AcDbDictionary
  3
ACAD_GROUP
350
D
  3
ACAD_MLINESTYLE
350
17
  3
ACAD_SCALELIST
350
47
  0
DICTIONARY
  5
D
102
{ACAD_REACTORS
330
C
102
}
330
C
100
AcDbDictionary
  0
DICTIONARY
  5
17
102
{ACAD_REACTORS
330
C
102
}
330
C
100
AcDbDictionary
  3
STANDARD
350
18
  0
DICTIONARY
  5
47
102
{ACAD_REACTORS
330
C
102
}
330
C
100
AcDbDictionary
  0
MLINESTYLE
  5
18
102
{ACAD_REACTORS
330
17
102
}
330
17
100
AcDbMlineStyle
  2
Standard
 70
     0
  3

 62
   256
 51
90.0
 52
90.0
 71
     2
 49
0.5
 62
   256
  6
BYLAYER
 49
-0.5
 62
   256
  6
BYLAYER
  0
ENDSEC
  0
EOF
