  0
SECTION
  2
HEADER
  9
$ACADVER
  1
AC1014
  9
$ACADMAINTVER
 70
     9
  9
$DWGCODEPAGE
  3
ANSI_1252
  9
$INSBASE
 10
0.0
 20
0.0
 30
0.0
  9
$EXTMIN
 10
0.0
 20
0.0
 30
0.0
  9
$EXTMAX
 10
96.062992126
 20
48.031496063
 30
0.0
  9
$LIMMIN
 10
0.0
 20
0.0
  9
$LIMMAX
 10
96.062992126
 20
48.031496063
  9
$ORTHOMODE
 70
     0
  9
$REGENMODE
 70
     1
  9
$FILLMODE
 70
     1
  9
$QTEXTMODE
 70
     0
  9
$MIRRTEXT
 70
     1
  9
$DRAGMODE
 70
     2
  9
$LTSCALE
 40
1.0
  9
$OSMODE
 70
    37
  9
$ATTMODE
 70
     1
  9
$TEXTSIZE
 40
0.1377952756
  9
$TRACEWID
 40
0.05
  9
$TEXTSTYLE
  7
STANDARD
  9
$CLAYER
  8
0
  9
$CELTYPE
  6
BYLAYER
  9
$CECOLOR
 62
   256
  9
$CELTSCALE
 40
1.0
  9
$DELOBJ
 70
     1
  9
$DISPSILH
 70
     0
  9
$DIMSCALE
 40
1.0
  9
$DIMASZ
 40
0.13
  9
$DIMEXO
 40
0.0393700787
  9
$DIMDLI
 40
0.38
  9
$DIMRND
 40
0.0
  9
$DIMDLE
 40
0.0
  9
$DIMEXE
 40
0.0393700787
  9
$DIMTP
 40
0.0
  9
$DIMTM
 40
0.0
  9
$DIMTXT
 40
0.1805555556
  9
$DIMCEN
 40
0.09
  9
$DIMTSZ
 40
0.0
  9
$DIMTOL
 70
     0
  9
$DIMLIM
 70
     0
  9
$DIMTIH
 70
     1
  9
$DIMTOH
 70
     1
  9
$DIMSE1
 70
     0
  9
$DIMSE2
 70
     0
  9
$DIMTAD
 70
     1
  9
$DIMZIN
 70
     0
  9
$DIMBLK
  1

  9
$DIMASO
 70
     1
  9
$DIMSHO
 70
     1
  9
$DIMPOST
  1

  9
$DIMAPOST
  1

  9
$DIMALT
 70
     0
  9
$DIMALTD
 70
     2
  9
$DIMALTF
 40
25.4
  9
$DIMLFAC
 40
1.0
  9
$DIMTOFL
 70
     0
  9
$DIMTVP
 40
0.0
  9
$DIMTIX
 70
     0
  9
$DIMSOXD
 70
     0
  9
$DIMSAH
 70
     0
  9
$DIMBLK1
  1

  9
$DIMBLK2
  1

  9
$DIMSTYLE
  2
STANDARD
  9
$DIMCLRD
 70
     0
  9
$DIMCLRE
 70
     0
  9
$DIMCLRT
 70
     0
  9
$DIMTFAC
 40
1.0
  9
$DIMGAP
 40
0.06
  9
$DIMJUST
 70
     0
  9
$DIMSD1
 70
     0
  9
$DIMSD2
 70
     0
  9
$DIMTOLJ
 70
     1
  9
$DIMTZIN
 70
     0
  9
$DIMALTZ
 70
     0
  9
$DIMALTTZ
 70
     0
  9
$DIMFIT
 70
     3
  9
$DIMUPT
 70
     0
  9
$DIMUNIT
 70
     2
  9
$DIMDEC
 70
     2
  9
$DIMTDEC
 70
     2
  9
$DIMALTU
 70
     2
  9
$DIMALTTD
 70
     2
  9
$DIMTXSTY
  7
STANDARD
  9
$DIMAUNIT
 70
     0
  9
$LUNITS
 70
     2
  9
$LUPREC
 70
     2
  9
$SKETCHINC
 40
0.1
  9
$FILLETRAD
 40
0.5
  9
$AUNITS
 70
     0
  9
$AUPREC
 70
     2
  9
$MENU
  1
.
  9
$ELEVATION
 40
0.0
  9
$PELEVATION
 40
0.0
  9
$THICKNESS
 40
0.0
  9
$LIMCHECK
 70
     0
  9
$CHAMFERA
 40
0.0
  9
$CHAMFERB
 40
0.0
  9
$CHAMFERC
 40
0.0
  9
$CHAMFERD
 40
0.0
  9
$SKPOLY
 70
     0
  9
$TDCREATE
 40
2457722.439207963
  9
$TDUPDATE
 40
2457722.439208298
  9
$TDINDWG
 40
0.0000000116
  9
$TDUSRTIMER
 40
0.0000000116
  9
$USRTIMER
 70
     1
  9
$ANGBASE
 50
0.0
  9
$ANGDIR
 70
     0
  9
$PDMODE
 70
     0
  9
$PDSIZE
 40
-1.0
  9
$PLINEWID
 40
0.0
  9
$COORDS
 70
     1
  9
$SPLFRAME
 70
     0
  9
$SPLINETYPE
 70
     6
  9
$SPLINESEGS
 70
     8
  9
$ATTDIA
 70
     0
  9
$ATTREQ
 70
     1
  9
$HANDLING
 70
     1
  9
$HANDSEED
  5
375
  9
$SURFTAB1
 70
     6
  9
$SURFTAB2
 70
     6
  9
$SURFTYPE
 70
     6
  9
$SURFU
 70
     6
  9
$SURFV
 70
     6
  9
$UCSNAME
  2

  9
$UCSORG
 10
0.0
 20
0.0
 30
0.0
  9
$UCSXDIR
 10
1.0
 20
0.0
 30
0.0
  9
$UCSYDIR
 10
0.0
 20
1.0
 30
0.0
  9
$PUCSNAME
  2

  9
$PUCSORG
 10
0.0
 20
0.0
 30
0.0
  9
$PUCSXDIR
 10
1.0
 20
0.0
 30
0.0
  9
$PUCSYDIR
 10
0.0
 20
1.0
 30
0.0
  9
$USERI1
 70
     0
  9
$USERI2
 70
     0
  9
$USERI3
 70
     0
  9
$USERI4
 70
     0
  9
$USERI5
 70
     0
  9
$USERR1
 40
0.0
  9
$USERR2
 40
0.0
  9
$USERR3
 40
0.0
  9
$USERR4
 40
0.0
  9
$USERR5
 40
0.0
  9
$WORLDVIEW
 70
     1
  9
$SHADEDGE
 70
     3
  9
$SHADEDIF
 70
    70
  9
$TILEMODE
 70
     1
  9
$MAXACTVP
 70
    64
  9
$PINSBASE
 10
0.0
 20
0.0
 30
0.0
  9
$PLIMCHECK
 70
     0
  9
$PEXTMIN
 10
1.0000000000E+20
 20
1.0000000000E+20
 30
1.0000000000E+20
  9
$PEXTMAX
 10
-1.0000000000E+20
 20
-1.0000000000E+20
 30
-1.0000000000E+20
  9
$PLIMMIN
 10
0.0
 20
0.0
  9
$PLIMMAX
 10
12.0
 20
9.0
  9
$UNITMODE
 70
     0
  9
$VISRETAIN
 70
     1
  9
$PLINEGEN
 70
     0
  9
$PSLTSCALE
 70
     1
  9
$TREEDEPTH
 70
  3020
  9
$PICKSTYLE
 70
     1
  9
$CMLSTYLE
  2
STANDARD
  9
$CMLJUST
 70
     0
  9
$CMLSCALE
 40
1.0
  9
$PROXYGRAPHICS
 70
     1
  9
$MEASUREMENT
 70
     0
  0
ENDSEC
  0
SECTION
  2
CLASSES
  0
CLASS
  1
ACDBDICTIONARYWDFLT
  2
AcDbDictionaryWithDefault
  3
ObjectDBX Classes
 90
        0
280
     0
281
     0
  0
CLASS
  1
VISUALSTYLE
  2
AcDbVisualStyle
  3
ObjectDBX Classes
 90
     4095
280
     0
281
     0
  0
CLASS
  1
MATERIAL
  2
AcDbMaterial
  3
ObjectDBX Classes
 90
     1153
280
     0
281
     0
  0
CLASS
  1
SCALE
  2
AcDbScale
  3
ObjectDBX Classes
 90
     1153
280
     0
281
     0
  0
CLASS
  1
TABLESTYLE
  2
AcDbTableStyle
  3
ObjectDBX Classes
 90
     4095
280
     0
281
     0
  0
CLASS
  1
MLEADERSTYLE
  2
AcDbMLeaderStyle
  3
ACDB_MLEADERSTYLE_CLASS
 90
     4095
280
     0
281
     0
  0
CLASS
  1
SUN
  2
AcDbSun
  3
SCENEOE
 90
     1153
280
     0
281
     0
  0
CLASS
  1
XRECORD
  2
AcDbXrecord
  3
ObjectDBX Classes
 90
        0
280
     0
281
     0
  0
CLASS
  1
LWPOLYLINE
  2
AcDbPolyline
  3
ObjectDBX Classes
 90
        0
280
     0
281
     1
  0
CLASS
  1
HATCH
  2
AcDbHatch
  3
ObjectDBX Classes
 90
        0
280
     0
281
     1
  0
ENDSEC
  0
SECTION
  2
TABLES
  0
TABLE
  2
VPORT
  5
8
330
0
100
AcDbSymbolTable
 70
     1
  0
VPORT
  5
29
330
8
100
AcDbSymbolTableRecord
100
AcDbViewportTableRecord
  2
*ACTIVE
 70
     0
 10
0.0
 20
0.0
 11
1.0
 21
1.0
 12
48.031496063
 22
24.0157480315
 13
0.0
 23
0.0
 14
0.5
 24
0.5
 15
0.5
 25
0.5
 16
0.0
 26
0.0
 36
1.0
 17
0.0
 27
0.0
 37
0.0
 40
48.031496063
 41
2.0
 42
50.0
 43
0.0
 44
0.0
 50
0.0
 51
0.0
 71
     0
 72
  2000
 73
     1
 74
     3
 75
     0
 76
     0
 77
     0
 78
     0
  0
ENDTAB
  0
TABLE
  2
LTYPE
  5
5
330
0
100
AcDbSymbolTable
 70
     6
  0
LTYPE
  5
14
330
5
100
AcDbSymbolTableRecord
100
AcDbLinetypeTableRecord
  2
BYBLOCK
 70
     0
  3

 72
    65
 73
     0
 40
0.0
  0
LTYPE
  5
15
330
5
100
AcDbSymbolTableRecord
100
AcDbLinetypeTableRecord
  2
BYLAYER
 70
     0
  3

 72
    65
 73
     0
 40
0.0
  0
LTYPE
  5
16
330
5
100
AcDbSymbolTableRecord
100
AcDbLinetypeTableRecord
  2
CONTINUOUS
 70
     0
  3
Solid line
 72
    65
 73
     0
 40
0.0
  0
LTYPE
  5
6E
330
5
100
AcDbSymbolTableRecord
100
AcDbLinetypeTableRecord
  2
HIDDEN
 70
     0
  3
Hidden __ __ __ __ __ __ __ __ __ __ __ __ __ __
 72
    65
 73
     2
 40
0.075
 49
0.05
 74
     0
 49
-0.025
 74
     0
  0
LTYPE
  5
6F
330
5
100
AcDbSymbolTableRecord
100
AcDbLinetypeTableRecord
  2
PHANTOM
 70
     0
  3
Phantom ______  __  __  ______  __  __  ______
 72
    65
 73
     6
 40
0.5
 49
0.25
 74
     0
 49
-0.05
 74
     0
 49
0.05
 74
     0
 49
-0.05
 74
     0
 49
0.05
 74
     0
 49
-0.05
 74
     0
  0
LTYPE
  5
70
330
5
100
AcDbSymbolTableRecord
100
AcDbLinetypeTableRecord
  2
CENTER
 70
     0
  3
Center ____ _ ____ _ ____ _ ____ _ ____ _ ____
 72
    65
 73
     4
 40
0.4
 49
0.25
 74
     0
 49
-0.05
 74
     0
 49
0.05
 74
     0
 49
-0.05
 74
     0
  0
LTYPE
  5
71
330
5
100
AcDbSymbolTableRecord
100
AcDbLinetypeTableRecord
  2
CENTERX2
 70
     0
  3
Center (2x) ________  __  ________  __  _____
 72
    65
 73
     4
 40
0.8
 49
0.5
 74
     0
 49
-0.1
 74
     0
 49
0.1
 74
     0
 49
-0.1
 74
     0
  0
LTYPE
  5
72
330
5
100
AcDbSymbolTableRecord
100
AcDbLinetypeTableRecord
  2
DOT2
 70
     0
  3
Dot (.5x) ........................................
 72
    65
 73
     2
 40
0.025
 49
0.0
 74
     0
 49
-0.025
 74
     0
  0
ENDTAB
  0
TABLE
  2
LAYER
  5
2
330
0
100
AcDbSymbolTable
 70
     6
  0
LAYER
  5
10
330
2
100
AcDbSymbolTableRecord
100
AcDbLayerTableRecord
  2
0
 70
     0
 62
     7
  6
CONTINUOUS
  0
LAYER
  5
73
330
2
100
AcDbSymbolTableRecord
100
AcDbLayerTableRecord
  2
BOX_STOCK
 70
     0
 62
     1
  6
CONTINUOUS
  0
LAYER
  5
74
330
2
100
AcDbSymbolTableRecord
100
AcDbLayerTableRecord
  2
HOLES
 70
     0
 62
    30
  6
CONTINUOUS
  0
LAYER
  5
75
330
2
100
AcDbSymbolTableRecord
100
AcDbLayerTableRecord
  2
POCKETS
 70
     0
 62
   171
  6
CONTINUOUS
  0
LAYER
  5
76
330
2
100
AcDbSymbolTableRecord
100
AcDbLayerTableRecord
  2
PROFILES_OUTSIDE
 70
     0
 62
     6
  6
CONTINUOUS
  0
LAYER
  5
77
330
2
100
AcDbSymbolTableRecord
100
AcDbLayerTableRecord
  2
PROFILES_INSIDE
 70
     0
 62
     4
  6
CONTINUOUS
  0
ENDTAB
  0
TABLE
  2
STYLE
  5
3
330
0
100
AcDbSymbolTable
 70
     1
  0
STYLE
  5
11
330
3
100
AcDbSymbolTableRecord
100
AcDbTextStyleTableRecord
  2
STANDARD
 70
     0
 40
0.0
 41
1.0
 50
0.0
 71
     0
 42
0.1377952756
  3
txt
  4

  0
ENDTAB
  0
TABLE
  2
VIEW
  5
6
330
0
100
AcDbSymbolTable
 70
     0
  0
ENDTAB
  0
TABLE
  2
UCS
  5
7
330
0
100
AcDbSymbolTable
 70
     0
  0
ENDTAB
  0
TABLE
  2
APPID
  5
9
330
0
100
AcDbSymbolTable
 70
     1
  0
APPID
  5
12
330
9
100
AcDbSymbolTableRecord
100
AcDbRegAppTableRecord
  2
ACAD
 70
     0
  0
ENDTAB
  0
TABLE
  2
DIMSTYLE
  5
A
330
0
100
AcDbSymbolTable
 70
     1
  0
DIMSTYLE
105
27
330
A
100
AcDbSymbolTableRecord
100
AcDbDimStyleTableRecord
  2
STANDARD
 70
     0
  3

  4

  5

  6

  7

 40
1.0
 41
0.18
 42
0.0625
 43
0.38
 44
0.18
 45
0.0
 46
0.0
 47
0.0
 48
0.0
140
0.18
141
0.09
142
0.0
143
25.4
144
1.0
145
0.0
146
1.0
147
0.09
 71
     0
 72
     0
 73
     1
 74
     1
 75
     0
 76
     0
 77
     0
 78
     0
170
     0
171
     2
172
     0
173
     0
174
     0
175
     0
176
     0
177
     0
178
     0
270
     2
271
     4
272
     4
273
     2
274
     2
340
11
275
     0
280
     0
281
     0
282
     0
283
     1
284
     0
285
     0
286
     0
287
     3
288
     0
  0
ENDTAB
  0
TABLE
  2
BLOCK_RECORD
  5
1
330
0
100
AcDbSymbolTable
 70
     1
  0
BLOCK_RECORD
  5
1F
330
1
100
AcDbSymbolTableRecord
100
AcDbBlockTableRecord
  2
*MODEL_SPACE
  0
BLOCK_RECORD
  5
1B
330
1
100
AcDbSymbolTableRecord
100
AcDbBlockTableRecord
  2
*PAPER_SPACE
  0
BLOCK_RECORD
  5
23
330
1
100
AcDbSymbolTableRecord
100
AcDbBlockTableRecord
  2
*PAPER_SPACE0
  0
ENDTAB
  0
ENDSEC
  0
SECTION
  2
BLOCKS
  0
BLOCK
  5
20
330
1F
100
AcDbEntity
  8
0
100
AcDbBlockBegin
  2
*MODEL_SPACE
 70
     0
 10
0.0
 20
0.0
 30
0.0
  3
*MODEL_SPACE
  1

  0
ENDBLK
  5
21
330
1F
100
AcDbEntity
  8
0
100
AcDbBlockEnd
  0
BLOCK
  5
1C
330
1B
100
AcDbEntity
 67
     1
  8
0
100
AcDbBlockBegin
  2
*PAPER_SPACE
 70
     0
 10
0.0
 20
0.0
 30
0.0
  3
*PAPER_SPACE
  1

  0
ENDBLK
  5
1D
330
1B
100
AcDbEntity
 67
     1
  8
0
100
AcDbBlockEnd
  0
BLOCK
  5
24
330
23
100
AcDbEntity
  8
0
100
AcDbBlockBegin
  2
*PAPER_SPACE0
 70
     0
 10
0.0
 20
0.0
 30
0.0
  3
*PAPER_SPACE0
  1

  0
ENDBLK
  5
25
330
23
100
AcDbEntity
  8
0
100
AcDbBlockEnd
  0
ENDSEC
  0
SECTION
  2
ENTITIES
  0
ARC
  5
78
330
1F
100
AcDbEntity
  8
0
  6
CONTINUOUS
 62
     7
100
AcDbCircle
 10
89.6326094516
 20
38.1079237115
 30
0.0
 40
0.236220472440948
100
AcDbArc
 50
270.0
 51
0.0
  0
LINE
  5
79
330
1F
100
AcDbEntity
  8
0
  6
CONTINUOUS
 62
     7
100
AcDbLine
 10
84.2015066478
 20
37.8717036761
 30
0.0
 11
89.6326067873
 21
37.8717036761
 31
0.0
  0
ARC
  5
7A
330
1F
100
AcDbEntity
  8
0
  6
CONTINUOUS
 62
     7
100
AcDbCircle
 10
84.2015070894
 20
37.3992622942
 30
0.0
 40
0.4724409448819102
100
AcDbArc
 50
90.0
 51
180.0
  0
LINE
  5
7B
330
1F
100
AcDbEntity
  8
0
  6
CONTINUOUS
 62
     7
100
AcDbLine
 10
83.7290623989
 20
32.6264010703
 30
0.0
 11
83.7290623989
 21
37.3992617738
 31
0.0
  0
ARC
  5
7C
330
1F
100
AcDbEntity
  8
0
  6
CONTINUOUS
 62
     7
100
AcDbCircle
 10
82.9790661445
 20
32.6264014018
 30
0.0
 40
0.75
100
AcDbArc
 50
300.0
 51
0.0
  0
ARC
  5
7D
330
1F
100
AcDbEntity
  8
0
  6
CONTINUOUS
 62
     7
100
AcDbCircle
 10
83.7290661445
 20
31.3273632961
 30
0.0
 40
0.75
100
AcDbArc
 50
120.0
 51
180.0
  0
LINE
  5
7E
330
1F
100
AcDbEntity
  8
0
  6
CONTINUOUS
 62
     7
100
AcDbLine
 10
82.9790670095
 20
28.1682481979
 30
0.0
 11
82.9790670095
 21
31.3273624236
 31
0.0
  0
ARC
  5
7F
330
1F
100
AcDbEntity
  8
0
  6
CONTINUOUS
 62
     7
100
AcDbCircle
 10
83.7290661445
 20
28.1682479064
 30
0.0
 40
0.75
100
AcDbArc
 50
180.0
 51
240.0
  0
ARC
  5
80
330
1F
100
AcDbEntity
  8
0
  6
CONTINUOUS
 62
     7
100
AcDbCircle
 10
82.9790661445
 20
26.8692098008
 30
0.0
 40
0.75
100
AcDbArc
 50
0.0
 51
60.0
  0
LINE
  5
81
330
1F
100
AcDbEntity
  8
0
  6
CONTINUOUS
 62
     7
100
AcDbLine
 10
83.7290623989
 20
22.0963488477
 30
0.0
 11
83.7290623989
 21
26.8692095512
 31
0.0
  0
ARC
  5
82
330
1F
100
AcDbEntity
  8
0
  6
CONTINUOUS
 62
     7
100
AcDbCircle
 10
84.2015070894
 20
22.0963489084
 30
0.0
 40
0.4724409448819102
100
AcDbArc
 50
180.0
 51
270.0
  0
LINE
  5
83
330
1F
100
AcDbEntity
  8
0
  6
CONTINUOUS
 62
     7
100
AcDbLine
 10
89.6326067873
 20
21.6239069454
 30
0.0
 11
84.2015066478
 21
21.6239069454
 31
0.0
  0
ARC
  5
84
330
1F
100
AcDbEntity
  8
0
  6
CONTINUOUS
 62
     7
100
AcDbCircle
 10
89.6326094516
 20
21.387687491
 30
0.0
 40
0.2362204724409445
100
AcDbArc
 50
0.0
 51
90.0
  0
LINE
  5
85
330
1F
100
AcDbEntity
  8
0
  6
CONTINUOUS
 62
     7
100
AcDbLine
 10
89.4137122493
 20
20.8857198463
 30
0.0
 11
89.4003270173
 21
21.0949274562
 31
0.0
  0
ARC
  5
86
330
1F
100
AcDbEntity
  8
0
  6
CONTINUOUS
 62
     7
100
AcDbCircle
 10
89.361032841
 20
21.0924119005
 30
0.0
 40
0.0393700787401627
100
AcDbArc
 50
3.6619355755
 51
90.0
  0
LINE
  5
87
330
1F
100
AcDbEntity
  8
0
  6
CONTINUOUS
 62
     7
100
AcDbLine
 10
89.3610348845
 20
21.1317814305
 30
0.0
 11
89.0208847873
 21
21.1317814305
 31
0.0
  0
ARC
  5
88
330
1F
100
AcDbEntity
  8
0
  6
CONTINUOUS
 62
     7
100
AcDbCircle
 10
89.0208881281
 20
21.171152058
 30
0.0
 40
0.0393700787401556
100
AcDbArc
 50
245.1121079736
 51
270.0
  0
ARC
  5
89
330
1F
100
AcDbEntity
  8
0
  6
CONTINUOUS
 62
     7
100
AcDbCircle
 10
88.9186594571
 20
20.9507973171
 30
0.0
 40
0.2035433070866144
100
AcDbArc
 50
65.1121079736
 51
252.3995332141
  0
ARC
  5
8A
330
1F
100
AcDbEntity
  8
0
  6
CONTINUOUS
 62
     7
100
AcDbCircle
 10
88.8452078768
 20
20.719255143
 30
0.0
 40
0.0393700787401646
100
AcDbArc
 50
0.0
 51
72.3995332141
  0
LINE
  5
8B
330
1F
100
AcDbEntity
  8
0
  6
CONTINUOUS
 62
     7
100
AcDbLine
 10
88.8845825752
 20
20.6395761298
 30
0.0
 11
88.8845825752
 21
20.719256276
 31
0.0
  0
LINE
  5
8C
330
1F
100
AcDbEntity
  8
0
  6
CONTINUOUS
 62
     7
100
AcDbLine
 10
83.4515112585
 20
20.6395761298
 30
0.0
 11
88.8845825752
 21
20.6395761298
 31
0.0
  0
ARC
  5
8D
330
1F
100
AcDbEntity
  8
0
  6
CONTINUOUS
 62
     7
100
AcDbCircle
 10
83.4515070894
 20
21.1120181997
 30
0.0
 40
0.4724409448819102
100
AcDbArc
 50
180.0
 51
270.0
  0
LINE
  5
8E
330
1F
100
AcDbEntity
  8
0
  6
CONTINUOUS
 62
     7
100
AcDbLine
 10
82.9790670095
 20
26.3967699955
 30
0.0
 11
82.9790670095
 21
21.1120180321
 31
0.0
  0
ARC
  5
8F
330
1F
100
AcDbEntity
  8
0
  6
CONTINUOUS
 62
     7
100
AcDbCircle
 10
82.5066251996
 20
26.3967688559
 30
0.0
 40
0.4724409448818854
100
AcDbArc
 50
0.0
 51
90.0
  0
LINE
  5
90
330
1F
100
AcDbEntity
  8
0
  6
CONTINUOUS
 62
     7
100
AcDbLine
 10
81.4829998122
 20
26.8692095512
 30
0.0
 11
82.5066227606
 21
26.8692095512
 31
0.0
  0
ARC
  5
91
330
1F
100
AcDbEntity
  8
0
  6
CONTINUOUS
 62
     7
100
AcDbCircle
 10
81.4830031524
 20
26.3967688559
 30
0.0
 40
0.4724409448818854
100
AcDbArc
 50
90.0
 51
180.0
  0
LINE
  5
92
330
1F
100
AcDbEntity
  8
0
  6
CONTINUOUS
 62
     7
100
AcDbLine
 10
81.0105649498
 20
21.1120180321
 30
0.0
 11
81.0105649498
 21
26.3967699955
 31
0.0
  0
ARC
  5
93
330
1F
100
AcDbEntity
  8
0
  6
CONTINUOUS
 62
     7
100
AcDbCircle
 10
80.5381212626
 20
21.1120181997
 30
0.0
 40
0.4724409448819102
100
AcDbArc
 50
270.0
 51
0.0
  0
LINE
  5
94
330
1F
100
AcDbEntity
  8
0
  6
CONTINUOUS
 62
     7
100
AcDbLine
 10
75.1050493842
 20
20.6395761298
 30
0.0
 11
80.5381207009
 21
20.6395761298
 31
0.0
  0
LINE
  5
95
330
1F
100
AcDbEntity
  8
0
  6
CONTINUOUS
 62
     7
100
AcDbLine
 10
75.1050493842
 20
20.719256276
 30
0.0
 11
75.1050493842
 21
20.6395761298
 31
0.0
  0
ARC
  5
96
330
1F
100
AcDbEntity
  8
0
  6
CONTINUOUS
 62
     7
100
AcDbCircle
 10
75.1444204752
 20
20.719255143
 30
0.0
 40
0.0393700787401627
100
AcDbArc
 50
107.6004667859
 51
180.0
  0
ARC
  5
97
330
1F
100
AcDbEntity
  8
0
  6
CONTINUOUS
 62
     7
100
AcDbCircle
 10
75.0709688949
 20
20.9507973171
 30
0.0
 40
0.2035433070866207
100
AcDbArc
 50
287.6004667859
 51
114.8878920264
  0
ARC
  5
98
330
1F
100
AcDbEntity
  8
0
  6
CONTINUOUS
 62
     7
100
AcDbCircle
 10
74.9687402239
 20
21.171152058
 30
0.0
 40
0.0393700787401641
100
AcDbArc
 50
270.0
 51
294.8878920264
  0
LINE
  5
99
330
1F
100
AcDbEntity
  8
0
  6
CONTINUOUS
 62
     7
100
AcDbLine
 10
74.9687424788
 20
21.1317814305
 30
0.0
 11
74.6285970749
 21
21.1317814305
 31
0.0
  0
ARC
  5
9A
330
1F
100
AcDbEntity
  8
0
  6
CONTINUOUS
 62
     7
100
AcDbCircle
 10
74.6285955109
 20
21.0924119005
 30
0.0
 40
0.0393700787401588
100
AcDbArc
 50
90.0
 51
176.3380644245
  0
LINE
  5
9B
330
1F
100
AcDbEntity
  8
0
  6
CONTINUOUS
 62
     7
100
AcDbLine
 10
74.5893049421
 20
21.0949274562
 30
0.0
 11
74.5759150168
 21
20.8857198463
 31
0.0
  0
LINE
  5
9C
330
1F
100
AcDbEntity
  8
0
  6
CONTINUOUS
 62
     7
100
AcDbLine
 10
74.5759150168
 20
20.8857198463
 30
0.0
 11
74.1601702729
 21
20.8857198463
 31
0.0
  0
ARC
  5
9D
330
1F
100
AcDbEntity
  8
0
  6
CONTINUOUS
 62
     7
100
AcDbCircle
 10
74.1601685067
 20
20.9250890659
 30
0.0
 40
0.0393700787401627
100
AcDbArc
 50
180.0
 51
270.0
  0
LINE
  5
9E
330
1F
100
AcDbEntity
  8
0
  6
CONTINUOUS
 62
     7
100
AcDbLine
 10
74.1207983544
 20
21.3876871676
 30
0.0
 11
74.1207983544
 21
20.9250894182
 31
0.0
  0
ARC
  5
9F
330
1F
100
AcDbEntity
  8
0
  6
CONTINUOUS
 62
     7
100
AcDbCircle
 10
74.3570189004
 20
21.387687491
 30
0.0
 40
0.236220472440948
100
AcDbArc
 50
90.0
 51
180.0
  0
LINE
  5
A0
330
1F
100
AcDbEntity
  8
0
  6
CONTINUOUS
 62
     7
100
AcDbLine
 10
79.7881253116
 20
21.6239069454
 30
0.0
 11
74.3570204788
 21
21.6239069454
 31
0.0
  0
ARC
  5
A1
330
1F
100
AcDbEntity
  8
0
  6
CONTINUOUS
 62
     7
100
AcDbCircle
 10
79.7881212626
 20
22.0963489084
 30
0.0
 40
0.4724409448818889
100
AcDbArc
 50
270.0
 51
0.0
  0
LINE
  5
A2
330
1F
100
AcDbEntity
  8
0
  6
CONTINUOUS
 62
     7
100
AcDbLine
 10
80.260560174
 20
26.8692095512
 30
0.0
 11
80.260560174
 21
22.0963488477
 31
0.0
  0
ARC
  5
A3
330
1F
100
AcDbEntity
  8
0
  6
CONTINUOUS
 62
     7
100
AcDbCircle
 10
81.0105622075
 20
26.8692098008
 30
0.0
 40
0.75
100
AcDbArc
 50
120.0
 51
180.0
  0
ARC
  5
A4
330
1F
100
AcDbEntity
  8
0
  6
CONTINUOUS
 62
     7
100
AcDbCircle
 10
80.2605622075
 20
28.1682479064
 30
0.0
 40
0.75
100
AcDbArc
 50
300.0
 51
0.0
  0
LINE
  5
A5
330
1F
100
AcDbEntity
  8
0
  6
CONTINUOUS
 62
     7
100
AcDbLine
 10
81.0105649498
 20
31.3273624236
 30
0.0
 11
81.0105649498
 21
28.1682481979
 31
0.0
  0
ARC
  5
A6
330
1F
100
AcDbEntity
  8
0
  6
CONTINUOUS
 62
     7
100
AcDbCircle
 10
80.2605622075
 20
31.3273632961
 30
0.0
 40
0.75
100
AcDbArc
 50
0.0
 51
60.0
  0
ARC
  5
A7
330
1F
100
AcDbEntity
  8
0
  6
CONTINUOUS
 62
     7
100
AcDbCircle
 10
81.0105622075
 20
32.6264014018
 30
0.0
 40
0.75
100
AcDbArc
 50
180.0
 51
240.0
  0
LINE
  5
A8
330
1F
100
AcDbEntity
  8
0
  6
CONTINUOUS
 62
     7
100
AcDbLine
 10
80.260560174
 20
37.3992617738
 30
0.0
 11
80.260560174
 21
32.6264010703
 31
0.0
  0
ARC
  5
A9
330
1F
100
AcDbEntity
  8
0
  6
CONTINUOUS
 62
     7
100
AcDbCircle
 10
79.7881212626
 20
37.3992622942
 30
0.0
 40
0.4724409448819031
100
AcDbArc
 50
0.0
 51
90.0
  0
LINE
  5
AA
330
1F
100
AcDbEntity
  8
0
  6
CONTINUOUS
 62
     7
100
AcDbLine
 10
74.3570204788
 20
37.8717036761
 30
0.0
 11
79.7881253116
 21
37.8717036761
 31
0.0
  0
ARC
  5
AB
330
1F
100
AcDbEntity
  8
0
  6
CONTINUOUS
 62
     7
100
AcDbCircle
 10
74.3570189004
 20
38.1079237115
 30
0.0
 40
0.236220472440948
100
AcDbArc
 50
180.0
 51
270.0
  0
LINE
  5
AC
330
1F
100
AcDbEntity
  8
0
  6
CONTINUOUS
 62
     7
100
AcDbLine
 10
74.1207983544
 20
38.5705212033
 30
0.0
 11
74.1207983544
 21
38.107923454
 31
0.0
  0
ARC
  5
AD
330
1F
100
AcDbEntity
  8
0
  6
CONTINUOUS
 62
     7
100
AcDbCircle
 10
74.1601685067
 20
38.5705221367
 30
0.0
 40
0.0393700787401627
100
AcDbArc
 50
90.0
 51
180.0
  0
LINE
  5
AE
330
1F
100
AcDbEntity
  8
0
  6
CONTINUOUS
 62
     7
100
AcDbLine
 10
74.1601702729
 20
38.6098931218
 30
0.0
 11
74.5759150168
 21
38.6098931218
 31
0.0
  0
LINE
  5
AF
330
1F
100
AcDbEntity
  8
0
  6
CONTINUOUS
 62
     7
100
AcDbLine
 10
74.5759150168
 20
38.6098931218
 30
0.0
 11
74.5893049421
 21
38.4006855119
 31
0.0
  0
ARC
  5
B0
330
1F
100
AcDbEntity
  8
0
  6
CONTINUOUS
 62
     7
100
AcDbCircle
 10
74.6285955109
 20
38.4031993021
 30
0.0
 40
0.039370078740159
100
AcDbArc
 50
183.6619355755
 51
270.0
  0
LINE
  5
B1
330
1F
100
AcDbEntity
  8
0
  6
CONTINUOUS
 62
     7
100
AcDbLine
 10
74.6285970749
 20
38.363829191
 30
0.0
 11
74.9687424788
 21
38.363829191
 31
0.0
  0
ARC
  5
B2
330
1F
100
AcDbEntity
  8
0
  6
CONTINUOUS
 62
     7
100
AcDbCircle
 10
74.9687402239
 20
38.3244591446
 30
0.0
 40
0.0393700787401576
100
AcDbArc
 50
65.1121079736
 51
90.0
  0
ARC
  5
B3
330
1F
100
AcDbEntity
  8
0
  6
CONTINUOUS
 62
     7
100
AcDbCircle
 10
75.0709688949
 20
38.5448138855
 30
0.0
 40
0.2035433070866139
100
AcDbArc
 50
245.1121079736
 51
72.3995332141
  0
ARC
  5
B4
330
1F
100
AcDbEntity
  8
0
  6
CONTINUOUS
 62
     7
100
AcDbCircle
 10
75.1444204752
 20
38.7763560595
 30
0.0
 40
0.0393700787401569
100
AcDbArc
 50
180.0
 51
252.3995332141
  0
LINE
  5
B5
330
1F
100
AcDbEntity
  8
0
  6
CONTINUOUS
 62
     7
100
AcDbLine
 10
75.1050493842
 20
38.8560344917
 30
0.0
 11
75.1050493842
 21
38.7763566922
 31
0.0
  0
LINE
  5
B6
330
1F
100
AcDbEntity
  8
0
  6
CONTINUOUS
 62
     7
100
AcDbLine
 10
80.5381207009
 20
38.8560344917
 30
0.0
 11
75.1050493842
 21
38.8560344917
 31
0.0
  0
ARC
  5
B7
330
1F
100
AcDbEntity
  8
0
  6
CONTINUOUS
 62
     7
100
AcDbCircle
 10
80.5381212626
 20
38.3835930029
 30
0.0
 40
0.4724409448819102
100
AcDbArc
 50
0.0
 51
90.0
  0
LINE
  5
B8
330
1F
100
AcDbEntity
  8
0
  6
CONTINUOUS
 62
     7
100
AcDbLine
 10
81.0105649498
 20
33.0988429726
 30
0.0
 11
81.0105649498
 21
38.3835925894
 31
0.0
  0
ARC
  5
B9
330
1F
100
AcDbEntity
  8
0
  6
CONTINUOUS
 62
     7
100
AcDbCircle
 10
81.4830031524
 20
33.0988423467
 30
0.0
 40
0.4724409448818889
100
AcDbArc
 50
180.0
 51
270.0
  0
LINE
  5
BA
330
1F
100
AcDbEntity
  8
0
  6
CONTINUOUS
 62
     7
100
AcDbLine
 10
82.5066227606
 20
32.6264010703
 30
0.0
 11
81.4829998122
 21
32.6264010703
 31
0.0
  0
ARC
  5
BB
330
1F
100
AcDbEntity
  8
0
  6
CONTINUOUS
 62
     7
100
AcDbCircle
 10
82.5066251996
 20
33.0988423467
 30
0.0
 40
0.4724409448818889
100
AcDbArc
 50
270.0
 51
0.0
  0
LINE
  5
BC
330
1F
100
AcDbEntity
  8
0
  6
CONTINUOUS
 62
     7
100
AcDbLine
 10
82.9790670095
 20
38.3835925894
 30
0.0
 11
82.9790670095
 21
33.0988429726
 31
0.0
  0
ARC
  5
BD
330
1F
100
AcDbEntity
  8
0
  6
CONTINUOUS
 62
     7
100
AcDbCircle
 10
83.4515070894
 20
38.3835930029
 30
0.0
 40
0.4724409448819102
100
AcDbArc
 50
90.0
 51
180.0
  0
LINE
  5
BE
330
1F
100
AcDbEntity
  8
0
  6
CONTINUOUS
 62
     7
100
AcDbLine
 10
88.8845825752
 20
38.8560344917
 30
0.0
 11
83.4515112585
 21
38.8560344917
 31
0.0
  0
LINE
  5
BF
330
1F
100
AcDbEntity
  8
0
  6
CONTINUOUS
 62
     7
100
AcDbLine
 10
88.8845825752
 20
38.7763566922
 30
0.0
 11
88.8845825752
 21
38.8560344917
 31
0.0
  0
ARC
  5
C0
330
1F
100
AcDbEntity
  8
0
  6
CONTINUOUS
 62
     7
100
AcDbCircle
 10
88.8452078768
 20
38.7763560595
 30
0.0
 40
0.0393700787401627
100
AcDbArc
 50
287.6004667859
 51
0.0
  0
ARC
  5
C1
330
1F
100
AcDbEntity
  8
0
  6
CONTINUOUS
 62
     7
100
AcDbCircle
 10
88.9186594571
 20
38.5448138855
 30
0.0
 40
0.2035433070866241
100
AcDbArc
 50
107.6004667859
 51
294.8878920264
  0
ARC
  5
C2
330
1F
100
AcDbEntity
  8
0
  6
CONTINUOUS
 62
     7
100
AcDbCircle
 10
89.0208881281
 20
38.3244591446
 30
0.0
 40
0.0393700787401556
100
AcDbArc
 50
90.0
 51
114.8878920264
  0
LINE
  5
C3
330
1F
100
AcDbEntity
  8
0
  6
CONTINUOUS
 62
     7
100
AcDbLine
 10
89.0208847873
 20
38.363829191
 30
0.0
 11
89.3610348845
 21
38.363829191
 31
0.0
  0
ARC
  5
C4
330
1F
100
AcDbEntity
  8
0
  6
CONTINUOUS
 62
     7
100
AcDbCircle
 10
89.361032841
 20
38.4031993021
 30
0.0
 40
0.039370078740159
100
AcDbArc
 50
270.0
 51
356.3380644245
  0
LINE
  5
C5
330
1F
100
AcDbEntity
  8
0
  6
CONTINUOUS
 62
     7
100
AcDbLine
 10
89.4003270173
 20
38.4006855119
 30
0.0
 11
89.4137122493
 21
38.6098931218
 31
0.0
  0
LINE
  5
C6
330
1F
100
AcDbEntity
  8
0
  6
CONTINUOUS
 62
     7
100
AcDbLine
 10
89.4137122493
 20
38.6098931218
 30
0.0
 11
89.8294616865
 21
38.6098931218
 31
0.0
  0
ARC
  5
C7
330
1F
100
AcDbEntity
  8
0
  6
CONTINUOUS
 62
     7
100
AcDbCircle
 10
89.8294598453
 20
38.5705221367
 30
0.0
 40
0.0393700787401627
100
AcDbArc
 50
0.0
 51
90.0
  0
LINE
  5
C8
330
1F
100
AcDbEntity
  8
0
  6
CONTINUOUS
 62
     7
100
AcDbLine
 10
89.8688289118
 20
38.107923454
 30
0.0
 11
89.8688289118
 21
38.5705212033
 31
0.0
  0
LINE
  5
C9
330
1F
100
AcDbEntity
  8
0
  6
CONTINUOUS
 62
     7
100
AcDbLine
 10
89.8688289118
 20
20.9250894182
 30
0.0
 11
89.8688289118
 21
21.3876871676
 31
0.0
  0
LINE
  5
CA
330
1F
100
AcDbEntity
  8
0
  6
CONTINUOUS
 62
     7
100
AcDbLine
 10
89.8294616865
 20
20.8857198463
 30
0.0
 11
89.4137122493
 21
20.8857198463
 31
0.0
  0
ARC
  5
CB
330
1F
100
AcDbEntity
  8
0
  6
CONTINUOUS
 62
     7
100
AcDbCircle
 10
89.8294598453
 20
20.9250890659
 30
0.0
 40
0.0393700787401556
100
AcDbArc
 50
270.0
 51
0.0
  0
ARC
  5
CC
330
1F
100
AcDbEntity
  8
0
  6
CONTINUOUS
 62
     7
100
AcDbCircle
 10
74.3570189004
 20
1.9320181997
 30
0.0
 40
0.2362204724409449
100
AcDbArc
 50
90.0
 51
180.0
  0
LINE
  5
CD
330
1F
100
AcDbEntity
  8
0
  6
CONTINUOUS
 62
     7
100
AcDbLine
 10
79.7881253116
 20
2.1682386856
 30
0.0
 11
74.3570204788
 21
2.1682386856
 31
0.0
  0
ARC
  5
CE
330
1F
100
AcDbEntity
  8
0
  6
CONTINUOUS
 62
     7
100
AcDbCircle
 10
79.7881212626
 20
2.640679617
 30
0.0
 40
0.4724409448818818
100
AcDbArc
 50
270.0
 51
0.0
  0
LINE
  5
CF
330
1F
100
AcDbEntity
  8
0
  6
CONTINUOUS
 62
     7
100
AcDbLine
 10
80.260560174
 20
7.4135407047
 30
0.0
 11
80.260560174
 21
2.6406797079
 31
0.0
  0
ARC
  5
D0
330
1F
100
AcDbEntity
  8
0
  6
CONTINUOUS
 62
     7
100
AcDbCircle
 10
81.0105622075
 20
7.4135405094
 30
0.0
 40
0.75
100
AcDbArc
 50
120.0
 51
180.0
  0
ARC
  5
D1
330
1F
100
AcDbEntity
  8
0
  6
CONTINUOUS
 62
     7
100
AcDbCircle
 10
80.2605622075
 20
8.7125786151
 30
0.0
 40
0.75
100
AcDbArc
 50
300.0
 51
0.0
  0
LINE
  5
D2
330
1F
100
AcDbEntity
  8
0
  6
CONTINUOUS
 62
     7
100
AcDbLine
 10
81.0105649498
 20
11.8716941638
 30
0.0
 11
81.0105649498
 21
8.7125787648
 31
0.0
  0
ARC
  5
D3
330
1F
100
AcDbEntity
  8
0
  6
CONTINUOUS
 62
     7
100
AcDbCircle
 10
80.2605622075
 20
11.8716940048
 30
0.0
 40
0.75
100
AcDbArc
 50
0.0
 51
60.0
  0
ARC
  5
D4
330
1F
100
AcDbEntity
  8
0
  6
CONTINUOUS
 62
     7
100
AcDbCircle
 10
81.0105622075
 20
13.1707321105
 30
0.0
 40
0.75
100
AcDbArc
 50
180.0
 51
240.0
  0
LINE
  5
D5
330
1F
100
AcDbEntity
  8
0
  6
CONTINUOUS
 62
     7
100
AcDbLine
 10
80.260560174
 20
17.943593514
 30
0.0
 11
80.260560174
 21
13.1707316372
 31
0.0
  0
ARC
  5
D6
330
1F
100
AcDbEntity
  8
0
  6
CONTINUOUS
 62
     7
100
AcDbCircle
 10
79.7881212626
 20
17.9435930029
 30
0.0
 40
0.4724409448818889
100
AcDbArc
 50
0.0
 51
90.0
  0
LINE
  5
D7
330
1F
100
AcDbEntity
  8
0
  6
CONTINUOUS
 62
     7
100
AcDbLine
 10
74.3570204788
 20
18.416034243
 30
0.0
 11
79.7881253116
 21
18.416034243
 31
0.0
  0
ARC
  5
D8
330
1F
100
AcDbEntity
  8
0
  6
CONTINUOUS
 62
     7
100
AcDbCircle
 10
74.3570189004
 20
18.6522544202
 30
0.0
 40
0.236220472440948
100
AcDbArc
 50
180.0
 51
270.0
  0
LINE
  5
D9
330
1F
100
AcDbEntity
  8
0
  6
CONTINUOUS
 62
     7
100
AcDbLine
 10
74.1207983544
 20
19.1148529435
 30
0.0
 11
74.1207983544
 21
18.6522540208
 31
0.0
  0
ARC
  5
DA
330
1F
100
AcDbEntity
  8
0
  6
CONTINUOUS
 62
     7
100
AcDbCircle
 10
74.1601685067
 20
19.1148528454
 30
0.0
 40
0.0393700787401556
100
AcDbArc
 50
90.0
 51
180.0
  0
LINE
  5
DB
330
1F
100
AcDbEntity
  8
0
  6
CONTINUOUS
 62
     7
100
AcDbLine
 10
74.1601702729
 20
19.1542225154
 30
0.0
 11
74.5759150168
 21
19.1542225154
 31
0.0
  0
LINE
  5
DC
330
1F
100
AcDbEntity
  8
0
  6
CONTINUOUS
 62
     7
100
AcDbLine
 10
74.5759150168
 20
19.1542225154
 30
0.0
 11
74.5893049421
 21
18.9450149055
 31
0.0
  0
ARC
  5
DD
330
1F
100
AcDbEntity
  8
0
  6
CONTINUOUS
 62
     7
100
AcDbCircle
 10
74.6285955109
 20
18.9475300107
 30
0.0
 40
0.0393700787401592
100
AcDbArc
 50
183.6619355755
 51
270.0
  0
LINE
  5
DE
330
1F
100
AcDbEntity
  8
0
  6
CONTINUOUS
 62
     7
100
AcDbLine
 10
74.6285970749
 20
18.9081597579
 30
0.0
 11
74.9687424788
 21
18.9081597579
 31
0.0
  0
ARC
  5
DF
330
1F
100
AcDbEntity
  8
0
  6
CONTINUOUS
 62
     7
100
AcDbCircle
 10
74.9687402239
 20
18.8687898533
 30
0.0
 40
0.0393700787401556
100
AcDbArc
 50
65.1121079736
 51
90.0
  0
ARC
  5
E0
330
1F
100
AcDbEntity
  8
0
  6
CONTINUOUS
 62
     7
100
AcDbCircle
 10
75.0709688949
 20
19.0891445942
 30
0.0
 40
0.2035433070866144
100
AcDbArc
 50
245.1121079736
 51
72.3995332141
  0
ARC
  5
E1
330
1F
100
AcDbEntity
  8
0
  6
CONTINUOUS
 62
     7
100
AcDbCircle
 10
75.1444204752
 20
19.3206867682
 30
0.0
 40
0.0393700787401627
100
AcDbArc
 50
180.0
 51
252.3995332141
  0
LINE
  5
E2
330
1F
100
AcDbEntity
  8
0
  6
CONTINUOUS
 62
     7
100
AcDbLine
 10
75.1050493842
 20
19.4003650586
 30
0.0
 11
75.1050493842
 21
19.320687259
 31
0.0
  0
LINE
  5
E3
330
1F
100
AcDbEntity
  8
0
  6
CONTINUOUS
 62
     7
100
AcDbLine
 10
80.5381207009
 20
19.4003650586
 30
0.0
 11
75.1050493842
 21
19.4003650586
 31
0.0
  0
ARC
  5
E4
330
1F
100
AcDbEntity
  8
0
  6
CONTINUOUS
 62
     7
100
AcDbCircle
 10
80.5381212626
 20
18.9279237115
 30
0.0
 40
0.4724409448818889
100
AcDbArc
 50
0.0
 51
90.0
  0
LINE
  5
E5
330
1F
100
AcDbEntity
  8
0
  6
CONTINUOUS
 62
     7
100
AcDbLine
 10
81.0105649498
 20
13.6431735395
 30
0.0
 11
81.0105649498
 21
18.9279231563
 31
0.0
  0
ARC
  5
E6
330
1F
100
AcDbEntity
  8
0
  6
CONTINUOUS
 62
     7
100
AcDbCircle
 10
81.4830031524
 20
13.6431730554
 30
0.0
 40
0.4724409448819102
100
AcDbArc
 50
180.0
 51
270.0
  0
LINE
  5
E7
330
1F
100
AcDbEntity
  8
0
  6
CONTINUOUS
 62
     7
100
AcDbLine
 10
82.5066227606
 20
13.1707316372
 30
0.0
 11
81.4829998122
 21
13.1707316372
 31
0.0
  0
ARC
  5
E8
330
1F
100
AcDbEntity
  8
0
  6
CONTINUOUS
 62
     7
100
AcDbCircle
 10
82.5066251996
 20
13.6431730554
 30
0.0
 40
0.4724409448818889
100
AcDbArc
 50
270.0
 51
0.0
  0
LINE
  5
E9
330
1F
100
AcDbEntity
  8
0
  6
CONTINUOUS
 62
     7
100
AcDbLine
 10
82.9790670095
 20
18.9279231563
 30
0.0
 11
82.9790670095
 21
13.6431735395
 31
0.0
  0
ARC
  5
EA
330
1F
100
AcDbEntity
  8
0
  6
CONTINUOUS
 62
     7
100
AcDbCircle
 10
83.4515070894
 20
18.9279237115
 30
0.0
 40
0.4724409448819102
100
AcDbArc
 50
90.0
 51
180.0
  0
LINE
  5
EB
330
1F
100
AcDbEntity
  8
0
  6
CONTINUOUS
 62
     7
100
AcDbLine
 10
88.8845825752
 20
19.4003650586
 30
0.0
 11
83.4515112585
 21
19.4003650586
 31
0.0
  0
LINE
  5
EC
330
1F
100
AcDbEntity
  8
0
  6
CONTINUOUS
 62
     7
100
AcDbLine
 10
88.8845825752
 20
19.320687259
 30
0.0
 11
88.8845825752
 21
19.4003650586
 31
0.0
  0
ARC
  5
ED
330
1F
100
AcDbEntity
  8
0
  6
CONTINUOUS
 62
     7
100
AcDbCircle
 10
88.8452078768
 20
19.3206867682
 30
0.0
 40
0.0393700787401492
100
AcDbArc
 50
287.6004667858
 51
0.0
  0
ARC
  5
EE
330
1F
100
AcDbEntity
  8
0
  6
CONTINUOUS
 62
     7
100
AcDbCircle
 10
88.9186594571
 20
19.0891445942
 30
0.0
 40
0.2035433070866172
100
AcDbArc
 50
107.6004667859
 51
294.8878920264
  0
ARC
  5
EF
330
1F
100
AcDbEntity
  8
0
  6
CONTINUOUS
 62
     7
100
AcDbCircle
 10
89.0208881281
 20
18.8687898533
 30
0.0
 40
0.0393700787401556
100
AcDbArc
 50
90.0
 51
114.8878920264
  0
LINE
  5
F0
330
1F
100
AcDbEntity
  8
0
  6
CONTINUOUS
 62
     7
100
AcDbLine
 10
89.0208847873
 20
18.9081597579
 30
0.0
 11
89.3610348845
 21
18.9081597579
 31
0.0
  0
ARC
  5
F1
330
1F
100
AcDbEntity
  8
0
  6
CONTINUOUS
 62
     7
100
AcDbCircle
 10
89.361032841
 20
18.9475300107
 30
0.0
 40
0.039370078740159
100
AcDbArc
 50
270.0
 51
356.3380644245
  0
LINE
  5
F2
330
1F
100
AcDbEntity
  8
0
  6
CONTINUOUS
 62
     7
100
AcDbLine
 10
89.4003270173
 20
18.9450149055
 30
0.0
 11
89.4137122493
 21
19.1542225154
 31
0.0
  0
LINE
  5
F3
330
1F
100
AcDbEntity
  8
0
  6
CONTINUOUS
 62
     7
100
AcDbLine
 10
89.4137122493
 20
19.1542225154
 30
0.0
 11
89.8294616865
 21
19.1542225154
 31
0.0
  0
ARC
  5
F4
330
1F
100
AcDbEntity
  8
0
  6
CONTINUOUS
 62
     7
100
AcDbCircle
 10
89.8294598453
 20
19.1148528454
 30
0.0
 40
0.039370078740177
100
AcDbArc
 50
0.0
 51
90.0
  0
LINE
  5
F5
330
1F
100
AcDbEntity
  8
0
  6
CONTINUOUS
 62
     7
100
AcDbLine
 10
89.8688289118
 20
18.6522540208
 30
0.0
 11
89.8688289118
 21
19.1148529435
 31
0.0
  0
ARC
  5
F6
330
1F
100
AcDbEntity
  8
0
  6
CONTINUOUS
 62
     7
100
AcDbCircle
 10
89.6326094516
 20
18.6522544202
 30
0.0
 40
0.2362204724409622
100
AcDbArc
 50
270.0
 51
0.0
  0
LINE
  5
F7
330
1F
100
AcDbEntity
  8
0
  6
CONTINUOUS
 62
     7
100
AcDbLine
 10
84.2015066478
 20
18.416034243
 30
0.0
 11
89.6326067873
 21
18.416034243
 31
0.0
  0
ARC
  5
F8
330
1F
100
AcDbEntity
  8
0
  6
CONTINUOUS
 62
     7
100
AcDbCircle
 10
84.2015070894
 20
17.9435930029
 30
0.0
 40
0.4724409448819102
100
AcDbArc
 50
90.0
 51
180.0
  0
LINE
  5
F9
330
1F
100
AcDbEntity
  8
0
  6
CONTINUOUS
 62
     7
100
AcDbLine
 10
83.7290623989
 20
13.1707316372
 30
0.0
 11
83.7290623989
 21
17.943593514
 31
0.0
  0
ARC
  5
FA
330
1F
100
AcDbEntity
  8
0
  6
CONTINUOUS
 62
     7
100
AcDbCircle
 10
82.9790661445
 20
13.1707321105
 30
0.0
 40
0.75
100
AcDbArc
 50
300.0
 51
0.0
  0
ARC
  5
FB
330
1F
100
AcDbEntity
  8
0
  6
CONTINUOUS
 62
     7
100
AcDbCircle
 10
83.7290661445
 20
11.8716940048
 30
0.0
 40
0.75
100
AcDbArc
 50
120.0
 51
180.0
  0
LINE
  5
FC
330
1F
100
AcDbEntity
  8
0
  6
CONTINUOUS
 62
     7
100
AcDbLine
 10
82.9790670095
 20
8.7125787648
 30
0.0
 11
82.9790670095
 21
11.8716941638
 31
0.0
  0
ARC
  5
FD
330
1F
100
AcDbEntity
  8
0
  6
CONTINUOUS
 62
     7
100
AcDbCircle
 10
83.7290661445
 20
8.7125786151
 30
0.0
 40
0.7500000000000142
100
AcDbArc
 50
180.0
 51
240.0
  0
ARC
  5
FE
330
1F
100
AcDbEntity
  8
0
  6
CONTINUOUS
 62
     7
100
AcDbCircle
 10
82.9790661445
 20
7.4135405094
 30
0.0
 40
0.7499999999999827
100
AcDbArc
 50
0.0
 51
60.0
  0
LINE
  5
FF
330
1F
100
AcDbEntity
  8
0
  6
CONTINUOUS
 62
     7
100
AcDbLine
 10
83.7290623989
 20
2.6406797079
 30
0.0
 11
83.7290623989
 21
7.4135407047
 31
0.0
  0
ARC
  5
100
330
1F
100
AcDbEntity
  8
0
  6
CONTINUOUS
 62
     7
100
AcDbCircle
 10
84.2015070894
 20
2.640679617
 30
0.0
 40
0.4724409448819102
100
AcDbArc
 50
180.0
 51
270.0
  0
LINE
  5
101
330
1F
100
AcDbEntity
  8
0
  6
CONTINUOUS
 62
     7
100
AcDbLine
 10
89.6326067873
 20
2.1682386856
 30
0.0
 11
84.2015066478
 21
2.1682386856
 31
0.0
  0
ARC
  5
102
330
1F
100
AcDbEntity
  8
0
  6
CONTINUOUS
 62
     7
100
AcDbCircle
 10
89.6326094516
 20
1.9320181997
 30
0.0
 40
0.2362204724409622
100
AcDbArc
 50
0.0
 51
90.0
  0
LINE
  5
103
330
1F
100
AcDbEntity
  8
0
  6
CONTINUOUS
 62
     7
100
AcDbLine
 10
89.8688289118
 20
1.4694198384
 30
0.0
 11
89.8688289118
 21
1.9320181744
 31
0.0
  0
ARC
  5
104
330
1F
100
AcDbEntity
  8
0
  6
CONTINUOUS
 62
     7
100
AcDbCircle
 10
89.8294598453
 20
1.4694197745
 30
0.0
 40
0.039370078740177
100
AcDbArc
 50
270.0
 51
0.0
  0
LINE
  5
105
330
1F
100
AcDbEntity
  8
0
  6
CONTINUOUS
 62
     7
100
AcDbLine
 10
89.8294616865
 20
1.4300496799
 30
0.0
 11
89.4137122493
 21
1.4300496799
 31
0.0
  0
LINE
  5
106
330
1F
100
AcDbEntity
  8
0
  6
CONTINUOUS
 62
     7
100
AcDbLine
 10
89.4137122493
 20
1.4300496799
 30
0.0
 11
89.4003270173
 21
1.6392571431
 31
0.0
  0
ARC
  5
107
330
1F
100
AcDbEntity
  8
0
  6
CONTINUOUS
 62
     7
100
AcDbCircle
 10
89.361032841
 20
1.6367426092
 30
0.0
 40
0.039370078740159
100
AcDbArc
 50
3.6619355755
 51
90.0
  0
LINE
  5
108
330
1F
100
AcDbEntity
  8
0
  6
CONTINUOUS
 62
     7
100
AcDbLine
 10
89.3610348845
 20
1.6761127307
 30
0.0
 11
89.0208847873
 21
1.6761127307
 31
0.0
  0
ARC
  5
109
330
1F
100
AcDbEntity
  8
0
  6
CONTINUOUS
 62
     7
100
AcDbCircle
 10
89.0208881281
 20
1.7154827666
 30
0.0
 40
0.0393700787401574
100
AcDbArc
 50
245.1121079736
 51
270.0
  0
ARC
  5
10A
330
1F
100
AcDbEntity
  8
0
  6
CONTINUOUS
 62
     7
100
AcDbCircle
 10
88.9186594571
 20
1.4951280257
 30
0.0
 40
0.2035433070866162
100
AcDbArc
 50
65.1121079736
 51
252.3995332141
  0
ARC
  5
10B
330
1F
100
AcDbEntity
  8
0
  6
CONTINUOUS
 62
     7
100
AcDbCircle
 10
88.8452078768
 20
1.2635858517
 30
0.0
 40
0.0393700787401519
100
AcDbArc
 50
0.0
 51
72.3995332142
  0
LINE
  5
10C
330
1F
100
AcDbEntity
  8
0
  6
CONTINUOUS
 62
     7
100
AcDbLine
 10
88.8845825752
 20
1.1839079433
 30
0.0
 11
88.8845825752
 21
1.2635858162
 31
0.0
  0
LINE
  5
10D
330
1F
100
AcDbEntity
  8
0
  6
CONTINUOUS
 62
     7
100
AcDbLine
 10
83.4515112585
 20
1.1839079433
 30
0.0
 11
88.8845825752
 21
1.1839079433
 31
0.0
  0
ARC
  5
10E
330
1F
100
AcDbEntity
  8
0
  6
CONTINUOUS
 62
     7
100
AcDbCircle
 10
83.4515070894
 20
1.6563489084
 30
0.0
 40
0.4724409448818903
100
AcDbArc
 50
180.0
 51
270.0
  0
LINE
  5
10F
330
1F
100
AcDbEntity
  8
0
  6
CONTINUOUS
 62
     7
100
AcDbLine
 10
82.9790670095
 20
6.9410993891
 30
0.0
 11
82.9790670095
 21
1.6563488923
 31
0.0
  0
ARC
  5
110
330
1F
100
AcDbEntity
  8
0
  6
CONTINUOUS
 62
     7
100
AcDbCircle
 10
82.5066251996
 20
6.9410995645
 30
0.0
 40
0.4724409448819102
100
AcDbArc
 50
0.0
 51
90.0
  0
LINE
  5
111
330
1F
100
AcDbEntity
  8
0
  6
CONTINUOUS
 62
     7
100
AcDbLine
 10
81.4829998122
 20
7.4135407047
 30
0.0
 11
82.5066227606
 21
7.4135407047
 31
0.0
  0
ARC
  5
112
330
1F
100
AcDbEntity
  8
0
  6
CONTINUOUS
 62
     7
100
AcDbCircle
 10
81.4830031524
 20
6.9410995645
 30
0.0
 40
0.4724409448819102
100
AcDbArc
 50
90.0
 51
180.0
  0
LINE
  5
113
330
1F
100
AcDbEntity
  8
0
  6
CONTINUOUS
 62
     7
100
AcDbLine
 10
81.0105649498
 20
1.6563488923
 30
0.0
 11
81.0105649498
 21
6.9410993891
 31
0.0
  0
ARC
  5
114
330
1F
100
AcDbEntity
  8
0
  6
CONTINUOUS
 62
     7
100
AcDbCircle
 10
80.5381212626
 20
1.6563489084
 30
0.0
 40
0.4724409448818903
100
AcDbArc
 50
270.0
 51
0.0
  0
LINE
  5
115
330
1F
100
AcDbEntity
  8
0
  6
CONTINUOUS
 62
     7
100
AcDbLine
 10
75.1050493842
 20
1.1839079433
 30
0.0
 11
80.5381207009
 21
1.1839079433
 31
0.0
  0
LINE
  5
116
330
1F
100
AcDbEntity
  8
0
  6
CONTINUOUS
 62
     7
100
AcDbLine
 10
75.1050493842
 20
1.2635858162
 30
0.0
 11
75.1050493842
 21
1.1839079433
 31
0.0
  0
ARC
  5
117
330
1F
100
AcDbEntity
  8
0
  6
CONTINUOUS
 62
     7
100
AcDbCircle
 10
75.1444204752
 20
1.2635858517
 30
0.0
 40
0.0393700787401562
100
AcDbArc
 50
107.6004667859
 51
180.0
  0
ARC
  5
118
330
1F
100
AcDbEntity
  8
0
  6
CONTINUOUS
 62
     7
100
AcDbCircle
 10
75.0709688949
 20
1.4951280257
 30
0.0
 40
0.2035433070866184
100
AcDbArc
 50
287.6004667859
 51
114.8878920264
  0
ARC
  5
119
330
1F
100
AcDbEntity
  8
0
  6
CONTINUOUS
 62
     7
100
AcDbCircle
 10
74.9687402239
 20
1.7154827666
 30
0.0
 40
0.0393700787401574
100
AcDbArc
 50
270.0
 51
294.8878920264
  0
LINE
  5
11A
330
1F
100
AcDbEntity
  8
0
  6
CONTINUOUS
 62
     7
100
AcDbLine
 10
74.9687424788
 20
1.6761127307
 30
0.0
 11
74.6285970749
 21
1.6761127307
 31
0.0
  0
ARC
  5
11B
330
1F
100
AcDbEntity
  8
0
  6
CONTINUOUS
 62
     7
100
AcDbCircle
 10
74.6285955109
 20
1.6367426092
 30
0.0
 40
0.039370078740159
100
AcDbArc
 50
90.0
 51
176.3380644245
  0
LINE
  5
11C
330
1F
100
AcDbEntity
  8
0
  6
CONTINUOUS
 62
     7
100
AcDbLine
 10
74.5893049421
 20
1.6392571431
 30
0.0
 11
74.5759150168
 21
1.4300496799
 31
0.0
  0
LINE
  5
11D
330
1F
100
AcDbEntity
  8
0
  6
CONTINUOUS
 62
     7
100
AcDbLine
 10
74.5759150168
 20
1.4300496799
 30
0.0
 11
74.1601702729
 21
1.4300496799
 31
0.0
  0
ARC
  5
11E
330
1F
100
AcDbEntity
  8
0
  6
CONTINUOUS
 62
     7
100
AcDbCircle
 10
74.1601685067
 20
1.4694197745
 30
0.0
 40
0.0393700787401574
100
AcDbArc
 50
180.0
 51
270.0
  0
LINE
  5
11F
330
1F
100
AcDbEntity
  8
0
  6
CONTINUOUS
 62
     7
100
AcDbLine
 10
74.1207983544
 20
1.9320181744
 30
0.0
 11
74.1207983544
 21
1.4694198384
 31
0.0
  0
LINE
  5
120
330
1F
100
AcDbEntity
  8
0
  6
CONTINUOUS
 62
     7
100
AcDbLine
 10
72.8814300583
 20
22.2146171348
 30
0.0
 11
72.8814300583
 21
23.7894187825
 31
0.0
  0
LINE
  5
121
330
1F
100
AcDbEntity
  8
0
  6
CONTINUOUS
 62
     7
100
AcDbLine
 10
58.60190307
 20
23.7894187825
 30
0.0
 11
58.60190307
 21
22.2146171348
 31
0.0
  0
LINE
  5
122
330
1F
100
AcDbEntity
  8
0
  6
CONTINUOUS
 62
     7
100
AcDbLine
 10
58.60190307
 20
23.7894187825
 30
0.0
 11
72.8814300583
 21
23.7894187825
 31
0.0
  0
LINE
  5
123
330
1F
100
AcDbEntity
  8
0
  6
CONTINUOUS
 62
     7
100
AcDbLine
 10
58.60190307
 20
22.2146171348
 30
0.0
 11
72.8814300583
 21
22.2146171348
 31
0.0
  0
LINE
  5
124
330
1F
100
AcDbEntity
  8
0
  6
CONTINUOUS
 62
     7
100
AcDbLine
 10
72.8814300583
 20
42.0059569302
 30
0.0
 11
58.60190307
 21
42.0059569302
 31
0.0
  0
LINE
  5
125
330
1F
100
AcDbEntity
  8
0
  6
CONTINUOUS
 62
     7
100
AcDbLine
 10
72.8814300583
 20
24.2961122358
 30
0.0
 11
58.60190307
 21
24.2961122358
 31
0.0
  0
LINE
  5
126
330
1F
100
AcDbEntity
  8
0
  6
CONTINUOUS
 62
     7
100
AcDbLine
 10
58.60190307
 20
42.0059569302
 30
0.0
 11
58.60190307
 21
24.2961122358
 31
0.0
  0
LINE
  5
127
330
1F
100
AcDbEntity
  8
0
  6
CONTINUOUS
 62
     7
100
AcDbLine
 10
72.8814300583
 20
24.2961122358
 30
0.0
 11
72.8814300583
 21
42.0059569302
 31
0.0
  0
LINE
  5
128
330
1F
100
AcDbEntity
  8
0
  6
CONTINUOUS
 62
     7
100
AcDbLine
 10
58.60190307
 20
23.7894187825
 30
0.0
 11
58.60190307
 21
24.2961122358
 31
0.0
  0
LINE
  5
129
330
1F
100
AcDbEntity
  8
0
  6
CONTINUOUS
 62
     7
100
AcDbLine
 10
72.8814300583
 20
24.2961122358
 30
0.0
 11
72.8814300583
 21
23.7894187825
 31
0.0
  0
LINE
  5
12A
330
1F
100
AcDbEntity
  8
0
  6
CONTINUOUS
 62
     7
100
AcDbLine
 10
58.60190307
 20
1.1839079433
 30
0.0
 11
72.8814300583
 21
1.1839079433
 31
0.0
  0
LINE
  5
12B
330
1F
100
AcDbEntity
  8
0
  6
CONTINUOUS
 62
     7
100
AcDbLine
 10
58.60190307
 20
2.7587109844
 30
0.0
 11
58.60190307
 21
1.1839079433
 31
0.0
  0
LINE
  5
12C
330
1F
100
AcDbEntity
  8
0
  6
CONTINUOUS
 62
     7
100
AcDbLine
 10
72.8814300583
 20
2.7587109844
 30
0.0
 11
58.60190307
 21
2.7587109844
 31
0.0
  0
LINE
  5
12D
330
1F
100
AcDbEntity
  8
0
  6
CONTINUOUS
 62
     7
100
AcDbLine
 10
72.8814300583
 20
1.1839079433
 30
0.0
 11
72.8814300583
 21
2.7587109844
 31
0.0
  0
LINE
  5
12E
330
1F
100
AcDbEntity
  8
0
  6
CONTINUOUS
 62
     7
100
AcDbLine
 10
72.8814300583
 20
20.9752464921
 30
0.0
 11
58.60190307
 21
20.9752464921
 31
0.0
  0
LINE
  5
12F
330
1F
100
AcDbEntity
  8
0
  6
CONTINUOUS
 62
     7
100
AcDbLine
 10
58.60190307
 20
3.2654041444
 30
0.0
 11
72.8814300583
 21
3.2654041444
 31
0.0
  0
LINE
  5
130
330
1F
100
AcDbEntity
  8
0
  6
CONTINUOUS
 62
     7
100
AcDbLine
 10
58.60190307
 20
20.9752464921
 30
0.0
 11
58.60190307
 21
3.2654041444
 31
0.0
  0
LINE
  5
131
330
1F
100
AcDbEntity
  8
0
  6
CONTINUOUS
 62
     7
100
AcDbLine
 10
72.8814300583
 20
3.2654041444
 30
0.0
 11
72.8814300583
 21
20.9752464921
 31
0.0
  0
LINE
  5
132
330
1F
100
AcDbEntity
  8
0
  6
CONTINUOUS
 62
     7
100
AcDbLine
 10
58.60190307
 20
2.7587109844
 30
0.0
 11
58.60190307
 21
3.2654041444
 31
0.0
  0
LINE
  5
133
330
1F
100
AcDbEntity
  8
0
  6
CONTINUOUS
 62
     7
100
AcDbLine
 10
72.8814300583
 20
3.2654041444
 30
0.0
 11
72.8814300583
 21
2.7587109844
 31
0.0
  0
ARC
  5
134
330
1F
100
AcDbEntity
  8
0
  6
CONTINUOUS
 62
     7
100
AcDbCircle
 10
40.5731602556
 20
17.4750762551
 30
0.0
 40
0.2035433070866219
100
AcDbArc
 50
356.0551715497
 51
24.8879105874
  0
ARC
  5
135
330
1F
100
AcDbEntity
  8
0
  6
CONTINUOUS
 62
     7
100
AcDbCircle
 10
40.7935149634
 20
17.5773049975
 30
0.0
 40
0.0393700787401643
100
AcDbArc
 50
180.0
 51
204.8879105874
  0
LINE
  5
136
330
1F
100
AcDbEntity
  8
0
  6
CONTINUOUS
 62
     7
100
AcDbLine
 10
40.7541463688
 20
17.8180694174
 30
0.0
 11
40.7541463688
 21
17.5773053721
 31
0.0
  0
ARC
  5
137
330
1F
100
AcDbEntity
  8
0
  6
CONTINUOUS
 62
     7
100
AcDbCircle
 10
40.7935172043
 20
17.8180699846
 30
0.0
 40
0.0393723196329034
100
AcDbArc
 50
155.1122431696
 51
180.0
  0
ARC
  5
138
330
1F
100
AcDbEntity
  8
0
  6
CONTINUOUS
 62
     7
100
AcDbCircle
 10
40.5731601894
 20
17.9202990787
 30
0.0
 40
0.2035433070866187
100
AcDbArc
 50
335.1122431696
 51
162.3995496328
  0
ARC
  5
139
330
1F
100
AcDbEntity
  8
0
  6
CONTINUOUS
 62
     7
100
AcDbCircle
 10
40.3416179943
 20
17.9937505927
 30
0.0
 40
0.0393700787401586
100
AcDbArc
 50
270.0000788272
 51
342.3995496328
  0
LINE
  5
13A
330
1F
100
AcDbEntity
  8
0
  6
CONTINUOUS
 62
     7
100
AcDbLine
 10
40.1824204934
 20
17.9543798427
 30
0.0
 11
40.341616521
 21
17.9543810161
 31
0.0
  0
ARC
  5
13B
330
1F
100
AcDbEntity
  8
0
  6
CONTINUOUS
 62
     7
100
AcDbCircle
 10
40.1824196982
 20
17.9937503737
 30
0.0
 40
0.0393701391982705
100
AcDbArc
 50
197.6004832045
 51
270.0000788272
  0
ARC
  5
13C
330
1F
100
AcDbEntity
  8
0
  6
CONTINUOUS
 62
     7
100
AcDbCircle
 10
39.9508775452
 20
17.920298727
 30
0.0
 40
0.2035432466285012
100
AcDbArc
 50
17.6004832045
 51
204.8878047833
  0
ARC
  5
13D
330
1F
100
AcDbEntity
  8
0
  6
CONTINUOUS
 62
     7
100
AcDbCircle
 10
39.7305228374
 20
17.8180704791
 30
0.0
 40
0.0393699915522632
100
AcDbArc
 50
0.0
 51
24.8878047833
  0
LINE
  5
13E
330
1F
100
AcDbEntity
  8
0
  6
CONTINUOUS
 62
     7
100
AcDbLine
 10
39.7698906456
 20
17.5773041988
 30
0.0
 11
39.7698906456
 21
17.8180705907
 31
0.0
  0
ARC
  5
13F
330
1F
100
AcDbEntity
  8
0
  6
CONTINUOUS
 62
     7
100
AcDbCircle
 10
39.7305228374
 20
17.577304503
 30
0.0
 40
0.0393700787401627
100
AcDbArc
 50
335.1121265345
 51
0.0
  0
ARC
  5
140
330
1F
100
AcDbEntity
  8
0
  6
CONTINUOUS
 62
     7
100
AcDbCircle
 10
39.9508776114
 20
17.4750759034
 30
0.0
 40
0.2035433070866184
100
AcDbArc
 50
155.1121265345
 51
183.9447292075
  0
LINE
  5
141
330
1F
100
AcDbEntity
  8
0
  6
CONTINUOUS
 62
     7
100
AcDbLine
 10
39.747818154
 20
17.4610727948
 30
0.0
 11
24.5341197706
 21
17.4610727948
 31
0.0
  0
ARC
  5
142
330
1F
100
AcDbEntity
  8
0
  6
CONTINUOUS
 62
     7
100
AcDbCircle
 10
24.3310578934
 20
17.4750762551
 30
0.0
 40
0.2035433070866118
100
AcDbArc
 50
356.0551715497
 51
24.8879105874
  0
ARC
  5
143
330
1F
100
AcDbEntity
  8
0
  6
CONTINUOUS
 62
     7
100
AcDbCircle
 10
24.5514126012
 20
17.5773049975
 30
0.0
 40
0.0393700787401592
100
AcDbArc
 50
180.0
 51
204.8879105874
  0
LINE
  5
144
330
1F
100
AcDbEntity
  8
0
  6
CONTINUOUS
 62
     7
100
AcDbLine
 10
24.5120425856
 20
17.8180694174
 30
0.0
 11
24.5120425856
 21
17.5773053721
 31
0.0
  0
ARC
  5
145
330
1F
100
AcDbEntity
  8
0
  6
CONTINUOUS
 62
     7
100
AcDbCircle
 10
24.5514148421
 20
17.8180699846
 30
0.0
 40
0.039372319632907
100
AcDbArc
 50
155.1122431696
 51
180.0
  0
ARC
  5
146
330
1F
100
AcDbEntity
  8
0
  6
CONTINUOUS
 62
     7
100
AcDbCircle
 10
24.3310578272
 20
17.9202990787
 30
0.0
 40
0.2035433070866194
100
AcDbArc
 50
335.1122431696
 51
162.3995496328
  0
ARC
  5
147
330
1F
100
AcDbEntity
  8
0
  6
CONTINUOUS
 62
     7
100
AcDbCircle
 10
24.0995156321
 20
17.9937505927
 30
0.0
 40
0.0393700787401609
100
AcDbArc
 50
270.0000788272
 51
342.3995496328
  0
LINE
  5
148
330
1F
100
AcDbEntity
  8
0
  6
CONTINUOUS
 62
     7
100
AcDbLine
 10
23.9403167102
 20
17.9543798427
 30
0.0
 11
24.0995150845
 21
17.9543810161
 31
0.0
  0
ARC
  5
149
330
1F
100
AcDbEntity
  8
0
  6
CONTINUOUS
 62
     7
100
AcDbCircle
 10
23.940317336
 20
17.9937503737
 30
0.0
 40
0.0393701391982705
100
AcDbArc
 50
197.6004832045
 51
270.0000788272
  0
ARC
  5
14A
330
1F
100
AcDbEntity
  8
0
  6
CONTINUOUS
 62
     7
100
AcDbCircle
 10
23.708775183
 20
17.920298727
 30
0.0
 40
0.2035432466285012
100
AcDbArc
 50
17.6004832045
 51
204.8878047833
  0
ARC
  5
14B
330
1F
100
AcDbEntity
  8
0
  6
CONTINUOUS
 62
     7
100
AcDbCircle
 10
23.4884204752
 20
17.8180704791
 30
0.0
 40
0.0393699915522539
100
AcDbArc
 50
0.0
 51
24.8878047833
  0
LINE
  5
14C
330
1F
100
AcDbEntity
  8
0
  6
CONTINUOUS
 62
     7
100
AcDbLine
 10
23.5277915557
 20
17.5773041988
 30
0.0
 11
23.5277915557
 21
17.8180705907
 31
0.0
  0
ARC
  5
14D
330
1F
100
AcDbEntity
  8
0
  6
CONTINUOUS
 62
     7
100
AcDbCircle
 10
23.4884204752
 20
17.577304503
 30
0.0
 40
0.0393700787401556
100
AcDbArc
 50
335.1121265345
 51
0.0
  0
ARC
  5
14E
330
1F
100
AcDbEntity
  8
0
  6
CONTINUOUS
 62
     7
100
AcDbCircle
 10
23.7087752492
 20
17.4750759034
 30
0.0
 40
0.2035433070866152
100
AcDbArc
 50
155.1121265345
 51
183.9447292075
  0
LINE
  5
14F
330
1F
100
AcDbEntity
  8
0
  6
CONTINUOUS
 62
     7
100
AcDbLine
 10
23.5057143708
 20
17.4610727948
 30
0.0
 11
22.0522950008
 21
17.4610727948
 31
0.0
  0
LINE
  5
150
330
1F
100
AcDbEntity
  8
0
  6
CONTINUOUS
 62
     7
100
AcDbLine
 10
22.0522950008
 20
18.3020180668
 30
0.0
 11
22.0522950008
 21
17.4610727948
 31
0.0
  0
ARC
  5
151
330
1F
100
AcDbEntity
  8
0
  6
CONTINUOUS
 62
     7
100
AcDbCircle
 10
22.2885149634
 20
18.3020181997
 30
0.0
 40
0.2362204724409445
100
AcDbArc
 50
90.0
 51
180.0
  0
LINE
  5
152
330
1F
100
AcDbEntity
  8
0
  6
CONTINUOUS
 62
     7
100
AcDbLine
 10
41.6074126718
 20
18.538239018
 30
0.0
 11
22.2885147786
 21
18.538239018
 31
0.0
  0
ARC
  5
153
330
1F
100
AcDbEntity
  8
0
  6
CONTINUOUS
 62
     7
100
AcDbCircle
 10
41.6074126012
 20
18.3020181997
 30
0.0
 40
0.236220472440948
100
AcDbArc
 50
0.0
 51
90.0
  0
LINE
  5
154
330
1F
100
AcDbEntity
  8
0
  6
CONTINUOUS
 62
     7
100
AcDbLine
 10
41.8436347962
 20
17.4610727948
 30
0.0
 11
41.8436347962
 21
18.3020180668
 31
0.0
  0
LINE
  5
155
330
1F
100
AcDbEntity
  8
0
  6
CONTINUOUS
 62
     7
100
AcDbLine
 10
41.8436347962
 20
17.4610727948
 30
0.0
 11
40.7762235537
 21
17.4610727948
 31
0.0
  0
ARC
  5
156
330
1F
100
AcDbEntity
  8
0
  6
CONTINUOUS
 62
     7
100
AcDbCircle
 10
23.708775183
 20
2.2470703806
 30
0.0
 40
0.203543246628506
100
AcDbArc
 50
176.0551703761
 51
204.8878047833
  0
ARC
  5
157
330
1F
100
AcDbEntity
  8
0
  6
CONTINUOUS
 62
     7
100
AcDbCircle
 10
23.4884204752
 20
2.1448421326
 30
0.0
 40
0.0393699915522605
100
AcDbArc
 50
0.0
 51
24.8878047833
  0
LINE
  5
158
330
1F
100
AcDbEntity
  8
0
  6
CONTINUOUS
 62
     7
100
AcDbLine
 10
23.5277915557
 20
1.9040761506
 30
0.0
 11
23.5277915557
 21
2.1448421025
 31
0.0
  0
ARC
  5
159
330
1F
100
AcDbEntity
  8
0
  6
CONTINUOUS
 62
     7
100
AcDbCircle
 10
23.4884204752
 20
1.9040761565
 30
0.0
 40
0.0393700787401627
100
AcDbArc
 50
335.1121265345
 51
0.0
  0
ARC
  5
15A
330
1F
100
AcDbEntity
  8
0
  6
CONTINUOUS
 62
     7
100
AcDbCircle
 10
23.7087752492
 20
1.8018475569
 30
0.0
 40
0.2035433070866168
100
AcDbArc
 50
155.1121265345
 51
342.3995496328
  0
ARC
  5
15B
330
1F
100
AcDbEntity
  8
0
  6
CONTINUOUS
 62
     7
100
AcDbCircle
 10
23.9403174443
 20
1.728396043
 30
0.0
 40
0.0393700787401584
100
AcDbArc
 50
90.0000788272
 51
162.3995496328
  0
LINE
  5
15C
330
1F
100
AcDbEntity
  8
0
  6
CONTINUOUS
 62
     7
100
AcDbLine
 10
24.0995150845
 20
1.7677663119
 30
0.0
 11
23.9403167102
 21
1.7677661652
 31
0.0
  0
ARC
  5
15D
330
1F
100
AcDbEntity
  8
0
  6
CONTINUOUS
 62
     7
100
AcDbCircle
 10
24.0995157404
 20
1.728396262
 30
0.0
 40
0.0393700787401613
100
AcDbArc
 50
17.6004832045
 51
90.0000788272
  0
ARC
  5
15E
330
1F
100
AcDbEntity
  8
0
  6
CONTINUOUS
 62
     7
100
AcDbCircle
 10
24.3310578934
 20
1.8018479086
 30
0.0
 40
0.2035433070866131
100
AcDbArc
 50
197.6004832045
 51
24.8879105874
  0
ARC
  5
15F
330
1F
100
AcDbEntity
  8
0
  6
CONTINUOUS
 62
     7
100
AcDbCircle
 10
24.5514126012
 20
1.904076651
 30
0.0
 40
0.0393700787401627
100
AcDbArc
 50
180.0
 51
204.8879105874
  0
LINE
  5
160
330
1F
100
AcDbEntity
  8
0
  6
CONTINUOUS
 62
     7
100
AcDbLine
 10
24.5120425856
 20
2.1448416625
 30
0.0
 11
24.5120425856
 21
1.9040765905
 31
0.0
  0
ARC
  5
161
330
1F
100
AcDbEntity
  8
0
  6
CONTINUOUS
 62
     7
100
AcDbCircle
 10
24.5514148421
 20
2.1448416382
 30
0.0
 40
0.0393723196328999
100
AcDbArc
 50
155.1122431696
 51
180.0
  0
ARC
  5
162
330
1F
100
AcDbEntity
  8
0
  6
CONTINUOUS
 62
     7
100
AcDbCircle
 10
24.3310578272
 20
2.2470707323
 30
0.0
 40
0.2035433070866185
100
AcDbArc
 50
335.1122431696
 51
3.9447292074
  0
LINE
  5
163
330
1F
100
AcDbEntity
  8
0
  6
CONTINUOUS
 62
     7
100
AcDbLine
 10
24.5341197706
 20
2.2610733598
 30
0.0
 11
39.747818154
 21
2.2610733598
 31
0.0
  0
ARC
  5
164
330
1F
100
AcDbEntity
  8
0
  6
CONTINUOUS
 62
     7
100
AcDbCircle
 10
39.9508775452
 20
2.2470703806
 30
0.0
 40
0.2035432466285031
100
AcDbArc
 50
176.0551703761
 51
204.8878047833
  0
ARC
  5
165
330
1F
100
AcDbEntity
  8
0
  6
CONTINUOUS
 62
     7
100
AcDbCircle
 10
39.7305228374
 20
2.1448421326
 30
0.0
 40
0.0393699915522637
100
AcDbArc
 50
0.0
 51
24.8878047833
  0
LINE
  5
166
330
1F
100
AcDbEntity
  8
0
  6
CONTINUOUS
 62
     7
100
AcDbLine
 10
39.7698906456
 20
1.9040761506
 30
0.0
 11
39.7698906456
 21
2.1448421025
 31
0.0
  0
ARC
  5
167
330
1F
100
AcDbEntity
  8
0
  6
CONTINUOUS
 62
     7
100
AcDbCircle
 10
39.7305228374
 20
1.9040761565
 30
0.0
 40
0.039370078740159
100
AcDbArc
 50
335.1121265345
 51
0.0
  0
ARC
  5
168
330
1F
100
AcDbEntity
  8
0
  6
CONTINUOUS
 62
     7
100
AcDbCircle
 10
39.9508776114
 20
1.8018475569
 30
0.0
 40
0.2035433070866168
100
AcDbArc
 50
155.1121265345
 51
342.3995496328
  0
ARC
  5
169
330
1F
100
AcDbEntity
  8
0
  6
CONTINUOUS
 62
     7
100
AcDbCircle
 10
40.1824198065
 20
1.728396043
 30
0.0
 40
0.0393700787401598
100
AcDbArc
 50
90.0000788272
 51
162.3995496328
  0
LINE
  5
16A
330
1F
100
AcDbEntity
  8
0
  6
CONTINUOUS
 62
     7
100
AcDbLine
 10
40.341616521
 20
1.7677663119
 30
0.0
 11
40.1824204934
 21
1.7677661652
 31
0.0
  0
ARC
  5
16B
330
1F
100
AcDbEntity
  8
0
  6
CONTINUOUS
 62
     7
100
AcDbCircle
 10
40.3416181026
 20
1.728396262
 30
0.0
 40
0.0393700787401627
100
AcDbArc
 50
17.6004832045
 51
90.0000788272
  0
ARC
  5
16C
330
1F
100
AcDbEntity
  8
0
  6
CONTINUOUS
 62
     7
100
AcDbCircle
 10
40.5731602556
 20
1.8018479086
 30
0.0
 40
0.2035433070866152
100
AcDbArc
 50
197.6004832045
 51
24.8879105874
  0
ARC
  5
16D
330
1F
100
AcDbEntity
  8
0
  6
CONTINUOUS
 62
     7
100
AcDbCircle
 10
40.7935149634
 20
1.904076651
 30
0.0
 40
0.0393700787401575
100
AcDbArc
 50
180.0
 51
204.8879105874
  0
LINE
  5
16E
330
1F
100
AcDbEntity
  8
0
  6
CONTINUOUS
 62
     7
100
AcDbLine
 10
40.7541463688
 20
2.1448416625
 30
0.0
 11
40.7541463688
 21
1.9040765905
 31
0.0
  0
ARC
  5
16F
330
1F
100
AcDbEntity
  8
0
  6
CONTINUOUS
 62
     7
100
AcDbCircle
 10
40.7935172043
 20
2.1448416382
 30
0.0
 40
0.0393723196329034
100
AcDbArc
 50
155.1122431696
 51
180.0
  0
ARC
  5
170
330
1F
100
AcDbEntity
  8
0
  6
CONTINUOUS
 62
     7
100
AcDbCircle
 10
40.5731601894
 20
2.2470707323
 30
0.0
 40
0.2035433070866227
100
AcDbArc
 50
335.1122431696
 51
3.9447292074
  0
LINE
  5
171
330
1F
100
AcDbEntity
  8
0
  6
CONTINUOUS
 62
     7
100
AcDbLine
 10
40.7762235537
 20
2.2610733598
 30
0.0
 11
41.8436347962
 21
2.2610733598
 31
0.0
  0
LINE
  5
172
330
1F
100
AcDbEntity
  8
0
  6
CONTINUOUS
 62
     7
100
AcDbLine
 10
41.8436347962
 20
1.4201283812
 30
0.0
 11
41.8436347962
 21
2.2610733598
 31
0.0
  0
ARC
  5
173
330
1F
100
AcDbEntity
  8
0
  6
CONTINUOUS
 62
     7
100
AcDbCircle
 10
41.6074126012
 20
1.4201284359
 30
0.0
 40
0.236220472440948
100
AcDbArc
 50
270.0
 51
0.0
  0
LINE
  5
174
330
1F
100
AcDbEntity
  8
0
  6
CONTINUOUS
 62
     7
100
AcDbLine
 10
22.2885147786
 20
1.1839079433
 30
0.0
 11
41.6074126718
 21
1.1839079433
 31
0.0
  0
ARC
  5
175
330
1F
100
AcDbEntity
  8
0
  6
CONTINUOUS
 62
     7
100
AcDbCircle
 10
22.2885149634
 20
1.4201284359
 30
0.0
 40
0.2362204724409451
100
AcDbArc
 50
180.0
 51
270.0
  0
LINE
  5
176
330
1F
100
AcDbEntity
  8
0
  6
CONTINUOUS
 62
     7
100
AcDbLine
 10
22.0522950008
 20
2.2610733598
 30
0.0
 11
22.0522950008
 21
1.4201283812
 31
0.0
  0
LINE
  5
177
330
1F
100
AcDbEntity
  8
0
  6
CONTINUOUS
 62
     7
100
AcDbLine
 10
22.0522950008
 20
2.2610733598
 30
0.0
 11
23.5057143708
 21
2.2610733598
 31
0.0
  0
LINE
  5
178
330
1F
100
AcDbEntity
  8
0
  6
CONTINUOUS
 62
     7
100
AcDbLine
 10
40.2688284552
 20
2.7878451012
 30
0.0
 11
40.2688284552
 21
16.9343014934
 31
0.0
  0
LINE
  5
179
330
1F
100
AcDbEntity
  8
0
  6
CONTINUOUS
 62
     7
100
AcDbLine
 10
40.2688284552
 20
16.9343014934
 30
0.0
 11
41.8436347962
 21
16.9343014934
 31
0.0
  0
LINE
  5
17A
330
1F
100
AcDbEntity
  8
0
  6
CONTINUOUS
 62
     7
100
AcDbLine
 10
41.8436347962
 20
2.7878451012
 30
0.0
 11
41.8436347962
 21
16.9343014934
 31
0.0
  0
LINE
  5
17B
330
1F
100
AcDbEntity
  8
0
  6
CONTINUOUS
 62
     7
100
AcDbLine
 10
41.8436347962
 20
2.7878451012
 30
0.0
 11
40.2688284552
 21
2.7878451012
 31
0.0
  0
LINE
  5
17C
330
1F
100
AcDbEntity
  8
0
  6
CONTINUOUS
 62
     7
100
AcDbLine
 10
22.0522950008
 20
16.9343014934
 30
0.0
 11
22.0522950008
 21
2.7878451012
 31
0.0
  0
LINE
  5
17D
330
1F
100
AcDbEntity
  8
0
  6
CONTINUOUS
 62
     7
100
AcDbLine
 10
22.0522950008
 20
16.9343014934
 30
0.0
 11
39.7554447325
 21
16.9343014934
 31
0.0
  0
LINE
  5
17E
330
1F
100
AcDbEntity
  8
0
  6
CONTINUOUS
 62
     7
100
AcDbLine
 10
39.7554447325
 20
2.7878451012
 30
0.0
 11
22.0522950008
 21
2.7878451012
 31
0.0
  0
LINE
  5
17F
330
1F
100
AcDbEntity
  8
0
  6
CONTINUOUS
 62
     7
100
AcDbLine
 10
39.7554447325
 20
16.9343014934
 30
0.0
 11
39.7554447325
 21
2.7878451012
 31
0.0
  0
ARC
  5
180
330
1F
100
AcDbEntity
  8
0
  6
CONTINUOUS
 62
     7
100
AcDbCircle
 10
40.3416179943
 20
2.3205222462
 30
0.0
 40
0.0393700787401583
100
AcDbArc
 50
270.0000788272
 51
342.3995496328
  0
LINE
  5
181
330
1F
100
AcDbEntity
  8
0
  6
CONTINUOUS
 62
     7
100
AcDbLine
 10
40.341616521
 20
2.2811522345
 30
0.0
 11
40.1824204934
 21
2.2811519412
 31
0.0
  0
ARC
  5
182
330
1F
100
AcDbEntity
  8
0
  6
CONTINUOUS
 62
     7
100
AcDbCircle
 10
40.1824196982
 20
2.3205220272
 30
0.0
 40
0.0393700787401596
100
AcDbArc
 50
197.6004832045
 51
270.0000788272
  0
ARC
  5
183
330
1F
100
AcDbEntity
  8
0
  6
CONTINUOUS
 62
     7
100
AcDbCircle
 10
24.0995156321
 20
2.3205222462
 30
0.0
 40
0.0393700787401596
100
AcDbArc
 50
270.0000788272
 51
342.3995496328
  0
LINE
  5
184
330
1F
100
AcDbEntity
  8
0
  6
CONTINUOUS
 62
     7
100
AcDbLine
 10
24.0995150845
 20
2.2811522345
 30
0.0
 11
23.9403167102
 21
2.2811519412
 31
0.0
  0
ARC
  5
185
330
1F
100
AcDbEntity
  8
0
  6
CONTINUOUS
 62
     7
100
AcDbCircle
 10
23.940317336
 20
2.3205220272
 30
0.0
 40
0.0393700787401551
100
AcDbArc
 50
197.6004832045
 51
270.0000788272
  0
ARC
  5
186
330
1F
100
AcDbEntity
  8
0
  6
CONTINUOUS
 62
     7
100
AcDbCircle
 10
23.9403174443
 20
17.4016243894
 30
0.0
 40
0.0393700787401586
100
AcDbArc
 50
90.0000788272
 51
162.3995496328
  0
LINE
  5
187
330
1F
100
AcDbEntity
  8
0
  6
CONTINUOUS
 62
     7
100
AcDbLine
 10
23.9403167102
 20
17.4409949467
 30
0.0
 11
24.0995150845
 21
17.4409949467
 31
0.0
  0
ARC
  5
188
330
1F
100
AcDbEntity
  8
0
  6
CONTINUOUS
 62
     7
100
AcDbCircle
 10
24.0995157404
 20
17.4016246084
 30
0.0
 40
0.0393700787401574
100
AcDbArc
 50
17.6004832045
 51
90.0000788272
  0
ARC
  5
189
330
1F
100
AcDbEntity
  8
0
  6
CONTINUOUS
 62
     7
100
AcDbCircle
 10
40.1824198065
 20
17.4016243894
 30
0.0
 40
0.0393700787401586
100
AcDbArc
 50
90.0000788272
 51
162.3995496328
  0
LINE
  5
18A
330
1F
100
AcDbEntity
  8
0
  6
CONTINUOUS
 62
     7
100
AcDbLine
 10
40.1824204934
 20
17.4409949467
 30
0.0
 11
40.341616521
 21
17.4409949467
 31
0.0
  0
ARC
  5
18B
330
1F
100
AcDbEntity
  8
0
  6
CONTINUOUS
 62
     7
100
AcDbCircle
 10
40.3416181026
 20
17.4016246084
 30
0.0
 40
0.0393700787401609
100
AcDbArc
 50
17.6004832045
 51
90.0000788272
  0
LINE
  5
18C
330
1F
100
AcDbEntity
  8
0
  6
CONTINUOUS
 62
     7
100
AcDbLine
 10
22.0522950008
 20
16.9343014934
 30
0.0
 11
22.0522950008
 21
17.4610727948
 31
0.0
  0
LINE
  5
18D
330
1F
100
AcDbEntity
  8
0
  6
CONTINUOUS
 62
     7
100
AcDbLine
 10
22.0522950008
 20
2.2610733598
 30
0.0
 11
22.0522950008
 21
2.7878451012
 31
0.0
  0
ARC
  5
18E
330
1F
100
AcDbEntity
  8
0
  6
CONTINUOUS
 62
     7
100
AcDbCircle
 10
39.9508775452
 20
2.2470703806
 30
0.0
 40
0.2035433070866178
100
AcDbArc
 50
17.6004832045
 51
176.0551703761
  0
ARC
  5
18F
330
1F
100
AcDbEntity
  8
0
  6
CONTINUOUS
 62
     7
100
AcDbCircle
 10
39.9508776114
 20
17.4750759034
 30
0.0
 40
0.2035433070866161
100
AcDbArc
 50
183.9447292075
 51
342.3995496328
  0
ARC
  5
190
330
1F
100
AcDbEntity
  8
0
  6
CONTINUOUS
 62
     7
100
AcDbCircle
 10
40.5731602556
 20
17.4750762551
 30
0.0
 40
0.2035433070866219
100
AcDbArc
 50
197.6004832045
 51
356.0551715497
  0
ARC
  5
191
330
1F
100
AcDbEntity
  8
0
  6
CONTINUOUS
 62
     7
100
AcDbCircle
 10
40.5731601894
 20
2.2470707323
 30
0.0
 40
0.2035433070866227
100
AcDbArc
 50
3.9447292074
 51
162.3995496328
  0
LINE
  5
192
330
1F
100
AcDbEntity
  8
0
  6
CONTINUOUS
 62
     7
100
AcDbLine
 10
41.8436347962
 20
17.4610727948
 30
0.0
 11
41.8436347962
 21
16.9343014934
 31
0.0
  0
LINE
  5
193
330
1F
100
AcDbEntity
  8
0
  6
CONTINUOUS
 62
     7
100
AcDbLine
 10
41.8436347962
 20
2.7878451012
 30
0.0
 11
41.8436347962
 21
2.2610733598
 31
0.0
  0
ARC
  5
194
330
1F
100
AcDbEntity
  8
0
  6
CONTINUOUS
 62
     7
100
AcDbCircle
 10
24.3310578272
 20
2.2470707323
 30
0.0
 40
0.2035433070866185
100
AcDbArc
 50
3.9447292074
 51
162.3995496328
  0
ARC
  5
195
330
1F
100
AcDbEntity
  8
0
  6
CONTINUOUS
 62
     7
100
AcDbCircle
 10
24.3310578934
 20
17.4750762551
 30
0.0
 40
0.2035433070866152
100
AcDbArc
 50
197.6004832045
 51
356.0551715497
  0
ARC
  5
196
330
1F
100
AcDbEntity
  8
0
  6
CONTINUOUS
 62
     7
100
AcDbCircle
 10
23.708775183
 20
2.2470703806
 30
0.0
 40
0.2035433070866165
100
AcDbArc
 50
17.6004832045
 51
176.0551703761
  0
ARC
  5
197
330
1F
100
AcDbEntity
  8
0
  6
CONTINUOUS
 62
     7
100
AcDbCircle
 10
23.7087752492
 20
17.4750759034
 30
0.0
 40
0.2035433070866152
100
AcDbArc
 50
183.9447292075
 51
342.3995496328
  0
ARC
  5
198
330
1F
100
AcDbEntity
  8
0
  6
CONTINUOUS
 62
     7
100
AcDbCircle
 10
1.257806302
 20
18.3020181997
 30
0.0
 40
0.2362204724409451
100
AcDbArc
 50
90.0
 51
180.0
  0
LINE
  5
199
330
1F
100
AcDbEntity
  8
0
  6
CONTINUOUS
 62
     7
100
AcDbLine
 10
1.2578062472
 20
18.538239018
 30
0.0
 11
20.5767045803
 21
18.538239018
 31
0.0
  0
ARC
  5
19A
330
1F
100
AcDbEntity
  8
0
  6
CONTINUOUS
 62
     7
100
AcDbCircle
 10
20.5767039398
 20
18.3020181997
 30
0.0
 40
0.236220472440948
100
AcDbArc
 50
0.0
 51
90.0
  0
LINE
  5
19B
330
1F
100
AcDbEntity
  8
0
  6
CONTINUOUS
 62
     7
100
AcDbLine
 10
20.8129243581
 20
18.3020180668
 30
0.0
 11
20.8129243581
 21
17.4610727948
 31
0.0
  0
LINE
  5
19C
330
1F
100
AcDbEntity
  8
0
  6
CONTINUOUS
 62
     7
100
AcDbLine
 10
19.7455131156
 20
17.4610727948
 30
0.0
 11
20.8129243581
 21
17.4610727948
 31
0.0
  0
ARC
  5
19D
330
1F
100
AcDbEntity
  8
0
  6
CONTINUOUS
 62
     7
100
AcDbCircle
 10
19.5424515942
 20
17.4750762551
 30
0.0
 40
0.2035433070866144
100
AcDbArc
 50
356.0551715497
 51
24.8879105874
  0
ARC
  5
19E
330
1F
100
AcDbEntity
  8
0
  6
CONTINUOUS
 62
     7
100
AcDbCircle
 10
19.762806302
 20
17.5773049975
 30
0.0
 40
0.0393700787401594
100
AcDbArc
 50
180.0
 51
204.8879105874
  0
LINE
  5
19F
330
1F
100
AcDbEntity
  8
0
  6
CONTINUOUS
 62
     7
100
AcDbLine
 10
19.7234359307
 20
17.8180694174
 30
0.0
 11
19.7234359307
 21
17.5773053721
 31
0.0
  0
ARC
  5
1A0
330
1F
100
AcDbEntity
  8
0
  6
CONTINUOUS
 62
     7
100
AcDbCircle
 10
19.7628085428
 20
17.8180699846
 30
0.0
 40
0.0393723196329029
100
AcDbArc
 50
155.1122431696
 51
180.0
  0
ARC
  5
1A1
330
1F
100
AcDbEntity
  8
0
  6
CONTINUOUS
 62
     7
100
AcDbCircle
 10
19.5424515279
 20
17.9202990787
 30
0.0
 40
0.203543307086614
100
AcDbArc
 50
335.1122431696
 51
162.3995496328
  0
ARC
  5
1A2
330
1F
100
AcDbEntity
  8
0
  6
CONTINUOUS
 62
     7
100
AcDbCircle
 10
19.3109093328
 20
17.9937505927
 30
0.0
 40
0.0393700787401597
100
AcDbArc
 50
270.0000788272
 51
342.3995496328
  0
LINE
  5
1A3
330
1F
100
AcDbEntity
  8
0
  6
CONTINUOUS
 62
     7
100
AcDbLine
 10
19.1517112286
 20
17.9543798427
 30
0.0
 11
19.3109096029
 21
17.9543810161
 31
0.0
  0
ARC
  5
1A4
330
1F
100
AcDbEntity
  8
0
  6
CONTINUOUS
 62
     7
100
AcDbCircle
 10
19.1517110368
 20
17.9937503737
 30
0.0
 40
0.0393701391982672
100
AcDbArc
 50
197.6004832045
 51
270.0000788272
  0
ARC
  5
1A5
330
1F
100
AcDbEntity
  8
0
  6
CONTINUOUS
 62
     7
100
AcDbCircle
 10
18.9201688838
 20
17.920298727
 30
0.0
 40
0.2035432466285046
100
AcDbArc
 50
17.6004832045
 51
204.8878047833
  0
ARC
  5
1A6
330
1F
100
AcDbEntity
  8
0
  6
CONTINUOUS
 62
     7
100
AcDbCircle
 10
18.699814176
 20
17.8180704791
 30
0.0
 40
0.0393699915522603
100
AcDbArc
 50
0.0
 51
24.8878047833
  0
LINE
  5
1A7
330
1F
100
AcDbEntity
  8
0
  6
CONTINUOUS
 62
     7
100
AcDbLine
 10
18.7391837275
 20
17.5773041988
 30
0.0
 11
18.7391837275
 21
17.8180705907
 31
0.0
  0
ARC
  5
1A8
330
1F
100
AcDbEntity
  8
0
  6
CONTINUOUS
 62
     7
100
AcDbCircle
 10
18.699814176
 20
17.577304503
 30
0.0
 40
0.0393700787401556
100
AcDbArc
 50
335.1121265345
 51
0.0
  0
ARC
  5
1A9
330
1F
100
AcDbEntity
  8
0
  6
CONTINUOUS
 62
     7
100
AcDbCircle
 10
18.92016895
 20
17.4750759034
 30
0.0
 40
0.2035433070866166
100
AcDbArc
 50
155.1121265345
 51
183.9447292074
  0
LINE
  5
1AA
330
1F
100
AcDbEntity
  8
0
  6
CONTINUOUS
 62
     7
100
AcDbLine
 10
3.4977172649
 20
17.4610727948
 30
0.0
 11
18.7171077158
 21
17.4610727948
 31
0.0
  0
ARC
  5
1AB
330
1F
100
AcDbEntity
  8
0
  6
CONTINUOUS
 62
     7
100
AcDbCircle
 10
3.2946563186
 20
17.4750762551
 30
0.0
 40
0.2035433070866101
100
AcDbArc
 50
356.0551715497
 51
24.8879105874
  0
ARC
  5
1AC
330
1F
100
AcDbEntity
  8
0
  6
CONTINUOUS
 62
     7
100
AcDbCircle
 10
3.5150110264
 20
17.5773049975
 30
0.0
 40
0.0393700787401619
100
AcDbArc
 50
180.0
 51
204.8879105874
  0
LINE
  5
1AD
330
1F
100
AcDbEntity
  8
0
  6
CONTINUOUS
 62
     7
100
AcDbLine
 10
3.4756409599
 20
17.8180694174
 30
0.0
 11
3.4756409599
 21
17.5773053721
 31
0.0
  0
ARC
  5
1AE
330
1F
100
AcDbEntity
  8
0
  6
CONTINUOUS
 62
     7
100
AcDbCircle
 10
3.5150132673
 20
17.8180699846
 30
0.0
 40
0.0393723196329002
100
AcDbArc
 50
155.1122431696
 51
180.0
  0
ARC
  5
1AF
330
1F
100
AcDbEntity
  8
0
  6
CONTINUOUS
 62
     7
100
AcDbCircle
 10
3.2946562524
 20
17.9202990787
 30
0.0
 40
0.2035433070866165
100
AcDbArc
 50
335.1122431696
 51
162.3995496328
  0
ARC
  5
1B0
330
1F
100
AcDbEntity
  8
0
  6
CONTINUOUS
 62
     7
100
AcDbCircle
 10
3.0631140572
 20
17.9937505927
 30
0.0
 40
0.0393700787401574
100
AcDbArc
 50
270.0000788272
 51
342.3995496328
  0
LINE
  5
1B1
330
1F
100
AcDbEntity
  8
0
  6
CONTINUOUS
 62
     7
100
AcDbLine
 10
2.9039156712
 20
17.9543798427
 30
0.0
 11
3.0631140454
 21
17.9543810161
 31
0.0
  0
ARC
  5
1B2
330
1F
100
AcDbEntity
  8
0
  6
CONTINUOUS
 62
     7
100
AcDbCircle
 10
2.9039157612
 20
17.9937503737
 30
0.0
 40
0.0393701391982705
100
AcDbArc
 50
197.6004832045
 51
270.0000788272
  0
ARC
  5
1B3
330
1F
100
AcDbEntity
  8
0
  6
CONTINUOUS
 62
     7
100
AcDbCircle
 10
2.6723736082
 20
17.920298727
 30
0.0
 40
0.2035432466285031
100
AcDbArc
 50
17.6004832045
 51
204.8878047833
  0
ARC
  5
1B4
330
1F
100
AcDbEntity
  8
0
  6
CONTINUOUS
 62
     7
100
AcDbCircle
 10
2.4520189004
 20
17.8180704791
 30
0.0
 40
0.0393699915522555
100
AcDbArc
 50
0.0
 51
24.8878047833
  0
LINE
  5
1B5
330
1F
100
AcDbEntity
  8
0
  6
CONTINUOUS
 62
     7
100
AcDbLine
 10
2.4913890501
 20
17.5773041988
 30
0.0
 11
2.4913887567
 21
17.8180705907
 31
0.0
  0
ARC
  5
1B6
330
1F
100
AcDbEntity
  8
0
  6
CONTINUOUS
 62
     7
100
AcDbCircle
 10
2.4520189004
 20
17.577304503
 30
0.0
 40
0.0393700787401574
100
AcDbArc
 50
335.1121265345
 51
0.0
  0
ARC
  5
1B7
330
1F
100
AcDbEntity
  8
0
  6
CONTINUOUS
 62
     7
100
AcDbCircle
 10
2.6723736744
 20
17.4750759034
 30
0.0
 40
0.2035433070866173
100
AcDbArc
 50
155.1121265345
 51
183.9447292074
  0
LINE
  5
1B8
330
1F
100
AcDbEntity
  8
0
  6
CONTINUOUS
 62
     7
100
AcDbLine
 10
1.0215858094
 20
17.4610727948
 30
0.0
 11
2.4693124518
 21
17.4610727948
 31
0.0
  0
LINE
  5
1B9
330
1F
100
AcDbEntity
  8
0
  6
CONTINUOUS
 62
     7
100
AcDbLine
 10
1.0215858094
 20
17.4610727948
 30
0.0
 11
1.0215858094
 21
18.3020180668
 31
0.0
  0
ARC
  5
1BA
330
1F
100
AcDbEntity
  8
0
  6
CONTINUOUS
 62
     7
100
AcDbCircle
 10
20.5767039398
 20
1.4201284359
 30
0.0
 40
0.2362204724409451
100
AcDbArc
 50
270.0
 51
0.0
  0
LINE
  5
1BB
330
1F
100
AcDbEntity
  8
0
  6
CONTINUOUS
 62
     7
100
AcDbLine
 10
20.5767045803
 20
1.1839079433
 30
0.0
 11
1.2578062472
 21
1.1839079433
 31
0.0
  0
ARC
  5
1BC
330
1F
100
AcDbEntity
  8
0
  6
CONTINUOUS
 62
     7
100
AcDbCircle
 10
1.257806302
 20
1.4201284359
 30
0.0
 40
0.2362204724409538
100
AcDbArc
 50
180.0
 51
270.0
  0
LINE
  5
1BD
330
1F
100
AcDbEntity
  8
0
  6
CONTINUOUS
 62
     7
100
AcDbLine
 10
1.0215858094
 20
1.4201283812
 30
0.0
 11
1.0215858094
 21
2.2610733598
 31
0.0
  0
LINE
  5
1BE
330
1F
100
AcDbEntity
  8
0
  6
CONTINUOUS
 62
     7
100
AcDbLine
 10
2.4693127451
 20
2.2610733598
 30
0.0
 11
1.0215858094
 21
2.2610733598
 31
0.0
  0
ARC
  5
1BF
330
1F
100
AcDbEntity
  8
0
  6
CONTINUOUS
 62
     7
100
AcDbCircle
 10
2.6723736082
 20
2.2470703806
 30
0.0
 40
0.2035432466285043
100
AcDbArc
 50
176.0551703761
 51
204.8878047833
  0
ARC
  5
1C0
330
1F
100
AcDbEntity
  8
0
  6
CONTINUOUS
 62
     7
100
AcDbCircle
 10
2.4520189004
 20
2.1448421326
 30
0.0
 40
0.0393699915522583
100
AcDbArc
 50
0.0
 51
24.8878047833
  0
LINE
  5
1C1
330
1F
100
AcDbEntity
  8
0
  6
CONTINUOUS
 62
     7
100
AcDbLine
 10
2.4913890501
 20
1.9040761506
 30
0.0
 11
2.4913887567
 21
2.1448421025
 31
0.0
  0
ARC
  5
1C2
330
1F
100
AcDbEntity
  8
0
  6
CONTINUOUS
 62
     7
100
AcDbCircle
 10
2.4520189004
 20
1.9040761565
 30
0.0
 40
0.0393700787401578
100
AcDbArc
 50
335.1121265345
 51
0.0
  0
ARC
  5
1C3
330
1F
100
AcDbEntity
  8
0
  6
CONTINUOUS
 62
     7
100
AcDbCircle
 10
2.6723736744
 20
1.8018475569
 30
0.0
 40
0.2035433070866143
100
AcDbArc
 50
155.1121265345
 51
342.3995496328
  0
ARC
  5
1C4
330
1F
100
AcDbEntity
  8
0
  6
CONTINUOUS
 62
     7
100
AcDbCircle
 10
2.9039158695
 20
1.728396043
 30
0.0
 40
0.0393700787401585
100
AcDbArc
 50
90.0000788272
 51
162.3995496328
  0
LINE
  5
1C5
330
1F
100
AcDbEntity
  8
0
  6
CONTINUOUS
 62
     7
100
AcDbLine
 10
3.0631140454
 20
1.7677663119
 30
0.0
 11
2.9039156712
 21
1.7677661652
 31
0.0
  0
ARC
  5
1C6
330
1F
100
AcDbEntity
  8
0
  6
CONTINUOUS
 62
     7
100
AcDbCircle
 10
3.0631141656
 20
1.728396262
 30
0.0
 40
0.0393700787401554
100
AcDbArc
 50
17.6004832045
 51
90.0000788272
  0
ARC
  5
1C7
330
1F
100
AcDbEntity
  8
0
  6
CONTINUOUS
 62
     7
100
AcDbCircle
 10
3.2946563186
 20
1.8018479086
 30
0.0
 40
0.2035433070866186
100
AcDbArc
 50
197.6004832045
 51
24.8879105874
  0
ARC
  5
1C8
330
1F
100
AcDbEntity
  8
0
  6
CONTINUOUS
 62
     7
100
AcDbCircle
 10
3.5150110264
 20
1.904076651
 30
0.0
 40
0.0393700787401619
100
AcDbArc
 50
180.0
 51
204.8879105874
  0
LINE
  5
1C9
330
1F
100
AcDbEntity
  8
0
  6
CONTINUOUS
 62
     7
100
AcDbLine
 10
3.4756409599
 20
2.1448416625
 30
0.0
 11
3.4756409599
 21
1.9040765905
 31
0.0
  0
ARC
  5
1CA
330
1F
100
AcDbEntity
  8
0
  6
CONTINUOUS
 62
     7
100
AcDbCircle
 10
3.5150132673
 20
2.1448416382
 30
0.0
 40
0.0393723196329006
100
AcDbArc
 50
155.1122431696
 51
180.0
  0
ARC
  5
1CB
330
1F
100
AcDbEntity
  8
0
  6
CONTINUOUS
 62
     7
100
AcDbCircle
 10
3.2946562524
 20
2.2470707323
 30
0.0
 40
0.2035433070866171
100
AcDbArc
 50
335.1122431696
 51
3.9447292074
  0
LINE
  5
1CC
330
1F
100
AcDbEntity
  8
0
  6
CONTINUOUS
 62
     7
100
AcDbLine
 10
18.7171077158
 20
2.2610733598
 30
0.0
 11
3.4977172649
 21
2.2610733598
 31
0.0
  0
ARC
  5
1CD
330
1F
100
AcDbEntity
  8
0
  6
CONTINUOUS
 62
     7
100
AcDbCircle
 10
18.9201688838
 20
2.2470703806
 30
0.0
 40
0.2035432466285002
100
AcDbArc
 50
176.0551703761
 51
204.8878047833
  0
ARC
  5
1CE
330
1F
100
AcDbEntity
  8
0
  6
CONTINUOUS
 62
     7
100
AcDbCircle
 10
18.699814176
 20
2.1448421326
 30
0.0
 40
0.0393699915522603
100
AcDbArc
 50
0.0
 51
24.8878047833
  0
LINE
  5
1CF
330
1F
100
AcDbEntity
  8
0
  6
CONTINUOUS
 62
     7
100
AcDbLine
 10
18.7391837275
 20
1.9040761506
 30
0.0
 11
18.7391837275
 21
2.1448421025
 31
0.0
  0
ARC
  5
1D0
330
1F
100
AcDbEntity
  8
0
  6
CONTINUOUS
 62
     7
100
AcDbCircle
 10
18.699814176
 20
1.9040761565
 30
0.0
 40
0.0393700787401556
100
AcDbArc
 50
335.1121265345
 51
0.0
  0
ARC
  5
1D1
330
1F
100
AcDbEntity
  8
0
  6
CONTINUOUS
 62
     7
100
AcDbCircle
 10
18.92016895
 20
1.8018475569
 30
0.0
 40
0.2035433070866168
100
AcDbArc
 50
155.1121265345
 51
342.3995496328
  0
ARC
  5
1D2
330
1F
100
AcDbEntity
  8
0
  6
CONTINUOUS
 62
     7
100
AcDbCircle
 10
19.1517111451
 20
1.728396043
 30
0.0
 40
0.0393700787401598
100
AcDbArc
 50
90.0000788272
 51
162.3995496328
  0
LINE
  5
1D3
330
1F
100
AcDbEntity
  8
0
  6
CONTINUOUS
 62
     7
100
AcDbLine
 10
19.3109096029
 20
1.7677663119
 30
0.0
 11
19.1517112286
 21
1.7677661652
 31
0.0
  0
ARC
  5
1D4
330
1F
100
AcDbEntity
  8
0
  6
CONTINUOUS
 62
     7
100
AcDbCircle
 10
19.3109094412
 20
1.728396262
 30
0.0
 40
0.0393700787401579
100
AcDbArc
 50
17.6004832045
 51
90.0000788272
  0
ARC
  5
1D5
330
1F
100
AcDbEntity
  8
0
  6
CONTINUOUS
 62
     7
100
AcDbCircle
 10
19.5424515942
 20
1.8018479086
 30
0.0
 40
0.2035433070866152
100
AcDbArc
 50
197.6004832045
 51
24.8879105874
  0
ARC
  5
1D6
330
1F
100
AcDbEntity
  8
0
  6
CONTINUOUS
 62
     7
100
AcDbCircle
 10
19.762806302
 20
1.904076651
 30
0.0
 40
0.0393700787401593
100
AcDbArc
 50
180.0
 51
204.8879105874
  0
LINE
  5
1D7
330
1F
100
AcDbEntity
  8
0
  6
CONTINUOUS
 62
     7
100
AcDbLine
 10
19.7234359307
 20
2.1448416625
 30
0.0
 11
19.7234359307
 21
1.9040765905
 31
0.0
  0
ARC
  5
1D8
330
1F
100
AcDbEntity
  8
0
  6
CONTINUOUS
 62
     7
100
AcDbCircle
 10
19.7628085428
 20
2.1448416382
 30
0.0
 40
0.0393723196329048
100
AcDbArc
 50
155.1122431696
 51
180.0
  0
ARC
  5
1D9
330
1F
100
AcDbEntity
  8
0
  6
CONTINUOUS
 62
     7
100
AcDbCircle
 10
19.5424515279
 20
2.2470707323
 30
0.0
 40
0.2035433070866146
100
AcDbArc
 50
335.1122431696
 51
3.9447292074
  0
LINE
  5
1DA
330
1F
100
AcDbEntity
  8
0
  6
CONTINUOUS
 62
     7
100
AcDbLine
 10
20.8129243581
 20
2.2610733598
 30
0.0
 11
19.7455131156
 21
2.2610733598
 31
0.0
  0
LINE
  5
1DB
330
1F
100
AcDbEntity
  8
0
  6
CONTINUOUS
 62
     7
100
AcDbLine
 10
20.8129243581
 20
2.2610733598
 30
0.0
 11
20.8129243581
 21
1.4201283812
 31
0.0
  0
LINE
  5
1DC
330
1F
100
AcDbEntity
  8
0
  6
CONTINUOUS
 62
     7
100
AcDbLine
 10
19.238121537
 20
16.9343014934
 30
0.0
 11
19.238121537
 21
2.7878451012
 31
0.0
  0
LINE
  5
1DD
330
1F
100
AcDbEntity
  8
0
  6
CONTINUOUS
 62
     7
100
AcDbLine
 10
20.8129243581
 20
16.9343014934
 30
0.0
 11
19.238121537
 21
16.9343014934
 31
0.0
  0
LINE
  5
1DE
330
1F
100
AcDbEntity
  8
0
  6
CONTINUOUS
 62
     7
100
AcDbLine
 10
20.8129243581
 20
16.9343014934
 30
0.0
 11
20.8129243581
 21
2.7878451012
 31
0.0
  0
LINE
  5
1DF
330
1F
100
AcDbEntity
  8
0
  6
CONTINUOUS
 62
     7
100
AcDbLine
 10
19.238121537
 20
2.7878451012
 30
0.0
 11
20.8129243581
 21
2.7878451012
 31
0.0
  0
LINE
  5
1E0
330
1F
100
AcDbEntity
  8
0
  6
CONTINUOUS
 62
     7
100
AcDbLine
 10
1.0215858094
 20
2.7878451012
 30
0.0
 11
18.7247354677
 21
2.7878451012
 31
0.0
  0
LINE
  5
1E1
330
1F
100
AcDbEntity
  8
0
  6
CONTINUOUS
 62
     7
100
AcDbLine
 10
1.0215858094
 20
2.7878451012
 30
0.0
 11
1.0215858094
 21
16.9343014934
 31
0.0
  0
LINE
  5
1E2
330
1F
100
AcDbEntity
  8
0
  6
CONTINUOUS
 62
     7
100
AcDbLine
 10
18.7247354677
 20
16.9343014934
 30
0.0
 11
1.0215858094
 21
16.9343014934
 31
0.0
  0
LINE
  5
1E3
330
1F
100
AcDbEntity
  8
0
  6
CONTINUOUS
 62
     7
100
AcDbLine
 10
18.7247354677
 20
2.7878451012
 30
0.0
 11
18.7247354677
 21
16.9343014934
 31
0.0
  0
ARC
  5
1E4
330
1F
100
AcDbEntity
  8
0
  6
CONTINUOUS
 62
     7
100
AcDbCircle
 10
19.3109093328
 20
2.3205222462
 30
0.0
 40
0.03937007874016
100
AcDbArc
 50
270.0000788272
 51
342.3995496328
  0
LINE
  5
1E5
330
1F
100
AcDbEntity
  8
0
  6
CONTINUOUS
 62
     7
100
AcDbLine
 10
19.3109096029
 20
2.2811522345
 30
0.0
 11
19.1517112286
 21
2.2811519412
 31
0.0
  0
ARC
  5
1E6
330
1F
100
AcDbEntity
  8
0
  6
CONTINUOUS
 62
     7
100
AcDbCircle
 10
19.1517110368
 20
2.3205220272
 30
0.0
 40
0.039370078740156
100
AcDbArc
 50
197.6004832045
 51
270.0000788272
  0
ARC
  5
1E7
330
1F
100
AcDbEntity
  8
0
  6
CONTINUOUS
 62
     7
100
AcDbCircle
 10
3.0631140572
 20
2.3205222462
 30
0.0
 40
0.0393700787401559
100
AcDbArc
 50
270.0000788272
 51
342.3995496328
  0
LINE
  5
1E8
330
1F
100
AcDbEntity
  8
0
  6
CONTINUOUS
 62
     7
100
AcDbLine
 10
3.0631140454
 20
2.2811522345
 30
0.0
 11
2.9039156712
 21
2.2811519412
 31
0.0
  0
ARC
  5
1E9
330
1F
100
AcDbEntity
  8
0
  6
CONTINUOUS
 62
     7
100
AcDbCircle
 10
2.9039157612
 20
2.3205220272
 30
0.0
 40
0.0393700787401602
100
AcDbArc
 50
197.6004832045
 51
270.0000788272
  0
ARC
  5
1EA
330
1F
100
AcDbEntity
  8
0
  6
CONTINUOUS
 62
     7
100
AcDbCircle
 10
2.9039158695
 20
17.4016243894
 30
0.0
 40
0.0393700787401609
100
AcDbArc
 50
90.0000788272
 51
162.3995496328
  0
LINE
  5
1EB
330
1F
100
AcDbEntity
  8
0
  6
CONTINUOUS
 62
     7
100
AcDbLine
 10
2.9039156712
 20
17.4409949467
 30
0.0
 11
3.0631140454
 21
17.4409949467
 31
0.0
  0
ARC
  5
1EC
330
1F
100
AcDbEntity
  8
0
  6
CONTINUOUS
 62
     7
100
AcDbCircle
 10
3.0631141656
 20
17.4016246084
 30
0.0
 40
0.0393700787401574
100
AcDbArc
 50
17.6004832045
 51
90.0000788272
  0
ARC
  5
1ED
330
1F
100
AcDbEntity
  8
0
  6
CONTINUOUS
 62
     7
100
AcDbCircle
 10
19.1517111451
 20
17.4016243894
 30
0.0
 40
0.0393700787401597
100
AcDbArc
 50
90.0000788272
 51
162.3995496328
  0
LINE
  5
1EE
330
1F
100
AcDbEntity
  8
0
  6
CONTINUOUS
 62
     7
100
AcDbLine
 10
19.1517112286
 20
17.4409949467
 30
0.0
 11
19.3109096029
 21
17.4409949467
 31
0.0
  0
ARC
  5
1EF
330
1F
100
AcDbEntity
  8
0
  6
CONTINUOUS
 62
     7
100
AcDbCircle
 10
19.3109094412
 20
17.4016246084
 30
0.0
 40
0.0393700787401585
100
AcDbArc
 50
17.6004832045
 51
90.0000788272
  0
LINE
  5
1F0
330
1F
100
AcDbEntity
  8
0
  6
CONTINUOUS
 62
     7
100
AcDbLine
 10
1.0215858094
 20
2.7878451012
 30
0.0
 11
1.0215858094
 21
2.2610733598
 31
0.0
  0
LINE
  5
1F1
330
1F
100
AcDbEntity
  8
0
  6
CONTINUOUS
 62
     7
100
AcDbLine
 10
1.0215858094
 20
17.4610727948
 30
0.0
 11
1.0215858094
 21
16.9343014934
 31
0.0
  0
ARC
  5
1F2
330
1F
100
AcDbEntity
  8
0
  6
CONTINUOUS
 62
     7
100
AcDbCircle
 10
3.2946562524
 20
2.2470707323
 30
0.0
 40
0.2035433070866173
100
AcDbArc
 50
3.9447292074
 51
162.3995496328
  0
ARC
  5
1F3
330
1F
100
AcDbEntity
  8
0
  6
CONTINUOUS
 62
     7
100
AcDbCircle
 10
2.6723736082
 20
2.2470703806
 30
0.0
 40
0.2035433070866101
100
AcDbArc
 50
17.6004832045
 51
176.0551703761
  0
ARC
  5
1F4
330
1F
100
AcDbEntity
  8
0
  6
CONTINUOUS
 62
     7
100
AcDbCircle
 10
3.2946563186
 20
17.4750762551
 30
0.0
 40
0.2035433070866174
100
AcDbArc
 50
197.6004832045
 51
356.0551715497
  0
ARC
  5
1F5
330
1F
100
AcDbEntity
  8
0
  6
CONTINUOUS
 62
     7
100
AcDbCircle
 10
2.6723736744
 20
17.4750759034
 30
0.0
 40
0.2035433070866137
100
AcDbArc
 50
183.9447292074
 51
342.3995496328
  0
ARC
  5
1F6
330
1F
100
AcDbEntity
  8
0
  6
CONTINUOUS
 62
     7
100
AcDbCircle
 10
18.92016895
 20
17.4750759034
 30
0.0
 40
0.203543307086615
100
AcDbArc
 50
183.9447292074
 51
342.3995496328
  0
ARC
  5
1F7
330
1F
100
AcDbEntity
  8
0
  6
CONTINUOUS
 62
     7
100
AcDbCircle
 10
18.9201688838
 20
2.2470703806
 30
0.0
 40
0.2035433070866151
100
AcDbArc
 50
17.6004832045
 51
176.0551703761
  0
ARC
  5
1F8
330
1F
100
AcDbEntity
  8
0
  6
CONTINUOUS
 62
     7
100
AcDbCircle
 10
19.5424515279
 20
2.2470707323
 30
0.0
 40
0.2035433070866135
100
AcDbArc
 50
3.9447292074
 51
162.3995496328
  0
ARC
  5
1F9
330
1F
100
AcDbEntity
  8
0
  6
CONTINUOUS
 62
     7
100
AcDbCircle
 10
19.5424515942
 20
17.4750762551
 30
0.0
 40
0.2035433070866149
100
AcDbArc
 50
197.6004832045
 51
356.0551715497
  0
LINE
  5
1FA
330
1F
100
AcDbEntity
  8
0
  6
CONTINUOUS
 62
     7
100
AcDbLine
 10
20.8129243581
 20
16.9343014934
 30
0.0
 11
20.8129243581
 21
17.4610727948
 31
0.0
  0
LINE
  5
1FB
330
1F
100
AcDbEntity
  8
0
  6
CONTINUOUS
 62
     7
100
AcDbLine
 10
20.8129243581
 20
2.2610733598
 30
0.0
 11
20.8129243581
 21
2.7878451012
 31
0.0
  0
LINE
  5
1FC
330
1F
100
AcDbEntity
  8
0
  6
CONTINUOUS
 62
     7
100
AcDbLine
 10
43.0830030923
 20
1.1839079433
 30
0.0
 11
57.3625300806
 21
1.1839079433
 31
0.0
  0
LINE
  5
1FD
330
1F
100
AcDbEntity
  8
0
  6
CONTINUOUS
 62
     7
100
AcDbLine
 10
57.3625300806
 20
15.8571364436
 30
0.0
 11
43.0830030923
 21
15.8571364436
 31
0.0
  0
LINE
  5
1FE
330
1F
100
AcDbEntity
  8
0
  6
CONTINUOUS
 62
     7
100
AcDbLine
 10
43.0830030923
 20
15.8571364436
 30
0.0
 11
43.0830030923
 21
1.1839079433
 31
0.0
  0
LINE
  5
1FF
330
1F
100
AcDbEntity
  8
0
  6
CONTINUOUS
 62
     7
100
AcDbLine
 10
57.3625300806
 20
1.1839079433
 30
0.0
 11
57.3625300806
 21
15.8571364436
 31
0.0
  0
LINE
  5
200
330
1F
100
AcDbEntity
  8
PROFILES_OUTSIDE
100
AcDbLine
 10
41.8436330736
 20
1.4201284359
 30
0.0
 11
41.8436330736
 21
18.3020181997
 31
0.0
  0
LINE
  5
201
330
1F
100
AcDbEntity
  8
PROFILES_OUTSIDE
100
AcDbLine
 10
20.8129244122
 20
1.1839079635
 30
0.0
 11
20.8129244122
 21
18.5382386722
 31
0.0
  0
LINE
  5
202
330
1F
100
AcDbEntity
  8
POCKETS
100
AcDbLine
 10
73.2751291366
 20
3.2654040265
 30
0.0
 11
58.2082000027
 21
3.2654040265
 31
0.0
  0
LINE
  5
203
330
1F
100
AcDbEntity
  8
POCKETS
100
AcDbLine
 10
58.2082000027
 20
3.2654040265
 30
0.0
 11
58.2082000027
 21
2.7587111131
 31
0.0
  0
LINE
  5
204
330
1F
100
AcDbEntity
  8
POCKETS
100
AcDbLine
 10
58.2082000027
 20
2.7587111131
 30
0.0
 11
73.2751291366
 21
2.7587111131
 31
0.0
  0
LINE
  5
205
330
1F
100
AcDbEntity
  8
PROFILES_OUTSIDE
100
AcDbLine
 10
20.8129244122
 20
18.5382386722
 30
0.0
 11
1.0215858295
 21
18.5382386722
 31
0.0
  0
LINE
  5
206
330
1F
100
AcDbEntity
  8
PROFILES_OUTSIDE
100
AcDbLine
 10
1.0215858295
 20
18.5382386722
 30
0.0
 11
1.0215858295
 21
1.1839079635
 31
0.0
  0
LINE
  5
207
330
1F
100
AcDbEntity
  8
PROFILES_OUTSIDE
100
AcDbLine
 10
1.0215858295
 20
1.1839079635
 30
0.0
 11
20.8129244122
 21
1.1839079635
 31
0.0
  0
LINE
  5
208
330
1F
100
AcDbEntity
  8
POCKETS
100
AcDbLine
 10
73.2751291366
 20
2.7587111131
 30
0.0
 11
73.2751291366
 21
3.2654040265
 31
0.0
  0
LINE
  5
209
330
1F
100
AcDbEntity
  8
PROFILES_INSIDE
100
AcDbLine
 10
19.7234362232
 20
17.5773049975
 30
0.0
 11
19.7234362232
 21
17.8180699846
 31
0.0
  0
LINE
  5
20A
330
1F
100
AcDbEntity
  8
PROFILES_INSIDE
100
AcDbLine
 10
19.1517110909
 20
17.4409944682
 30
0.0
 11
19.310909387
 21
17.4409946872
 31
0.0
  0
LINE
  5
20B
330
1F
100
AcDbEntity
  8
PROFILES_INSIDE
100
AcDbLine
 10
18.7391841675
 20
17.8180704791
 30
0.0
 11
18.7391842547
 21
17.577304503
 31
0.0
  0
LINE
  5
20C
330
1F
100
AcDbEntity
  8
PROFILES_INSIDE
100
AcDbLine
 10
19.310909387
 20
17.9543805139
 30
0.0
 11
19.1517110909
 21
17.9543802118
 31
0.0
  0
LINE
  5
20D
330
1F
100
AcDbEntity
  8
PROFILES_OUTSIDE
100
AcDbLine
 10
57.3625307114
 20
1.1839079635
 30
0.0
 11
57.3625307114
 21
15.8571363099
 31
0.0
  0
LINE
  5
20E
330
1F
100
AcDbEntity
  8
PROFILES_OUTSIDE
100
AcDbLine
 10
57.3625307114
 20
15.8571363099
 30
0.0
 11
43.0830031524
 21
15.8571363099
 31
0.0
  0
LINE
  5
20F
330
1F
100
AcDbEntity
  8
PROFILES_OUTSIDE
100
AcDbLine
 10
43.0830031524
 20
15.8571363099
 30
0.0
 11
43.0830031524
 21
1.1839079635
 31
0.0
  0
LINE
  5
210
330
1F
100
AcDbEntity
  8
PROFILES_OUTSIDE
100
AcDbLine
 10
43.0830031524
 20
1.1839079635
 30
0.0
 11
57.3625307114
 21
1.1839079635
 31
0.0
  0
LINE
  5
211
330
1F
100
AcDbEntity
  8
PROFILES_OUTSIDE
100
AcDbLine
 10
72.8814283492
 20
20.9752465462
 30
0.0
 11
58.6019007901
 21
20.9752465462
 31
0.0
  0
LINE
  5
212
330
1F
100
AcDbEntity
  8
PROFILES_OUTSIDE
100
AcDbLine
 10
58.6019007901
 20
20.9752465462
 30
0.0
 11
58.6019007901
 21
1.1839079635
 31
0.0
  0
LINE
  5
213
330
1F
100
AcDbEntity
  8
PROFILES_OUTSIDE
100
AcDbLine
 10
58.6019007901
 20
1.1839079635
 30
0.0
 11
72.8814283492
 21
1.1839079635
 31
0.0
  0
LINE
  5
214
330
1F
100
AcDbEntity
  8
PROFILES_OUTSIDE
100
AcDbLine
 10
72.8814283492
 20
1.1839079635
 30
0.0
 11
72.8814283492
 21
20.9752465462
 31
0.0
  0
LINE
  5
215
330
1F
100
AcDbEntity
  8
PROFILES_OUTSIDE
100
AcDbLine
 10
58.6019007901
 20
42.0059552076
 30
0.0
 11
58.6019007901
 21
22.2146166249
 31
0.0
  0
LINE
  5
216
330
1F
100
AcDbEntity
  8
PROFILES_OUTSIDE
100
AcDbLine
 10
58.6019007901
 20
22.2146166249
 30
0.0
 11
72.8814283492
 21
22.2146166249
 31
0.0
  0
LINE
  5
217
330
1F
100
AcDbEntity
  8
BOX_STOCK
100
AcDbLine
 10
0.0082000027
 20
0.1705221367
 30
0.0
 11
96.0711921287
 21
0.1705221367
 31
0.0
  0
LINE
  5
218
330
1F
100
AcDbEntity
  8
BOX_STOCK
100
AcDbLine
 10
96.0711921287
 20
0.1705221367
 30
0.0
 11
96.0711921287
 21
48.2020181997
 31
0.0
  0
LINE
  5
219
330
1F
100
AcDbEntity
  8
BOX_STOCK
100
AcDbLine
 10
96.0711921287
 20
48.2020181997
 30
0.0
 11
0.0082000027
 21
48.2020181997
 31
0.0
  0
LINE
  5
21A
330
1F
100
AcDbEntity
  8
BOX_STOCK
100
AcDbLine
 10
0.0082000027
 20
48.2020181997
 30
0.0
 11
0.0082000027
 21
0.1705221367
 31
0.0
  0
LINE
  5
21B
330
1F
100
AcDbEntity
  8
POCKETS
100
AcDbLine
 10
73.2751291366
 20
24.2961126879
 30
0.0
 11
58.2082000027
 21
24.2961126879
 31
0.0
  0
LINE
  5
21C
330
1F
100
AcDbEntity
  8
PROFILES_OUTSIDE
100
AcDbLine
 10
72.8814283492
 20
22.2146166249
 30
0.0
 11
72.8814283492
 21
42.0059552076
 31
0.0
  0
LINE
  5
21D
330
1F
100
AcDbEntity
  8
POCKETS
100
AcDbLine
 10
58.2082000027
 20
24.2961126879
 30
0.0
 11
58.2082000027
 21
23.7894197745
 31
0.0
  0
LINE
  5
21E
330
1F
100
AcDbEntity
  8
POCKETS
100
AcDbLine
 10
58.2082000027
 20
23.7894197745
 30
0.0
 11
73.2751291366
 21
23.7894197745
 31
0.0
  0
LINE
  5
21F
330
1F
100
AcDbEntity
  8
POCKETS
100
AcDbLine
 10
73.2751291366
 20
23.7894197745
 30
0.0
 11
73.2751291366
 21
24.2961126879
 31
0.0
  0
LINE
  5
220
330
1F
100
AcDbEntity
  8
PROFILES_OUTSIDE
100
AcDbLine
 10
72.8814283492
 20
42.0059552076
 30
0.0
 11
58.6019007901
 21
42.0059552076
 31
0.0
  0
LINE
  5
221
330
1F
100
AcDbEntity
  8
PROFILES_INSIDE
100
AcDbLine
 10
3.4756409476
 20
17.5773049975
 30
0.0
 11
3.4756409476
 21
17.8180699846
 31
0.0
  0
LINE
  5
222
330
1F
100
AcDbEntity
  8
PROFILES_INSIDE
100
AcDbLine
 10
3.0631141114
 20
17.9543805139
 30
0.0
 11
2.9039158153
 21
17.9543802647
 31
0.0
  0
LINE
  5
223
330
1F
100
AcDbEntity
  8
PROFILES_INSIDE
100
AcDbLine
 10
2.4913888844
 20
17.8180704791
 30
0.0
 11
2.4913889791
 21
17.577304503
 31
0.0
  0
LINE
  5
224
330
1F
100
AcDbEntity
  8
PROFILES_INSIDE
100
AcDbLine
 10
2.9039158153
 20
17.4409944682
 30
0.0
 11
3.0631141114
 21
17.4409946872
 31
0.0
  0
LINE
  5
225
330
1F
100
AcDbEntity
  8
PROFILES_INSIDE
100
AcDbLine
 10
19.7234362232
 20
1.904076651
 30
0.0
 11
19.7234362232
 21
2.1448416382
 31
0.0
  0
LINE
  5
226
330
1F
100
AcDbEntity
  8
PROFILES_INSIDE
100
AcDbLine
 10
19.310909387
 20
2.2811521675
 30
0.0
 11
19.1517110909
 21
2.2811519409
 31
0.0
  0
LINE
  5
227
330
1F
100
AcDbEntity
  8
PROFILES_INSIDE
100
AcDbLine
 10
18.7391841524
 20
2.1448421326
 30
0.0
 11
18.7391842547
 21
1.9040761565
 31
0.0
  0
LINE
  5
228
330
1F
100
AcDbEntity
  8
PROFILES_INSIDE
100
AcDbLine
 10
19.1517110909
 20
1.7677661217
 30
0.0
 11
19.310909387
 21
1.7677663407
 31
0.0
  0
LINE
  5
229
330
1F
100
AcDbEntity
  8
PROFILES_INSIDE
100
AcDbLine
 10
2.4913888919
 20
2.1448421326
 30
0.0
 11
2.4913889791
 21
1.9040761565
 31
0.0
  0
LINE
  5
22A
330
1F
100
AcDbEntity
  8
PROFILES_INSIDE
100
AcDbLine
 10
2.9039158153
 20
1.7677661217
 30
0.0
 11
3.0631141114
 21
1.7677663407
 31
0.0
  0
LINE
  5
22B
330
1F
100
AcDbEntity
  8
PROFILES_INSIDE
100
AcDbLine
 10
3.4756409476
 20
1.904076651
 30
0.0
 11
3.4756409476
 21
2.1448416382
 31
0.0
  0
LINE
  5
22C
330
1F
100
AcDbEntity
  8
PROFILES_INSIDE
100
AcDbLine
 10
3.0631141114
 20
2.2811521675
 30
0.0
 11
2.9039158153
 21
2.2811519485
 31
0.0
  0
LINE
  5
22D
330
1F
100
AcDbEntity
  8
PROFILES_OUTSIDE
100
AcDbLine
 10
74.5759165382
 20
19.1542229241
 30
0.0
 11
74.1601685067
 21
19.1542229241
 31
0.0
  0
LINE
  5
22E
330
1F
100
AcDbEntity
  8
PROFILES_OUTSIDE
100
AcDbLine
 10
74.5893058152
 20
18.9450154702
 30
0.0
 11
74.5759165382
 21
19.1542229241
 31
0.0
  0
LINE
  5
22F
330
1F
100
AcDbEntity
  8
PROFILES_OUTSIDE
100
AcDbLine
 10
74.9687402239
 20
18.908159932
 30
0.0
 11
74.6285955109
 21
18.908159932
 31
0.0
  0
LINE
  5
230
330
1F
100
AcDbEntity
  8
PROFILES_OUTSIDE
100
AcDbLine
 10
75.1050503964
 20
19.4003646564
 30
0.0
 11
75.1050503964
 21
19.3206867682
 31
0.0
  0
LINE
  5
231
330
1F
100
AcDbEntity
  8
PROFILES_OUTSIDE
100
AcDbLine
 10
80.5381212626
 20
19.4003646564
 30
0.0
 11
75.1050503964
 21
19.4003646564
 31
0.0
  0
LINE
  5
232
330
1F
100
AcDbEntity
  8
PROFILES_OUTSIDE
100
AcDbLine
 10
81.0105622075
 20
13.6431730554
 30
0.0
 11
81.0105622075
 21
18.9279237115
 31
0.0
  0
LINE
  5
233
330
1F
100
AcDbEntity
  8
PROFILES_OUTSIDE
100
AcDbLine
 10
82.5066251996
 20
13.1707321105
 30
0.0
 11
81.4830031524
 21
13.1707321105
 31
0.0
  0
LINE
  5
234
330
1F
100
AcDbEntity
  8
PROFILES_OUTSIDE
100
AcDbLine
 10
82.9790661445
 20
18.9279237115
 30
0.0
 11
82.9790661445
 21
13.6431730554
 31
0.0
  0
LINE
  5
235
330
1F
100
AcDbEntity
  8
PROFILES_INSIDE
100
AcDbLine
 10
40.7541448846
 20
17.5773049975
 30
0.0
 11
40.7541448846
 21
17.8180699846
 31
0.0
  0
LINE
  5
236
330
1F
100
AcDbEntity
  8
PROFILES_INSIDE
100
AcDbLine
 10
40.1824197523
 20
17.4409944682
 30
0.0
 11
40.3416180484
 21
17.4409946872
 31
0.0
  0
LINE
  5
237
330
1F
100
AcDbEntity
  8
PROFILES_INSIDE
100
AcDbLine
 10
39.7698928289
 20
17.8180704791
 30
0.0
 11
39.7698929161
 21
17.577304503
 31
0.0
  0
LINE
  5
238
330
1F
100
AcDbEntity
  8
PROFILES_INSIDE
100
AcDbLine
 10
40.3416180484
 20
17.9543805139
 30
0.0
 11
40.1824197523
 21
17.9543802118
 31
0.0
  0
LINE
  5
239
330
1F
100
AcDbEntity
  8
PROFILES_INSIDE
100
AcDbLine
 10
24.5120425224
 20
17.5773049975
 30
0.0
 11
24.5120425224
 21
17.8180699846
 31
0.0
  0
LINE
  5
23A
330
1F
100
AcDbEntity
  8
PROFILES_INSIDE
100
AcDbLine
 10
24.0995156862
 20
17.9543805139
 30
0.0
 11
23.9403173901
 21
17.9543802647
 31
0.0
  0
LINE
  5
23B
330
1F
100
AcDbEntity
  8
PROFILES_INSIDE
100
AcDbLine
 10
23.5277904592
 20
17.8180704791
 30
0.0
 11
23.5277905539
 21
17.577304503
 31
0.0
  0
LINE
  5
23C
330
1F
100
AcDbEntity
  8
PROFILES_INSIDE
100
AcDbLine
 10
23.9403173901
 20
17.4409944682
 30
0.0
 11
24.0995156862
 21
17.4409946872
 31
0.0
  0
LINE
  5
23D
330
1F
100
AcDbEntity
  8
PROFILES_INSIDE
100
AcDbLine
 10
40.7541448846
 20
1.904076651
 30
0.0
 11
40.7541448846
 21
2.1448416382
 31
0.0
  0
LINE
  5
23E
330
1F
100
AcDbEntity
  8
PROFILES_INSIDE
100
AcDbLine
 10
40.3416180484
 20
2.2811521675
 30
0.0
 11
40.1824197523
 21
2.2811519409
 31
0.0
  0
LINE
  5
23F
330
1F
100
AcDbEntity
  8
PROFILES_INSIDE
100
AcDbLine
 10
39.7698928138
 20
2.1448421326
 30
0.0
 11
39.7698929161
 21
1.9040761565
 31
0.0
  0
LINE
  5
240
330
1F
100
AcDbEntity
  8
PROFILES_INSIDE
100
AcDbLine
 10
40.1824197523
 20
1.7677661217
 30
0.0
 11
40.3416180484
 21
1.7677663407
 31
0.0
  0
LINE
  5
241
330
1F
100
AcDbEntity
  8
PROFILES_OUTSIDE
100
AcDbLine
 10
88.8845779555
 20
19.4003646564
 30
0.0
 11
83.4515070894
 21
19.4003646564
 31
0.0
  0
LINE
  5
242
330
1F
100
AcDbEntity
  8
PROFILES_OUTSIDE
100
AcDbLine
 10
88.8845779555
 20
19.3206867682
 30
0.0
 11
88.8845779555
 21
19.4003646564
 31
0.0
  0
LINE
  5
243
330
1F
100
AcDbEntity
  8
PROFILES_OUTSIDE
100
AcDbLine
 10
89.361032841
 20
18.908159932
 30
0.0
 11
89.0208881281
 21
18.908159932
 31
0.0
  0
LINE
  5
244
330
1F
100
AcDbEntity
  8
PROFILES_OUTSIDE
100
AcDbLine
 10
89.4137118138
 20
19.1542229241
 30
0.0
 11
89.4003225367
 21
18.9450154702
 31
0.0
  0
LINE
  5
245
330
1F
100
AcDbEntity
  8
PROFILES_OUTSIDE
100
AcDbLine
 10
89.8294598453
 20
19.1542229241
 30
0.0
 11
89.4137118138
 21
19.1542229241
 31
0.0
  0
LINE
  5
246
330
1F
100
AcDbEntity
  8
PROFILES_INSIDE
100
AcDbLine
 10
23.5277904667
 20
2.1448421326
 30
0.0
 11
23.5277905539
 21
1.9040761565
 31
0.0
  0
LINE
  5
247
330
1F
100
AcDbEntity
  8
PROFILES_INSIDE
100
AcDbLine
 10
23.9403173901
 20
1.7677661217
 30
0.0
 11
24.0995156862
 21
1.7677663407
 31
0.0
  0
LINE
  5
248
330
1F
100
AcDbEntity
  8
PROFILES_INSIDE
100
AcDbLine
 10
24.5120425224
 20
1.904076651
 30
0.0
 11
24.5120425224
 21
2.1448416382
 31
0.0
  0
LINE
  5
249
330
1F
100
AcDbEntity
  8
PROFILES_INSIDE
100
AcDbLine
 10
24.0995156862
 20
2.2811521675
 30
0.0
 11
23.9403173901
 21
2.2811519485
 31
0.0
  0
LINE
  5
24A
330
1F
100
AcDbEntity
  8
PROFILES_OUTSIDE
100
AcDbLine
 10
22.0522944909
 20
18.3020181997
 30
0.0
 11
22.0522944909
 21
1.4201284359
 31
0.0
  0
LINE
  5
24B
330
1F
100
AcDbEntity
  8
PROFILES_OUTSIDE
100
AcDbLine
 10
41.6074126012
 20
18.5382386722
 30
0.0
 11
22.2885149634
 21
18.5382386722
 31
0.0
  0
LINE
  5
24C
330
1F
100
AcDbEntity
  8
POCKETS
100
AcDbLine
 10
21.2200110264
 20
2.7878449714
 30
0.0
 11
20.826310239
 21
2.7878449714
 31
0.0
  0
LINE
  5
24D
330
1F
100
AcDbEntity
  8
PROFILES_OUTSIDE
100
AcDbLine
 10
89.868829924
 20
18.6522544202
 30
0.0
 11
89.868829924
 21
19.1148528454
 31
0.0
  0
LINE
  5
24E
330
1F
100
AcDbEntity
  8
PROFILES_OUTSIDE
100
AcDbLine
 10
84.2015070894
 20
18.4160339477
 30
0.0
 11
89.6326094516
 21
18.4160339477
 31
0.0
  0
LINE
  5
24F
330
1F
100
AcDbEntity
  8
PROFILES_OUTSIDE
100
AcDbLine
 10
83.7290661445
 20
13.1707321105
 30
0.0
 11
83.7290661445
 21
17.9435930029
 31
0.0
  0
LINE
  5
250
330
1F
100
AcDbEntity
  8
PROFILES_OUTSIDE
100
AcDbLine
 10
82.9790661445
 20
8.7125786151
 30
0.0
 11
82.9790661445
 21
11.8716940048
 31
0.0
  0
LINE
  5
251
330
1F
100
AcDbEntity
  8
PROFILES_OUTSIDE
100
AcDbLine
 10
83.7290661445
 20
2.640679617
 30
0.0
 11
83.7290661445
 21
7.4135405094
 31
0.0
  0
LINE
  5
252
330
1F
100
AcDbEntity
  8
PROFILES_OUTSIDE
100
AcDbLine
 10
89.6326094516
 20
2.1682386722
 30
0.0
 11
84.2015070894
 21
2.1682386722
 31
0.0
  0
LINE
  5
253
330
1F
100
AcDbEntity
  8
PROFILES_OUTSIDE
100
AcDbLine
 10
89.868829924
 20
1.4694197745
 30
0.0
 11
89.868829924
 21
1.9320181997
 31
0.0
  0
LINE
  5
254
330
1F
100
AcDbEntity
  8
PROFILES_OUTSIDE
100
AcDbLine
 10
89.4137118138
 20
1.4300496958
 30
0.0
 11
89.8294598453
 21
1.4300496958
 31
0.0
  0
LINE
  5
255
330
1F
100
AcDbEntity
  8
PROFILES_OUTSIDE
100
AcDbLine
 10
89.4003225367
 20
1.6392571497
 30
0.0
 11
89.4137118138
 21
1.4300496958
 31
0.0
  0
LINE
  5
256
330
1F
100
AcDbEntity
  8
PROFILES_OUTSIDE
100
AcDbLine
 10
89.0208881281
 20
1.6761126879
 30
0.0
 11
89.361032841
 21
1.6761126879
 31
0.0
  0
LINE
  5
257
330
1F
100
AcDbEntity
  8
PROFILES_OUTSIDE
100
AcDbLine
 10
88.8845779555
 20
1.1839079635
 30
0.0
 11
88.8845779555
 21
1.2635858517
 31
0.0
  0
LINE
  5
258
330
1F
100
AcDbEntity
  8
PROFILES_OUTSIDE
100
AcDbLine
 10
83.4515070894
 20
1.1839079635
 30
0.0
 11
88.8845779555
 21
1.1839079635
 31
0.0
  0
LINE
  5
259
330
1F
100
AcDbEntity
  8
PROFILES_OUTSIDE
100
AcDbLine
 10
82.9790661445
 20
6.9410995645
 30
0.0
 11
82.9790661445
 21
1.6563489084
 31
0.0
  0
LINE
  5
25A
330
1F
100
AcDbEntity
  8
PROFILES_OUTSIDE
100
AcDbLine
 10
81.4830031524
 20
7.4135405094
 30
0.0
 11
82.5066251996
 21
7.4135405094
 31
0.0
  0
LINE
  5
25B
330
1F
100
AcDbEntity
  8
PROFILES_OUTSIDE
100
AcDbLine
 10
81.0105622075
 20
1.6563489084
 30
0.0
 11
81.0105622075
 21
6.9410995645
 31
0.0
  0
LINE
  5
25C
330
1F
100
AcDbEntity
  8
PROFILES_OUTSIDE
100
AcDbLine
 10
75.1050503964
 20
1.1839079635
 30
0.0
 11
80.5381212626
 21
1.1839079635
 31
0.0
  0
LINE
  5
25D
330
1F
100
AcDbEntity
  8
POCKETS
100
AcDbLine
 10
21.2200110264
 20
2.2610733178
 30
0.0
 11
21.2200110264
 21
2.7878449714
 31
0.0
  0
LINE
  5
25E
330
1F
100
AcDbEntity
  8
POCKETS
100
AcDbLine
 10
20.826310239
 20
2.2610733178
 30
0.0
 11
21.2200110264
 21
2.2610733178
 31
0.0
  0
LINE
  5
25F
330
1F
100
AcDbEntity
  8
POCKETS
100
AcDbLine
 10
1.0082000027
 20
2.2610733178
 30
0.0
 11
20.826310239
 21
2.2610733178
 31
0.0
  0
LINE
  5
260
330
1F
100
AcDbEntity
  8
POCKETS
100
AcDbLine
 10
0.6144992153
 20
2.2610733178
 30
0.0
 11
1.0082000027
 21
2.2610733178
 31
0.0
  0
LINE
  5
261
330
1F
100
AcDbEntity
  8
POCKETS
100
AcDbLine
 10
0.6144992153
 20
2.7878449714
 30
0.0
 11
0.6144992153
 21
2.2610733178
 31
0.0
  0
LINE
  5
262
330
1F
100
AcDbEntity
  8
POCKETS
100
AcDbLine
 10
1.0082000027
 20
2.7878449714
 30
0.0
 11
0.6144992153
 21
2.7878449714
 31
0.0
  0
LINE
  5
263
330
1F
100
AcDbEntity
  8
POCKETS
100
AcDbLine
 10
18.7247354358
 20
2.7878449714
 30
0.0
 11
1.0082000027
 21
2.7878449714
 31
0.0
  0
LINE
  5
264
330
1F
100
AcDbEntity
  8
POCKETS
100
AcDbLine
 10
18.7247354358
 20
16.9343016643
 30
0.0
 11
18.7247354358
 21
2.7878449714
 31
0.0
  0
LINE
  5
265
330
1F
100
AcDbEntity
  8
POCKETS
100
AcDbLine
 10
1.0082000027
 20
16.9343016643
 30
0.0
 11
18.7247354358
 21
16.9343016643
 31
0.0
  0
LINE
  5
266
330
1F
100
AcDbEntity
  8
POCKETS
100
AcDbLine
 10
0.6144992153
 20
16.9343016643
 30
0.0
 11
1.0082000027
 21
16.9343016643
 31
0.0
  0
LINE
  5
267
330
1F
100
AcDbEntity
  8
POCKETS
100
AcDbLine
 10
0.6144992153
 20
17.4610733178
 30
0.0
 11
0.6144992153
 21
16.9343016643
 31
0.0
  0
LINE
  5
268
330
1F
100
AcDbEntity
  8
POCKETS
100
AcDbLine
 10
1.0082000027
 20
17.4610733178
 30
0.0
 11
0.6144992153
 21
17.4610733178
 31
0.0
  0
LINE
  5
269
330
1F
100
AcDbEntity
  8
POCKETS
100
AcDbLine
 10
20.826310239
 20
17.4610733178
 30
0.0
 11
1.0082000027
 21
17.4610733178
 31
0.0
  0
LINE
  5
26A
330
1F
100
AcDbEntity
  8
POCKETS
100
AcDbLine
 10
21.2200110264
 20
17.4610733178
 30
0.0
 11
20.826310239
 21
17.4610733178
 31
0.0
  0
LINE
  5
26B
330
1F
100
AcDbEntity
  8
POCKETS
100
AcDbLine
 10
21.2200110264
 20
16.9343016643
 30
0.0
 11
21.2200110264
 21
17.4610733178
 31
0.0
  0
LINE
  5
26C
330
1F
100
AcDbEntity
  8
POCKETS
100
AcDbLine
 10
20.826310239
 20
16.9343016643
 30
0.0
 11
21.2200110264
 21
16.9343016643
 31
0.0
  0
LINE
  5
26D
330
1F
100
AcDbEntity
  8
POCKETS
100
AcDbLine
 10
19.2381212626
 20
16.9343016643
 30
0.0
 11
20.826310239
 21
16.9343016643
 31
0.0
  0
LINE
  5
26E
330
1F
100
AcDbEntity
  8
PROFILES_OUTSIDE
100
AcDbLine
 10
75.1050503964
 20
1.2635858517
 30
0.0
 11
75.1050503964
 21
1.1839079635
 31
0.0
  0
LINE
  5
26F
330
1F
100
AcDbEntity
  8
PROFILES_OUTSIDE
100
AcDbLine
 10
74.6285955109
 20
1.6761126879
 30
0.0
 11
74.9687402239
 21
1.6761126879
 31
0.0
  0
LINE
  5
270
330
1F
100
AcDbEntity
  8
PROFILES_OUTSIDE
100
AcDbLine
 10
74.5759165382
 20
1.4300496958
 30
0.0
 11
74.5893058152
 21
1.6392571497
 31
0.0
  0
LINE
  5
271
330
1F
100
AcDbEntity
  8
PROFILES_OUTSIDE
100
AcDbLine
 10
74.1601685067
 20
1.4300496958
 30
0.0
 11
74.5759165382
 21
1.4300496958
 31
0.0
  0
LINE
  5
272
330
1F
100
AcDbEntity
  8
PROFILES_OUTSIDE
100
AcDbLine
 10
74.1207984279
 20
1.9320181997
 30
0.0
 11
74.1207984279
 21
1.4694197745
 31
0.0
  0
LINE
  5
273
330
1F
100
AcDbEntity
  8
PROFILES_OUTSIDE
100
AcDbLine
 10
79.7881212626
 20
2.1682386722
 30
0.0
 11
74.3570189004
 21
2.1682386722
 31
0.0
  0
LINE
  5
274
330
1F
100
AcDbEntity
  8
PROFILES_OUTSIDE
100
AcDbLine
 10
80.2605622075
 20
7.4135405094
 30
0.0
 11
80.2605622075
 21
2.640679617
 31
0.0
  0
LINE
  5
275
330
1F
100
AcDbEntity
  8
PROFILES_OUTSIDE
100
AcDbLine
 10
81.0105622075
 20
11.8716940048
 30
0.0
 11
81.0105622075
 21
8.7125786151
 31
0.0
  0
LINE
  5
276
330
1F
100
AcDbEntity
  8
PROFILES_OUTSIDE
100
AcDbLine
 10
80.2605622075
 20
17.9435930029
 30
0.0
 11
80.2605622075
 21
13.1707321105
 31
0.0
  0
LINE
  5
277
330
1F
100
AcDbEntity
  8
PROFILES_OUTSIDE
100
AcDbLine
 10
74.3570189004
 20
18.4160339477
 30
0.0
 11
79.7881212626
 21
18.4160339477
 31
0.0
  0
LINE
  5
278
330
1F
100
AcDbEntity
  8
PROFILES_OUTSIDE
100
AcDbLine
 10
74.1207984279
 20
19.1148528454
 30
0.0
 11
74.1207984279
 21
18.6522544202
 31
0.0
  0
LINE
  5
279
330
1F
100
AcDbEntity
  8
POCKETS
100
AcDbLine
 10
19.2381212626
 20
2.7878449714
 30
0.0
 11
19.2381212626
 21
16.9343016643
 31
0.0
  0
LINE
  5
27A
330
1F
100
AcDbEntity
  8
PROFILES_OUTSIDE
100
AcDbLine
 10
89.4137118138
 20
20.8857189871
 30
0.0
 11
89.8294598453
 21
20.8857189871
 31
0.0
  0
LINE
  5
27B
330
1F
100
AcDbEntity
  8
PROFILES_OUTSIDE
100
AcDbLine
 10
89.4003225367
 20
21.094926441
 30
0.0
 11
89.4137118138
 21
20.8857189871
 31
0.0
  0
LINE
  5
27C
330
1F
100
AcDbEntity
  8
PROFILES_OUTSIDE
100
AcDbLine
 10
89.0208881281
 20
21.1317819792
 30
0.0
 11
89.361032841
 21
21.1317819792
 31
0.0
  0
LINE
  5
27D
330
1F
100
AcDbEntity
  8
PROFILES_OUTSIDE
100
AcDbLine
 10
88.8845779555
 20
20.6395772548
 30
0.0
 11
88.8845779555
 21
20.719255143
 31
0.0
  0
LINE
  5
27E
330
1F
100
AcDbEntity
  8
PROFILES_OUTSIDE
100
AcDbLine
 10
83.4515070894
 20
20.6395772548
 30
0.0
 11
88.8845779555
 21
20.6395772548
 31
0.0
  0
LINE
  5
27F
330
1F
100
AcDbEntity
  8
PROFILES_OUTSIDE
100
AcDbLine
 10
82.9790661445
 20
26.3967688559
 30
0.0
 11
82.9790661445
 21
21.1120181997
 31
0.0
  0
LINE
  5
280
330
1F
100
AcDbEntity
  8
PROFILES_OUTSIDE
100
AcDbLine
 10
81.4830031524
 20
26.8692098008
 30
0.0
 11
82.5066251996
 21
26.8692098008
 31
0.0
  0
LINE
  5
281
330
1F
100
AcDbEntity
  8
PROFILES_OUTSIDE
100
AcDbLine
 10
81.0105622075
 20
21.1120181997
 30
0.0
 11
81.0105622075
 21
26.3967688559
 31
0.0
  0
LINE
  5
282
330
1F
100
AcDbEntity
  8
PROFILES_OUTSIDE
100
AcDbLine
 10
75.1050503964
 20
20.6395772548
 30
0.0
 11
80.5381212626
 21
20.6395772548
 31
0.0
  0
LINE
  5
283
330
1F
100
AcDbEntity
  8
PROFILES_OUTSIDE
100
AcDbLine
 10
75.1050503964
 20
20.719255143
 30
0.0
 11
75.1050503964
 21
20.6395772548
 31
0.0
  0
LINE
  5
284
330
1F
100
AcDbEntity
  8
PROFILES_OUTSIDE
100
AcDbLine
 10
74.6285955109
 20
21.1317819792
 30
0.0
 11
74.9687402239
 21
21.1317819792
 31
0.0
  0
LINE
  5
285
330
1F
100
AcDbEntity
  8
PROFILES_OUTSIDE
100
AcDbLine
 10
74.5759165382
 20
20.8857189871
 30
0.0
 11
74.5893058152
 21
21.094926441
 31
0.0
  0
LINE
  5
286
330
1F
100
AcDbEntity
  8
PROFILES_OUTSIDE
100
AcDbLine
 10
74.1601685067
 20
20.8857189871
 30
0.0
 11
74.5759165382
 21
20.8857189871
 31
0.0
  0
LINE
  5
287
330
1F
100
AcDbEntity
  8
PROFILES_OUTSIDE
100
AcDbLine
 10
74.1207984279
 20
21.387687491
 30
0.0
 11
74.1207984279
 21
20.9250890659
 31
0.0
  0
LINE
  5
288
330
1F
100
AcDbEntity
  8
PROFILES_OUTSIDE
100
AcDbLine
 10
79.7881212626
 20
21.6239079635
 30
0.0
 11
74.3570189004
 21
21.6239079635
 31
0.0
  0
LINE
  5
289
330
1F
100
AcDbEntity
  8
PROFILES_OUTSIDE
100
AcDbLine
 10
80.2605622075
 20
26.8692098008
 30
0.0
 11
80.2605622075
 21
22.0963489084
 31
0.0
  0
LINE
  5
28A
330
1F
100
AcDbEntity
  8
PROFILES_OUTSIDE
100
AcDbLine
 10
81.0105622075
 20
31.3273632961
 30
0.0
 11
81.0105622075
 21
28.1682479064
 31
0.0
  0
LINE
  5
28B
330
1F
100
AcDbEntity
  8
PROFILES_OUTSIDE
100
AcDbLine
 10
80.2605622075
 20
37.3992622942
 30
0.0
 11
80.2605622075
 21
32.6264014018
 31
0.0
  0
LINE
  5
28C
330
1F
100
AcDbEntity
  8
PROFILES_OUTSIDE
100
AcDbLine
 10
74.3570189004
 20
37.8717032391
 30
0.0
 11
79.7881212626
 21
37.8717032391
 31
0.0
  0
LINE
  5
28D
330
1F
100
AcDbEntity
  8
PROFILES_OUTSIDE
100
AcDbLine
 10
74.1207984279
 20
38.5705221367
 30
0.0
 11
74.1207984279
 21
38.1079237115
 31
0.0
  0
LINE
  5
28E
330
1F
100
AcDbEntity
  8
PROFILES_OUTSIDE
100
AcDbLine
 10
74.5759165382
 20
38.6098922155
 30
0.0
 11
74.1601685067
 21
38.6098922155
 31
0.0
  0
LINE
  5
28F
330
1F
100
AcDbEntity
  8
PROFILES_OUTSIDE
100
AcDbLine
 10
74.5893058152
 20
38.4006847615
 30
0.0
 11
74.5759165382
 21
38.6098922155
 31
0.0
  0
LINE
  5
290
330
1F
100
AcDbEntity
  8
PROFILES_OUTSIDE
100
AcDbLine
 10
74.9687402239
 20
38.3638292233
 30
0.0
 11
74.6285955109
 21
38.3638292233
 31
0.0
  0
LINE
  5
291
330
1F
100
AcDbEntity
  8
PROFILES_OUTSIDE
100
AcDbLine
 10
75.1050503964
 20
38.8560339477
 30
0.0
 11
75.1050503964
 21
38.7763560595
 31
0.0
  0
LINE
  5
292
330
1F
100
AcDbEntity
  8
PROFILES_OUTSIDE
100
AcDbLine
 10
80.5381212626
 20
38.8560339477
 30
0.0
 11
75.1050503964
 21
38.8560339477
 31
0.0
  0
LINE
  5
293
330
1F
100
AcDbEntity
  8
PROFILES_OUTSIDE
100
AcDbLine
 10
81.0105622075
 20
33.0988423467
 30
0.0
 11
81.0105622075
 21
38.3835930029
 31
0.0
  0
LINE
  5
294
330
1F
100
AcDbEntity
  8
PROFILES_OUTSIDE
100
AcDbLine
 10
82.5066251996
 20
32.6264014018
 30
0.0
 11
81.4830031524
 21
32.6264014018
 31
0.0
  0
LINE
  5
295
330
1F
100
AcDbEntity
  8
PROFILES_OUTSIDE
100
AcDbLine
 10
82.9790661445
 20
38.3835930029
 30
0.0
 11
82.9790661445
 21
33.0988423467
 31
0.0
  0
LINE
  5
296
330
1F
100
AcDbEntity
  8
PROFILES_OUTSIDE
100
AcDbLine
 10
88.8845779555
 20
38.8560339477
 30
0.0
 11
83.4515070894
 21
38.8560339477
 31
0.0
  0
LINE
  5
297
330
1F
100
AcDbEntity
  8
PROFILES_OUTSIDE
100
AcDbLine
 10
88.8845779555
 20
38.7763560595
 30
0.0
 11
88.8845779555
 21
38.8560339477
 31
0.0
  0
LINE
  5
298
330
1F
100
AcDbEntity
  8
PROFILES_OUTSIDE
100
AcDbLine
 10
89.361032841
 20
38.3638292233
 30
0.0
 11
89.0208881281
 21
38.3638292233
 31
0.0
  0
LINE
  5
299
330
1F
100
AcDbEntity
  8
PROFILES_OUTSIDE
100
AcDbLine
 10
89.4137118138
 20
38.6098922155
 30
0.0
 11
89.4003225367
 21
38.4006847615
 31
0.0
  0
LINE
  5
29A
330
1F
100
AcDbEntity
  8
PROFILES_OUTSIDE
100
AcDbLine
 10
89.8294598453
 20
38.6098922155
 30
0.0
 11
89.4137118138
 21
38.6098922155
 31
0.0
  0
LINE
  5
29B
330
1F
100
AcDbEntity
  8
PROFILES_OUTSIDE
100
AcDbLine
 10
89.868829924
 20
38.1079237115
 30
0.0
 11
89.868829924
 21
38.5705221367
 31
0.0
  0
LINE
  5
29C
330
1F
100
AcDbEntity
  8
PROFILES_OUTSIDE
100
AcDbLine
 10
84.2015070894
 20
37.8717032391
 30
0.0
 11
89.6326094516
 21
37.8717032391
 31
0.0
  0
LINE
  5
29D
330
1F
100
AcDbEntity
  8
PROFILES_OUTSIDE
100
AcDbLine
 10
83.7290661445
 20
32.6264014018
 30
0.0
 11
83.7290661445
 21
37.3992622942
 31
0.0
  0
LINE
  5
29E
330
1F
100
AcDbEntity
  8
PROFILES_OUTSIDE
100
AcDbLine
 10
82.9790661445
 20
28.1682479064
 30
0.0
 11
82.9790661445
 21
31.3273632961
 31
0.0
  0
LINE
  5
29F
330
1F
100
AcDbEntity
  8
PROFILES_OUTSIDE
100
AcDbLine
 10
83.7290661445
 20
22.0963489084
 30
0.0
 11
83.7290661445
 21
26.8692098008
 31
0.0
  0
LINE
  5
2A0
330
1F
100
AcDbEntity
  8
PROFILES_OUTSIDE
100
AcDbLine
 10
89.6326094516
 20
21.6239079635
 30
0.0
 11
84.2015070894
 21
21.6239079635
 31
0.0
  0
LINE
  5
2A1
330
1F
100
AcDbEntity
  8
PROFILES_OUTSIDE
100
AcDbLine
 10
89.868829924
 20
20.9250890659
 30
0.0
 11
89.868829924
 21
21.387687491
 31
0.0
  0
LINE
  5
2A2
330
1F
100
AcDbEntity
  8
POCKETS
100
AcDbLine
 10
20.826310239
 20
2.7878449714
 30
0.0
 11
19.2381212626
 21
2.7878449714
 31
0.0
  0
LINE
  5
2A3
330
1F
100
AcDbEntity
  8
POCKETS
100
AcDbLine
 10
40.268829924
 20
16.9343016643
 30
0.0
 11
41.8570189004
 21
16.9343016643
 31
0.0
  0
LINE
  5
2A4
330
1F
100
AcDbEntity
  8
POCKETS
100
AcDbLine
 10
41.8570189004
 20
16.9343016643
 30
0.0
 11
42.2507196878
 21
16.9343016643
 31
0.0
  0
LINE
  5
2A5
330
1F
100
AcDbEntity
  8
POCKETS
100
AcDbLine
 10
42.2507196878
 20
16.9343016643
 30
0.0
 11
42.2507196878
 21
17.4610733178
 31
0.0
  0
LINE
  5
2A6
330
1F
100
AcDbEntity
  8
POCKETS
100
AcDbLine
 10
42.2507196878
 20
17.4610733178
 30
0.0
 11
41.8570189004
 21
17.4610733178
 31
0.0
  0
LINE
  5
2A7
330
1F
100
AcDbEntity
  8
POCKETS
100
AcDbLine
 10
41.8570189004
 20
17.4610733178
 30
0.0
 11
22.0389086642
 21
17.4610733178
 31
0.0
  0
LINE
  5
2A8
330
1F
100
AcDbEntity
  8
POCKETS
100
AcDbLine
 10
22.0389086642
 20
17.4610733178
 30
0.0
 11
21.6452078768
 21
17.4610733178
 31
0.0
  0
LINE
  5
2A9
330
1F
100
AcDbEntity
  8
POCKETS
100
AcDbLine
 10
21.6452078768
 20
17.4610733178
 30
0.0
 11
21.6452078768
 21
16.9343016643
 31
0.0
  0
LINE
  5
2AA
330
1F
100
AcDbEntity
  8
POCKETS
100
AcDbLine
 10
21.6452078768
 20
16.9343016643
 30
0.0
 11
22.0389086642
 21
16.9343016643
 31
0.0
  0
LINE
  5
2AB
330
1F
100
AcDbEntity
  8
POCKETS
100
AcDbLine
 10
22.0389086642
 20
16.9343016643
 30
0.0
 11
39.7554440972
 21
16.9343016643
 31
0.0
  0
LINE
  5
2AC
330
1F
100
AcDbEntity
  8
POCKETS
100
AcDbLine
 10
39.7554440972
 20
16.9343016643
 30
0.0
 11
39.7554440972
 21
2.7878449714
 31
0.0
  0
LINE
  5
2AD
330
1F
100
AcDbEntity
  8
POCKETS
100
AcDbLine
 10
39.7554440972
 20
2.7878449714
 30
0.0
 11
22.0389086642
 21
2.7878449714
 31
0.0
  0
LINE
  5
2AE
330
1F
100
AcDbEntity
  8
POCKETS
100
AcDbLine
 10
22.0389086642
 20
2.7878449714
 30
0.0
 11
21.6452078768
 21
2.7878449714
 31
0.0
  0
LINE
  5
2AF
330
1F
100
AcDbEntity
  8
POCKETS
100
AcDbLine
 10
21.6452078768
 20
2.7878449714
 30
0.0
 11
21.6452078768
 21
2.2610733178
 31
0.0
  0
LINE
  5
2B0
330
1F
100
AcDbEntity
  8
POCKETS
100
AcDbLine
 10
21.6452078768
 20
2.2610733178
 30
0.0
 11
22.0389086642
 21
2.2610733178
 31
0.0
  0
LINE
  5
2B1
330
1F
100
AcDbEntity
  8
POCKETS
100
AcDbLine
 10
22.0389086642
 20
2.2610733178
 30
0.0
 11
41.8570189004
 21
2.2610733178
 31
0.0
  0
LINE
  5
2B2
330
1F
100
AcDbEntity
  8
POCKETS
100
AcDbLine
 10
41.8570189004
 20
2.2610733178
 30
0.0
 11
42.2507196878
 21
2.2610733178
 31
0.0
  0
LINE
  5
2B3
330
1F
100
AcDbEntity
  8
POCKETS
100
AcDbLine
 10
42.2507196878
 20
2.2610733178
 30
0.0
 11
42.2507196878
 21
2.7878449714
 31
0.0
  0
LINE
  5
2B4
330
1F
100
AcDbEntity
  8
POCKETS
100
AcDbLine
 10
42.2507196878
 20
2.7878449714
 30
0.0
 11
41.8570189004
 21
2.7878449714
 31
0.0
  0
LINE
  5
2B5
330
1F
100
AcDbEntity
  8
POCKETS
100
AcDbLine
 10
41.8570189004
 20
2.7878449714
 30
0.0
 11
40.268829924
 21
2.7878449714
 31
0.0
  0
LINE
  5
2B6
330
1F
100
AcDbEntity
  8
POCKETS
100
AcDbLine
 10
40.268829924
 20
2.7878449714
 30
0.0
 11
40.268829924
 21
16.9343016643
 31
0.0
  0
LINE
  5
2B7
330
1F
100
AcDbEntity
  8
PROFILES_OUTSIDE
100
AcDbLine
 10
22.2885149634
 20
1.1839079635
 30
0.0
 11
41.6074126012
 21
1.1839079635
 31
0.0
  0
ARC
  5
2B8
330
1F
100
AcDbEntity
  8
PROFILES_INSIDE
100
AcDbCircle
 10
20.5491448846
 20
8.0737490233
 30
0.0
 40
0.2362204724409458
100
AcDbArc
 50
280.0
 51
0.0
  0
ARC
  5
2B9
330
1F
100
AcDbEntity
  8
PROFILES_OUTSIDE
100
AcDbCircle
 10
89.8294598453
 20
19.1148528454
 30
0.0
 40
0.039370078740177
100
AcDbArc
 50
0.0
 51
90.0
  0
ARC
  5
2BA
330
1F
100
AcDbEntity
  8
PROFILES_INSIDE
100
AcDbCircle
 10
19.3109093328
 20
17.9937505927
 30
0.0
 40
0.0393700787401586
100
AcDbArc
 50
270.0000788272
 51
342.3995496328
  0
ARC
  5
2BB
330
1F
100
AcDbEntity
  8
PROFILES_INSIDE
100
AcDbCircle
 10
19.5424515279
 20
17.9202990787
 30
0.0
 40
0.203543307086614
100
AcDbArc
 50
335.1122431696
 51
162.3995496328
  0
ARC
  5
2BC
330
1F
100
AcDbEntity
  8
PROFILES_INSIDE
100
AcDbCircle
 10
19.7628085428
 20
17.8180699846
 30
0.0
 40
0.0393723196329029
100
AcDbArc
 50
155.1122431696
 51
180.0
  0
ARC
  5
2BD
330
1F
100
AcDbEntity
  8
PROFILES_INSIDE
100
AcDbCircle
 10
19.762806302
 20
17.5773049975
 30
0.0
 40
0.0393700787401594
100
AcDbArc
 50
180.0
 51
204.8879105874
  0
ARC
  5
2BE
330
1F
100
AcDbEntity
  8
PROFILES_INSIDE
100
AcDbCircle
 10
19.5424515942
 20
17.4750762551
 30
0.0
 40
0.2035433070866132
100
AcDbArc
 50
197.6004832045
 51
24.8879105874
  0
ARC
  5
2BF
330
1F
100
AcDbEntity
  8
PROFILES_INSIDE
100
AcDbCircle
 10
19.3109094412
 20
17.4016246084
 30
0.0
 40
0.0393700787401585
100
AcDbArc
 50
17.6004832045
 51
90.0000788272
  0
ARC
  5
2C0
330
1F
100
AcDbEntity
  8
PROFILES_INSIDE
100
AcDbCircle
 10
19.1517111451
 20
17.4016243894
 30
0.0
 40
0.0393700787401586
100
AcDbArc
 50
90.0000788272
 51
162.3995496328
  0
ARC
  5
2C1
330
1F
100
AcDbEntity
  8
PROFILES_INSIDE
100
AcDbCircle
 10
18.92016895
 20
17.4750759034
 30
0.0
 40
0.2035433070866166
100
AcDbArc
 50
155.1121265345
 51
342.3995496328
  0
ARC
  5
2C2
330
1F
100
AcDbEntity
  8
PROFILES_INSIDE
100
AcDbCircle
 10
18.699814176
 20
17.577304503
 30
0.0
 40
0.0393700787401556
100
AcDbArc
 50
335.1121265345
 51
0.0
  0
ARC
  5
2C3
330
1F
100
AcDbEntity
  8
PROFILES_INSIDE
100
AcDbCircle
 10
18.699814176
 20
17.8180704791
 30
0.0
 40
0.0393699915522561
100
AcDbArc
 50
0.0
 51
24.8878047833
  0
ARC
  5
2C4
330
1F
100
AcDbEntity
  8
PROFILES_INSIDE
100
AcDbCircle
 10
18.9201688838
 20
17.920298727
 30
0.0
 40
0.2035432239567102
100
AcDbArc
 50
17.6004832045
 51
204.8878047833
  0
ARC
  5
2C5
330
1F
100
AcDbEntity
  8
PROFILES_INSIDE
100
AcDbCircle
 10
19.1517110368
 20
17.9937503737
 30
0.0
 40
0.0393701618700621
100
AcDbArc
 50
197.6004832045
 51
270.0000788272
  0
ARC
  5
2C6
330
1F
100
AcDbEntity
  8
PROFILES_INSIDE
100
AcDbCircle
 10
3.5150132673
 20
17.8180699846
 30
0.0
 40
0.0393723196329002
100
AcDbArc
 50
155.1122431696
 51
180.0
  0
ARC
  5
2C7
330
1F
100
AcDbEntity
  8
PROFILES_INSIDE
100
AcDbCircle
 10
3.2946562524
 20
17.9202990787
 30
0.0
 40
0.2035433070866165
100
AcDbArc
 50
335.1122431696
 51
162.3995496328
  0
ARC
  5
2C8
330
1F
100
AcDbEntity
  8
PROFILES_INSIDE
100
AcDbCircle
 10
3.0631140572
 20
17.9937505927
 30
0.0
 40
0.0393700787401574
100
AcDbArc
 50
270.0000788272
 51
342.3995496328
  0
ARC
  5
2C9
330
1F
100
AcDbEntity
  8
PROFILES_INSIDE
100
AcDbCircle
 10
2.9039157612
 20
17.9937503737
 30
0.0
 40
0.039370124083743
100
AcDbArc
 50
197.6004832045
 51
270.0000788272
  0
ARC
  5
2CA
330
1F
100
AcDbEntity
  8
PROFILES_INSIDE
100
AcDbCircle
 10
2.6723736082
 20
17.920298727
 30
0.0
 40
0.2035432617430307
100
AcDbArc
 50
17.6004832045
 51
204.8878047833
  0
ARC
  5
2CB
330
1F
100
AcDbEntity
  8
PROFILES_INSIDE
100
AcDbCircle
 10
2.4520189004
 20
17.8180704791
 30
0.0
 40
0.0393699839949919
100
AcDbArc
 50
0.0
 51
24.8878047833
  0
ARC
  5
2CC
330
1F
100
AcDbEntity
  8
PROFILES_INSIDE
100
AcDbCircle
 10
2.4520189004
 20
17.577304503
 30
0.0
 40
0.0393700787401574
100
AcDbArc
 50
335.1121265345
 51
0.0
  0
ARC
  5
2CD
330
1F
100
AcDbEntity
  8
PROFILES_INSIDE
100
AcDbCircle
 10
2.6723736744
 20
17.4750759034
 30
0.0
 40
0.2035433070866158
100
AcDbArc
 50
155.1121265345
 51
342.3995496328
  0
ARC
  5
2CE
330
1F
100
AcDbEntity
  8
PROFILES_INSIDE
100
AcDbCircle
 10
2.9039158695
 20
17.4016243894
 30
0.0
 40
0.0393700787401609
100
AcDbArc
 50
90.0000788272
 51
162.3995496328
  0
ARC
  5
2CF
330
1F
100
AcDbEntity
  8
PROFILES_INSIDE
100
AcDbCircle
 10
3.0631141656
 20
17.4016246084
 30
0.0
 40
0.0393700787401609
100
AcDbArc
 50
17.6004832045
 51
90.0000788272
  0
ARC
  5
2D0
330
1F
100
AcDbEntity
  8
PROFILES_INSIDE
100
AcDbCircle
 10
3.2946563186
 20
17.4750762551
 30
0.0
 40
0.2035433070866164
100
AcDbArc
 50
197.6004832045
 51
24.8879105874
  0
ARC
  5
2D1
330
1F
100
AcDbEntity
  8
PROFILES_INSIDE
100
AcDbCircle
 10
3.5150110264
 20
17.5773049975
 30
0.0
 40
0.0393700787401619
100
AcDbArc
 50
180.0
 51
204.8879105874
  0
ARC
  5
2D2
330
1F
100
AcDbEntity
  8
PROFILES_INSIDE
100
AcDbCircle
 10
19.5424515942
 20
1.8018479086
 30
0.0
 40
0.2035433070866131
100
AcDbArc
 50
197.6004832045
 51
24.8879105874
  0
ARC
  5
2D3
330
1F
100
AcDbEntity
  8
PROFILES_INSIDE
100
AcDbCircle
 10
19.762806302
 20
1.904076651
 30
0.0
 40
0.0393700787401593
100
AcDbArc
 50
180.0
 51
204.8879105874
  0
ARC
  5
2D4
330
1F
100
AcDbEntity
  8
PROFILES_INSIDE
100
AcDbCircle
 10
19.7628085428
 20
2.1448416382
 30
0.0
 40
0.0393723196329048
100
AcDbArc
 50
155.1122431696
 51
180.0
  0
ARC
  5
2D5
330
1F
100
AcDbEntity
  8
PROFILES_INSIDE
100
AcDbCircle
 10
19.5424515279
 20
2.2470707323
 30
0.0
 40
0.2035433070866146
100
AcDbArc
 50
335.1122431696
 51
162.3995496328
  0
ARC
  5
2D6
330
1F
100
AcDbEntity
  8
PROFILES_INSIDE
100
AcDbCircle
 10
19.3109093328
 20
2.3205222462
 30
0.0
 40
0.03937007874016
100
AcDbArc
 50
270.0000788272
 51
342.3995496328
  0
ARC
  5
2D7
330
1F
100
AcDbEntity
  8
PROFILES_INSIDE
100
AcDbCircle
 10
19.1517110368
 20
2.3205220272
 30
0.0
 40
0.0393701165264688
100
AcDbArc
 50
197.6004832045
 51
270.0000788272
  0
ARC
  5
2D8
330
1F
100
AcDbEntity
  8
PROFILES_INSIDE
100
AcDbCircle
 10
18.9201688838
 20
2.2470703806
 30
0.0
 40
0.2035432693002989
100
AcDbArc
 50
17.6004832045
 51
204.8878047833
  0
ARC
  5
2D9
330
1F
100
AcDbEntity
  8
PROFILES_INSIDE
100
AcDbCircle
 10
18.699814176
 20
2.1448421326
 30
0.0
 40
0.0393699764377295
100
AcDbArc
 50
0.0
 51
24.8878047833
  0
ARC
  5
2DA
330
1F
100
AcDbEntity
  8
PROFILES_INSIDE
100
AcDbCircle
 10
18.699814176
 20
1.9040761565
 30
0.0
 40
0.0393700787401556
100
AcDbArc
 50
335.1121265345
 51
0.0
  0
ARC
  5
2DB
330
1F
100
AcDbEntity
  8
PROFILES_INSIDE
100
AcDbCircle
 10
18.92016895
 20
1.8018475569
 30
0.0
 40
0.2035433070866168
100
AcDbArc
 50
155.1121265345
 51
342.3995496328
  0
ARC
  5
2DC
330
1F
100
AcDbEntity
  8
PROFILES_INSIDE
100
AcDbCircle
 10
19.1517111451
 20
1.728396043
 30
0.0
 40
0.0393700787401598
100
AcDbArc
 50
90.0000788272
 51
162.3995496328
  0
ARC
  5
2DD
330
1F
100
AcDbEntity
  8
PROFILES_INSIDE
100
AcDbCircle
 10
19.3109094412
 20
1.728396262
 30
0.0
 40
0.0393700787401579
100
AcDbArc
 50
17.6004832045
 51
90.0000788272
  0
ARC
  5
2DE
330
1F
100
AcDbEntity
  8
PROFILES_INSIDE
100
AcDbCircle
 10
2.4520189004
 20
1.9040761565
 30
0.0
 40
0.0393700787401578
100
AcDbArc
 50
335.1121265345
 51
0.0
  0
ARC
  5
2DF
330
1F
100
AcDbEntity
  8
PROFILES_INSIDE
100
AcDbCircle
 10
2.6723736744
 20
1.8018475569
 30
0.0
 40
0.2035433070866143
100
AcDbArc
 50
155.1121265345
 51
342.3995496328
  0
ARC
  5
2E0
330
1F
100
AcDbEntity
  8
PROFILES_INSIDE
100
AcDbCircle
 10
2.9039158695
 20
1.728396043
 30
0.0
 40
0.0393700787401585
100
AcDbArc
 50
90.0000788272
 51
162.3995496328
  0
ARC
  5
2E1
330
1F
100
AcDbEntity
  8
PROFILES_INSIDE
100
AcDbCircle
 10
3.0631141656
 20
1.728396262
 30
0.0
 40
0.0393700787401554
100
AcDbArc
 50
17.6004832045
 51
90.0000788272
  0
ARC
  5
2E2
330
1F
100
AcDbEntity
  8
PROFILES_INSIDE
100
AcDbCircle
 10
3.2946563186
 20
1.8018479086
 30
0.0
 40
0.2035433070866186
100
AcDbArc
 50
197.6004832045
 51
24.8879105874
  0
ARC
  5
2E3
330
1F
100
AcDbEntity
  8
PROFILES_INSIDE
100
AcDbCircle
 10
3.5150110264
 20
1.904076651
 30
0.0
 40
0.0393700787401574
100
AcDbArc
 50
180.0
 51
204.8879105874
  0
ARC
  5
2E4
330
1F
100
AcDbEntity
  8
PROFILES_INSIDE
100
AcDbCircle
 10
3.5150132673
 20
2.1448416382
 30
0.0
 40
0.0393723196329006
100
AcDbArc
 50
155.1122431696
 51
180.0
  0
ARC
  5
2E5
330
1F
100
AcDbEntity
  8
PROFILES_INSIDE
100
AcDbCircle
 10
3.2946562524
 20
2.2470707323
 30
0.0
 40
0.2035433070866173
100
AcDbArc
 50
335.1122431696
 51
162.3995496328
  0
ARC
  5
2E6
330
1F
100
AcDbEntity
  8
PROFILES_INSIDE
100
AcDbCircle
 10
3.0631140572
 20
2.3205222462
 30
0.0
 40
0.0393700787401559
100
AcDbArc
 50
270.0000788272
 51
342.3995496328
  0
ARC
  5
2E7
330
1F
100
AcDbEntity
  8
PROFILES_INSIDE
100
AcDbCircle
 10
2.9039157612
 20
2.3205220272
 30
0.0
 40
0.0393700862974241
100
AcDbArc
 50
197.6004832045
 51
270.0000788272
  0
ARC
  5
2E8
330
1F
100
AcDbEntity
  8
PROFILES_INSIDE
100
AcDbCircle
 10
2.6723736082
 20
2.2470703806
 30
0.0
 40
0.2035432995293462
100
AcDbArc
 50
17.6004832045
 51
204.8878047833
  0
ARC
  5
2E9
330
1F
100
AcDbEntity
  8
PROFILES_INSIDE
100
AcDbCircle
 10
2.4520189004
 20
2.1448421326
 30
0.0
 40
0.0393699915522583
100
AcDbArc
 50
0.0
 51
24.8878047833
  0
ARC
  5
2EA
330
1F
100
AcDbEntity
  8
PROFILES_INSIDE
100
AcDbCircle
 10
40.3416179943
 20
17.9937505927
 30
0.0
 40
0.0393700787401586
100
AcDbArc
 50
270.0000788272
 51
342.3995496328
  0
ARC
  5
2EB
330
1F
100
AcDbEntity
  8
PROFILES_INSIDE
100
AcDbCircle
 10
40.5731601894
 20
17.9202990787
 30
0.0
 40
0.2035433070866187
100
AcDbArc
 50
335.1122431696
 51
162.3995496328
  0
ARC
  5
2EC
330
1F
100
AcDbEntity
  8
PROFILES_INSIDE
100
AcDbCircle
 10
40.7935172043
 20
17.8180699846
 30
0.0
 40
0.0393723196329034
100
AcDbArc
 50
155.1122431696
 51
180.0
  0
ARC
  5
2ED
330
1F
100
AcDbEntity
  8
PROFILES_INSIDE
100
AcDbCircle
 10
40.7935149634
 20
17.5773049975
 30
0.0
 40
0.0393700787401643
100
AcDbArc
 50
180.0
 51
204.8879105874
  0
ARC
  5
2EE
330
1F
100
AcDbEntity
  8
PROFILES_INSIDE
100
AcDbCircle
 10
40.5731602556
 20
17.4750762551
 30
0.0
 40
0.2035433070866177
100
AcDbArc
 50
197.6004832045
 51
24.8879105874
  0
ARC
  5
2EF
330
1F
100
AcDbEntity
  8
PROFILES_INSIDE
100
AcDbCircle
 10
40.3416181026
 20
17.4016246084
 30
0.0
 40
0.0393700787401574
100
AcDbArc
 50
17.6004832045
 51
90.0000788272
  0
ARC
  5
2F0
330
1F
100
AcDbEntity
  8
PROFILES_INSIDE
100
AcDbCircle
 10
40.1824198065
 20
17.4016243894
 30
0.0
 40
0.0393700787401586
100
AcDbArc
 50
90.0000788272
 51
162.3995496328
  0
ARC
  5
2F1
330
1F
100
AcDbEntity
  8
PROFILES_INSIDE
100
AcDbCircle
 10
39.9508776114
 20
17.4750759034
 30
0.0
 40
0.2035433070866161
100
AcDbArc
 50
155.1121265345
 51
342.3995496328
  0
ARC
  5
2F2
330
1F
100
AcDbEntity
  8
PROFILES_INSIDE
100
AcDbCircle
 10
39.7305228374
 20
17.577304503
 30
0.0
 40
0.0393700787401627
100
AcDbArc
 50
335.1121265345
 51
0.0
  0
ARC
  5
2F3
330
1F
100
AcDbEntity
  8
PROFILES_INSIDE
100
AcDbCircle
 10
39.7305228374
 20
17.8180704791
 30
0.0
 40
0.0393699915522632
100
AcDbArc
 50
0.0
 51
24.8878047833
  0
ARC
  5
2F4
330
1F
100
AcDbEntity
  8
PROFILES_INSIDE
100
AcDbCircle
 10
39.9508775452
 20
17.920298727
 30
0.0
 40
0.2035432239567102
100
AcDbArc
 50
17.6004832045
 51
204.8878047833
  0
ARC
  5
2F5
330
1F
100
AcDbEntity
  8
PROFILES_INSIDE
100
AcDbCircle
 10
40.1824196982
 20
17.9937503737
 30
0.0
 40
0.0393701618700621
100
AcDbArc
 50
197.6004832045
 51
270.0000788272
  0
ARC
  5
2F6
330
1F
100
AcDbEntity
  8
PROFILES_INSIDE
100
AcDbCircle
 10
24.5514148421
 20
17.8180699846
 30
0.0
 40
0.039372319632907
100
AcDbArc
 50
155.1122431696
 51
180.0
  0
ARC
  5
2F7
330
1F
100
AcDbEntity
  8
PROFILES_INSIDE
100
AcDbCircle
 10
24.3310578272
 20
17.9202990787
 30
0.0
 40
0.2035433070866194
100
AcDbArc
 50
335.1122431696
 51
162.3995496328
  0
ARC
  5
2F8
330
1F
100
AcDbEntity
  8
PROFILES_INSIDE
100
AcDbCircle
 10
24.0995156321
 20
17.9937505927
 30
0.0
 40
0.0393700787401609
100
AcDbArc
 50
270.0000788272
 51
342.3995496328
  0
ARC
  5
2F9
330
1F
100
AcDbEntity
  8
PROFILES_INSIDE
100
AcDbCircle
 10
23.940317336
 20
17.9937503737
 30
0.0
 40
0.0393701240837417
100
AcDbArc
 50
197.6004832045
 51
270.0000788272
  0
ARC
  5
2FA
330
1F
100
AcDbEntity
  8
PROFILES_INSIDE
100
AcDbCircle
 10
23.708775183
 20
17.920298727
 30
0.0
 40
0.2035432617430301
100
AcDbArc
 50
17.6004832045
 51
204.8878047833
  0
ARC
  5
2FB
330
1F
100
AcDbEntity
  8
PROFILES_INSIDE
100
AcDbCircle
 10
23.4884204752
 20
17.8180704791
 30
0.0
 40
0.039369983994991
100
AcDbArc
 50
0.0
 51
24.8878047833
  0
ARC
  5
2FC
330
1F
100
AcDbEntity
  8
PROFILES_INSIDE
100
AcDbCircle
 10
23.4884204752
 20
17.577304503
 30
0.0
 40
0.0393700787401556
100
AcDbArc
 50
335.1121265345
 51
0.0
  0
ARC
  5
2FD
330
1F
100
AcDbEntity
  8
PROFILES_INSIDE
100
AcDbCircle
 10
23.7087752492
 20
17.4750759034
 30
0.0
 40
0.2035433070866151
100
AcDbArc
 50
155.1121265345
 51
342.3995496328
  0
ARC
  5
2FE
330
1F
100
AcDbEntity
  8
PROFILES_INSIDE
100
AcDbCircle
 10
23.9403174443
 20
17.4016243894
 30
0.0
 40
0.0393700787401586
100
AcDbArc
 50
90.0000788272
 51
162.3995496328
  0
ARC
  5
2FF
330
1F
100
AcDbEntity
  8
PROFILES_INSIDE
100
AcDbCircle
 10
24.0995157404
 20
17.4016246084
 30
0.0
 40
0.0393700787401574
100
AcDbArc
 50
17.6004832045
 51
90.0000788272
  0
ARC
  5
300
330
1F
100
AcDbEntity
  8
PROFILES_INSIDE
100
AcDbCircle
 10
24.3310578934
 20
17.4750762551
 30
0.0
 40
0.2035433070866177
100
AcDbArc
 50
197.6004832045
 51
24.8879105874
  0
ARC
  5
301
330
1F
100
AcDbEntity
  8
PROFILES_INSIDE
100
AcDbCircle
 10
24.5514126012
 20
17.5773049975
 30
0.0
 40
0.0393700787401592
100
AcDbArc
 50
180.0
 51
204.8879105874
  0
ARC
  5
302
330
1F
100
AcDbEntity
  8
PROFILES_INSIDE
100
AcDbCircle
 10
40.5731602556
 20
1.8018479086
 30
0.0
 40
0.2035433070866152
100
AcDbArc
 50
197.6004832045
 51
24.8879105874
  0
ARC
  5
303
330
1F
100
AcDbEntity
  8
PROFILES_INSIDE
100
AcDbCircle
 10
40.7935149634
 20
1.904076651
 30
0.0
 40
0.039370078740164
100
AcDbArc
 50
180.0
 51
204.8879105874
  0
ARC
  5
304
330
1F
100
AcDbEntity
  8
PROFILES_INSIDE
100
AcDbCircle
 10
40.7935172043
 20
2.1448416382
 30
0.0
 40
0.0393723196329034
100
AcDbArc
 50
155.1122431696
 51
180.0
  0
ARC
  5
305
330
1F
100
AcDbEntity
  8
PROFILES_INSIDE
100
AcDbCircle
 10
40.5731601894
 20
2.2470707323
 30
0.0
 40
0.2035433070866178
100
AcDbArc
 50
335.1122431696
 51
162.3995496328
  0
ARC
  5
306
330
1F
100
AcDbEntity
  8
PROFILES_INSIDE
100
AcDbCircle
 10
40.3416179943
 20
2.3205222462
 30
0.0
 40
0.0393700787401596
100
AcDbArc
 50
270.0000788272
 51
342.3995496328
  0
ARC
  5
307
330
1F
100
AcDbEntity
  8
PROFILES_INSIDE
100
AcDbCircle
 10
40.1824196982
 20
2.3205220272
 30
0.0
 40
0.0393701165264721
100
AcDbArc
 50
197.6004832045
 51
270.0000788272
  0
ARC
  5
308
330
1F
100
AcDbEntity
  8
PROFILES_INSIDE
100
AcDbCircle
 10
39.9508775452
 20
2.2470703806
 30
0.0
 40
0.2035432693003002
100
AcDbArc
 50
17.6004832045
 51
204.8878047833
  0
ARC
  5
309
330
1F
100
AcDbEntity
  8
PROFILES_INSIDE
100
AcDbCircle
 10
39.7305228374
 20
2.1448421326
 30
0.0
 40
0.039369976437726
100
AcDbArc
 50
0.0
 51
24.8878047833
  0
ARC
  5
30A
330
1F
100
AcDbEntity
  8
PROFILES_INSIDE
100
AcDbCircle
 10
39.7305228374
 20
1.9040761565
 30
0.0
 40
0.039370078740159
100
AcDbArc
 50
335.1121265345
 51
0.0
  0
ARC
  5
30B
330
1F
100
AcDbEntity
  8
PROFILES_INSIDE
100
AcDbCircle
 10
39.9508776114
 20
1.8018475569
 30
0.0
 40
0.2035433070866168
100
AcDbArc
 50
155.1121265345
 51
342.3995496328
  0
ARC
  5
30C
330
1F
100
AcDbEntity
  8
PROFILES_INSIDE
100
AcDbCircle
 10
40.1824198065
 20
1.728396043
 30
0.0
 40
0.0393700787401585
100
AcDbArc
 50
90.0000788272
 51
162.3995496328
  0
ARC
  5
30D
330
1F
100
AcDbEntity
  8
PROFILES_INSIDE
100
AcDbCircle
 10
40.3416181026
 20
1.728396262
 30
0.0
 40
0.0393700787401598
100
AcDbArc
 50
17.6004832045
 51
90.0000788272
  0
ARC
  5
30E
330
1F
100
AcDbEntity
  8
PROFILES_INSIDE
100
AcDbCircle
 10
23.4884204752
 20
1.9040761565
 30
0.0
 40
0.0393700787401627
100
AcDbArc
 50
335.1121265345
 51
0.0
  0
ARC
  5
30F
330
1F
100
AcDbEntity
  8
PROFILES_INSIDE
100
AcDbCircle
 10
23.7087752492
 20
1.8018475569
 30
0.0
 40
0.2035433070866168
100
AcDbArc
 50
155.1121265345
 51
342.3995496328
  0
ARC
  5
310
330
1F
100
AcDbEntity
  8
PROFILES_INSIDE
100
AcDbCircle
 10
23.9403174443
 20
1.728396043
 30
0.0
 40
0.0393700787401584
100
AcDbArc
 50
90.0000788272
 51
162.3995496328
  0
ARC
  5
311
330
1F
100
AcDbEntity
  8
PROFILES_INSIDE
100
AcDbCircle
 10
24.0995157404
 20
1.728396262
 30
0.0
 40
0.0393700787401613
100
AcDbArc
 50
17.6004832045
 51
90.0000788272
  0
ARC
  5
312
330
1F
100
AcDbEntity
  8
PROFILES_INSIDE
100
AcDbCircle
 10
24.3310578934
 20
1.8018479086
 30
0.0
 40
0.2035433070866131
100
AcDbArc
 50
197.6004832045
 51
24.8879105874
  0
ARC
  5
313
330
1F
100
AcDbEntity
  8
PROFILES_INSIDE
100
AcDbCircle
 10
24.5514126012
 20
1.904076651
 30
0.0
 40
0.0393700787401627
100
AcDbArc
 50
180.0
 51
204.8879105874
  0
ARC
  5
314
330
1F
100
AcDbEntity
  8
PROFILES_INSIDE
100
AcDbCircle
 10
24.5514148421
 20
2.1448416382
 30
0.0
 40
0.0393723196328999
100
AcDbArc
 50
155.1122431696
 51
180.0
  0
ARC
  5
315
330
1F
100
AcDbEntity
  8
PROFILES_INSIDE
100
AcDbCircle
 10
24.3310578272
 20
2.2470707323
 30
0.0
 40
0.2035433070866178
100
AcDbArc
 50
335.1122431696
 51
162.3995496328
  0
ARC
  5
316
330
1F
100
AcDbEntity
  8
PROFILES_INSIDE
100
AcDbCircle
 10
24.0995156321
 20
2.3205222462
 30
0.0
 40
0.0393700787401551
100
AcDbArc
 50
270.0000788272
 51
342.3995496328
  0
ARC
  5
317
330
1F
100
AcDbEntity
  8
PROFILES_INSIDE
100
AcDbCircle
 10
23.940317336
 20
2.3205220272
 30
0.0
 40
0.0393700862974205
100
AcDbArc
 50
197.6004832045
 51
270.0000788272
  0
ARC
  5
318
330
1F
100
AcDbEntity
  8
PROFILES_INSIDE
100
AcDbCircle
 10
23.708775183
 20
2.2470703806
 30
0.0
 40
0.2035432995293505
100
AcDbArc
 50
17.6004832045
 51
204.8878047833
  0
ARC
  5
319
330
1F
100
AcDbEntity
  8
PROFILES_INSIDE
100
AcDbCircle
 10
23.4884204752
 20
2.1448421326
 30
0.0
 40
0.0393699915522596
100
AcDbArc
 50
0.0
 51
24.8878047833
  0
ARC
  5
31A
330
1F
100
AcDbEntity
  8
PROFILES_OUTSIDE
100
AcDbCircle
 10
22.2885149634
 20
18.3020181997
 30
0.0
 40
0.2362204724409445
100
AcDbArc
 50
90.0
 51
180.0
  0
ARC
  5
31B
330
1F
100
AcDbEntity
  8
PROFILES_OUTSIDE
100
AcDbCircle
 10
41.6074126012
 20
18.3020181997
 30
0.0
 40
0.236220472440948
100
AcDbArc
 50
0.0
 51
90.0
  0
ARC
  5
31C
330
1F
100
AcDbEntity
  8
PROFILES_OUTSIDE
100
AcDbCircle
 10
41.6074126012
 20
1.4201284359
 30
0.0
 40
0.236220472440948
100
AcDbArc
 50
270.0
 51
0.0
  0
ARC
  5
31D
330
1F
100
AcDbEntity
  8
PROFILES_OUTSIDE
100
AcDbCircle
 10
22.2885149634
 20
1.4201284359
 30
0.0
 40
0.2362204724409451
100
AcDbArc
 50
180.0
 51
270.0
  0
ARC
  5
31E
330
1F
100
AcDbEntity
  8
PROFILES_OUTSIDE
100
AcDbCircle
 10
84.2015070894
 20
17.9435930029
 30
0.0
 40
0.472440944881896
100
AcDbArc
 50
90.0
 51
180.0
  0
ARC
  5
31F
330
1F
100
AcDbEntity
  8
PROFILES_OUTSIDE
100
AcDbCircle
 10
84.2015070894
 20
2.640679617
 30
0.0
 40
0.4724409448819102
100
AcDbArc
 50
180.0
 51
270.0
  0
ARC
  5
320
330
1F
100
AcDbEntity
  8
PROFILES_OUTSIDE
100
AcDbCircle
 10
89.8294598453
 20
1.4694197745
 30
0.0
 40
0.039370078740177
100
AcDbArc
 50
270.0
 51
0.0
  0
ARC
  5
321
330
1F
100
AcDbEntity
  8
PROFILES_OUTSIDE
100
AcDbCircle
 10
74.6285955109
 20
18.9475300107
 30
0.0
 40
0.0393700787401592
100
AcDbArc
 50
183.6619355755
 51
270.0
  0
ARC
  5
322
330
1F
100
AcDbEntity
  8
PROFILES_OUTSIDE
100
AcDbCircle
 10
74.9687402239
 20
18.8687898533
 30
0.0
 40
0.0393700787401556
100
AcDbArc
 50
65.1121079736
 51
90.0
  0
ARC
  5
323
330
1F
100
AcDbEntity
  8
PROFILES_OUTSIDE
100
AcDbCircle
 10
75.0709688949
 20
19.0891445942
 30
0.0
 40
0.2035433070866173
100
AcDbArc
 50
245.1121079736
 51
72.3995332141
  0
ARC
  5
324
330
1F
100
AcDbEntity
  8
PROFILES_OUTSIDE
100
AcDbCircle
 10
75.1444204752
 20
19.3206867682
 30
0.0
 40
0.0393700787401627
100
AcDbArc
 50
180.0
 51
252.3995332141
  0
ARC
  5
325
330
1F
100
AcDbEntity
  8
PROFILES_OUTSIDE
100
AcDbCircle
 10
80.5381212626
 20
18.9279237115
 30
0.0
 40
0.4724409448818925
100
AcDbArc
 50
0.0
 51
90.0
  0
ARC
  5
326
330
1F
100
AcDbEntity
  8
PROFILES_OUTSIDE
100
AcDbCircle
 10
81.4830031524
 20
13.6431730554
 30
0.0
 40
0.4724409448819102
100
AcDbArc
 50
180.0
 51
270.0
  0
ARC
  5
327
330
1F
100
AcDbEntity
  8
PROFILES_OUTSIDE
100
AcDbCircle
 10
82.5066251996
 20
13.6431730554
 30
0.0
 40
0.472440944881896
100
AcDbArc
 50
270.0
 51
0.0
  0
ARC
  5
328
330
1F
100
AcDbEntity
  8
PROFILES_OUTSIDE
100
AcDbCircle
 10
83.4515070894
 20
18.9279237115
 30
0.0
 40
0.472440944881896
100
AcDbArc
 50
90.0
 51
180.0
  0
ARC
  5
329
330
1F
100
AcDbEntity
  8
PROFILES_OUTSIDE
100
AcDbCircle
 10
88.8452078768
 20
19.3206867682
 30
0.0
 40
0.0393700787401492
100
AcDbArc
 50
287.6004667858
 51
0.0
  0
ARC
  5
32A
330
1F
100
AcDbEntity
  8
PROFILES_OUTSIDE
100
AcDbCircle
 10
88.9186594571
 20
19.0891445942
 30
0.0
 40
0.2035433070866204
100
AcDbArc
 50
107.6004667859
 51
294.8878920264
  0
ARC
  5
32B
330
1F
100
AcDbEntity
  8
PROFILES_OUTSIDE
100
AcDbCircle
 10
89.0208881281
 20
18.8687898533
 30
0.0
 40
0.0393700787401556
100
AcDbArc
 50
90.0
 51
114.8878920264
  0
ARC
  5
32C
330
1F
100
AcDbEntity
  8
PROFILES_OUTSIDE
100
AcDbCircle
 10
89.361032841
 20
18.9475300107
 30
0.0
 40
0.039370078740159
100
AcDbArc
 50
270.0
 51
356.3380644245
  0
ARC
  5
32D
330
1F
100
AcDbEntity
  8
PROFILES_OUTSIDE
100
AcDbCircle
 10
89.6326094516
 20
18.6522544202
 30
0.0
 40
0.2362204724409622
100
AcDbArc
 50
270.0
 51
0.0
  0
ARC
  5
32E
330
1F
100
AcDbEntity
  8
PROFILES_OUTSIDE
100
AcDbCircle
 10
74.1601685067
 20
1.4694197745
 30
0.0
 40
0.0393700787401574
100
AcDbArc
 50
180.0
 51
270.0
  0
ARC
  5
32F
330
1F
100
AcDbEntity
  8
PROFILES_OUTSIDE
100
AcDbCircle
 10
82.9790661445
 20
13.1707321105
 30
0.0
 40
0.75
100
AcDbArc
 50
300.0
 51
0.0
  0
ARC
  5
330
330
1F
100
AcDbEntity
  8
PROFILES_OUTSIDE
100
AcDbCircle
 10
83.7290661445
 20
11.8716940048
 30
0.0
 40
0.75
100
AcDbArc
 50
120.0
 51
180.0
  0
ARC
  5
331
330
1F
100
AcDbEntity
  8
PROFILES_OUTSIDE
100
AcDbCircle
 10
83.7290661445
 20
8.7125786151
 30
0.0
 40
0.7499999999999986
100
AcDbArc
 50
180.0
 51
240.0
  0
ARC
  5
332
330
1F
100
AcDbEntity
  8
PROFILES_OUTSIDE
100
AcDbCircle
 10
82.9790661445
 20
7.4135405094
 30
0.0
 40
0.75
100
AcDbArc
 50
0.0
 51
60.0
  0
ARC
  5
333
330
1F
100
AcDbEntity
  8
PROFILES_OUTSIDE
100
AcDbCircle
 10
89.6326094516
 20
1.9320181997
 30
0.0
 40
0.2362204724409622
100
AcDbArc
 50
0.0
 51
90.0
  0
ARC
  5
334
330
1F
100
AcDbEntity
  8
PROFILES_OUTSIDE
100
AcDbCircle
 10
79.7881212626
 20
2.640679617
 30
0.0
 40
0.472440944881896
100
AcDbArc
 50
270.0
 51
0.0
  0
ARC
  5
335
330
1F
100
AcDbEntity
  8
PROFILES_OUTSIDE
100
AcDbCircle
 10
89.361032841
 20
1.6367426092
 30
0.0
 40
0.039370078740159
100
AcDbArc
 50
3.6619355755
 51
90.0
  0
ARC
  5
336
330
1F
100
AcDbEntity
  8
PROFILES_OUTSIDE
100
AcDbCircle
 10
89.0208881281
 20
1.7154827666
 30
0.0
 40
0.039370078740161
100
AcDbArc
 50
245.1121079736
 51
270.0
  0
ARC
  5
337
330
1F
100
AcDbEntity
  8
PROFILES_OUTSIDE
100
AcDbCircle
 10
88.9186594571
 20
1.4951280257
 30
0.0
 40
0.2035433070866162
100
AcDbArc
 50
65.1121079736
 51
252.3995332141
  0
ARC
  5
338
330
1F
100
AcDbEntity
  8
PROFILES_OUTSIDE
100
AcDbCircle
 10
88.8452078768
 20
1.2635858517
 30
0.0
 40
0.0393700787401519
100
AcDbArc
 50
0.0
 51
72.3995332142
  0
ARC
  5
339
330
1F
100
AcDbEntity
  8
PROFILES_OUTSIDE
100
AcDbCircle
 10
83.4515070894
 20
1.6563489084
 30
0.0
 40
0.472440944881896
100
AcDbArc
 50
180.0
 51
270.0
  0
ARC
  5
33A
330
1F
100
AcDbEntity
  8
PROFILES_OUTSIDE
100
AcDbCircle
 10
82.5066251996
 20
6.9410995645
 30
0.0
 40
0.472440944881896
100
AcDbArc
 50
0.0
 51
90.0
  0
ARC
  5
33B
330
1F
100
AcDbEntity
  8
PROFILES_OUTSIDE
100
AcDbCircle
 10
81.4830031524
 20
6.9410995645
 30
0.0
 40
0.4724409448819102
100
AcDbArc
 50
90.0
 51
180.0
  0
ARC
  5
33C
330
1F
100
AcDbEntity
  8
PROFILES_OUTSIDE
100
AcDbCircle
 10
80.5381212626
 20
1.6563489084
 30
0.0
 40
0.4724409448818903
100
AcDbArc
 50
270.0
 51
0.0
  0
ARC
  5
33D
330
1F
100
AcDbEntity
  8
PROFILES_OUTSIDE
100
AcDbCircle
 10
75.1444204752
 20
1.2635858517
 30
0.0
 40
0.0393700787401562
100
AcDbArc
 50
107.6004667859
 51
180.0
  0
ARC
  5
33E
330
1F
100
AcDbEntity
  8
PROFILES_OUTSIDE
100
AcDbCircle
 10
75.0709688949
 20
1.4951280257
 30
0.0
 40
0.20354330708662
100
AcDbArc
 50
287.6004667859
 51
114.8878920264
  0
ARC
  5
33F
330
1F
100
AcDbEntity
  8
PROFILES_OUTSIDE
100
AcDbCircle
 10
74.9687402239
 20
1.7154827666
 30
0.0
 40
0.0393700787401572
100
AcDbArc
 50
270.0
 51
294.8878920264
  0
ARC
  5
340
330
1F
100
AcDbEntity
  8
PROFILES_OUTSIDE
100
AcDbCircle
 10
74.6285955109
 20
1.6367426092
 30
0.0
 40
0.039370078740159
100
AcDbArc
 50
90.0
 51
176.3380644245
  0
ARC
  5
341
330
1F
100
AcDbEntity
  8
PROFILES_OUTSIDE
100
AcDbCircle
 10
74.3570189004
 20
1.9320181997
 30
0.0
 40
0.236220472440948
100
AcDbArc
 50
90.0
 51
180.0
  0
ARC
  5
342
330
1F
100
AcDbEntity
  8
PROFILES_OUTSIDE
100
AcDbCircle
 10
79.7881212626
 20
17.9435930029
 30
0.0
 40
0.472440944881896
100
AcDbArc
 50
0.0
 51
90.0
  0
ARC
  5
343
330
1F
100
AcDbEntity
  8
PROFILES_OUTSIDE
100
AcDbCircle
 10
81.0105622075
 20
7.4135405094
 30
0.0
 40
0.7499999999999944
100
AcDbArc
 50
120.0
 51
180.0
  0
ARC
  5
344
330
1F
100
AcDbEntity
  8
PROFILES_OUTSIDE
100
AcDbCircle
 10
80.2605622075
 20
8.7125786151
 30
0.0
 40
0.7499999999999954
100
AcDbArc
 50
300.0
 51
0.0
  0
ARC
  5
345
330
1F
100
AcDbEntity
  8
PROFILES_OUTSIDE
100
AcDbCircle
 10
80.2605622075
 20
11.8716940048
 30
0.0
 40
0.7499999999999929
100
AcDbArc
 50
0.0
 51
60.0
  0
ARC
  5
346
330
1F
100
AcDbEntity
  8
PROFILES_OUTSIDE
100
AcDbCircle
 10
81.0105622075
 20
13.1707321105
 30
0.0
 40
0.7499999999999986
100
AcDbArc
 50
180.0
 51
240.0
  0
ARC
  5
347
330
1F
100
AcDbEntity
  8
PROFILES_OUTSIDE
100
AcDbCircle
 10
74.3570189004
 20
18.6522544202
 30
0.0
 40
0.236220472440948
100
AcDbArc
 50
180.0
 51
270.0
  0
ARC
  5
348
330
1F
100
AcDbEntity
  8
PROFILES_OUTSIDE
100
AcDbCircle
 10
74.1601685067
 20
19.1148528454
 30
0.0
 40
0.0393700787401592
100
AcDbArc
 50
90.0
 51
180.0
  0
ARC
  5
349
330
1F
100
AcDbEntity
  8
PROFILES_OUTSIDE
100
AcDbCircle
 10
74.1601685067
 20
20.9250890659
 30
0.0
 40
0.0393700787401627
100
AcDbArc
 50
180.0
 51
270.0
  0
ARC
  5
34A
330
1F
100
AcDbEntity
  8
PROFILES_OUTSIDE
100
AcDbCircle
 10
79.7881212626
 20
22.0963489084
 30
0.0
 40
0.4724409448818889
100
AcDbArc
 50
270.0
 51
0.0
  0
ARC
  5
34B
330
1F
100
AcDbEntity
  8
PROFILES_OUTSIDE
100
AcDbCircle
 10
79.7881212626
 20
37.3992622942
 30
0.0
 40
0.4724409448819031
100
AcDbArc
 50
0.0
 51
90.0
  0
ARC
  5
34C
330
1F
100
AcDbEntity
  8
PROFILES_OUTSIDE
100
AcDbCircle
 10
74.1601685067
 20
38.5705221367
 30
0.0
 40
0.0393700787401627
100
AcDbArc
 50
90.0
 51
180.0
  0
ARC
  5
34D
330
1F
100
AcDbEntity
  8
PROFILES_OUTSIDE
100
AcDbCircle
 10
89.361032841
 20
21.0924119005
 30
0.0
 40
0.0393700787401627
100
AcDbArc
 50
3.6619355755
 51
90.0
  0
ARC
  5
34E
330
1F
100
AcDbEntity
  8
PROFILES_OUTSIDE
100
AcDbCircle
 10
89.0208881281
 20
21.171152058
 30
0.0
 40
0.0393700787401556
100
AcDbArc
 50
245.1121079736
 51
270.0
  0
ARC
  5
34F
330
1F
100
AcDbEntity
  8
PROFILES_OUTSIDE
100
AcDbCircle
 10
88.9186594571
 20
20.9507973171
 30
0.0
 40
0.2035433070866207
100
AcDbArc
 50
65.1121079736
 51
252.3995332141
  0
ARC
  5
350
330
1F
100
AcDbEntity
  8
PROFILES_OUTSIDE
100
AcDbCircle
 10
88.8452078768
 20
20.719255143
 30
0.0
 40
0.0393700787401627
100
AcDbArc
 50
0.0
 51
72.3995332141
  0
ARC
  5
351
330
1F
100
AcDbEntity
  8
PROFILES_OUTSIDE
100
AcDbCircle
 10
83.4515070894
 20
21.1120181997
 30
0.0
 40
0.4724409448819102
100
AcDbArc
 50
180.0
 51
270.0
  0
ARC
  5
352
330
1F
100
AcDbEntity
  8
PROFILES_OUTSIDE
100
AcDbCircle
 10
82.5066251996
 20
26.3967688559
 30
0.0
 40
0.4724409448818854
100
AcDbArc
 50
0.0
 51
90.0
  0
ARC
  5
353
330
1F
100
AcDbEntity
  8
PROFILES_OUTSIDE
100
AcDbCircle
 10
81.4830031524
 20
26.3967688559
 30
0.0
 40
0.472440944881896
100
AcDbArc
 50
90.0
 51
180.0
  0
ARC
  5
354
330
1F
100
AcDbEntity
  8
PROFILES_OUTSIDE
100
AcDbCircle
 10
80.5381212626
 20
21.1120181997
 30
0.0
 40
0.4724409448818925
100
AcDbArc
 50
270.0
 51
0.0
  0
ARC
  5
355
330
1F
100
AcDbEntity
  8
PROFILES_OUTSIDE
100
AcDbCircle
 10
75.1444204752
 20
20.719255143
 30
0.0
 40
0.0393700787401535
100
AcDbArc
 50
107.6004667859
 51
180.0
  0
ARC
  5
356
330
1F
100
AcDbEntity
  8
PROFILES_OUTSIDE
100
AcDbCircle
 10
75.0709688949
 20
20.9507973171
 30
0.0
 40
0.2035433070866207
100
AcDbArc
 50
287.6004667859
 51
114.8878920264
  0
ARC
  5
357
330
1F
100
AcDbEntity
  8
PROFILES_OUTSIDE
100
AcDbCircle
 10
74.9687402239
 20
21.171152058
 30
0.0
 40
0.0393700787401641
100
AcDbArc
 50
270.0
 51
294.8878920264
  0
ARC
  5
358
330
1F
100
AcDbEntity
  8
PROFILES_OUTSIDE
100
AcDbCircle
 10
74.6285955109
 20
21.0924119005
 30
0.0
 40
0.0393700787401588
100
AcDbArc
 50
90.0
 51
176.3380644245
  0
ARC
  5
359
330
1F
100
AcDbEntity
  8
PROFILES_OUTSIDE
100
AcDbCircle
 10
74.3570189004
 20
21.387687491
 30
0.0
 40
0.236220472440948
100
AcDbArc
 50
90.0
 51
180.0
  0
ARC
  5
35A
330
1F
100
AcDbEntity
  8
PROFILES_OUTSIDE
100
AcDbCircle
 10
89.8294598453
 20
38.5705221367
 30
0.0
 40
0.0393700787401627
100
AcDbArc
 50
0.0
 51
90.0
  0
ARC
  5
35B
330
1F
100
AcDbEntity
  8
PROFILES_OUTSIDE
100
AcDbCircle
 10
81.0105622075
 20
26.8692098008
 30
0.0
 40
0.75
100
AcDbArc
 50
120.0
 51
180.0
  0
ARC
  5
35C
330
1F
100
AcDbEntity
  8
PROFILES_OUTSIDE
100
AcDbCircle
 10
80.2605622075
 20
28.1682479064
 30
0.0
 40
0.75
100
AcDbArc
 50
300.0
 51
0.0
  0
ARC
  5
35D
330
1F
100
AcDbEntity
  8
PROFILES_OUTSIDE
100
AcDbCircle
 10
80.2605622075
 20
31.3273632961
 30
0.0
 40
0.75
100
AcDbArc
 50
0.0
 51
60.0
  0
ARC
  5
35E
330
1F
100
AcDbEntity
  8
PROFILES_OUTSIDE
100
AcDbCircle
 10
81.0105622075
 20
32.6264014018
 30
0.0
 40
0.75
100
AcDbArc
 50
180.0
 51
240.0
  0
ARC
  5
35F
330
1F
100
AcDbEntity
  8
PROFILES_OUTSIDE
100
AcDbCircle
 10
74.3570189004
 20
38.1079237115
 30
0.0
 40
0.236220472440948
100
AcDbArc
 50
180.0
 51
270.0
  0
ARC
  5
360
330
1F
100
AcDbEntity
  8
PROFILES_OUTSIDE
100
AcDbCircle
 10
84.2015070894
 20
37.3992622942
 30
0.0
 40
0.472440944881896
100
AcDbArc
 50
90.0
 51
180.0
  0
ARC
  5
361
330
1F
100
AcDbEntity
  8
PROFILES_OUTSIDE
100
AcDbCircle
 10
74.6285955109
 20
38.4031993021
 30
0.0
 40
0.039370078740159
100
AcDbArc
 50
183.6619355755
 51
270.0
  0
ARC
  5
362
330
1F
100
AcDbEntity
  8
PROFILES_OUTSIDE
100
AcDbCircle
 10
74.9687402239
 20
38.3244591446
 30
0.0
 40
0.0393700787401576
100
AcDbArc
 50
65.1121079736
 51
90.0
  0
ARC
  5
363
330
1F
100
AcDbEntity
  8
PROFILES_OUTSIDE
100
AcDbCircle
 10
75.0709688949
 20
38.5448138855
 30
0.0
 40
0.2035433070866173
100
AcDbArc
 50
245.1121079736
 51
72.3995332141
  0
ARC
  5
364
330
1F
100
AcDbEntity
  8
PROFILES_OUTSIDE
100
AcDbCircle
 10
75.1444204752
 20
38.7763560595
 30
0.0
 40
0.0393700787401627
100
AcDbArc
 50
180.0
 51
252.3995332141
  0
ARC
  5
365
330
1F
100
AcDbEntity
  8
PROFILES_OUTSIDE
100
AcDbCircle
 10
80.5381212626
 20
38.3835930029
 30
0.0
 40
0.4724409448818889
100
AcDbArc
 50
0.0
 51
90.0
  0
ARC
  5
366
330
1F
100
AcDbEntity
  8
PROFILES_OUTSIDE
100
AcDbCircle
 10
81.4830031524
 20
33.0988423467
 30
0.0
 40
0.472440944881896
100
AcDbArc
 50
180.0
 51
270.0
  0
ARC
  5
367
330
1F
100
AcDbEntity
  8
PROFILES_OUTSIDE
100
AcDbCircle
 10
82.5066251996
 20
33.0988423467
 30
0.0
 40
0.4724409448818889
100
AcDbArc
 50
270.0
 51
0.0
  0
ARC
  5
368
330
1F
100
AcDbEntity
  8
PROFILES_OUTSIDE
100
AcDbCircle
 10
83.4515070894
 20
38.3835930029
 30
0.0
 40
0.4724409448819102
100
AcDbArc
 50
90.0
 51
180.0
  0
ARC
  5
369
330
1F
100
AcDbEntity
  8
PROFILES_OUTSIDE
100
AcDbCircle
 10
88.8452078768
 20
38.7763560595
 30
0.0
 40
0.0393700787401627
100
AcDbArc
 50
287.6004667859
 51
0.0
  0
ARC
  5
36A
330
1F
100
AcDbEntity
  8
PROFILES_OUTSIDE
100
AcDbCircle
 10
88.9186594571
 20
38.5448138855
 30
0.0
 40
0.2035433070866198
100
AcDbArc
 50
107.6004667859
 51
294.8878920264
  0
ARC
  5
36B
330
1F
100
AcDbEntity
  8
PROFILES_OUTSIDE
100
AcDbCircle
 10
89.0208881281
 20
38.3244591446
 30
0.0
 40
0.0393700787401556
100
AcDbArc
 50
90.0
 51
114.8878920264
  0
ARC
  5
36C
330
1F
100
AcDbEntity
  8
PROFILES_OUTSIDE
100
AcDbCircle
 10
89.361032841
 20
38.4031993021
 30
0.0
 40
0.0393700787401556
100
AcDbArc
 50
270.0
 51
356.3380644245
  0
ARC
  5
36D
330
1F
100
AcDbEntity
  8
PROFILES_OUTSIDE
100
AcDbCircle
 10
89.6326094516
 20
38.1079237115
 30
0.0
 40
0.236220472440948
100
AcDbArc
 50
270.0
 51
0.0
  0
ARC
  5
36E
330
1F
100
AcDbEntity
  8
PROFILES_OUTSIDE
100
AcDbCircle
 10
84.2015070894
 20
22.0963489084
 30
0.0
 40
0.4724409448819102
100
AcDbArc
 50
180.0
 51
270.0
  0
ARC
  5
36F
330
1F
100
AcDbEntity
  8
PROFILES_OUTSIDE
100
AcDbCircle
 10
82.9790661445
 20
32.6264014018
 30
0.0
 40
0.75
100
AcDbArc
 50
300.0
 51
0.0
  0
ARC
  5
370
330
1F
100
AcDbEntity
  8
PROFILES_OUTSIDE
100
AcDbCircle
 10
83.7290661445
 20
31.3273632961
 30
0.0
 40
0.75
100
AcDbArc
 50
120.0
 51
180.0
  0
ARC
  5
371
330
1F
100
AcDbEntity
  8
PROFILES_OUTSIDE
100
AcDbCircle
 10
83.7290661445
 20
28.1682479064
 30
0.0
 40
0.75
100
AcDbArc
 50
180.0
 51
240.0
  0
ARC
  5
372
330
1F
100
AcDbEntity
  8
PROFILES_OUTSIDE
100
AcDbCircle
 10
82.9790661445
 20
26.8692098008
 30
0.0
 40
0.75
100
AcDbArc
 50
0.0
 51
60.0
  0
ARC
  5
373
330
1F
100
AcDbEntity
  8
PROFILES_OUTSIDE
100
AcDbCircle
 10
89.6326094516
 20
21.387687491
 30
0.0
 40
0.2362204724409445
100
AcDbArc
 50
0.0
 51
90.0
  0
ARC
  5
374
330
1F
100
AcDbEntity
  8
PROFILES_OUTSIDE
100
AcDbCircle
 10
89.8294598453
 20
20.9250890659
 30
0.0
 40
0.0393700787401556
100
AcDbArc
 50
270.0
 51
0.0
  0
ENDSEC
  0
SECTION
  2
OBJECTS
  0
DICTIONARY
  5
C
330
0
100
AcDbDictionary
  3
ACAD_GROUP
350
D
  3
ACAD_MLINESTYLE
350
17
  3
ACAD_SCALELIST
350
47
  0
DICTIONARY
  5
D
102
{ACAD_REACTORS
330
C
102
}
330
C
100
AcDbDictionary
  0
DICTIONARY
  5
17
102
{ACAD_REACTORS
330
C
102
}
330
C
100
AcDbDictionary
  3
STANDARD
350
18
  0
DICTIONARY
  5
47
102
{ACAD_REACTORS
330
C
102
}
330
C
100
AcDbDictionary
  0
MLINESTYLE
  5
18
102
{ACAD_REACTORS
330
17
102
}
330
17
100
AcDbMlineStyle
  2
Standard
 70
     0
  3

 62
   256
 51
90.0
 52
90.0
 71
     2
 49
0.5
 62
   256
  6
BYLAYER
 49
-0.5
 62
   256
  6
BYLAYER
  0
ENDSEC
  0
EOF
