  0
SECTION
  2
HEADER
  9
$ACADVER
  1
AC1014
  9
$ACADMAINTVER
 70
     9
  9
$DWGCODEPAGE
  3
ANSI_1252
  9
$INSBASE
 10
0.0
 20
0.0
 30
0.0
  9
$EXTMIN
 10
0.0
 20
0.0
 30
0.0
  9
$EXTMAX
 10
96.062992126
 20
48.031496063
 30
0.0
  9
$LIMMIN
 10
0.0
 20
0.0
  9
$LIMMAX
 10
96.062992126
 20
48.031496063
  9
$ORTHOMODE
 70
     0
  9
$REGENMODE
 70
     1
  9
$FILLMODE
 70
     1
  9
$QTEXTMODE
 70
     0
  9
$MIRRTEXT
 70
     1
  9
$DRAGMODE
 70
     2
  9
$LTSCALE
 40
1.0
  9
$OSMODE
 70
    37
  9
$ATTMODE
 70
     1
  9
$TEXTSIZE
 40
0.1377952756
  9
$TRACEWID
 40
0.05
  9
$TEXTSTYLE
  7
STANDARD
  9
$CLAYER
  8
0
  9
$CELTYPE
  6
BYLAYER
  9
$CECOLOR
 62
   256
  9
$CELTSCALE
 40
1.0
  9
$DELOBJ
 70
     1
  9
$DISPSILH
 70
     0
  9
$DIMSCALE
 40
1.0
  9
$DIMASZ
 40
0.13
  9
$DIMEXO
 40
0.0393700787
  9
$DIMDLI
 40
0.38
  9
$DIMRND
 40
0.0
  9
$DIMDLE
 40
0.0
  9
$DIMEXE
 40
0.0393700787
  9
$DIMTP
 40
0.0
  9
$DIMTM
 40
0.0
  9
$DIMTXT
 40
0.1805555556
  9
$DIMCEN
 40
0.09
  9
$DIMTSZ
 40
0.0
  9
$DIMTOL
 70
     0
  9
$DIMLIM
 70
     0
  9
$DIMTIH
 70
     1
  9
$DIMTOH
 70
     1
  9
$DIMSE1
 70
     0
  9
$DIMSE2
 70
     0
  9
$DIMTAD
 70
     1
  9
$DIMZIN
 70
     0
  9
$DIMBLK
  1

  9
$DIMASO
 70
     1
  9
$DIMSHO
 70
     1
  9
$DIMPOST
  1

  9
$DIMAPOST
  1

  9
$DIMALT
 70
     0
  9
$DIMALTD
 70
     2
  9
$DIMALTF
 40
25.4
  9
$DIMLFAC
 40
1.0
  9
$DIMTOFL
 70
     0
  9
$DIMTVP
 40
0.0
  9
$DIMTIX
 70
     0
  9
$DIMSOXD
 70
     0
  9
$DIMSAH
 70
     0
  9
$DIMBLK1
  1

  9
$DIMBLK2
  1

  9
$DIMSTYLE
  2
STANDARD
  9
$DIMCLRD
 70
     0
  9
$DIMCLRE
 70
     0
  9
$DIMCLRT
 70
     0
  9
$DIMTFAC
 40
1.0
  9
$DIMGAP
 40
0.06
  9
$DIMJUST
 70
     0
  9
$DIMSD1
 70
     0
  9
$DIMSD2
 70
     0
  9
$DIMTOLJ
 70
     1
  9
$DIMTZIN
 70
     0
  9
$DIMALTZ
 70
     0
  9
$DIMALTTZ
 70
     0
  9
$DIMFIT
 70
     3
  9
$DIMUPT
 70
     0
  9
$DIMUNIT
 70
     2
  9
$DIMDEC
 70
     2
  9
$DIMTDEC
 70
     2
  9
$DIMALTU
 70
     2
  9
$DIMALTTD
 70
     2
  9
$DIMTXSTY
  7
STANDARD
  9
$DIMAUNIT
 70
     0
  9
$LUNITS
 70
     2
  9
$LUPREC
 70
     2
  9
$SKETCHINC
 40
0.1
  9
$FILLETRAD
 40
0.5
  9
$AUNITS
 70
     0
  9
$AUPREC
 70
     2
  9
$MENU
  1
.
  9
$ELEVATION
 40
0.0
  9
$PELEVATION
 40
0.0
  9
$THICKNESS
 40
0.0
  9
$LIMCHECK
 70
     0
  9
$CHAMFERA
 40
0.0
  9
$CHAMFERB
 40
0.0
  9
$CHAMFERC
 40
0.0
  9
$CHAMFERD
 40
0.0
  9
$SKPOLY
 70
     0
  9
$TDCREATE
 40
2457722.439204178
  9
$TDUPDATE
 40
2457722.439204502
  9
$TDINDWG
 40
0.0000000116
  9
$TDUSRTIMER
 40
0.0000000116
  9
$USRTIMER
 70
     1
  9
$ANGBASE
 50
0.0
  9
$ANGDIR
 70
     0
  9
$PDMODE
 70
     0
  9
$PDSIZE
 40
-1.0
  9
$PLINEWID
 40
0.0
  9
$COORDS
 70
     1
  9
$SPLFRAME
 70
     0
  9
$SPLINETYPE
 70
     6
  9
$SPLINESEGS
 70
     8
  9
$ATTDIA
 70
     0
  9
$ATTREQ
 70
     1
  9
$HANDLING
 70
     1
  9
$HANDSEED
  5
375
  9
$SURFTAB1
 70
     6
  9
$SURFTAB2
 70
     6
  9
$SURFTYPE
 70
     6
  9
$SURFU
 70
     6
  9
$SURFV
 70
     6
  9
$UCSNAME
  2

  9
$UCSORG
 10
0.0
 20
0.0
 30
0.0
  9
$UCSXDIR
 10
1.0
 20
0.0
 30
0.0
  9
$UCSYDIR
 10
0.0
 20
1.0
 30
0.0
  9
$PUCSNAME
  2

  9
$PUCSORG
 10
0.0
 20
0.0
 30
0.0
  9
$PUCSXDIR
 10
1.0
 20
0.0
 30
0.0
  9
$PUCSYDIR
 10
0.0
 20
1.0
 30
0.0
  9
$USERI1
 70
     0
  9
$USERI2
 70
     0
  9
$USERI3
 70
     0
  9
$USERI4
 70
     0
  9
$USERI5
 70
     0
  9
$USERR1
 40
0.0
  9
$USERR2
 40
0.0
  9
$USERR3
 40
0.0
  9
$USERR4
 40
0.0
  9
$USERR5
 40
0.0
  9
$WORLDVIEW
 70
     1
  9
$SHADEDGE
 70
     3
  9
$SHADEDIF
 70
    70
  9
$TILEMODE
 70
     1
  9
$MAXACTVP
 70
    64
  9
$PINSBASE
 10
0.0
 20
0.0
 30
0.0
  9
$PLIMCHECK
 70
     0
  9
$PEXTMIN
 10
1.0000000000E+20
 20
1.0000000000E+20
 30
1.0000000000E+20
  9
$PEXTMAX
 10
-1.0000000000E+20
 20
-1.0000000000E+20
 30
-1.0000000000E+20
  9
$PLIMMIN
 10
0.0
 20
0.0
  9
$PLIMMAX
 10
12.0
 20
9.0
  9
$UNITMODE
 70
     0
  9
$VISRETAIN
 70
     1
  9
$PLINEGEN
 70
     0
  9
$PSLTSCALE
 70
     1
  9
$TREEDEPTH
 70
  3020
  9
$PICKSTYLE
 70
     1
  9
$CMLSTYLE
  2
STANDARD
  9
$CMLJUST
 70
     0
  9
$CMLSCALE
 40
1.0
  9
$PROXYGRAPHICS
 70
     1
  9
$MEASUREMENT
 70
     0
  0
ENDSEC
  0
SECTION
  2
CLASSES
  0
CLASS
  1
ACDBDICTIONARYWDFLT
  2
AcDbDictionaryWithDefault
  3
ObjectDBX Classes
 90
        0
280
     0
281
     0
  0
CLASS
  1
VISUALSTYLE
  2
AcDbVisualStyle
  3
ObjectDBX Classes
 90
     4095
280
     0
281
     0
  0
CLASS
  1
MATERIAL
  2
AcDbMaterial
  3
ObjectDBX Classes
 90
     1153
280
     0
281
     0
  0
CLASS
  1
SCALE
  2
AcDbScale
  3
ObjectDBX Classes
 90
     1153
280
     0
281
     0
  0
CLASS
  1
TABLESTYLE
  2
AcDbTableStyle
  3
ObjectDBX Classes
 90
     4095
280
     0
281
     0
  0
CLASS
  1
MLEADERSTYLE
  2
AcDbMLeaderStyle
  3
ACDB_MLEADERSTYLE_CLASS
 90
     4095
280
     0
281
     0
  0
CLASS
  1
SUN
  2
AcDbSun
  3
SCENEOE
 90
     1153
280
     0
281
     0
  0
CLASS
  1
XRECORD
  2
AcDbXrecord
  3
ObjectDBX Classes
 90
        0
280
     0
281
     0
  0
CLASS
  1
LWPOLYLINE
  2
AcDbPolyline
  3
ObjectDBX Classes
 90
        0
280
     0
281
     1
  0
CLASS
  1
HATCH
  2
AcDbHatch
  3
ObjectDBX Classes
 90
        0
280
     0
281
     1
  0
ENDSEC
  0
SECTION
  2
TABLES
  0
TABLE
  2
VPORT
  5
8
330
0
100
AcDbSymbolTable
 70
     1
  0
VPORT
  5
29
330
8
100
AcDbSymbolTableRecord
100
AcDbViewportTableRecord
  2
*ACTIVE
 70
     0
 10
0.0
 20
0.0
 11
1.0
 21
1.0
 12
48.031496063
 22
24.0157480315
 13
0.0
 23
0.0
 14
0.5
 24
0.5
 15
0.5
 25
0.5
 16
0.0
 26
0.0
 36
1.0
 17
0.0
 27
0.0
 37
0.0
 40
48.031496063
 41
2.0
 42
50.0
 43
0.0
 44
0.0
 50
0.0
 51
0.0
 71
     0
 72
  2000
 73
     1
 74
     3
 75
     0
 76
     0
 77
     0
 78
     0
  0
ENDTAB
  0
TABLE
  2
LTYPE
  5
5
330
0
100
AcDbSymbolTable
 70
     6
  0
LTYPE
  5
14
330
5
100
AcDbSymbolTableRecord
100
AcDbLinetypeTableRecord
  2
BYBLOCK
 70
     0
  3

 72
    65
 73
     0
 40
0.0
  0
LTYPE
  5
15
330
5
100
AcDbSymbolTableRecord
100
AcDbLinetypeTableRecord
  2
BYLAYER
 70
     0
  3

 72
    65
 73
     0
 40
0.0
  0
LTYPE
  5
16
330
5
100
AcDbSymbolTableRecord
100
AcDbLinetypeTableRecord
  2
CONTINUOUS
 70
     0
  3
Solid line
 72
    65
 73
     0
 40
0.0
  0
LTYPE
  5
6E
330
5
100
AcDbSymbolTableRecord
100
AcDbLinetypeTableRecord
  2
HIDDEN
 70
     0
  3
Hidden __ __ __ __ __ __ __ __ __ __ __ __ __ __
 72
    65
 73
     2
 40
0.075
 49
0.05
 74
     0
 49
-0.025
 74
     0
  0
LTYPE
  5
6F
330
5
100
AcDbSymbolTableRecord
100
AcDbLinetypeTableRecord
  2
PHANTOM
 70
     0
  3
Phantom ______  __  __  ______  __  __  ______
 72
    65
 73
     6
 40
0.5
 49
0.25
 74
     0
 49
-0.05
 74
     0
 49
0.05
 74
     0
 49
-0.05
 74
     0
 49
0.05
 74
     0
 49
-0.05
 74
     0
  0
LTYPE
  5
70
330
5
100
AcDbSymbolTableRecord
100
AcDbLinetypeTableRecord
  2
CENTER
 70
     0
  3
Center ____ _ ____ _ ____ _ ____ _ ____ _ ____
 72
    65
 73
     4
 40
0.4
 49
0.25
 74
     0
 49
-0.05
 74
     0
 49
0.05
 74
     0
 49
-0.05
 74
     0
  0
LTYPE
  5
71
330
5
100
AcDbSymbolTableRecord
100
AcDbLinetypeTableRecord
  2
CENTERX2
 70
     0
  3
Center (2x) ________  __  ________  __  _____
 72
    65
 73
     4
 40
0.8
 49
0.5
 74
     0
 49
-0.1
 74
     0
 49
0.1
 74
     0
 49
-0.1
 74
     0
  0
LTYPE
  5
72
330
5
100
AcDbSymbolTableRecord
100
AcDbLinetypeTableRecord
  2
DOT2
 70
     0
  3
Dot (.5x) ........................................
 72
    65
 73
     2
 40
0.025
 49
0.0
 74
     0
 49
-0.025
 74
     0
  0
ENDTAB
  0
TABLE
  2
LAYER
  5
2
330
0
100
AcDbSymbolTable
 70
     6
  0
LAYER
  5
10
330
2
100
AcDbSymbolTableRecord
100
AcDbLayerTableRecord
  2
0
 70
     0
 62
     7
  6
CONTINUOUS
  0
LAYER
  5
73
330
2
100
AcDbSymbolTableRecord
100
AcDbLayerTableRecord
  2
BOX_STOCK
 70
     0
 62
     1
  6
CONTINUOUS
  0
LAYER
  5
74
330
2
100
AcDbSymbolTableRecord
100
AcDbLayerTableRecord
  2
HOLES
 70
     0
 62
    30
  6
CONTINUOUS
  0
LAYER
  5
75
330
2
100
AcDbSymbolTableRecord
100
AcDbLayerTableRecord
  2
POCKETS
 70
     0
 62
   171
  6
CONTINUOUS
  0
LAYER
  5
76
330
2
100
AcDbSymbolTableRecord
100
AcDbLayerTableRecord
  2
PROFILES_OUTSIDE
 70
     0
 62
     6
  6
CONTINUOUS
  0
LAYER
  5
77
330
2
100
AcDbSymbolTableRecord
100
AcDbLayerTableRecord
  2
PROFILES_INSIDE
 70
     0
 62
     4
  6
CONTINUOUS
  0
ENDTAB
  0
TABLE
  2
STYLE
  5
3
330
0
100
AcDbSymbolTable
 70
     1
  0
STYLE
  5
11
330
3
100
AcDbSymbolTableRecord
100
AcDbTextStyleTableRecord
  2
STANDARD
 70
     0
 40
0.0
 41
1.0
 50
0.0
 71
     0
 42
0.1377952756
  3
txt
  4

  0
ENDTAB
  0
TABLE
  2
VIEW
  5
6
330
0
100
AcDbSymbolTable
 70
     0
  0
ENDTAB
  0
TABLE
  2
UCS
  5
7
330
0
100
AcDbSymbolTable
 70
     0
  0
ENDTAB
  0
TABLE
  2
APPID
  5
9
330
0
100
AcDbSymbolTable
 70
     1
  0
APPID
  5
12
330
9
100
AcDbSymbolTableRecord
100
AcDbRegAppTableRecord
  2
ACAD
 70
     0
  0
ENDTAB
  0
TABLE
  2
DIMSTYLE
  5
A
330
0
100
AcDbSymbolTable
 70
     1
  0
DIMSTYLE
105
27
330
A
100
AcDbSymbolTableRecord
100
AcDbDimStyleTableRecord
  2
STANDARD
 70
     0
  3

  4

  5

  6

  7

 40
1.0
 41
0.18
 42
0.0625
 43
0.38
 44
0.18
 45
0.0
 46
0.0
 47
0.0
 48
0.0
140
0.18
141
0.09
142
0.0
143
25.4
144
1.0
145
0.0
146
1.0
147
0.09
 71
     0
 72
     0
 73
     1
 74
     1
 75
     0
 76
     0
 77
     0
 78
     0
170
     0
171
     2
172
     0
173
     0
174
     0
175
     0
176
     0
177
     0
178
     0
270
     2
271
     4
272
     4
273
     2
274
     2
340
11
275
     0
280
     0
281
     0
282
     0
283
     1
284
     0
285
     0
286
     0
287
     3
288
     0
  0
ENDTAB
  0
TABLE
  2
BLOCK_RECORD
  5
1
330
0
100
AcDbSymbolTable
 70
     1
  0
BLOCK_RECORD
  5
1F
330
1
100
AcDbSymbolTableRecord
100
AcDbBlockTableRecord
  2
*MODEL_SPACE
  0
BLOCK_RECORD
  5
1B
330
1
100
AcDbSymbolTableRecord
100
AcDbBlockTableRecord
  2
*PAPER_SPACE
  0
BLOCK_RECORD
  5
23
330
1
100
AcDbSymbolTableRecord
100
AcDbBlockTableRecord
  2
*PAPER_SPACE0
  0
ENDTAB
  0
ENDSEC
  0
SECTION
  2
BLOCKS
  0
BLOCK
  5
20
330
1F
100
AcDbEntity
  8
0
100
AcDbBlockBegin
  2
*MODEL_SPACE
 70
     0
 10
0.0
 20
0.0
 30
0.0
  3
*MODEL_SPACE
  1

  0
ENDBLK
  5
21
330
1F
100
AcDbEntity
  8
0
100
AcDbBlockEnd
  0
BLOCK
  5
1C
330
1B
100
AcDbEntity
 67
     1
  8
0
100
AcDbBlockBegin
  2
*PAPER_SPACE
 70
     0
 10
0.0
 20
0.0
 30
0.0
  3
*PAPER_SPACE
  1

  0
ENDBLK
  5
1D
330
1B
100
AcDbEntity
 67
     1
  8
0
100
AcDbBlockEnd
  0
BLOCK
  5
24
330
23
100
AcDbEntity
  8
0
100
AcDbBlockBegin
  2
*PAPER_SPACE0
 70
     0
 10
0.0
 20
0.0
 30
0.0
  3
*PAPER_SPACE0
  1

  0
ENDBLK
  5
25
330
23
100
AcDbEntity
  8
0
100
AcDbBlockEnd
  0
ENDSEC
  0
SECTION
  2
ENTITIES
  0
ARC
  5
78
330
1F
100
AcDbEntity
  8
0
  6
CONTINUOUS
 62
     7
100
AcDbCircle
 10
76.5755228374
 20
23.2127268611
 30
0.0
 40
0.236220472440948
100
AcDbArc
 50
90.0
 51
180.0
  0
LINE
  5
79
330
1F
100
AcDbEntity
  8
0
  6
CONTINUOUS
 62
     7
100
AcDbLine
 10
82.0066289632
 20
23.4489471957
 30
0.0
 11
76.5755241305
 21
23.4489471957
 31
0.0
  0
ARC
  5
7A
330
1F
100
AcDbEntity
  8
0
  6
CONTINUOUS
 62
     7
100
AcDbCircle
 10
82.0066251996
 20
23.9213882785
 30
0.0
 40
0.4724409448818818
100
AcDbArc
 50
270.0
 51
0.0
  0
LINE
  5
7B
330
1F
100
AcDbEntity
  8
0
  6
CONTINUOUS
 62
     7
100
AcDbLine
 10
82.4790638256
 20
28.7775836655
 30
0.0
 11
82.4790638256
 21
23.921389098
 31
0.0
  0
ARC
  5
7C
330
1F
100
AcDbEntity
  8
0
  6
CONTINUOUS
 62
     7
100
AcDbCircle
 10
83.2290661445
 20
28.7775825042
 30
0.0
 40
0.75
100
AcDbArc
 50
120.0
 51
180.0
  0
ARC
  5
7D
330
1F
100
AcDbEntity
  8
0
  6
CONTINUOUS
 62
     7
100
AcDbCircle
 10
82.4790661445
 20
30.0766206098
 30
0.0
 40
0.75
100
AcDbArc
 50
300.0
 51
0.0
  0
LINE
  5
7E
330
1F
100
AcDbEntity
  8
0
  6
CONTINUOUS
 62
     7
100
AcDbLine
 10
83.2290686015
 20
33.3190704019
 30
0.0
 11
83.2290686015
 21
30.0766199656
 31
0.0
  0
ARC
  5
7F
330
1F
100
AcDbEntity
  8
0
  6
CONTINUOUS
 62
     7
100
AcDbCircle
 10
82.4790661445
 20
33.3190693329
 30
0.0
 40
0.75
100
AcDbArc
 50
0.0
 51
60.0
  0
ARC
  5
80
330
1F
100
AcDbEntity
  8
0
  6
CONTINUOUS
 62
     7
100
AcDbCircle
 10
83.2290661445
 20
34.6181074386
 30
0.0
 40
0.75
100
AcDbArc
 50
180.0
 51
240.0
  0
LINE
  5
81
330
1F
100
AcDbEntity
  8
0
  6
CONTINUOUS
 62
     7
100
AcDbLine
 10
82.4790638256
 20
39.4743012694
 30
0.0
 11
82.4790638256
 21
34.6181067019
 31
0.0
  0
ARC
  5
82
330
1F
100
AcDbEntity
  8
0
  6
CONTINUOUS
 62
     7
100
AcDbCircle
 10
82.0066251996
 20
39.4743016643
 30
0.0
 40
0.4724409448818889
100
AcDbArc
 50
0.0
 51
90.0
  0
LINE
  5
83
330
1F
100
AcDbEntity
  8
0
  6
CONTINUOUS
 62
     7
100
AcDbLine
 10
76.5755241305
 20
39.9467431718
 30
0.0
 11
82.0066289632
 21
39.9467431718
 31
0.0
  0
ARC
  5
84
330
1F
100
AcDbEntity
  8
0
  6
CONTINUOUS
 62
     7
100
AcDbCircle
 10
76.5755228374
 20
40.1829630816
 30
0.0
 40
0.236220472440948
100
AcDbArc
 50
180.0
 51
270.0
  0
LINE
  5
85
330
1F
100
AcDbEntity
  8
0
  6
CONTINUOUS
 62
     7
100
AcDbLine
 10
76.339302006
 20
40.6455630456
 30
0.0
 11
76.339302006
 21
40.1829652962
 31
0.0
  0
ARC
  5
86
330
1F
100
AcDbEntity
  8
0
  6
CONTINUOUS
 62
     7
100
AcDbCircle
 10
76.3786724437
 20
40.6455615068
 30
0.0
 40
0.0393700787401627
100
AcDbArc
 50
90.0
 51
180.0
  0
LINE
  5
87
330
1F
100
AcDbEntity
  8
0
  6
CONTINUOUS
 62
     7
100
AcDbLine
 10
76.3786739245
 20
40.6849302708
 30
0.0
 11
76.5444217698
 21
40.6849302708
 31
0.0
  0
LINE
  5
88
330
1F
100
AcDbEntity
  8
0
  6
CONTINUOUS
 62
     7
100
AcDbLine
 10
76.5444217698
 20
40.6849302708
 30
0.0
 11
76.5578116951
 21
40.4757226609
 31
0.0
  0
ARC
  5
89
330
1F
100
AcDbEntity
  8
0
  6
CONTINUOUS
 62
     7
100
AcDbCircle
 10
76.5970994479
 20
40.4782386722
 30
0.0
 40
0.039370078740159
100
AcDbArc
 50
183.6619355755
 51
270.0
  0
LINE
  5
8A
330
1F
100
AcDbEntity
  8
0
  6
CONTINUOUS
 62
     7
100
AcDbLine
 10
76.5970991346
 20
40.43886634
 30
0.0
 11
77.1872461305
 21
40.43886634
 31
0.0
  0
ARC
  5
8B
330
1F
100
AcDbEntity
  8
0
  6
CONTINUOUS
 62
     7
100
AcDbCircle
 10
77.1872441609
 20
40.3994985147
 30
0.0
 40
0.0393700787401627
100
AcDbArc
 50
65.1121079736
 51
90.0
  0
ARC
  5
8C
330
1F
100
AcDbEntity
  8
0
  6
CONTINUOUS
 62
     7
100
AcDbCircle
 10
77.2894728319
 20
40.6198532556
 30
0.0
 40
0.2035433070866241
100
AcDbArc
 50
245.1121079736
 51
72.3995332141
  0
ARC
  5
8D
330
1F
100
AcDbEntity
  8
0
  6
CONTINUOUS
 62
     7
100
AcDbCircle
 10
77.3629244122
 20
40.8513954296
 30
0.0
 40
0.0393700787401627
100
AcDbArc
 50
180.0
 51
252.3995332141
  0
LINE
  5
8E
330
1F
100
AcDbEntity
  8
0
  6
CONTINUOUS
 62
     7
100
AcDbLine
 10
77.3235530359
 20
40.9310739873
 30
0.0
 11
77.3235530359
 21
40.8513961878
 31
0.0
  0
LINE
  5
8F
330
1F
100
AcDbEntity
  8
0
  6
CONTINUOUS
 62
     7
100
AcDbLine
 10
82.7566243526
 20
40.9310739873
 30
0.0
 11
77.3235530359
 21
40.9310739873
 31
0.0
  0
ARC
  5
90
330
1F
100
AcDbEntity
  8
0
  6
CONTINUOUS
 62
     7
100
AcDbCircle
 10
82.7566251996
 20
40.4586323729
 30
0.0
 40
0.4724409448818889
100
AcDbArc
 50
0.0
 51
90.0
  0
LINE
  5
91
330
1F
100
AcDbEntity
  8
0
  6
CONTINUOUS
 62
     7
100
AcDbLine
 10
83.2290686015
 20
35.0905486043
 30
0.0
 11
83.2290686015
 21
40.4586344317
 31
0.0
  0
ARC
  5
92
330
1F
100
AcDbEntity
  8
0
  6
CONTINUOUS
 62
     7
100
AcDbCircle
 10
83.7015070894
 20
35.0905483834
 30
0.0
 40
0.4724409448819102
100
AcDbArc
 50
180.0
 51
270.0
  0
LINE
  5
93
330
1F
100
AcDbEntity
  8
0
  6
CONTINUOUS
 62
     7
100
AcDbLine
 10
84.7251264122
 20
34.6181067019
 30
0.0
 11
83.7015034639
 21
34.6181067019
 31
0.0
  0
ARC
  5
94
330
1F
100
AcDbEntity
  8
0
  6
CONTINUOUS
 62
     7
100
AcDbCircle
 10
84.7251291366
 20
35.0905483834
 30
0.0
 40
0.4724409448819102
100
AcDbArc
 50
270.0
 51
0.0
  0
LINE
  5
95
330
1F
100
AcDbEntity
  8
0
  6
CONTINUOUS
 62
     7
100
AcDbLine
 10
85.1975706612
 20
40.4586344317
 30
0.0
 11
85.1975706612
 21
35.0905486043
 31
0.0
  0
ARC
  5
96
330
1F
100
AcDbEntity
  8
0
  6
CONTINUOUS
 62
     7
100
AcDbCircle
 10
85.6700110264
 20
40.4586323729
 30
0.0
 40
0.4724409448818889
100
AcDbArc
 50
90.0
 51
180.0
  0
LINE
  5
97
330
1F
100
AcDbEntity
  8
0
  6
CONTINUOUS
 62
     7
100
AcDbLine
 10
91.1030862268
 20
40.9310739873
 30
0.0
 11
85.6700149101
 21
40.9310739873
 31
0.0
  0
LINE
  5
98
330
1F
100
AcDbEntity
  8
0
  6
CONTINUOUS
 62
     7
100
AcDbLine
 10
91.1030862268
 20
40.8513961878
 30
0.0
 11
91.1030862268
 21
40.9310739873
 31
0.0
  0
ARC
  5
99
330
1F
100
AcDbEntity
  8
0
  6
CONTINUOUS
 62
     7
100
AcDbCircle
 10
91.0637118138
 20
40.8513954296
 30
0.0
 40
0.0393700787401526
100
AcDbArc
 50
287.6004667858
 51
0.0
  0
ARC
  5
9A
330
1F
100
AcDbEntity
  8
0
  6
CONTINUOUS
 62
     7
100
AcDbCircle
 10
91.1371633941
 20
40.6198532556
 30
0.0
 40
0.2035433070866173
100
AcDbArc
 50
107.6004667859
 51
294.8878920264
  0
ARC
  5
9B
330
1F
100
AcDbEntity
  8
0
  6
CONTINUOUS
 62
     7
100
AcDbCircle
 10
91.2393920651
 20
40.3994985147
 30
0.0
 40
0.0393700787401556
100
AcDbArc
 50
90.0
 51
114.8878920264
  0
LINE
  5
9C
330
1F
100
AcDbEntity
  8
0
  6
CONTINUOUS
 62
     7
100
AcDbLine
 10
91.2393884389
 20
40.43886634
 30
0.0
 11
91.8295401281
 21
40.43886634
 31
0.0
  0
ARC
  5
9D
330
1F
100
AcDbEntity
  8
0
  6
CONTINUOUS
 62
     7
100
AcDbCircle
 10
91.8295367781
 20
40.4782386722
 30
0.0
 40
0.0393700787401627
100
AcDbArc
 50
270.0
 51
356.3380644245
  0
LINE
  5
9E
330
1F
100
AcDbEntity
  8
0
  6
CONTINUOUS
 62
     7
100
AcDbLine
 10
91.8688228743
 20
40.4757226609
 30
0.0
 11
91.8822174929
 21
40.6849302708
 31
0.0
  0
LINE
  5
9F
330
1F
100
AcDbEntity
  8
0
  6
CONTINUOUS
 62
     7
100
AcDbLine
 10
91.8822174929
 20
40.6849302708
 30
0.0
 11
92.0479653382
 21
40.6849302708
 31
0.0
  0
ARC
  5
A0
330
1F
100
AcDbEntity
  8
0
  6
CONTINUOUS
 62
     7
100
AcDbCircle
 10
92.0479637823
 20
40.6455615068
 30
0.0
 40
0.039370078740177
100
AcDbArc
 50
0.0
 51
90.0
  0
LINE
  5
A1
330
1F
100
AcDbEntity
  8
0
  6
CONTINUOUS
 62
     7
100
AcDbLine
 10
92.0873325634
 20
40.1829652962
 30
0.0
 11
92.0873325634
 21
40.6455630456
 31
0.0
  0
ARC
  5
A2
330
1F
100
AcDbEntity
  8
0
  6
CONTINUOUS
 62
     7
100
AcDbCircle
 10
91.8511133886
 20
40.1829630816
 30
0.0
 40
0.2362204724409622
100
AcDbArc
 50
270.0
 51
0.0
  0
LINE
  5
A3
330
1F
100
AcDbEntity
  8
0
  6
CONTINUOUS
 62
     7
100
AcDbLine
 10
86.4200102995
 20
39.9467431718
 30
0.0
 11
91.8511104389
 21
39.9467431718
 31
0.0
  0
ARC
  5
A4
330
1F
100
AcDbEntity
  8
0
  6
CONTINUOUS
 62
     7
100
AcDbCircle
 10
86.4200110264
 20
39.4743016643
 30
0.0
 40
0.4724409448819102
100
AcDbArc
 50
90.0
 51
180.0
  0
LINE
  5
A5
330
1F
100
AcDbEntity
  8
0
  6
CONTINUOUS
 62
     7
100
AcDbLine
 10
85.9475660505
 20
34.6181067019
 30
0.0
 11
85.9475660505
 21
39.4743012694
 31
0.0
  0
ARC
  5
A6
330
1F
100
AcDbEntity
  8
0
  6
CONTINUOUS
 62
     7
100
AcDbCircle
 10
85.1975700815
 20
34.6181074386
 30
0.0
 40
0.7500000000000213
100
AcDbArc
 50
300.0
 51
0.0
  0
ARC
  5
A7
330
1F
100
AcDbEntity
  8
0
  6
CONTINUOUS
 62
     7
100
AcDbCircle
 10
85.9475700815
 20
33.3190693329
 30
0.0
 40
0.7499999999999787
100
AcDbArc
 50
120.0
 51
180.0
  0
LINE
  5
A8
330
1F
100
AcDbEntity
  8
0
  6
CONTINUOUS
 62
     7
100
AcDbLine
 10
85.1975706612
 20
30.0766199656
 30
0.0
 11
85.1975706612
 21
33.3190704019
 31
0.0
  0
ARC
  5
A9
330
1F
100
AcDbEntity
  8
0
  6
CONTINUOUS
 62
     7
100
AcDbCircle
 10
85.9475700815
 20
30.0766206098
 30
0.0
 40
0.75
100
AcDbArc
 50
180.0
 51
240.0
  0
ARC
  5
AA
330
1F
100
AcDbEntity
  8
0
  6
CONTINUOUS
 62
     7
100
AcDbCircle
 10
85.1975700815
 20
28.7775825042
 30
0.0
 40
0.7499999999999969
100
AcDbArc
 50
0.0
 51
60.0
  0
LINE
  5
AB
330
1F
100
AcDbEntity
  8
0
  6
CONTINUOUS
 62
     7
100
AcDbLine
 10
85.9475660505
 20
23.921389098
 30
0.0
 11
85.9475660505
 21
28.7775836655
 31
0.0
  0
ARC
  5
AC
330
1F
100
AcDbEntity
  8
0
  6
CONTINUOUS
 62
     7
100
AcDbCircle
 10
86.4200110264
 20
23.9213882785
 30
0.0
 40
0.4724409448819102
100
AcDbArc
 50
180.0
 51
270.0
  0
LINE
  5
AD
330
1F
100
AcDbEntity
  8
0
  6
CONTINUOUS
 62
     7
100
AcDbLine
 10
91.8511104389
 20
23.4489471957
 30
0.0
 11
86.4200102995
 21
23.4489471957
 31
0.0
  0
ARC
  5
AE
330
1F
100
AcDbEntity
  8
0
  6
CONTINUOUS
 62
     7
100
AcDbCircle
 10
91.8511133886
 20
23.2127268611
 30
0.0
 40
0.2362204724409622
100
AcDbArc
 50
0.0
 51
90.0
  0
LINE
  5
AF
330
1F
100
AcDbEntity
  8
0
  6
CONTINUOUS
 62
     7
100
AcDbLine
 10
92.0873325634
 20
22.7501273219
 30
0.0
 11
92.0873325634
 21
23.2127274179
 31
0.0
  0
ARC
  5
B0
330
1F
100
AcDbEntity
  8
0
  6
CONTINUOUS
 62
     7
100
AcDbCircle
 10
92.0479637823
 20
22.7501284359
 30
0.0
 40
0.039370078740177
100
AcDbArc
 50
270.0
 51
0.0
  0
LINE
  5
B1
330
1F
100
AcDbEntity
  8
0
  6
CONTINUOUS
 62
     7
100
AcDbLine
 10
92.0479653382
 20
22.71075775
 30
0.0
 11
91.8822174929
 21
22.71075775
 31
0.0
  0
LINE
  5
B2
330
1F
100
AcDbEntity
  8
0
  6
CONTINUOUS
 62
     7
100
AcDbLine
 10
91.8822174929
 20
22.71075775
 30
0.0
 11
91.8688228743
 21
22.9199653599
 31
0.0
  0
ARC
  5
B3
330
1F
100
AcDbEntity
  8
0
  6
CONTINUOUS
 62
     7
100
AcDbCircle
 10
91.8295367781
 20
22.9174512706
 30
0.0
 40
0.0393700787401592
100
AcDbArc
 50
3.6619355755
 51
90.0
  0
LINE
  5
B4
330
1F
100
AcDbEntity
  8
0
  6
CONTINUOUS
 62
     7
100
AcDbLine
 10
91.8295401281
 20
22.9568216808
 30
0.0
 11
91.2393884389
 21
22.9568216808
 31
0.0
  0
ARC
  5
B5
330
1F
100
AcDbEntity
  8
0
  6
CONTINUOUS
 62
     7
100
AcDbCircle
 10
91.2393920651
 20
22.9961914281
 30
0.0
 40
0.0393700787401556
100
AcDbArc
 50
245.1121079736
 51
270.0
  0
ARC
  5
B6
330
1F
100
AcDbEntity
  8
0
  6
CONTINUOUS
 62
     7
100
AcDbCircle
 10
91.1371633941
 20
22.7758366872
 30
0.0
 40
0.2035433070866139
100
AcDbArc
 50
65.1121079736
 51
252.3995332141
  0
ARC
  5
B7
330
1F
100
AcDbEntity
  8
0
  6
CONTINUOUS
 62
     7
100
AcDbCircle
 10
91.0637118138
 20
22.5442945131
 30
0.0
 40
0.0393700787401492
100
AcDbArc
 50
0.0
 51
72.3995332142
  0
LINE
  5
B8
330
1F
100
AcDbEntity
  8
0
  6
CONTINUOUS
 62
     7
100
AcDbLine
 10
91.1030862268
 20
22.4646163801
 30
0.0
 11
91.1030862268
 21
22.5442941797
 31
0.0
  0
LINE
  5
B9
330
1F
100
AcDbEntity
  8
0
  6
CONTINUOUS
 62
     7
100
AcDbLine
 10
85.6700149101
 20
22.4646163801
 30
0.0
 11
91.1030862268
 21
22.4646163801
 31
0.0
  0
ARC
  5
BA
330
1F
100
AcDbEntity
  8
0
  6
CONTINUOUS
 62
     7
100
AcDbCircle
 10
85.6700110264
 20
22.9370575698
 30
0.0
 40
0.4724409448818889
100
AcDbArc
 50
180.0
 51
270.0
  0
LINE
  5
BB
330
1F
100
AcDbEntity
  8
0
  6
CONTINUOUS
 62
     7
100
AcDbLine
 10
85.1975706612
 20
28.3051417632
 30
0.0
 11
85.1975706612
 21
22.9370582824
 31
0.0
  0
ARC
  5
BC
330
1F
100
AcDbEntity
  8
0
  6
CONTINUOUS
 62
     7
100
AcDbCircle
 10
84.7251291366
 20
28.3051415593
 30
0.0
 40
0.4724409448819102
100
AcDbArc
 50
0.0
 51
90.0
  0
LINE
  5
BD
330
1F
100
AcDbEntity
  8
0
  6
CONTINUOUS
 62
     7
100
AcDbLine
 10
83.7015034639
 20
28.7775836655
 30
0.0
 11
84.7251264122
 21
28.7775836655
 31
0.0
  0
ARC
  5
BE
330
1F
100
AcDbEntity
  8
0
  6
CONTINUOUS
 62
     7
100
AcDbCircle
 10
83.7015070894
 20
28.3051415593
 30
0.0
 40
0.4724409448819102
100
AcDbArc
 50
90.0
 51
180.0
  0
LINE
  5
BF
330
1F
100
AcDbEntity
  8
0
  6
CONTINUOUS
 62
     7
100
AcDbLine
 10
83.2290686015
 20
22.9370582824
 30
0.0
 11
83.2290686015
 21
28.3051417632
 31
0.0
  0
ARC
  5
C0
330
1F
100
AcDbEntity
  8
0
  6
CONTINUOUS
 62
     7
100
AcDbCircle
 10
82.7566251996
 20
22.9370575698
 30
0.0
 40
0.4724409448818889
100
AcDbArc
 50
270.0
 51
0.0
  0
LINE
  5
C1
330
1F
100
AcDbEntity
  8
0
  6
CONTINUOUS
 62
     7
100
AcDbLine
 10
77.3235530359
 20
22.4646163801
 30
0.0
 11
82.7566243526
 21
22.4646163801
 31
0.0
  0
LINE
  5
C2
330
1F
100
AcDbEntity
  8
0
  6
CONTINUOUS
 62
     7
100
AcDbLine
 10
77.3235530359
 20
22.5442941797
 30
0.0
 11
77.3235530359
 21
22.4646163801
 31
0.0
  0
ARC
  5
C3
330
1F
100
AcDbEntity
  8
0
  6
CONTINUOUS
 62
     7
100
AcDbCircle
 10
77.3629244122
 20
22.5442945131
 30
0.0
 40
0.0393700787401569
100
AcDbArc
 50
107.6004667859
 51
180.0
  0
ARC
  5
C4
330
1F
100
AcDbEntity
  8
0
  6
CONTINUOUS
 62
     7
100
AcDbCircle
 10
77.2894728319
 20
22.7758366872
 30
0.0
 40
0.2035433070866173
100
AcDbArc
 50
287.6004667859
 51
114.8878920264
  0
ARC
  5
C5
330
1F
100
AcDbEntity
  8
0
  6
CONTINUOUS
 62
     7
100
AcDbCircle
 10
77.1872441609
 20
22.9961914281
 30
0.0
 40
0.0393700787401576
100
AcDbArc
 50
270.0
 51
294.8878920264
  0
LINE
  5
C6
330
1F
100
AcDbEntity
  8
0
  6
CONTINUOUS
 62
     7
100
AcDbLine
 10
77.1872461305
 20
22.9568216808
 30
0.0
 11
76.5970991346
 21
22.9568216808
 31
0.0
  0
ARC
  5
C7
330
1F
100
AcDbEntity
  8
0
  6
CONTINUOUS
 62
     7
100
AcDbCircle
 10
76.5970994479
 20
22.9174512706
 30
0.0
 40
0.0393700787401592
100
AcDbArc
 50
90.0
 51
176.3380644245
  0
LINE
  5
C8
330
1F
100
AcDbEntity
  8
0
  6
CONTINUOUS
 62
     7
100
AcDbLine
 10
76.5578116951
 20
22.9199653599
 30
0.0
 11
76.5444217698
 21
22.71075775
 31
0.0
  0
LINE
  5
C9
330
1F
100
AcDbEntity
  8
0
  6
CONTINUOUS
 62
     7
100
AcDbLine
 10
76.5444217698
 20
22.71075775
 30
0.0
 11
76.3786739245
 21
22.71075775
 31
0.0
  0
ARC
  5
CA
330
1F
100
AcDbEntity
  8
0
  6
CONTINUOUS
 62
     7
100
AcDbCircle
 10
76.3786724437
 20
22.7501284359
 30
0.0
 40
0.0393700787401627
100
AcDbArc
 50
180.0
 51
270.0
  0
LINE
  5
CB
330
1F
100
AcDbEntity
  8
0
  6
CONTINUOUS
 62
     7
100
AcDbLine
 10
76.339302006
 20
23.2127274179
 30
0.0
 11
76.339302006
 21
22.7501273219
 31
0.0
  0
ARC
  5
CC
330
1F
100
AcDbEntity
  8
0
  6
CONTINUOUS
 62
     7
100
AcDbCircle
 10
74.8637118138
 20
40.1828843414
 30
0.0
 40
0.236220472440948
100
AcDbArc
 50
270.0
 51
0.0
  0
LINE
  5
CD
330
1F
100
AcDbEntity
  8
0
  6
CONTINUOUS
 62
     7
100
AcDbLine
 10
69.432611446
 20
39.946663386
 30
0.0
 11
74.8637115855
 21
39.946663386
 31
0.0
  0
ARC
  5
CE
330
1F
100
AcDbEntity
  8
0
  6
CONTINUOUS
 62
     7
100
AcDbCircle
 10
69.4326094516
 20
39.4742229241
 30
0.0
 40
0.472440944881896
100
AcDbArc
 50
90.0
 51
180.0
  0
LINE
  5
CF
330
1F
100
AcDbEntity
  8
0
  6
CONTINUOUS
 62
     7
100
AcDbLine
 10
68.9601671971
 20
34.6180292628
 30
0.0
 11
68.9601671971
 21
39.4742238303
 31
0.0
  0
ARC
  5
D0
330
1F
100
AcDbEntity
  8
0
  6
CONTINUOUS
 62
     7
100
AcDbCircle
 10
68.2101685067
 20
34.6180286984
 30
0.0
 40
0.75
100
AcDbArc
 50
300.0
 51
0.0
  0
ARC
  5
D1
330
1F
100
AcDbEntity
  8
0
  6
CONTINUOUS
 62
     7
100
AcDbCircle
 10
68.9601685067
 20
33.3189905927
 30
0.0
 40
0.75
100
AcDbArc
 50
120.0
 51
180.0
  0
LINE
  5
D2
330
1F
100
AcDbEntity
  8
0
  6
CONTINUOUS
 62
     7
100
AcDbLine
 10
68.2101671145
 20
30.0765425265
 30
0.0
 11
68.2101671145
 21
33.3189906161
 31
0.0
  0
ARC
  5
D3
330
1F
100
AcDbEntity
  8
0
  6
CONTINUOUS
 62
     7
100
AcDbCircle
 10
68.9601685067
 20
30.0765418697
 30
0.0
 40
0.75
100
AcDbArc
 50
180.0
 51
240.0
  0
ARC
  5
D4
330
1F
100
AcDbEntity
  8
0
  6
CONTINUOUS
 62
     7
100
AcDbCircle
 10
68.2101685067
 20
28.777503764
 30
0.0
 40
0.75
100
AcDbArc
 50
0.0
 51
60.0
  0
LINE
  5
D5
330
1F
100
AcDbEntity
  8
0
  6
CONTINUOUS
 62
     7
100
AcDbLine
 10
68.9601671971
 20
23.9213093123
 30
0.0
 11
68.9601671971
 21
28.7775038798
 31
0.0
  0
ARC
  5
D6
330
1F
100
AcDbEntity
  8
0
  6
CONTINUOUS
 62
     7
100
AcDbCircle
 10
69.4326094516
 20
23.9213095383
 30
0.0
 40
0.4724409448818889
100
AcDbArc
 50
180.0
 51
270.0
  0
LINE
  5
D7
330
1F
100
AcDbEntity
  8
0
  6
CONTINUOUS
 62
     7
100
AcDbLine
 10
74.8637115855
 20
23.4488697566
 30
0.0
 11
69.432611446
 21
23.4488697566
 31
0.0
  0
ARC
  5
D8
330
1F
100
AcDbEntity
  8
0
  6
CONTINUOUS
 62
     7
100
AcDbCircle
 10
74.8637118138
 20
23.212648121
 30
0.0
 40
0.236220472440948
100
AcDbArc
 50
0.0
 51
90.0
  0
LINE
  5
D9
330
1F
100
AcDbEntity
  8
0
  6
CONTINUOUS
 62
     7
100
AcDbLine
 10
75.09993371
 20
22.7500498828
 30
0.0
 11
75.09993371
 21
23.2126476321
 31
0.0
  0
ARC
  5
DA
330
1F
100
AcDbEntity
  8
0
  6
CONTINUOUS
 62
     7
100
AcDbCircle
 10
75.0605622075
 20
22.7500496958
 30
0.0
 40
0.0393700787401627
100
AcDbArc
 50
270.0
 51
0.0
  0
LINE
  5
DB
330
1F
100
AcDbEntity
  8
0
  6
CONTINUOUS
 62
     7
100
AcDbLine
 10
74.8948139462
 20
22.7106803109
 30
0.0
 11
74.8814240209
 21
22.9198879208
 31
0.0
  0
ARC
  5
DC
330
1F
100
AcDbEntity
  8
0
  6
CONTINUOUS
 62
     7
100
AcDbCircle
 10
74.8421352033
 20
22.9173725304
 30
0.0
 40
0.0393700787401627
100
AcDbArc
 50
3.6619355755
 51
90.0
  0
LINE
  5
DD
330
1F
100
AcDbEntity
  8
0
  6
CONTINUOUS
 62
     7
100
AcDbLine
 10
74.8421365814
 20
22.956741895
 30
0.0
 11
74.2519895855
 21
22.956741895
 31
0.0
  0
ARC
  5
DE
330
1F
100
AcDbEntity
  8
0
  6
CONTINUOUS
 62
     7
100
AcDbCircle
 10
74.2519904903
 20
22.9961126879
 30
0.0
 40
0.0393700787401544
100
AcDbArc
 50
245.1121079736
 51
270.0
  0
ARC
  5
DF
330
1F
100
AcDbEntity
  8
0
  6
CONTINUOUS
 62
     7
100
AcDbCircle
 10
74.1497618193
 20
22.775757947
 30
0.0
 40
0.2035433070866144
100
AcDbArc
 50
65.1121079736
 51
252.3995332141
  0
ARC
  5
E0
330
1F
100
AcDbEntity
  8
0
  6
CONTINUOUS
 62
     7
100
AcDbCircle
 10
74.076310239
 20
22.5442157729
 30
0.0
 40
0.0393700787401636
100
AcDbArc
 50
0.0
 51
72.3995332141
  0
LINE
  5
E1
330
1F
100
AcDbEntity
  8
0
  6
CONTINUOUS
 62
     7
100
AcDbLine
 10
74.1156779868
 20
22.464538941
 30
0.0
 11
74.1156779868
 21
22.5442167406
 31
0.0
  0
LINE
  5
E2
330
1F
100
AcDbEntity
  8
0
  6
CONTINUOUS
 62
     7
100
AcDbLine
 10
68.6826113634
 20
22.464538941
 30
0.0
 11
74.1156779868
 21
22.464538941
 31
0.0
  0
ARC
  5
E3
330
1F
100
AcDbEntity
  8
0
  6
CONTINUOUS
 62
     7
100
AcDbCircle
 10
68.6826094516
 20
22.9369788296
 30
0.0
 40
0.4724409448818925
100
AcDbArc
 50
180.0
 51
270.0
  0
LINE
  5
E4
330
1F
100
AcDbEntity
  8
0
  6
CONTINUOUS
 62
     7
100
AcDbLine
 10
68.2101671145
 20
28.3050619774
 30
0.0
 11
68.2101671145
 21
22.9369784967
 31
0.0
  0
ARC
  5
E5
330
1F
100
AcDbEntity
  8
0
  6
CONTINUOUS
 62
     7
100
AcDbCircle
 10
67.7377275618
 20
28.3050628191
 30
0.0
 40
0.472440944881896
100
AcDbArc
 50
0.0
 51
90.0
  0
LINE
  5
E6
330
1F
100
AcDbEntity
  8
0
  6
CONTINUOUS
 62
     7
100
AcDbLine
 10
66.7141046104
 20
28.7775038798
 30
0.0
 11
67.7377275588
 21
28.7775038798
 31
0.0
  0
ARC
  5
E7
330
1F
100
AcDbEntity
  8
0
  6
CONTINUOUS
 62
     7
100
AcDbCircle
 10
66.7141055146
 20
28.3050628191
 30
0.0
 40
0.472440944881896
100
AcDbArc
 50
90.0
 51
180.0
  0
LINE
  5
E8
330
1F
100
AcDbEntity
  8
0
  6
CONTINUOUS
 62
     7
100
AcDbLine
 10
66.2416650548
 20
22.9369784967
 30
0.0
 11
66.2416650548
 21
28.3050619774
 31
0.0
  0
ARC
  5
E9
330
1F
100
AcDbEntity
  8
0
  6
CONTINUOUS
 62
     7
100
AcDbCircle
 10
65.7692236248
 20
22.9369788296
 30
0.0
 40
0.472440944881896
100
AcDbArc
 50
270.0
 51
0.0
  0
LINE
  5
EA
330
1F
100
AcDbEntity
  8
0
  6
CONTINUOUS
 62
     7
100
AcDbLine
 10
60.3361541824
 20
22.464538941
 30
0.0
 11
65.7692254991
 21
22.464538941
 31
0.0
  0
LINE
  5
EB
330
1F
100
AcDbEntity
  8
0
  6
CONTINUOUS
 62
     7
100
AcDbLine
 10
60.3361541824
 20
22.5442167406
 30
0.0
 11
60.3361541824
 21
22.464538941
 31
0.0
  0
ARC
  5
EC
330
1F
100
AcDbEntity
  8
0
  6
CONTINUOUS
 62
     7
100
AcDbCircle
 10
60.3755228374
 20
22.5442157729
 30
0.0
 40
0.0393700787401627
100
AcDbArc
 50
107.6004667859
 51
180.0
  0
ARC
  5
ED
330
1F
100
AcDbEntity
  8
0
  6
CONTINUOUS
 62
     7
100
AcDbCircle
 10
60.3020712571
 20
22.775757947
 30
0.0
 40
0.2035433070866207
100
AcDbArc
 50
287.6004667859
 51
114.8878920264
  0
ARC
  5
EE
330
1F
100
AcDbEntity
  8
0
  6
CONTINUOUS
 62
     7
100
AcDbCircle
 10
60.1998425861
 20
22.9961126879
 30
0.0
 40
0.0393700787401579
100
AcDbArc
 50
270.0
 51
294.8878920264
  0
LINE
  5
EF
330
1F
100
AcDbEntity
  8
0
  6
CONTINUOUS
 62
     7
100
AcDbLine
 10
60.1998425838
 20
22.956741895
 30
0.0
 11
59.6096955878
 21
22.956741895
 31
0.0
  0
ARC
  5
F0
330
1F
100
AcDbEntity
  8
0
  6
CONTINUOUS
 62
     7
100
AcDbCircle
 10
59.6096978731
 20
22.9173725304
 30
0.0
 40
0.0393700787401556
100
AcDbArc
 50
90.0
 51
176.3380644245
  0
LINE
  5
F1
330
1F
100
AcDbEntity
  8
0
  6
CONTINUOUS
 62
     7
100
AcDbLine
 10
59.5704081484
 20
22.9198879208
 30
0.0
 11
59.557018223
 21
22.7106803109
 31
0.0
  0
LINE
  5
F2
330
1F
100
AcDbEntity
  8
0
  6
CONTINUOUS
 62
     7
100
AcDbLine
 10
59.557018223
 20
22.7106803109
 30
0.0
 11
59.3912703778
 21
22.7106803109
 31
0.0
  0
ARC
  5
F3
330
1F
100
AcDbEntity
  8
0
  6
CONTINUOUS
 62
     7
100
AcDbCircle
 10
59.3912708689
 20
22.7500496958
 30
0.0
 40
0.0393700787401556
100
AcDbArc
 50
180.0
 51
270.0
  0
LINE
  5
F4
330
1F
100
AcDbEntity
  8
0
  6
CONTINUOUS
 62
     7
100
AcDbLine
 10
59.3518984593
 20
23.2126476321
 30
0.0
 11
59.3518984593
 21
22.7500498828
 31
0.0
  0
ARC
  5
F5
330
1F
100
AcDbEntity
  8
0
  6
CONTINUOUS
 62
     7
100
AcDbCircle
 10
59.5881212626
 20
23.212648121
 30
0.0
 40
0.236220472440948
100
AcDbArc
 50
90.0
 51
180.0
  0
LINE
  5
F6
330
1F
100
AcDbEntity
  8
0
  6
CONTINUOUS
 62
     7
100
AcDbLine
 10
65.0192254165
 20
23.4488697566
 30
0.0
 11
59.5881205838
 21
23.4488697566
 31
0.0
  0
ARC
  5
F7
330
1F
100
AcDbEntity
  8
0
  6
CONTINUOUS
 62
     7
100
AcDbCircle
 10
65.0192236248
 20
23.9213095383
 30
0.0
 40
0.472440944881896
100
AcDbArc
 50
270.0
 51
0.0
  0
LINE
  5
F8
330
1F
100
AcDbEntity
  8
0
  6
CONTINUOUS
 62
     7
100
AcDbLine
 10
65.4916649722
 20
28.7775038798
 30
0.0
 11
65.4916649722
 21
23.9213093123
 31
0.0
  0
ARC
  5
F9
330
1F
100
AcDbEntity
  8
0
  6
CONTINUOUS
 62
     7
100
AcDbCircle
 10
66.2416645697
 20
28.777503764
 30
0.0
 40
0.7500000000000031
100
AcDbArc
 50
120.0
 51
180.0
  0
ARC
  5
FA
330
1F
100
AcDbEntity
  8
0
  6
CONTINUOUS
 62
     7
100
AcDbCircle
 10
65.4916645697
 20
30.0765418697
 30
0.0
 40
0.75
100
AcDbArc
 50
300.0
 51
0.0
  0
LINE
  5
FB
330
1F
100
AcDbEntity
  8
0
  6
CONTINUOUS
 62
     7
100
AcDbLine
 10
66.2416650548
 20
33.3189906161
 30
0.0
 11
66.2416650548
 21
30.0765425265
 31
0.0
  0
ARC
  5
FC
330
1F
100
AcDbEntity
  8
0
  6
CONTINUOUS
 62
     7
100
AcDbCircle
 10
65.4916645697
 20
33.3189905927
 30
0.0
 40
0.75
100
AcDbArc
 50
0.0
 51
60.0
  0
ARC
  5
FD
330
1F
100
AcDbEntity
  8
0
  6
CONTINUOUS
 62
     7
100
AcDbCircle
 10
66.2416645697
 20
34.6180286984
 30
0.0
 40
0.75
100
AcDbArc
 50
180.0
 51
240.0
  0
LINE
  5
FE
330
1F
100
AcDbEntity
  8
0
  6
CONTINUOUS
 62
     7
100
AcDbLine
 10
65.4916649722
 20
39.4742238303
 30
0.0
 11
65.4916649722
 21
34.6180292628
 31
0.0
  0
ARC
  5
FF
330
1F
100
AcDbEntity
  8
0
  6
CONTINUOUS
 62
     7
100
AcDbCircle
 10
65.0192236248
 20
39.4742229241
 30
0.0
 40
0.4724409448819102
100
AcDbArc
 50
0.0
 51
90.0
  0
LINE
  5
100
330
1F
100
AcDbEntity
  8
0
  6
CONTINUOUS
 62
     7
100
AcDbLine
 10
59.5881205838
 20
39.946663386
 30
0.0
 11
65.0192254165
 21
39.946663386
 31
0.0
  0
ARC
  5
101
330
1F
100
AcDbEntity
  8
0
  6
CONTINUOUS
 62
     7
100
AcDbCircle
 10
59.5881212626
 20
40.1828843414
 30
0.0
 40
0.236220472440948
100
AcDbArc
 50
180.0
 51
270.0
  0
LINE
  5
102
330
1F
100
AcDbEntity
  8
0
  6
CONTINUOUS
 62
     7
100
AcDbLine
 10
59.3518984593
 20
40.6454832598
 30
0.0
 11
59.3518984593
 21
40.1828855105
 31
0.0
  0
ARC
  5
103
330
1F
100
AcDbEntity
  8
0
  6
CONTINUOUS
 62
     7
100
AcDbCircle
 10
59.3912708689
 20
40.6454827666
 30
0.0
 40
0.0393700787401556
100
AcDbArc
 50
90.0
 51
180.0
  0
LINE
  5
104
330
1F
100
AcDbEntity
  8
0
  6
CONTINUOUS
 62
     7
100
AcDbLine
 10
59.3912703778
 20
40.6848551784
 30
0.0
 11
59.557018223
 21
40.6848551784
 31
0.0
  0
LINE
  5
105
330
1F
100
AcDbEntity
  8
0
  6
CONTINUOUS
 62
     7
100
AcDbLine
 10
59.557018223
 20
40.6848551784
 30
0.0
 11
59.5704081484
 21
40.4756475685
 31
0.0
  0
ARC
  5
106
330
1F
100
AcDbEntity
  8
0
  6
CONTINUOUS
 62
     7
100
AcDbCircle
 10
59.6096978731
 20
40.478159932
 30
0.0
 40
0.0393700787401627
100
AcDbArc
 50
183.6619355755
 51
270.0
  0
LINE
  5
107
330
1F
100
AcDbEntity
  8
0
  6
CONTINUOUS
 62
     7
100
AcDbLine
 10
59.6096955878
 20
40.4387912476
 30
0.0
 11
60.1998425838
 21
40.4387912476
 31
0.0
  0
ARC
  5
108
330
1F
100
AcDbEntity
  8
0
  6
CONTINUOUS
 62
     7
100
AcDbCircle
 10
60.1998425861
 20
40.3994197745
 30
0.0
 40
0.0393700787401627
100
AcDbArc
 50
65.1121079736
 51
90.0
  0
ARC
  5
109
330
1F
100
AcDbEntity
  8
0
  6
CONTINUOUS
 62
     7
100
AcDbCircle
 10
60.3020712571
 20
40.6197745154
 30
0.0
 40
0.2035433070866174
100
AcDbArc
 50
245.1121079736
 51
72.3995332141
  0
ARC
  5
10A
330
1F
100
AcDbEntity
  8
0
  6
CONTINUOUS
 62
     7
100
AcDbCircle
 10
60.3755228374
 20
40.8513166895
 30
0.0
 40
0.0393700787401569
100
AcDbArc
 50
180.0
 51
252.3995332141
  0
LINE
  5
10B
330
1F
100
AcDbEntity
  8
0
  6
CONTINUOUS
 62
     7
100
AcDbLine
 10
60.3361541824
 20
40.9309942016
 30
0.0
 11
60.3361541824
 21
40.851316402
 31
0.0
  0
LINE
  5
10C
330
1F
100
AcDbEntity
  8
0
  6
CONTINUOUS
 62
     7
100
AcDbLine
 10
65.7692254991
 20
40.9309942016
 30
0.0
 11
60.3361541824
 21
40.9309942016
 31
0.0
  0
ARC
  5
10D
330
1F
100
AcDbEntity
  8
0
  6
CONTINUOUS
 62
     7
100
AcDbCircle
 10
65.7692236248
 20
40.4585536328
 30
0.0
 40
0.472440944881896
100
AcDbArc
 50
0.0
 51
90.0
  0
LINE
  5
10E
330
1F
100
AcDbEntity
  8
0
  6
CONTINUOUS
 62
     7
100
AcDbLine
 10
66.2416650548
 20
35.0904688185
 30
0.0
 11
66.2416650548
 21
40.4585546459
 31
0.0
  0
ARC
  5
10F
330
1F
100
AcDbEntity
  8
0
  6
CONTINUOUS
 62
     7
100
AcDbCircle
 10
66.7141055146
 20
35.0904696433
 30
0.0
 40
0.472440944881896
100
AcDbArc
 50
180.0
 51
270.0
  0
LINE
  5
110
330
1F
100
AcDbEntity
  8
0
  6
CONTINUOUS
 62
     7
100
AcDbLine
 10
67.7377275588
 20
34.6180292628
 30
0.0
 11
66.7141046104
 21
34.6180292628
 31
0.0
  0
ARC
  5
111
330
1F
100
AcDbEntity
  8
0
  6
CONTINUOUS
 62
     7
100
AcDbCircle
 10
67.7377275618
 20
35.0904696433
 30
0.0
 40
0.472440944881896
100
AcDbArc
 50
270.0
 51
0.0
  0
LINE
  5
112
330
1F
100
AcDbEntity
  8
0
  6
CONTINUOUS
 62
     7
100
AcDbLine
 10
68.2101671145
 20
40.4585546459
 30
0.0
 11
68.2101671145
 21
35.0904688185
 31
0.0
  0
ARC
  5
113
330
1F
100
AcDbEntity
  8
0
  6
CONTINUOUS
 62
     7
100
AcDbCircle
 10
68.6826094516
 20
40.4585536328
 30
0.0
 40
0.4724409448818889
100
AcDbArc
 50
90.0
 51
180.0
  0
LINE
  5
114
330
1F
100
AcDbEntity
  8
0
  6
CONTINUOUS
 62
     7
100
AcDbLine
 10
74.1156779868
 20
40.9309942016
 30
0.0
 11
68.6826113634
 21
40.9309942016
 31
0.0
  0
LINE
  5
115
330
1F
100
AcDbEntity
  8
0
  6
CONTINUOUS
 62
     7
100
AcDbLine
 10
74.1156779868
 20
40.851316402
 30
0.0
 11
74.1156779868
 21
40.9309942016
 31
0.0
  0
ARC
  5
116
330
1F
100
AcDbEntity
  8
0
  6
CONTINUOUS
 62
     7
100
AcDbCircle
 10
74.076310239
 20
40.8513166895
 30
0.0
 40
0.0393700787401627
100
AcDbArc
 50
287.6004667859
 51
0.0
  0
ARC
  5
117
330
1F
100
AcDbEntity
  8
0
  6
CONTINUOUS
 62
     7
100
AcDbCircle
 10
74.1497618193
 20
40.6197745154
 30
0.0
 40
0.2035433070866241
100
AcDbArc
 50
107.6004667859
 51
294.8878920264
  0
ARC
  5
118
330
1F
100
AcDbEntity
  8
0
  6
CONTINUOUS
 62
     7
100
AcDbCircle
 10
74.2519904903
 20
40.3994197745
 30
0.0
 40
0.0393700787401485
100
AcDbArc
 50
90.0
 51
114.8878920264
  0
LINE
  5
119
330
1F
100
AcDbEntity
  8
0
  6
CONTINUOUS
 62
     7
100
AcDbLine
 10
74.2519895855
 20
40.4387912476
 30
0.0
 11
74.8421365814
 21
40.4387912476
 31
0.0
  0
ARC
  5
11A
330
1F
100
AcDbEntity
  8
0
  6
CONTINUOUS
 62
     7
100
AcDbCircle
 10
74.8421352033
 20
40.478159932
 30
0.0
 40
0.0393700787401556
100
AcDbArc
 50
270.0
 51
356.3380644245
  0
LINE
  5
11B
330
1F
100
AcDbEntity
  8
0
  6
CONTINUOUS
 62
     7
100
AcDbLine
 10
74.8814240209
 20
40.4756475685
 30
0.0
 11
74.8948139462
 21
40.6848551784
 31
0.0
  0
LINE
  5
11C
330
1F
100
AcDbEntity
  8
0
  6
CONTINUOUS
 62
     7
100
AcDbLine
 10
74.8948139462
 20
40.6848551784
 30
0.0
 11
75.0605617915
 21
40.6848551784
 31
0.0
  0
ARC
  5
11D
330
1F
100
AcDbEntity
  8
0
  6
CONTINUOUS
 62
     7
100
AcDbCircle
 10
75.0605622075
 20
40.6454827666
 30
0.0
 40
0.0393700787401627
100
AcDbArc
 50
0.0
 51
90.0
  0
LINE
  5
11E
330
1F
100
AcDbEntity
  8
0
  6
CONTINUOUS
 62
     7
100
AcDbLine
 10
75.09993371
 20
40.1828855105
 30
0.0
 11
75.09993371
 21
40.6454832598
 31
0.0
  0
LINE
  5
11F
330
1F
100
AcDbEntity
  8
0
  6
CONTINUOUS
 62
     7
100
AcDbLine
 10
75.0605617915
 20
22.7106803109
 30
0.0
 11
74.8948139462
 21
22.7106803109
 31
0.0
  0
LINE
  5
120
330
1F
100
AcDbEntity
  8
0
  6
CONTINUOUS
 62
     7
100
AcDbLine
 10
89.6503286092
 20
1.1839079433
 30
0.0
 11
89.6503286092
 21
2.7587109844
 31
0.0
  0
LINE
  5
121
330
1F
100
AcDbEntity
  8
0
  6
CONTINUOUS
 62
     7
100
AcDbLine
 10
75.1208000289
 20
1.1839079433
 30
0.0
 11
89.6503286092
 21
1.1839079433
 31
0.0
  0
LINE
  5
122
330
1F
100
AcDbEntity
  8
0
  6
CONTINUOUS
 62
     7
100
AcDbLine
 10
75.1208000289
 20
2.7587109844
 30
0.0
 11
75.1208000289
 21
1.1839079433
 31
0.0
  0
LINE
  5
123
330
1F
100
AcDbEntity
  8
0
  6
CONTINUOUS
 62
     7
100
AcDbLine
 10
75.1208000289
 20
2.7587109844
 30
0.0
 11
89.6503286092
 21
2.7587109844
 31
0.0
  0
LINE
  5
124
330
1F
100
AcDbEntity
  8
0
  6
CONTINUOUS
 62
     7
100
AcDbLine
 10
89.6503286092
 20
21.2252457374
 30
0.0
 11
75.1208000289
 21
21.2252457374
 31
0.0
  0
LINE
  5
125
330
1F
100
AcDbEntity
  8
0
  6
CONTINUOUS
 62
     7
100
AcDbLine
 10
89.6503286092
 20
3.5154039764
 30
0.0
 11
75.1208000289
 21
3.5154039764
 31
0.0
  0
LINE
  5
126
330
1F
100
AcDbEntity
  8
0
  6
CONTINUOUS
 62
     7
100
AcDbLine
 10
75.1208000289
 20
21.2252457374
 30
0.0
 11
75.1208000289
 21
3.5154039764
 31
0.0
  0
LINE
  5
127
330
1F
100
AcDbEntity
  8
0
  6
CONTINUOUS
 62
     7
100
AcDbLine
 10
89.6503286092
 20
3.5154039764
 30
0.0
 11
89.6503286092
 21
21.2252457374
 31
0.0
  0
LINE
  5
128
330
1F
100
AcDbEntity
  8
0
  6
CONTINUOUS
 62
     7
100
AcDbLine
 10
75.1208000289
 20
2.7587109844
 30
0.0
 11
75.1208000289
 21
3.5154039764
 31
0.0
  0
LINE
  5
129
330
1F
100
AcDbEntity
  8
0
  6
CONTINUOUS
 62
     7
100
AcDbLine
 10
89.6503286092
 20
3.5154039764
 30
0.0
 11
89.6503286092
 21
2.7587109844
 31
0.0
  0
LINE
  5
12A
330
1F
100
AcDbEntity
  8
0
  6
CONTINUOUS
 62
     7
100
AcDbLine
 10
59.3518984593
 20
1.1839079433
 30
0.0
 11
73.8814270396
 21
1.1839079433
 31
0.0
  0
LINE
  5
12B
330
1F
100
AcDbEntity
  8
0
  6
CONTINUOUS
 62
     7
100
AcDbLine
 10
59.3518984593
 20
2.7587109844
 30
0.0
 11
59.3518984593
 21
1.1839079433
 31
0.0
  0
LINE
  5
12C
330
1F
100
AcDbEntity
  8
0
  6
CONTINUOUS
 62
     7
100
AcDbLine
 10
73.8814270396
 20
2.7587109844
 30
0.0
 11
59.3518984593
 21
2.7587109844
 31
0.0
  0
LINE
  5
12D
330
1F
100
AcDbEntity
  8
0
  6
CONTINUOUS
 62
     7
100
AcDbLine
 10
73.8814270396
 20
1.1839079433
 30
0.0
 11
73.8814270396
 21
2.7587109844
 31
0.0
  0
LINE
  5
12E
330
1F
100
AcDbEntity
  8
0
  6
CONTINUOUS
 62
     7
100
AcDbLine
 10
73.8814270396
 20
21.2252457374
 30
0.0
 11
59.3518984593
 21
21.2252457374
 31
0.0
  0
LINE
  5
12F
330
1F
100
AcDbEntity
  8
0
  6
CONTINUOUS
 62
     7
100
AcDbLine
 10
59.3518984593
 20
3.5154039764
 30
0.0
 11
73.8814270396
 21
3.5154039764
 31
0.0
  0
LINE
  5
130
330
1F
100
AcDbEntity
  8
0
  6
CONTINUOUS
 62
     7
100
AcDbLine
 10
59.3518984593
 20
21.2252457374
 30
0.0
 11
59.3518984593
 21
3.5154039764
 31
0.0
  0
LINE
  5
131
330
1F
100
AcDbEntity
  8
0
  6
CONTINUOUS
 62
     7
100
AcDbLine
 10
73.8814270396
 20
3.5154039764
 30
0.0
 11
73.8814270396
 21
21.2252457374
 31
0.0
  0
LINE
  5
132
330
1F
100
AcDbEntity
  8
0
  6
CONTINUOUS
 62
     7
100
AcDbLine
 10
59.3518984593
 20
2.7587109844
 30
0.0
 11
59.3518984593
 21
3.5154039764
 31
0.0
  0
LINE
  5
133
330
1F
100
AcDbEntity
  8
0
  6
CONTINUOUS
 62
     7
100
AcDbLine
 10
73.8814270396
 20
3.5154039764
 30
0.0
 11
73.8814270396
 21
2.7587109844
 31
0.0
  0
ARC
  5
134
330
1F
100
AcDbEntity
  8
0
  6
CONTINUOUS
 62
     7
100
AcDbCircle
 10
41.0731602485
 20
44.209328186
 30
0.0
 40
0.2035433070866149
100
AcDbArc
 50
356.0551821437
 51
24.8879066246
  0
ARC
  5
135
330
1F
100
AcDbEntity
  8
0
  6
CONTINUOUS
 62
     7
100
AcDbCircle
 10
41.2935149634
 20
44.3115569132
 30
0.0
 40
0.0393700787401529
100
AcDbArc
 50
180.0
 51
204.8879066246
  0
LINE
  5
136
330
1F
100
AcDbEntity
  8
0
  6
CONTINUOUS
 62
     7
100
AcDbLine
 10
41.2541448594
 20
44.802320573
 30
0.0
 11
41.2541448594
 21
44.3115584557
 31
0.0
  0
ARC
  5
137
330
1F
100
AcDbEntity
  8
0
  6
CONTINUOUS
 62
     7
100
AcDbCircle
 10
41.2935167258
 20
44.8023220059
 30
0.0
 40
0.0393718412080943
100
AcDbArc
 50
155.1122143058
 51
180.0
  0
ARC
  5
138
330
1F
100
AcDbEntity
  8
0
  6
CONTINUOUS
 62
     7
100
AcDbCircle
 10
41.0731601964
 20
44.9045510097
 30
0.0
 40
0.2035433070866152
100
AcDbArc
 50
335.1122143058
 51
162.3995461274
  0
ARC
  5
139
330
1F
100
AcDbEntity
  8
0
  6
CONTINUOUS
 62
     7
100
AcDbCircle
 10
40.8416180058
 20
44.9780025378
 30
0.0
 40
0.0393700787401574
100
AcDbArc
 50
270.0000619979
 51
342.3995461274
  0
LINE
  5
13A
330
1F
100
AcDbEntity
  8
0
  6
CONTINUOUS
 62
     7
100
AcDbLine
 10
40.682418984
 20
44.9386321717
 30
0.0
 11
40.8416197049
 21
44.9386321717
 31
0.0
  0
ARC
  5
13B
330
1F
100
AcDbEntity
  8
0
  6
CONTINUOUS
 62
     7
100
AcDbCircle
 10
40.6824197097
 20
44.9780023655
 30
0.0
 40
0.0393701262906616
100
AcDbArc
 50
197.6004796992
 51
270.0000619979
  0
ARC
  5
13C
330
1F
100
AcDbEntity
  8
0
  6
CONTINUOUS
 62
     7
100
AcDbCircle
 10
40.4508775522
 20
44.9045507331
 30
0.0
 40
0.2035432595361014
100
AcDbArc
 50
17.6004796991
 51
204.8878234094
  0
ARC
  5
13D
330
1F
100
AcDbEntity
  8
0
  6
CONTINUOUS
 62
     7
100
AcDbCircle
 10
40.2305228374
 20
44.8023223948
 30
0.0
 40
0.0393700101665846
100
AcDbArc
 50
0.0
 51
24.8878234094
  0
LINE
  5
13E
330
1F
100
AcDbEntity
  8
0
  6
CONTINUOUS
 62
     7
100
AcDbLine
 10
40.2698938296
 20
44.3115584557
 30
0.0
 11
40.2698938296
 21
44.802320573
 31
0.0
  0
ARC
  5
13F
330
1F
100
AcDbEntity
  8
0
  6
CONTINUOUS
 62
     7
100
AcDbCircle
 10
40.2305228374
 20
44.3115565243
 30
0.0
 40
0.039370078740158
100
AcDbArc
 50
335.1121225719
 51
0.0
  0
ARC
  5
140
330
1F
100
AcDbEntity
  8
0
  6
CONTINUOUS
 62
     7
100
AcDbCircle
 10
40.4508776043
 20
44.2093279094
 30
0.0
 40
0.203543307086615
100
AcDbArc
 50
155.1121225719
 51
183.9447398015
  0
LINE
  5
141
330
1F
100
AcDbEntity
  8
0
  6
CONTINUOUS
 62
     7
100
AcDbLine
 10
40.2478166446
 20
44.1953247051
 30
0.0
 11
24.7841190159
 21
44.1953247051
 31
0.0
  0
ARC
  5
142
330
1F
100
AcDbEntity
  8
0
  6
CONTINUOUS
 62
     7
100
AcDbCircle
 10
24.5810578863
 20
44.209328186
 30
0.0
 40
0.2035433070866136
100
AcDbArc
 50
356.0551821437
 51
24.8879066246
  0
ARC
  5
143
330
1F
100
AcDbEntity
  8
0
  6
CONTINUOUS
 62
     7
100
AcDbCircle
 10
24.8014126012
 20
44.3115569132
 30
0.0
 40
0.0393700787401559
100
AcDbArc
 50
180.0
 51
204.8879066246
  0
LINE
  5
144
330
1F
100
AcDbEntity
  8
0
  6
CONTINUOUS
 62
     7
100
AcDbLine
 10
24.7620418309
 20
44.802320573
 30
0.0
 11
24.7620418309
 21
44.3115584557
 31
0.0
  0
ARC
  5
145
330
1F
100
AcDbEntity
  8
0
  6
CONTINUOUS
 62
     7
100
AcDbCircle
 10
24.8014143636
 20
44.8023220059
 30
0.0
 40
0.0393718412080883
100
AcDbArc
 50
155.1122143058
 51
180.0
  0
ARC
  5
146
330
1F
100
AcDbEntity
  8
0
  6
CONTINUOUS
 62
     7
100
AcDbCircle
 10
24.5810578342
 20
44.9045510097
 30
0.0
 40
0.2035433070866144
100
AcDbArc
 50
335.1122143058
 51
162.3995461274
  0
ARC
  5
147
330
1F
100
AcDbEntity
  8
0
  6
CONTINUOUS
 62
     7
100
AcDbCircle
 10
24.3495156436
 20
44.9780025378
 30
0.0
 40
0.0393700787401588
100
AcDbArc
 50
270.0000619979
 51
342.3995461274
  0
LINE
  5
148
330
1F
100
AcDbEntity
  8
0
  6
CONTINUOUS
 62
     7
100
AcDbLine
 10
24.1903183022
 20
44.9386321717
 30
0.0
 11
24.3495166764
 21
44.9386321717
 31
0.0
  0
ARC
  5
149
330
1F
100
AcDbEntity
  8
0
  6
CONTINUOUS
 62
     7
100
AcDbCircle
 10
24.1903173475
 20
44.9780023655
 30
0.0
 40
0.039370126290673
100
AcDbArc
 50
197.6004796991
 51
270.0000619979
  0
ARC
  5
14A
330
1F
100
AcDbEntity
  8
0
  6
CONTINUOUS
 62
     7
100
AcDbCircle
 10
23.95877519
 20
44.9045507331
 30
0.0
 40
0.2035432595360968
100
AcDbArc
 50
17.6004796991
 51
204.8878234094
  0
ARC
  5
14B
330
1F
100
AcDbEntity
  8
0
  6
CONTINUOUS
 62
     7
100
AcDbCircle
 10
23.7384204752
 20
44.8023223948
 30
0.0
 40
0.0393700101665876
100
AcDbArc
 50
0.0
 51
24.8878234094
  0
LINE
  5
14C
330
1F
100
AcDbEntity
  8
0
  6
CONTINUOUS
 62
     7
100
AcDbLine
 10
23.7777908011
 20
44.3115584557
 30
0.0
 11
23.7777908011
 21
44.802320573
 31
0.0
  0
ARC
  5
14D
330
1F
100
AcDbEntity
  8
0
  6
CONTINUOUS
 62
     7
100
AcDbCircle
 10
23.7384204752
 20
44.3115565243
 30
0.0
 40
0.0393700787401556
100
AcDbArc
 50
335.1121225719
 51
0.0
  0
ARC
  5
14E
330
1F
100
AcDbEntity
  8
0
  6
CONTINUOUS
 62
     7
100
AcDbCircle
 10
23.9587752421
 20
44.2093279094
 30
0.0
 40
0.2035433070866164
100
AcDbArc
 50
155.1121225719
 51
183.9447398015
  0
LINE
  5
14F
330
1F
100
AcDbEntity
  8
0
  6
CONTINUOUS
 62
     7
100
AcDbLine
 10
23.7557136161
 20
44.1953247051
 30
0.0
 11
22.3022942461
 21
44.1953247051
 31
0.0
  0
LINE
  5
150
330
1F
100
AcDbEntity
  8
0
  6
CONTINUOUS
 62
     7
100
AcDbLine
 10
22.3022942461
 20
45.2862680491
 30
0.0
 11
22.3022942461
 21
44.1953247051
 31
0.0
  0
ARC
  5
151
330
1F
100
AcDbEntity
  8
0
  6
CONTINUOUS
 62
     7
100
AcDbCircle
 10
22.5385149634
 20
45.2862701682
 30
0.0
 40
0.236220472440948
100
AcDbArc
 50
90.0
 51
180.0
  0
LINE
  5
152
330
1F
100
AcDbEntity
  8
0
  6
CONTINUOUS
 62
     7
100
AcDbLine
 10
42.1074111624
 20
45.5224901736
 30
0.0
 11
22.538514024
 21
45.5224901736
 31
0.0
  0
ARC
  5
153
330
1F
100
AcDbEntity
  8
0
  6
CONTINUOUS
 62
     7
100
AcDbCircle
 10
42.1074126012
 20
45.2862701682
 30
0.0
 40
0.236220472440948
100
AcDbArc
 50
0.0
 51
90.0
  0
LINE
  5
154
330
1F
100
AcDbEntity
  8
0
  6
CONTINUOUS
 62
     7
100
AcDbLine
 10
42.3436332869
 20
44.1953247051
 30
0.0
 11
42.3436332869
 21
45.2862680491
 31
0.0
  0
LINE
  5
155
330
1F
100
AcDbEntity
  8
0
  6
CONTINUOUS
 62
     7
100
AcDbLine
 10
42.3436332869
 20
44.1953247051
 30
0.0
 11
41.2762220444
 21
44.1953247051
 31
0.0
  0
ARC
  5
156
330
1F
100
AcDbEntity
  8
0
  6
CONTINUOUS
 62
     7
100
AcDbCircle
 10
23.95877519
 20
2.4970704181
 30
0.0
 40
0.2035432595361063
100
AcDbArc
 50
176.0551812207
 51
204.8878234094
  0
ARC
  5
157
330
1F
100
AcDbEntity
  8
0
  6
CONTINUOUS
 62
     7
100
AcDbCircle
 10
23.7384204752
 20
2.3948420799
 30
0.0
 40
0.0393700101665902
100
AcDbArc
 50
0.0
 51
24.8878234094
  0
LINE
  5
158
330
1F
100
AcDbEntity
  8
0
  6
CONTINUOUS
 62
     7
100
AcDbLine
 10
23.7777908011
 20
1.9040761506
 30
0.0
 11
23.7777908011
 21
2.3948420812
 31
0.0
  0
ARC
  5
159
330
1F
100
AcDbEntity
  8
0
  6
CONTINUOUS
 62
     7
100
AcDbCircle
 10
23.7384204752
 20
1.9040762093
 30
0.0
 40
0.0393700787401627
100
AcDbArc
 50
335.1121225719
 51
0.0
  0
ARC
  5
15A
330
1F
100
AcDbEntity
  8
0
  6
CONTINUOUS
 62
     7
100
AcDbCircle
 10
23.9587752421
 20
1.8018475944
 30
0.0
 40
0.2035433070866169
100
AcDbArc
 50
155.1121225719
 51
342.3995461274
  0
ARC
  5
15B
330
1F
100
AcDbEntity
  8
0
  6
CONTINUOUS
 62
     7
100
AcDbCircle
 10
24.1903174327
 20
1.7283960663
 30
0.0
 40
0.0393700787401568
100
AcDbArc
 50
90.0000619979
 51
162.3995461274
  0
LINE
  5
15C
330
1F
100
AcDbEntity
  8
0
  6
CONTINUOUS
 62
     7
100
AcDbLine
 10
24.3495166764
 20
1.7677663119
 30
0.0
 11
24.1903183022
 21
1.7677661652
 31
0.0
  0
ARC
  5
15D
330
1F
100
AcDbEntity
  8
0
  6
CONTINUOUS
 62
     7
100
AcDbCircle
 10
24.3495157288
 20
1.7283962386
 30
0.0
 40
0.0393700787401611
100
AcDbArc
 50
17.6004796991
 51
90.0000619979
  0
ARC
  5
15E
330
1F
100
AcDbEntity
  8
0
  6
CONTINUOUS
 62
     7
100
AcDbCircle
 10
24.5810578863
 20
1.8018478711
 30
0.0
 40
0.2035433070866124
100
AcDbArc
 50
197.6004796991
 51
24.8879066246
  0
ARC
  5
15F
330
1F
100
AcDbEntity
  8
0
  6
CONTINUOUS
 62
     7
100
AcDbCircle
 10
24.8014126012
 20
1.9040765982
 30
0.0
 40
0.0393700787401593
100
AcDbArc
 50
180.0
 51
204.8879066246
  0
LINE
  5
160
330
1F
100
AcDbEntity
  8
0
  6
CONTINUOUS
 62
     7
100
AcDbLine
 10
24.7620418309
 20
2.3948416412
 30
0.0
 11
24.7620418309
 21
1.9040765905
 31
0.0
  0
ARC
  5
161
330
1F
100
AcDbEntity
  8
0
  6
CONTINUOUS
 62
     7
100
AcDbCircle
 10
24.8014143636
 20
2.3948416909
 30
0.0
 40
0.0393718412080872
100
AcDbArc
 50
155.1122143058
 51
180.0
  0
ARC
  5
162
330
1F
100
AcDbEntity
  8
0
  6
CONTINUOUS
 62
     7
100
AcDbCircle
 10
24.5810578342
 20
2.4970706947
 30
0.0
 40
0.2035433070866151
100
AcDbArc
 50
335.1122143058
 51
3.9447398014
  0
LINE
  5
163
330
1F
100
AcDbEntity
  8
0
  6
CONTINUOUS
 62
     7
100
AcDbLine
 10
24.7841190159
 20
2.5110733385
 30
0.0
 11
40.2478166446
 21
2.5110733385
 31
0.0
  0
ARC
  5
164
330
1F
100
AcDbEntity
  8
0
  6
CONTINUOUS
 62
     7
100
AcDbCircle
 10
40.4508775522
 20
2.4970704181
 30
0.0
 40
0.2035432595361066
100
AcDbArc
 50
176.0551812207
 51
204.8878234094
  0
ARC
  5
165
330
1F
100
AcDbEntity
  8
0
  6
CONTINUOUS
 62
     7
100
AcDbCircle
 10
40.2305228374
 20
2.3948420799
 30
0.0
 40
0.0393700101665868
100
AcDbArc
 50
0.0
 51
24.8878234094
  0
LINE
  5
166
330
1F
100
AcDbEntity
  8
0
  6
CONTINUOUS
 62
     7
100
AcDbLine
 10
40.2698938296
 20
1.9040761506
 30
0.0
 11
40.2698938296
 21
2.3948420812
 31
0.0
  0
ARC
  5
167
330
1F
100
AcDbEntity
  8
0
  6
CONTINUOUS
 62
     7
100
AcDbCircle
 10
40.2305228374
 20
1.9040762093
 30
0.0
 40
0.0393700787401533
100
AcDbArc
 50
335.1121225718
 51
0.0
  0
ARC
  5
168
330
1F
100
AcDbEntity
  8
0
  6
CONTINUOUS
 62
     7
100
AcDbCircle
 10
40.4508776043
 20
1.8018475944
 30
0.0
 40
0.2035433070866183
100
AcDbArc
 50
155.1121225719
 51
342.3995461274
  0
ARC
  5
169
330
1F
100
AcDbEntity
  8
0
  6
CONTINUOUS
 62
     7
100
AcDbCircle
 10
40.6824197949
 20
1.7283960663
 30
0.0
 40
0.0393700787401587
100
AcDbArc
 50
90.0000619979
 51
162.3995461274
  0
LINE
  5
16A
330
1F
100
AcDbEntity
  8
0
  6
CONTINUOUS
 62
     7
100
AcDbLine
 10
40.8416197049
 20
1.7677663119
 30
0.0
 11
40.682418984
 21
1.7677661652
 31
0.0
  0
ARC
  5
16B
330
1F
100
AcDbEntity
  8
0
  6
CONTINUOUS
 62
     7
100
AcDbCircle
 10
40.841618091
 20
1.7283962386
 30
0.0
 40
0.0393700787401545
100
AcDbArc
 50
17.6004796991
 51
90.0000619979
  0
ARC
  5
16C
330
1F
100
AcDbEntity
  8
0
  6
CONTINUOUS
 62
     7
100
AcDbCircle
 10
41.0731602485
 20
1.8018478711
 30
0.0
 40
0.2035433070866205
100
AcDbArc
 50
197.6004796991
 51
24.8879066246
  0
ARC
  5
16D
330
1F
100
AcDbEntity
  8
0
  6
CONTINUOUS
 62
     7
100
AcDbCircle
 10
41.2935149634
 20
1.9040765982
 30
0.0
 40
0.0393700787401542
100
AcDbArc
 50
180.0
 51
204.8879066246
  0
LINE
  5
16E
330
1F
100
AcDbEntity
  8
0
  6
CONTINUOUS
 62
     7
100
AcDbLine
 10
41.2541448594
 20
2.3948416412
 30
0.0
 11
41.2541448594
 21
1.9040765905
 31
0.0
  0
ARC
  5
16F
330
1F
100
AcDbEntity
  8
0
  6
CONTINUOUS
 62
     7
100
AcDbCircle
 10
41.2935167258
 20
2.3948416909
 30
0.0
 40
0.0393718412080864
100
AcDbArc
 50
155.1122143058
 51
180.0
  0
ARC
  5
170
330
1F
100
AcDbEntity
  8
0
  6
CONTINUOUS
 62
     7
100
AcDbCircle
 10
41.0731601964
 20
2.4970706947
 30
0.0
 40
0.2035433070866163
100
AcDbArc
 50
335.1122143058
 51
3.9447398014
  0
LINE
  5
171
330
1F
100
AcDbEntity
  8
0
  6
CONTINUOUS
 62
     7
100
AcDbLine
 10
41.2762220444
 20
2.5110733385
 30
0.0
 11
42.3436332869
 21
2.5110733385
 31
0.0
  0
LINE
  5
172
330
1F
100
AcDbEntity
  8
0
  6
CONTINUOUS
 62
     7
100
AcDbLine
 10
42.3436332869
 20
1.4201283812
 30
0.0
 11
42.3436332869
 21
2.5110733385
 31
0.0
  0
ARC
  5
173
330
1F
100
AcDbEntity
  8
0
  6
CONTINUOUS
 62
     7
100
AcDbCircle
 10
42.1074126012
 20
1.4201284359
 30
0.0
 40
0.236220472440948
100
AcDbArc
 50
270.0
 51
0.0
  0
LINE
  5
174
330
1F
100
AcDbEntity
  8
0
  6
CONTINUOUS
 62
     7
100
AcDbLine
 10
22.538514024
 20
1.1839079433
 30
0.0
 11
42.1074111624
 21
1.1839079433
 31
0.0
  0
ARC
  5
175
330
1F
100
AcDbEntity
  8
0
  6
CONTINUOUS
 62
     7
100
AcDbCircle
 10
22.5385149634
 20
1.4201284359
 30
0.0
 40
0.2362204724409496
100
AcDbArc
 50
180.0
 51
270.0
  0
LINE
  5
176
330
1F
100
AcDbEntity
  8
0
  6
CONTINUOUS
 62
     7
100
AcDbLine
 10
22.3022942461
 20
2.5110733385
 30
0.0
 11
22.3022942461
 21
1.4201283812
 31
0.0
  0
LINE
  5
177
330
1F
100
AcDbEntity
  8
0
  6
CONTINUOUS
 62
     7
100
AcDbLine
 10
22.3022942461
 20
2.5110733385
 30
0.0
 11
23.7557136161
 21
2.5110733385
 31
0.0
  0
LINE
  5
178
330
1F
100
AcDbEntity
  8
0
  6
CONTINUOUS
 62
     7
100
AcDbLine
 10
42.3436332869
 20
3.2878450585
 30
0.0
 11
42.3436332869
 21
43.4185541584
 31
0.0
  0
LINE
  5
179
330
1F
100
AcDbEntity
  8
0
  6
CONTINUOUS
 62
     7
100
AcDbLine
 10
42.3436332869
 20
3.2878450585
 30
0.0
 11
40.7688316391
 21
3.2878450585
 31
0.0
  0
LINE
  5
17A
330
1F
100
AcDbEntity
  8
0
  6
CONTINUOUS
 62
     7
100
AcDbLine
 10
40.7688316391
 20
3.2878450585
 30
0.0
 11
40.7688316391
 21
43.4185541584
 31
0.0
  0
LINE
  5
17B
330
1F
100
AcDbEntity
  8
0
  6
CONTINUOUS
 62
     7
100
AcDbLine
 10
40.7688316391
 20
43.4185541584
 30
0.0
 11
42.3436332869
 21
43.4185541584
 31
0.0
  0
LINE
  5
17C
330
1F
100
AcDbEntity
  8
0
  6
CONTINUOUS
 62
     7
100
AcDbLine
 10
22.3022942461
 20
43.4185541584
 30
0.0
 11
22.3022942461
 21
3.2878450585
 31
0.0
  0
LINE
  5
17D
330
1F
100
AcDbEntity
  8
0
  6
CONTINUOUS
 62
     7
100
AcDbLine
 10
22.3022942461
 20
43.4185541584
 30
0.0
 11
40.0054463245
 21
43.4185541584
 31
0.0
  0
LINE
  5
17E
330
1F
100
AcDbEntity
  8
0
  6
CONTINUOUS
 62
     7
100
AcDbLine
 10
40.0054463245
 20
43.4185541584
 30
0.0
 11
40.0054463245
 21
3.2878450585
 31
0.0
  0
LINE
  5
17F
330
1F
100
AcDbEntity
  8
0
  6
CONTINUOUS
 62
     7
100
AcDbLine
 10
40.0054463245
 20
3.2878450585
 30
0.0
 11
22.3022942461
 21
3.2878450585
 31
0.0
  0
ARC
  5
180
330
1F
100
AcDbEntity
  8
0
  6
CONTINUOUS
 62
     7
100
AcDbCircle
 10
40.8416180058
 20
2.5705222228
 30
0.0
 40
0.0393700787401565
100
AcDbArc
 50
270.0000619979
 51
342.3995461274
  0
LINE
  5
181
330
1F
100
AcDbEntity
  8
0
  6
CONTINUOUS
 62
     7
100
AcDbLine
 10
40.8416197049
 20
2.5311522132
 30
0.0
 11
40.682418984
 21
2.5311519199
 31
0.0
  0
ARC
  5
182
330
1F
100
AcDbEntity
  8
0
  6
CONTINUOUS
 62
     7
100
AcDbCircle
 10
40.6824197097
 20
2.5705220506
 30
0.0
 40
0.0393700787401571
100
AcDbArc
 50
197.6004796991
 51
270.0000619979
  0
ARC
  5
183
330
1F
100
AcDbEntity
  8
0
  6
CONTINUOUS
 62
     7
100
AcDbCircle
 10
24.3495156436
 20
2.5705222228
 30
0.0
 40
0.0393700787401568
100
AcDbArc
 50
270.0000619979
 51
342.3995461274
  0
LINE
  5
184
330
1F
100
AcDbEntity
  8
0
  6
CONTINUOUS
 62
     7
100
AcDbLine
 10
24.3495166764
 20
2.5311522132
 30
0.0
 11
24.1903183022
 21
2.5311519199
 31
0.0
  0
ARC
  5
185
330
1F
100
AcDbEntity
  8
0
  6
CONTINUOUS
 62
     7
100
AcDbCircle
 10
24.1903173475
 20
2.5705220506
 30
0.0
 40
0.0393700787401565
100
AcDbArc
 50
197.6004796991
 51
270.0000619979
  0
ARC
  5
186
330
1F
100
AcDbEntity
  8
0
  6
CONTINUOUS
 62
     7
100
AcDbCircle
 10
24.1903174327
 20
44.1358763813
 30
0.0
 40
0.0393700787401622
100
AcDbArc
 50
90.0000619979
 51
162.3995461274
  0
LINE
  5
187
330
1F
100
AcDbEntity
  8
0
  6
CONTINUOUS
 62
     7
100
AcDbLine
 10
24.1903183022
 20
44.175246857
 30
0.0
 11
24.3495166764
 21
44.175246857
 31
0.0
  0
ARC
  5
188
330
1F
100
AcDbEntity
  8
0
  6
CONTINUOUS
 62
     7
100
AcDbCircle
 10
24.3495157288
 20
44.1358765536
 30
0.0
 40
0.0393700787401645
100
AcDbArc
 50
17.6004796992
 51
90.0000619979
  0
ARC
  5
189
330
1F
100
AcDbEntity
  8
0
  6
CONTINUOUS
 62
     7
100
AcDbCircle
 10
40.6824197949
 20
44.1358763813
 30
0.0
 40
0.0393700787401588
100
AcDbArc
 50
90.0000619979
 51
162.3995461274
  0
LINE
  5
18A
330
1F
100
AcDbEntity
  8
0
  6
CONTINUOUS
 62
     7
100
AcDbLine
 10
40.682418984
 20
44.175246857
 30
0.0
 11
40.8416197049
 21
44.175246857
 31
0.0
  0
ARC
  5
18B
330
1F
100
AcDbEntity
  8
0
  6
CONTINUOUS
 62
     7
100
AcDbCircle
 10
40.841618091
 20
44.1358765536
 30
0.0
 40
0.0393700787401645
100
AcDbArc
 50
17.6004796992
 51
90.0000619979
  0
LINE
  5
18C
330
1F
100
AcDbEntity
  8
0
  6
CONTINUOUS
 62
     7
100
AcDbLine
 10
22.3022942461
 20
43.4185541584
 30
0.0
 11
22.3022942461
 21
44.1953247051
 31
0.0
  0
LINE
  5
18D
330
1F
100
AcDbEntity
  8
0
  6
CONTINUOUS
 62
     7
100
AcDbLine
 10
22.3022942461
 20
2.5110733385
 30
0.0
 11
22.3022942461
 21
3.2878450585
 31
0.0
  0
ARC
  5
18E
330
1F
100
AcDbEntity
  8
0
  6
CONTINUOUS
 62
     7
100
AcDbCircle
 10
40.4508775522
 20
2.4970704181
 30
0.0
 40
0.203543307086607
100
AcDbArc
 50
17.6004796991
 51
176.0551812207
  0
ARC
  5
18F
330
1F
100
AcDbEntity
  8
0
  6
CONTINUOUS
 62
     7
100
AcDbCircle
 10
41.0731601964
 20
2.4970706947
 30
0.0
 40
0.203543307086617
100
AcDbArc
 50
3.9447398014
 51
162.3995461274
  0
ARC
  5
190
330
1F
100
AcDbEntity
  8
0
  6
CONTINUOUS
 62
     7
100
AcDbCircle
 10
40.4508776043
 20
44.2093279094
 30
0.0
 40
0.203543307086615
100
AcDbArc
 50
183.9447398015
 51
342.3995461274
  0
ARC
  5
191
330
1F
100
AcDbEntity
  8
0
  6
CONTINUOUS
 62
     7
100
AcDbCircle
 10
41.0731602485
 20
44.209328186
 30
0.0
 40
0.2035433070866149
100
AcDbArc
 50
197.6004796991
 51
356.0551821437
  0
LINE
  5
192
330
1F
100
AcDbEntity
  8
0
  6
CONTINUOUS
 62
     7
100
AcDbLine
 10
42.3436332869
 20
44.1953247051
 30
0.0
 11
42.3436332869
 21
43.4185541584
 31
0.0
  0
LINE
  5
193
330
1F
100
AcDbEntity
  8
0
  6
CONTINUOUS
 62
     7
100
AcDbLine
 10
42.3436332869
 20
3.2878450585
 30
0.0
 11
42.3436332869
 21
2.5110733385
 31
0.0
  0
ARC
  5
194
330
1F
100
AcDbEntity
  8
0
  6
CONTINUOUS
 62
     7
100
AcDbCircle
 10
24.5810578863
 20
44.209328186
 30
0.0
 40
0.2035433070866129
100
AcDbArc
 50
197.6004796991
 51
356.0551821437
  0
ARC
  5
195
330
1F
100
AcDbEntity
  8
0
  6
CONTINUOUS
 62
     7
100
AcDbCircle
 10
24.5810578342
 20
2.4970706947
 30
0.0
 40
0.2035433070866176
100
AcDbArc
 50
3.9447398014
 51
162.3995461274
  0
ARC
  5
196
330
1F
100
AcDbEntity
  8
0
  6
CONTINUOUS
 62
     7
100
AcDbCircle
 10
23.95877519
 20
2.4970704181
 30
0.0
 40
0.2035433070866198
100
AcDbArc
 50
17.6004796991
 51
176.0551812207
  0
ARC
  5
197
330
1F
100
AcDbEntity
  8
0
  6
CONTINUOUS
 62
     7
100
AcDbCircle
 10
23.9587752421
 20
44.2093279094
 30
0.0
 40
0.203543307086615
100
AcDbArc
 50
183.9447398015
 51
342.3995461274
  0
LINE
  5
198
330
1F
100
AcDbEntity
  8
0
  6
CONTINUOUS
 62
     7
100
AcDbLine
 10
20.8267038256
 20
1.1839079433
 30
0.0
 11
1.2578062472
 21
1.1839079433
 31
0.0
  0
ARC
  5
199
330
1F
100
AcDbEntity
  8
0
  6
CONTINUOUS
 62
     7
100
AcDbCircle
 10
1.257806302
 20
1.4201284359
 30
0.0
 40
0.2362204724409538
100
AcDbArc
 50
180.0
 51
270.0
  0
LINE
  5
19A
330
1F
100
AcDbEntity
  8
0
  6
CONTINUOUS
 62
     7
100
AcDbLine
 10
1.0215858094
 20
1.4201283812
 30
0.0
 11
1.0215858094
 21
2.5110733385
 31
0.0
  0
LINE
  5
19B
330
1F
100
AcDbEntity
  8
0
  6
CONTINUOUS
 62
     7
100
AcDbLine
 10
2.4693124518
 20
2.5110733385
 30
0.0
 11
1.0215858094
 21
2.5110733385
 31
0.0
  0
ARC
  5
19C
330
1F
100
AcDbEntity
  8
0
  6
CONTINUOUS
 62
     7
100
AcDbCircle
 10
2.6723736152
 20
2.4970704181
 30
0.0
 40
0.203543259536107
100
AcDbArc
 50
176.0551812207
 51
204.8878234094
  0
ARC
  5
19D
330
1F
100
AcDbEntity
  8
0
  6
CONTINUOUS
 62
     7
100
AcDbCircle
 10
2.4520189004
 20
2.3948420799
 30
0.0
 40
0.0393700101665898
100
AcDbArc
 50
0.0
 51
24.8878234094
  0
LINE
  5
19E
330
1F
100
AcDbEntity
  8
0
  6
CONTINUOUS
 62
     7
100
AcDbLine
 10
2.4913890501
 20
1.9040761506
 30
0.0
 11
2.4913890501
 21
2.3948420812
 31
0.0
  0
ARC
  5
19F
330
1F
100
AcDbEntity
  8
0
  6
CONTINUOUS
 62
     7
100
AcDbCircle
 10
2.4520189004
 20
1.9040762093
 30
0.0
 40
0.039370078740163
100
AcDbArc
 50
335.1121225719
 51
0.0
  0
ARC
  5
1A0
330
1F
100
AcDbEntity
  8
0
  6
CONTINUOUS
 62
     7
100
AcDbCircle
 10
2.6723736673
 20
1.8018475944
 30
0.0
 40
0.2035433070866147
100
AcDbArc
 50
155.1121225719
 51
342.3995461274
  0
ARC
  5
1A1
330
1F
100
AcDbEntity
  8
0
  6
CONTINUOUS
 62
     7
100
AcDbCircle
 10
2.9039158579
 20
1.7283960663
 30
0.0
 40
0.0393700787401676
100
AcDbArc
 50
90.0000619979
 51
162.3995461274
  0
LINE
  5
1A2
330
1F
100
AcDbEntity
  8
0
  6
CONTINUOUS
 62
     7
100
AcDbLine
 10
3.0631140454
 20
1.7677663119
 30
0.0
 11
2.9039156712
 21
1.7677661652
 31
0.0
  0
ARC
  5
1A3
330
1F
100
AcDbEntity
  8
0
  6
CONTINUOUS
 62
     7
100
AcDbCircle
 10
3.063114154
 20
1.7283962386
 30
0.0
 40
0.0393700787401624
100
AcDbArc
 50
17.6004796992
 51
90.0000619979
  0
ARC
  5
1A4
330
1F
100
AcDbEntity
  8
0
  6
CONTINUOUS
 62
     7
100
AcDbCircle
 10
3.2946563115
 20
1.8018478711
 30
0.0
 40
0.2035433070866128
100
AcDbArc
 50
197.6004796991
 51
24.8879066246
  0
ARC
  5
1A5
330
1F
100
AcDbEntity
  8
0
  6
CONTINUOUS
 62
     7
100
AcDbCircle
 10
3.5150110264
 20
1.9040765982
 30
0.0
 40
0.0393700787401609
100
AcDbArc
 50
180.0
 51
204.8879066246
  0
LINE
  5
1A6
330
1F
100
AcDbEntity
  8
0
  6
CONTINUOUS
 62
     7
100
AcDbLine
 10
3.4756409599
 20
2.3948416412
 30
0.0
 11
3.4756409599
 21
1.9040765905
 31
0.0
  0
ARC
  5
1A7
330
1F
100
AcDbEntity
  8
0
  6
CONTINUOUS
 62
     7
100
AcDbCircle
 10
3.5150127888
 20
2.3948416909
 30
0.0
 40
0.0393718412080939
100
AcDbArc
 50
155.1122143058
 51
180.0
  0
ARC
  5
1A8
330
1F
100
AcDbEntity
  8
0
  6
CONTINUOUS
 62
     7
100
AcDbCircle
 10
3.2946562594
 20
2.4970706947
 30
0.0
 40
0.2035433070866166
100
AcDbArc
 50
335.1122143058
 51
3.9447398015
  0
LINE
  5
1A9
330
1F
100
AcDbEntity
  8
0
  6
CONTINUOUS
 62
     7
100
AcDbLine
 10
18.9671081345
 20
2.5110733385
 30
0.0
 11
3.4977172649
 21
2.5110733385
 31
0.0
  0
ARC
  5
1AA
330
1F
100
AcDbEntity
  8
0
  6
CONTINUOUS
 62
     7
100
AcDbCircle
 10
19.1701688908
 20
2.4970704181
 30
0.0
 40
0.2035432595361008
100
AcDbArc
 50
176.0551812207
 51
204.8878234094
  0
ARC
  5
1AB
330
1F
100
AcDbEntity
  8
0
  6
CONTINUOUS
 62
     7
100
AcDbCircle
 10
18.949814176
 20
2.3948420799
 30
0.0
 40
0.0393700101665902
100
AcDbArc
 50
0.0
 51
24.8878234094
  0
LINE
  5
1AC
330
1F
100
AcDbEntity
  8
0
  6
CONTINUOUS
 62
     7
100
AcDbLine
 10
18.9891841461
 20
1.9040761506
 30
0.0
 11
18.9891841461
 21
2.3948420812
 31
0.0
  0
ARC
  5
1AD
330
1F
100
AcDbEntity
  8
0
  6
CONTINUOUS
 62
     7
100
AcDbCircle
 10
18.949814176
 20
1.9040762093
 30
0.0
 40
0.0393700787401594
100
AcDbArc
 50
335.1121225719
 51
0.0
  0
ARC
  5
1AE
330
1F
100
AcDbEntity
  8
0
  6
CONTINUOUS
 62
     7
100
AcDbCircle
 10
19.1701689429
 20
1.8018475944
 30
0.0
 40
0.2035433070866156
100
AcDbArc
 50
155.1121225719
 51
342.3995461274
  0
ARC
  5
1AF
330
1F
100
AcDbEntity
  8
0
  6
CONTINUOUS
 62
     7
100
AcDbCircle
 10
19.4017111335
 20
1.7283960663
 30
0.0
 40
0.0393700787401587
100
AcDbArc
 50
90.0000619979
 51
162.3995461274
  0
LINE
  5
1B0
330
1F
100
AcDbEntity
  8
0
  6
CONTINUOUS
 62
     7
100
AcDbLine
 10
19.5609088482
 20
1.7677663119
 30
0.0
 11
19.4017116472
 21
1.7677661652
 31
0.0
  0
ARC
  5
1B1
330
1F
100
AcDbEntity
  8
0
  6
CONTINUOUS
 62
     7
100
AcDbCircle
 10
19.5609094296
 20
1.7283962386
 30
0.0
 40
0.0393700787401624
100
AcDbArc
 50
17.6004796992
 51
90.0000619979
  0
ARC
  5
1B2
330
1F
100
AcDbEntity
  8
0
  6
CONTINUOUS
 62
     7
100
AcDbCircle
 10
19.7924515871
 20
1.8018478711
 30
0.0
 40
0.2035433070866158
100
AcDbArc
 50
197.6004796991
 51
24.8879066246
  0
LINE
  5
1B3
330
1F
100
AcDbEntity
  8
0
  6
CONTINUOUS
 62
     7
100
AcDbLine
 10
19.973435176
 20
2.3948416412
 30
0.0
 11
19.973435176
 21
1.9040765905
 31
0.0
  0
ARC
  5
1B4
330
1F
100
AcDbEntity
  8
0
  6
CONTINUOUS
 62
     7
100
AcDbCircle
 10
20.0128080644
 20
2.3948416909
 30
0.0
 40
0.0393718412080908
100
AcDbArc
 50
155.1122143058
 51
180.0
  0
ARC
  5
1B5
330
1F
100
AcDbEntity
  8
0
  6
CONTINUOUS
 62
     7
100
AcDbCircle
 10
19.792451535
 20
2.4970706947
 30
0.0
 40
0.2035433070866182
100
AcDbArc
 50
335.1122143058
 51
3.9447398015
  0
LINE
  5
1B6
330
1F
100
AcDbEntity
  8
0
  6
CONTINUOUS
 62
     7
100
AcDbLine
 10
21.0629236034
 20
2.5110733385
 30
0.0
 11
19.9955123609
 21
2.5110733385
 31
0.0
  0
ARC
  5
1B7
330
1F
100
AcDbEntity
  8
0
  6
CONTINUOUS
 62
     7
100
AcDbCircle
 10
20.8267039398
 20
1.4201284359
 30
0.0
 40
0.2362204724409451
100
AcDbArc
 50
270.0
 51
0.0
  0
LINE
  5
1B8
330
1F
100
AcDbEntity
  8
0
  6
CONTINUOUS
 62
     7
100
AcDbLine
 10
21.0629236034
 20
2.5110733385
 30
0.0
 11
21.0629236034
 21
1.4201283812
 31
0.0
  0
ARC
  5
1B9
330
1F
100
AcDbEntity
  8
0
  6
CONTINUOUS
 62
     7
100
AcDbCircle
 10
20.012806302
 20
1.9040765982
 30
0.0
 40
0.0393700787401592
100
AcDbArc
 50
180.0
 51
204.8879066246
  0
ARC
  5
1BA
330
1F
100
AcDbEntity
  8
0
  6
CONTINUOUS
 62
     7
100
AcDbCircle
 10
1.257806302
 20
45.2862701682
 30
0.0
 40
0.2362204724409538
100
AcDbArc
 50
90.0
 51
180.0
  0
LINE
  5
1BB
330
1F
100
AcDbEntity
  8
0
  6
CONTINUOUS
 62
     7
100
AcDbLine
 10
1.2578062472
 20
45.5224901736
 30
0.0
 11
20.8267038256
 21
45.5224901736
 31
0.0
  0
ARC
  5
1BC
330
1F
100
AcDbEntity
  8
0
  6
CONTINUOUS
 62
     7
100
AcDbCircle
 10
20.8267039398
 20
45.2862701682
 30
0.0
 40
0.2362204724409551
100
AcDbArc
 50
0.0
 51
90.0
  0
LINE
  5
1BD
330
1F
100
AcDbEntity
  8
0
  6
CONTINUOUS
 62
     7
100
AcDbLine
 10
19.9955123609
 20
44.1953247051
 30
0.0
 11
21.0629236034
 21
44.1953247051
 31
0.0
  0
ARC
  5
1BE
330
1F
100
AcDbEntity
  8
0
  6
CONTINUOUS
 62
     7
100
AcDbCircle
 10
19.7924515871
 20
44.209328186
 30
0.0
 40
0.2035433070866196
100
AcDbArc
 50
356.0551821437
 51
24.8879066246
  0
ARC
  5
1BF
330
1F
100
AcDbEntity
  8
0
  6
CONTINUOUS
 62
     7
100
AcDbCircle
 10
19.792451535
 20
44.9045510097
 30
0.0
 40
0.2035433070866146
100
AcDbArc
 50
335.1122143058
 51
162.3995461274
  0
ARC
  5
1C0
330
1F
100
AcDbEntity
  8
0
  6
CONTINUOUS
 62
     7
100
AcDbCircle
 10
19.5609093444
 20
44.9780025378
 30
0.0
 40
0.0393700787401574
100
AcDbArc
 50
270.0000619979
 51
342.3995461274
  0
LINE
  5
1C1
330
1F
100
AcDbEntity
  8
0
  6
CONTINUOUS
 62
     7
100
AcDbLine
 10
19.4017116472
 20
44.9386321717
 30
0.0
 11
19.5609088482
 21
44.9386321717
 31
0.0
  0
ARC
  5
1C2
330
1F
100
AcDbEntity
  8
0
  6
CONTINUOUS
 62
     7
100
AcDbCircle
 10
19.4017110483
 20
44.9780023655
 30
0.0
 40
0.0393701262906705
100
AcDbArc
 50
197.6004796992
 51
270.0000619979
  0
ARC
  5
1C3
330
1F
100
AcDbEntity
  8
0
  6
CONTINUOUS
 62
     7
100
AcDbCircle
 10
19.1701688908
 20
44.9045507331
 30
0.0
 40
0.2035432595361014
100
AcDbArc
 50
17.6004796991
 51
204.8878234094
  0
ARC
  5
1C4
330
1F
100
AcDbEntity
  8
0
  6
CONTINUOUS
 62
     7
100
AcDbCircle
 10
18.949814176
 20
44.8023223948
 30
0.0
 40
0.0393700101665857
100
AcDbArc
 50
0.0
 51
24.8878234094
  0
LINE
  5
1C5
330
1F
100
AcDbEntity
  8
0
  6
CONTINUOUS
 62
     7
100
AcDbLine
 10
18.9891841461
 20
44.3115584557
 30
0.0
 11
18.9891841461
 21
44.802320573
 31
0.0
  0
ARC
  5
1C6
330
1F
100
AcDbEntity
  8
0
  6
CONTINUOUS
 62
     7
100
AcDbCircle
 10
18.949814176
 20
44.3115565243
 30
0.0
 40
0.0393700787401521
100
AcDbArc
 50
335.1121225719
 51
0.0
  0
ARC
  5
1C7
330
1F
100
AcDbEntity
  8
0
  6
CONTINUOUS
 62
     7
100
AcDbCircle
 10
19.1701689429
 20
44.2093279094
 30
0.0
 40
0.2035433070866194
100
AcDbArc
 50
155.1121225719
 51
183.9447398014
  0
LINE
  5
1C8
330
1F
100
AcDbEntity
  8
0
  6
CONTINUOUS
 62
     7
100
AcDbLine
 10
3.4977172649
 20
44.1953247051
 30
0.0
 11
18.9671081345
 21
44.1953247051
 31
0.0
  0
ARC
  5
1C9
330
1F
100
AcDbEntity
  8
0
  6
CONTINUOUS
 62
     7
100
AcDbCircle
 10
3.2946563115
 20
44.209328186
 30
0.0
 40
0.20354330708662
100
AcDbArc
 50
356.0551821437
 51
24.8879066246
  0
ARC
  5
1CA
330
1F
100
AcDbEntity
  8
0
  6
CONTINUOUS
 62
     7
100
AcDbCircle
 10
3.5150110264
 20
44.3115569132
 30
0.0
 40
0.0393700787401574
100
AcDbArc
 50
180.0
 51
204.8879066246
  0
LINE
  5
1CB
330
1F
100
AcDbEntity
  8
0
  6
CONTINUOUS
 62
     7
100
AcDbLine
 10
3.4756409599
 20
44.802320573
 30
0.0
 11
3.4756409599
 21
44.3115584557
 31
0.0
  0
ARC
  5
1CC
330
1F
100
AcDbEntity
  8
0
  6
CONTINUOUS
 62
     7
100
AcDbCircle
 10
3.5150127888
 20
44.8023220059
 30
0.0
 40
0.039371841208085
100
AcDbArc
 50
155.1122143058
 51
180.0
  0
ARC
  5
1CD
330
1F
100
AcDbEntity
  8
0
  6
CONTINUOUS
 62
     7
100
AcDbCircle
 10
3.2946562594
 20
44.9045510097
 30
0.0
 40
0.203543307086616
100
AcDbArc
 50
335.1122143058
 51
162.3995461274
  0
ARC
  5
1CE
330
1F
100
AcDbEntity
  8
0
  6
CONTINUOUS
 62
     7
100
AcDbCircle
 10
3.0631140688
 20
44.9780025378
 30
0.0
 40
0.0393700787401626
100
AcDbArc
 50
270.0000619979
 51
342.3995461274
  0
LINE
  5
1CF
330
1F
100
AcDbEntity
  8
0
  6
CONTINUOUS
 62
     7
100
AcDbLine
 10
2.9039156712
 20
44.9386321717
 30
0.0
 11
3.0631140454
 21
44.9386321717
 31
0.0
  0
ARC
  5
1D0
330
1F
100
AcDbEntity
  8
0
  6
CONTINUOUS
 62
     7
100
AcDbCircle
 10
2.9039157727
 20
44.9780023655
 30
0.0
 40
0.0393701262906663
100
AcDbArc
 50
197.6004796992
 51
270.0000619979
  0
ARC
  5
1D1
330
1F
100
AcDbEntity
  8
0
  6
CONTINUOUS
 62
     7
100
AcDbCircle
 10
2.6723736152
 20
44.9045507331
 30
0.0
 40
0.2035432595361052
100
AcDbArc
 50
17.6004796991
 51
204.8878234094
  0
ARC
  5
1D2
330
1F
100
AcDbEntity
  8
0
  6
CONTINUOUS
 62
     7
100
AcDbCircle
 10
2.4520189004
 20
44.8023223948
 30
0.0
 40
0.0393700101665897
100
AcDbArc
 50
0.0
 51
24.8878234094
  0
LINE
  5
1D3
330
1F
100
AcDbEntity
  8
0
  6
CONTINUOUS
 62
     7
100
AcDbLine
 10
2.4913890501
 20
44.3115584557
 30
0.0
 11
2.4913890501
 21
44.802320573
 31
0.0
  0
ARC
  5
1D4
330
1F
100
AcDbEntity
  8
0
  6
CONTINUOUS
 62
     7
100
AcDbCircle
 10
2.4520189004
 20
44.3115565243
 30
0.0
 40
0.0393700787401574
100
AcDbArc
 50
335.1121225719
 51
0.0
  0
ARC
  5
1D5
330
1F
100
AcDbEntity
  8
0
  6
CONTINUOUS
 62
     7
100
AcDbCircle
 10
2.6723736673
 20
44.2093279094
 30
0.0
 40
0.2035433070866189
100
AcDbArc
 50
155.1121225719
 51
183.9447398014
  0
LINE
  5
1D6
330
1F
100
AcDbEntity
  8
0
  6
CONTINUOUS
 62
     7
100
AcDbLine
 10
1.0215858094
 20
44.1953247051
 30
0.0
 11
2.4693124518
 21
44.1953247051
 31
0.0
  0
LINE
  5
1D7
330
1F
100
AcDbEntity
  8
0
  6
CONTINUOUS
 62
     7
100
AcDbLine
 10
1.0215858094
 20
44.1953247051
 30
0.0
 11
1.0215858094
 21
45.2862680491
 31
0.0
  0
ARC
  5
1D8
330
1F
100
AcDbEntity
  8
0
  6
CONTINUOUS
 62
     7
100
AcDbCircle
 10
20.0128080644
 20
44.8023220059
 30
0.0
 40
0.0393718412080913
100
AcDbArc
 50
155.1122143058
 51
180.0
  0
LINE
  5
1D9
330
1F
100
AcDbEntity
  8
0
  6
CONTINUOUS
 62
     7
100
AcDbLine
 10
19.973435176
 20
44.802320573
 30
0.0
 11
19.973435176
 21
44.3115584557
 31
0.0
  0
ARC
  5
1DA
330
1F
100
AcDbEntity
  8
0
  6
CONTINUOUS
 62
     7
100
AcDbCircle
 10
20.012806302
 20
44.3115569132
 30
0.0
 40
0.0393700787401592
100
AcDbArc
 50
180.0
 51
204.8879066246
  0
LINE
  5
1DB
330
1F
100
AcDbEntity
  8
0
  6
CONTINUOUS
 62
     7
100
AcDbLine
 10
21.0629236034
 20
45.2862680491
 30
0.0
 11
21.0629236034
 21
44.1953247051
 31
0.0
  0
LINE
  5
1DC
330
1F
100
AcDbEntity
  8
0
  6
CONTINUOUS
 62
     7
100
AcDbLine
 10
19.4881207824
 20
43.4185541584
 30
0.0
 11
19.4881207824
 21
3.2878450585
 31
0.0
  0
LINE
  5
1DD
330
1F
100
AcDbEntity
  8
0
  6
CONTINUOUS
 62
     7
100
AcDbLine
 10
21.0629236034
 20
43.4185541584
 30
0.0
 11
19.4881207824
 21
43.4185541584
 31
0.0
  0
LINE
  5
1DE
330
1F
100
AcDbEntity
  8
0
  6
CONTINUOUS
 62
     7
100
AcDbLine
 10
19.4881207824
 20
3.2878450585
 30
0.0
 11
21.0629236034
 21
3.2878450585
 31
0.0
  0
LINE
  5
1DF
330
1F
100
AcDbEntity
  8
0
  6
CONTINUOUS
 62
     7
100
AcDbLine
 10
21.0629236034
 20
43.4185541584
 30
0.0
 11
21.0629236034
 21
3.2878450585
 31
0.0
  0
LINE
  5
1E0
330
1F
100
AcDbEntity
  8
0
  6
CONTINUOUS
 62
     7
100
AcDbLine
 10
1.0215858094
 20
3.2878450585
 30
0.0
 11
1.0215858094
 21
43.4185541584
 31
0.0
  0
LINE
  5
1E1
330
1F
100
AcDbEntity
  8
0
  6
CONTINUOUS
 62
     7
100
AcDbLine
 10
18.7247354677
 20
3.2878450585
 30
0.0
 11
18.7247354677
 21
43.4185541584
 31
0.0
  0
LINE
  5
1E2
330
1F
100
AcDbEntity
  8
0
  6
CONTINUOUS
 62
     7
100
AcDbLine
 10
18.7247354677
 20
43.4185541584
 30
0.0
 11
1.0215858094
 21
43.4185541584
 31
0.0
  0
LINE
  5
1E3
330
1F
100
AcDbEntity
  8
0
  6
CONTINUOUS
 62
     7
100
AcDbLine
 10
1.0215858094
 20
3.2878450585
 30
0.0
 11
18.7247354677
 21
3.2878450585
 31
0.0
  0
ARC
  5
1E4
330
1F
100
AcDbEntity
  8
0
  6
CONTINUOUS
 62
     7
100
AcDbCircle
 10
19.5609093444
 20
2.5705222228
 30
0.0
 40
0.0393700787401614
100
AcDbArc
 50
270.0000619979
 51
342.3995461274
  0
LINE
  5
1E5
330
1F
100
AcDbEntity
  8
0
  6
CONTINUOUS
 62
     7
100
AcDbLine
 10
19.5609088482
 20
2.5311522132
 30
0.0
 11
19.4017116472
 21
2.5311519199
 31
0.0
  0
ARC
  5
1E6
330
1F
100
AcDbEntity
  8
0
  6
CONTINUOUS
 62
     7
100
AcDbCircle
 10
19.4017110483
 20
2.5705220506
 30
0.0
 40
0.0393700787401587
100
AcDbArc
 50
197.6004796991
 51
270.0000619979
  0
ARC
  5
1E7
330
1F
100
AcDbEntity
  8
0
  6
CONTINUOUS
 62
     7
100
AcDbCircle
 10
3.0631140688
 20
2.5705222228
 30
0.0
 40
0.0393700787401587
100
AcDbArc
 50
270.0000619979
 51
342.3995461274
  0
LINE
  5
1E8
330
1F
100
AcDbEntity
  8
0
  6
CONTINUOUS
 62
     7
100
AcDbLine
 10
3.0631140454
 20
2.5311522132
 30
0.0
 11
2.9039156712
 21
2.5311519199
 31
0.0
  0
ARC
  5
1E9
330
1F
100
AcDbEntity
  8
0
  6
CONTINUOUS
 62
     7
100
AcDbCircle
 10
2.9039157727
 20
2.5705220506
 30
0.0
 40
0.0393700787401587
100
AcDbArc
 50
197.6004796991
 51
270.0000619979
  0
ARC
  5
1EA
330
1F
100
AcDbEntity
  8
0
  6
CONTINUOUS
 62
     7
100
AcDbCircle
 10
2.9039158579
 20
44.1358763813
 30
0.0
 40
0.0393700787401574
100
AcDbArc
 50
90.0000619979
 51
162.3995461274
  0
LINE
  5
1EB
330
1F
100
AcDbEntity
  8
0
  6
CONTINUOUS
 62
     7
100
AcDbLine
 10
2.9039156712
 20
44.175246857
 30
0.0
 11
3.0631140454
 21
44.175246857
 31
0.0
  0
ARC
  5
1EC
330
1F
100
AcDbEntity
  8
0
  6
CONTINUOUS
 62
     7
100
AcDbCircle
 10
3.063114154
 20
44.1358765536
 30
0.0
 40
0.0393700787401625
100
AcDbArc
 50
17.6004796992
 51
90.0000619979
  0
ARC
  5
1ED
330
1F
100
AcDbEntity
  8
0
  6
CONTINUOUS
 62
     7
100
AcDbCircle
 10
19.4017111335
 20
44.1358763813
 30
0.0
 40
0.0393700787401601
100
AcDbArc
 50
90.0000619979
 51
162.3995461274
  0
LINE
  5
1EE
330
1F
100
AcDbEntity
  8
0
  6
CONTINUOUS
 62
     7
100
AcDbLine
 10
19.4017116472
 20
44.175246857
 30
0.0
 11
19.5609088482
 21
44.175246857
 31
0.0
  0
ARC
  5
1EF
330
1F
100
AcDbEntity
  8
0
  6
CONTINUOUS
 62
     7
100
AcDbCircle
 10
19.5609094296
 20
44.1358765536
 30
0.0
 40
0.0393700787401569
100
AcDbArc
 50
17.6004796991
 51
90.0000619979
  0
ARC
  5
1F0
330
1F
100
AcDbEntity
  8
0
  6
CONTINUOUS
 62
     7
100
AcDbCircle
 10
2.6723736152
 20
2.4970704181
 30
0.0
 40
0.2035433070866138
100
AcDbArc
 50
17.6004796992
 51
176.0551812207
  0
LINE
  5
1F1
330
1F
100
AcDbEntity
  8
0
  6
CONTINUOUS
 62
     7
100
AcDbLine
 10
1.0215858094
 20
3.2878450585
 30
0.0
 11
1.0215858094
 21
2.5110733385
 31
0.0
  0
LINE
  5
1F2
330
1F
100
AcDbEntity
  8
0
  6
CONTINUOUS
 62
     7
100
AcDbLine
 10
1.0215858094
 20
44.1953247051
 30
0.0
 11
1.0215858094
 21
43.4185541584
 31
0.0
  0
ARC
  5
1F3
330
1F
100
AcDbEntity
  8
0
  6
CONTINUOUS
 62
     7
100
AcDbCircle
 10
2.6723736673
 20
44.2093279094
 30
0.0
 40
0.2035433070866147
100
AcDbArc
 50
183.9447398014
 51
342.3995461274
  0
ARC
  5
1F4
330
1F
100
AcDbEntity
  8
0
  6
CONTINUOUS
 62
     7
100
AcDbCircle
 10
3.2946562594
 20
2.4970706947
 30
0.0
 40
0.2035433070866147
100
AcDbArc
 50
3.9447398015
 51
162.3995461274
  0
ARC
  5
1F5
330
1F
100
AcDbEntity
  8
0
  6
CONTINUOUS
 62
     7
100
AcDbCircle
 10
3.2946563115
 20
44.209328186
 30
0.0
 40
0.2035433070866151
100
AcDbArc
 50
197.6004796991
 51
356.0551821437
  0
ARC
  5
1F6
330
1F
100
AcDbEntity
  8
0
  6
CONTINUOUS
 62
     7
100
AcDbCircle
 10
19.1701689429
 20
44.2093279094
 30
0.0
 40
0.2035433070866134
100
AcDbArc
 50
183.9447398014
 51
342.3995461274
  0
ARC
  5
1F7
330
1F
100
AcDbEntity
  8
0
  6
CONTINUOUS
 62
     7
100
AcDbCircle
 10
19.1701688908
 20
2.4970704181
 30
0.0
 40
0.2035433070866176
100
AcDbArc
 50
17.6004796992
 51
176.0551812207
  0
ARC
  5
1F8
330
1F
100
AcDbEntity
  8
0
  6
CONTINUOUS
 62
     7
100
AcDbCircle
 10
19.7924515871
 20
44.209328186
 30
0.0
 40
0.2035433070866169
100
AcDbArc
 50
197.6004796991
 51
356.0551821437
  0
ARC
  5
1F9
330
1F
100
AcDbEntity
  8
0
  6
CONTINUOUS
 62
     7
100
AcDbCircle
 10
19.792451535
 20
2.4970706947
 30
0.0
 40
0.2035433070866163
100
AcDbArc
 50
3.9447398015
 51
162.3995461274
  0
LINE
  5
1FA
330
1F
100
AcDbEntity
  8
0
  6
CONTINUOUS
 62
     7
100
AcDbLine
 10
21.0629236034
 20
43.4185541584
 30
0.0
 11
21.0629236034
 21
44.1953247051
 31
0.0
  0
LINE
  5
1FB
330
1F
100
AcDbEntity
  8
0
  6
CONTINUOUS
 62
     7
100
AcDbLine
 10
21.0629236034
 20
2.5110733385
 30
0.0
 11
21.0629236034
 21
3.2878450585
 31
0.0
  0
LINE
  5
1FC
330
1F
100
AcDbEntity
  8
0
  6
CONTINUOUS
 62
     7
100
AcDbLine
 10
58.1125301632
 20
42.09138869
 30
0.0
 11
43.5830015829
 21
42.09138869
 31
0.0
  0
LINE
  5
1FD
330
1F
100
AcDbEntity
  8
0
  6
CONTINUOUS
 62
     7
100
AcDbLine
 10
43.5830015829
 20
1.1839079433
 30
0.0
 11
58.1125301632
 21
1.1839079433
 31
0.0
  0
LINE
  5
1FE
330
1F
100
AcDbEntity
  8
0
  6
CONTINUOUS
 62
     7
100
AcDbLine
 10
43.5830015829
 20
42.09138869
 30
0.0
 11
43.5830015829
 21
1.1839079433
 31
0.0
  0
LINE
  5
1FF
330
1F
100
AcDbEntity
  8
0
  6
CONTINUOUS
 62
     7
100
AcDbLine
 10
58.1125301632
 20
1.1839079433
 30
0.0
 11
58.1125301632
 21
42.09138869
 31
0.0
  0
LINE
  5
200
330
1F
100
AcDbEntity
  8
PROFILES_OUTSIDE
100
AcDbLine
 10
42.3436330736
 20
1.4201284359
 30
0.0
 11
42.3436330736
 21
45.2862701682
 31
0.0
  0
LINE
  5
201
330
1F
100
AcDbEntity
  8
PROFILES_OUTSIDE
100
AcDbLine
 10
21.0629244122
 20
1.1839079635
 30
0.0
 11
21.0629244122
 21
45.5224906407
 31
0.0
  0
LINE
  5
202
330
1F
100
AcDbEntity
  8
POCKETS
100
AcDbLine
 10
74.2751291366
 20
3.5154040265
 30
0.0
 11
58.9582000027
 21
3.5154040265
 31
0.0
  0
LINE
  5
203
330
1F
100
AcDbEntity
  8
POCKETS
100
AcDbLine
 10
58.9582000027
 20
3.5154040265
 30
0.0
 11
58.9582000027
 21
2.7587111131
 31
0.0
  0
LINE
  5
204
330
1F
100
AcDbEntity
  8
POCKETS
100
AcDbLine
 10
58.9582000027
 20
2.7587111131
 30
0.0
 11
74.2751291366
 21
2.7587111131
 31
0.0
  0
LINE
  5
205
330
1F
100
AcDbEntity
  8
PROFILES_OUTSIDE
100
AcDbLine
 10
21.0629244122
 20
45.5224906407
 30
0.0
 11
1.0215858295
 21
45.5224906407
 31
0.0
  0
LINE
  5
206
330
1F
100
AcDbEntity
  8
PROFILES_OUTSIDE
100
AcDbLine
 10
1.0215858295
 20
45.5224906407
 30
0.0
 11
1.0215858295
 21
1.1839079635
 31
0.0
  0
LINE
  5
207
330
1F
100
AcDbEntity
  8
PROFILES_OUTSIDE
100
AcDbLine
 10
1.0215858295
 20
1.1839079635
 30
0.0
 11
21.0629244122
 21
1.1839079635
 31
0.0
  0
LINE
  5
208
330
1F
100
AcDbEntity
  8
POCKETS
100
AcDbLine
 10
74.2751291366
 20
2.7587111131
 30
0.0
 11
74.2751291366
 21
3.5154040265
 31
0.0
  0
LINE
  5
209
330
1F
100
AcDbEntity
  8
PROFILES_INSIDE
100
AcDbLine
 10
19.9734362232
 20
44.3115569132
 30
0.0
 11
19.9734362232
 21
44.8023220059
 31
0.0
  0
LINE
  5
20A
330
1F
100
AcDbEntity
  8
PROFILES_INSIDE
100
AcDbLine
 10
19.4017110909
 20
44.17524646
 30
0.0
 11
19.560909387
 21
44.1752466323
 31
0.0
  0
LINE
  5
20B
330
1F
100
AcDbEntity
  8
PROFILES_INSIDE
100
AcDbLine
 10
18.9891841861
 20
44.8023223948
 30
0.0
 11
18.9891842547
 21
44.3115565243
 31
0.0
  0
LINE
  5
20C
330
1F
100
AcDbEntity
  8
PROFILES_INSIDE
100
AcDbLine
 10
19.560909387
 20
44.9386324591
 30
0.0
 11
19.4017110909
 21
44.9386322214
 31
0.0
  0
LINE
  5
20D
330
1F
100
AcDbEntity
  8
PROFILES_OUTSIDE
100
AcDbLine
 10
58.1125307114
 20
1.1839079635
 30
0.0
 11
58.1125307114
 21
42.0913882785
 31
0.0
  0
LINE
  5
20E
330
1F
100
AcDbEntity
  8
PROFILES_OUTSIDE
100
AcDbLine
 10
58.1125307114
 20
42.0913882785
 30
0.0
 11
43.5830031524
 21
42.0913882785
 31
0.0
  0
LINE
  5
20F
330
1F
100
AcDbEntity
  8
PROFILES_OUTSIDE
100
AcDbLine
 10
43.5830031524
 20
42.0913882785
 30
0.0
 11
43.5830031524
 21
1.1839079635
 31
0.0
  0
LINE
  5
210
330
1F
100
AcDbEntity
  8
PROFILES_OUTSIDE
100
AcDbLine
 10
43.5830031524
 20
1.1839079635
 30
0.0
 11
58.1125307114
 21
1.1839079635
 31
0.0
  0
LINE
  5
211
330
1F
100
AcDbEntity
  8
PROFILES_OUTSIDE
100
AcDbLine
 10
73.8814283492
 20
21.2252465462
 30
0.0
 11
59.3519007901
 21
21.2252465462
 31
0.0
  0
LINE
  5
212
330
1F
100
AcDbEntity
  8
PROFILES_OUTSIDE
100
AcDbLine
 10
59.3519007901
 20
21.2252465462
 30
0.0
 11
59.3519007901
 21
1.1839079635
 31
0.0
  0
LINE
  5
213
330
1F
100
AcDbEntity
  8
PROFILES_OUTSIDE
100
AcDbLine
 10
59.3519007901
 20
1.1839079635
 30
0.0
 11
73.8814283492
 21
1.1839079635
 31
0.0
  0
LINE
  5
214
330
1F
100
AcDbEntity
  8
PROFILES_OUTSIDE
100
AcDbLine
 10
73.8814283492
 20
1.1839079635
 30
0.0
 11
73.8814283492
 21
21.2252465462
 31
0.0
  0
LINE
  5
215
330
1F
100
AcDbEntity
  8
PROFILES_OUTSIDE
100
AcDbLine
 10
75.1207984279
 20
21.2252465462
 30
0.0
 11
75.1207984279
 21
1.1839079635
 31
0.0
  0
LINE
  5
216
330
1F
100
AcDbEntity
  8
PROFILES_OUTSIDE
100
AcDbLine
 10
75.1207984279
 20
1.1839079635
 30
0.0
 11
89.650325987
 21
1.1839079635
 31
0.0
  0
LINE
  5
217
330
1F
100
AcDbEntity
  8
BOX_STOCK
100
AcDbLine
 10
0.0082000027
 20
0.1705221367
 30
0.0
 11
96.0711921287
 21
0.1705221367
 31
0.0
  0
LINE
  5
218
330
1F
100
AcDbEntity
  8
BOX_STOCK
100
AcDbLine
 10
96.0711921287
 20
0.1705221367
 30
0.0
 11
96.0711921287
 21
48.2020181997
 31
0.0
  0
LINE
  5
219
330
1F
100
AcDbEntity
  8
BOX_STOCK
100
AcDbLine
 10
96.0711921287
 20
48.2020181997
 30
0.0
 11
0.0082000027
 21
48.2020181997
 31
0.0
  0
LINE
  5
21A
330
1F
100
AcDbEntity
  8
BOX_STOCK
100
AcDbLine
 10
0.0082000027
 20
48.2020181997
 30
0.0
 11
0.0082000027
 21
0.1705221367
 31
0.0
  0
LINE
  5
21B
330
1F
100
AcDbEntity
  8
POCKETS
100
AcDbLine
 10
90.0440267744
 20
3.5154040265
 30
0.0
 11
74.7270976405
 21
3.5154040265
 31
0.0
  0
LINE
  5
21C
330
1F
100
AcDbEntity
  8
PROFILES_OUTSIDE
100
AcDbLine
 10
89.650325987
 20
1.1839079635
 30
0.0
 11
89.650325987
 21
21.2252465462
 31
0.0
  0
LINE
  5
21D
330
1F
100
AcDbEntity
  8
POCKETS
100
AcDbLine
 10
74.7270976405
 20
3.5154040265
 30
0.0
 11
74.7270976405
 21
2.7587111131
 31
0.0
  0
LINE
  5
21E
330
1F
100
AcDbEntity
  8
POCKETS
100
AcDbLine
 10
74.7270976405
 20
2.7587111131
 30
0.0
 11
90.0440267744
 21
2.7587111131
 31
0.0
  0
LINE
  5
21F
330
1F
100
AcDbEntity
  8
POCKETS
100
AcDbLine
 10
90.0440267744
 20
2.7587111131
 30
0.0
 11
90.0440267744
 21
3.5154040265
 31
0.0
  0
LINE
  5
220
330
1F
100
AcDbEntity
  8
PROFILES_OUTSIDE
100
AcDbLine
 10
89.650325987
 20
21.2252465462
 30
0.0
 11
75.1207984279
 21
21.2252465462
 31
0.0
  0
LINE
  5
221
330
1F
100
AcDbEntity
  8
PROFILES_INSIDE
100
AcDbLine
 10
3.4756409476
 20
44.3115569132
 30
0.0
 11
3.4756409476
 21
44.8023220059
 31
0.0
  0
LINE
  5
222
330
1F
100
AcDbEntity
  8
PROFILES_INSIDE
100
AcDbLine
 10
3.0631141114
 20
44.9386324591
 30
0.0
 11
2.9039158153
 21
44.938632263
 31
0.0
  0
LINE
  5
223
330
1F
100
AcDbEntity
  8
PROFILES_INSIDE
100
AcDbLine
 10
2.4913889046
 20
44.8023223948
 30
0.0
 11
2.4913889791
 21
44.3115565243
 31
0.0
  0
LINE
  5
224
330
1F
100
AcDbEntity
  8
PROFILES_INSIDE
100
AcDbLine
 10
2.9039158153
 20
44.17524646
 30
0.0
 11
3.0631141114
 21
44.1752466323
 31
0.0
  0
LINE
  5
225
330
1F
100
AcDbEntity
  8
PROFILES_INSIDE
100
AcDbLine
 10
19.9734362232
 20
1.9040765982
 30
0.0
 11
19.9734362232
 21
2.3948416909
 31
0.0
  0
LINE
  5
226
330
1F
100
AcDbEntity
  8
PROFILES_INSIDE
100
AcDbLine
 10
19.560909387
 20
2.5311521441
 30
0.0
 11
19.4017110909
 21
2.5311519659
 31
0.0
  0
LINE
  5
227
330
1F
100
AcDbEntity
  8
PROFILES_INSIDE
100
AcDbLine
 10
18.9891841743
 20
2.3948420799
 30
0.0
 11
18.9891842547
 21
1.9040762093
 31
0.0
  0
LINE
  5
228
330
1F
100
AcDbEntity
  8
PROFILES_INSIDE
100
AcDbLine
 10
19.4017110909
 20
1.7677661451
 30
0.0
 11
19.560909387
 21
1.7677663173
 31
0.0
  0
LINE
  5
229
330
1F
100
AcDbEntity
  8
PROFILES_INSIDE
100
AcDbLine
 10
2.4913889105
 20
2.3948420799
 30
0.0
 11
2.4913889791
 21
1.9040762093
 31
0.0
  0
LINE
  5
22A
330
1F
100
AcDbEntity
  8
PROFILES_INSIDE
100
AcDbLine
 10
2.9039158153
 20
1.7677661451
 30
0.0
 11
3.0631141114
 21
1.7677663173
 31
0.0
  0
LINE
  5
22B
330
1F
100
AcDbEntity
  8
PROFILES_INSIDE
100
AcDbLine
 10
3.4756409476
 20
1.9040765982
 30
0.0
 11
3.4756409476
 21
2.3948416909
 31
0.0
  0
LINE
  5
22C
330
1F
100
AcDbEntity
  8
PROFILES_INSIDE
100
AcDbLine
 10
3.0631141114
 20
2.5311521441
 30
0.0
 11
2.9039158153
 21
2.5311519718
 31
0.0
  0
LINE
  5
22D
330
1F
100
AcDbEntity
  8
PROFILES_OUTSIDE
100
AcDbLine
 10
74.894814176
 20
22.710679617
 30
0.0
 11
75.0605622075
 21
22.710679617
 31
0.0
  0
LINE
  5
22E
330
1F
100
AcDbEntity
  8
PROFILES_OUTSIDE
100
AcDbLine
 10
74.8814248989
 20
22.9198870709
 30
0.0
 11
74.894814176
 21
22.710679617
 31
0.0
  0
LINE
  5
22F
330
1F
100
AcDbEntity
  8
PROFILES_OUTSIDE
100
AcDbLine
 10
74.2519904903
 20
22.9567426092
 30
0.0
 11
74.8421352033
 21
22.9567426092
 31
0.0
  0
LINE
  5
230
330
1F
100
AcDbEntity
  8
PROFILES_OUTSIDE
100
AcDbLine
 10
74.1156803177
 20
22.4645378847
 30
0.0
 11
74.1156803177
 21
22.5442157729
 31
0.0
  0
LINE
  5
231
330
1F
100
AcDbEntity
  8
PROFILES_OUTSIDE
100
AcDbLine
 10
68.6826094516
 20
22.4645378847
 30
0.0
 11
74.1156803177
 21
22.4645378847
 31
0.0
  0
LINE
  5
232
330
1F
100
AcDbEntity
  8
PROFILES_OUTSIDE
100
AcDbLine
 10
68.2101685067
 20
28.3050628191
 30
0.0
 11
68.2101685067
 21
22.9369788296
 31
0.0
  0
LINE
  5
233
330
1F
100
AcDbEntity
  8
PROFILES_OUTSIDE
100
AcDbLine
 10
66.7141055146
 20
28.777503764
 30
0.0
 11
67.7377275618
 21
28.777503764
 31
0.0
  0
LINE
  5
234
330
1F
100
AcDbEntity
  8
PROFILES_OUTSIDE
100
AcDbLine
 10
66.2416645697
 20
22.9369788296
 30
0.0
 11
66.2416645697
 21
28.3050628191
 31
0.0
  0
LINE
  5
235
330
1F
100
AcDbEntity
  8
PROFILES_INSIDE
100
AcDbLine
 10
41.2541448846
 20
44.3115569132
 30
0.0
 11
41.2541448846
 21
44.8023220059
 31
0.0
  0
LINE
  5
236
330
1F
100
AcDbEntity
  8
PROFILES_INSIDE
100
AcDbLine
 10
40.6824197523
 20
44.17524646
 30
0.0
 11
40.8416180484
 21
44.1752466323
 31
0.0
  0
LINE
  5
237
330
1F
100
AcDbEntity
  8
PROFILES_INSIDE
100
AcDbLine
 10
40.2698928476
 20
44.8023223948
 30
0.0
 11
40.2698929161
 21
44.3115565243
 31
0.0
  0
LINE
  5
238
330
1F
100
AcDbEntity
  8
PROFILES_INSIDE
100
AcDbLine
 10
40.8416180484
 20
44.9386324591
 30
0.0
 11
40.6824197523
 21
44.9386322214
 31
0.0
  0
LINE
  5
239
330
1F
100
AcDbEntity
  8
PROFILES_INSIDE
100
AcDbLine
 10
24.7620425224
 20
44.3115569132
 30
0.0
 11
24.7620425224
 21
44.8023220059
 31
0.0
  0
LINE
  5
23A
330
1F
100
AcDbEntity
  8
PROFILES_INSIDE
100
AcDbLine
 10
24.3495156862
 20
44.9386324591
 30
0.0
 11
24.1903173901
 21
44.938632263
 31
0.0
  0
LINE
  5
23B
330
1F
100
AcDbEntity
  8
PROFILES_INSIDE
100
AcDbLine
 10
23.7777904794
 20
44.8023223948
 30
0.0
 11
23.7777905539
 21
44.3115565243
 31
0.0
  0
LINE
  5
23C
330
1F
100
AcDbEntity
  8
PROFILES_INSIDE
100
AcDbLine
 10
24.1903173901
 20
44.17524646
 30
0.0
 11
24.3495156862
 21
44.1752466323
 31
0.0
  0
LINE
  5
23D
330
1F
100
AcDbEntity
  8
PROFILES_INSIDE
100
AcDbLine
 10
41.2541448846
 20
1.9040765982
 30
0.0
 11
41.2541448846
 21
2.3948416909
 31
0.0
  0
LINE
  5
23E
330
1F
100
AcDbEntity
  8
PROFILES_INSIDE
100
AcDbLine
 10
40.8416180484
 20
2.5311521441
 30
0.0
 11
40.6824197523
 21
2.5311519659
 31
0.0
  0
LINE
  5
23F
330
1F
100
AcDbEntity
  8
PROFILES_INSIDE
100
AcDbLine
 10
40.2698928357
 20
2.3948420799
 30
0.0
 11
40.2698929161
 21
1.9040762093
 31
0.0
  0
LINE
  5
240
330
1F
100
AcDbEntity
  8
PROFILES_INSIDE
100
AcDbLine
 10
40.6824197523
 20
1.7677661451
 30
0.0
 11
40.8416180484
 21
1.7677663173
 31
0.0
  0
LINE
  5
241
330
1F
100
AcDbEntity
  8
PROFILES_OUTSIDE
100
AcDbLine
 10
60.3361527586
 20
22.4645378847
 30
0.0
 11
65.7692236248
 21
22.4645378847
 31
0.0
  0
LINE
  5
242
330
1F
100
AcDbEntity
  8
PROFILES_OUTSIDE
100
AcDbLine
 10
60.3361527586
 20
22.5442157729
 30
0.0
 11
60.3361527586
 21
22.4645378847
 31
0.0
  0
LINE
  5
243
330
1F
100
AcDbEntity
  8
PROFILES_OUTSIDE
100
AcDbLine
 10
59.6096978731
 20
22.9567426092
 30
0.0
 11
60.1998425861
 21
22.9567426092
 31
0.0
  0
LINE
  5
244
330
1F
100
AcDbEntity
  8
PROFILES_OUTSIDE
100
AcDbLine
 10
59.5570189004
 20
22.710679617
 30
0.0
 11
59.5704081774
 21
22.9198870709
 31
0.0
  0
LINE
  5
245
330
1F
100
AcDbEntity
  8
PROFILES_OUTSIDE
100
AcDbLine
 10
59.3912708689
 20
22.710679617
 30
0.0
 11
59.5570189004
 21
22.710679617
 31
0.0
  0
LINE
  5
246
330
1F
100
AcDbEntity
  8
PROFILES_INSIDE
100
AcDbLine
 10
23.7777904854
 20
2.3948420799
 30
0.0
 11
23.7777905539
 21
1.9040762093
 31
0.0
  0
LINE
  5
247
330
1F
100
AcDbEntity
  8
PROFILES_INSIDE
100
AcDbLine
 10
24.1903173901
 20
1.7677661451
 30
0.0
 11
24.3495156862
 21
1.7677663173
 31
0.0
  0
LINE
  5
248
330
1F
100
AcDbEntity
  8
PROFILES_INSIDE
100
AcDbLine
 10
24.7620425224
 20
1.9040765982
 30
0.0
 11
24.7620425224
 21
2.3948416909
 31
0.0
  0
LINE
  5
249
330
1F
100
AcDbEntity
  8
PROFILES_INSIDE
100
AcDbLine
 10
24.3495156862
 20
2.5311521441
 30
0.0
 11
24.1903173901
 21
2.5311519718
 31
0.0
  0
LINE
  5
24A
330
1F
100
AcDbEntity
  8
PROFILES_OUTSIDE
100
AcDbLine
 10
22.3022944909
 20
45.2862701682
 30
0.0
 11
22.3022944909
 21
1.4201284359
 31
0.0
  0
LINE
  5
24B
330
1F
100
AcDbEntity
  8
PROFILES_OUTSIDE
100
AcDbLine
 10
42.1074126012
 20
45.5224906407
 30
0.0
 11
22.5385149634
 21
45.5224906407
 31
0.0
  0
LINE
  5
24C
330
1F
100
AcDbEntity
  8
POCKETS
100
AcDbLine
 10
21.4700110264
 20
3.2878449714
 30
0.0
 11
21.076310239
 21
3.2878449714
 31
0.0
  0
LINE
  5
24D
330
1F
100
AcDbEntity
  8
PROFILES_OUTSIDE
100
AcDbLine
 10
59.3519007901
 20
23.212648121
 30
0.0
 11
59.3519007901
 21
22.7500496958
 31
0.0
  0
LINE
  5
24E
330
1F
100
AcDbEntity
  8
PROFILES_OUTSIDE
100
AcDbLine
 10
65.0192236248
 20
23.4488685934
 30
0.0
 11
59.5881212626
 21
23.4488685934
 31
0.0
  0
LINE
  5
24F
330
1F
100
AcDbEntity
  8
PROFILES_OUTSIDE
100
AcDbLine
 10
65.4916645697
 20
28.777503764
 30
0.0
 11
65.4916645697
 21
23.9213095383
 31
0.0
  0
LINE
  5
250
330
1F
100
AcDbEntity
  8
PROFILES_OUTSIDE
100
AcDbLine
 10
66.2416645697
 20
33.3189905927
 30
0.0
 11
66.2416645697
 21
30.0765418697
 31
0.0
  0
LINE
  5
251
330
1F
100
AcDbEntity
  8
PROFILES_OUTSIDE
100
AcDbLine
 10
65.4916645697
 20
39.4742229241
 30
0.0
 11
65.4916645697
 21
34.6180286984
 31
0.0
  0
LINE
  5
252
330
1F
100
AcDbEntity
  8
PROFILES_OUTSIDE
100
AcDbLine
 10
59.5881212626
 20
39.946663869
 30
0.0
 11
65.0192236248
 21
39.946663869
 31
0.0
  0
LINE
  5
253
330
1F
100
AcDbEntity
  8
PROFILES_OUTSIDE
100
AcDbLine
 10
59.3519007901
 20
40.6454827666
 30
0.0
 11
59.3519007901
 21
40.1828843414
 31
0.0
  0
LINE
  5
254
330
1F
100
AcDbEntity
  8
PROFILES_OUTSIDE
100
AcDbLine
 10
59.5570189004
 20
40.6848528454
 30
0.0
 11
59.3912708689
 21
40.6848528454
 31
0.0
  0
LINE
  5
255
330
1F
100
AcDbEntity
  8
PROFILES_OUTSIDE
100
AcDbLine
 10
59.5704081774
 20
40.4756453915
 30
0.0
 11
59.5570189004
 21
40.6848528454
 31
0.0
  0
LINE
  5
256
330
1F
100
AcDbEntity
  8
PROFILES_OUTSIDE
100
AcDbLine
 10
60.1998425861
 20
40.4387898533
 30
0.0
 11
59.6096978731
 21
40.4387898533
 31
0.0
  0
LINE
  5
257
330
1F
100
AcDbEntity
  8
PROFILES_OUTSIDE
100
AcDbLine
 10
60.3361527586
 20
40.9309945777
 30
0.0
 11
60.3361527586
 21
40.8513166895
 31
0.0
  0
LINE
  5
258
330
1F
100
AcDbEntity
  8
PROFILES_OUTSIDE
100
AcDbLine
 10
65.7692236248
 20
40.9309945777
 30
0.0
 11
60.3361527586
 21
40.9309945777
 31
0.0
  0
LINE
  5
259
330
1F
100
AcDbEntity
  8
PROFILES_OUTSIDE
100
AcDbLine
 10
66.2416645697
 20
35.0904696433
 30
0.0
 11
66.2416645697
 21
40.4585536328
 31
0.0
  0
LINE
  5
25A
330
1F
100
AcDbEntity
  8
PROFILES_OUTSIDE
100
AcDbLine
 10
67.7377275618
 20
34.6180286984
 30
0.0
 11
66.7141055146
 21
34.6180286984
 31
0.0
  0
LINE
  5
25B
330
1F
100
AcDbEntity
  8
PROFILES_OUTSIDE
100
AcDbLine
 10
68.2101685067
 20
40.4585536328
 30
0.0
 11
68.2101685067
 21
35.0904696433
 31
0.0
  0
LINE
  5
25C
330
1F
100
AcDbEntity
  8
PROFILES_OUTSIDE
100
AcDbLine
 10
74.1156803177
 20
40.9309945777
 30
0.0
 11
68.6826094516
 21
40.9309945777
 31
0.0
  0
LINE
  5
25D
330
1F
100
AcDbEntity
  8
POCKETS
100
AcDbLine
 10
21.4700110264
 20
2.5110733178
 30
0.0
 11
21.4700110264
 21
3.2878449714
 31
0.0
  0
LINE
  5
25E
330
1F
100
AcDbEntity
  8
POCKETS
100
AcDbLine
 10
21.076310239
 20
2.5110733178
 30
0.0
 11
21.4700110264
 21
2.5110733178
 31
0.0
  0
LINE
  5
25F
330
1F
100
AcDbEntity
  8
POCKETS
100
AcDbLine
 10
1.0082000027
 20
2.5110733178
 30
0.0
 11
21.076310239
 21
2.5110733178
 31
0.0
  0
LINE
  5
260
330
1F
100
AcDbEntity
  8
POCKETS
100
AcDbLine
 10
0.6144992153
 20
2.5110733178
 30
0.0
 11
1.0082000027
 21
2.5110733178
 31
0.0
  0
LINE
  5
261
330
1F
100
AcDbEntity
  8
POCKETS
100
AcDbLine
 10
0.6144992153
 20
3.2878449714
 30
0.0
 11
0.6144992153
 21
2.5110733178
 31
0.0
  0
LINE
  5
262
330
1F
100
AcDbEntity
  8
POCKETS
100
AcDbLine
 10
1.0082000027
 20
3.2878449714
 30
0.0
 11
0.6144992153
 21
3.2878449714
 31
0.0
  0
LINE
  5
263
330
1F
100
AcDbEntity
  8
POCKETS
100
AcDbLine
 10
18.7247354358
 20
3.2878449714
 30
0.0
 11
1.0082000027
 21
3.2878449714
 31
0.0
  0
LINE
  5
264
330
1F
100
AcDbEntity
  8
POCKETS
100
AcDbLine
 10
18.7247354358
 20
43.4185536328
 30
0.0
 11
18.7247354358
 21
3.2878449714
 31
0.0
  0
LINE
  5
265
330
1F
100
AcDbEntity
  8
POCKETS
100
AcDbLine
 10
1.0082000027
 20
43.4185536328
 30
0.0
 11
18.7247354358
 21
43.4185536328
 31
0.0
  0
LINE
  5
266
330
1F
100
AcDbEntity
  8
POCKETS
100
AcDbLine
 10
0.6144992153
 20
43.4185536328
 30
0.0
 11
1.0082000027
 21
43.4185536328
 31
0.0
  0
LINE
  5
267
330
1F
100
AcDbEntity
  8
POCKETS
100
AcDbLine
 10
0.6144992153
 20
44.1953252863
 30
0.0
 11
0.6144992153
 21
43.4185536328
 31
0.0
  0
LINE
  5
268
330
1F
100
AcDbEntity
  8
POCKETS
100
AcDbLine
 10
1.0082000027
 20
44.1953252863
 30
0.0
 11
0.6144992153
 21
44.1953252863
 31
0.0
  0
LINE
  5
269
330
1F
100
AcDbEntity
  8
POCKETS
100
AcDbLine
 10
21.076310239
 20
44.1953252863
 30
0.0
 11
1.0082000027
 21
44.1953252863
 31
0.0
  0
LINE
  5
26A
330
1F
100
AcDbEntity
  8
POCKETS
100
AcDbLine
 10
21.4700110264
 20
44.1953252863
 30
0.0
 11
21.076310239
 21
44.1953252863
 31
0.0
  0
LINE
  5
26B
330
1F
100
AcDbEntity
  8
POCKETS
100
AcDbLine
 10
21.4700110264
 20
43.4185536328
 30
0.0
 11
21.4700110264
 21
44.1953252863
 31
0.0
  0
LINE
  5
26C
330
1F
100
AcDbEntity
  8
POCKETS
100
AcDbLine
 10
21.076310239
 20
43.4185536328
 30
0.0
 11
21.4700110264
 21
43.4185536328
 31
0.0
  0
LINE
  5
26D
330
1F
100
AcDbEntity
  8
POCKETS
100
AcDbLine
 10
19.4881212626
 20
43.4185536328
 30
0.0
 11
21.076310239
 21
43.4185536328
 31
0.0
  0
LINE
  5
26E
330
1F
100
AcDbEntity
  8
PROFILES_OUTSIDE
100
AcDbLine
 10
74.1156803177
 20
40.8513166895
 30
0.0
 11
74.1156803177
 21
40.9309945777
 31
0.0
  0
LINE
  5
26F
330
1F
100
AcDbEntity
  8
PROFILES_OUTSIDE
100
AcDbLine
 10
74.8421352033
 20
40.4387898533
 30
0.0
 11
74.2519904903
 21
40.4387898533
 31
0.0
  0
LINE
  5
270
330
1F
100
AcDbEntity
  8
PROFILES_OUTSIDE
100
AcDbLine
 10
74.894814176
 20
40.6848528454
 30
0.0
 11
74.8814248989
 21
40.4756453915
 31
0.0
  0
LINE
  5
271
330
1F
100
AcDbEntity
  8
PROFILES_OUTSIDE
100
AcDbLine
 10
75.0605622075
 20
40.6848528454
 30
0.0
 11
74.894814176
 21
40.6848528454
 31
0.0
  0
LINE
  5
272
330
1F
100
AcDbEntity
  8
PROFILES_OUTSIDE
100
AcDbLine
 10
75.0999322862
 20
40.1828843414
 30
0.0
 11
75.0999322862
 21
40.6454827666
 31
0.0
  0
LINE
  5
273
330
1F
100
AcDbEntity
  8
PROFILES_OUTSIDE
100
AcDbLine
 10
69.4326094516
 20
39.946663869
 30
0.0
 11
74.8637118138
 21
39.946663869
 31
0.0
  0
LINE
  5
274
330
1F
100
AcDbEntity
  8
PROFILES_OUTSIDE
100
AcDbLine
 10
68.9601685067
 20
34.6180286984
 30
0.0
 11
68.9601685067
 21
39.4742229241
 31
0.0
  0
LINE
  5
275
330
1F
100
AcDbEntity
  8
PROFILES_OUTSIDE
100
AcDbLine
 10
68.2101685067
 20
30.0765418697
 30
0.0
 11
68.2101685067
 21
33.3189905927
 31
0.0
  0
LINE
  5
276
330
1F
100
AcDbEntity
  8
PROFILES_OUTSIDE
100
AcDbLine
 10
68.9601685067
 20
23.9213095383
 30
0.0
 11
68.9601685067
 21
28.777503764
 31
0.0
  0
LINE
  5
277
330
1F
100
AcDbEntity
  8
PROFILES_OUTSIDE
100
AcDbLine
 10
74.8637118138
 20
23.4488685934
 30
0.0
 11
69.4326094516
 21
23.4488685934
 31
0.0
  0
LINE
  5
278
330
1F
100
AcDbEntity
  8
PROFILES_OUTSIDE
100
AcDbLine
 10
75.0999322862
 20
22.7500496958
 30
0.0
 11
75.0999322862
 21
23.212648121
 31
0.0
  0
LINE
  5
279
330
1F
100
AcDbEntity
  8
POCKETS
100
AcDbLine
 10
19.4881212626
 20
3.2878449714
 30
0.0
 11
19.4881212626
 21
43.4185536328
 31
0.0
  0
LINE
  5
27A
330
1F
100
AcDbEntity
  8
PROFILES_OUTSIDE
100
AcDbLine
 10
76.5444204752
 20
40.6849315855
 30
0.0
 11
76.3786724437
 21
40.6849315855
 31
0.0
  0
LINE
  5
27B
330
1F
100
AcDbEntity
  8
PROFILES_OUTSIDE
100
AcDbLine
 10
76.5578097522
 20
40.4757241316
 30
0.0
 11
76.5444204752
 21
40.6849315855
 31
0.0
  0
LINE
  5
27C
330
1F
100
AcDbEntity
  8
PROFILES_OUTSIDE
100
AcDbLine
 10
77.1872441609
 20
40.4388685934
 30
0.0
 11
76.5970994479
 21
40.4388685934
 31
0.0
  0
LINE
  5
27D
330
1F
100
AcDbEntity
  8
PROFILES_OUTSIDE
100
AcDbLine
 10
77.3235543335
 20
40.9310733178
 30
0.0
 11
77.3235543335
 21
40.8513954296
 31
0.0
  0
LINE
  5
27E
330
1F
100
AcDbEntity
  8
PROFILES_OUTSIDE
100
AcDbLine
 10
82.7566251996
 20
40.9310733178
 30
0.0
 11
77.3235543335
 21
40.9310733178
 31
0.0
  0
LINE
  5
27F
330
1F
100
AcDbEntity
  8
PROFILES_OUTSIDE
100
AcDbLine
 10
83.2290661445
 20
35.0905483834
 30
0.0
 11
83.2290661445
 21
40.4586323729
 31
0.0
  0
LINE
  5
280
330
1F
100
AcDbEntity
  8
PROFILES_OUTSIDE
100
AcDbLine
 10
84.7251291366
 20
34.6181074386
 30
0.0
 11
83.7015070894
 21
34.6181074386
 31
0.0
  0
LINE
  5
281
330
1F
100
AcDbEntity
  8
PROFILES_OUTSIDE
100
AcDbLine
 10
85.1975700815
 20
40.4586323729
 30
0.0
 11
85.1975700815
 21
35.0905483834
 31
0.0
  0
LINE
  5
282
330
1F
100
AcDbEntity
  8
PROFILES_OUTSIDE
100
AcDbLine
 10
91.1030818925
 20
40.9310733178
 30
0.0
 11
85.6700110264
 21
40.9310733178
 31
0.0
  0
LINE
  5
283
330
1F
100
AcDbEntity
  8
PROFILES_OUTSIDE
100
AcDbLine
 10
91.1030818925
 20
40.8513954296
 30
0.0
 11
91.1030818925
 21
40.9310733178
 31
0.0
  0
LINE
  5
284
330
1F
100
AcDbEntity
  8
PROFILES_OUTSIDE
100
AcDbLine
 10
91.8295367781
 20
40.4388685934
 30
0.0
 11
91.2393920651
 21
40.4388685934
 31
0.0
  0
LINE
  5
285
330
1F
100
AcDbEntity
  8
PROFILES_OUTSIDE
100
AcDbLine
 10
91.8822157508
 20
40.6849315855
 30
0.0
 11
91.8688264737
 21
40.4757241316
 31
0.0
  0
LINE
  5
286
330
1F
100
AcDbEntity
  8
PROFILES_OUTSIDE
100
AcDbLine
 10
92.0479637823
 20
40.6849315855
 30
0.0
 11
91.8822157508
 21
40.6849315855
 31
0.0
  0
LINE
  5
287
330
1F
100
AcDbEntity
  8
PROFILES_OUTSIDE
100
AcDbLine
 10
92.087333861
 20
40.1829630816
 30
0.0
 11
92.087333861
 21
40.6455615068
 31
0.0
  0
LINE
  5
288
330
1F
100
AcDbEntity
  8
PROFILES_OUTSIDE
100
AcDbLine
 10
86.4200110264
 20
39.9467426092
 30
0.0
 11
91.8511133886
 21
39.9467426092
 31
0.0
  0
LINE
  5
289
330
1F
100
AcDbEntity
  8
PROFILES_OUTSIDE
100
AcDbLine
 10
85.9475700815
 20
34.6181074386
 30
0.0
 11
85.9475700815
 21
39.4743016643
 31
0.0
  0
LINE
  5
28A
330
1F
100
AcDbEntity
  8
PROFILES_OUTSIDE
100
AcDbLine
 10
85.1975700815
 20
30.0766206098
 30
0.0
 11
85.1975700815
 21
33.3190693329
 31
0.0
  0
LINE
  5
28B
330
1F
100
AcDbEntity
  8
PROFILES_OUTSIDE
100
AcDbLine
 10
85.9475700815
 20
23.9213882785
 30
0.0
 11
85.9475700815
 21
28.7775825042
 31
0.0
  0
LINE
  5
28C
330
1F
100
AcDbEntity
  8
PROFILES_OUTSIDE
100
AcDbLine
 10
91.8511133886
 20
23.4489473336
 30
0.0
 11
86.4200110264
 21
23.4489473336
 31
0.0
  0
LINE
  5
28D
330
1F
100
AcDbEntity
  8
PROFILES_OUTSIDE
100
AcDbLine
 10
92.087333861
 20
22.7501284359
 30
0.0
 11
92.087333861
 21
23.2127268611
 31
0.0
  0
LINE
  5
28E
330
1F
100
AcDbEntity
  8
PROFILES_OUTSIDE
100
AcDbLine
 10
91.8822157508
 20
22.7107583572
 30
0.0
 11
92.0479637823
 21
22.7107583572
 31
0.0
  0
LINE
  5
28F
330
1F
100
AcDbEntity
  8
PROFILES_OUTSIDE
100
AcDbLine
 10
91.8688264737
 20
22.9199658111
 30
0.0
 11
91.8822157508
 21
22.7107583572
 31
0.0
  0
LINE
  5
290
330
1F
100
AcDbEntity
  8
PROFILES_OUTSIDE
100
AcDbLine
 10
91.2393920651
 20
22.9568213493
 30
0.0
 11
91.8295367781
 21
22.9568213493
 31
0.0
  0
LINE
  5
291
330
1F
100
AcDbEntity
  8
PROFILES_OUTSIDE
100
AcDbLine
 10
91.1030818925
 20
22.4646166249
 30
0.0
 11
91.1030818925
 21
22.5442945131
 31
0.0
  0
LINE
  5
292
330
1F
100
AcDbEntity
  8
PROFILES_OUTSIDE
100
AcDbLine
 10
85.6700110264
 20
22.4646166249
 30
0.0
 11
91.1030818925
 21
22.4646166249
 31
0.0
  0
LINE
  5
293
330
1F
100
AcDbEntity
  8
PROFILES_OUTSIDE
100
AcDbLine
 10
85.1975700815
 20
28.3051415593
 30
0.0
 11
85.1975700815
 21
22.9370575698
 31
0.0
  0
LINE
  5
294
330
1F
100
AcDbEntity
  8
PROFILES_OUTSIDE
100
AcDbLine
 10
83.7015070894
 20
28.7775825042
 30
0.0
 11
84.7251291366
 21
28.7775825042
 31
0.0
  0
LINE
  5
295
330
1F
100
AcDbEntity
  8
PROFILES_OUTSIDE
100
AcDbLine
 10
83.2290661445
 20
22.9370575698
 30
0.0
 11
83.2290661445
 21
28.3051415593
 31
0.0
  0
LINE
  5
296
330
1F
100
AcDbEntity
  8
PROFILES_OUTSIDE
100
AcDbLine
 10
77.3235543335
 20
22.4646166249
 30
0.0
 11
82.7566251996
 21
22.4646166249
 31
0.0
  0
LINE
  5
297
330
1F
100
AcDbEntity
  8
PROFILES_OUTSIDE
100
AcDbLine
 10
77.3235543335
 20
22.5442945131
 30
0.0
 11
77.3235543335
 21
22.4646166249
 31
0.0
  0
LINE
  5
298
330
1F
100
AcDbEntity
  8
PROFILES_OUTSIDE
100
AcDbLine
 10
76.5970994479
 20
22.9568213493
 30
0.0
 11
77.1872441609
 21
22.9568213493
 31
0.0
  0
LINE
  5
299
330
1F
100
AcDbEntity
  8
PROFILES_OUTSIDE
100
AcDbLine
 10
76.5444204752
 20
22.7107583572
 30
0.0
 11
76.5578097522
 21
22.9199658111
 31
0.0
  0
LINE
  5
29A
330
1F
100
AcDbEntity
  8
PROFILES_OUTSIDE
100
AcDbLine
 10
76.3786724437
 20
22.7107583572
 30
0.0
 11
76.5444204752
 21
22.7107583572
 31
0.0
  0
LINE
  5
29B
330
1F
100
AcDbEntity
  8
PROFILES_OUTSIDE
100
AcDbLine
 10
76.3393023649
 20
23.2127268611
 30
0.0
 11
76.3393023649
 21
22.7501284359
 31
0.0
  0
LINE
  5
29C
330
1F
100
AcDbEntity
  8
PROFILES_OUTSIDE
100
AcDbLine
 10
82.0066251996
 20
23.4489473336
 30
0.0
 11
76.5755228374
 21
23.4489473336
 31
0.0
  0
LINE
  5
29D
330
1F
100
AcDbEntity
  8
PROFILES_OUTSIDE
100
AcDbLine
 10
82.4790661445
 20
28.7775825042
 30
0.0
 11
82.4790661445
 21
23.9213882785
 31
0.0
  0
LINE
  5
29E
330
1F
100
AcDbEntity
  8
PROFILES_OUTSIDE
100
AcDbLine
 10
83.2290661445
 20
33.3190693329
 30
0.0
 11
83.2290661445
 21
30.0766206098
 31
0.0
  0
LINE
  5
29F
330
1F
100
AcDbEntity
  8
PROFILES_OUTSIDE
100
AcDbLine
 10
82.4790661445
 20
39.4743016643
 30
0.0
 11
82.4790661445
 21
34.6181074386
 31
0.0
  0
LINE
  5
2A0
330
1F
100
AcDbEntity
  8
PROFILES_OUTSIDE
100
AcDbLine
 10
76.5755228374
 20
39.9467426092
 30
0.0
 11
82.0066251996
 21
39.9467426092
 31
0.0
  0
LINE
  5
2A1
330
1F
100
AcDbEntity
  8
PROFILES_OUTSIDE
100
AcDbLine
 10
76.3393023649
 20
40.6455615068
 30
0.0
 11
76.3393023649
 21
40.1829630816
 31
0.0
  0
LINE
  5
2A2
330
1F
100
AcDbEntity
  8
POCKETS
100
AcDbLine
 10
21.076310239
 20
3.2878449714
 30
0.0
 11
19.4881212626
 21
3.2878449714
 31
0.0
  0
LINE
  5
2A3
330
1F
100
AcDbEntity
  8
POCKETS
100
AcDbLine
 10
40.768829924
 20
43.4185536328
 30
0.0
 11
42.3570189004
 21
43.4185536328
 31
0.0
  0
LINE
  5
2A4
330
1F
100
AcDbEntity
  8
POCKETS
100
AcDbLine
 10
42.3570189004
 20
43.4185536328
 30
0.0
 11
42.7507196878
 21
43.4185536328
 31
0.0
  0
LINE
  5
2A5
330
1F
100
AcDbEntity
  8
POCKETS
100
AcDbLine
 10
42.7507196878
 20
43.4185536328
 30
0.0
 11
42.7507196878
 21
44.1953252863
 31
0.0
  0
LINE
  5
2A6
330
1F
100
AcDbEntity
  8
POCKETS
100
AcDbLine
 10
42.7507196878
 20
44.1953252863
 30
0.0
 11
42.3570189004
 21
44.1953252863
 31
0.0
  0
LINE
  5
2A7
330
1F
100
AcDbEntity
  8
POCKETS
100
AcDbLine
 10
42.3570189004
 20
44.1953252863
 30
0.0
 11
22.2889086642
 21
44.1953252863
 31
0.0
  0
LINE
  5
2A8
330
1F
100
AcDbEntity
  8
POCKETS
100
AcDbLine
 10
22.2889086642
 20
44.1953252863
 30
0.0
 11
21.8952078768
 21
44.1953252863
 31
0.0
  0
LINE
  5
2A9
330
1F
100
AcDbEntity
  8
POCKETS
100
AcDbLine
 10
21.8952078768
 20
44.1953252863
 30
0.0
 11
21.8952078768
 21
43.4185536328
 31
0.0
  0
LINE
  5
2AA
330
1F
100
AcDbEntity
  8
POCKETS
100
AcDbLine
 10
21.8952078768
 20
43.4185536328
 30
0.0
 11
22.2889086642
 21
43.4185536328
 31
0.0
  0
LINE
  5
2AB
330
1F
100
AcDbEntity
  8
POCKETS
100
AcDbLine
 10
22.2889086642
 20
43.4185536328
 30
0.0
 11
40.0054440972
 21
43.4185536328
 31
0.0
  0
LINE
  5
2AC
330
1F
100
AcDbEntity
  8
POCKETS
100
AcDbLine
 10
40.0054440972
 20
43.4185536328
 30
0.0
 11
40.0054440972
 21
3.2878449714
 31
0.0
  0
LINE
  5
2AD
330
1F
100
AcDbEntity
  8
POCKETS
100
AcDbLine
 10
40.0054440972
 20
3.2878449714
 30
0.0
 11
22.2889086642
 21
3.2878449714
 31
0.0
  0
LINE
  5
2AE
330
1F
100
AcDbEntity
  8
POCKETS
100
AcDbLine
 10
22.2889086642
 20
3.2878449714
 30
0.0
 11
21.8952078768
 21
3.2878449714
 31
0.0
  0
LINE
  5
2AF
330
1F
100
AcDbEntity
  8
POCKETS
100
AcDbLine
 10
21.8952078768
 20
3.2878449714
 30
0.0
 11
21.8952078768
 21
2.5110733178
 31
0.0
  0
LINE
  5
2B0
330
1F
100
AcDbEntity
  8
POCKETS
100
AcDbLine
 10
21.8952078768
 20
2.5110733178
 30
0.0
 11
22.2889086642
 21
2.5110733178
 31
0.0
  0
LINE
  5
2B1
330
1F
100
AcDbEntity
  8
POCKETS
100
AcDbLine
 10
22.2889086642
 20
2.5110733178
 30
0.0
 11
42.3570189004
 21
2.5110733178
 31
0.0
  0
LINE
  5
2B2
330
1F
100
AcDbEntity
  8
POCKETS
100
AcDbLine
 10
42.3570189004
 20
2.5110733178
 30
0.0
 11
42.7507196878
 21
2.5110733178
 31
0.0
  0
LINE
  5
2B3
330
1F
100
AcDbEntity
  8
POCKETS
100
AcDbLine
 10
42.7507196878
 20
2.5110733178
 30
0.0
 11
42.7507196878
 21
3.2878449714
 31
0.0
  0
LINE
  5
2B4
330
1F
100
AcDbEntity
  8
POCKETS
100
AcDbLine
 10
42.7507196878
 20
3.2878449714
 30
0.0
 11
42.3570189004
 21
3.2878449714
 31
0.0
  0
LINE
  5
2B5
330
1F
100
AcDbEntity
  8
POCKETS
100
AcDbLine
 10
42.3570189004
 20
3.2878449714
 30
0.0
 11
40.768829924
 21
3.2878449714
 31
0.0
  0
LINE
  5
2B6
330
1F
100
AcDbEntity
  8
POCKETS
100
AcDbLine
 10
40.768829924
 20
3.2878449714
 30
0.0
 11
40.768829924
 21
43.4185536328
 31
0.0
  0
LINE
  5
2B7
330
1F
100
AcDbEntity
  8
PROFILES_OUTSIDE
100
AcDbLine
 10
22.5385149634
 20
1.1839079635
 30
0.0
 11
42.1074126012
 21
1.1839079635
 31
0.0
  0
ARC
  5
2B8
330
1F
100
AcDbEntity
  8
PROFILES_INSIDE
100
AcDbCircle
 10
20.5491448846
 20
34.5580009918
 30
0.0
 40
0.2362204724409449
100
AcDbArc
 50
280.0
 51
0.0
  0
ARC
  5
2B9
330
1F
100
AcDbEntity
  8
PROFILES_OUTSIDE
100
AcDbCircle
 10
59.3912708689
 20
22.7500496958
 30
0.0
 40
0.0393700787401556
100
AcDbArc
 50
180.0
 51
270.0
  0
ARC
  5
2BA
330
1F
100
AcDbEntity
  8
PROFILES_INSIDE
100
AcDbCircle
 10
19.5609093444
 20
44.9780025378
 30
0.0
 40
0.0393700787401574
100
AcDbArc
 50
270.0000619979
 51
342.3995461274
  0
ARC
  5
2BB
330
1F
100
AcDbEntity
  8
PROFILES_INSIDE
100
AcDbCircle
 10
19.792451535
 20
44.9045510097
 30
0.0
 40
0.2035433070866176
100
AcDbArc
 50
335.1122143058
 51
162.3995461274
  0
ARC
  5
2BC
330
1F
100
AcDbEntity
  8
PROFILES_INSIDE
100
AcDbCircle
 10
20.0128080644
 20
44.8023220059
 30
0.0
 40
0.0393718412080908
100
AcDbArc
 50
155.1122143058
 51
180.0
  0
ARC
  5
2BD
330
1F
100
AcDbEntity
  8
PROFILES_INSIDE
100
AcDbCircle
 10
20.012806302
 20
44.3115569132
 30
0.0
 40
0.0393700787401592
100
AcDbArc
 50
180.0
 51
204.8879066246
  0
ARC
  5
2BE
330
1F
100
AcDbEntity
  8
PROFILES_INSIDE
100
AcDbCircle
 10
19.7924515871
 20
44.209328186
 30
0.0
 40
0.2035433070866196
100
AcDbArc
 50
197.6004796991
 51
24.8879066246
  0
ARC
  5
2BF
330
1F
100
AcDbEntity
  8
PROFILES_INSIDE
100
AcDbCircle
 10
19.5609094296
 20
44.1358765536
 30
0.0
 40
0.0393700787401591
100
AcDbArc
 50
17.6004796992
 51
90.0000619979
  0
ARC
  5
2C0
330
1F
100
AcDbEntity
  8
PROFILES_INSIDE
100
AcDbCircle
 10
19.4017111335
 20
44.1358763813
 30
0.0
 40
0.0393700787401574
100
AcDbArc
 50
90.0000619979
 51
162.3995461274
  0
ARC
  5
2C1
330
1F
100
AcDbEntity
  8
PROFILES_INSIDE
100
AcDbCircle
 10
19.1701689429
 20
44.2093279094
 30
0.0
 40
0.2035433070866195
100
AcDbArc
 50
155.1121225719
 51
342.3995461274
  0
ARC
  5
2C2
330
1F
100
AcDbEntity
  8
PROFILES_INSIDE
100
AcDbCircle
 10
18.949814176
 20
44.3115565243
 30
0.0
 40
0.0393700787401592
100
AcDbArc
 50
335.1121225719
 51
0.0
  0
ARC
  5
2C3
330
1F
100
AcDbEntity
  8
PROFILES_INSIDE
100
AcDbCircle
 10
18.949814176
 20
44.8023223948
 30
0.0
 40
0.0393700101665928
100
AcDbArc
 50
0.0
 51
24.8878234094
  0
ARC
  5
2C4
330
1F
100
AcDbEntity
  8
PROFILES_INSIDE
100
AcDbCircle
 10
19.1701688908
 20
44.9045507331
 30
0.0
 40
0.2035432417046688
100
AcDbArc
 50
17.6004796991
 51
204.8878234094
  0
ARC
  5
2C5
330
1F
100
AcDbEntity
  8
PROFILES_INSIDE
100
AcDbCircle
 10
19.4017110483
 20
44.9780023655
 30
0.0
 40
0.0393701441221114
100
AcDbArc
 50
197.6004796991
 51
270.0000619979
  0
ARC
  5
2C6
330
1F
100
AcDbEntity
  8
PROFILES_INSIDE
100
AcDbCircle
 10
3.5150127888
 20
44.8023220059
 30
0.0
 40
0.039371841208085
100
AcDbArc
 50
155.1122143058
 51
180.0
  0
ARC
  5
2C7
330
1F
100
AcDbEntity
  8
PROFILES_INSIDE
100
AcDbCircle
 10
3.2946562594
 20
44.9045510097
 30
0.0
 40
0.203543307086616
100
AcDbArc
 50
335.1122143058
 51
162.3995461274
  0
ARC
  5
2C8
330
1F
100
AcDbEntity
  8
PROFILES_INSIDE
100
AcDbCircle
 10
3.0631140688
 20
44.9780025378
 30
0.0
 40
0.0393700787401583
100
AcDbArc
 50
270.0000619979
 51
342.3995461274
  0
ARC
  5
2C9
330
1F
100
AcDbEntity
  8
PROFILES_INSIDE
100
AcDbCircle
 10
2.9039157727
 20
44.9780023655
 30
0.0
 40
0.0393701144030417
100
AcDbArc
 50
197.6004796992
 51
270.0000619979
  0
ARC
  5
2CA
330
1F
100
AcDbEntity
  8
PROFILES_INSIDE
100
AcDbCircle
 10
2.6723736152
 20
44.9045507331
 30
0.0
 40
0.2035432714237299
100
AcDbArc
 50
17.6004796991
 51
204.8878234094
  0
ARC
  5
2CB
330
1F
100
AcDbEntity
  8
PROFILES_INSIDE
100
AcDbCircle
 10
2.4520189004
 20
44.8023223948
 30
0.0
 40
0.0393700042227749
100
AcDbArc
 50
0.0
 51
24.8878234094
  0
ARC
  5
2CC
330
1F
100
AcDbEntity
  8
PROFILES_INSIDE
100
AcDbCircle
 10
2.4520189004
 20
44.3115565243
 30
0.0
 40
0.0393700787401632
100
AcDbArc
 50
335.1121225718
 51
0.0
  0
ARC
  5
2CD
330
1F
100
AcDbEntity
  8
PROFILES_INSIDE
100
AcDbCircle
 10
2.6723736673
 20
44.2093279094
 30
0.0
 40
0.2035433070866187
100
AcDbArc
 50
155.1121225719
 51
342.3995461274
  0
ARC
  5
2CE
330
1F
100
AcDbEntity
  8
PROFILES_INSIDE
100
AcDbCircle
 10
2.9039158579
 20
44.1358763813
 30
0.0
 40
0.0393700787401574
100
AcDbArc
 50
90.0000619979
 51
162.3995461274
  0
ARC
  5
2CF
330
1F
100
AcDbEntity
  8
PROFILES_INSIDE
100
AcDbCircle
 10
3.063114154
 20
44.1358765536
 30
0.0
 40
0.0393700787401582
100
AcDbArc
 50
17.6004796992
 51
90.0000619979
  0
ARC
  5
2D0
330
1F
100
AcDbEntity
  8
PROFILES_INSIDE
100
AcDbCircle
 10
3.2946563115
 20
44.209328186
 30
0.0
 40
0.2035433070866112
100
AcDbArc
 50
197.6004796991
 51
24.8879066246
  0
ARC
  5
2D1
330
1F
100
AcDbEntity
  8
PROFILES_INSIDE
100
AcDbCircle
 10
3.5150110264
 20
44.3115569132
 30
0.0
 40
0.0393700787401647
100
AcDbArc
 50
180.0
 51
204.8879066246
  0
ARC
  5
2D2
330
1F
100
AcDbEntity
  8
PROFILES_INSIDE
100
AcDbCircle
 10
19.7924515871
 20
1.8018478711
 30
0.0
 40
0.2035433070866158
100
AcDbArc
 50
197.6004796991
 51
24.8879066246
  0
ARC
  5
2D3
330
1F
100
AcDbEntity
  8
PROFILES_INSIDE
100
AcDbCircle
 10
20.012806302
 20
1.9040765982
 30
0.0
 40
0.0393700787401592
100
AcDbArc
 50
180.0
 51
204.8879066246
  0
ARC
  5
2D4
330
1F
100
AcDbEntity
  8
PROFILES_INSIDE
100
AcDbCircle
 10
20.0128080644
 20
2.3948416909
 30
0.0
 40
0.0393718412080908
100
AcDbArc
 50
155.1122143058
 51
180.0
  0
ARC
  5
2D5
330
1F
100
AcDbEntity
  8
PROFILES_INSIDE
100
AcDbCircle
 10
19.792451535
 20
2.4970706947
 30
0.0
 40
0.2035433070866182
100
AcDbArc
 50
335.1122143058
 51
162.3995461274
  0
ARC
  5
2D6
330
1F
100
AcDbEntity
  8
PROFILES_INSIDE
100
AcDbCircle
 10
19.5609093444
 20
2.5705222228
 30
0.0
 40
0.0393700787401587
100
AcDbArc
 50
270.0000619979
 51
342.3995461274
  0
ARC
  5
2D7
330
1F
100
AcDbEntity
  8
PROFILES_INSIDE
100
AcDbCircle
 10
19.4017110483
 20
2.5705220506
 30
0.0
 40
0.0393701084592274
100
AcDbArc
 50
197.6004796992
 51
270.0000619979
  0
ARC
  5
2D8
330
1F
100
AcDbEntity
  8
PROFILES_INSIDE
100
AcDbCircle
 10
19.1701688908
 20
2.4970704181
 30
0.0
 40
0.2035432773675473
100
AcDbArc
 50
17.6004796991
 51
204.8878234094
  0
ARC
  5
2D9
330
1F
100
AcDbEntity
  8
PROFILES_INSIDE
100
AcDbCircle
 10
18.949814176
 20
2.3948420799
 30
0.0
 40
0.0393699982789641
100
AcDbArc
 50
0.0
 51
24.8878234094
  0
ARC
  5
2DA
330
1F
100
AcDbEntity
  8
PROFILES_INSIDE
100
AcDbCircle
 10
18.949814176
 20
1.9040762093
 30
0.0
 40
0.0393700787401594
100
AcDbArc
 50
335.1121225719
 51
0.0
  0
ARC
  5
2DB
330
1F
100
AcDbEntity
  8
PROFILES_INSIDE
100
AcDbCircle
 10
19.1701689429
 20
1.8018475944
 30
0.0
 40
0.2035433070866156
100
AcDbArc
 50
155.1121225719
 51
342.3995461274
  0
ARC
  5
2DC
330
1F
100
AcDbEntity
  8
PROFILES_INSIDE
100
AcDbCircle
 10
19.4017111335
 20
1.7283960663
 30
0.0
 40
0.0393700787401587
100
AcDbArc
 50
90.0000619979
 51
162.3995461274
  0
ARC
  5
2DD
330
1F
100
AcDbEntity
  8
PROFILES_INSIDE
100
AcDbCircle
 10
19.5609094296
 20
1.7283962386
 30
0.0
 40
0.0393700787401587
100
AcDbArc
 50
17.6004796992
 51
90.0000619979
  0
ARC
  5
2DE
330
1F
100
AcDbEntity
  8
PROFILES_INSIDE
100
AcDbCircle
 10
2.4520189004
 20
1.9040762093
 30
0.0
 40
0.0393700787401619
100
AcDbArc
 50
335.1121225719
 51
0.0
  0
ARC
  5
2DF
330
1F
100
AcDbEntity
  8
PROFILES_INSIDE
100
AcDbCircle
 10
2.6723736673
 20
1.8018475944
 30
0.0
 40
0.2035433070866165
100
AcDbArc
 50
155.1121225719
 51
342.3995461274
  0
ARC
  5
2E0
330
1F
100
AcDbEntity
  8
PROFILES_INSIDE
100
AcDbCircle
 10
2.9039158579
 20
1.7283960663
 30
0.0
 40
0.0393700787401543
100
AcDbArc
 50
90.0000619979
 51
162.3995461274
  0
ARC
  5
2E1
330
1F
100
AcDbEntity
  8
PROFILES_INSIDE
100
AcDbCircle
 10
3.063114154
 20
1.7283962386
 30
0.0
 40
0.0393700787401624
100
AcDbArc
 50
17.6004796992
 51
90.0000619979
  0
ARC
  5
2E2
330
1F
100
AcDbEntity
  8
PROFILES_INSIDE
100
AcDbCircle
 10
3.2946563115
 20
1.8018478711
 30
0.0
 40
0.2035433070866136
100
AcDbArc
 50
197.6004796991
 51
24.8879066246
  0
ARC
  5
2E3
330
1F
100
AcDbEntity
  8
PROFILES_INSIDE
100
AcDbCircle
 10
3.5150110264
 20
1.9040765982
 30
0.0
 40
0.0393700787401574
100
AcDbArc
 50
180.0
 51
204.8879066246
  0
ARC
  5
2E4
330
1F
100
AcDbEntity
  8
PROFILES_INSIDE
100
AcDbCircle
 10
3.5150127888
 20
2.3948416909
 30
0.0
 40
0.0393718412080939
100
AcDbArc
 50
155.1122143058
 51
180.0
  0
ARC
  5
2E5
330
1F
100
AcDbEntity
  8
PROFILES_INSIDE
100
AcDbCircle
 10
3.2946562594
 20
2.4970706947
 30
0.0
 40
0.2035433070866147
100
AcDbArc
 50
335.1122143058
 51
162.3995461274
  0
ARC
  5
2E6
330
1F
100
AcDbEntity
  8
PROFILES_INSIDE
100
AcDbCircle
 10
3.0631140688
 20
2.5705222228
 30
0.0
 40
0.0393700787401587
100
AcDbArc
 50
270.0000619979
 51
342.3995461274
  0
ARC
  5
2E7
330
1F
100
AcDbEntity
  8
PROFILES_INSIDE
100
AcDbCircle
 10
2.9039157727
 20
2.5705220506
 30
0.0
 40
0.039370084683971
100
AcDbArc
 50
197.6004796992
 51
270.0000619979
  0
ARC
  5
2E8
330
1F
100
AcDbEntity
  8
PROFILES_INSIDE
100
AcDbCircle
 10
2.6723736152
 20
2.4970704181
 30
0.0
 40
0.2035433011427999
100
AcDbArc
 50
17.6004796991
 51
204.8878234094
  0
ARC
  5
2E9
330
1F
100
AcDbEntity
  8
PROFILES_INSIDE
100
AcDbCircle
 10
2.4520189004
 20
2.3948420799
 30
0.0
 40
0.0393700101665897
100
AcDbArc
 50
0.0
 51
24.8878234094
  0
ARC
  5
2EA
330
1F
100
AcDbEntity
  8
PROFILES_INSIDE
100
AcDbCircle
 10
40.8416180058
 20
44.9780025378
 30
0.0
 40
0.0393700787401574
100
AcDbArc
 50
270.0000619979
 51
342.3995461274
  0
ARC
  5
2EB
330
1F
100
AcDbEntity
  8
PROFILES_INSIDE
100
AcDbCircle
 10
41.0731601964
 20
44.9045510097
 30
0.0
 40
0.2035433070866152
100
AcDbArc
 50
335.1122143058
 51
162.3995461274
  0
ARC
  5
2EC
330
1F
100
AcDbEntity
  8
PROFILES_INSIDE
100
AcDbCircle
 10
41.2935167258
 20
44.8023220059
 30
0.0
 40
0.0393718412080943
100
AcDbArc
 50
155.1122143058
 51
180.0
  0
ARC
  5
2ED
330
1F
100
AcDbEntity
  8
PROFILES_INSIDE
100
AcDbCircle
 10
41.2935149634
 20
44.3115569132
 30
0.0
 40
0.0393700787401529
100
AcDbArc
 50
180.0
 51
204.8879066246
  0
ARC
  5
2EE
330
1F
100
AcDbEntity
  8
PROFILES_INSIDE
100
AcDbCircle
 10
41.0731602485
 20
44.209328186
 30
0.0
 40
0.2035433070866134
100
AcDbArc
 50
197.6004796991
 51
24.8879066246
  0
ARC
  5
2EF
330
1F
100
AcDbEntity
  8
PROFILES_INSIDE
100
AcDbCircle
 10
40.841618091
 20
44.1358765536
 30
0.0
 40
0.0393700787401645
100
AcDbArc
 50
17.6004796992
 51
90.0000619979
  0
ARC
  5
2F0
330
1F
100
AcDbEntity
  8
PROFILES_INSIDE
100
AcDbCircle
 10
40.6824197949
 20
44.1358763813
 30
0.0
 40
0.0393700787401574
100
AcDbArc
 50
90.0000619979
 51
162.3995461274
  0
ARC
  5
2F1
330
1F
100
AcDbEntity
  8
PROFILES_INSIDE
100
AcDbCircle
 10
40.4508776043
 20
44.2093279094
 30
0.0
 40
0.2035433070866152
100
AcDbArc
 50
155.1121225719
 51
342.3995461274
  0
ARC
  5
2F2
330
1F
100
AcDbEntity
  8
PROFILES_INSIDE
100
AcDbCircle
 10
40.2305228374
 20
44.3115565243
 30
0.0
 40
0.039370078740158
100
AcDbArc
 50
335.1121225719
 51
0.0
  0
ARC
  5
2F3
330
1F
100
AcDbEntity
  8
PROFILES_INSIDE
100
AcDbCircle
 10
40.2305228374
 20
44.8023223948
 30
0.0
 40
0.0393700101665786
100
AcDbArc
 50
0.0
 51
24.8878234094
  0
ARC
  5
2F4
330
1F
100
AcDbEntity
  8
PROFILES_INSIDE
100
AcDbCircle
 10
40.4508775522
 20
44.9045507331
 30
0.0
 40
0.2035432417046611
100
AcDbArc
 50
17.6004796991
 51
204.8878234094
  0
ARC
  5
2F5
330
1F
100
AcDbEntity
  8
PROFILES_INSIDE
100
AcDbCircle
 10
40.6824197097
 20
44.9780023655
 30
0.0
 40
0.0393701441221043
100
AcDbArc
 50
197.6004796992
 51
270.0000619979
  0
ARC
  5
2F6
330
1F
100
AcDbEntity
  8
PROFILES_INSIDE
100
AcDbCircle
 10
24.8014143636
 20
44.8023220059
 30
0.0
 40
0.0393718412080883
100
AcDbArc
 50
155.1122143058
 51
180.0
  0
ARC
  5
2F7
330
1F
100
AcDbEntity
  8
PROFILES_INSIDE
100
AcDbCircle
 10
24.5810578342
 20
44.9045510097
 30
0.0
 40
0.2035433070866144
100
AcDbArc
 50
335.1122143058
 51
162.3995461274
  0
ARC
  5
2F8
330
1F
100
AcDbEntity
  8
PROFILES_INSIDE
100
AcDbCircle
 10
24.3495156436
 20
44.9780025378
 30
0.0
 40
0.0393700787401588
100
AcDbArc
 50
270.0000619979
 51
342.3995461274
  0
ARC
  5
2F9
330
1F
100
AcDbEntity
  8
PROFILES_INSIDE
100
AcDbCircle
 10
24.1903173475
 20
44.9780023655
 30
0.0
 40
0.0393701144030357
100
AcDbArc
 50
197.6004796991
 51
270.0000619979
  0
ARC
  5
2FA
330
1F
100
AcDbEntity
  8
PROFILES_INSIDE
100
AcDbCircle
 10
23.95877519
 20
44.9045507331
 30
0.0
 40
0.2035432714237341
100
AcDbArc
 50
17.6004796992
 51
204.8878234094
  0
ARC
  5
2FB
330
1F
100
AcDbEntity
  8
PROFILES_INSIDE
100
AcDbCircle
 10
23.7384204752
 20
44.8023223948
 30
0.0
 40
0.0393700042227714
100
AcDbArc
 50
0.0
 51
24.8878234094
  0
ARC
  5
2FC
330
1F
100
AcDbEntity
  8
PROFILES_INSIDE
100
AcDbCircle
 10
23.7384204752
 20
44.3115565243
 30
0.0
 40
0.0393700787401556
100
AcDbArc
 50
335.1121225719
 51
0.0
  0
ARC
  5
2FD
330
1F
100
AcDbEntity
  8
PROFILES_INSIDE
100
AcDbCircle
 10
23.9587752421
 20
44.2093279094
 30
0.0
 40
0.2035433070866164
100
AcDbArc
 50
155.1121225719
 51
342.3995461274
  0
ARC
  5
2FE
330
1F
100
AcDbEntity
  8
PROFILES_INSIDE
100
AcDbCircle
 10
24.1903174327
 20
44.1358763813
 30
0.0
 40
0.0393700787401622
100
AcDbArc
 50
90.0000619979
 51
162.3995461274
  0
ARC
  5
2FF
330
1F
100
AcDbEntity
  8
PROFILES_INSIDE
100
AcDbCircle
 10
24.3495157288
 20
44.1358765536
 30
0.0
 40
0.0393700787401645
100
AcDbArc
 50
17.6004796992
 51
90.0000619979
  0
ARC
  5
300
330
1F
100
AcDbEntity
  8
PROFILES_INSIDE
100
AcDbCircle
 10
24.5810578863
 20
44.209328186
 30
0.0
 40
0.2035433070866136
100
AcDbArc
 50
197.6004796991
 51
24.8879066246
  0
ARC
  5
301
330
1F
100
AcDbEntity
  8
PROFILES_INSIDE
100
AcDbCircle
 10
24.8014126012
 20
44.3115569132
 30
0.0
 40
0.0393700787401559
100
AcDbArc
 50
180.0
 51
204.8879066246
  0
ARC
  5
302
330
1F
100
AcDbEntity
  8
PROFILES_INSIDE
100
AcDbCircle
 10
41.0731602485
 20
1.8018478711
 30
0.0
 40
0.2035433070866137
100
AcDbArc
 50
197.6004796991
 51
24.8879066246
  0
ARC
  5
303
330
1F
100
AcDbEntity
  8
PROFILES_INSIDE
100
AcDbCircle
 10
41.2935149634
 20
1.9040765982
 30
0.0
 40
0.0393700787401542
100
AcDbArc
 50
180.0
 51
204.8879066246
  0
ARC
  5
304
330
1F
100
AcDbEntity
  8
PROFILES_INSIDE
100
AcDbCircle
 10
41.2935167258
 20
2.3948416909
 30
0.0
 40
0.0393718412080864
100
AcDbArc
 50
155.1122143058
 51
180.0
  0
ARC
  5
305
330
1F
100
AcDbEntity
  8
PROFILES_INSIDE
100
AcDbCircle
 10
41.0731601964
 20
2.4970706947
 30
0.0
 40
0.203543307086617
100
AcDbArc
 50
335.1122143058
 51
162.3995461274
  0
ARC
  5
306
330
1F
100
AcDbEntity
  8
PROFILES_INSIDE
100
AcDbCircle
 10
40.8416180058
 20
2.5705222228
 30
0.0
 40
0.0393700787401565
100
AcDbArc
 50
270.0000619979
 51
342.3995461274
  0
ARC
  5
307
330
1F
100
AcDbEntity
  8
PROFILES_INSIDE
100
AcDbCircle
 10
40.6824197097
 20
2.5705220506
 30
0.0
 40
0.0393701084592167
100
AcDbArc
 50
197.6004796992
 51
270.0000619979
  0
ARC
  5
308
330
1F
100
AcDbEntity
  8
PROFILES_INSIDE
100
AcDbCircle
 10
40.4508775522
 20
2.4970704181
 30
0.0
 40
0.2035432773675466
100
AcDbArc
 50
17.6004796991
 51
204.8878234094
  0
ARC
  5
309
330
1F
100
AcDbEntity
  8
PROFILES_INSIDE
100
AcDbCircle
 10
40.2305228374
 20
2.3948420799
 30
0.0
 40
0.039369998278957
100
AcDbArc
 50
0.0
 51
24.8878234094
  0
ARC
  5
30A
330
1F
100
AcDbEntity
  8
PROFILES_INSIDE
100
AcDbCircle
 10
40.2305228374
 20
1.9040762093
 30
0.0
 40
0.0393700787401533
100
AcDbArc
 50
335.1121225718
 51
0.0
  0
ARC
  5
30B
330
1F
100
AcDbEntity
  8
PROFILES_INSIDE
100
AcDbCircle
 10
40.4508776043
 20
1.8018475944
 30
0.0
 40
0.2035433070866165
100
AcDbArc
 50
155.1121225719
 51
342.3995461274
  0
ARC
  5
30C
330
1F
100
AcDbEntity
  8
PROFILES_INSIDE
100
AcDbCircle
 10
40.6824197949
 20
1.7283960663
 30
0.0
 40
0.0393700787401587
100
AcDbArc
 50
90.0000619979
 51
162.3995461274
  0
ARC
  5
30D
330
1F
100
AcDbEntity
  8
PROFILES_INSIDE
100
AcDbCircle
 10
40.841618091
 20
1.7283962386
 30
0.0
 40
0.0393700787401563
100
AcDbArc
 50
17.6004796991
 51
90.0000619979
  0
ARC
  5
30E
330
1F
100
AcDbEntity
  8
PROFILES_INSIDE
100
AcDbCircle
 10
23.7384204752
 20
1.9040762093
 30
0.0
 40
0.0393700787401631
100
AcDbArc
 50
335.1121225719
 51
0.0
  0
ARC
  5
30F
330
1F
100
AcDbEntity
  8
PROFILES_INSIDE
100
AcDbCircle
 10
23.9587752421
 20
1.8018475944
 30
0.0
 40
0.2035433070866169
100
AcDbArc
 50
155.1121225719
 51
342.3995461274
  0
ARC
  5
310
330
1F
100
AcDbEntity
  8
PROFILES_INSIDE
100
AcDbCircle
 10
24.1903174327
 20
1.7283960663
 30
0.0
 40
0.0393700787401587
100
AcDbArc
 50
90.0000619979
 51
162.3995461274
  0
ARC
  5
311
330
1F
100
AcDbEntity
  8
PROFILES_INSIDE
100
AcDbCircle
 10
24.3495157288
 20
1.7283962386
 30
0.0
 40
0.0393700787401611
100
AcDbArc
 50
17.6004796991
 51
90.0000619979
  0
ARC
  5
312
330
1F
100
AcDbEntity
  8
PROFILES_INSIDE
100
AcDbCircle
 10
24.5810578863
 20
1.8018478711
 30
0.0
 40
0.2035433070866136
100
AcDbArc
 50
197.6004796991
 51
24.8879066246
  0
ARC
  5
313
330
1F
100
AcDbEntity
  8
PROFILES_INSIDE
100
AcDbCircle
 10
24.8014126012
 20
1.9040765982
 30
0.0
 40
0.0393700787401575
100
AcDbArc
 50
180.0
 51
204.8879066246
  0
ARC
  5
314
330
1F
100
AcDbEntity
  8
PROFILES_INSIDE
100
AcDbCircle
 10
24.8014143636
 20
2.3948416909
 30
0.0
 40
0.0393718412080872
100
AcDbArc
 50
155.1122143058
 51
180.0
  0
ARC
  5
315
330
1F
100
AcDbEntity
  8
PROFILES_INSIDE
100
AcDbCircle
 10
24.5810578342
 20
2.4970706947
 30
0.0
 40
0.2035433070866176
100
AcDbArc
 50
335.1122143058
 51
162.3995461274
  0
ARC
  5
316
330
1F
100
AcDbEntity
  8
PROFILES_INSIDE
100
AcDbCircle
 10
24.3495156436
 20
2.5705222228
 30
0.0
 40
0.0393700787401587
100
AcDbArc
 50
270.0000619979
 51
342.3995461274
  0
ARC
  5
317
330
1F
100
AcDbEntity
  8
PROFILES_INSIDE
100
AcDbCircle
 10
24.1903173475
 20
2.5705220506
 30
0.0
 40
0.0393700846839677
100
AcDbArc
 50
197.6004796991
 51
270.0000619979
  0
ARC
  5
318
330
1F
100
AcDbEntity
  8
PROFILES_INSIDE
100
AcDbCircle
 10
23.95877519
 20
2.4970704181
 30
0.0
 40
0.2035433011428064
100
AcDbArc
 50
17.6004796991
 51
204.8878234094
  0
ARC
  5
319
330
1F
100
AcDbEntity
  8
PROFILES_INSIDE
100
AcDbCircle
 10
23.7384204752
 20
2.3948420799
 30
0.0
 40
0.0393700101665893
100
AcDbArc
 50
0.0
 51
24.8878234094
  0
ARC
  5
31A
330
1F
100
AcDbEntity
  8
PROFILES_OUTSIDE
100
AcDbCircle
 10
22.5385149634
 20
45.2862701682
 30
0.0
 40
0.236220472440948
100
AcDbArc
 50
90.0
 51
180.0
  0
ARC
  5
31B
330
1F
100
AcDbEntity
  8
PROFILES_OUTSIDE
100
AcDbCircle
 10
42.1074126012
 20
45.2862701682
 30
0.0
 40
0.236220472440948
100
AcDbArc
 50
0.0
 51
90.0
  0
ARC
  5
31C
330
1F
100
AcDbEntity
  8
PROFILES_OUTSIDE
100
AcDbCircle
 10
42.1074126012
 20
1.4201284359
 30
0.0
 40
0.2362204724409496
100
AcDbArc
 50
270.0
 51
0.0
  0
ARC
  5
31D
330
1F
100
AcDbEntity
  8
PROFILES_OUTSIDE
100
AcDbCircle
 10
22.5385149634
 20
1.4201284359
 30
0.0
 40
0.2362204724409451
100
AcDbArc
 50
180.0
 51
270.0
  0
ARC
  5
31E
330
1F
100
AcDbEntity
  8
PROFILES_OUTSIDE
100
AcDbCircle
 10
65.0192236248
 20
23.9213095383
 30
0.0
 40
0.4724409448819102
100
AcDbArc
 50
270.0
 51
0.0
  0
ARC
  5
31F
330
1F
100
AcDbEntity
  8
PROFILES_OUTSIDE
100
AcDbCircle
 10
65.0192236248
 20
39.4742229241
 30
0.0
 40
0.4724409448819031
100
AcDbArc
 50
0.0
 51
90.0
  0
ARC
  5
320
330
1F
100
AcDbEntity
  8
PROFILES_OUTSIDE
100
AcDbCircle
 10
59.3912708689
 20
40.6454827666
 30
0.0
 40
0.0393700787401556
100
AcDbArc
 50
90.0
 51
180.0
  0
ARC
  5
321
330
1F
100
AcDbEntity
  8
PROFILES_OUTSIDE
100
AcDbCircle
 10
74.8421352033
 20
22.9173725304
 30
0.0
 40
0.0393700787401627
100
AcDbArc
 50
3.6619355755
 51
90.0
  0
ARC
  5
322
330
1F
100
AcDbEntity
  8
PROFILES_OUTSIDE
100
AcDbCircle
 10
74.2519904903
 20
22.9961126879
 30
0.0
 40
0.0393700787401521
100
AcDbArc
 50
245.1121079736
 51
270.0
  0
ARC
  5
323
330
1F
100
AcDbEntity
  8
PROFILES_OUTSIDE
100
AcDbCircle
 10
74.1497618193
 20
22.775757947
 30
0.0
 40
0.2035433070866144
100
AcDbArc
 50
65.1121079736
 51
252.3995332141
  0
ARC
  5
324
330
1F
100
AcDbEntity
  8
PROFILES_OUTSIDE
100
AcDbCircle
 10
74.076310239
 20
22.5442157729
 30
0.0
 40
0.0393700787401636
100
AcDbArc
 50
0.0
 51
72.3995332141
  0
ARC
  5
325
330
1F
100
AcDbEntity
  8
PROFILES_OUTSIDE
100
AcDbCircle
 10
68.6826094516
 20
22.9369788296
 30
0.0
 40
0.4724409448818925
100
AcDbArc
 50
180.0
 51
270.0
  0
ARC
  5
326
330
1F
100
AcDbEntity
  8
PROFILES_OUTSIDE
100
AcDbCircle
 10
67.7377275618
 20
28.3050628191
 30
0.0
 40
0.472440944881896
100
AcDbArc
 50
0.0
 51
90.0
  0
ARC
  5
327
330
1F
100
AcDbEntity
  8
PROFILES_OUTSIDE
100
AcDbCircle
 10
66.7141055146
 20
28.3050628191
 30
0.0
 40
0.472440944881896
100
AcDbArc
 50
90.0
 51
180.0
  0
ARC
  5
328
330
1F
100
AcDbEntity
  8
PROFILES_OUTSIDE
100
AcDbCircle
 10
65.7692236248
 20
22.9369788296
 30
0.0
 40
0.472440944881896
100
AcDbArc
 50
270.0
 51
0.0
  0
ARC
  5
329
330
1F
100
AcDbEntity
  8
PROFILES_OUTSIDE
100
AcDbCircle
 10
60.3755228374
 20
22.5442157729
 30
0.0
 40
0.0393700787401627
100
AcDbArc
 50
107.6004667859
 51
180.0
  0
ARC
  5
32A
330
1F
100
AcDbEntity
  8
PROFILES_OUTSIDE
100
AcDbCircle
 10
60.3020712571
 20
22.775757947
 30
0.0
 40
0.2035433070866207
100
AcDbArc
 50
287.6004667859
 51
114.8878920264
  0
ARC
  5
32B
330
1F
100
AcDbEntity
  8
PROFILES_OUTSIDE
100
AcDbCircle
 10
60.1998425861
 20
22.9961126879
 30
0.0
 40
0.0393700787401579
100
AcDbArc
 50
270.0
 51
294.8878920264
  0
ARC
  5
32C
330
1F
100
AcDbEntity
  8
PROFILES_OUTSIDE
100
AcDbCircle
 10
59.6096978731
 20
22.9173725304
 30
0.0
 40
0.0393700787401588
100
AcDbArc
 50
90.0
 51
176.3380644245
  0
ARC
  5
32D
330
1F
100
AcDbEntity
  8
PROFILES_OUTSIDE
100
AcDbCircle
 10
59.5881212626
 20
23.212648121
 30
0.0
 40
0.236220472440948
100
AcDbArc
 50
90.0
 51
180.0
  0
ARC
  5
32E
330
1F
100
AcDbEntity
  8
PROFILES_OUTSIDE
100
AcDbCircle
 10
75.0605622075
 20
40.6454827666
 30
0.0
 40
0.0393700787401627
100
AcDbArc
 50
0.0
 51
90.0
  0
ARC
  5
32F
330
1F
100
AcDbEntity
  8
PROFILES_OUTSIDE
100
AcDbCircle
 10
66.2416645697
 20
28.777503764
 30
0.0
 40
0.75
100
AcDbArc
 50
120.0
 51
180.0
  0
ARC
  5
330
330
1F
100
AcDbEntity
  8
PROFILES_OUTSIDE
100
AcDbCircle
 10
65.4916645697
 20
30.0765418697
 30
0.0
 40
0.75
100
AcDbArc
 50
300.0
 51
0.0
  0
ARC
  5
331
330
1F
100
AcDbEntity
  8
PROFILES_OUTSIDE
100
AcDbCircle
 10
65.4916645697
 20
33.3189905927
 30
0.0
 40
0.75
100
AcDbArc
 50
0.0
 51
60.0
  0
ARC
  5
332
330
1F
100
AcDbEntity
  8
PROFILES_OUTSIDE
100
AcDbCircle
 10
66.2416645697
 20
34.6180286984
 30
0.0
 40
0.75
100
AcDbArc
 50
180.0
 51
240.0
  0
ARC
  5
333
330
1F
100
AcDbEntity
  8
PROFILES_OUTSIDE
100
AcDbCircle
 10
59.5881212626
 20
40.1828843414
 30
0.0
 40
0.2362204724409551
100
AcDbArc
 50
180.0
 51
270.0
  0
ARC
  5
334
330
1F
100
AcDbEntity
  8
PROFILES_OUTSIDE
100
AcDbCircle
 10
69.4326094516
 20
39.4742229241
 30
0.0
 40
0.4724409448818889
100
AcDbArc
 50
90.0
 51
180.0
  0
ARC
  5
335
330
1F
100
AcDbEntity
  8
PROFILES_OUTSIDE
100
AcDbCircle
 10
59.6096978731
 20
40.478159932
 30
0.0
 40
0.0393700787401627
100
AcDbArc
 50
183.6619355755
 51
270.0
  0
ARC
  5
336
330
1F
100
AcDbEntity
  8
PROFILES_OUTSIDE
100
AcDbCircle
 10
60.1998425861
 20
40.3994197745
 30
0.0
 40
0.0393700787401641
100
AcDbArc
 50
65.1121079736
 51
90.0
  0
ARC
  5
337
330
1F
100
AcDbEntity
  8
PROFILES_OUTSIDE
100
AcDbCircle
 10
60.3020712571
 20
40.6197745154
 30
0.0
 40
0.2035433070866152
100
AcDbArc
 50
245.1121079736
 51
72.3995332141
  0
ARC
  5
338
330
1F
100
AcDbEntity
  8
PROFILES_OUTSIDE
100
AcDbCircle
 10
60.3755228374
 20
40.8513166895
 30
0.0
 40
0.0393700787401569
100
AcDbArc
 50
180.0
 51
252.3995332141
  0
ARC
  5
339
330
1F
100
AcDbEntity
  8
PROFILES_OUTSIDE
100
AcDbCircle
 10
65.7692236248
 20
40.4585536328
 30
0.0
 40
0.472440944881896
100
AcDbArc
 50
0.0
 51
90.0
  0
ARC
  5
33A
330
1F
100
AcDbEntity
  8
PROFILES_OUTSIDE
100
AcDbCircle
 10
66.7141055146
 20
35.0904696433
 30
0.0
 40
0.472440944881896
100
AcDbArc
 50
180.0
 51
270.0
  0
ARC
  5
33B
330
1F
100
AcDbEntity
  8
PROFILES_OUTSIDE
100
AcDbCircle
 10
67.7377275618
 20
35.0904696433
 30
0.0
 40
0.472440944881896
100
AcDbArc
 50
270.0
 51
0.0
  0
ARC
  5
33C
330
1F
100
AcDbEntity
  8
PROFILES_OUTSIDE
100
AcDbCircle
 10
68.6826094516
 20
40.4585536328
 30
0.0
 40
0.4724409448818889
100
AcDbArc
 50
90.0
 51
180.0
  0
ARC
  5
33D
330
1F
100
AcDbEntity
  8
PROFILES_OUTSIDE
100
AcDbCircle
 10
74.076310239
 20
40.8513166895
 30
0.0
 40
0.0393700787401501
100
AcDbArc
 50
287.6004667859
 51
0.0
  0
ARC
  5
33E
330
1F
100
AcDbEntity
  8
PROFILES_OUTSIDE
100
AcDbCircle
 10
74.1497618193
 20
40.6197745154
 30
0.0
 40
0.2035433070866241
100
AcDbArc
 50
107.6004667859
 51
294.8878920264
  0
ARC
  5
33F
330
1F
100
AcDbEntity
  8
PROFILES_OUTSIDE
100
AcDbCircle
 10
74.2519904903
 20
40.3994197745
 30
0.0
 40
0.0393700787401512
100
AcDbArc
 50
90.0
 51
114.8878920264
  0
ARC
  5
340
330
1F
100
AcDbEntity
  8
PROFILES_OUTSIDE
100
AcDbCircle
 10
74.8421352033
 20
40.478159932
 30
0.0
 40
0.039370078740159
100
AcDbArc
 50
270.0
 51
356.3380644245
  0
ARC
  5
341
330
1F
100
AcDbEntity
  8
PROFILES_OUTSIDE
100
AcDbCircle
 10
74.8637118138
 20
40.1828843414
 30
0.0
 40
0.236220472440948
100
AcDbArc
 50
270.0
 51
0.0
  0
ARC
  5
342
330
1F
100
AcDbEntity
  8
PROFILES_OUTSIDE
100
AcDbCircle
 10
69.4326094516
 20
23.9213095383
 30
0.0
 40
0.4724409448818889
100
AcDbArc
 50
180.0
 51
270.0
  0
ARC
  5
343
330
1F
100
AcDbEntity
  8
PROFILES_OUTSIDE
100
AcDbCircle
 10
68.2101685067
 20
34.6180286984
 30
0.0
 40
0.75
100
AcDbArc
 50
300.0
 51
0.0
  0
ARC
  5
344
330
1F
100
AcDbEntity
  8
PROFILES_OUTSIDE
100
AcDbCircle
 10
68.9601685067
 20
33.3189905927
 30
0.0
 40
0.75
100
AcDbArc
 50
120.0
 51
180.0
  0
ARC
  5
345
330
1F
100
AcDbEntity
  8
PROFILES_OUTSIDE
100
AcDbCircle
 10
68.9601685067
 20
30.0765418697
 30
0.0
 40
0.75
100
AcDbArc
 50
180.0
 51
240.0
  0
ARC
  5
346
330
1F
100
AcDbEntity
  8
PROFILES_OUTSIDE
100
AcDbCircle
 10
68.2101685067
 20
28.777503764
 30
0.0
 40
0.75
100
AcDbArc
 50
0.0
 51
60.0
  0
ARC
  5
347
330
1F
100
AcDbEntity
  8
PROFILES_OUTSIDE
100
AcDbCircle
 10
74.8637118138
 20
23.212648121
 30
0.0
 40
0.236220472440948
100
AcDbArc
 50
0.0
 51
90.0
  0
ARC
  5
348
330
1F
100
AcDbEntity
  8
PROFILES_OUTSIDE
100
AcDbCircle
 10
75.0605622075
 20
22.7500496958
 30
0.0
 40
0.0393700787401627
100
AcDbArc
 50
270.0
 51
0.0
  0
ARC
  5
349
330
1F
100
AcDbEntity
  8
PROFILES_OUTSIDE
100
AcDbCircle
 10
92.0479637823
 20
40.6455615068
 30
0.0
 40
0.039370078740177
100
AcDbArc
 50
0.0
 51
90.0
  0
ARC
  5
34A
330
1F
100
AcDbEntity
  8
PROFILES_OUTSIDE
100
AcDbCircle
 10
86.4200110264
 20
39.4743016643
 30
0.0
 40
0.472440944881896
100
AcDbArc
 50
90.0
 51
180.0
  0
ARC
  5
34B
330
1F
100
AcDbEntity
  8
PROFILES_OUTSIDE
100
AcDbCircle
 10
86.4200110264
 20
23.9213882785
 30
0.0
 40
0.4724409448819102
100
AcDbArc
 50
180.0
 51
270.0
  0
ARC
  5
34C
330
1F
100
AcDbEntity
  8
PROFILES_OUTSIDE
100
AcDbCircle
 10
92.0479637823
 20
22.7501284359
 30
0.0
 40
0.039370078740177
100
AcDbArc
 50
270.0
 51
0.0
  0
ARC
  5
34D
330
1F
100
AcDbEntity
  8
PROFILES_OUTSIDE
100
AcDbCircle
 10
76.5970994479
 20
40.4782386722
 30
0.0
 40
0.0393700787401627
100
AcDbArc
 50
183.6619355755
 51
270.0
  0
ARC
  5
34E
330
1F
100
AcDbEntity
  8
PROFILES_OUTSIDE
100
AcDbCircle
 10
77.1872441609
 20
40.3994985147
 30
0.0
 40
0.0393700787401627
100
AcDbArc
 50
65.1121079736
 51
90.0
  0
ARC
  5
34F
330
1F
100
AcDbEntity
  8
PROFILES_OUTSIDE
100
AcDbCircle
 10
77.2894728319
 20
40.6198532556
 30
0.0
 40
0.2035433070866173
100
AcDbArc
 50
245.1121079736
 51
72.3995332141
  0
ARC
  5
350
330
1F
100
AcDbEntity
  8
PROFILES_OUTSIDE
100
AcDbCircle
 10
77.3629244122
 20
40.8513954296
 30
0.0
 40
0.0393700787401627
100
AcDbArc
 50
180.0
 51
252.3995332141
  0
ARC
  5
351
330
1F
100
AcDbEntity
  8
PROFILES_OUTSIDE
100
AcDbCircle
 10
82.7566251996
 20
40.4586323729
 30
0.0
 40
0.4724409448818889
100
AcDbArc
 50
0.0
 51
90.0
  0
ARC
  5
352
330
1F
100
AcDbEntity
  8
PROFILES_OUTSIDE
100
AcDbCircle
 10
83.7015070894
 20
35.0905483834
 30
0.0
 40
0.4724409448819102
100
AcDbArc
 50
180.0
 51
270.0
  0
ARC
  5
353
330
1F
100
AcDbEntity
  8
PROFILES_OUTSIDE
100
AcDbCircle
 10
84.7251291366
 20
35.0905483834
 30
0.0
 40
0.4724409448818889
100
AcDbArc
 50
270.0
 51
0.0
  0
ARC
  5
354
330
1F
100
AcDbEntity
  8
PROFILES_OUTSIDE
100
AcDbCircle
 10
85.6700110264
 20
40.4586323729
 30
0.0
 40
0.472440944881896
100
AcDbArc
 50
90.0
 51
180.0
  0
ARC
  5
355
330
1F
100
AcDbEntity
  8
PROFILES_OUTSIDE
100
AcDbCircle
 10
91.0637118138
 20
40.8513954296
 30
0.0
 40
0.0393700787401458
100
AcDbArc
 50
287.6004667858
 51
0.0
  0
ARC
  5
356
330
1F
100
AcDbEntity
  8
PROFILES_OUTSIDE
100
AcDbCircle
 10
91.1371633941
 20
40.6198532556
 30
0.0
 40
0.2035433070866173
100
AcDbArc
 50
107.6004667859
 51
294.8878920264
  0
ARC
  5
357
330
1F
100
AcDbEntity
  8
PROFILES_OUTSIDE
100
AcDbCircle
 10
91.2393920651
 20
40.3994985147
 30
0.0
 40
0.0393700787401627
100
AcDbArc
 50
90.0
 51
114.8878920264
  0
ARC
  5
358
330
1F
100
AcDbEntity
  8
PROFILES_OUTSIDE
100
AcDbCircle
 10
91.8295367781
 20
40.4782386722
 30
0.0
 40
0.0393700787401627
100
AcDbArc
 50
270.0
 51
356.3380644245
  0
ARC
  5
359
330
1F
100
AcDbEntity
  8
PROFILES_OUTSIDE
100
AcDbCircle
 10
91.8511133886
 20
40.1829630816
 30
0.0
 40
0.2362204724409622
100
AcDbArc
 50
270.0
 51
0.0
  0
ARC
  5
35A
330
1F
100
AcDbEntity
  8
PROFILES_OUTSIDE
100
AcDbCircle
 10
76.3786724437
 20
22.7501284359
 30
0.0
 40
0.0393700787401627
100
AcDbArc
 50
180.0
 51
270.0
  0
ARC
  5
35B
330
1F
100
AcDbEntity
  8
PROFILES_OUTSIDE
100
AcDbCircle
 10
85.1975700815
 20
34.6181074386
 30
0.0
 40
0.75
100
AcDbArc
 50
300.0
 51
0.0
  0
ARC
  5
35C
330
1F
100
AcDbEntity
  8
PROFILES_OUTSIDE
100
AcDbCircle
 10
85.9475700815
 20
33.3190693329
 30
0.0
 40
0.75
100
AcDbArc
 50
120.0
 51
180.0
  0
ARC
  5
35D
330
1F
100
AcDbEntity
  8
PROFILES_OUTSIDE
100
AcDbCircle
 10
85.9475700815
 20
30.0766206098
 30
0.0
 40
0.7499999999999969
100
AcDbArc
 50
180.0
 51
240.0
  0
ARC
  5
35E
330
1F
100
AcDbEntity
  8
PROFILES_OUTSIDE
100
AcDbCircle
 10
85.1975700815
 20
28.7775825042
 30
0.0
 40
0.75
100
AcDbArc
 50
0.0
 51
60.0
  0
ARC
  5
35F
330
1F
100
AcDbEntity
  8
PROFILES_OUTSIDE
100
AcDbCircle
 10
91.8511133886
 20
23.2127268611
 30
0.0
 40
0.2362204724409622
100
AcDbArc
 50
0.0
 51
90.0
  0
ARC
  5
360
330
1F
100
AcDbEntity
  8
PROFILES_OUTSIDE
100
AcDbCircle
 10
82.0066251996
 20
23.9213882785
 30
0.0
 40
0.4724409448818925
100
AcDbArc
 50
270.0
 51
0.0
  0
ARC
  5
361
330
1F
100
AcDbEntity
  8
PROFILES_OUTSIDE
100
AcDbCircle
 10
91.8295367781
 20
22.9174512706
 30
0.0
 40
0.0393700787401592
100
AcDbArc
 50
3.6619355755
 51
90.0
  0
ARC
  5
362
330
1F
100
AcDbEntity
  8
PROFILES_OUTSIDE
100
AcDbCircle
 10
91.2393920651
 20
22.9961914281
 30
0.0
 40
0.0393700787401592
100
AcDbArc
 50
245.1121079736
 51
270.0
  0
ARC
  5
363
330
1F
100
AcDbEntity
  8
PROFILES_OUTSIDE
100
AcDbCircle
 10
91.1371633941
 20
22.7758366872
 30
0.0
 40
0.2035433070866173
100
AcDbArc
 50
65.1121079736
 51
252.3995332141
  0
ARC
  5
364
330
1F
100
AcDbEntity
  8
PROFILES_OUTSIDE
100
AcDbCircle
 10
91.0637118138
 20
22.5442945131
 30
0.0
 40
0.0393700787401526
100
AcDbArc
 50
0.0
 51
72.3995332142
  0
ARC
  5
365
330
1F
100
AcDbEntity
  8
PROFILES_OUTSIDE
100
AcDbCircle
 10
85.6700110264
 20
22.9370575698
 30
0.0
 40
0.472440944881896
100
AcDbArc
 50
180.0
 51
270.0
  0
ARC
  5
366
330
1F
100
AcDbEntity
  8
PROFILES_OUTSIDE
100
AcDbCircle
 10
84.7251291366
 20
28.3051415593
 30
0.0
 40
0.4724409448818889
100
AcDbArc
 50
0.0
 51
90.0
  0
ARC
  5
367
330
1F
100
AcDbEntity
  8
PROFILES_OUTSIDE
100
AcDbCircle
 10
83.7015070894
 20
28.3051415593
 30
0.0
 40
0.4724409448819102
100
AcDbArc
 50
90.0
 51
180.0
  0
ARC
  5
368
330
1F
100
AcDbEntity
  8
PROFILES_OUTSIDE
100
AcDbCircle
 10
82.7566251996
 20
22.9370575698
 30
0.0
 40
0.4724409448818889
100
AcDbArc
 50
270.0
 51
0.0
  0
ARC
  5
369
330
1F
100
AcDbEntity
  8
PROFILES_OUTSIDE
100
AcDbCircle
 10
77.3629244122
 20
22.5442945131
 30
0.0
 40
0.0393700787401501
100
AcDbArc
 50
107.6004667859
 51
180.0
  0
ARC
  5
36A
330
1F
100
AcDbEntity
  8
PROFILES_OUTSIDE
100
AcDbCircle
 10
77.2894728319
 20
22.7758366872
 30
0.0
 40
0.2035433070866173
100
AcDbArc
 50
287.6004667859
 51
114.8878920264
  0
ARC
  5
36B
330
1F
100
AcDbEntity
  8
PROFILES_OUTSIDE
100
AcDbCircle
 10
77.1872441609
 20
22.9961914281
 30
0.0
 40
0.0393700787401576
100
AcDbArc
 50
270.0
 51
294.8878920264
  0
ARC
  5
36C
330
1F
100
AcDbEntity
  8
PROFILES_OUTSIDE
100
AcDbCircle
 10
76.5970994479
 20
22.9174512706
 30
0.0
 40
0.0393700787401592
100
AcDbArc
 50
90.0
 51
176.3380644245
  0
ARC
  5
36D
330
1F
100
AcDbEntity
  8
PROFILES_OUTSIDE
100
AcDbCircle
 10
76.5755228374
 20
23.2127268611
 30
0.0
 40
0.236220472440948
100
AcDbArc
 50
90.0
 51
180.0
  0
ARC
  5
36E
330
1F
100
AcDbEntity
  8
PROFILES_OUTSIDE
100
AcDbCircle
 10
82.0066251996
 20
39.4743016643
 30
0.0
 40
0.4724409448818889
100
AcDbArc
 50
0.0
 51
90.0
  0
ARC
  5
36F
330
1F
100
AcDbEntity
  8
PROFILES_OUTSIDE
100
AcDbCircle
 10
83.2290661445
 20
28.7775825042
 30
0.0
 40
0.7499999999999929
100
AcDbArc
 50
120.0
 51
180.0
  0
ARC
  5
370
330
1F
100
AcDbEntity
  8
PROFILES_OUTSIDE
100
AcDbCircle
 10
82.4790661445
 20
30.0766206098
 30
0.0
 40
0.7499999999999969
100
AcDbArc
 50
300.0
 51
0.0
  0
ARC
  5
371
330
1F
100
AcDbEntity
  8
PROFILES_OUTSIDE
100
AcDbCircle
 10
82.4790661445
 20
33.3190693329
 30
0.0
 40
0.7499999999999991
100
AcDbArc
 50
0.0
 51
60.0
  0
ARC
  5
372
330
1F
100
AcDbEntity
  8
PROFILES_OUTSIDE
100
AcDbCircle
 10
83.2290661445
 20
34.6181074386
 30
0.0
 40
0.7499999999999939
100
AcDbArc
 50
180.0
 51
240.0
  0
ARC
  5
373
330
1F
100
AcDbEntity
  8
PROFILES_OUTSIDE
100
AcDbCircle
 10
76.5755228374
 20
40.1829630816
 30
0.0
 40
0.236220472440948
100
AcDbArc
 50
180.0
 51
270.0
  0
ARC
  5
374
330
1F
100
AcDbEntity
  8
PROFILES_OUTSIDE
100
AcDbCircle
 10
76.3786724437
 20
40.6455615068
 30
0.0
 40
0.0393700787401627
100
AcDbArc
 50
90.0
 51
180.0
  0
ENDSEC
  0
SECTION
  2
OBJECTS
  0
DICTIONARY
  5
C
330
0
100
AcDbDictionary
  3
ACAD_GROUP
350
D
  3
ACAD_MLINESTYLE
350
17
  3
ACAD_SCALELIST
350
47
  0
DICTIONARY
  5
D
102
{ACAD_REACTORS
330
C
102
}
330
C
100
AcDbDictionary
  0
DICTIONARY
  5
17
102
{ACAD_REACTORS
330
C
102
}
330
C
100
AcDbDictionary
  3
STANDARD
350
18
  0
DICTIONARY
  5
47
102
{ACAD_REACTORS
330
C
102
}
330
C
100
AcDbDictionary
  0
MLINESTYLE
  5
18
102
{ACAD_REACTORS
330
17
102
}
330
17
100
AcDbMlineStyle
  2
Standard
 70
     0
  3

 62
   256
 51
90.0
 52
90.0
 71
     2
 49
0.5
 62
   256
  6
BYLAYER
 49
-0.5
 62
   256
  6
BYLAYER
  0
ENDSEC
  0
EOF
