  0
SECTION
  2
HEADER
  9
$ACADVER
  1
AC1014
  9
$ACADMAINTVER
 70
     9
  9
$DWGCODEPAGE
  3
ANSI_1252
  9
$INSBASE
 10
0.0
 20
0.0
 30
0.0
  9
$EXTMIN
 10
0.0
 20
0.0
 30
0.0
  9
$EXTMAX
 10
96.062992126
 20
48.031496063
 30
0.0
  9
$LIMMIN
 10
0.0
 20
0.0
  9
$LIMMAX
 10
96.062992126
 20
48.031496063
  9
$ORTHOMODE
 70
     0
  9
$REGENMODE
 70
     1
  9
$FILLMODE
 70
     1
  9
$QTEXTMODE
 70
     0
  9
$MIRRTEXT
 70
     1
  9
$DRAGMODE
 70
     2
  9
$LTSCALE
 40
1.0
  9
$OSMODE
 70
    37
  9
$ATTMODE
 70
     1
  9
$TEXTSIZE
 40
0.1377952756
  9
$TRACEWID
 40
0.05
  9
$TEXTSTYLE
  7
STANDARD
  9
$CLAYER
  8
0
  9
$CELTYPE
  6
BYLAYER
  9
$CECOLOR
 62
   256
  9
$CELTSCALE
 40
1.0
  9
$DELOBJ
 70
     1
  9
$DISPSILH
 70
     0
  9
$DIMSCALE
 40
1.0
  9
$DIMASZ
 40
0.13
  9
$DIMEXO
 40
0.0393700787
  9
$DIMDLI
 40
0.38
  9
$DIMRND
 40
0.0
  9
$DIMDLE
 40
0.0
  9
$DIMEXE
 40
0.0393700787
  9
$DIMTP
 40
0.0
  9
$DIMTM
 40
0.0
  9
$DIMTXT
 40
0.1805555556
  9
$DIMCEN
 40
0.09
  9
$DIMTSZ
 40
0.0
  9
$DIMTOL
 70
     0
  9
$DIMLIM
 70
     0
  9
$DIMTIH
 70
     1
  9
$DIMTOH
 70
     1
  9
$DIMSE1
 70
     0
  9
$DIMSE2
 70
     0
  9
$DIMTAD
 70
     1
  9
$DIMZIN
 70
     0
  9
$DIMBLK
  1

  9
$DIMASO
 70
     1
  9
$DIMSHO
 70
     1
  9
$DIMPOST
  1

  9
$DIMAPOST
  1

  9
$DIMALT
 70
     0
  9
$DIMALTD
 70
     2
  9
$DIMALTF
 40
25.4
  9
$DIMLFAC
 40
1.0
  9
$DIMTOFL
 70
     0
  9
$DIMTVP
 40
0.0
  9
$DIMTIX
 70
     0
  9
$DIMSOXD
 70
     0
  9
$DIMSAH
 70
     0
  9
$DIMBLK1
  1

  9
$DIMBLK2
  1

  9
$DIMSTYLE
  2
STANDARD
  9
$DIMCLRD
 70
     0
  9
$DIMCLRE
 70
     0
  9
$DIMCLRT
 70
     0
  9
$DIMTFAC
 40
1.0
  9
$DIMGAP
 40
0.06
  9
$DIMJUST
 70
     0
  9
$DIMSD1
 70
     0
  9
$DIMSD2
 70
     0
  9
$DIMTOLJ
 70
     1
  9
$DIMTZIN
 70
     0
  9
$DIMALTZ
 70
     0
  9
$DIMALTTZ
 70
     0
  9
$DIMFIT
 70
     3
  9
$DIMUPT
 70
     0
  9
$DIMUNIT
 70
     2
  9
$DIMDEC
 70
     2
  9
$DIMTDEC
 70
     2
  9
$DIMALTU
 70
     2
  9
$DIMALTTD
 70
     2
  9
$DIMTXSTY
  7
STANDARD
  9
$DIMAUNIT
 70
     0
  9
$LUNITS
 70
     2
  9
$LUPREC
 70
     2
  9
$SKETCHINC
 40
0.1
  9
$FILLETRAD
 40
0.5
  9
$AUNITS
 70
     0
  9
$AUPREC
 70
     2
  9
$MENU
  1
.
  9
$ELEVATION
 40
0.0
  9
$PELEVATION
 40
0.0
  9
$THICKNESS
 40
0.0
  9
$LIMCHECK
 70
     0
  9
$CHAMFERA
 40
0.0
  9
$CHAMFERB
 40
0.0
  9
$CHAMFERC
 40
0.0
  9
$CHAMFERD
 40
0.0
  9
$SKPOLY
 70
     0
  9
$TDCREATE
 40
2457722.439203021
  9
$TDUPDATE
 40
2457722.43920338
  9
$TDINDWG
 40
0.0000000116
  9
$TDUSRTIMER
 40
0.0000000116
  9
$USRTIMER
 70
     1
  9
$ANGBASE
 50
0.0
  9
$ANGDIR
 70
     0
  9
$PDMODE
 70
     0
  9
$PDSIZE
 40
-1.0
  9
$PLINEWID
 40
0.0
  9
$COORDS
 70
     1
  9
$SPLFRAME
 70
     0
  9
$SPLINETYPE
 70
     6
  9
$SPLINESEGS
 70
     8
  9
$ATTDIA
 70
     0
  9
$ATTREQ
 70
     1
  9
$HANDLING
 70
     1
  9
$HANDSEED
  5
375
  9
$SURFTAB1
 70
     6
  9
$SURFTAB2
 70
     6
  9
$SURFTYPE
 70
     6
  9
$SURFU
 70
     6
  9
$SURFV
 70
     6
  9
$UCSNAME
  2

  9
$UCSORG
 10
0.0
 20
0.0
 30
0.0
  9
$UCSXDIR
 10
1.0
 20
0.0
 30
0.0
  9
$UCSYDIR
 10
0.0
 20
1.0
 30
0.0
  9
$PUCSNAME
  2

  9
$PUCSORG
 10
0.0
 20
0.0
 30
0.0
  9
$PUCSXDIR
 10
1.0
 20
0.0
 30
0.0
  9
$PUCSYDIR
 10
0.0
 20
1.0
 30
0.0
  9
$USERI1
 70
     0
  9
$USERI2
 70
     0
  9
$USERI3
 70
     0
  9
$USERI4
 70
     0
  9
$USERI5
 70
     0
  9
$USERR1
 40
0.0
  9
$USERR2
 40
0.0
  9
$USERR3
 40
0.0
  9
$USERR4
 40
0.0
  9
$USERR5
 40
0.0
  9
$WORLDVIEW
 70
     1
  9
$SHADEDGE
 70
     3
  9
$SHADEDIF
 70
    70
  9
$TILEMODE
 70
     1
  9
$MAXACTVP
 70
    64
  9
$PINSBASE
 10
0.0
 20
0.0
 30
0.0
  9
$PLIMCHECK
 70
     0
  9
$PEXTMIN
 10
1.0000000000E+20
 20
1.0000000000E+20
 30
1.0000000000E+20
  9
$PEXTMAX
 10
-1.0000000000E+20
 20
-1.0000000000E+20
 30
-1.0000000000E+20
  9
$PLIMMIN
 10
0.0
 20
0.0
  9
$PLIMMAX
 10
12.0
 20
9.0
  9
$UNITMODE
 70
     0
  9
$VISRETAIN
 70
     1
  9
$PLINEGEN
 70
     0
  9
$PSLTSCALE
 70
     1
  9
$TREEDEPTH
 70
  3020
  9
$PICKSTYLE
 70
     1
  9
$CMLSTYLE
  2
STANDARD
  9
$CMLJUST
 70
     0
  9
$CMLSCALE
 40
1.0
  9
$PROXYGRAPHICS
 70
     1
  9
$MEASUREMENT
 70
     0
  0
ENDSEC
  0
SECTION
  2
CLASSES
  0
CLASS
  1
ACDBDICTIONARYWDFLT
  2
AcDbDictionaryWithDefault
  3
ObjectDBX Classes
 90
        0
280
     0
281
     0
  0
CLASS
  1
VISUALSTYLE
  2
AcDbVisualStyle
  3
ObjectDBX Classes
 90
     4095
280
     0
281
     0
  0
CLASS
  1
MATERIAL
  2
AcDbMaterial
  3
ObjectDBX Classes
 90
     1153
280
     0
281
     0
  0
CLASS
  1
SCALE
  2
AcDbScale
  3
ObjectDBX Classes
 90
     1153
280
     0
281
     0
  0
CLASS
  1
TABLESTYLE
  2
AcDbTableStyle
  3
ObjectDBX Classes
 90
     4095
280
     0
281
     0
  0
CLASS
  1
MLEADERSTYLE
  2
AcDbMLeaderStyle
  3
ACDB_MLEADERSTYLE_CLASS
 90
     4095
280
     0
281
     0
  0
CLASS
  1
SUN
  2
AcDbSun
  3
SCENEOE
 90
     1153
280
     0
281
     0
  0
CLASS
  1
XRECORD
  2
AcDbXrecord
  3
ObjectDBX Classes
 90
        0
280
     0
281
     0
  0
CLASS
  1
LWPOLYLINE
  2
AcDbPolyline
  3
ObjectDBX Classes
 90
        0
280
     0
281
     1
  0
CLASS
  1
HATCH
  2
AcDbHatch
  3
ObjectDBX Classes
 90
        0
280
     0
281
     1
  0
ENDSEC
  0
SECTION
  2
TABLES
  0
TABLE
  2
VPORT
  5
8
330
0
100
AcDbSymbolTable
 70
     1
  0
VPORT
  5
29
330
8
100
AcDbSymbolTableRecord
100
AcDbViewportTableRecord
  2
*ACTIVE
 70
     0
 10
0.0
 20
0.0
 11
1.0
 21
1.0
 12
48.031496063
 22
24.0157480315
 13
0.0
 23
0.0
 14
0.5
 24
0.5
 15
0.5
 25
0.5
 16
0.0
 26
0.0
 36
1.0
 17
0.0
 27
0.0
 37
0.0
 40
48.031496063
 41
2.0
 42
50.0
 43
0.0
 44
0.0
 50
0.0
 51
0.0
 71
     0
 72
  2000
 73
     1
 74
     3
 75
     0
 76
     0
 77
     0
 78
     0
  0
ENDTAB
  0
TABLE
  2
LTYPE
  5
5
330
0
100
AcDbSymbolTable
 70
     6
  0
LTYPE
  5
14
330
5
100
AcDbSymbolTableRecord
100
AcDbLinetypeTableRecord
  2
BYBLOCK
 70
     0
  3

 72
    65
 73
     0
 40
0.0
  0
LTYPE
  5
15
330
5
100
AcDbSymbolTableRecord
100
AcDbLinetypeTableRecord
  2
BYLAYER
 70
     0
  3

 72
    65
 73
     0
 40
0.0
  0
LTYPE
  5
16
330
5
100
AcDbSymbolTableRecord
100
AcDbLinetypeTableRecord
  2
CONTINUOUS
 70
     0
  3
Solid line
 72
    65
 73
     0
 40
0.0
  0
LTYPE
  5
6E
330
5
100
AcDbSymbolTableRecord
100
AcDbLinetypeTableRecord
  2
HIDDEN
 70
     0
  3
Hidden __ __ __ __ __ __ __ __ __ __ __ __ __ __
 72
    65
 73
     2
 40
0.075
 49
0.05
 74
     0
 49
-0.025
 74
     0
  0
LTYPE
  5
6F
330
5
100
AcDbSymbolTableRecord
100
AcDbLinetypeTableRecord
  2
PHANTOM
 70
     0
  3
Phantom ______  __  __  ______  __  __  ______
 72
    65
 73
     6
 40
0.5
 49
0.25
 74
     0
 49
-0.05
 74
     0
 49
0.05
 74
     0
 49
-0.05
 74
     0
 49
0.05
 74
     0
 49
-0.05
 74
     0
  0
LTYPE
  5
70
330
5
100
AcDbSymbolTableRecord
100
AcDbLinetypeTableRecord
  2
CENTER
 70
     0
  3
Center ____ _ ____ _ ____ _ ____ _ ____ _ ____
 72
    65
 73
     4
 40
0.4
 49
0.25
 74
     0
 49
-0.05
 74
     0
 49
0.05
 74
     0
 49
-0.05
 74
     0
  0
LTYPE
  5
71
330
5
100
AcDbSymbolTableRecord
100
AcDbLinetypeTableRecord
  2
CENTERX2
 70
     0
  3
Center (2x) ________  __  ________  __  _____
 72
    65
 73
     4
 40
0.8
 49
0.5
 74
     0
 49
-0.1
 74
     0
 49
0.1
 74
     0
 49
-0.1
 74
     0
  0
LTYPE
  5
72
330
5
100
AcDbSymbolTableRecord
100
AcDbLinetypeTableRecord
  2
DOT2
 70
     0
  3
Dot (.5x) ........................................
 72
    65
 73
     2
 40
0.025
 49
0.0
 74
     0
 49
-0.025
 74
     0
  0
ENDTAB
  0
TABLE
  2
LAYER
  5
2
330
0
100
AcDbSymbolTable
 70
     6
  0
LAYER
  5
10
330
2
100
AcDbSymbolTableRecord
100
AcDbLayerTableRecord
  2
0
 70
     0
 62
     7
  6
CONTINUOUS
  0
LAYER
  5
73
330
2
100
AcDbSymbolTableRecord
100
AcDbLayerTableRecord
  2
BOX_STOCK
 70
     0
 62
     1
  6
CONTINUOUS
  0
LAYER
  5
74
330
2
100
AcDbSymbolTableRecord
100
AcDbLayerTableRecord
  2
HOLES
 70
     0
 62
    30
  6
CONTINUOUS
  0
LAYER
  5
75
330
2
100
AcDbSymbolTableRecord
100
AcDbLayerTableRecord
  2
POCKETS
 70
     0
 62
   171
  6
CONTINUOUS
  0
LAYER
  5
76
330
2
100
AcDbSymbolTableRecord
100
AcDbLayerTableRecord
  2
PROFILES_OUTSIDE
 70
     0
 62
     6
  6
CONTINUOUS
  0
LAYER
  5
77
330
2
100
AcDbSymbolTableRecord
100
AcDbLayerTableRecord
  2
PROFILES_INSIDE
 70
     0
 62
     4
  6
CONTINUOUS
  0
ENDTAB
  0
TABLE
  2
STYLE
  5
3
330
0
100
AcDbSymbolTable
 70
     1
  0
STYLE
  5
11
330
3
100
AcDbSymbolTableRecord
100
AcDbTextStyleTableRecord
  2
STANDARD
 70
     0
 40
0.0
 41
1.0
 50
0.0
 71
     0
 42
0.1377952756
  3
txt
  4

  0
ENDTAB
  0
TABLE
  2
VIEW
  5
6
330
0
100
AcDbSymbolTable
 70
     0
  0
ENDTAB
  0
TABLE
  2
UCS
  5
7
330
0
100
AcDbSymbolTable
 70
     0
  0
ENDTAB
  0
TABLE
  2
APPID
  5
9
330
0
100
AcDbSymbolTable
 70
     1
  0
APPID
  5
12
330
9
100
AcDbSymbolTableRecord
100
AcDbRegAppTableRecord
  2
ACAD
 70
     0
  0
ENDTAB
  0
TABLE
  2
DIMSTYLE
  5
A
330
0
100
AcDbSymbolTable
 70
     1
  0
DIMSTYLE
105
27
330
A
100
AcDbSymbolTableRecord
100
AcDbDimStyleTableRecord
  2
STANDARD
 70
     0
  3

  4

  5

  6

  7

 40
1.0
 41
0.18
 42
0.0625
 43
0.38
 44
0.18
 45
0.0
 46
0.0
 47
0.0
 48
0.0
140
0.18
141
0.09
142
0.0
143
25.4
144
1.0
145
0.0
146
1.0
147
0.09
 71
     0
 72
     0
 73
     1
 74
     1
 75
     0
 76
     0
 77
     0
 78
     0
170
     0
171
     2
172
     0
173
     0
174
     0
175
     0
176
     0
177
     0
178
     0
270
     2
271
     4
272
     4
273
     2
274
     2
340
11
275
     0
280
     0
281
     0
282
     0
283
     1
284
     0
285
     0
286
     0
287
     3
288
     0
  0
ENDTAB
  0
TABLE
  2
BLOCK_RECORD
  5
1
330
0
100
AcDbSymbolTable
 70
     1
  0
BLOCK_RECORD
  5
1F
330
1
100
AcDbSymbolTableRecord
100
AcDbBlockTableRecord
  2
*MODEL_SPACE
  0
BLOCK_RECORD
  5
1B
330
1
100
AcDbSymbolTableRecord
100
AcDbBlockTableRecord
  2
*PAPER_SPACE
  0
BLOCK_RECORD
  5
23
330
1
100
AcDbSymbolTableRecord
100
AcDbBlockTableRecord
  2
*PAPER_SPACE0
  0
ENDTAB
  0
ENDSEC
  0
SECTION
  2
BLOCKS
  0
BLOCK
  5
20
330
1F
100
AcDbEntity
  8
0
100
AcDbBlockBegin
  2
*MODEL_SPACE
 70
     0
 10
0.0
 20
0.0
 30
0.0
  3
*MODEL_SPACE
  1

  0
ENDBLK
  5
21
330
1F
100
AcDbEntity
  8
0
100
AcDbBlockEnd
  0
BLOCK
  5
1C
330
1B
100
AcDbEntity
 67
     1
  8
0
100
AcDbBlockBegin
  2
*PAPER_SPACE
 70
     0
 10
0.0
 20
0.0
 30
0.0
  3
*PAPER_SPACE
  1

  0
ENDBLK
  5
1D
330
1B
100
AcDbEntity
 67
     1
  8
0
100
AcDbBlockEnd
  0
BLOCK
  5
24
330
23
100
AcDbEntity
  8
0
100
AcDbBlockBegin
  2
*PAPER_SPACE0
 70
     0
 10
0.0
 20
0.0
 30
0.0
  3
*PAPER_SPACE0
  1

  0
ENDBLK
  5
25
330
23
100
AcDbEntity
  8
0
100
AcDbBlockEnd
  0
ENDSEC
  0
SECTION
  2
ENTITIES
  0
ARC
  5
78
330
1F
100
AcDbEntity
  8
0
  6
CONTINUOUS
 62
     7
100
AcDbCircle
 10
75.8255228374
 20
22.9627268611
 30
0.0
 40
0.2362204724409445
100
AcDbArc
 50
90.0
 51
180.0
  0
LINE
  5
79
330
1F
100
AcDbEntity
  8
0
  6
CONTINUOUS
 62
     7
100
AcDbLine
 10
81.2566241873
 20
23.1989479504
 30
0.0
 11
75.8255240479
 21
23.1989479504
 31
0.0
  0
ARC
  5
7A
330
1F
100
AcDbEntity
  8
0
  6
CONTINUOUS
 62
     7
100
AcDbCircle
 10
81.2566251996
 20
23.6713882785
 30
0.0
 40
0.4724409448818818
100
AcDbArc
 50
270.0
 51
0.0
  0
LINE
  5
7B
330
1F
100
AcDbEntity
  8
0
  6
CONTINUOUS
 62
     7
100
AcDbLine
 10
81.7290684363
 20
28.4442482096
 30
0.0
 11
81.7290684363
 21
23.671387506
 31
0.0
  0
ARC
  5
7C
330
1F
100
AcDbEntity
  8
0
  6
CONTINUOUS
 62
     7
100
AcDbCircle
 10
82.4790661445
 20
28.4442491708
 30
0.0
 40
0.75
100
AcDbArc
 50
120.0
 51
180.0
  0
ARC
  5
7D
330
1F
100
AcDbEntity
  8
0
  6
CONTINUOUS
 62
     7
100
AcDbCircle
 10
81.7290661445
 20
29.7432872765
 30
0.0
 40
0.75
100
AcDbArc
 50
300.0
 51
0.0
  0
LINE
  5
7E
330
1F
100
AcDbEntity
  8
0
  6
CONTINUOUS
 62
     7
100
AcDbLine
 10
82.4790638256
 20
32.9024034286
 30
0.0
 11
82.4790638256
 21
29.7432868563
 31
0.0
  0
ARC
  5
7F
330
1F
100
AcDbEntity
  8
0
  6
CONTINUOUS
 62
     7
100
AcDbCircle
 10
81.7290661445
 20
32.9024026662
 30
0.0
 40
0.75
100
AcDbArc
 50
0.0
 51
60.0
  0
ARC
  5
80
330
1F
100
AcDbEntity
  8
0
  6
CONTINUOUS
 62
     7
100
AcDbCircle
 10
82.4790661445
 20
34.2014407719
 30
0.0
 40
0.75
100
AcDbArc
 50
180.0
 51
240.0
  0
LINE
  5
81
330
1F
100
AcDbEntity
  8
0
  6
CONTINUOUS
 62
     7
100
AcDbLine
 10
81.7290684363
 20
38.9743027788
 30
0.0
 11
81.7290684363
 21
34.2014397287
 31
0.0
  0
ARC
  5
82
330
1F
100
AcDbEntity
  8
0
  6
CONTINUOUS
 62
     7
100
AcDbCircle
 10
81.2566251996
 20
38.9743016643
 30
0.0
 40
0.472440944881896
100
AcDbArc
 50
0.0
 51
90.0
  0
LINE
  5
83
330
1F
100
AcDbEntity
  8
0
  6
CONTINUOUS
 62
     7
100
AcDbLine
 10
75.8255240479
 20
39.4467423345
 30
0.0
 11
81.2566241873
 21
39.4467423345
 31
0.0
  0
ARC
  5
84
330
1F
100
AcDbEntity
  8
0
  6
CONTINUOUS
 62
     7
100
AcDbCircle
 10
75.8255228374
 20
39.6829630816
 30
0.0
 40
0.236220472440948
100
AcDbArc
 50
180.0
 51
270.0
  0
LINE
  5
85
330
1F
100
AcDbEntity
  8
0
  6
CONTINUOUS
 62
     7
100
AcDbLine
 10
75.5893019234
 20
40.1455598617
 30
0.0
 11
75.5893019234
 21
39.6829621123
 31
0.0
  0
ARC
  5
86
330
1F
100
AcDbEntity
  8
0
  6
CONTINUOUS
 62
     7
100
AcDbCircle
 10
75.6286724437
 20
40.1455615068
 30
0.0
 40
0.0393700787401627
100
AcDbArc
 50
90.0
 51
180.0
  0
LINE
  5
87
330
1F
100
AcDbEntity
  8
0
  6
CONTINUOUS
 62
     7
100
AcDbLine
 10
75.6286738419
 20
40.1849317802
 30
0.0
 11
76.0444185859
 21
40.1849317802
 31
0.0
  0
LINE
  5
88
330
1F
100
AcDbEntity
  8
0
  6
CONTINUOUS
 62
     7
100
AcDbLine
 10
76.0444185859
 20
40.1849317802
 30
0.0
 11
76.0578085112
 21
39.9757241703
 31
0.0
  0
ARC
  5
89
330
1F
100
AcDbEntity
  8
0
  6
CONTINUOUS
 62
     7
100
AcDbCircle
 10
76.0970994479
 20
39.9782386722
 30
0.0
 40
0.0393700787401627
100
AcDbArc
 50
183.6619355755
 51
270.0
  0
LINE
  5
8A
330
1F
100
AcDbEntity
  8
0
  6
CONTINUOUS
 62
     7
100
AcDbLine
 10
76.0971006439
 20
39.9388678494
 30
0.0
 11
76.4372460479
 21
39.9388678494
 31
0.0
  0
ARC
  5
8B
330
1F
100
AcDbEntity
  8
0
  6
CONTINUOUS
 62
     7
100
AcDbCircle
 10
76.4372441609
 20
39.8994985147
 30
0.0
 40
0.0393700787401576
100
AcDbArc
 50
65.1121079736
 51
90.0
  0
ARC
  5
8C
330
1F
100
AcDbEntity
  8
0
  6
CONTINUOUS
 62
     7
100
AcDbCircle
 10
76.5394728319
 20
40.1198532556
 30
0.0
 40
0.2035433070866173
100
AcDbArc
 50
245.1121079736
 51
72.3995332141
  0
ARC
  5
8D
330
1F
100
AcDbEntity
  8
0
  6
CONTINUOUS
 62
     7
100
AcDbCircle
 10
76.6129244122
 20
40.3513954296
 30
0.0
 40
0.0393700787401627
100
AcDbArc
 50
180.0
 51
252.3995332141
  0
LINE
  5
8E
330
1F
100
AcDbEntity
  8
0
  6
CONTINUOUS
 62
     7
100
AcDbLine
 10
76.5735529533
 20
40.4310754967
 30
0.0
 11
76.5735529533
 21
40.3513976971
 31
0.0
  0
LINE
  5
8F
330
1F
100
AcDbEntity
  8
0
  6
CONTINUOUS
 62
     7
100
AcDbLine
 10
82.0066289632
 20
40.4310754967
 30
0.0
 11
76.5735529533
 21
40.4310754967
 31
0.0
  0
ARC
  5
90
330
1F
100
AcDbEntity
  8
0
  6
CONTINUOUS
 62
     7
100
AcDbCircle
 10
82.0066251996
 20
39.9586323729
 30
0.0
 40
0.4724409448818889
100
AcDbArc
 50
0.0
 51
90.0
  0
LINE
  5
91
330
1F
100
AcDbEntity
  8
0
  6
CONTINUOUS
 62
     7
100
AcDbLine
 10
82.4790638256
 20
34.673881631
 30
0.0
 11
82.4790638256
 21
39.9586312478
 31
0.0
  0
ARC
  5
92
330
1F
100
AcDbEntity
  8
0
  6
CONTINUOUS
 62
     7
100
AcDbCircle
 10
82.9515070894
 20
34.6738817168
 30
0.0
 40
0.472440944881896
100
AcDbArc
 50
180.0
 51
270.0
  0
LINE
  5
93
330
1F
100
AcDbEntity
  8
0
  6
CONTINUOUS
 62
     7
100
AcDbLine
 10
83.9751310229
 20
34.2014397287
 30
0.0
 11
82.9515080746
 21
34.2014397287
 31
0.0
  0
ARC
  5
94
330
1F
100
AcDbEntity
  8
0
  6
CONTINUOUS
 62
     7
100
AcDbCircle
 10
83.9751291366
 20
34.6738817168
 30
0.0
 40
0.4724409448818818
100
AcDbArc
 50
270.0
 51
0.0
  0
LINE
  5
95
330
1F
100
AcDbEntity
  8
0
  6
CONTINUOUS
 62
     7
100
AcDbLine
 10
84.4475658853
 20
39.9586312478
 30
0.0
 11
84.4475658853
 21
34.673881631
 31
0.0
  0
ARC
  5
96
330
1F
100
AcDbEntity
  8
0
  6
CONTINUOUS
 62
     7
100
AcDbCircle
 10
84.9200110264
 20
39.9586323729
 30
0.0
 40
0.4724409448818889
100
AcDbArc
 50
90.0
 51
180.0
  0
LINE
  5
97
330
1F
100
AcDbEntity
  8
0
  6
CONTINUOUS
 62
     7
100
AcDbLine
 10
90.353081451
 20
40.4310754967
 30
0.0
 11
84.9200101343
 21
40.4310754967
 31
0.0
  0
LINE
  5
98
330
1F
100
AcDbEntity
  8
0
  6
CONTINUOUS
 62
     7
100
AcDbLine
 10
90.353081451
 20
40.3513976971
 30
0.0
 11
90.353081451
 21
40.4310754967
 31
0.0
  0
ARC
  5
99
330
1F
100
AcDbEntity
  8
0
  6
CONTINUOUS
 62
     7
100
AcDbCircle
 10
90.3137118138
 20
40.3513954296
 30
0.0
 40
0.0393700787401483
100
AcDbArc
 50
287.6004667858
 51
0.0
  0
ARC
  5
9A
330
1F
100
AcDbEntity
  8
0
  6
CONTINUOUS
 62
     7
100
AcDbCircle
 10
90.3871633941
 20
40.1198532556
 30
0.0
 40
0.2035433070866173
100
AcDbArc
 50
107.6004667859
 51
294.8878920264
  0
ARC
  5
9B
330
1F
100
AcDbEntity
  8
0
  6
CONTINUOUS
 62
     7
100
AcDbCircle
 10
90.4893920651
 20
39.8994985147
 30
0.0
 40
0.0393700787401576
100
AcDbArc
 50
90.0
 51
114.8878920264
  0
LINE
  5
9C
330
1F
100
AcDbEntity
  8
0
  6
CONTINUOUS
 62
     7
100
AcDbLine
 10
90.4893930496
 20
39.9388678494
 30
0.0
 11
90.8295337603
 21
39.9388678494
 31
0.0
  0
ARC
  5
9D
330
1F
100
AcDbEntity
  8
0
  6
CONTINUOUS
 62
     7
100
AcDbCircle
 10
90.8295367781
 20
39.9782386722
 30
0.0
 40
0.0393700787401585
100
AcDbArc
 50
270.0
 51
356.3380644245
  0
LINE
  5
9E
330
1F
100
AcDbEntity
  8
0
  6
CONTINUOUS
 62
     7
100
AcDbLine
 10
90.868825893
 20
39.9757241703
 30
0.0
 11
90.8822111251
 21
40.1849317802
 31
0.0
  0
LINE
  5
9F
330
1F
100
AcDbEntity
  8
0
  6
CONTINUOUS
 62
     7
100
AcDbLine
 10
90.8822111251
 20
40.1849317802
 30
0.0
 11
91.2979605623
 21
40.1849317802
 31
0.0
  0
ARC
  5
A0
330
1F
100
AcDbEntity
  8
0
  6
CONTINUOUS
 62
     7
100
AcDbCircle
 10
91.2979637823
 20
40.1455615068
 30
0.0
 40
0.0393700787401627
100
AcDbArc
 50
0.0
 51
90.0
  0
LINE
  5
A1
330
1F
100
AcDbEntity
  8
0
  6
CONTINUOUS
 62
     7
100
AcDbLine
 10
91.3373371741
 20
39.6829621123
 30
0.0
 11
91.3373371741
 21
40.1455598617
 31
0.0
  0
ARC
  5
A2
330
1F
100
AcDbEntity
  8
0
  6
CONTINUOUS
 62
     7
100
AcDbCircle
 10
91.1011133886
 20
39.6829630816
 30
0.0
 40
0.236220472440948
100
AcDbArc
 50
270.0
 51
0.0
  0
LINE
  5
A3
330
1F
100
AcDbEntity
  8
0
  6
CONTINUOUS
 62
     7
100
AcDbLine
 10
85.6700149101
 20
39.4467423345
 30
0.0
 11
91.1011150496
 21
39.4467423345
 31
0.0
  0
ARC
  5
A4
330
1F
100
AcDbEntity
  8
0
  6
CONTINUOUS
 62
     7
100
AcDbCircle
 10
85.6700110264
 20
38.9743016643
 30
0.0
 40
0.472440944881896
100
AcDbArc
 50
90.0
 51
180.0
  0
LINE
  5
A5
330
1F
100
AcDbEntity
  8
0
  6
CONTINUOUS
 62
     7
100
AcDbLine
 10
85.1975706612
 20
34.2014397287
 30
0.0
 11
85.1975706612
 21
38.9743027788
 31
0.0
  0
ARC
  5
A6
330
1F
100
AcDbEntity
  8
0
  6
CONTINUOUS
 62
     7
100
AcDbCircle
 10
84.4475700815
 20
34.2014407719
 30
0.0
 40
0.7500000000000081
100
AcDbArc
 50
300.0
 51
0.0
  0
ARC
  5
A7
330
1F
100
AcDbEntity
  8
0
  6
CONTINUOUS
 62
     7
100
AcDbCircle
 10
85.1975700815
 20
32.9024026662
 30
0.0
 40
0.7499999999999858
100
AcDbArc
 50
120.0
 51
180.0
  0
LINE
  5
A8
330
1F
100
AcDbEntity
  8
0
  6
CONTINUOUS
 62
     7
100
AcDbLine
 10
84.4475658853
 20
29.7432868563
 30
0.0
 11
84.4475658853
 21
32.9024034286
 31
0.0
  0
ARC
  5
A9
330
1F
100
AcDbEntity
  8
0
  6
CONTINUOUS
 62
     7
100
AcDbCircle
 10
85.1975700815
 20
29.7432872765
 30
0.0
 40
0.75
100
AcDbArc
 50
180.0
 51
240.0
  0
ARC
  5
AA
330
1F
100
AcDbEntity
  8
0
  6
CONTINUOUS
 62
     7
100
AcDbCircle
 10
84.4475700815
 20
28.4442491708
 30
0.0
 40
0.7499999999999969
100
AcDbArc
 50
0.0
 51
60.0
  0
LINE
  5
AB
330
1F
100
AcDbEntity
  8
0
  6
CONTINUOUS
 62
     7
100
AcDbLine
 10
85.1975706612
 20
23.671387506
 30
0.0
 11
85.1975706612
 21
28.4442482096
 31
0.0
  0
ARC
  5
AC
330
1F
100
AcDbEntity
  8
0
  6
CONTINUOUS
 62
     7
100
AcDbCircle
 10
85.6700110264
 20
23.6713882785
 30
0.0
 40
0.4724409448818996
100
AcDbArc
 50
180.0
 51
270.0
  0
LINE
  5
AD
330
1F
100
AcDbEntity
  8
0
  6
CONTINUOUS
 62
     7
100
AcDbLine
 10
91.1011150496
 20
23.1989479504
 30
0.0
 11
85.6700149101
 21
23.1989479504
 31
0.0
  0
ARC
  5
AE
330
1F
100
AcDbEntity
  8
0
  6
CONTINUOUS
 62
     7
100
AcDbCircle
 10
91.1011133886
 20
22.9627268611
 30
0.0
 40
0.236220472440948
100
AcDbArc
 50
0.0
 51
90.0
  0
LINE
  5
AF
330
1F
100
AcDbEntity
  8
0
  6
CONTINUOUS
 62
     7
100
AcDbLine
 10
91.3373371741
 20
22.5001280765
 30
0.0
 11
91.3373371741
 21
22.9627258259
 31
0.0
  0
ARC
  5
B0
330
1F
100
AcDbEntity
  8
0
  6
CONTINUOUS
 62
     7
100
AcDbCircle
 10
91.2979637823
 20
22.5001284359
 30
0.0
 40
0.0393700787401627
100
AcDbArc
 50
270.0
 51
0.0
  0
LINE
  5
B1
330
1F
100
AcDbEntity
  8
0
  6
CONTINUOUS
 62
     7
100
AcDbLine
 10
91.2979605623
 20
22.4607585047
 30
0.0
 11
90.8822111251
 21
22.4607585047
 31
0.0
  0
LINE
  5
B2
330
1F
100
AcDbEntity
  8
0
  6
CONTINUOUS
 62
     7
100
AcDbLine
 10
90.8822111251
 20
22.4607585047
 30
0.0
 11
90.868825893
 21
22.6699661146
 31
0.0
  0
ARC
  5
B3
330
1F
100
AcDbEntity
  8
0
  6
CONTINUOUS
 62
     7
100
AcDbCircle
 10
90.8295367781
 20
22.6674512706
 30
0.0
 40
0.0393700787401588
100
AcDbArc
 50
3.6619355755
 51
90.0
  0
LINE
  5
B4
330
1F
100
AcDbEntity
  8
0
  6
CONTINUOUS
 62
     7
100
AcDbLine
 10
90.8295337603
 20
22.7068224355
 30
0.0
 11
90.4893930496
 21
22.7068224355
 31
0.0
  0
ARC
  5
B5
330
1F
100
AcDbEntity
  8
0
  6
CONTINUOUS
 62
     7
100
AcDbCircle
 10
90.4893920651
 20
22.7461914281
 30
0.0
 40
0.0393700787401609
100
AcDbArc
 50
245.1121079736
 51
270.0
  0
ARC
  5
B6
330
1F
100
AcDbEntity
  8
0
  6
CONTINUOUS
 62
     7
100
AcDbCircle
 10
90.3871633941
 20
22.5258366872
 30
0.0
 40
0.2035433070866207
100
AcDbArc
 50
65.1121079736
 51
252.3995332141
  0
ARC
  5
B7
330
1F
100
AcDbEntity
  8
0
  6
CONTINUOUS
 62
     7
100
AcDbCircle
 10
90.3137118138
 20
22.2942945131
 30
0.0
 40
0.0393700787401449
100
AcDbArc
 50
0.0
 51
72.3995332142
  0
LINE
  5
B8
330
1F
100
AcDbEntity
  8
0
  6
CONTINUOUS
 62
     7
100
AcDbLine
 10
90.353081451
 20
22.2146171348
 30
0.0
 11
90.353081451
 21
22.2942949343
 31
0.0
  0
LINE
  5
B9
330
1F
100
AcDbEntity
  8
0
  6
CONTINUOUS
 62
     7
100
AcDbLine
 10
84.9200101343
 20
22.2146171348
 30
0.0
 11
90.353081451
 21
22.2146171348
 31
0.0
  0
ARC
  5
BA
330
1F
100
AcDbEntity
  8
0
  6
CONTINUOUS
 62
     7
100
AcDbCircle
 10
84.9200110264
 20
22.6870575698
 30
0.0
 40
0.4724409448818925
100
AcDbArc
 50
180.0
 51
270.0
  0
LINE
  5
BB
330
1F
100
AcDbEntity
  8
0
  6
CONTINUOUS
 62
     7
100
AcDbLine
 10
84.4475658853
 20
27.9718086539
 30
0.0
 11
84.4475658853
 21
22.6870566905
 31
0.0
  0
ARC
  5
BC
330
1F
100
AcDbEntity
  8
0
  6
CONTINUOUS
 62
     7
100
AcDbCircle
 10
83.9751291366
 20
27.971808226
 30
0.0
 40
0.4724409448819102
100
AcDbArc
 50
0.0
 51
90.0
  0
LINE
  5
BD
330
1F
100
AcDbEntity
  8
0
  6
CONTINUOUS
 62
     7
100
AcDbLine
 10
82.9515080746
 20
28.4442482096
 30
0.0
 11
83.9751310229
 21
28.4442482096
 31
0.0
  0
ARC
  5
BE
330
1F
100
AcDbEntity
  8
0
  6
CONTINUOUS
 62
     7
100
AcDbCircle
 10
82.9515070894
 20
27.971808226
 30
0.0
 40
0.472440944881896
100
AcDbArc
 50
90.0
 51
180.0
  0
LINE
  5
BF
330
1F
100
AcDbEntity
  8
0
  6
CONTINUOUS
 62
     7
100
AcDbLine
 10
82.4790638256
 20
22.6870566905
 30
0.0
 11
82.4790638256
 21
27.9718086539
 31
0.0
  0
ARC
  5
C0
330
1F
100
AcDbEntity
  8
0
  6
CONTINUOUS
 62
     7
100
AcDbCircle
 10
82.0066251996
 20
22.6870575698
 30
0.0
 40
0.4724409448818925
100
AcDbArc
 50
270.0
 51
0.0
  0
LINE
  5
C1
330
1F
100
AcDbEntity
  8
0
  6
CONTINUOUS
 62
     7
100
AcDbLine
 10
76.5735529533
 20
22.2146171348
 30
0.0
 11
82.0066289632
 21
22.2146171348
 31
0.0
  0
LINE
  5
C2
330
1F
100
AcDbEntity
  8
0
  6
CONTINUOUS
 62
     7
100
AcDbLine
 10
76.5735529533
 20
22.2942949343
 30
0.0
 11
76.5735529533
 21
22.2146171348
 31
0.0
  0
ARC
  5
C3
330
1F
100
AcDbEntity
  8
0
  6
CONTINUOUS
 62
     7
100
AcDbCircle
 10
76.6129244122
 20
22.2942945131
 30
0.0
 40
0.0393700787401627
100
AcDbArc
 50
107.6004667859
 51
180.0
  0
ARC
  5
C4
330
1F
100
AcDbEntity
  8
0
  6
CONTINUOUS
 62
     7
100
AcDbCircle
 10
76.5394728319
 20
22.5258366872
 30
0.0
 40
0.2035433070866207
100
AcDbArc
 50
287.6004667859
 51
114.8878920264
  0
ARC
  5
C5
330
1F
100
AcDbEntity
  8
0
  6
CONTINUOUS
 62
     7
100
AcDbCircle
 10
76.4372441609
 20
22.7461914281
 30
0.0
 40
0.0393700787401576
100
AcDbArc
 50
270.0
 51
294.8878920264
  0
LINE
  5
C6
330
1F
100
AcDbEntity
  8
0
  6
CONTINUOUS
 62
     7
100
AcDbLine
 10
76.4372460479
 20
22.7068224355
 30
0.0
 11
76.0971006439
 21
22.7068224355
 31
0.0
  0
ARC
  5
C7
330
1F
100
AcDbEntity
  8
0
  6
CONTINUOUS
 62
     7
100
AcDbCircle
 10
76.0970994479
 20
22.6674512706
 30
0.0
 40
0.0393700787401592
100
AcDbArc
 50
90.0
 51
176.3380644245
  0
LINE
  5
C8
330
1F
100
AcDbEntity
  8
0
  6
CONTINUOUS
 62
     7
100
AcDbLine
 10
76.0578085112
 20
22.6699661146
 30
0.0
 11
76.0444185859
 21
22.4607585047
 31
0.0
  0
LINE
  5
C9
330
1F
100
AcDbEntity
  8
0
  6
CONTINUOUS
 62
     7
100
AcDbLine
 10
76.0444185859
 20
22.4607585047
 30
0.0
 11
75.6286738419
 21
22.4607585047
 31
0.0
  0
ARC
  5
CA
330
1F
100
AcDbEntity
  8
0
  6
CONTINUOUS
 62
     7
100
AcDbCircle
 10
75.6286724437
 20
22.5001284359
 30
0.0
 40
0.0393700787401592
100
AcDbArc
 50
180.0
 51
270.0
  0
LINE
  5
CB
330
1F
100
AcDbEntity
  8
0
  6
CONTINUOUS
 62
     7
100
AcDbLine
 10
75.5893019234
 20
22.9627258259
 30
0.0
 11
75.5893019234
 21
22.5001280765
 31
0.0
  0
ARC
  5
CC
330
1F
100
AcDbEntity
  8
0
  6
CONTINUOUS
 62
     7
100
AcDbCircle
 10
74.1137118138
 20
39.6828843414
 30
0.0
 40
0.2362204724409338
100
AcDbArc
 50
270.0
 51
0.0
  0
LINE
  5
CD
330
1F
100
AcDbEntity
  8
0
  6
CONTINUOUS
 62
     7
100
AcDbLine
 10
68.6826113634
 20
39.4466648954
 30
0.0
 11
74.1137115029
 21
39.4466648954
 31
0.0
  0
ARC
  5
CE
330
1F
100
AcDbEntity
  8
0
  6
CONTINUOUS
 62
     7
100
AcDbCircle
 10
68.6826094516
 20
38.9742229241
 30
0.0
 40
0.4724409448818889
100
AcDbArc
 50
90.0
 51
180.0
  0
LINE
  5
CF
330
1F
100
AcDbEntity
  8
0
  6
CONTINUOUS
 62
     7
100
AcDbLine
 10
68.2101671145
 20
34.2013622895
 30
0.0
 11
68.2101671145
 21
38.9742229931
 31
0.0
  0
ARC
  5
D0
330
1F
100
AcDbEntity
  8
0
  6
CONTINUOUS
 62
     7
100
AcDbCircle
 10
67.4601685067
 20
34.2013620317
 30
0.0
 40
0.75
100
AcDbArc
 50
300.0
 51
0.0
  0
ARC
  5
D1
330
1F
100
AcDbEntity
  8
0
  6
CONTINUOUS
 62
     7
100
AcDbCircle
 10
68.2101685067
 20
32.9023239261
 30
0.0
 40
0.75
100
AcDbArc
 50
120.0
 51
180.0
  0
LINE
  5
D2
330
1F
100
AcDbEntity
  8
0
  6
CONTINUOUS
 62
     7
100
AcDbLine
 10
67.4601670319
 20
29.7432094172
 30
0.0
 11
67.4601670319
 21
32.9023236428
 31
0.0
  0
ARC
  5
D3
330
1F
100
AcDbEntity
  8
0
  6
CONTINUOUS
 62
     7
100
AcDbCircle
 10
68.2101685067
 20
29.7432085364
 30
0.0
 40
0.75
100
AcDbArc
 50
180.0
 51
240.0
  0
ARC
  5
D4
330
1F
100
AcDbEntity
  8
0
  6
CONTINUOUS
 62
     7
100
AcDbCircle
 10
67.4601685067
 20
28.4441704307
 30
0.0
 40
0.75
100
AcDbArc
 50
0.0
 51
60.0
  0
LINE
  5
D5
330
1F
100
AcDbEntity
  8
0
  6
CONTINUOUS
 62
     7
100
AcDbLine
 10
68.2101671145
 20
23.6713100669
 30
0.0
 11
68.2101671145
 21
28.4441707704
 31
0.0
  0
ARC
  5
D6
330
1F
100
AcDbEntity
  8
0
  6
CONTINUOUS
 62
     7
100
AcDbCircle
 10
68.6826094516
 20
23.6713095383
 30
0.0
 40
0.472440944881896
100
AcDbArc
 50
180.0
 51
270.0
  0
LINE
  5
D7
330
1F
100
AcDbEntity
  8
0
  6
CONTINUOUS
 62
     7
100
AcDbLine
 10
74.1137115029
 20
23.1988681646
 30
0.0
 11
68.6826113634
 21
23.1988681646
 31
0.0
  0
ARC
  5
D8
330
1F
100
AcDbEntity
  8
0
  6
CONTINUOUS
 62
     7
100
AcDbCircle
 10
74.1137118138
 20
22.962648121
 30
0.0
 40
0.2362204724409445
100
AcDbArc
 50
0.0
 51
90.0
  0
LINE
  5
D9
330
1F
100
AcDbEntity
  8
0
  6
CONTINUOUS
 62
     7
100
AcDbLine
 10
74.3499336274
 20
22.5000506374
 30
0.0
 11
74.3499336274
 21
22.9626483868
 31
0.0
  0
LINE
  5
DA
330
1F
100
AcDbEntity
  8
0
  6
CONTINUOUS
 62
     7
100
AcDbLine
 10
74.3105617089
 20
22.4606787189
 30
0.0
 11
73.8948122716
 21
22.4606787189
 31
0.0
  0
LINE
  5
DB
330
1F
100
AcDbEntity
  8
0
  6
CONTINUOUS
 62
     7
100
AcDbLine
 10
73.8948122716
 20
22.4606787189
 30
0.0
 11
73.8814270396
 21
22.6698863288
 31
0.0
  0
ARC
  5
DC
330
1F
100
AcDbEntity
  8
0
  6
CONTINUOUS
 62
     7
100
AcDbCircle
 10
73.8421352033
 20
22.6673725304
 30
0.0
 40
0.0393700787401588
100
AcDbArc
 50
3.6619355755
 51
90.0
  0
LINE
  5
DD
330
1F
100
AcDbEntity
  8
0
  6
CONTINUOUS
 62
     7
100
AcDbLine
 10
73.8421349068
 20
22.7067426497
 30
0.0
 11
73.5019895029
 21
22.7067426497
 31
0.0
  0
ARC
  5
DE
330
1F
100
AcDbEntity
  8
0
  6
CONTINUOUS
 62
     7
100
AcDbCircle
 10
73.5019904903
 20
22.7461126879
 30
0.0
 40
0.0393700787401627
100
AcDbArc
 50
245.1121079736
 51
270.0
  0
ARC
  5
DF
330
1F
100
AcDbEntity
  8
0
  6
CONTINUOUS
 62
     7
100
AcDbCircle
 10
73.3997618193
 20
22.525757947
 30
0.0
 40
0.2035433070866144
100
AcDbArc
 50
65.1121079736
 51
252.3995332141
  0
ARC
  5
E0
330
1F
100
AcDbEntity
  8
0
  6
CONTINUOUS
 62
     7
100
AcDbCircle
 10
73.326310239
 20
22.2942157729
 30
0.0
 40
0.0393700787401627
100
AcDbArc
 50
0.0
 51
72.3995332141
  0
LINE
  5
E1
330
1F
100
AcDbEntity
  8
0
  6
CONTINUOUS
 62
     7
100
AcDbLine
 10
73.3656825975
 20
22.214537349
 30
0.0
 11
73.3656825975
 21
22.2942151486
 31
0.0
  0
LINE
  5
E2
330
1F
100
AcDbEntity
  8
0
  6
CONTINUOUS
 62
     7
100
AcDbLine
 10
67.9326112808
 20
22.214537349
 30
0.0
 11
73.3656825975
 21
22.214537349
 31
0.0
  0
ARC
  5
E3
330
1F
100
AcDbEntity
  8
0
  6
CONTINUOUS
 62
     7
100
AcDbCircle
 10
67.9326094516
 20
22.6869788296
 30
0.0
 40
0.472440944881896
100
AcDbArc
 50
180.0
 51
270.0
  0
LINE
  5
E4
330
1F
100
AcDbEntity
  8
0
  6
CONTINUOUS
 62
     7
100
AcDbLine
 10
67.4601670319
 20
27.9717288681
 30
0.0
 11
67.4601670319
 21
22.6869792514
 31
0.0
  0
ARC
  5
E5
330
1F
100
AcDbEntity
  8
0
  6
CONTINUOUS
 62
     7
100
AcDbCircle
 10
66.9877275618
 20
27.9717294858
 30
0.0
 40
0.4724409448818854
100
AcDbArc
 50
0.0
 51
90.0
  0
LINE
  5
E6
330
1F
100
AcDbEntity
  8
0
  6
CONTINUOUS
 62
     7
100
AcDbLine
 10
65.9641045278
 20
28.4441707704
 30
0.0
 11
66.9877274762
 21
28.4441707704
 31
0.0
  0
ARC
  5
E7
330
1F
100
AcDbEntity
  8
0
  6
CONTINUOUS
 62
     7
100
AcDbCircle
 10
65.9641055146
 20
27.9717294858
 30
0.0
 40
0.4724409448818889
100
AcDbArc
 50
90.0
 51
180.0
  0
LINE
  5
E8
330
1F
100
AcDbEntity
  8
0
  6
CONTINUOUS
 62
     7
100
AcDbLine
 10
65.4916649722
 20
22.6869792514
 30
0.0
 11
65.4916649722
 21
27.9717288681
 31
0.0
  0
ARC
  5
E9
330
1F
100
AcDbEntity
  8
0
  6
CONTINUOUS
 62
     7
100
AcDbCircle
 10
65.0192236248
 20
22.6869788296
 30
0.0
 40
0.472440944881896
100
AcDbArc
 50
270.0
 51
0.0
  0
LINE
  5
EA
330
1F
100
AcDbEntity
  8
0
  6
CONTINUOUS
 62
     7
100
AcDbLine
 10
59.5861540998
 20
22.214537349
 30
0.0
 11
65.0192254165
 21
22.214537349
 31
0.0
  0
LINE
  5
EB
330
1F
100
AcDbEntity
  8
0
  6
CONTINUOUS
 62
     7
100
AcDbLine
 10
59.5861540998
 20
22.2942151486
 30
0.0
 11
59.5861540998
 21
22.214537349
 31
0.0
  0
ARC
  5
EC
330
1F
100
AcDbEntity
  8
0
  6
CONTINUOUS
 62
     7
100
AcDbCircle
 10
59.6255228374
 20
22.2942157729
 30
0.0
 40
0.0393700787401627
100
AcDbArc
 50
107.6004667859
 51
180.0
  0
ARC
  5
ED
330
1F
100
AcDbEntity
  8
0
  6
CONTINUOUS
 62
     7
100
AcDbCircle
 10
59.5520712571
 20
22.525757947
 30
0.0
 40
0.2035433070866144
100
AcDbArc
 50
287.6004667859
 51
114.8878920264
  0
ARC
  5
EE
330
1F
100
AcDbEntity
  8
0
  6
CONTINUOUS
 62
     7
100
AcDbCircle
 10
59.4498425861
 20
22.7461126879
 30
0.0
 40
0.0393700787401592
100
AcDbArc
 50
270.0
 51
294.8878920264
  0
LINE
  5
EF
330
1F
100
AcDbEntity
  8
0
  6
CONTINUOUS
 62
     7
100
AcDbLine
 10
59.4498425012
 20
22.7067426497
 30
0.0
 11
59.1096970972
 21
22.7067426497
 31
0.0
  0
ARC
  5
F0
330
1F
100
AcDbEntity
  8
0
  6
CONTINUOUS
 62
     7
100
AcDbCircle
 10
59.1096978731
 20
22.6673725304
 30
0.0
 40
0.0393700787401627
100
AcDbArc
 50
90.0
 51
176.3380644245
  0
LINE
  5
F1
330
1F
100
AcDbEntity
  8
0
  6
CONTINUOUS
 62
     7
100
AcDbLine
 10
59.0704096577
 20
22.6698863288
 30
0.0
 11
59.0570197324
 21
22.4606787189
 31
0.0
  0
LINE
  5
F2
330
1F
100
AcDbEntity
  8
0
  6
CONTINUOUS
 62
     7
100
AcDbLine
 10
59.0570197324
 20
22.4606787189
 30
0.0
 11
58.6412702952
 21
22.4606787189
 31
0.0
  0
ARC
  5
F3
330
1F
100
AcDbEntity
  8
0
  6
CONTINUOUS
 62
     7
100
AcDbCircle
 10
58.6412708689
 20
22.5000496958
 30
0.0
 40
0.0393700787401627
100
AcDbArc
 50
180.0
 51
270.0
  0
LINE
  5
F4
330
1F
100
AcDbEntity
  8
0
  6
CONTINUOUS
 62
     7
100
AcDbLine
 10
58.60190307
 20
22.9626483868
 30
0.0
 11
58.60190307
 21
22.5000506374
 31
0.0
  0
ARC
  5
F5
330
1F
100
AcDbEntity
  8
0
  6
CONTINUOUS
 62
     7
100
AcDbCircle
 10
58.8381212626
 20
22.962648121
 30
0.0
 40
0.2362204724409445
100
AcDbArc
 50
90.0
 51
180.0
  0
LINE
  5
F6
330
1F
100
AcDbEntity
  8
0
  6
CONTINUOUS
 62
     7
100
AcDbLine
 10
64.2692253339
 20
23.1988681646
 30
0.0
 11
58.8381205011
 21
23.1988681646
 31
0.0
  0
ARC
  5
F7
330
1F
100
AcDbEntity
  8
0
  6
CONTINUOUS
 62
     7
100
AcDbCircle
 10
64.2692236248
 20
23.6713095383
 30
0.0
 40
0.472440944881896
100
AcDbArc
 50
270.0
 51
0.0
  0
LINE
  5
F8
330
1F
100
AcDbEntity
  8
0
  6
CONTINUOUS
 62
     7
100
AcDbLine
 10
64.7416648896
 20
28.4441707704
 30
0.0
 11
64.7416648896
 21
23.6713100669
 31
0.0
  0
ARC
  5
F9
330
1F
100
AcDbEntity
  8
0
  6
CONTINUOUS
 62
     7
100
AcDbCircle
 10
65.4916645697
 20
28.4441704307
 30
0.0
 40
0.75
100
AcDbArc
 50
120.0
 51
180.0
  0
ARC
  5
FA
330
1F
100
AcDbEntity
  8
0
  6
CONTINUOUS
 62
     7
100
AcDbCircle
 10
64.7416645697
 20
29.7432085364
 30
0.0
 40
0.75
100
AcDbArc
 50
300.0
 51
0.0
  0
LINE
  5
FB
330
1F
100
AcDbEntity
  8
0
  6
CONTINUOUS
 62
     7
100
AcDbLine
 10
65.4916649722
 20
32.9023236428
 30
0.0
 11
65.4916649722
 21
29.7432094172
 31
0.0
  0
ARC
  5
FC
330
1F
100
AcDbEntity
  8
0
  6
CONTINUOUS
 62
     7
100
AcDbCircle
 10
64.7416645697
 20
32.9023239261
 30
0.0
 40
0.75
100
AcDbArc
 50
0.0
 51
60.0
  0
ARC
  5
FD
330
1F
100
AcDbEntity
  8
0
  6
CONTINUOUS
 62
     7
100
AcDbCircle
 10
65.4916645697
 20
34.2013620317
 30
0.0
 40
0.75
100
AcDbArc
 50
180.0
 51
240.0
  0
LINE
  5
FE
330
1F
100
AcDbEntity
  8
0
  6
CONTINUOUS
 62
     7
100
AcDbLine
 10
64.7416648896
 20
38.9742229931
 30
0.0
 11
64.7416648896
 21
34.2013622895
 31
0.0
  0
ARC
  5
FF
330
1F
100
AcDbEntity
  8
0
  6
CONTINUOUS
 62
     7
100
AcDbCircle
 10
64.2692236248
 20
38.9742229241
 30
0.0
 40
0.472440944881896
100
AcDbArc
 50
0.0
 51
90.0
  0
LINE
  5
100
330
1F
100
AcDbEntity
  8
0
  6
CONTINUOUS
 62
     7
100
AcDbLine
 10
58.8381205011
 20
39.4466648954
 30
0.0
 11
64.2692253339
 21
39.4466648954
 31
0.0
  0
ARC
  5
101
330
1F
100
AcDbEntity
  8
0
  6
CONTINUOUS
 62
     7
100
AcDbCircle
 10
58.8381212626
 20
39.6828843414
 30
0.0
 40
0.2362204724409409
100
AcDbArc
 50
180.0
 51
270.0
  0
LINE
  5
102
330
1F
100
AcDbEntity
  8
0
  6
CONTINUOUS
 62
     7
100
AcDbLine
 10
58.60190307
 20
40.1454847692
 30
0.0
 11
58.60190307
 21
39.6828823266
 31
0.0
  0
ARC
  5
103
330
1F
100
AcDbEntity
  8
0
  6
CONTINUOUS
 62
     7
100
AcDbCircle
 10
58.6412708689
 20
40.1454827666
 30
0.0
 40
0.0393700787401627
100
AcDbArc
 50
90.0
 51
180.0
  0
LINE
  5
104
330
1F
100
AcDbEntity
  8
0
  6
CONTINUOUS
 62
     7
100
AcDbLine
 10
58.6412702952
 20
40.1848519944
 30
0.0
 11
59.0570197324
 21
40.1848519944
 31
0.0
  0
LINE
  5
105
330
1F
100
AcDbEntity
  8
0
  6
CONTINUOUS
 62
     7
100
AcDbLine
 10
59.0570197324
 20
40.1848519944
 30
0.0
 11
59.0704096577
 21
39.9756443845
 31
0.0
  0
ARC
  5
106
330
1F
100
AcDbEntity
  8
0
  6
CONTINUOUS
 62
     7
100
AcDbCircle
 10
59.1096978731
 20
39.978159932
 30
0.0
 40
0.0393700787401585
100
AcDbArc
 50
183.6619355755
 51
270.0
  0
LINE
  5
107
330
1F
100
AcDbEntity
  8
0
  6
CONTINUOUS
 62
     7
100
AcDbLine
 10
59.1096970972
 20
39.9387880636
 30
0.0
 11
59.4498425012
 21
39.9387880636
 31
0.0
  0
ARC
  5
108
330
1F
100
AcDbEntity
  8
0
  6
CONTINUOUS
 62
     7
100
AcDbCircle
 10
59.4498425861
 20
39.8994197745
 30
0.0
 40
0.0393700787401576
100
AcDbArc
 50
65.1121079736
 51
90.0
  0
ARC
  5
109
330
1F
100
AcDbEntity
  8
0
  6
CONTINUOUS
 62
     7
100
AcDbCircle
 10
59.5520712571
 20
40.1197745154
 30
0.0
 40
0.2035433070866204
100
AcDbArc
 50
245.1121079736
 51
72.3995332141
  0
ARC
  5
10A
330
1F
100
AcDbEntity
  8
0
  6
CONTINUOUS
 62
     7
100
AcDbCircle
 10
59.6255228374
 20
40.3513166895
 30
0.0
 40
0.0393700787401501
100
AcDbArc
 50
180.0
 51
252.3995332141
  0
LINE
  5
10B
330
1F
100
AcDbEntity
  8
0
  6
CONTINUOUS
 62
     7
100
AcDbLine
 10
59.5861540998
 20
40.430995711
 30
0.0
 11
59.5861540998
 21
40.3513179114
 31
0.0
  0
LINE
  5
10C
330
1F
100
AcDbEntity
  8
0
  6
CONTINUOUS
 62
     7
100
AcDbLine
 10
65.0192254165
 20
40.430995711
 30
0.0
 11
59.5861540998
 21
40.430995711
 31
0.0
  0
ARC
  5
10D
330
1F
100
AcDbEntity
  8
0
  6
CONTINUOUS
 62
     7
100
AcDbCircle
 10
65.0192236248
 20
39.9585536328
 30
0.0
 40
0.472440944881896
100
AcDbArc
 50
0.0
 51
90.0
  0
LINE
  5
10E
330
1F
100
AcDbEntity
  8
0
  6
CONTINUOUS
 62
     7
100
AcDbLine
 10
65.4916649722
 20
34.6738018452
 30
0.0
 11
65.4916649722
 21
39.958551462
 31
0.0
  0
ARC
  5
10F
330
1F
100
AcDbEntity
  8
0
  6
CONTINUOUS
 62
     7
100
AcDbCircle
 10
65.9641055146
 20
34.6738029766
 30
0.0
 40
0.4724409448818889
100
AcDbArc
 50
180.0
 51
270.0
  0
LINE
  5
110
330
1F
100
AcDbEntity
  8
0
  6
CONTINUOUS
 62
     7
100
AcDbLine
 10
66.9877274762
 20
34.2013622895
 30
0.0
 11
65.9641045278
 21
34.2013622895
 31
0.0
  0
ARC
  5
111
330
1F
100
AcDbEntity
  8
0
  6
CONTINUOUS
 62
     7
100
AcDbCircle
 10
66.9877275618
 20
34.6738029766
 30
0.0
 40
0.4724409448818889
100
AcDbArc
 50
270.0
 51
0.0
  0
LINE
  5
112
330
1F
100
AcDbEntity
  8
0
  6
CONTINUOUS
 62
     7
100
AcDbLine
 10
67.4601670319
 20
39.958551462
 30
0.0
 11
67.4601670319
 21
34.6738018452
 31
0.0
  0
ARC
  5
113
330
1F
100
AcDbEntity
  8
0
  6
CONTINUOUS
 62
     7
100
AcDbCircle
 10
67.9326094516
 20
39.9585536328
 30
0.0
 40
0.472440944881896
100
AcDbArc
 50
90.0
 51
180.0
  0
LINE
  5
114
330
1F
100
AcDbEntity
  8
0
  6
CONTINUOUS
 62
     7
100
AcDbLine
 10
73.3656825975
 20
40.430995711
 30
0.0
 11
67.9326112808
 21
40.430995711
 31
0.0
  0
LINE
  5
115
330
1F
100
AcDbEntity
  8
0
  6
CONTINUOUS
 62
     7
100
AcDbLine
 10
73.3656825975
 20
40.3513179114
 30
0.0
 11
73.3656825975
 21
40.430995711
 31
0.0
  0
ARC
  5
116
330
1F
100
AcDbEntity
  8
0
  6
CONTINUOUS
 62
     7
100
AcDbCircle
 10
73.326310239
 20
40.3513166895
 30
0.0
 40
0.0393700787401569
100
AcDbArc
 50
287.6004667859
 51
0.0
  0
ARC
  5
117
330
1F
100
AcDbEntity
  8
0
  6
CONTINUOUS
 62
     7
100
AcDbCircle
 10
73.3997618193
 20
40.1197745154
 30
0.0
 40
0.2035433070866173
100
AcDbArc
 50
107.6004667859
 51
294.8878920264
  0
ARC
  5
118
330
1F
100
AcDbEntity
  8
0
  6
CONTINUOUS
 62
     7
100
AcDbCircle
 10
73.5019904903
 20
39.8994197745
 30
0.0
 40
0.0393700787401576
100
AcDbArc
 50
90.0
 51
114.8878920264
  0
LINE
  5
119
330
1F
100
AcDbEntity
  8
0
  6
CONTINUOUS
 62
     7
100
AcDbLine
 10
73.5019895029
 20
39.9387880636
 30
0.0
 11
73.8421349068
 21
39.9387880636
 31
0.0
  0
ARC
  5
11A
330
1F
100
AcDbEntity
  8
0
  6
CONTINUOUS
 62
     7
100
AcDbCircle
 10
73.8421352033
 20
39.978159932
 30
0.0
 40
0.0393700787401627
100
AcDbArc
 50
270.0
 51
356.3380644245
  0
LINE
  5
11B
330
1F
100
AcDbEntity
  8
0
  6
CONTINUOUS
 62
     7
100
AcDbLine
 10
73.8814270396
 20
39.9756443845
 30
0.0
 11
73.8948122716
 21
40.1848519944
 31
0.0
  0
LINE
  5
11C
330
1F
100
AcDbEntity
  8
0
  6
CONTINUOUS
 62
     7
100
AcDbLine
 10
73.8948122716
 20
40.1848519944
 30
0.0
 11
74.3105617089
 21
40.1848519944
 31
0.0
  0
ARC
  5
11D
330
1F
100
AcDbEntity
  8
0
  6
CONTINUOUS
 62
     7
100
AcDbCircle
 10
74.3105622075
 20
40.1454827666
 30
0.0
 40
0.0393700787401627
100
AcDbArc
 50
0.0
 51
90.0
  0
LINE
  5
11E
330
1F
100
AcDbEntity
  8
0
  6
CONTINUOUS
 62
     7
100
AcDbLine
 10
74.3499336274
 20
39.6828823266
 30
0.0
 11
74.3499336274
 21
40.1454847692
 31
0.0
  0
ARC
  5
11F
330
1F
100
AcDbEntity
  8
0
  6
CONTINUOUS
 62
     7
100
AcDbCircle
 10
74.3105622075
 20
22.5000496958
 30
0.0
 40
0.0393700787401627
100
AcDbArc
 50
270.0
 51
0.0
  0
LINE
  5
120
330
1F
100
AcDbEntity
  8
0
  6
CONTINUOUS
 62
     7
100
AcDbLine
 10
74.1207983544
 20
1.1839079433
 30
0.0
 11
88.400330036
 21
1.1839079433
 31
0.0
  0
LINE
  5
121
330
1F
100
AcDbEntity
  8
0
  6
CONTINUOUS
 62
     7
100
AcDbLine
 10
74.1207983544
 20
2.7587109844
 30
0.0
 11
74.1207983544
 21
1.1839079433
 31
0.0
  0
LINE
  5
122
330
1F
100
AcDbEntity
  8
0
  6
CONTINUOUS
 62
     7
100
AcDbLine
 10
74.1207983544
 20
2.7587109844
 30
0.0
 11
88.400330036
 21
2.7587109844
 31
0.0
  0
LINE
  5
123
330
1F
100
AcDbEntity
  8
0
  6
CONTINUOUS
 62
     7
100
AcDbLine
 10
88.400330036
 20
1.1839079433
 30
0.0
 11
88.400330036
 21
2.7587109844
 31
0.0
  0
LINE
  5
124
330
1F
100
AcDbEntity
  8
0
  6
CONTINUOUS
 62
     7
100
AcDbLine
 10
88.400330036
 20
20.9752464921
 30
0.0
 11
74.1207983544
 21
20.9752464921
 31
0.0
  0
LINE
  5
125
330
1F
100
AcDbEntity
  8
0
  6
CONTINUOUS
 62
     7
100
AcDbLine
 10
88.400330036
 20
3.2654041444
 30
0.0
 11
74.1207983544
 21
3.2654041444
 31
0.0
  0
LINE
  5
126
330
1F
100
AcDbEntity
  8
0
  6
CONTINUOUS
 62
     7
100
AcDbLine
 10
74.1207983544
 20
20.9752464921
 30
0.0
 11
74.1207983544
 21
3.2654041444
 31
0.0
  0
LINE
  5
127
330
1F
100
AcDbEntity
  8
0
  6
CONTINUOUS
 62
     7
100
AcDbLine
 10
88.400330036
 20
3.2654041444
 30
0.0
 11
88.400330036
 21
20.9752464921
 31
0.0
  0
LINE
  5
128
330
1F
100
AcDbEntity
  8
0
  6
CONTINUOUS
 62
     7
100
AcDbLine
 10
74.1207983544
 20
2.7587109844
 30
0.0
 11
74.1207983544
 21
3.2654041444
 31
0.0
  0
LINE
  5
129
330
1F
100
AcDbEntity
  8
0
  6
CONTINUOUS
 62
     7
100
AcDbLine
 10
88.400330036
 20
3.2654041444
 30
0.0
 11
88.400330036
 21
2.7587109844
 31
0.0
  0
LINE
  5
12A
330
1F
100
AcDbEntity
  8
0
  6
CONTINUOUS
 62
     7
100
AcDbLine
 10
58.60190307
 20
1.1839079433
 30
0.0
 11
72.8814300583
 21
1.1839079433
 31
0.0
  0
LINE
  5
12B
330
1F
100
AcDbEntity
  8
0
  6
CONTINUOUS
 62
     7
100
AcDbLine
 10
58.60190307
 20
2.7587109844
 30
0.0
 11
58.60190307
 21
1.1839079433
 31
0.0
  0
LINE
  5
12C
330
1F
100
AcDbEntity
  8
0
  6
CONTINUOUS
 62
     7
100
AcDbLine
 10
72.8814300583
 20
2.7587109844
 30
0.0
 11
58.60190307
 21
2.7587109844
 31
0.0
  0
LINE
  5
12D
330
1F
100
AcDbEntity
  8
0
  6
CONTINUOUS
 62
     7
100
AcDbLine
 10
72.8814300583
 20
1.1839079433
 30
0.0
 11
72.8814300583
 21
2.7587109844
 31
0.0
  0
LINE
  5
12E
330
1F
100
AcDbEntity
  8
0
  6
CONTINUOUS
 62
     7
100
AcDbLine
 10
72.8814300583
 20
20.9752464921
 30
0.0
 11
58.60190307
 21
20.9752464921
 31
0.0
  0
LINE
  5
12F
330
1F
100
AcDbEntity
  8
0
  6
CONTINUOUS
 62
     7
100
AcDbLine
 10
58.60190307
 20
3.2654041444
 30
0.0
 11
72.8814300583
 21
3.2654041444
 31
0.0
  0
LINE
  5
130
330
1F
100
AcDbEntity
  8
0
  6
CONTINUOUS
 62
     7
100
AcDbLine
 10
58.60190307
 20
20.9752464921
 30
0.0
 11
58.60190307
 21
3.2654041444
 31
0.0
  0
LINE
  5
131
330
1F
100
AcDbEntity
  8
0
  6
CONTINUOUS
 62
     7
100
AcDbLine
 10
72.8814300583
 20
3.2654041444
 30
0.0
 11
72.8814300583
 21
20.9752464921
 31
0.0
  0
LINE
  5
132
330
1F
100
AcDbEntity
  8
0
  6
CONTINUOUS
 62
     7
100
AcDbLine
 10
58.60190307
 20
2.7587109844
 30
0.0
 11
58.60190307
 21
3.2654041444
 31
0.0
  0
LINE
  5
133
330
1F
100
AcDbEntity
  8
0
  6
CONTINUOUS
 62
     7
100
AcDbLine
 10
72.8814300583
 20
3.2654041444
 30
0.0
 11
72.8814300583
 21
2.7587109844
 31
0.0
  0
ARC
  5
134
330
1F
100
AcDbEntity
  8
0
  6
CONTINUOUS
 62
     7
100
AcDbCircle
 10
40.5731602556
 20
43.4593282236
 30
0.0
 40
0.203543307086615
100
AcDbArc
 50
356.0551715497
 51
24.8879105874
  0
ARC
  5
135
330
1F
100
AcDbEntity
  8
0
  6
CONTINUOUS
 62
     7
100
AcDbCircle
 10
40.7935149634
 20
43.561556966
 30
0.0
 40
0.0393700787401627
100
AcDbArc
 50
180.0
 51
204.8879105873
  0
LINE
  5
136
330
1F
100
AcDbEntity
  8
0
  6
CONTINUOUS
 62
     7
100
AcDbLine
 10
40.7541463688
 20
43.8023235918
 30
0.0
 11
40.7541463688
 21
43.5615583731
 31
0.0
  0
ARC
  5
137
330
1F
100
AcDbEntity
  8
0
  6
CONTINUOUS
 62
     7
100
AcDbCircle
 10
40.7935172043
 20
43.8023219531
 30
0.0
 40
0.0393723196329034
100
AcDbArc
 50
155.1122431696
 51
180.0
  0
ARC
  5
138
330
1F
100
AcDbEntity
  8
0
  6
CONTINUOUS
 62
     7
100
AcDbCircle
 10
40.5731601894
 20
43.9045510472
 30
0.0
 40
0.2035433070866173
100
AcDbArc
 50
335.1122431696
 51
162.3995496328
  0
ARC
  5
139
330
1F
100
AcDbEntity
  8
0
  6
CONTINUOUS
 62
     7
100
AcDbCircle
 10
40.3416179943
 20
43.9780025612
 30
0.0
 40
0.0393700787401597
100
AcDbArc
 50
270.0000788272
 51
342.3995496328
  0
LINE
  5
13A
330
1F
100
AcDbEntity
  8
0
  6
CONTINUOUS
 62
     7
100
AcDbLine
 10
40.1824204934
 20
43.9386304971
 30
0.0
 11
40.341616521
 21
43.9386304971
 31
0.0
  0
ARC
  5
13B
330
1F
100
AcDbEntity
  8
0
  6
CONTINUOUS
 62
     7
100
AcDbCircle
 10
40.1824196982
 20
43.9780023422
 30
0.0
 40
0.0393701391982684
100
AcDbArc
 50
197.6004832045
 51
270.0000788272
  0
ARC
  5
13C
330
1F
100
AcDbEntity
  8
0
  6
CONTINUOUS
 62
     7
100
AcDbCircle
 10
39.9508775452
 20
43.9045506955
 30
0.0
 40
0.2035432466285023
100
AcDbArc
 50
17.6004832045
 51
204.8878047833
  0
ARC
  5
13D
330
1F
100
AcDbEntity
  8
0
  6
CONTINUOUS
 62
     7
100
AcDbCircle
 10
39.7305228374
 20
43.8023224476
 30
0.0
 40
0.0393699915522666
100
AcDbArc
 50
0.0
 51
24.8878047833
  0
LINE
  5
13E
330
1F
100
AcDbEntity
  8
0
  6
CONTINUOUS
 62
     7
100
AcDbLine
 10
39.7698906456
 20
43.5615583731
 30
0.0
 11
39.7698906456
 21
43.8023235918
 31
0.0
  0
ARC
  5
13F
330
1F
100
AcDbEntity
  8
0
  6
CONTINUOUS
 62
     7
100
AcDbCircle
 10
39.7305228374
 20
43.5615564715
 30
0.0
 40
0.0393700787401627
100
AcDbArc
 50
335.1121265345
 51
0.0
  0
ARC
  5
140
330
1F
100
AcDbEntity
  8
0
  6
CONTINUOUS
 62
     7
100
AcDbCircle
 10
39.9508776114
 20
43.4593278719
 30
0.0
 40
0.2035433070866199
100
AcDbArc
 50
155.1121265345
 51
183.9447292075
  0
LINE
  5
141
330
1F
100
AcDbEntity
  8
0
  6
CONTINUOUS
 62
     7
100
AcDbLine
 10
39.747818154
 20
43.4453246225
 30
0.0
 11
24.5341197706
 21
43.4453246225
 31
0.0
  0
ARC
  5
142
330
1F
100
AcDbEntity
  8
0
  6
CONTINUOUS
 62
     7
100
AcDbCircle
 10
24.3310578934
 20
43.4593282236
 30
0.0
 40
0.203543307086615
100
AcDbArc
 50
356.0551715497
 51
24.8879105874
  0
ARC
  5
143
330
1F
100
AcDbEntity
  8
0
  6
CONTINUOUS
 62
     7
100
AcDbCircle
 10
24.5514126012
 20
43.561556966
 30
0.0
 40
0.0393700787401577
100
AcDbArc
 50
180.0
 51
204.8879105874
  0
LINE
  5
144
330
1F
100
AcDbEntity
  8
0
  6
CONTINUOUS
 62
     7
100
AcDbLine
 10
24.5120425856
 20
43.8023235918
 30
0.0
 11
24.5120425856
 21
43.5615583731
 31
0.0
  0
ARC
  5
145
330
1F
100
AcDbEntity
  8
0
  6
CONTINUOUS
 62
     7
100
AcDbCircle
 10
24.5514148421
 20
43.8023219531
 30
0.0
 40
0.0393723196329076
100
AcDbArc
 50
155.1122431696
 51
180.0
  0
ARC
  5
146
330
1F
100
AcDbEntity
  8
0
  6
CONTINUOUS
 62
     7
100
AcDbCircle
 10
24.3310578272
 20
43.9045510472
 30
0.0
 40
0.2035433070866217
100
AcDbArc
 50
335.1122431696
 51
162.3995496328
  0
ARC
  5
147
330
1F
100
AcDbEntity
  8
0
  6
CONTINUOUS
 62
     7
100
AcDbCircle
 10
24.0995156321
 20
43.9780025612
 30
0.0
 40
0.0393700787401574
100
AcDbArc
 50
270.0000788272
 51
342.3995496328
  0
LINE
  5
148
330
1F
100
AcDbEntity
  8
0
  6
CONTINUOUS
 62
     7
100
AcDbLine
 10
23.9403167102
 20
43.9386304971
 30
0.0
 11
24.0995150845
 21
43.9386304971
 31
0.0
  0
ARC
  5
149
330
1F
100
AcDbEntity
  8
0
  6
CONTINUOUS
 62
     7
100
AcDbCircle
 10
23.940317336
 20
43.9780023422
 30
0.0
 40
0.0393701391982696
100
AcDbArc
 50
197.6004832044
 51
270.0000788272
  0
ARC
  5
14A
330
1F
100
AcDbEntity
  8
0
  6
CONTINUOUS
 62
     7
100
AcDbCircle
 10
23.708775183
 20
43.9045506955
 30
0.0
 40
0.2035432466285011
100
AcDbArc
 50
17.6004832045
 51
204.8878047833
  0
ARC
  5
14B
330
1F
100
AcDbEntity
  8
0
  6
CONTINUOUS
 62
     7
100
AcDbCircle
 10
23.4884204752
 20
43.8023224476
 30
0.0
 40
0.0393699915522525
100
AcDbArc
 50
0.0
 51
24.8878047833
  0
LINE
  5
14C
330
1F
100
AcDbEntity
  8
0
  6
CONTINUOUS
 62
     7
100
AcDbLine
 10
23.5277915557
 20
43.5615583731
 30
0.0
 11
23.5277915557
 21
43.8023235918
 31
0.0
  0
ARC
  5
14D
330
1F
100
AcDbEntity
  8
0
  6
CONTINUOUS
 62
     7
100
AcDbCircle
 10
23.4884204752
 20
43.5615564715
 30
0.0
 40
0.0393700787401571
100
AcDbArc
 50
335.1121265345
 51
0.0
  0
ARC
  5
14E
330
1F
100
AcDbEntity
  8
0
  6
CONTINUOUS
 62
     7
100
AcDbCircle
 10
23.7087752492
 20
43.4593278719
 30
0.0
 40
0.2035433070866119
100
AcDbArc
 50
155.1121265345
 51
183.9447292075
  0
LINE
  5
14F
330
1F
100
AcDbEntity
  8
0
  6
CONTINUOUS
 62
     7
100
AcDbLine
 10
23.5057143708
 20
43.4453246225
 30
0.0
 11
22.0522950008
 21
43.4453246225
 31
0.0
  0
LINE
  5
150
330
1F
100
AcDbEntity
  8
0
  6
CONTINUOUS
 62
     7
100
AcDbLine
 10
22.0522950008
 20
44.2862710678
 30
0.0
 11
22.0522950008
 21
43.4453246225
 31
0.0
  0
ARC
  5
151
330
1F
100
AcDbEntity
  8
0
  6
CONTINUOUS
 62
     7
100
AcDbCircle
 10
22.2885149634
 20
44.2862701682
 30
0.0
 40
0.2362204724409445
100
AcDbArc
 50
90.0
 51
180.0
  0
LINE
  5
152
330
1F
100
AcDbEntity
  8
0
  6
CONTINUOUS
 62
     7
100
AcDbLine
 10
41.6074126718
 20
44.522488499
 30
0.0
 11
22.2885147786
 21
44.522488499
 31
0.0
  0
ARC
  5
153
330
1F
100
AcDbEntity
  8
0
  6
CONTINUOUS
 62
     7
100
AcDbCircle
 10
41.6074126012
 20
44.2862701682
 30
0.0
 40
0.2362204724409551
100
AcDbArc
 50
0.0
 51
90.0
  0
LINE
  5
154
330
1F
100
AcDbEntity
  8
0
  6
CONTINUOUS
 62
     7
100
AcDbLine
 10
41.8436347962
 20
43.4453246225
 30
0.0
 11
41.8436347962
 21
44.2862710678
 31
0.0
  0
LINE
  5
155
330
1F
100
AcDbEntity
  8
0
  6
CONTINUOUS
 62
     7
100
AcDbLine
 10
41.8436347962
 20
43.4453246225
 30
0.0
 11
40.7762235537
 21
43.4453246225
 31
0.0
  0
ARC
  5
156
330
1F
100
AcDbEntity
  8
0
  6
CONTINUOUS
 62
     7
100
AcDbCircle
 10
23.708775183
 20
2.2470703806
 30
0.0
 40
0.203543246628506
100
AcDbArc
 50
176.0551703761
 51
204.8878047833
  0
ARC
  5
157
330
1F
100
AcDbEntity
  8
0
  6
CONTINUOUS
 62
     7
100
AcDbCircle
 10
23.4884204752
 20
2.1448421326
 30
0.0
 40
0.0393699915522605
100
AcDbArc
 50
0.0
 51
24.8878047833
  0
LINE
  5
158
330
1F
100
AcDbEntity
  8
0
  6
CONTINUOUS
 62
     7
100
AcDbLine
 10
23.5277915557
 20
1.9040761506
 30
0.0
 11
23.5277915557
 21
2.1448421025
 31
0.0
  0
ARC
  5
159
330
1F
100
AcDbEntity
  8
0
  6
CONTINUOUS
 62
     7
100
AcDbCircle
 10
23.4884204752
 20
1.9040761565
 30
0.0
 40
0.0393700787401627
100
AcDbArc
 50
335.1121265345
 51
0.0
  0
ARC
  5
15A
330
1F
100
AcDbEntity
  8
0
  6
CONTINUOUS
 62
     7
100
AcDbCircle
 10
23.7087752492
 20
1.8018475569
 30
0.0
 40
0.2035433070866168
100
AcDbArc
 50
155.1121265345
 51
342.3995496328
  0
ARC
  5
15B
330
1F
100
AcDbEntity
  8
0
  6
CONTINUOUS
 62
     7
100
AcDbCircle
 10
23.9403174443
 20
1.728396043
 30
0.0
 40
0.0393700787401584
100
AcDbArc
 50
90.0000788272
 51
162.3995496328
  0
LINE
  5
15C
330
1F
100
AcDbEntity
  8
0
  6
CONTINUOUS
 62
     7
100
AcDbLine
 10
24.0995150845
 20
1.7677663119
 30
0.0
 11
23.9403167102
 21
1.7677661652
 31
0.0
  0
ARC
  5
15D
330
1F
100
AcDbEntity
  8
0
  6
CONTINUOUS
 62
     7
100
AcDbCircle
 10
24.0995157404
 20
1.728396262
 30
0.0
 40
0.0393700787401613
100
AcDbArc
 50
17.6004832045
 51
90.0000788272
  0
ARC
  5
15E
330
1F
100
AcDbEntity
  8
0
  6
CONTINUOUS
 62
     7
100
AcDbCircle
 10
24.3310578934
 20
1.8018479086
 30
0.0
 40
0.2035433070866131
100
AcDbArc
 50
197.6004832045
 51
24.8879105874
  0
ARC
  5
15F
330
1F
100
AcDbEntity
  8
0
  6
CONTINUOUS
 62
     7
100
AcDbCircle
 10
24.5514126012
 20
1.904076651
 30
0.0
 40
0.0393700787401627
100
AcDbArc
 50
180.0
 51
204.8879105874
  0
LINE
  5
160
330
1F
100
AcDbEntity
  8
0
  6
CONTINUOUS
 62
     7
100
AcDbLine
 10
24.5120425856
 20
2.1448416625
 30
0.0
 11
24.5120425856
 21
1.9040765905
 31
0.0
  0
ARC
  5
161
330
1F
100
AcDbEntity
  8
0
  6
CONTINUOUS
 62
     7
100
AcDbCircle
 10
24.5514148421
 20
2.1448416382
 30
0.0
 40
0.0393723196328999
100
AcDbArc
 50
155.1122431696
 51
180.0
  0
ARC
  5
162
330
1F
100
AcDbEntity
  8
0
  6
CONTINUOUS
 62
     7
100
AcDbCircle
 10
24.3310578272
 20
2.2470707323
 30
0.0
 40
0.2035433070866185
100
AcDbArc
 50
335.1122431696
 51
3.9447292074
  0
LINE
  5
163
330
1F
100
AcDbEntity
  8
0
  6
CONTINUOUS
 62
     7
100
AcDbLine
 10
24.5341197706
 20
2.2610733598
 30
0.0
 11
39.747818154
 21
2.2610733598
 31
0.0
  0
ARC
  5
164
330
1F
100
AcDbEntity
  8
0
  6
CONTINUOUS
 62
     7
100
AcDbCircle
 10
39.9508775452
 20
2.2470703806
 30
0.0
 40
0.2035432466285031
100
AcDbArc
 50
176.0551703761
 51
204.8878047833
  0
ARC
  5
165
330
1F
100
AcDbEntity
  8
0
  6
CONTINUOUS
 62
     7
100
AcDbCircle
 10
39.7305228374
 20
2.1448421326
 30
0.0
 40
0.0393699915522637
100
AcDbArc
 50
0.0
 51
24.8878047833
  0
LINE
  5
166
330
1F
100
AcDbEntity
  8
0
  6
CONTINUOUS
 62
     7
100
AcDbLine
 10
39.7698906456
 20
1.9040761506
 30
0.0
 11
39.7698906456
 21
2.1448421025
 31
0.0
  0
ARC
  5
167
330
1F
100
AcDbEntity
  8
0
  6
CONTINUOUS
 62
     7
100
AcDbCircle
 10
39.7305228374
 20
1.9040761565
 30
0.0
 40
0.039370078740159
100
AcDbArc
 50
335.1121265345
 51
0.0
  0
ARC
  5
168
330
1F
100
AcDbEntity
  8
0
  6
CONTINUOUS
 62
     7
100
AcDbCircle
 10
39.9508776114
 20
1.8018475569
 30
0.0
 40
0.2035433070866168
100
AcDbArc
 50
155.1121265345
 51
342.3995496328
  0
ARC
  5
169
330
1F
100
AcDbEntity
  8
0
  6
CONTINUOUS
 62
     7
100
AcDbCircle
 10
40.1824198065
 20
1.728396043
 30
0.0
 40
0.0393700787401598
100
AcDbArc
 50
90.0000788272
 51
162.3995496328
  0
LINE
  5
16A
330
1F
100
AcDbEntity
  8
0
  6
CONTINUOUS
 62
     7
100
AcDbLine
 10
40.341616521
 20
1.7677663119
 30
0.0
 11
40.1824204934
 21
1.7677661652
 31
0.0
  0
ARC
  5
16B
330
1F
100
AcDbEntity
  8
0
  6
CONTINUOUS
 62
     7
100
AcDbCircle
 10
40.3416181026
 20
1.728396262
 30
0.0
 40
0.0393700787401627
100
AcDbArc
 50
17.6004832045
 51
90.0000788272
  0
ARC
  5
16C
330
1F
100
AcDbEntity
  8
0
  6
CONTINUOUS
 62
     7
100
AcDbCircle
 10
40.5731602556
 20
1.8018479086
 30
0.0
 40
0.2035433070866152
100
AcDbArc
 50
197.6004832045
 51
24.8879105874
  0
ARC
  5
16D
330
1F
100
AcDbEntity
  8
0
  6
CONTINUOUS
 62
     7
100
AcDbCircle
 10
40.7935149634
 20
1.904076651
 30
0.0
 40
0.0393700787401575
100
AcDbArc
 50
180.0
 51
204.8879105874
  0
LINE
  5
16E
330
1F
100
AcDbEntity
  8
0
  6
CONTINUOUS
 62
     7
100
AcDbLine
 10
40.7541463688
 20
2.1448416625
 30
0.0
 11
40.7541463688
 21
1.9040765905
 31
0.0
  0
ARC
  5
16F
330
1F
100
AcDbEntity
  8
0
  6
CONTINUOUS
 62
     7
100
AcDbCircle
 10
40.7935172043
 20
2.1448416382
 30
0.0
 40
0.0393723196329034
100
AcDbArc
 50
155.1122431696
 51
180.0
  0
ARC
  5
170
330
1F
100
AcDbEntity
  8
0
  6
CONTINUOUS
 62
     7
100
AcDbCircle
 10
40.5731601894
 20
2.2470707323
 30
0.0
 40
0.2035433070866227
100
AcDbArc
 50
335.1122431696
 51
3.9447292074
  0
LINE
  5
171
330
1F
100
AcDbEntity
  8
0
  6
CONTINUOUS
 62
     7
100
AcDbLine
 10
40.7762235537
 20
2.2610733598
 30
0.0
 11
41.8436347962
 21
2.2610733598
 31
0.0
  0
LINE
  5
172
330
1F
100
AcDbEntity
  8
0
  6
CONTINUOUS
 62
     7
100
AcDbLine
 10
41.8436347962
 20
1.4201283812
 30
0.0
 11
41.8436347962
 21
2.2610733598
 31
0.0
  0
ARC
  5
173
330
1F
100
AcDbEntity
  8
0
  6
CONTINUOUS
 62
     7
100
AcDbCircle
 10
41.6074126012
 20
1.4201284359
 30
0.0
 40
0.236220472440948
100
AcDbArc
 50
270.0
 51
0.0
  0
LINE
  5
174
330
1F
100
AcDbEntity
  8
0
  6
CONTINUOUS
 62
     7
100
AcDbLine
 10
22.2885147786
 20
1.1839079433
 30
0.0
 11
41.6074126718
 21
1.1839079433
 31
0.0
  0
ARC
  5
175
330
1F
100
AcDbEntity
  8
0
  6
CONTINUOUS
 62
     7
100
AcDbCircle
 10
22.2885149634
 20
1.4201284359
 30
0.0
 40
0.2362204724409451
100
AcDbArc
 50
180.0
 51
270.0
  0
LINE
  5
176
330
1F
100
AcDbEntity
  8
0
  6
CONTINUOUS
 62
     7
100
AcDbLine
 10
22.0522950008
 20
2.2610733598
 30
0.0
 11
22.0522950008
 21
1.4201283812
 31
0.0
  0
LINE
  5
177
330
1F
100
AcDbEntity
  8
0
  6
CONTINUOUS
 62
     7
100
AcDbLine
 10
22.0522950008
 20
2.2610733598
 30
0.0
 11
23.5057143708
 21
2.2610733598
 31
0.0
  0
LINE
  5
178
330
1F
100
AcDbEntity
  8
0
  6
CONTINUOUS
 62
     7
100
AcDbLine
 10
41.8436347962
 20
2.7878451012
 30
0.0
 11
40.2688284552
 21
2.7878451012
 31
0.0
  0
LINE
  5
179
330
1F
100
AcDbEntity
  8
0
  6
CONTINUOUS
 62
     7
100
AcDbLine
 10
40.2688284552
 20
2.7878451012
 30
0.0
 11
40.2688284552
 21
42.9185556678
 31
0.0
  0
LINE
  5
17A
330
1F
100
AcDbEntity
  8
0
  6
CONTINUOUS
 62
     7
100
AcDbLine
 10
40.2688284552
 20
42.9185556678
 30
0.0
 11
41.8436347962
 21
42.9185556678
 31
0.0
  0
LINE
  5
17B
330
1F
100
AcDbEntity
  8
0
  6
CONTINUOUS
 62
     7
100
AcDbLine
 10
41.8436347962
 20
2.7878451012
 30
0.0
 11
41.8436347962
 21
42.9185556678
 31
0.0
  0
LINE
  5
17C
330
1F
100
AcDbEntity
  8
0
  6
CONTINUOUS
 62
     7
100
AcDbLine
 10
22.0522950008
 20
42.9185556678
 30
0.0
 11
22.0522950008
 21
2.7878451012
 31
0.0
  0
LINE
  5
17D
330
1F
100
AcDbEntity
  8
0
  6
CONTINUOUS
 62
     7
100
AcDbLine
 10
22.0522950008
 20
42.9185556678
 30
0.0
 11
39.7554447325
 21
42.9185556678
 31
0.0
  0
LINE
  5
17E
330
1F
100
AcDbEntity
  8
0
  6
CONTINUOUS
 62
     7
100
AcDbLine
 10
39.7554447325
 20
2.7878451012
 30
0.0
 11
22.0522950008
 21
2.7878451012
 31
0.0
  0
LINE
  5
17F
330
1F
100
AcDbEntity
  8
0
  6
CONTINUOUS
 62
     7
100
AcDbLine
 10
39.7554447325
 20
42.9185556678
 30
0.0
 11
39.7554447325
 21
2.7878451012
 31
0.0
  0
ARC
  5
180
330
1F
100
AcDbEntity
  8
0
  6
CONTINUOUS
 62
     7
100
AcDbCircle
 10
40.3416179943
 20
2.3205222462
 30
0.0
 40
0.0393700787401583
100
AcDbArc
 50
270.0000788272
 51
342.3995496328
  0
LINE
  5
181
330
1F
100
AcDbEntity
  8
0
  6
CONTINUOUS
 62
     7
100
AcDbLine
 10
40.341616521
 20
2.2811522345
 30
0.0
 11
40.1824204934
 21
2.2811519412
 31
0.0
  0
ARC
  5
182
330
1F
100
AcDbEntity
  8
0
  6
CONTINUOUS
 62
     7
100
AcDbCircle
 10
40.1824196982
 20
2.3205220272
 30
0.0
 40
0.0393700787401596
100
AcDbArc
 50
197.6004832045
 51
270.0000788272
  0
ARC
  5
183
330
1F
100
AcDbEntity
  8
0
  6
CONTINUOUS
 62
     7
100
AcDbCircle
 10
24.0995156321
 20
2.3205222462
 30
0.0
 40
0.0393700787401596
100
AcDbArc
 50
270.0000788272
 51
342.3995496328
  0
LINE
  5
184
330
1F
100
AcDbEntity
  8
0
  6
CONTINUOUS
 62
     7
100
AcDbLine
 10
24.0995150845
 20
2.2811522345
 30
0.0
 11
23.9403167102
 21
2.2811519412
 31
0.0
  0
ARC
  5
185
330
1F
100
AcDbEntity
  8
0
  6
CONTINUOUS
 62
     7
100
AcDbCircle
 10
23.940317336
 20
2.3205220272
 30
0.0
 40
0.0393700787401551
100
AcDbArc
 50
197.6004832045
 51
270.0000788272
  0
ARC
  5
186
330
1F
100
AcDbEntity
  8
0
  6
CONTINUOUS
 62
     7
100
AcDbCircle
 10
23.9403174443
 20
43.3858763579
 30
0.0
 40
0.0393700787401575
100
AcDbArc
 50
90.0000788272
 51
162.3995496328
  0
LINE
  5
187
330
1F
100
AcDbEntity
  8
0
  6
CONTINUOUS
 62
     7
100
AcDbLine
 10
23.9403167102
 20
43.4252467744
 30
0.0
 11
24.0995150845
 21
43.4252467744
 31
0.0
  0
ARC
  5
188
330
1F
100
AcDbEntity
  8
0
  6
CONTINUOUS
 62
     7
100
AcDbCircle
 10
24.0995157404
 20
43.3858765769
 30
0.0
 40
0.0393700787401645
100
AcDbArc
 50
17.6004832045
 51
90.0000788272
  0
ARC
  5
189
330
1F
100
AcDbEntity
  8
0
  6
CONTINUOUS
 62
     7
100
AcDbCircle
 10
40.1824198065
 20
43.3858763579
 30
0.0
 40
0.0393700787401575
100
AcDbArc
 50
90.0000788272
 51
162.3995496328
  0
LINE
  5
18A
330
1F
100
AcDbEntity
  8
0
  6
CONTINUOUS
 62
     7
100
AcDbLine
 10
40.1824204934
 20
43.4252467744
 30
0.0
 11
40.341616521
 21
43.4252467744
 31
0.0
  0
ARC
  5
18B
330
1F
100
AcDbEntity
  8
0
  6
CONTINUOUS
 62
     7
100
AcDbCircle
 10
40.3416181026
 20
43.3858765769
 30
0.0
 40
0.0393700787401645
100
AcDbArc
 50
17.6004832045
 51
90.0000788272
  0
LINE
  5
18C
330
1F
100
AcDbEntity
  8
0
  6
CONTINUOUS
 62
     7
100
AcDbLine
 10
22.0522950008
 20
42.9185556678
 30
0.0
 11
22.0522950008
 21
43.4453246225
 31
0.0
  0
LINE
  5
18D
330
1F
100
AcDbEntity
  8
0
  6
CONTINUOUS
 62
     7
100
AcDbLine
 10
22.0522950008
 20
2.2610733598
 30
0.0
 11
22.0522950008
 21
2.7878451012
 31
0.0
  0
ARC
  5
18E
330
1F
100
AcDbEntity
  8
0
  6
CONTINUOUS
 62
     7
100
AcDbCircle
 10
39.9508775452
 20
2.2470703806
 30
0.0
 40
0.2035433070866178
100
AcDbArc
 50
17.6004832045
 51
176.0551703761
  0
ARC
  5
18F
330
1F
100
AcDbEntity
  8
0
  6
CONTINUOUS
 62
     7
100
AcDbCircle
 10
40.5731601894
 20
2.2470707323
 30
0.0
 40
0.2035433070866227
100
AcDbArc
 50
3.9447292074
 51
162.3995496328
  0
ARC
  5
190
330
1F
100
AcDbEntity
  8
0
  6
CONTINUOUS
 62
     7
100
AcDbCircle
 10
39.9508776114
 20
43.4593278719
 30
0.0
 40
0.203543307086615
100
AcDbArc
 50
183.9447292075
 51
342.3995496328
  0
ARC
  5
191
330
1F
100
AcDbEntity
  8
0
  6
CONTINUOUS
 62
     7
100
AcDbCircle
 10
40.5731602556
 20
43.4593282236
 30
0.0
 40
0.2035433070866221
100
AcDbArc
 50
197.6004832045
 51
356.0551715497
  0
LINE
  5
192
330
1F
100
AcDbEntity
  8
0
  6
CONTINUOUS
 62
     7
100
AcDbLine
 10
41.8436347962
 20
43.4453246225
 30
0.0
 11
41.8436347962
 21
42.9185556678
 31
0.0
  0
LINE
  5
193
330
1F
100
AcDbEntity
  8
0
  6
CONTINUOUS
 62
     7
100
AcDbLine
 10
41.8436347962
 20
2.7878451012
 30
0.0
 11
41.8436347962
 21
2.2610733598
 31
0.0
  0
ARC
  5
194
330
1F
100
AcDbEntity
  8
0
  6
CONTINUOUS
 62
     7
100
AcDbCircle
 10
24.3310578272
 20
2.2470707323
 30
0.0
 40
0.2035433070866185
100
AcDbArc
 50
3.9447292074
 51
162.3995496328
  0
ARC
  5
195
330
1F
100
AcDbEntity
  8
0
  6
CONTINUOUS
 62
     7
100
AcDbCircle
 10
24.3310578934
 20
43.4593282236
 30
0.0
 40
0.2035433070866119
100
AcDbArc
 50
197.6004832045
 51
356.0551715497
  0
ARC
  5
196
330
1F
100
AcDbEntity
  8
0
  6
CONTINUOUS
 62
     7
100
AcDbCircle
 10
23.708775183
 20
2.2470703806
 30
0.0
 40
0.2035433070866165
100
AcDbArc
 50
17.6004832045
 51
176.0551703761
  0
ARC
  5
197
330
1F
100
AcDbEntity
  8
0
  6
CONTINUOUS
 62
     7
100
AcDbCircle
 10
23.7087752492
 20
43.4593278719
 30
0.0
 40
0.2035433070866154
100
AcDbArc
 50
183.9447292075
 51
342.3995496328
  0
LINE
  5
198
330
1F
100
AcDbEntity
  8
0
  6
CONTINUOUS
 62
     7
100
AcDbLine
 10
19.238121537
 20
2.7878451012
 30
0.0
 11
20.8129243581
 21
2.7878451012
 31
0.0
  0
LINE
  5
199
330
1F
100
AcDbEntity
  8
0
  6
CONTINUOUS
 62
     7
100
AcDbLine
 10
19.238121537
 20
42.9185556678
 30
0.0
 11
19.238121537
 21
2.7878451012
 31
0.0
  0
LINE
  5
19A
330
1F
100
AcDbEntity
  8
0
  6
CONTINUOUS
 62
     7
100
AcDbLine
 10
20.8129243581
 20
42.9185556678
 30
0.0
 11
19.238121537
 21
42.9185556678
 31
0.0
  0
LINE
  5
19B
330
1F
100
AcDbEntity
  8
0
  6
CONTINUOUS
 62
     7
100
AcDbLine
 10
20.8129243581
 20
42.9185556678
 30
0.0
 11
20.8129243581
 21
2.7878451012
 31
0.0
  0
ARC
  5
19C
330
1F
100
AcDbEntity
  8
0
  6
CONTINUOUS
 62
     7
100
AcDbCircle
 10
20.5767039398
 20
1.4201284359
 30
0.0
 40
0.2362204724409451
100
AcDbArc
 50
270.0
 51
0.0
  0
LINE
  5
19D
330
1F
100
AcDbEntity
  8
0
  6
CONTINUOUS
 62
     7
100
AcDbLine
 10
20.5767045803
 20
1.1839079433
 30
0.0
 11
1.2578062472
 21
1.1839079433
 31
0.0
  0
ARC
  5
19E
330
1F
100
AcDbEntity
  8
0
  6
CONTINUOUS
 62
     7
100
AcDbCircle
 10
1.257806302
 20
1.4201284359
 30
0.0
 40
0.2362204724409538
100
AcDbArc
 50
180.0
 51
270.0
  0
LINE
  5
19F
330
1F
100
AcDbEntity
  8
0
  6
CONTINUOUS
 62
     7
100
AcDbLine
 10
1.0215858094
 20
1.4201283812
 30
0.0
 11
1.0215858094
 21
2.2610733598
 31
0.0
  0
LINE
  5
1A0
330
1F
100
AcDbEntity
  8
0
  6
CONTINUOUS
 62
     7
100
AcDbLine
 10
2.4693127451
 20
2.2610733598
 30
0.0
 11
1.0215858094
 21
2.2610733598
 31
0.0
  0
ARC
  5
1A1
330
1F
100
AcDbEntity
  8
0
  6
CONTINUOUS
 62
     7
100
AcDbCircle
 10
2.6723736082
 20
2.2470703806
 30
0.0
 40
0.2035432466285081
100
AcDbArc
 50
176.0551703761
 51
204.8878047833
  0
ARC
  5
1A2
330
1F
100
AcDbEntity
  8
0
  6
CONTINUOUS
 62
     7
100
AcDbCircle
 10
2.4520189004
 20
2.1448421326
 30
0.0
 40
0.0393699915522583
100
AcDbArc
 50
0.0
 51
24.8878047833
  0
LINE
  5
1A3
330
1F
100
AcDbEntity
  8
0
  6
CONTINUOUS
 62
     7
100
AcDbLine
 10
2.4913890501
 20
1.9040761506
 30
0.0
 11
2.4913887567
 21
2.1448421025
 31
0.0
  0
ARC
  5
1A4
330
1F
100
AcDbEntity
  8
0
  6
CONTINUOUS
 62
     7
100
AcDbCircle
 10
2.4520189004
 20
1.9040761565
 30
0.0
 40
0.0393700787401574
100
AcDbArc
 50
335.1121265345
 51
0.0
  0
ARC
  5
1A5
330
1F
100
AcDbEntity
  8
0
  6
CONTINUOUS
 62
     7
100
AcDbCircle
 10
2.6723736744
 20
1.8018475569
 30
0.0
 40
0.2035433070866179
100
AcDbArc
 50
155.1121265345
 51
342.3995496328
  0
ARC
  5
1A6
330
1F
100
AcDbEntity
  8
0
  6
CONTINUOUS
 62
     7
100
AcDbCircle
 10
2.9039158695
 20
1.728396043
 30
0.0
 40
0.0393700787401559
100
AcDbArc
 50
90.0000788272
 51
162.3995496328
  0
LINE
  5
1A7
330
1F
100
AcDbEntity
  8
0
  6
CONTINUOUS
 62
     7
100
AcDbLine
 10
3.0631140454
 20
1.7677663119
 30
0.0
 11
2.9039156712
 21
1.7677661652
 31
0.0
  0
ARC
  5
1A8
330
1F
100
AcDbEntity
  8
0
  6
CONTINUOUS
 62
     7
100
AcDbCircle
 10
3.0631141656
 20
1.728396262
 30
0.0
 40
0.0393700787401643
100
AcDbArc
 50
17.6004832045
 51
90.0000788272
  0
ARC
  5
1A9
330
1F
100
AcDbEntity
  8
0
  6
CONTINUOUS
 62
     7
100
AcDbCircle
 10
3.2946563186
 20
1.8018479086
 30
0.0
 40
0.2035433070866186
100
AcDbArc
 50
197.6004832045
 51
24.8879105874
  0
ARC
  5
1AA
330
1F
100
AcDbEntity
  8
0
  6
CONTINUOUS
 62
     7
100
AcDbCircle
 10
3.5150110264
 20
1.904076651
 30
0.0
 40
0.0393700787401593
100
AcDbArc
 50
180.0
 51
204.8879105874
  0
LINE
  5
1AB
330
1F
100
AcDbEntity
  8
0
  6
CONTINUOUS
 62
     7
100
AcDbLine
 10
3.4756409599
 20
2.1448416625
 30
0.0
 11
3.4756409599
 21
1.9040765905
 31
0.0
  0
ARC
  5
1AC
330
1F
100
AcDbEntity
  8
0
  6
CONTINUOUS
 62
     7
100
AcDbCircle
 10
3.5150132673
 20
2.1448416382
 30
0.0
 40
0.0393723196329004
100
AcDbArc
 50
155.1122431696
 51
180.0
  0
ARC
  5
1AD
330
1F
100
AcDbEntity
  8
0
  6
CONTINUOUS
 62
     7
100
AcDbCircle
 10
3.2946562524
 20
2.2470707323
 30
0.0
 40
0.2035433070866154
100
AcDbArc
 50
335.1122431696
 51
3.9447292074
  0
LINE
  5
1AE
330
1F
100
AcDbEntity
  8
0
  6
CONTINUOUS
 62
     7
100
AcDbLine
 10
18.7171077158
 20
2.2610733598
 30
0.0
 11
3.4977172649
 21
2.2610733598
 31
0.0
  0
ARC
  5
1AF
330
1F
100
AcDbEntity
  8
0
  6
CONTINUOUS
 62
     7
100
AcDbCircle
 10
18.9201688838
 20
2.2470703806
 30
0.0
 40
0.2035432466285043
100
AcDbArc
 50
176.0551703761
 51
204.8878047833
  0
ARC
  5
1B0
330
1F
100
AcDbEntity
  8
0
  6
CONTINUOUS
 62
     7
100
AcDbCircle
 10
18.699814176
 20
2.1448421326
 30
0.0
 40
0.0393699915522622
100
AcDbArc
 50
0.0
 51
24.8878047833
  0
LINE
  5
1B1
330
1F
100
AcDbEntity
  8
0
  6
CONTINUOUS
 62
     7
100
AcDbLine
 10
18.7391837275
 20
1.9040761506
 30
0.0
 11
18.7391837275
 21
2.1448421025
 31
0.0
  0
ARC
  5
1B2
330
1F
100
AcDbEntity
  8
0
  6
CONTINUOUS
 62
     7
100
AcDbCircle
 10
18.699814176
 20
1.9040761565
 30
0.0
 40
0.0393700787401627
100
AcDbArc
 50
335.1121265345
 51
0.0
  0
ARC
  5
1B3
330
1F
100
AcDbEntity
  8
0
  6
CONTINUOUS
 62
     7
100
AcDbCircle
 10
18.92016895
 20
1.8018475569
 30
0.0
 40
0.2035433070866151
100
AcDbArc
 50
155.1121265345
 51
342.3995496328
  0
ARC
  5
1B4
330
1F
100
AcDbEntity
  8
0
  6
CONTINUOUS
 62
     7
100
AcDbCircle
 10
19.1517111451
 20
1.728396043
 30
0.0
 40
0.0393700787401605
100
AcDbArc
 50
90.0000788272
 51
162.3995496328
  0
LINE
  5
1B5
330
1F
100
AcDbEntity
  8
0
  6
CONTINUOUS
 62
     7
100
AcDbLine
 10
19.3109096029
 20
1.7677663119
 30
0.0
 11
19.1517112286
 21
1.7677661652
 31
0.0
  0
ARC
  5
1B6
330
1F
100
AcDbEntity
  8
0
  6
CONTINUOUS
 62
     7
100
AcDbCircle
 10
19.3109094412
 20
1.728396262
 30
0.0
 40
0.039370078740164
100
AcDbArc
 50
17.6004832045
 51
90.0000788272
  0
ARC
  5
1B7
330
1F
100
AcDbEntity
  8
0
  6
CONTINUOUS
 62
     7
100
AcDbCircle
 10
19.5424515942
 20
1.8018479086
 30
0.0
 40
0.2035433070866144
100
AcDbArc
 50
197.6004832045
 51
24.8879105874
  0
ARC
  5
1B8
330
1F
100
AcDbEntity
  8
0
  6
CONTINUOUS
 62
     7
100
AcDbCircle
 10
19.762806302
 20
1.904076651
 30
0.0
 40
0.0393700787401557
100
AcDbArc
 50
180.0
 51
204.8879105874
  0
LINE
  5
1B9
330
1F
100
AcDbEntity
  8
0
  6
CONTINUOUS
 62
     7
100
AcDbLine
 10
19.7234359307
 20
2.1448416625
 30
0.0
 11
19.7234359307
 21
1.9040765905
 31
0.0
  0
ARC
  5
1BA
330
1F
100
AcDbEntity
  8
0
  6
CONTINUOUS
 62
     7
100
AcDbCircle
 10
19.7628085428
 20
2.1448416382
 30
0.0
 40
0.039372319632905
100
AcDbArc
 50
155.1122431696
 51
180.0
  0
ARC
  5
1BB
330
1F
100
AcDbEntity
  8
0
  6
CONTINUOUS
 62
     7
100
AcDbCircle
 10
19.5424515279
 20
2.2470707323
 30
0.0
 40
0.2035433070866168
100
AcDbArc
 50
335.1122431696
 51
3.9447292074
  0
LINE
  5
1BC
330
1F
100
AcDbEntity
  8
0
  6
CONTINUOUS
 62
     7
100
AcDbLine
 10
20.8129243581
 20
2.2610733598
 30
0.0
 11
20.8129243581
 21
1.4201283812
 31
0.0
  0
LINE
  5
1BD
330
1F
100
AcDbEntity
  8
0
  6
CONTINUOUS
 62
     7
100
AcDbLine
 10
20.8129243581
 20
2.2610733598
 30
0.0
 11
19.7455131156
 21
2.2610733598
 31
0.0
  0
ARC
  5
1BE
330
1F
100
AcDbEntity
  8
0
  6
CONTINUOUS
 62
     7
100
AcDbCircle
 10
1.257806302
 20
44.2862701682
 30
0.0
 40
0.2362204724409451
100
AcDbArc
 50
90.0
 51
180.0
  0
LINE
  5
1BF
330
1F
100
AcDbEntity
  8
0
  6
CONTINUOUS
 62
     7
100
AcDbLine
 10
1.2578062472
 20
44.522488499
 30
0.0
 11
20.5767045803
 21
44.522488499
 31
0.0
  0
LINE
  5
1C0
330
1F
100
AcDbEntity
  8
0
  6
CONTINUOUS
 62
     7
100
AcDbLine
 10
20.8129243581
 20
44.2862710678
 30
0.0
 11
20.8129243581
 21
43.4453246225
 31
0.0
  0
LINE
  5
1C1
330
1F
100
AcDbEntity
  8
0
  6
CONTINUOUS
 62
     7
100
AcDbLine
 10
19.7455131156
 20
43.4453246225
 30
0.0
 11
20.8129243581
 21
43.4453246225
 31
0.0
  0
ARC
  5
1C2
330
1F
100
AcDbEntity
  8
0
  6
CONTINUOUS
 62
     7
100
AcDbCircle
 10
19.5424515942
 20
43.4593282236
 30
0.0
 40
0.2035433070866118
100
AcDbArc
 50
356.0551715497
 51
24.8879105874
  0
ARC
  5
1C3
330
1F
100
AcDbEntity
  8
0
  6
CONTINUOUS
 62
     7
100
AcDbCircle
 10
19.762806302
 20
43.561556966
 30
0.0
 40
0.0393700787401592
100
AcDbArc
 50
180.0
 51
204.8879105874
  0
LINE
  5
1C4
330
1F
100
AcDbEntity
  8
0
  6
CONTINUOUS
 62
     7
100
AcDbLine
 10
19.7234359307
 20
43.8023235918
 30
0.0
 11
19.7234359307
 21
43.5615583731
 31
0.0
  0
ARC
  5
1C5
330
1F
100
AcDbEntity
  8
0
  6
CONTINUOUS
 62
     7
100
AcDbCircle
 10
19.7628085428
 20
43.8023219531
 30
0.0
 40
0.0393723196329076
100
AcDbArc
 50
155.1122431696
 51
180.0
  0
ARC
  5
1C6
330
1F
100
AcDbEntity
  8
0
  6
CONTINUOUS
 62
     7
100
AcDbCircle
 10
19.5424515279
 20
43.9045510472
 30
0.0
 40
0.203543307086615
100
AcDbArc
 50
335.1122431696
 51
162.3995496328
  0
ARC
  5
1C7
330
1F
100
AcDbEntity
  8
0
  6
CONTINUOUS
 62
     7
100
AcDbCircle
 10
19.3109093328
 20
43.9780025612
 30
0.0
 40
0.0393700787401575
100
AcDbArc
 50
270.0000788272
 51
342.3995496328
  0
LINE
  5
1C8
330
1F
100
AcDbEntity
  8
0
  6
CONTINUOUS
 62
     7
100
AcDbLine
 10
19.1517112286
 20
43.9386304971
 30
0.0
 11
19.3109096029
 21
43.9386304971
 31
0.0
  0
ARC
  5
1C9
330
1F
100
AcDbEntity
  8
0
  6
CONTINUOUS
 62
     7
100
AcDbCircle
 10
19.1517110368
 20
43.9780023422
 30
0.0
 40
0.0393701391982705
100
AcDbArc
 50
197.6004832045
 51
270.0000788272
  0
ARC
  5
1CA
330
1F
100
AcDbEntity
  8
0
  6
CONTINUOUS
 62
     7
100
AcDbCircle
 10
18.9201688838
 20
43.9045506955
 30
0.0
 40
0.2035432466285002
100
AcDbArc
 50
17.6004832045
 51
204.8878047833
  0
ARC
  5
1CB
330
1F
100
AcDbEntity
  8
0
  6
CONTINUOUS
 62
     7
100
AcDbCircle
 10
18.699814176
 20
43.8023224476
 30
0.0
 40
0.0393699915522561
100
AcDbArc
 50
0.0
 51
24.8878047833
  0
LINE
  5
1CC
330
1F
100
AcDbEntity
  8
0
  6
CONTINUOUS
 62
     7
100
AcDbLine
 10
18.7391837275
 20
43.5615583731
 30
0.0
 11
18.7391837275
 21
43.8023235918
 31
0.0
  0
ARC
  5
1CD
330
1F
100
AcDbEntity
  8
0
  6
CONTINUOUS
 62
     7
100
AcDbCircle
 10
18.699814176
 20
43.5615564715
 30
0.0
 40
0.0393700787401521
100
AcDbArc
 50
335.1121265346
 51
0.0
  0
ARC
  5
1CE
330
1F
100
AcDbEntity
  8
0
  6
CONTINUOUS
 62
     7
100
AcDbCircle
 10
18.92016895
 20
43.4593278719
 30
0.0
 40
0.2035433070866164
100
AcDbArc
 50
155.1121265345
 51
183.9447292074
  0
LINE
  5
1CF
330
1F
100
AcDbEntity
  8
0
  6
CONTINUOUS
 62
     7
100
AcDbLine
 10
3.4977172649
 20
43.4453246225
 30
0.0
 11
18.7171077158
 21
43.4453246225
 31
0.0
  0
ARC
  5
1D0
330
1F
100
AcDbEntity
  8
0
  6
CONTINUOUS
 62
     7
100
AcDbCircle
 10
3.2946563186
 20
43.4593282236
 30
0.0
 40
0.2035433070866131
100
AcDbArc
 50
356.0551715497
 51
24.8879105874
  0
ARC
  5
1D1
330
1F
100
AcDbEntity
  8
0
  6
CONTINUOUS
 62
     7
100
AcDbCircle
 10
3.5150110264
 20
43.561556966
 30
0.0
 40
0.0393700787401619
100
AcDbArc
 50
180.0
 51
204.8879105874
  0
LINE
  5
1D2
330
1F
100
AcDbEntity
  8
0
  6
CONTINUOUS
 62
     7
100
AcDbLine
 10
3.4756409599
 20
43.8023235918
 30
0.0
 11
3.4756409599
 21
43.5615583731
 31
0.0
  0
ARC
  5
1D3
330
1F
100
AcDbEntity
  8
0
  6
CONTINUOUS
 62
     7
100
AcDbCircle
 10
3.5150132673
 20
43.8023219531
 30
0.0
 40
0.0393723196329032
100
AcDbArc
 50
155.1122431696
 51
180.0
  0
ARC
  5
1D4
330
1F
100
AcDbEntity
  8
0
  6
CONTINUOUS
 62
     7
100
AcDbCircle
 10
3.2946562524
 20
43.9045510472
 30
0.0
 40
0.2035433070866133
100
AcDbArc
 50
335.1122431696
 51
162.3995496328
  0
ARC
  5
1D5
330
1F
100
AcDbEntity
  8
0
  6
CONTINUOUS
 62
     7
100
AcDbCircle
 10
3.0631140572
 20
43.9780025612
 30
0.0
 40
0.0393700787401574
100
AcDbArc
 50
270.0000788272
 51
342.3995496328
  0
LINE
  5
1D6
330
1F
100
AcDbEntity
  8
0
  6
CONTINUOUS
 62
     7
100
AcDbLine
 10
2.9039156712
 20
43.9386304971
 30
0.0
 11
3.0631140454
 21
43.9386304971
 31
0.0
  0
ARC
  5
1D7
330
1F
100
AcDbEntity
  8
0
  6
CONTINUOUS
 62
     7
100
AcDbCircle
 10
2.9039157612
 20
43.9780023422
 30
0.0
 40
0.0393701391982685
100
AcDbArc
 50
197.6004832045
 51
270.0000788272
  0
ARC
  5
1D8
330
1F
100
AcDbEntity
  8
0
  6
CONTINUOUS
 62
     7
100
AcDbCircle
 10
2.6723736082
 20
43.9045506955
 30
0.0
 40
0.2035432466285052
100
AcDbArc
 50
17.6004832045
 51
204.8878047833
  0
ARC
  5
1D9
330
1F
100
AcDbEntity
  8
0
  6
CONTINUOUS
 62
     7
100
AcDbCircle
 10
2.4520189004
 20
43.8023224476
 30
0.0
 40
0.0393699915522625
100
AcDbArc
 50
0.0
 51
24.8878047833
  0
LINE
  5
1DA
330
1F
100
AcDbEntity
  8
0
  6
CONTINUOUS
 62
     7
100
AcDbLine
 10
2.4913890501
 20
43.5615583731
 30
0.0
 11
2.4913887567
 21
43.8023235918
 31
0.0
  0
ARC
  5
1DB
330
1F
100
AcDbEntity
  8
0
  6
CONTINUOUS
 62
     7
100
AcDbCircle
 10
2.4520189004
 20
43.5615564715
 30
0.0
 40
0.0393700787401619
100
AcDbArc
 50
335.1121265345
 51
0.0
  0
ARC
  5
1DC
330
1F
100
AcDbEntity
  8
0
  6
CONTINUOUS
 62
     7
100
AcDbCircle
 10
2.6723736744
 20
43.4593278719
 30
0.0
 40
0.2035433070866154
100
AcDbArc
 50
155.1121265345
 51
183.9447292074
  0
LINE
  5
1DD
330
1F
100
AcDbEntity
  8
0
  6
CONTINUOUS
 62
     7
100
AcDbLine
 10
1.0215858094
 20
43.4453246225
 30
0.0
 11
2.4693124518
 21
43.4453246225
 31
0.0
  0
LINE
  5
1DE
330
1F
100
AcDbEntity
  8
0
  6
CONTINUOUS
 62
     7
100
AcDbLine
 10
1.0215858094
 20
43.4453246225
 30
0.0
 11
1.0215858094
 21
44.2862710678
 31
0.0
  0
ARC
  5
1DF
330
1F
100
AcDbEntity
  8
0
  6
CONTINUOUS
 62
     7
100
AcDbCircle
 10
20.5767039398
 20
44.2862701682
 30
0.0
 40
0.236220472440948
100
AcDbArc
 50
0.0
 51
90.0
  0
LINE
  5
1E0
330
1F
100
AcDbEntity
  8
0
  6
CONTINUOUS
 62
     7
100
AcDbLine
 10
1.0215858094
 20
2.7878451012
 30
0.0
 11
1.0215858094
 21
42.9185556678
 31
0.0
  0
LINE
  5
1E1
330
1F
100
AcDbEntity
  8
0
  6
CONTINUOUS
 62
     7
100
AcDbLine
 10
18.7247354677
 20
2.7878451012
 30
0.0
 11
18.7247354677
 21
42.9185556678
 31
0.0
  0
LINE
  5
1E2
330
1F
100
AcDbEntity
  8
0
  6
CONTINUOUS
 62
     7
100
AcDbLine
 10
1.0215858094
 20
2.7878451012
 30
0.0
 11
18.7247354677
 21
2.7878451012
 31
0.0
  0
LINE
  5
1E3
330
1F
100
AcDbEntity
  8
0
  6
CONTINUOUS
 62
     7
100
AcDbLine
 10
18.7247354677
 20
42.9185556678
 30
0.0
 11
1.0215858094
 21
42.9185556678
 31
0.0
  0
ARC
  5
1E4
330
1F
100
AcDbEntity
  8
0
  6
CONTINUOUS
 62
     7
100
AcDbCircle
 10
19.3109093328
 20
2.3205222462
 30
0.0
 40
0.0393700787401598
100
AcDbArc
 50
270.0000788272
 51
342.3995496328
  0
LINE
  5
1E5
330
1F
100
AcDbEntity
  8
0
  6
CONTINUOUS
 62
     7
100
AcDbLine
 10
19.3109096029
 20
2.2811522345
 30
0.0
 11
19.1517112286
 21
2.2811519412
 31
0.0
  0
ARC
  5
1E6
330
1F
100
AcDbEntity
  8
0
  6
CONTINUOUS
 62
     7
100
AcDbCircle
 10
19.1517110368
 20
2.3205220272
 30
0.0
 40
0.0393700787401556
100
AcDbArc
 50
197.6004832045
 51
270.0000788272
  0
ARC
  5
1E7
330
1F
100
AcDbEntity
  8
0
  6
CONTINUOUS
 62
     7
100
AcDbCircle
 10
3.0631140572
 20
2.3205222462
 30
0.0
 40
0.0393700787401585
100
AcDbArc
 50
270.0000788272
 51
342.3995496328
  0
LINE
  5
1E8
330
1F
100
AcDbEntity
  8
0
  6
CONTINUOUS
 62
     7
100
AcDbLine
 10
3.0631140454
 20
2.2811522345
 30
0.0
 11
2.9039156712
 21
2.2811519412
 31
0.0
  0
ARC
  5
1E9
330
1F
100
AcDbEntity
  8
0
  6
CONTINUOUS
 62
     7
100
AcDbCircle
 10
2.9039157612
 20
2.3205220272
 30
0.0
 40
0.0393700787401575
100
AcDbArc
 50
197.6004832045
 51
270.0000788272
  0
ARC
  5
1EA
330
1F
100
AcDbEntity
  8
0
  6
CONTINUOUS
 62
     7
100
AcDbCircle
 10
2.9039158695
 20
43.3858763579
 30
0.0
 40
0.0393700787401645
100
AcDbArc
 50
90.0000788272
 51
162.3995496328
  0
LINE
  5
1EB
330
1F
100
AcDbEntity
  8
0
  6
CONTINUOUS
 62
     7
100
AcDbLine
 10
2.9039156712
 20
43.4252467744
 30
0.0
 11
3.0631140454
 21
43.4252467744
 31
0.0
  0
ARC
  5
1EC
330
1F
100
AcDbEntity
  8
0
  6
CONTINUOUS
 62
     7
100
AcDbCircle
 10
3.0631141656
 20
43.3858765769
 30
0.0
 40
0.0393700787401572
100
AcDbArc
 50
17.6004832045
 51
90.0000788272
  0
ARC
  5
1ED
330
1F
100
AcDbEntity
  8
0
  6
CONTINUOUS
 62
     7
100
AcDbCircle
 10
19.1517111451
 20
43.3858763579
 30
0.0
 40
0.0393700787401575
100
AcDbArc
 50
90.0000788272
 51
162.3995496328
  0
LINE
  5
1EE
330
1F
100
AcDbEntity
  8
0
  6
CONTINUOUS
 62
     7
100
AcDbLine
 10
19.1517112286
 20
43.4252467744
 30
0.0
 11
19.3109096029
 21
43.4252467744
 31
0.0
  0
ARC
  5
1EF
330
1F
100
AcDbEntity
  8
0
  6
CONTINUOUS
 62
     7
100
AcDbCircle
 10
19.3109094412
 20
43.3858765769
 30
0.0
 40
0.0393700787401619
100
AcDbArc
 50
17.6004832045
 51
90.0000788272
  0
LINE
  5
1F0
330
1F
100
AcDbEntity
  8
0
  6
CONTINUOUS
 62
     7
100
AcDbLine
 10
1.0215858094
 20
2.7878451012
 30
0.0
 11
1.0215858094
 21
2.2610733598
 31
0.0
  0
LINE
  5
1F1
330
1F
100
AcDbEntity
  8
0
  6
CONTINUOUS
 62
     7
100
AcDbLine
 10
1.0215858094
 20
43.4453246225
 30
0.0
 11
1.0215858094
 21
42.9185556678
 31
0.0
  0
ARC
  5
1F2
330
1F
100
AcDbEntity
  8
0
  6
CONTINUOUS
 62
     7
100
AcDbCircle
 10
3.2946562524
 20
2.2470707323
 30
0.0
 40
0.2035433070866159
100
AcDbArc
 50
3.9447292074
 51
162.3995496328
  0
ARC
  5
1F3
330
1F
100
AcDbEntity
  8
0
  6
CONTINUOUS
 62
     7
100
AcDbCircle
 10
2.6723736082
 20
2.2470703806
 30
0.0
 40
0.2035433070866102
100
AcDbArc
 50
17.6004832045
 51
176.0551703761
  0
ARC
  5
1F4
330
1F
100
AcDbEntity
  8
0
  6
CONTINUOUS
 62
     7
100
AcDbCircle
 10
2.6723736744
 20
43.4593278719
 30
0.0
 40
0.2035433070866154
100
AcDbArc
 50
183.9447292074
 51
342.3995496328
  0
ARC
  5
1F5
330
1F
100
AcDbEntity
  8
0
  6
CONTINUOUS
 62
     7
100
AcDbCircle
 10
3.2946563186
 20
43.4593282236
 30
0.0
 40
0.2035433070866143
100
AcDbArc
 50
197.6004832045
 51
356.0551715497
  0
ARC
  5
1F6
330
1F
100
AcDbEntity
  8
0
  6
CONTINUOUS
 62
     7
100
AcDbCircle
 10
18.92016895
 20
43.4593278719
 30
0.0
 40
0.203543307086615
100
AcDbArc
 50
183.9447292074
 51
342.3995496328
  0
ARC
  5
1F7
330
1F
100
AcDbEntity
  8
0
  6
CONTINUOUS
 62
     7
100
AcDbCircle
 10
18.9201688838
 20
2.2470703806
 30
0.0
 40
0.2035433070866143
100
AcDbArc
 50
17.6004832045
 51
176.0551703761
  0
ARC
  5
1F8
330
1F
100
AcDbEntity
  8
0
  6
CONTINUOUS
 62
     7
100
AcDbCircle
 10
19.5424515942
 20
43.4593282236
 30
0.0
 40
0.2035433070866121
100
AcDbArc
 50
197.6004832045
 51
356.0551715497
  0
ARC
  5
1F9
330
1F
100
AcDbEntity
  8
0
  6
CONTINUOUS
 62
     7
100
AcDbCircle
 10
19.5424515279
 20
2.2470707323
 30
0.0
 40
0.2035433070866168
100
AcDbArc
 50
3.9447292074
 51
162.3995496328
  0
LINE
  5
1FA
330
1F
100
AcDbEntity
  8
0
  6
CONTINUOUS
 62
     7
100
AcDbLine
 10
20.8129243581
 20
42.9185556678
 30
0.0
 11
20.8129243581
 21
43.4453246225
 31
0.0
  0
LINE
  5
1FB
330
1F
100
AcDbEntity
  8
0
  6
CONTINUOUS
 62
     7
100
AcDbLine
 10
20.8129243581
 20
2.2610733598
 30
0.0
 11
20.8129243581
 21
2.7878451012
 31
0.0
  0
LINE
  5
1FC
330
1F
100
AcDbEntity
  8
0
  6
CONTINUOUS
 62
     7
100
AcDbLine
 10
57.3625300806
 20
41.841387098
 30
0.0
 11
43.0830030923
 21
41.841387098
 31
0.0
  0
LINE
  5
1FD
330
1F
100
AcDbEntity
  8
0
  6
CONTINUOUS
 62
     7
100
AcDbLine
 10
57.3625300806
 20
1.1839079433
 30
0.0
 11
57.3625300806
 21
41.841387098
 31
0.0
  0
LINE
  5
1FE
330
1F
100
AcDbEntity
  8
0
  6
CONTINUOUS
 62
     7
100
AcDbLine
 10
43.0830030923
 20
41.841387098
 30
0.0
 11
43.0830030923
 21
1.1839079433
 31
0.0
  0
LINE
  5
1FF
330
1F
100
AcDbEntity
  8
0
  6
CONTINUOUS
 62
     7
100
AcDbLine
 10
43.0830030923
 20
1.1839079433
 30
0.0
 11
57.3625300806
 21
1.1839079433
 31
0.0
  0
LINE
  5
200
330
1F
100
AcDbEntity
  8
PROFILES_OUTSIDE
100
AcDbLine
 10
41.8436330736
 20
1.4201284359
 30
0.0
 11
41.8436330736
 21
44.2862701682
 31
0.0
  0
LINE
  5
201
330
1F
100
AcDbEntity
  8
PROFILES_OUTSIDE
100
AcDbLine
 10
20.8129244122
 20
1.1839079635
 30
0.0
 11
20.8129244122
 21
44.5224906407
 31
0.0
  0
LINE
  5
202
330
1F
100
AcDbEntity
  8
POCKETS
100
AcDbLine
 10
73.2751291366
 20
3.2654040265
 30
0.0
 11
58.2082000027
 21
3.2654040265
 31
0.0
  0
LINE
  5
203
330
1F
100
AcDbEntity
  8
POCKETS
100
AcDbLine
 10
58.2082000027
 20
3.2654040265
 30
0.0
 11
58.2082000027
 21
2.7587111131
 31
0.0
  0
LINE
  5
204
330
1F
100
AcDbEntity
  8
POCKETS
100
AcDbLine
 10
58.2082000027
 20
2.7587111131
 30
0.0
 11
73.2751291366
 21
2.7587111131
 31
0.0
  0
LINE
  5
205
330
1F
100
AcDbEntity
  8
PROFILES_OUTSIDE
100
AcDbLine
 10
20.8129244122
 20
44.5224906407
 30
0.0
 11
1.0215858295
 21
44.5224906407
 31
0.0
  0
LINE
  5
206
330
1F
100
AcDbEntity
  8
PROFILES_OUTSIDE
100
AcDbLine
 10
1.0215858295
 20
44.5224906407
 30
0.0
 11
1.0215858295
 21
1.1839079635
 31
0.0
  0
LINE
  5
207
330
1F
100
AcDbEntity
  8
PROFILES_OUTSIDE
100
AcDbLine
 10
1.0215858295
 20
1.1839079635
 30
0.0
 11
20.8129244122
 21
1.1839079635
 31
0.0
  0
LINE
  5
208
330
1F
100
AcDbEntity
  8
POCKETS
100
AcDbLine
 10
73.2751291366
 20
2.7587111131
 30
0.0
 11
73.2751291366
 21
3.2654040265
 31
0.0
  0
LINE
  5
209
330
1F
100
AcDbEntity
  8
PROFILES_INSIDE
100
AcDbLine
 10
19.7234362232
 20
43.561556966
 30
0.0
 11
19.7234362232
 21
43.8023219531
 31
0.0
  0
LINE
  5
20A
330
1F
100
AcDbEntity
  8
PROFILES_INSIDE
100
AcDbLine
 10
19.1517110909
 20
43.4252464367
 30
0.0
 11
19.310909387
 21
43.4252466557
 31
0.0
  0
LINE
  5
20B
330
1F
100
AcDbEntity
  8
PROFILES_INSIDE
100
AcDbLine
 10
18.7391841675
 20
43.8023224476
 30
0.0
 11
18.7391842547
 21
43.5615564715
 31
0.0
  0
LINE
  5
20C
330
1F
100
AcDbEntity
  8
PROFILES_INSIDE
100
AcDbLine
 10
19.310909387
 20
43.9386324825
 30
0.0
 11
19.1517110909
 21
43.9386321803
 31
0.0
  0
LINE
  5
20D
330
1F
100
AcDbEntity
  8
PROFILES_OUTSIDE
100
AcDbLine
 10
57.3625307114
 20
1.1839079635
 30
0.0
 11
57.3625307114
 21
41.8413882785
 31
0.0
  0
LINE
  5
20E
330
1F
100
AcDbEntity
  8
PROFILES_OUTSIDE
100
AcDbLine
 10
57.3625307114
 20
41.8413882785
 30
0.0
 11
43.0830031524
 21
41.8413882785
 31
0.0
  0
LINE
  5
20F
330
1F
100
AcDbEntity
  8
PROFILES_OUTSIDE
100
AcDbLine
 10
43.0830031524
 20
41.8413882785
 30
0.0
 11
43.0830031524
 21
1.1839079635
 31
0.0
  0
LINE
  5
210
330
1F
100
AcDbEntity
  8
PROFILES_OUTSIDE
100
AcDbLine
 10
43.0830031524
 20
1.1839079635
 30
0.0
 11
57.3625307114
 21
1.1839079635
 31
0.0
  0
LINE
  5
211
330
1F
100
AcDbEntity
  8
PROFILES_OUTSIDE
100
AcDbLine
 10
72.8814283492
 20
20.9752465462
 30
0.0
 11
58.6019007901
 21
20.9752465462
 31
0.0
  0
LINE
  5
212
330
1F
100
AcDbEntity
  8
PROFILES_OUTSIDE
100
AcDbLine
 10
58.6019007901
 20
20.9752465462
 30
0.0
 11
58.6019007901
 21
1.1839079635
 31
0.0
  0
LINE
  5
213
330
1F
100
AcDbEntity
  8
PROFILES_OUTSIDE
100
AcDbLine
 10
58.6019007901
 20
1.1839079635
 30
0.0
 11
72.8814283492
 21
1.1839079635
 31
0.0
  0
LINE
  5
214
330
1F
100
AcDbEntity
  8
PROFILES_OUTSIDE
100
AcDbLine
 10
72.8814283492
 20
1.1839079635
 30
0.0
 11
72.8814283492
 21
20.9752465462
 31
0.0
  0
LINE
  5
215
330
1F
100
AcDbEntity
  8
PROFILES_OUTSIDE
100
AcDbLine
 10
74.1207984279
 20
20.9752465462
 30
0.0
 11
74.1207984279
 21
1.1839079635
 31
0.0
  0
LINE
  5
216
330
1F
100
AcDbEntity
  8
PROFILES_OUTSIDE
100
AcDbLine
 10
74.1207984279
 20
1.1839079635
 30
0.0
 11
88.400325987
 21
1.1839079635
 31
0.0
  0
LINE
  5
217
330
1F
100
AcDbEntity
  8
BOX_STOCK
100
AcDbLine
 10
0.0082000027
 20
0.1705221367
 30
0.0
 11
96.0711921287
 21
0.1705221367
 31
0.0
  0
LINE
  5
218
330
1F
100
AcDbEntity
  8
BOX_STOCK
100
AcDbLine
 10
96.0711921287
 20
0.1705221367
 30
0.0
 11
96.0711921287
 21
48.2020181997
 31
0.0
  0
LINE
  5
219
330
1F
100
AcDbEntity
  8
BOX_STOCK
100
AcDbLine
 10
96.0711921287
 20
48.2020181997
 30
0.0
 11
0.0082000027
 21
48.2020181997
 31
0.0
  0
LINE
  5
21A
330
1F
100
AcDbEntity
  8
BOX_STOCK
100
AcDbLine
 10
0.0082000027
 20
48.2020181997
 30
0.0
 11
0.0082000027
 21
0.1705221367
 31
0.0
  0
LINE
  5
21B
330
1F
100
AcDbEntity
  8
POCKETS
100
AcDbLine
 10
88.7940267744
 20
3.2654040265
 30
0.0
 11
73.7270976405
 21
3.2654040265
 31
0.0
  0
LINE
  5
21C
330
1F
100
AcDbEntity
  8
PROFILES_OUTSIDE
100
AcDbLine
 10
88.400325987
 20
1.1839079635
 30
0.0
 11
88.400325987
 21
20.9752465462
 31
0.0
  0
LINE
  5
21D
330
1F
100
AcDbEntity
  8
POCKETS
100
AcDbLine
 10
73.7270976405
 20
3.2654040265
 30
0.0
 11
73.7270976405
 21
2.7587111131
 31
0.0
  0
LINE
  5
21E
330
1F
100
AcDbEntity
  8
POCKETS
100
AcDbLine
 10
73.7270976405
 20
2.7587111131
 30
0.0
 11
88.7940267744
 21
2.7587111131
 31
0.0
  0
LINE
  5
21F
330
1F
100
AcDbEntity
  8
POCKETS
100
AcDbLine
 10
88.7940267744
 20
2.7587111131
 30
0.0
 11
88.7940267744
 21
3.2654040265
 31
0.0
  0
LINE
  5
220
330
1F
100
AcDbEntity
  8
PROFILES_OUTSIDE
100
AcDbLine
 10
88.400325987
 20
20.9752465462
 30
0.0
 11
74.1207984279
 21
20.9752465462
 31
0.0
  0
LINE
  5
221
330
1F
100
AcDbEntity
  8
PROFILES_INSIDE
100
AcDbLine
 10
3.4756409476
 20
43.561556966
 30
0.0
 11
3.4756409476
 21
43.8023219531
 31
0.0
  0
LINE
  5
222
330
1F
100
AcDbEntity
  8
PROFILES_INSIDE
100
AcDbLine
 10
3.0631141114
 20
43.9386324825
 30
0.0
 11
2.9039158153
 21
43.9386322332
 31
0.0
  0
LINE
  5
223
330
1F
100
AcDbEntity
  8
PROFILES_INSIDE
100
AcDbLine
 10
2.4913888844
 20
43.8023224476
 30
0.0
 11
2.4913889791
 21
43.5615564715
 31
0.0
  0
LINE
  5
224
330
1F
100
AcDbEntity
  8
PROFILES_INSIDE
100
AcDbLine
 10
2.9039158153
 20
43.4252464367
 30
0.0
 11
3.0631141114
 21
43.4252466557
 31
0.0
  0
LINE
  5
225
330
1F
100
AcDbEntity
  8
PROFILES_INSIDE
100
AcDbLine
 10
19.7234362232
 20
1.904076651
 30
0.0
 11
19.7234362232
 21
2.1448416382
 31
0.0
  0
LINE
  5
226
330
1F
100
AcDbEntity
  8
PROFILES_INSIDE
100
AcDbLine
 10
19.310909387
 20
2.2811521675
 30
0.0
 11
19.1517110909
 21
2.2811519409
 31
0.0
  0
LINE
  5
227
330
1F
100
AcDbEntity
  8
PROFILES_INSIDE
100
AcDbLine
 10
18.7391841524
 20
2.1448421326
 30
0.0
 11
18.7391842547
 21
1.9040761565
 31
0.0
  0
LINE
  5
228
330
1F
100
AcDbEntity
  8
PROFILES_INSIDE
100
AcDbLine
 10
19.1517110909
 20
1.7677661217
 30
0.0
 11
19.310909387
 21
1.7677663407
 31
0.0
  0
LINE
  5
229
330
1F
100
AcDbEntity
  8
PROFILES_INSIDE
100
AcDbLine
 10
2.4913888919
 20
2.1448421326
 30
0.0
 11
2.4913889791
 21
1.9040761565
 31
0.0
  0
LINE
  5
22A
330
1F
100
AcDbEntity
  8
PROFILES_INSIDE
100
AcDbLine
 10
2.9039158153
 20
1.7677661217
 30
0.0
 11
3.0631141114
 21
1.7677663407
 31
0.0
  0
LINE
  5
22B
330
1F
100
AcDbEntity
  8
PROFILES_INSIDE
100
AcDbLine
 10
3.4756409476
 20
1.904076651
 30
0.0
 11
3.4756409476
 21
2.1448416382
 31
0.0
  0
LINE
  5
22C
330
1F
100
AcDbEntity
  8
PROFILES_INSIDE
100
AcDbLine
 10
3.0631141114
 20
2.2811521675
 30
0.0
 11
2.9039158153
 21
2.2811519485
 31
0.0
  0
LINE
  5
22D
330
1F
100
AcDbEntity
  8
PROFILES_OUTSIDE
100
AcDbLine
 10
73.894814176
 20
22.460679617
 30
0.0
 11
74.3105622075
 21
22.460679617
 31
0.0
  0
LINE
  5
22E
330
1F
100
AcDbEntity
  8
PROFILES_OUTSIDE
100
AcDbLine
 10
73.8814248989
 20
22.6698870709
 30
0.0
 11
73.894814176
 21
22.460679617
 31
0.0
  0
LINE
  5
22F
330
1F
100
AcDbEntity
  8
PROFILES_OUTSIDE
100
AcDbLine
 10
73.5019904903
 20
22.7067426092
 30
0.0
 11
73.8421352033
 21
22.7067426092
 31
0.0
  0
LINE
  5
230
330
1F
100
AcDbEntity
  8
PROFILES_OUTSIDE
100
AcDbLine
 10
73.3656803177
 20
22.2145378847
 30
0.0
 11
73.3656803177
 21
22.2942157729
 31
0.0
  0
LINE
  5
231
330
1F
100
AcDbEntity
  8
PROFILES_OUTSIDE
100
AcDbLine
 10
67.9326094516
 20
22.2145378847
 30
0.0
 11
73.3656803177
 21
22.2145378847
 31
0.0
  0
LINE
  5
232
330
1F
100
AcDbEntity
  8
PROFILES_OUTSIDE
100
AcDbLine
 10
67.4601685067
 20
27.9717294858
 30
0.0
 11
67.4601685067
 21
22.6869788296
 31
0.0
  0
LINE
  5
233
330
1F
100
AcDbEntity
  8
PROFILES_OUTSIDE
100
AcDbLine
 10
65.9641055146
 20
28.4441704307
 30
0.0
 11
66.9877275618
 21
28.4441704307
 31
0.0
  0
LINE
  5
234
330
1F
100
AcDbEntity
  8
PROFILES_OUTSIDE
100
AcDbLine
 10
65.4916645697
 20
22.6869788296
 30
0.0
 11
65.4916645697
 21
27.9717294858
 31
0.0
  0
LINE
  5
235
330
1F
100
AcDbEntity
  8
PROFILES_INSIDE
100
AcDbLine
 10
40.7541448846
 20
43.561556966
 30
0.0
 11
40.7541448846
 21
43.8023219531
 31
0.0
  0
LINE
  5
236
330
1F
100
AcDbEntity
  8
PROFILES_INSIDE
100
AcDbLine
 10
40.1824197523
 20
43.4252464367
 30
0.0
 11
40.3416180484
 21
43.4252466557
 31
0.0
  0
LINE
  5
237
330
1F
100
AcDbEntity
  8
PROFILES_INSIDE
100
AcDbLine
 10
39.7698928289
 20
43.8023224476
 30
0.0
 11
39.7698929161
 21
43.5615564715
 31
0.0
  0
LINE
  5
238
330
1F
100
AcDbEntity
  8
PROFILES_INSIDE
100
AcDbLine
 10
40.3416180484
 20
43.9386324825
 30
0.0
 11
40.1824197523
 21
43.9386321803
 31
0.0
  0
LINE
  5
239
330
1F
100
AcDbEntity
  8
PROFILES_INSIDE
100
AcDbLine
 10
24.5120425224
 20
43.561556966
 30
0.0
 11
24.5120425224
 21
43.8023219531
 31
0.0
  0
LINE
  5
23A
330
1F
100
AcDbEntity
  8
PROFILES_INSIDE
100
AcDbLine
 10
24.0995156862
 20
43.9386324825
 30
0.0
 11
23.9403173901
 21
43.9386322332
 31
0.0
  0
LINE
  5
23B
330
1F
100
AcDbEntity
  8
PROFILES_INSIDE
100
AcDbLine
 10
23.5277904592
 20
43.8023224476
 30
0.0
 11
23.5277905539
 21
43.5615564715
 31
0.0
  0
LINE
  5
23C
330
1F
100
AcDbEntity
  8
PROFILES_INSIDE
100
AcDbLine
 10
23.9403173901
 20
43.4252464367
 30
0.0
 11
24.0995156862
 21
43.4252466557
 31
0.0
  0
LINE
  5
23D
330
1F
100
AcDbEntity
  8
PROFILES_INSIDE
100
AcDbLine
 10
40.7541448846
 20
1.904076651
 30
0.0
 11
40.7541448846
 21
2.1448416382
 31
0.0
  0
LINE
  5
23E
330
1F
100
AcDbEntity
  8
PROFILES_INSIDE
100
AcDbLine
 10
40.3416180484
 20
2.2811521675
 30
0.0
 11
40.1824197523
 21
2.2811519409
 31
0.0
  0
LINE
  5
23F
330
1F
100
AcDbEntity
  8
PROFILES_INSIDE
100
AcDbLine
 10
39.7698928138
 20
2.1448421326
 30
0.0
 11
39.7698929161
 21
1.9040761565
 31
0.0
  0
LINE
  5
240
330
1F
100
AcDbEntity
  8
PROFILES_INSIDE
100
AcDbLine
 10
40.1824197523
 20
1.7677661217
 30
0.0
 11
40.3416180484
 21
1.7677663407
 31
0.0
  0
LINE
  5
241
330
1F
100
AcDbEntity
  8
PROFILES_OUTSIDE
100
AcDbLine
 10
59.5861527586
 20
22.2145378847
 30
0.0
 11
65.0192236248
 21
22.2145378847
 31
0.0
  0
LINE
  5
242
330
1F
100
AcDbEntity
  8
PROFILES_OUTSIDE
100
AcDbLine
 10
59.5861527586
 20
22.2942157729
 30
0.0
 11
59.5861527586
 21
22.2145378847
 31
0.0
  0
LINE
  5
243
330
1F
100
AcDbEntity
  8
PROFILES_OUTSIDE
100
AcDbLine
 10
59.1096978731
 20
22.7067426092
 30
0.0
 11
59.4498425861
 21
22.7067426092
 31
0.0
  0
LINE
  5
244
330
1F
100
AcDbEntity
  8
PROFILES_OUTSIDE
100
AcDbLine
 10
59.0570189004
 20
22.460679617
 30
0.0
 11
59.0704081774
 21
22.6698870709
 31
0.0
  0
LINE
  5
245
330
1F
100
AcDbEntity
  8
PROFILES_OUTSIDE
100
AcDbLine
 10
58.6412708689
 20
22.460679617
 30
0.0
 11
59.0570189004
 21
22.460679617
 31
0.0
  0
LINE
  5
246
330
1F
100
AcDbEntity
  8
PROFILES_INSIDE
100
AcDbLine
 10
23.5277904667
 20
2.1448421326
 30
0.0
 11
23.5277905539
 21
1.9040761565
 31
0.0
  0
LINE
  5
247
330
1F
100
AcDbEntity
  8
PROFILES_INSIDE
100
AcDbLine
 10
23.9403173901
 20
1.7677661217
 30
0.0
 11
24.0995156862
 21
1.7677663407
 31
0.0
  0
LINE
  5
248
330
1F
100
AcDbEntity
  8
PROFILES_INSIDE
100
AcDbLine
 10
24.5120425224
 20
1.904076651
 30
0.0
 11
24.5120425224
 21
2.1448416382
 31
0.0
  0
LINE
  5
249
330
1F
100
AcDbEntity
  8
PROFILES_INSIDE
100
AcDbLine
 10
24.0995156862
 20
2.2811521675
 30
0.0
 11
23.9403173901
 21
2.2811519485
 31
0.0
  0
LINE
  5
24A
330
1F
100
AcDbEntity
  8
PROFILES_OUTSIDE
100
AcDbLine
 10
22.0522944909
 20
44.2862701682
 30
0.0
 11
22.0522944909
 21
1.4201284359
 31
0.0
  0
LINE
  5
24B
330
1F
100
AcDbEntity
  8
PROFILES_OUTSIDE
100
AcDbLine
 10
41.6074126012
 20
44.5224906407
 30
0.0
 11
22.2885149634
 21
44.5224906407
 31
0.0
  0
LINE
  5
24C
330
1F
100
AcDbEntity
  8
POCKETS
100
AcDbLine
 10
21.2200110264
 20
2.7878449714
 30
0.0
 11
20.826310239
 21
2.7878449714
 31
0.0
  0
LINE
  5
24D
330
1F
100
AcDbEntity
  8
PROFILES_OUTSIDE
100
AcDbLine
 10
58.6019007901
 20
22.962648121
 30
0.0
 11
58.6019007901
 21
22.5000496958
 31
0.0
  0
LINE
  5
24E
330
1F
100
AcDbEntity
  8
PROFILES_OUTSIDE
100
AcDbLine
 10
64.2692236248
 20
23.1988685934
 30
0.0
 11
58.8381212626
 21
23.1988685934
 31
0.0
  0
LINE
  5
24F
330
1F
100
AcDbEntity
  8
PROFILES_OUTSIDE
100
AcDbLine
 10
64.7416645697
 20
28.4441704307
 30
0.0
 11
64.7416645697
 21
23.6713095383
 31
0.0
  0
LINE
  5
250
330
1F
100
AcDbEntity
  8
PROFILES_OUTSIDE
100
AcDbLine
 10
65.4916645697
 20
32.9023239261
 30
0.0
 11
65.4916645697
 21
29.7432085364
 31
0.0
  0
LINE
  5
251
330
1F
100
AcDbEntity
  8
PROFILES_OUTSIDE
100
AcDbLine
 10
64.7416645697
 20
38.9742229241
 30
0.0
 11
64.7416645697
 21
34.2013620317
 31
0.0
  0
LINE
  5
252
330
1F
100
AcDbEntity
  8
PROFILES_OUTSIDE
100
AcDbLine
 10
58.8381212626
 20
39.446663869
 30
0.0
 11
64.2692236248
 21
39.446663869
 31
0.0
  0
LINE
  5
253
330
1F
100
AcDbEntity
  8
PROFILES_OUTSIDE
100
AcDbLine
 10
58.6019007901
 20
40.1454827666
 30
0.0
 11
58.6019007901
 21
39.6828843414
 31
0.0
  0
LINE
  5
254
330
1F
100
AcDbEntity
  8
PROFILES_OUTSIDE
100
AcDbLine
 10
59.0570189004
 20
40.1848528454
 30
0.0
 11
58.6412708689
 21
40.1848528454
 31
0.0
  0
LINE
  5
255
330
1F
100
AcDbEntity
  8
PROFILES_OUTSIDE
100
AcDbLine
 10
59.0704081774
 20
39.9756453915
 30
0.0
 11
59.0570189004
 21
40.1848528454
 31
0.0
  0
LINE
  5
256
330
1F
100
AcDbEntity
  8
PROFILES_OUTSIDE
100
AcDbLine
 10
59.4498425861
 20
39.9387898533
 30
0.0
 11
59.1096978731
 21
39.9387898533
 31
0.0
  0
LINE
  5
257
330
1F
100
AcDbEntity
  8
PROFILES_OUTSIDE
100
AcDbLine
 10
59.5861527586
 20
40.4309945777
 30
0.0
 11
59.5861527586
 21
40.3513166895
 31
0.0
  0
LINE
  5
258
330
1F
100
AcDbEntity
  8
PROFILES_OUTSIDE
100
AcDbLine
 10
65.0192236248
 20
40.4309945777
 30
0.0
 11
59.5861527586
 21
40.4309945777
 31
0.0
  0
LINE
  5
259
330
1F
100
AcDbEntity
  8
PROFILES_OUTSIDE
100
AcDbLine
 10
65.4916645697
 20
34.6738029766
 30
0.0
 11
65.4916645697
 21
39.9585536328
 31
0.0
  0
LINE
  5
25A
330
1F
100
AcDbEntity
  8
PROFILES_OUTSIDE
100
AcDbLine
 10
66.9877275618
 20
34.2013620317
 30
0.0
 11
65.9641055146
 21
34.2013620317
 31
0.0
  0
LINE
  5
25B
330
1F
100
AcDbEntity
  8
PROFILES_OUTSIDE
100
AcDbLine
 10
67.4601685067
 20
39.9585536328
 30
0.0
 11
67.4601685067
 21
34.6738029766
 31
0.0
  0
LINE
  5
25C
330
1F
100
AcDbEntity
  8
PROFILES_OUTSIDE
100
AcDbLine
 10
73.3656803177
 20
40.4309945777
 30
0.0
 11
67.9326094516
 21
40.4309945777
 31
0.0
  0
LINE
  5
25D
330
1F
100
AcDbEntity
  8
POCKETS
100
AcDbLine
 10
21.2200110264
 20
2.2610733178
 30
0.0
 11
21.2200110264
 21
2.7878449714
 31
0.0
  0
LINE
  5
25E
330
1F
100
AcDbEntity
  8
POCKETS
100
AcDbLine
 10
20.826310239
 20
2.2610733178
 30
0.0
 11
21.2200110264
 21
2.2610733178
 31
0.0
  0
LINE
  5
25F
330
1F
100
AcDbEntity
  8
POCKETS
100
AcDbLine
 10
1.0082000027
 20
2.2610733178
 30
0.0
 11
20.826310239
 21
2.2610733178
 31
0.0
  0
LINE
  5
260
330
1F
100
AcDbEntity
  8
POCKETS
100
AcDbLine
 10
0.6144992153
 20
2.2610733178
 30
0.0
 11
1.0082000027
 21
2.2610733178
 31
0.0
  0
LINE
  5
261
330
1F
100
AcDbEntity
  8
POCKETS
100
AcDbLine
 10
0.6144992153
 20
2.7878449714
 30
0.0
 11
0.6144992153
 21
2.2610733178
 31
0.0
  0
LINE
  5
262
330
1F
100
AcDbEntity
  8
POCKETS
100
AcDbLine
 10
1.0082000027
 20
2.7878449714
 30
0.0
 11
0.6144992153
 21
2.7878449714
 31
0.0
  0
LINE
  5
263
330
1F
100
AcDbEntity
  8
POCKETS
100
AcDbLine
 10
18.7247354358
 20
2.7878449714
 30
0.0
 11
1.0082000027
 21
2.7878449714
 31
0.0
  0
LINE
  5
264
330
1F
100
AcDbEntity
  8
POCKETS
100
AcDbLine
 10
18.7247354358
 20
42.9185536328
 30
0.0
 11
18.7247354358
 21
2.7878449714
 31
0.0
  0
LINE
  5
265
330
1F
100
AcDbEntity
  8
POCKETS
100
AcDbLine
 10
1.0082000027
 20
42.9185536328
 30
0.0
 11
18.7247354358
 21
42.9185536328
 31
0.0
  0
LINE
  5
266
330
1F
100
AcDbEntity
  8
POCKETS
100
AcDbLine
 10
0.6144992153
 20
42.9185536328
 30
0.0
 11
1.0082000027
 21
42.9185536328
 31
0.0
  0
LINE
  5
267
330
1F
100
AcDbEntity
  8
POCKETS
100
AcDbLine
 10
0.6144992153
 20
43.4453252863
 30
0.0
 11
0.6144992153
 21
42.9185536328
 31
0.0
  0
LINE
  5
268
330
1F
100
AcDbEntity
  8
POCKETS
100
AcDbLine
 10
1.0082000027
 20
43.4453252863
 30
0.0
 11
0.6144992153
 21
43.4453252863
 31
0.0
  0
LINE
  5
269
330
1F
100
AcDbEntity
  8
POCKETS
100
AcDbLine
 10
20.826310239
 20
43.4453252863
 30
0.0
 11
1.0082000027
 21
43.4453252863
 31
0.0
  0
LINE
  5
26A
330
1F
100
AcDbEntity
  8
POCKETS
100
AcDbLine
 10
21.2200110264
 20
43.4453252863
 30
0.0
 11
20.826310239
 21
43.4453252863
 31
0.0
  0
LINE
  5
26B
330
1F
100
AcDbEntity
  8
POCKETS
100
AcDbLine
 10
21.2200110264
 20
42.9185536328
 30
0.0
 11
21.2200110264
 21
43.4453252863
 31
0.0
  0
LINE
  5
26C
330
1F
100
AcDbEntity
  8
POCKETS
100
AcDbLine
 10
20.826310239
 20
42.9185536328
 30
0.0
 11
21.2200110264
 21
42.9185536328
 31
0.0
  0
LINE
  5
26D
330
1F
100
AcDbEntity
  8
POCKETS
100
AcDbLine
 10
19.2381212626
 20
42.9185536328
 30
0.0
 11
20.826310239
 21
42.9185536328
 31
0.0
  0
LINE
  5
26E
330
1F
100
AcDbEntity
  8
PROFILES_OUTSIDE
100
AcDbLine
 10
73.3656803177
 20
40.3513166895
 30
0.0
 11
73.3656803177
 21
40.4309945777
 31
0.0
  0
LINE
  5
26F
330
1F
100
AcDbEntity
  8
PROFILES_OUTSIDE
100
AcDbLine
 10
73.8421352033
 20
39.9387898533
 30
0.0
 11
73.5019904903
 21
39.9387898533
 31
0.0
  0
LINE
  5
270
330
1F
100
AcDbEntity
  8
PROFILES_OUTSIDE
100
AcDbLine
 10
73.894814176
 20
40.1848528454
 30
0.0
 11
73.8814248989
 21
39.9756453915
 31
0.0
  0
LINE
  5
271
330
1F
100
AcDbEntity
  8
PROFILES_OUTSIDE
100
AcDbLine
 10
74.3105622075
 20
40.1848528454
 30
0.0
 11
73.894814176
 21
40.1848528454
 31
0.0
  0
LINE
  5
272
330
1F
100
AcDbEntity
  8
PROFILES_OUTSIDE
100
AcDbLine
 10
74.3499322862
 20
39.6828843414
 30
0.0
 11
74.3499322862
 21
40.1454827666
 31
0.0
  0
LINE
  5
273
330
1F
100
AcDbEntity
  8
PROFILES_OUTSIDE
100
AcDbLine
 10
68.6826094516
 20
39.446663869
 30
0.0
 11
74.1137118138
 21
39.446663869
 31
0.0
  0
LINE
  5
274
330
1F
100
AcDbEntity
  8
PROFILES_OUTSIDE
100
AcDbLine
 10
68.2101685067
 20
34.2013620317
 30
0.0
 11
68.2101685067
 21
38.9742229241
 31
0.0
  0
LINE
  5
275
330
1F
100
AcDbEntity
  8
PROFILES_OUTSIDE
100
AcDbLine
 10
67.4601685067
 20
29.7432085364
 30
0.0
 11
67.4601685067
 21
32.9023239261
 31
0.0
  0
LINE
  5
276
330
1F
100
AcDbEntity
  8
PROFILES_OUTSIDE
100
AcDbLine
 10
68.2101685067
 20
23.6713095383
 30
0.0
 11
68.2101685067
 21
28.4441704307
 31
0.0
  0
LINE
  5
277
330
1F
100
AcDbEntity
  8
PROFILES_OUTSIDE
100
AcDbLine
 10
74.1137118138
 20
23.1988685934
 30
0.0
 11
68.6826094516
 21
23.1988685934
 31
0.0
  0
LINE
  5
278
330
1F
100
AcDbEntity
  8
PROFILES_OUTSIDE
100
AcDbLine
 10
74.3499322862
 20
22.5000496958
 30
0.0
 11
74.3499322862
 21
22.962648121
 31
0.0
  0
LINE
  5
279
330
1F
100
AcDbEntity
  8
POCKETS
100
AcDbLine
 10
19.2381212626
 20
2.7878449714
 30
0.0
 11
19.2381212626
 21
42.9185536328
 31
0.0
  0
LINE
  5
27A
330
1F
100
AcDbEntity
  8
PROFILES_OUTSIDE
100
AcDbLine
 10
76.0444204752
 20
40.1849315855
 30
0.0
 11
75.6286724437
 21
40.1849315855
 31
0.0
  0
LINE
  5
27B
330
1F
100
AcDbEntity
  8
PROFILES_OUTSIDE
100
AcDbLine
 10
76.0578097522
 20
39.9757241316
 30
0.0
 11
76.0444204752
 21
40.1849315855
 31
0.0
  0
LINE
  5
27C
330
1F
100
AcDbEntity
  8
PROFILES_OUTSIDE
100
AcDbLine
 10
76.4372441609
 20
39.9388685934
 30
0.0
 11
76.0970994479
 21
39.9388685934
 31
0.0
  0
LINE
  5
27D
330
1F
100
AcDbEntity
  8
PROFILES_OUTSIDE
100
AcDbLine
 10
76.5735543335
 20
40.4310733178
 30
0.0
 11
76.5735543335
 21
40.3513954296
 31
0.0
  0
LINE
  5
27E
330
1F
100
AcDbEntity
  8
PROFILES_OUTSIDE
100
AcDbLine
 10
82.0066251996
 20
40.4310733178
 30
0.0
 11
76.5735543335
 21
40.4310733178
 31
0.0
  0
LINE
  5
27F
330
1F
100
AcDbEntity
  8
PROFILES_OUTSIDE
100
AcDbLine
 10
82.4790661445
 20
34.6738817168
 30
0.0
 11
82.4790661445
 21
39.9586323729
 31
0.0
  0
LINE
  5
280
330
1F
100
AcDbEntity
  8
PROFILES_OUTSIDE
100
AcDbLine
 10
83.9751291366
 20
34.2014407719
 30
0.0
 11
82.9515070894
 21
34.2014407719
 31
0.0
  0
LINE
  5
281
330
1F
100
AcDbEntity
  8
PROFILES_OUTSIDE
100
AcDbLine
 10
84.4475700815
 20
39.9586323729
 30
0.0
 11
84.4475700815
 21
34.6738817168
 31
0.0
  0
LINE
  5
282
330
1F
100
AcDbEntity
  8
PROFILES_OUTSIDE
100
AcDbLine
 10
90.3530818925
 20
40.4310733178
 30
0.0
 11
84.9200110264
 21
40.4310733178
 31
0.0
  0
LINE
  5
283
330
1F
100
AcDbEntity
  8
PROFILES_OUTSIDE
100
AcDbLine
 10
90.3530818925
 20
40.3513954296
 30
0.0
 11
90.3530818925
 21
40.4310733178
 31
0.0
  0
LINE
  5
284
330
1F
100
AcDbEntity
  8
PROFILES_OUTSIDE
100
AcDbLine
 10
90.8295367781
 20
39.9388685934
 30
0.0
 11
90.4893920651
 21
39.9388685934
 31
0.0
  0
LINE
  5
285
330
1F
100
AcDbEntity
  8
PROFILES_OUTSIDE
100
AcDbLine
 10
90.8822157508
 20
40.1849315855
 30
0.0
 11
90.8688264737
 21
39.9757241316
 31
0.0
  0
LINE
  5
286
330
1F
100
AcDbEntity
  8
PROFILES_OUTSIDE
100
AcDbLine
 10
91.2979637823
 20
40.1849315855
 30
0.0
 11
90.8822157508
 21
40.1849315855
 31
0.0
  0
LINE
  5
287
330
1F
100
AcDbEntity
  8
PROFILES_OUTSIDE
100
AcDbLine
 10
91.337333861
 20
39.6829630816
 30
0.0
 11
91.337333861
 21
40.1455615068
 31
0.0
  0
LINE
  5
288
330
1F
100
AcDbEntity
  8
PROFILES_OUTSIDE
100
AcDbLine
 10
85.6700110264
 20
39.4467426092
 30
0.0
 11
91.1011133886
 21
39.4467426092
 31
0.0
  0
LINE
  5
289
330
1F
100
AcDbEntity
  8
PROFILES_OUTSIDE
100
AcDbLine
 10
85.1975700815
 20
34.2014407719
 30
0.0
 11
85.1975700815
 21
38.9743016643
 31
0.0
  0
LINE
  5
28A
330
1F
100
AcDbEntity
  8
PROFILES_OUTSIDE
100
AcDbLine
 10
84.4475700815
 20
29.7432872765
 30
0.0
 11
84.4475700815
 21
32.9024026662
 31
0.0
  0
LINE
  5
28B
330
1F
100
AcDbEntity
  8
PROFILES_OUTSIDE
100
AcDbLine
 10
85.1975700815
 20
23.6713882785
 30
0.0
 11
85.1975700815
 21
28.4442491708
 31
0.0
  0
LINE
  5
28C
330
1F
100
AcDbEntity
  8
PROFILES_OUTSIDE
100
AcDbLine
 10
91.1011133886
 20
23.1989473336
 30
0.0
 11
85.6700110264
 21
23.1989473336
 31
0.0
  0
LINE
  5
28D
330
1F
100
AcDbEntity
  8
PROFILES_OUTSIDE
100
AcDbLine
 10
91.337333861
 20
22.5001284359
 30
0.0
 11
91.337333861
 21
22.9627268611
 31
0.0
  0
LINE
  5
28E
330
1F
100
AcDbEntity
  8
PROFILES_OUTSIDE
100
AcDbLine
 10
90.8822157508
 20
22.4607583572
 30
0.0
 11
91.2979637823
 21
22.4607583572
 31
0.0
  0
LINE
  5
28F
330
1F
100
AcDbEntity
  8
PROFILES_OUTSIDE
100
AcDbLine
 10
90.8688264737
 20
22.6699658111
 30
0.0
 11
90.8822157508
 21
22.4607583572
 31
0.0
  0
LINE
  5
290
330
1F
100
AcDbEntity
  8
PROFILES_OUTSIDE
100
AcDbLine
 10
90.4893920651
 20
22.7068213493
 30
0.0
 11
90.8295367781
 21
22.7068213493
 31
0.0
  0
LINE
  5
291
330
1F
100
AcDbEntity
  8
PROFILES_OUTSIDE
100
AcDbLine
 10
90.3530818925
 20
22.2146166249
 30
0.0
 11
90.3530818925
 21
22.2942945131
 31
0.0
  0
LINE
  5
292
330
1F
100
AcDbEntity
  8
PROFILES_OUTSIDE
100
AcDbLine
 10
84.9200110264
 20
22.2146166249
 30
0.0
 11
90.3530818925
 21
22.2146166249
 31
0.0
  0
LINE
  5
293
330
1F
100
AcDbEntity
  8
PROFILES_OUTSIDE
100
AcDbLine
 10
84.4475700815
 20
27.971808226
 30
0.0
 11
84.4475700815
 21
22.6870575698
 31
0.0
  0
LINE
  5
294
330
1F
100
AcDbEntity
  8
PROFILES_OUTSIDE
100
AcDbLine
 10
82.9515070894
 20
28.4442491708
 30
0.0
 11
83.9751291366
 21
28.4442491708
 31
0.0
  0
LINE
  5
295
330
1F
100
AcDbEntity
  8
PROFILES_OUTSIDE
100
AcDbLine
 10
82.4790661445
 20
22.6870575698
 30
0.0
 11
82.4790661445
 21
27.971808226
 31
0.0
  0
LINE
  5
296
330
1F
100
AcDbEntity
  8
PROFILES_OUTSIDE
100
AcDbLine
 10
76.5735543335
 20
22.2146166249
 30
0.0
 11
82.0066251996
 21
22.2146166249
 31
0.0
  0
LINE
  5
297
330
1F
100
AcDbEntity
  8
PROFILES_OUTSIDE
100
AcDbLine
 10
76.5735543335
 20
22.2942945131
 30
0.0
 11
76.5735543335
 21
22.2146166249
 31
0.0
  0
LINE
  5
298
330
1F
100
AcDbEntity
  8
PROFILES_OUTSIDE
100
AcDbLine
 10
76.0970994479
 20
22.7068213493
 30
0.0
 11
76.4372441609
 21
22.7068213493
 31
0.0
  0
LINE
  5
299
330
1F
100
AcDbEntity
  8
PROFILES_OUTSIDE
100
AcDbLine
 10
76.0444204752
 20
22.4607583572
 30
0.0
 11
76.0578097522
 21
22.6699658111
 31
0.0
  0
LINE
  5
29A
330
1F
100
AcDbEntity
  8
PROFILES_OUTSIDE
100
AcDbLine
 10
75.6286724437
 20
22.4607583572
 30
0.0
 11
76.0444204752
 21
22.4607583572
 31
0.0
  0
LINE
  5
29B
330
1F
100
AcDbEntity
  8
PROFILES_OUTSIDE
100
AcDbLine
 10
75.5893023649
 20
22.9627268611
 30
0.0
 11
75.5893023649
 21
22.5001284359
 31
0.0
  0
LINE
  5
29C
330
1F
100
AcDbEntity
  8
PROFILES_OUTSIDE
100
AcDbLine
 10
81.2566251996
 20
23.1989473336
 30
0.0
 11
75.8255228374
 21
23.1989473336
 31
0.0
  0
LINE
  5
29D
330
1F
100
AcDbEntity
  8
PROFILES_OUTSIDE
100
AcDbLine
 10
81.7290661445
 20
28.4442491708
 30
0.0
 11
81.7290661445
 21
23.6713882785
 31
0.0
  0
LINE
  5
29E
330
1F
100
AcDbEntity
  8
PROFILES_OUTSIDE
100
AcDbLine
 10
82.4790661445
 20
32.9024026662
 30
0.0
 11
82.4790661445
 21
29.7432872765
 31
0.0
  0
LINE
  5
29F
330
1F
100
AcDbEntity
  8
PROFILES_OUTSIDE
100
AcDbLine
 10
81.7290661445
 20
38.9743016643
 30
0.0
 11
81.7290661445
 21
34.2014407719
 31
0.0
  0
LINE
  5
2A0
330
1F
100
AcDbEntity
  8
PROFILES_OUTSIDE
100
AcDbLine
 10
75.8255228374
 20
39.4467426092
 30
0.0
 11
81.2566251996
 21
39.4467426092
 31
0.0
  0
LINE
  5
2A1
330
1F
100
AcDbEntity
  8
PROFILES_OUTSIDE
100
AcDbLine
 10
75.5893023649
 20
40.1455615068
 30
0.0
 11
75.5893023649
 21
39.6829630816
 31
0.0
  0
LINE
  5
2A2
330
1F
100
AcDbEntity
  8
POCKETS
100
AcDbLine
 10
20.826310239
 20
2.7878449714
 30
0.0
 11
19.2381212626
 21
2.7878449714
 31
0.0
  0
LINE
  5
2A3
330
1F
100
AcDbEntity
  8
POCKETS
100
AcDbLine
 10
40.268829924
 20
42.9185536328
 30
0.0
 11
41.8570189004
 21
42.9185536328
 31
0.0
  0
LINE
  5
2A4
330
1F
100
AcDbEntity
  8
POCKETS
100
AcDbLine
 10
41.8570189004
 20
42.9185536328
 30
0.0
 11
42.2507196878
 21
42.9185536328
 31
0.0
  0
LINE
  5
2A5
330
1F
100
AcDbEntity
  8
POCKETS
100
AcDbLine
 10
42.2507196878
 20
42.9185536328
 30
0.0
 11
42.2507196878
 21
43.4453252863
 31
0.0
  0
LINE
  5
2A6
330
1F
100
AcDbEntity
  8
POCKETS
100
AcDbLine
 10
42.2507196878
 20
43.4453252863
 30
0.0
 11
41.8570189004
 21
43.4453252863
 31
0.0
  0
LINE
  5
2A7
330
1F
100
AcDbEntity
  8
POCKETS
100
AcDbLine
 10
41.8570189004
 20
43.4453252863
 30
0.0
 11
22.0389086642
 21
43.4453252863
 31
0.0
  0
LINE
  5
2A8
330
1F
100
AcDbEntity
  8
POCKETS
100
AcDbLine
 10
22.0389086642
 20
43.4453252863
 30
0.0
 11
21.6452078768
 21
43.4453252863
 31
0.0
  0
LINE
  5
2A9
330
1F
100
AcDbEntity
  8
POCKETS
100
AcDbLine
 10
21.6452078768
 20
43.4453252863
 30
0.0
 11
21.6452078768
 21
42.9185536328
 31
0.0
  0
LINE
  5
2AA
330
1F
100
AcDbEntity
  8
POCKETS
100
AcDbLine
 10
21.6452078768
 20
42.9185536328
 30
0.0
 11
22.0389086642
 21
42.9185536328
 31
0.0
  0
LINE
  5
2AB
330
1F
100
AcDbEntity
  8
POCKETS
100
AcDbLine
 10
22.0389086642
 20
42.9185536328
 30
0.0
 11
39.7554440972
 21
42.9185536328
 31
0.0
  0
LINE
  5
2AC
330
1F
100
AcDbEntity
  8
POCKETS
100
AcDbLine
 10
39.7554440972
 20
42.9185536328
 30
0.0
 11
39.7554440972
 21
2.7878449714
 31
0.0
  0
LINE
  5
2AD
330
1F
100
AcDbEntity
  8
POCKETS
100
AcDbLine
 10
39.7554440972
 20
2.7878449714
 30
0.0
 11
22.0389086642
 21
2.7878449714
 31
0.0
  0
LINE
  5
2AE
330
1F
100
AcDbEntity
  8
POCKETS
100
AcDbLine
 10
22.0389086642
 20
2.7878449714
 30
0.0
 11
21.6452078768
 21
2.7878449714
 31
0.0
  0
LINE
  5
2AF
330
1F
100
AcDbEntity
  8
POCKETS
100
AcDbLine
 10
21.6452078768
 20
2.7878449714
 30
0.0
 11
21.6452078768
 21
2.2610733178
 31
0.0
  0
LINE
  5
2B0
330
1F
100
AcDbEntity
  8
POCKETS
100
AcDbLine
 10
21.6452078768
 20
2.2610733178
 30
0.0
 11
22.0389086642
 21
2.2610733178
 31
0.0
  0
LINE
  5
2B1
330
1F
100
AcDbEntity
  8
POCKETS
100
AcDbLine
 10
22.0389086642
 20
2.2610733178
 30
0.0
 11
41.8570189004
 21
2.2610733178
 31
0.0
  0
LINE
  5
2B2
330
1F
100
AcDbEntity
  8
POCKETS
100
AcDbLine
 10
41.8570189004
 20
2.2610733178
 30
0.0
 11
42.2507196878
 21
2.2610733178
 31
0.0
  0
LINE
  5
2B3
330
1F
100
AcDbEntity
  8
POCKETS
100
AcDbLine
 10
42.2507196878
 20
2.2610733178
 30
0.0
 11
42.2507196878
 21
2.7878449714
 31
0.0
  0
LINE
  5
2B4
330
1F
100
AcDbEntity
  8
POCKETS
100
AcDbLine
 10
42.2507196878
 20
2.7878449714
 30
0.0
 11
41.8570189004
 21
2.7878449714
 31
0.0
  0
LINE
  5
2B5
330
1F
100
AcDbEntity
  8
POCKETS
100
AcDbLine
 10
41.8570189004
 20
2.7878449714
 30
0.0
 11
40.268829924
 21
2.7878449714
 31
0.0
  0
LINE
  5
2B6
330
1F
100
AcDbEntity
  8
POCKETS
100
AcDbLine
 10
40.268829924
 20
2.7878449714
 30
0.0
 11
40.268829924
 21
42.9185536328
 31
0.0
  0
LINE
  5
2B7
330
1F
100
AcDbEntity
  8
PROFILES_OUTSIDE
100
AcDbLine
 10
22.2885149634
 20
1.1839079635
 30
0.0
 11
41.6074126012
 21
1.1839079635
 31
0.0
  0
ARC
  5
2B8
330
1F
100
AcDbEntity
  8
PROFILES_INSIDE
100
AcDbCircle
 10
20.5491448846
 20
34.0580009918
 30
0.0
 40
0.2362204724409449
100
AcDbArc
 50
280.0
 51
0.0
  0
ARC
  5
2B9
330
1F
100
AcDbEntity
  8
PROFILES_OUTSIDE
100
AcDbCircle
 10
58.6412708689
 20
22.5000496958
 30
0.0
 40
0.0393700787401627
100
AcDbArc
 50
180.0
 51
270.0
  0
ARC
  5
2BA
330
1F
100
AcDbEntity
  8
PROFILES_INSIDE
100
AcDbCircle
 10
19.3109093328
 20
43.9780025612
 30
0.0
 40
0.0393700787401575
100
AcDbArc
 50
270.0000788272
 51
342.3995496328
  0
ARC
  5
2BB
330
1F
100
AcDbEntity
  8
PROFILES_INSIDE
100
AcDbCircle
 10
19.5424515279
 20
43.9045510472
 30
0.0
 40
0.2035433070866137
100
AcDbArc
 50
335.1122431696
 51
162.3995496328
  0
ARC
  5
2BC
330
1F
100
AcDbEntity
  8
PROFILES_INSIDE
100
AcDbCircle
 10
19.7628085428
 20
43.8023219531
 30
0.0
 40
0.0393723196329044
100
AcDbArc
 50
155.1122431696
 51
180.0
  0
ARC
  5
2BD
330
1F
100
AcDbEntity
  8
PROFILES_INSIDE
100
AcDbCircle
 10
19.762806302
 20
43.561556966
 30
0.0
 40
0.0393700787401579
100
AcDbArc
 50
180.0
 51
204.8879105874
  0
ARC
  5
2BE
330
1F
100
AcDbEntity
  8
PROFILES_INSIDE
100
AcDbCircle
 10
19.5424515942
 20
43.4593282236
 30
0.0
 40
0.2035433070866121
100
AcDbArc
 50
197.6004832045
 51
24.8879105874
  0
ARC
  5
2BF
330
1F
100
AcDbEntity
  8
PROFILES_INSIDE
100
AcDbCircle
 10
19.3109094412
 20
43.3858765769
 30
0.0
 40
0.0393700787401645
100
AcDbArc
 50
17.6004832045
 51
90.0000788272
  0
ARC
  5
2C0
330
1F
100
AcDbEntity
  8
PROFILES_INSIDE
100
AcDbCircle
 10
19.1517111451
 20
43.3858763579
 30
0.0
 40
0.0393700787401575
100
AcDbArc
 50
90.0000788272
 51
162.3995496328
  0
ARC
  5
2C1
330
1F
100
AcDbEntity
  8
PROFILES_INSIDE
100
AcDbCircle
 10
18.92016895
 20
43.4593278719
 30
0.0
 40
0.2035433070866166
100
AcDbArc
 50
155.1121265345
 51
342.3995496328
  0
ARC
  5
2C2
330
1F
100
AcDbEntity
  8
PROFILES_INSIDE
100
AcDbCircle
 10
18.699814176
 20
43.5615564715
 30
0.0
 40
0.0393700787401556
100
AcDbArc
 50
335.1121265346
 51
0.0
  0
ARC
  5
2C3
330
1F
100
AcDbEntity
  8
PROFILES_INSIDE
100
AcDbCircle
 10
18.699814176
 20
43.8023224476
 30
0.0
 40
0.0393699915522561
100
AcDbArc
 50
0.0
 51
24.8878047833
  0
ARC
  5
2C4
330
1F
100
AcDbEntity
  8
PROFILES_INSIDE
100
AcDbCircle
 10
18.9201688838
 20
43.9045506955
 30
0.0
 40
0.203543223956708
100
AcDbArc
 50
17.6004832045
 51
204.8878047833
  0
ARC
  5
2C5
330
1F
100
AcDbEntity
  8
PROFILES_INSIDE
100
AcDbCircle
 10
19.1517110368
 20
43.9780023422
 30
0.0
 40
0.0393701618700627
100
AcDbArc
 50
197.6004832045
 51
270.0000788272
  0
ARC
  5
2C6
330
1F
100
AcDbEntity
  8
PROFILES_INSIDE
100
AcDbCircle
 10
3.5150132673
 20
43.8023219531
 30
0.0
 40
0.0393723196329032
100
AcDbArc
 50
155.1122431696
 51
180.0
  0
ARC
  5
2C7
330
1F
100
AcDbEntity
  8
PROFILES_INSIDE
100
AcDbCircle
 10
3.2946562524
 20
43.9045510472
 30
0.0
 40
0.2035433070866154
100
AcDbArc
 50
335.1122431696
 51
162.3995496328
  0
ARC
  5
2C8
330
1F
100
AcDbEntity
  8
PROFILES_INSIDE
100
AcDbCircle
 10
3.0631140572
 20
43.9780025612
 30
0.0
 40
0.0393700787401584
100
AcDbArc
 50
270.0000788272
 51
342.3995496328
  0
ARC
  5
2C9
330
1F
100
AcDbEntity
  8
PROFILES_INSIDE
100
AcDbCircle
 10
2.9039157612
 20
43.9780023422
 30
0.0
 40
0.0393701240837419
100
AcDbArc
 50
197.6004832045
 51
270.0000788272
  0
ARC
  5
2CA
330
1F
100
AcDbEntity
  8
PROFILES_INSIDE
100
AcDbCircle
 10
2.6723736082
 20
43.9045506955
 30
0.0
 40
0.2035432617430275
100
AcDbArc
 50
17.6004832045
 51
204.8878047833
  0
ARC
  5
2CB
330
1F
100
AcDbEntity
  8
PROFILES_INSIDE
100
AcDbCircle
 10
2.4520189004
 20
43.8023224476
 30
0.0
 40
0.0393699839949919
100
AcDbArc
 50
0.0
 51
24.8878047833
  0
ARC
  5
2CC
330
1F
100
AcDbEntity
  8
PROFILES_INSIDE
100
AcDbCircle
 10
2.4520189004
 20
43.5615564715
 30
0.0
 40
0.0393700787401574
100
AcDbArc
 50
335.1121265346
 51
0.0
  0
ARC
  5
2CD
330
1F
100
AcDbEntity
  8
PROFILES_INSIDE
100
AcDbCircle
 10
2.6723736744
 20
43.4593278719
 30
0.0
 40
0.2035433070866188
100
AcDbArc
 50
155.1121265345
 51
342.3995496328
  0
ARC
  5
2CE
330
1F
100
AcDbEntity
  8
PROFILES_INSIDE
100
AcDbCircle
 10
2.9039158695
 20
43.3858763579
 30
0.0
 40
0.0393700787401574
100
AcDbArc
 50
90.0000788272
 51
162.3995496328
  0
ARC
  5
2CF
330
1F
100
AcDbEntity
  8
PROFILES_INSIDE
100
AcDbCircle
 10
3.0631141656
 20
43.3858765769
 30
0.0
 40
0.0393700787401552
100
AcDbArc
 50
17.6004832045
 51
90.0000788272
  0
ARC
  5
2D0
330
1F
100
AcDbEntity
  8
PROFILES_INSIDE
100
AcDbCircle
 10
3.2946563186
 20
43.4593282236
 30
0.0
 40
0.2035433070866164
100
AcDbArc
 50
197.6004832045
 51
24.8879105874
  0
ARC
  5
2D1
330
1F
100
AcDbEntity
  8
PROFILES_INSIDE
100
AcDbCircle
 10
3.5150110264
 20
43.561556966
 30
0.0
 40
0.0393700787401619
100
AcDbArc
 50
180.0
 51
204.8879105874
  0
ARC
  5
2D2
330
1F
100
AcDbEntity
  8
PROFILES_INSIDE
100
AcDbCircle
 10
19.5424515942
 20
1.8018479086
 30
0.0
 40
0.203543307086612
100
AcDbArc
 50
197.6004832045
 51
24.8879105874
  0
ARC
  5
2D3
330
1F
100
AcDbEntity
  8
PROFILES_INSIDE
100
AcDbCircle
 10
19.762806302
 20
1.904076651
 30
0.0
 40
0.0393700787401589
100
AcDbArc
 50
180.0
 51
204.8879105874
  0
ARC
  5
2D4
330
1F
100
AcDbEntity
  8
PROFILES_INSIDE
100
AcDbCircle
 10
19.7628085428
 20
2.1448416382
 30
0.0
 40
0.0393723196329018
100
AcDbArc
 50
155.1122431696
 51
180.0
  0
ARC
  5
2D5
330
1F
100
AcDbEntity
  8
PROFILES_INSIDE
100
AcDbCircle
 10
19.5424515279
 20
2.2470707323
 30
0.0
 40
0.2035433070866154
100
AcDbArc
 50
335.1122431696
 51
162.3995496328
  0
ARC
  5
2D6
330
1F
100
AcDbEntity
  8
PROFILES_INSIDE
100
AcDbCircle
 10
19.3109093328
 20
2.3205222462
 30
0.0
 40
0.0393700787401564
100
AcDbArc
 50
270.0000788272
 51
342.3995496328
  0
ARC
  5
2D7
330
1F
100
AcDbEntity
  8
PROFILES_INSIDE
100
AcDbCircle
 10
19.1517110368
 20
2.3205220272
 30
0.0
 40
0.0393701165264763
100
AcDbArc
 50
197.6004832045
 51
270.0000788272
  0
ARC
  5
2D8
330
1F
100
AcDbEntity
  8
PROFILES_INSIDE
100
AcDbCircle
 10
18.9201688838
 20
2.2470703806
 30
0.0
 40
0.2035432693002947
100
AcDbArc
 50
17.6004832045
 51
204.8878047833
  0
ARC
  5
2D9
330
1F
100
AcDbEntity
  8
PROFILES_INSIDE
100
AcDbCircle
 10
18.699814176
 20
2.1448421326
 30
0.0
 40
0.0393699764377295
100
AcDbArc
 50
0.0
 51
24.8878047833
  0
ARC
  5
2DA
330
1F
100
AcDbEntity
  8
PROFILES_INSIDE
100
AcDbCircle
 10
18.699814176
 20
1.9040761565
 30
0.0
 40
0.0393700787401592
100
AcDbArc
 50
335.1121265345
 51
0.0
  0
ARC
  5
2DB
330
1F
100
AcDbEntity
  8
PROFILES_INSIDE
100
AcDbCircle
 10
18.92016895
 20
1.8018475569
 30
0.0
 40
0.2035433070866181
100
AcDbArc
 50
155.1121265345
 51
342.3995496328
  0
ARC
  5
2DC
330
1F
100
AcDbEntity
  8
PROFILES_INSIDE
100
AcDbCircle
 10
19.1517111451
 20
1.728396043
 30
0.0
 40
0.0393700787401571
100
AcDbArc
 50
90.0000788272
 51
162.3995496328
  0
ARC
  5
2DD
330
1F
100
AcDbEntity
  8
PROFILES_INSIDE
100
AcDbCircle
 10
19.3109094412
 20
1.728396262
 30
0.0
 40
0.039370078740164
100
AcDbArc
 50
17.6004832045
 51
90.0000788272
  0
ARC
  5
2DE
330
1F
100
AcDbEntity
  8
PROFILES_INSIDE
100
AcDbCircle
 10
2.4520189004
 20
1.9040761565
 30
0.0
 40
0.0393700787401542
100
AcDbArc
 50
335.1121265345
 51
0.0
  0
ARC
  5
2DF
330
1F
100
AcDbEntity
  8
PROFILES_INSIDE
100
AcDbCircle
 10
2.6723736744
 20
1.8018475569
 30
0.0
 40
0.2035433070866143
100
AcDbArc
 50
155.1121265345
 51
342.3995496328
  0
ARC
  5
2E0
330
1F
100
AcDbEntity
  8
PROFILES_INSIDE
100
AcDbCircle
 10
2.9039158695
 20
1.728396043
 30
0.0
 40
0.0393700787401559
100
AcDbArc
 50
90.0000788272
 51
162.3995496328
  0
ARC
  5
2E1
330
1F
100
AcDbEntity
  8
PROFILES_INSIDE
100
AcDbCircle
 10
3.0631141656
 20
1.728396262
 30
0.0
 40
0.0393700787401644
100
AcDbArc
 50
17.6004832045
 51
90.0000788272
  0
ARC
  5
2E2
330
1F
100
AcDbEntity
  8
PROFILES_INSIDE
100
AcDbCircle
 10
3.2946563186
 20
1.8018479086
 30
0.0
 40
0.2035433070866128
100
AcDbArc
 50
197.6004832045
 51
24.8879105874
  0
ARC
  5
2E3
330
1F
100
AcDbEntity
  8
PROFILES_INSIDE
100
AcDbCircle
 10
3.5150110264
 20
1.904076651
 30
0.0
 40
0.0393700787401553
100
AcDbArc
 50
180.0
 51
204.8879105874
  0
ARC
  5
2E4
330
1F
100
AcDbEntity
  8
PROFILES_INSIDE
100
AcDbCircle
 10
3.5150132673
 20
2.1448416382
 30
0.0
 40
0.0393723196329004
100
AcDbArc
 50
155.1122431696
 51
180.0
  0
ARC
  5
2E5
330
1F
100
AcDbEntity
  8
PROFILES_INSIDE
100
AcDbCircle
 10
3.2946562524
 20
2.2470707323
 30
0.0
 40
0.2035433070866202
100
AcDbArc
 50
335.1122431696
 51
162.3995496328
  0
ARC
  5
2E6
330
1F
100
AcDbEntity
  8
PROFILES_INSIDE
100
AcDbCircle
 10
3.0631140572
 20
2.3205222462
 30
0.0
 40
0.0393700787401556
100
AcDbArc
 50
270.0000788272
 51
342.3995496328
  0
ARC
  5
2E7
330
1F
100
AcDbEntity
  8
PROFILES_INSIDE
100
AcDbCircle
 10
2.9039157612
 20
2.3205220272
 30
0.0
 40
0.0393700862974214
100
AcDbArc
 50
197.6004832045
 51
270.0000788272
  0
ARC
  5
2E8
330
1F
100
AcDbEntity
  8
PROFILES_INSIDE
100
AcDbCircle
 10
2.6723736082
 20
2.2470703806
 30
0.0
 40
0.2035432995293506
100
AcDbArc
 50
17.6004832045
 51
204.8878047833
  0
ARC
  5
2E9
330
1F
100
AcDbEntity
  8
PROFILES_INSIDE
100
AcDbCircle
 10
2.4520189004
 20
2.1448421326
 30
0.0
 40
0.0393699915522587
100
AcDbArc
 50
0.0
 51
24.8878047833
  0
ARC
  5
2EA
330
1F
100
AcDbEntity
  8
PROFILES_INSIDE
100
AcDbCircle
 10
40.3416179943
 20
43.9780025612
 30
0.0
 40
0.0393700787401618
100
AcDbArc
 50
270.0000788272
 51
342.3995496327
  0
ARC
  5
2EB
330
1F
100
AcDbEntity
  8
PROFILES_INSIDE
100
AcDbCircle
 10
40.5731601894
 20
43.9045510472
 30
0.0
 40
0.2035433070866143
100
AcDbArc
 50
335.1122431696
 51
162.3995496328
  0
ARC
  5
2EC
330
1F
100
AcDbEntity
  8
PROFILES_INSIDE
100
AcDbCircle
 10
40.7935172043
 20
43.8023219531
 30
0.0
 40
0.0393723196329034
100
AcDbArc
 50
155.1122431696
 51
180.0
  0
ARC
  5
2ED
330
1F
100
AcDbEntity
  8
PROFILES_INSIDE
100
AcDbCircle
 10
40.7935149634
 20
43.561556966
 30
0.0
 40
0.0393700787401643
100
AcDbArc
 50
180.0
 51
204.8879105874
  0
ARC
  5
2EE
330
1F
100
AcDbEntity
  8
PROFILES_INSIDE
100
AcDbCircle
 10
40.5731602556
 20
43.4593282236
 30
0.0
 40
0.2035433070866086
100
AcDbArc
 50
197.6004832045
 51
24.8879105874
  0
ARC
  5
2EF
330
1F
100
AcDbEntity
  8
PROFILES_INSIDE
100
AcDbCircle
 10
40.3416181026
 20
43.3858765769
 30
0.0
 40
0.039370078740173
100
AcDbArc
 50
17.6004832045
 51
90.0000788272
  0
ARC
  5
2F0
330
1F
100
AcDbEntity
  8
PROFILES_INSIDE
100
AcDbCircle
 10
40.1824198065
 20
43.3858763579
 30
0.0
 40
0.0393700787401574
100
AcDbArc
 50
90.0000788272
 51
162.3995496328
  0
ARC
  5
2F1
330
1F
100
AcDbEntity
  8
PROFILES_INSIDE
100
AcDbCircle
 10
39.9508776114
 20
43.4593278719
 30
0.0
 40
0.2035433070866199
100
AcDbArc
 50
155.1121265345
 51
342.3995496328
  0
ARC
  5
2F2
330
1F
100
AcDbEntity
  8
PROFILES_INSIDE
100
AcDbCircle
 10
39.7305228374
 20
43.5615564715
 30
0.0
 40
0.0393700787401627
100
AcDbArc
 50
335.1121265346
 51
0.0
  0
ARC
  5
2F3
330
1F
100
AcDbEntity
  8
PROFILES_INSIDE
100
AcDbCircle
 10
39.7305228374
 20
43.8023224476
 30
0.0
 40
0.0393699915522632
100
AcDbArc
 50
0.0
 51
24.8878047833
  0
ARC
  5
2F4
330
1F
100
AcDbEntity
  8
PROFILES_INSIDE
100
AcDbCircle
 10
39.9508775452
 20
43.9045506955
 30
0.0
 40
0.2035432239567102
100
AcDbArc
 50
17.6004832045
 51
204.8878047833
  0
ARC
  5
2F5
330
1F
100
AcDbEntity
  8
PROFILES_INSIDE
100
AcDbCircle
 10
40.1824196982
 20
43.9780023422
 30
0.0
 40
0.0393701618700584
100
AcDbArc
 50
197.6004832044
 51
270.0000788272
  0
ARC
  5
2F6
330
1F
100
AcDbEntity
  8
PROFILES_INSIDE
100
AcDbCircle
 10
24.5514148421
 20
43.8023219531
 30
0.0
 40
0.039372319632907
100
AcDbArc
 50
155.1122431696
 51
180.0
  0
ARC
  5
2F7
330
1F
100
AcDbEntity
  8
PROFILES_INSIDE
100
AcDbCircle
 10
24.3310578272
 20
43.9045510472
 30
0.0
 40
0.2035433070866168
100
AcDbArc
 50
335.1122431696
 51
162.3995496328
  0
ARC
  5
2F8
330
1F
100
AcDbEntity
  8
PROFILES_INSIDE
100
AcDbCircle
 10
24.0995156321
 20
43.9780025612
 30
0.0
 40
0.0393700787401597
100
AcDbArc
 50
270.0000788272
 51
342.3995496328
  0
ARC
  5
2F9
330
1F
100
AcDbEntity
  8
PROFILES_INSIDE
100
AcDbCircle
 10
23.940317336
 20
43.9780023422
 30
0.0
 40
0.039370124083744
100
AcDbArc
 50
197.6004832045
 51
270.0000788272
  0
ARC
  5
2FA
330
1F
100
AcDbEntity
  8
PROFILES_INSIDE
100
AcDbCircle
 10
23.708775183
 20
43.9045506955
 30
0.0
 40
0.2035432617430288
100
AcDbArc
 50
17.6004832045
 51
204.8878047833
  0
ARC
  5
2FB
330
1F
100
AcDbEntity
  8
PROFILES_INSIDE
100
AcDbCircle
 10
23.4884204752
 20
43.8023224476
 30
0.0
 40
0.0393699839949875
100
AcDbArc
 50
0.0
 51
24.8878047833
  0
ARC
  5
2FC
330
1F
100
AcDbEntity
  8
PROFILES_INSIDE
100
AcDbCircle
 10
23.4884204752
 20
43.5615564715
 30
0.0
 40
0.0393700787401601
100
AcDbArc
 50
335.1121265345
 51
0.0
  0
ARC
  5
2FD
330
1F
100
AcDbEntity
  8
PROFILES_INSIDE
100
AcDbCircle
 10
23.7087752492
 20
43.4593278719
 30
0.0
 40
0.2035433070866116
100
AcDbArc
 50
155.1121265345
 51
342.3995496328
  0
ARC
  5
2FE
330
1F
100
AcDbEntity
  8
PROFILES_INSIDE
100
AcDbCircle
 10
23.9403174443
 20
43.3858763579
 30
0.0
 40
0.0393700787401631
100
AcDbArc
 50
90.0000788272
 51
162.3995496328
  0
ARC
  5
2FF
330
1F
100
AcDbEntity
  8
PROFILES_INSIDE
100
AcDbCircle
 10
24.0995157404
 20
43.3858765769
 30
0.0
 40
0.0393700787401598
100
AcDbArc
 50
17.6004832045
 51
90.0000788272
  0
ARC
  5
300
330
1F
100
AcDbEntity
  8
PROFILES_INSIDE
100
AcDbCircle
 10
24.3310578934
 20
43.4593282236
 30
0.0
 40
0.2035433070866131
100
AcDbArc
 50
197.6004832045
 51
24.8879105874
  0
ARC
  5
301
330
1F
100
AcDbEntity
  8
PROFILES_INSIDE
100
AcDbCircle
 10
24.5514126012
 20
43.561556966
 30
0.0
 40
0.0393700787401609
100
AcDbArc
 50
180.0
 51
204.8879105874
  0
ARC
  5
302
330
1F
100
AcDbEntity
  8
PROFILES_INSIDE
100
AcDbCircle
 10
40.5731602556
 20
1.8018479086
 30
0.0
 40
0.2035433070866152
100
AcDbArc
 50
197.6004832045
 51
24.8879105874
  0
ARC
  5
303
330
1F
100
AcDbEntity
  8
PROFILES_INSIDE
100
AcDbCircle
 10
40.7935149634
 20
1.904076651
 30
0.0
 40
0.039370078740164
100
AcDbArc
 50
180.0
 51
204.8879105874
  0
ARC
  5
304
330
1F
100
AcDbEntity
  8
PROFILES_INSIDE
100
AcDbCircle
 10
40.7935172043
 20
2.1448416382
 30
0.0
 40
0.0393723196329034
100
AcDbArc
 50
155.1122431696
 51
180.0
  0
ARC
  5
305
330
1F
100
AcDbEntity
  8
PROFILES_INSIDE
100
AcDbCircle
 10
40.5731601894
 20
2.2470707323
 30
0.0
 40
0.2035433070866178
100
AcDbArc
 50
335.1122431696
 51
162.3995496328
  0
ARC
  5
306
330
1F
100
AcDbEntity
  8
PROFILES_INSIDE
100
AcDbCircle
 10
40.3416179943
 20
2.3205222462
 30
0.0
 40
0.0393700787401596
100
AcDbArc
 50
270.0000788272
 51
342.3995496328
  0
ARC
  5
307
330
1F
100
AcDbEntity
  8
PROFILES_INSIDE
100
AcDbCircle
 10
40.1824196982
 20
2.3205220272
 30
0.0
 40
0.0393701165264721
100
AcDbArc
 50
197.6004832045
 51
270.0000788272
  0
ARC
  5
308
330
1F
100
AcDbEntity
  8
PROFILES_INSIDE
100
AcDbCircle
 10
39.9508775452
 20
2.2470703806
 30
0.0
 40
0.2035432693003002
100
AcDbArc
 50
17.6004832045
 51
204.8878047833
  0
ARC
  5
309
330
1F
100
AcDbEntity
  8
PROFILES_INSIDE
100
AcDbCircle
 10
39.7305228374
 20
2.1448421326
 30
0.0
 40
0.039369976437726
100
AcDbArc
 50
0.0
 51
24.8878047833
  0
ARC
  5
30A
330
1F
100
AcDbEntity
  8
PROFILES_INSIDE
100
AcDbCircle
 10
39.7305228374
 20
1.9040761565
 30
0.0
 40
0.039370078740159
100
AcDbArc
 50
335.1121265345
 51
0.0
  0
ARC
  5
30B
330
1F
100
AcDbEntity
  8
PROFILES_INSIDE
100
AcDbCircle
 10
39.9508776114
 20
1.8018475569
 30
0.0
 40
0.2035433070866168
100
AcDbArc
 50
155.1121265345
 51
342.3995496328
  0
ARC
  5
30C
330
1F
100
AcDbEntity
  8
PROFILES_INSIDE
100
AcDbCircle
 10
40.1824198065
 20
1.728396043
 30
0.0
 40
0.0393700787401585
100
AcDbArc
 50
90.0000788272
 51
162.3995496328
  0
ARC
  5
30D
330
1F
100
AcDbEntity
  8
PROFILES_INSIDE
100
AcDbCircle
 10
40.3416181026
 20
1.728396262
 30
0.0
 40
0.0393700787401614
100
AcDbArc
 50
17.6004832045
 51
90.0000788272
  0
ARC
  5
30E
330
1F
100
AcDbEntity
  8
PROFILES_INSIDE
100
AcDbCircle
 10
23.4884204752
 20
1.9040761565
 30
0.0
 40
0.0393700787401627
100
AcDbArc
 50
335.1121265345
 51
0.0
  0
ARC
  5
30F
330
1F
100
AcDbEntity
  8
PROFILES_INSIDE
100
AcDbCircle
 10
23.7087752492
 20
1.8018475569
 30
0.0
 40
0.2035433070866168
100
AcDbArc
 50
155.1121265345
 51
342.3995496328
  0
ARC
  5
310
330
1F
100
AcDbEntity
  8
PROFILES_INSIDE
100
AcDbCircle
 10
23.9403174443
 20
1.728396043
 30
0.0
 40
0.0393700787401584
100
AcDbArc
 50
90.0000788272
 51
162.3995496328
  0
ARC
  5
311
330
1F
100
AcDbEntity
  8
PROFILES_INSIDE
100
AcDbCircle
 10
24.0995157404
 20
1.728396262
 30
0.0
 40
0.0393700787401613
100
AcDbArc
 50
17.6004832045
 51
90.0000788272
  0
ARC
  5
312
330
1F
100
AcDbEntity
  8
PROFILES_INSIDE
100
AcDbCircle
 10
24.3310578934
 20
1.8018479086
 30
0.0
 40
0.2035433070866131
100
AcDbArc
 50
197.6004832045
 51
24.8879105874
  0
ARC
  5
313
330
1F
100
AcDbEntity
  8
PROFILES_INSIDE
100
AcDbCircle
 10
24.5514126012
 20
1.904076651
 30
0.0
 40
0.0393700787401627
100
AcDbArc
 50
180.0
 51
204.8879105874
  0
ARC
  5
314
330
1F
100
AcDbEntity
  8
PROFILES_INSIDE
100
AcDbCircle
 10
24.5514148421
 20
2.1448416382
 30
0.0
 40
0.0393723196328999
100
AcDbArc
 50
155.1122431696
 51
180.0
  0
ARC
  5
315
330
1F
100
AcDbEntity
  8
PROFILES_INSIDE
100
AcDbCircle
 10
24.3310578272
 20
2.2470707323
 30
0.0
 40
0.2035433070866178
100
AcDbArc
 50
335.1122431696
 51
162.3995496328
  0
ARC
  5
316
330
1F
100
AcDbEntity
  8
PROFILES_INSIDE
100
AcDbCircle
 10
24.0995156321
 20
2.3205222462
 30
0.0
 40
0.0393700787401551
100
AcDbArc
 50
270.0000788272
 51
342.3995496328
  0
ARC
  5
317
330
1F
100
AcDbEntity
  8
PROFILES_INSIDE
100
AcDbCircle
 10
23.940317336
 20
2.3205220272
 30
0.0
 40
0.0393700862974205
100
AcDbArc
 50
197.6004832045
 51
270.0000788272
  0
ARC
  5
318
330
1F
100
AcDbEntity
  8
PROFILES_INSIDE
100
AcDbCircle
 10
23.708775183
 20
2.2470703806
 30
0.0
 40
0.2035432995293505
100
AcDbArc
 50
17.6004832045
 51
204.8878047833
  0
ARC
  5
319
330
1F
100
AcDbEntity
  8
PROFILES_INSIDE
100
AcDbCircle
 10
23.4884204752
 20
2.1448421326
 30
0.0
 40
0.0393699915522596
100
AcDbArc
 50
0.0
 51
24.8878047833
  0
ARC
  5
31A
330
1F
100
AcDbEntity
  8
PROFILES_OUTSIDE
100
AcDbCircle
 10
22.2885149634
 20
44.2862701682
 30
0.0
 40
0.2362204724409551
100
AcDbArc
 50
90.0
 51
180.0
  0
ARC
  5
31B
330
1F
100
AcDbEntity
  8
PROFILES_OUTSIDE
100
AcDbCircle
 10
41.6074126012
 20
44.2862701682
 30
0.0
 40
0.2362204724409551
100
AcDbArc
 50
0.0
 51
90.0
  0
ARC
  5
31C
330
1F
100
AcDbEntity
  8
PROFILES_OUTSIDE
100
AcDbCircle
 10
41.6074126012
 20
1.4201284359
 30
0.0
 40
0.236220472440948
100
AcDbArc
 50
270.0
 51
0.0
  0
ARC
  5
31D
330
1F
100
AcDbEntity
  8
PROFILES_OUTSIDE
100
AcDbCircle
 10
22.2885149634
 20
1.4201284359
 30
0.0
 40
0.2362204724409451
100
AcDbArc
 50
180.0
 51
270.0
  0
ARC
  5
31E
330
1F
100
AcDbEntity
  8
PROFILES_OUTSIDE
100
AcDbCircle
 10
64.2692236248
 20
23.6713095383
 30
0.0
 40
0.472440944881896
100
AcDbArc
 50
270.0
 51
0.0
  0
ARC
  5
31F
330
1F
100
AcDbEntity
  8
PROFILES_OUTSIDE
100
AcDbCircle
 10
64.2692236248
 20
38.9742229241
 30
0.0
 40
0.472440944881896
100
AcDbArc
 50
0.0
 51
90.0
  0
ARC
  5
320
330
1F
100
AcDbEntity
  8
PROFILES_OUTSIDE
100
AcDbCircle
 10
58.6412708689
 20
40.1454827666
 30
0.0
 40
0.0393700787401556
100
AcDbArc
 50
90.0
 51
180.0
  0
ARC
  5
321
330
1F
100
AcDbEntity
  8
PROFILES_OUTSIDE
100
AcDbCircle
 10
73.8421352033
 20
22.6673725304
 30
0.0
 40
0.0393700787401592
100
AcDbArc
 50
3.6619355755
 51
90.0
  0
ARC
  5
322
330
1F
100
AcDbEntity
  8
PROFILES_OUTSIDE
100
AcDbCircle
 10
73.5019904903
 20
22.7461126879
 30
0.0
 40
0.0393700787401609
100
AcDbArc
 50
245.1121079736
 51
270.0
  0
ARC
  5
323
330
1F
100
AcDbEntity
  8
PROFILES_OUTSIDE
100
AcDbCircle
 10
73.3997618193
 20
22.525757947
 30
0.0
 40
0.2035433070866144
100
AcDbArc
 50
65.1121079736
 51
252.3995332141
  0
ARC
  5
324
330
1F
100
AcDbEntity
  8
PROFILES_OUTSIDE
100
AcDbCircle
 10
73.326310239
 20
22.2942157729
 30
0.0
 40
0.0393700787401627
100
AcDbArc
 50
0.0
 51
72.3995332141
  0
ARC
  5
325
330
1F
100
AcDbEntity
  8
PROFILES_OUTSIDE
100
AcDbCircle
 10
67.9326094516
 20
22.6869788296
 30
0.0
 40
0.472440944881896
100
AcDbArc
 50
180.0
 51
270.0
  0
ARC
  5
326
330
1F
100
AcDbEntity
  8
PROFILES_OUTSIDE
100
AcDbCircle
 10
66.9877275618
 20
27.9717294858
 30
0.0
 40
0.4724409448818854
100
AcDbArc
 50
0.0
 51
90.0
  0
ARC
  5
327
330
1F
100
AcDbEntity
  8
PROFILES_OUTSIDE
100
AcDbCircle
 10
65.9641055146
 20
27.9717294858
 30
0.0
 40
0.4724409448818889
100
AcDbArc
 50
90.0
 51
180.0
  0
ARC
  5
328
330
1F
100
AcDbEntity
  8
PROFILES_OUTSIDE
100
AcDbCircle
 10
65.0192236248
 20
22.6869788296
 30
0.0
 40
0.472440944881896
100
AcDbArc
 50
270.0
 51
0.0
  0
ARC
  5
329
330
1F
100
AcDbEntity
  8
PROFILES_OUTSIDE
100
AcDbCircle
 10
59.6255228374
 20
22.2942157729
 30
0.0
 40
0.0393700787401627
100
AcDbArc
 50
107.6004667859
 51
180.0
  0
ARC
  5
32A
330
1F
100
AcDbEntity
  8
PROFILES_OUTSIDE
100
AcDbCircle
 10
59.5520712571
 20
22.525757947
 30
0.0
 40
0.2035433070866144
100
AcDbArc
 50
287.6004667859
 51
114.8878920264
  0
ARC
  5
32B
330
1F
100
AcDbEntity
  8
PROFILES_OUTSIDE
100
AcDbCircle
 10
59.4498425861
 20
22.7461126879
 30
0.0
 40
0.0393700787401592
100
AcDbArc
 50
270.0
 51
294.8878920264
  0
ARC
  5
32C
330
1F
100
AcDbEntity
  8
PROFILES_OUTSIDE
100
AcDbCircle
 10
59.1096978731
 20
22.6673725304
 30
0.0
 40
0.0393700787401627
100
AcDbArc
 50
90.0
 51
176.3380644245
  0
ARC
  5
32D
330
1F
100
AcDbEntity
  8
PROFILES_OUTSIDE
100
AcDbCircle
 10
58.8381212626
 20
22.962648121
 30
0.0
 40
0.2362204724409445
100
AcDbArc
 50
90.0
 51
180.0
  0
ARC
  5
32E
330
1F
100
AcDbEntity
  8
PROFILES_OUTSIDE
100
AcDbCircle
 10
74.3105622075
 20
40.1454827666
 30
0.0
 40
0.0393700787401627
100
AcDbArc
 50
0.0
 51
90.0
  0
ARC
  5
32F
330
1F
100
AcDbEntity
  8
PROFILES_OUTSIDE
100
AcDbCircle
 10
65.4916645697
 20
28.4441704307
 30
0.0
 40
0.75
100
AcDbArc
 50
120.0
 51
180.0
  0
ARC
  5
330
330
1F
100
AcDbEntity
  8
PROFILES_OUTSIDE
100
AcDbCircle
 10
64.7416645697
 20
29.7432085364
 30
0.0
 40
0.75
100
AcDbArc
 50
300.0
 51
0.0
  0
ARC
  5
331
330
1F
100
AcDbEntity
  8
PROFILES_OUTSIDE
100
AcDbCircle
 10
64.7416645697
 20
32.9023239261
 30
0.0
 40
0.75
100
AcDbArc
 50
0.0
 51
60.0
  0
ARC
  5
332
330
1F
100
AcDbEntity
  8
PROFILES_OUTSIDE
100
AcDbCircle
 10
65.4916645697
 20
34.2013620317
 30
0.0
 40
0.75
100
AcDbArc
 50
180.0
 51
240.0
  0
ARC
  5
333
330
1F
100
AcDbEntity
  8
PROFILES_OUTSIDE
100
AcDbCircle
 10
58.8381212626
 20
39.6828843414
 30
0.0
 40
0.2362204724409409
100
AcDbArc
 50
180.0
 51
270.0
  0
ARC
  5
334
330
1F
100
AcDbEntity
  8
PROFILES_OUTSIDE
100
AcDbCircle
 10
68.6826094516
 20
38.9742229241
 30
0.0
 40
0.4724409448818889
100
AcDbArc
 50
90.0
 51
180.0
  0
ARC
  5
335
330
1F
100
AcDbEntity
  8
PROFILES_OUTSIDE
100
AcDbCircle
 10
59.1096978731
 20
39.978159932
 30
0.0
 40
0.0393700787401585
100
AcDbArc
 50
183.6619355755
 51
270.0
  0
ARC
  5
336
330
1F
100
AcDbEntity
  8
PROFILES_OUTSIDE
100
AcDbCircle
 10
59.4498425861
 20
39.8994197745
 30
0.0
 40
0.0393700787401576
100
AcDbArc
 50
65.1121079736
 51
90.0
  0
ARC
  5
337
330
1F
100
AcDbEntity
  8
PROFILES_OUTSIDE
100
AcDbCircle
 10
59.5520712571
 20
40.1197745154
 30
0.0
 40
0.2035433070866204
100
AcDbArc
 50
245.1121079736
 51
72.3995332141
  0
ARC
  5
338
330
1F
100
AcDbEntity
  8
PROFILES_OUTSIDE
100
AcDbCircle
 10
59.6255228374
 20
40.3513166895
 30
0.0
 40
0.0393700787401658
100
AcDbArc
 50
180.0
 51
252.3995332141
  0
ARC
  5
339
330
1F
100
AcDbEntity
  8
PROFILES_OUTSIDE
100
AcDbCircle
 10
65.0192236248
 20
39.9585536328
 30
0.0
 40
0.472440944881896
100
AcDbArc
 50
0.0
 51
90.0
  0
ARC
  5
33A
330
1F
100
AcDbEntity
  8
PROFILES_OUTSIDE
100
AcDbCircle
 10
65.9641055146
 20
34.6738029766
 30
0.0
 40
0.4724409448818889
100
AcDbArc
 50
180.0
 51
270.0
  0
ARC
  5
33B
330
1F
100
AcDbEntity
  8
PROFILES_OUTSIDE
100
AcDbCircle
 10
66.9877275618
 20
34.6738029766
 30
0.0
 40
0.4724409448818889
100
AcDbArc
 50
270.0
 51
0.0
  0
ARC
  5
33C
330
1F
100
AcDbEntity
  8
PROFILES_OUTSIDE
100
AcDbCircle
 10
67.9326094516
 20
39.9585536328
 30
0.0
 40
0.472440944881896
100
AcDbArc
 50
90.0
 51
180.0
  0
ARC
  5
33D
330
1F
100
AcDbEntity
  8
PROFILES_OUTSIDE
100
AcDbCircle
 10
73.326310239
 20
40.3513166895
 30
0.0
 40
0.0393700787401627
100
AcDbArc
 50
287.6004667859
 51
0.0
  0
ARC
  5
33E
330
1F
100
AcDbEntity
  8
PROFILES_OUTSIDE
100
AcDbCircle
 10
73.3997618193
 20
40.1197745154
 30
0.0
 40
0.2035433070866264
100
AcDbArc
 50
107.6004667859
 51
294.8878920264
  0
ARC
  5
33F
330
1F
100
AcDbEntity
  8
PROFILES_OUTSIDE
100
AcDbCircle
 10
73.5019904903
 20
39.8994197745
 30
0.0
 40
0.0393700787401516
100
AcDbArc
 50
90.0
 51
114.8878920264
  0
ARC
  5
340
330
1F
100
AcDbEntity
  8
PROFILES_OUTSIDE
100
AcDbCircle
 10
73.8421352033
 20
39.978159932
 30
0.0
 40
0.039370078740159
100
AcDbArc
 50
270.0
 51
356.3380644245
  0
ARC
  5
341
330
1F
100
AcDbEntity
  8
PROFILES_OUTSIDE
100
AcDbCircle
 10
74.1137118138
 20
39.6828843414
 30
0.0
 40
0.2362204724409338
100
AcDbArc
 50
270.0
 51
0.0
  0
ARC
  5
342
330
1F
100
AcDbEntity
  8
PROFILES_OUTSIDE
100
AcDbCircle
 10
68.6826094516
 20
23.6713095383
 30
0.0
 40
0.472440944881896
100
AcDbArc
 50
180.0
 51
270.0
  0
ARC
  5
343
330
1F
100
AcDbEntity
  8
PROFILES_OUTSIDE
100
AcDbCircle
 10
67.4601685067
 20
34.2013620317
 30
0.0
 40
0.75
100
AcDbArc
 50
300.0
 51
0.0
  0
ARC
  5
344
330
1F
100
AcDbEntity
  8
PROFILES_OUTSIDE
100
AcDbCircle
 10
68.2101685067
 20
32.9023239261
 30
0.0
 40
0.75
100
AcDbArc
 50
120.0
 51
180.0
  0
ARC
  5
345
330
1F
100
AcDbEntity
  8
PROFILES_OUTSIDE
100
AcDbCircle
 10
68.2101685067
 20
29.7432085364
 30
0.0
 40
0.75
100
AcDbArc
 50
180.0
 51
240.0
  0
ARC
  5
346
330
1F
100
AcDbEntity
  8
PROFILES_OUTSIDE
100
AcDbCircle
 10
67.4601685067
 20
28.4441704307
 30
0.0
 40
0.75
100
AcDbArc
 50
0.0
 51
60.0
  0
ARC
  5
347
330
1F
100
AcDbEntity
  8
PROFILES_OUTSIDE
100
AcDbCircle
 10
74.1137118138
 20
22.962648121
 30
0.0
 40
0.2362204724409445
100
AcDbArc
 50
0.0
 51
90.0
  0
ARC
  5
348
330
1F
100
AcDbEntity
  8
PROFILES_OUTSIDE
100
AcDbCircle
 10
74.3105622075
 20
22.5000496958
 30
0.0
 40
0.0393700787401627
100
AcDbArc
 50
270.0
 51
0.0
  0
ARC
  5
349
330
1F
100
AcDbEntity
  8
PROFILES_OUTSIDE
100
AcDbCircle
 10
91.2979637823
 20
40.1455615068
 30
0.0
 40
0.0393700787401627
100
AcDbArc
 50
0.0
 51
90.0
  0
ARC
  5
34A
330
1F
100
AcDbEntity
  8
PROFILES_OUTSIDE
100
AcDbCircle
 10
85.6700110264
 20
38.9743016643
 30
0.0
 40
0.4724409448818889
100
AcDbArc
 50
90.0
 51
180.0
  0
ARC
  5
34B
330
1F
100
AcDbEntity
  8
PROFILES_OUTSIDE
100
AcDbCircle
 10
85.6700110264
 20
23.6713882785
 30
0.0
 40
0.4724409448818996
100
AcDbArc
 50
180.0
 51
270.0
  0
ARC
  5
34C
330
1F
100
AcDbEntity
  8
PROFILES_OUTSIDE
100
AcDbCircle
 10
91.2979637823
 20
22.5001284359
 30
0.0
 40
0.0393700787401627
100
AcDbArc
 50
270.0
 51
0.0
  0
ARC
  5
34D
330
1F
100
AcDbEntity
  8
PROFILES_OUTSIDE
100
AcDbCircle
 10
76.0970994479
 20
39.9782386722
 30
0.0
 40
0.0393700787401585
100
AcDbArc
 50
183.6619355755
 51
270.0
  0
ARC
  5
34E
330
1F
100
AcDbEntity
  8
PROFILES_OUTSIDE
100
AcDbCircle
 10
76.4372441609
 20
39.8994985147
 30
0.0
 40
0.0393700787401627
100
AcDbArc
 50
65.1121079736
 51
90.0
  0
ARC
  5
34F
330
1F
100
AcDbEntity
  8
PROFILES_OUTSIDE
100
AcDbCircle
 10
76.5394728319
 20
40.1198532556
 30
0.0
 40
0.2035433070866241
100
AcDbArc
 50
245.1121079736
 51
72.3995332141
  0
ARC
  5
350
330
1F
100
AcDbEntity
  8
PROFILES_OUTSIDE
100
AcDbCircle
 10
76.6129244122
 20
40.3513954296
 30
0.0
 40
0.0393700787401627
100
AcDbArc
 50
180.0
 51
252.3995332141
  0
ARC
  5
351
330
1F
100
AcDbEntity
  8
PROFILES_OUTSIDE
100
AcDbCircle
 10
82.0066251996
 20
39.9586323729
 30
0.0
 40
0.472440944881896
100
AcDbArc
 50
0.0
 51
90.0
  0
ARC
  5
352
330
1F
100
AcDbEntity
  8
PROFILES_OUTSIDE
100
AcDbCircle
 10
82.9515070894
 20
34.6738817168
 30
0.0
 40
0.472440944881896
100
AcDbArc
 50
180.0
 51
270.0
  0
ARC
  5
353
330
1F
100
AcDbEntity
  8
PROFILES_OUTSIDE
100
AcDbCircle
 10
83.9751291366
 20
34.6738817168
 30
0.0
 40
0.472440944881896
100
AcDbArc
 50
270.0
 51
0.0
  0
ARC
  5
354
330
1F
100
AcDbEntity
  8
PROFILES_OUTSIDE
100
AcDbCircle
 10
84.9200110264
 20
39.9586323729
 30
0.0
 40
0.472440944881896
100
AcDbArc
 50
90.0
 51
180.0
  0
ARC
  5
355
330
1F
100
AcDbEntity
  8
PROFILES_OUTSIDE
100
AcDbCircle
 10
90.3137118138
 20
40.3513954296
 30
0.0
 40
0.0393700787401415
100
AcDbArc
 50
287.6004667858
 51
0.0
  0
ARC
  5
356
330
1F
100
AcDbEntity
  8
PROFILES_OUTSIDE
100
AcDbCircle
 10
90.3871633941
 20
40.1198532556
 30
0.0
 40
0.2035433070866241
100
AcDbArc
 50
107.6004667859
 51
294.8878920264
  0
ARC
  5
357
330
1F
100
AcDbEntity
  8
PROFILES_OUTSIDE
100
AcDbCircle
 10
90.4893920651
 20
39.8994985147
 30
0.0
 40
0.0393700787401627
100
AcDbArc
 50
90.0
 51
114.8878920264
  0
ARC
  5
358
330
1F
100
AcDbEntity
  8
PROFILES_OUTSIDE
100
AcDbCircle
 10
90.8295367781
 20
39.9782386722
 30
0.0
 40
0.0393700787401585
100
AcDbArc
 50
270.0
 51
356.3380644245
  0
ARC
  5
359
330
1F
100
AcDbEntity
  8
PROFILES_OUTSIDE
100
AcDbCircle
 10
91.1011133886
 20
39.6829630816
 30
0.0
 40
0.236220472440948
100
AcDbArc
 50
270.0
 51
0.0
  0
ARC
  5
35A
330
1F
100
AcDbEntity
  8
PROFILES_OUTSIDE
100
AcDbCircle
 10
75.6286724437
 20
22.5001284359
 30
0.0
 40
0.0393700787401627
100
AcDbArc
 50
180.0
 51
270.0
  0
ARC
  5
35B
330
1F
100
AcDbEntity
  8
PROFILES_OUTSIDE
100
AcDbCircle
 10
84.4475700815
 20
34.2014407719
 30
0.0
 40
0.75
100
AcDbArc
 50
300.0
 51
0.0
  0
ARC
  5
35C
330
1F
100
AcDbEntity
  8
PROFILES_OUTSIDE
100
AcDbCircle
 10
85.1975700815
 20
32.9024026662
 30
0.0
 40
0.75
100
AcDbArc
 50
120.0
 51
180.0
  0
ARC
  5
35D
330
1F
100
AcDbEntity
  8
PROFILES_OUTSIDE
100
AcDbCircle
 10
85.1975700815
 20
29.7432872765
 30
0.0
 40
0.75
100
AcDbArc
 50
180.0
 51
240.0
  0
ARC
  5
35E
330
1F
100
AcDbEntity
  8
PROFILES_OUTSIDE
100
AcDbCircle
 10
84.4475700815
 20
28.4442491708
 30
0.0
 40
0.75
100
AcDbArc
 50
0.0
 51
60.0
  0
ARC
  5
35F
330
1F
100
AcDbEntity
  8
PROFILES_OUTSIDE
100
AcDbCircle
 10
91.1011133886
 20
22.9627268611
 30
0.0
 40
0.236220472440948
100
AcDbArc
 50
0.0
 51
90.0
  0
ARC
  5
360
330
1F
100
AcDbEntity
  8
PROFILES_OUTSIDE
100
AcDbCircle
 10
81.2566251996
 20
23.6713882785
 30
0.0
 40
0.472440944881896
100
AcDbArc
 50
270.0
 51
0.0
  0
ARC
  5
361
330
1F
100
AcDbEntity
  8
PROFILES_OUTSIDE
100
AcDbCircle
 10
90.8295367781
 20
22.6674512706
 30
0.0
 40
0.0393700787401588
100
AcDbArc
 50
3.6619355755
 51
90.0
  0
ARC
  5
362
330
1F
100
AcDbEntity
  8
PROFILES_OUTSIDE
100
AcDbCircle
 10
90.4893920651
 20
22.7461914281
 30
0.0
 40
0.0393700787401668
100
AcDbArc
 50
245.1121079736
 51
270.0
  0
ARC
  5
363
330
1F
100
AcDbEntity
  8
PROFILES_OUTSIDE
100
AcDbCircle
 10
90.3871633941
 20
22.5258366872
 30
0.0
 40
0.2035433070866207
100
AcDbArc
 50
65.1121079736
 51
252.3995332141
  0
ARC
  5
364
330
1F
100
AcDbEntity
  8
PROFILES_OUTSIDE
100
AcDbCircle
 10
90.3137118138
 20
22.2942945131
 30
0.0
 40
0.0393700787401449
100
AcDbArc
 50
0.0
 51
72.3995332142
  0
ARC
  5
365
330
1F
100
AcDbEntity
  8
PROFILES_OUTSIDE
100
AcDbCircle
 10
84.9200110264
 20
22.6870575698
 30
0.0
 40
0.4724409448818925
100
AcDbArc
 50
180.0
 51
270.0
  0
ARC
  5
366
330
1F
100
AcDbEntity
  8
PROFILES_OUTSIDE
100
AcDbCircle
 10
83.9751291366
 20
27.971808226
 30
0.0
 40
0.472440944881896
100
AcDbArc
 50
0.0
 51
90.0
  0
ARC
  5
367
330
1F
100
AcDbEntity
  8
PROFILES_OUTSIDE
100
AcDbCircle
 10
82.9515070894
 20
27.971808226
 30
0.0
 40
0.472440944881896
100
AcDbArc
 50
90.0
 51
180.0
  0
ARC
  5
368
330
1F
100
AcDbEntity
  8
PROFILES_OUTSIDE
100
AcDbCircle
 10
82.0066251996
 20
22.6870575698
 30
0.0
 40
0.4724409448818925
100
AcDbArc
 50
270.0
 51
0.0
  0
ARC
  5
369
330
1F
100
AcDbEntity
  8
PROFILES_OUTSIDE
100
AcDbCircle
 10
76.6129244122
 20
22.2942945131
 30
0.0
 40
0.0393700787401627
100
AcDbArc
 50
107.6004667859
 51
180.0
  0
ARC
  5
36A
330
1F
100
AcDbEntity
  8
PROFILES_OUTSIDE
100
AcDbCircle
 10
76.5394728319
 20
22.5258366872
 30
0.0
 40
0.2035433070866241
100
AcDbArc
 50
287.6004667859
 51
114.8878920264
  0
ARC
  5
36B
330
1F
100
AcDbEntity
  8
PROFILES_OUTSIDE
100
AcDbCircle
 10
76.4372441609
 20
22.7461914281
 30
0.0
 40
0.0393700787401556
100
AcDbArc
 50
270.0
 51
294.8878920264
  0
ARC
  5
36C
330
1F
100
AcDbEntity
  8
PROFILES_OUTSIDE
100
AcDbCircle
 10
76.0970994479
 20
22.6674512706
 30
0.0
 40
0.0393700787401585
100
AcDbArc
 50
90.0
 51
176.3380644245
  0
ARC
  5
36D
330
1F
100
AcDbEntity
  8
PROFILES_OUTSIDE
100
AcDbCircle
 10
75.8255228374
 20
22.9627268611
 30
0.0
 40
0.2362204724409622
100
AcDbArc
 50
90.0
 51
180.0
  0
ARC
  5
36E
330
1F
100
AcDbEntity
  8
PROFILES_OUTSIDE
100
AcDbCircle
 10
81.2566251996
 20
38.9743016643
 30
0.0
 40
0.472440944881896
100
AcDbArc
 50
0.0
 51
90.0
  0
ARC
  5
36F
330
1F
100
AcDbEntity
  8
PROFILES_OUTSIDE
100
AcDbCircle
 10
82.4790661445
 20
28.4442491708
 30
0.0
 40
0.749999999999996
100
AcDbArc
 50
120.0
 51
180.0
  0
ARC
  5
370
330
1F
100
AcDbEntity
  8
PROFILES_OUTSIDE
100
AcDbCircle
 10
81.7290661445
 20
29.7432872765
 30
0.0
 40
0.7499999999999939
100
AcDbArc
 50
300.0
 51
0.0
  0
ARC
  5
371
330
1F
100
AcDbEntity
  8
PROFILES_OUTSIDE
100
AcDbCircle
 10
81.7290661445
 20
32.9024026662
 30
0.0
 40
0.7499999999999929
100
AcDbArc
 50
0.0
 51
60.0
  0
ARC
  5
372
330
1F
100
AcDbEntity
  8
PROFILES_OUTSIDE
100
AcDbCircle
 10
82.4790661445
 20
34.2014407719
 30
0.0
 40
0.7499999999999939
100
AcDbArc
 50
180.0
 51
240.0
  0
ARC
  5
373
330
1F
100
AcDbEntity
  8
PROFILES_OUTSIDE
100
AcDbCircle
 10
75.8255228374
 20
39.6829630816
 30
0.0
 40
0.2362204724409622
100
AcDbArc
 50
180.0
 51
270.0
  0
ARC
  5
374
330
1F
100
AcDbEntity
  8
PROFILES_OUTSIDE
100
AcDbCircle
 10
75.6286724437
 20
40.1455615068
 30
0.0
 40
0.0393700787401627
100
AcDbArc
 50
90.0
 51
180.0
  0
ENDSEC
  0
SECTION
  2
OBJECTS
  0
DICTIONARY
  5
C
330
0
100
AcDbDictionary
  3
ACAD_GROUP
350
D
  3
ACAD_MLINESTYLE
350
17
  3
ACAD_SCALELIST
350
47
  0
DICTIONARY
  5
D
102
{ACAD_REACTORS
330
C
102
}
330
C
100
AcDbDictionary
  0
DICTIONARY
  5
17
102
{ACAD_REACTORS
330
C
102
}
330
C
100
AcDbDictionary
  3
STANDARD
350
18
  0
DICTIONARY
  5
47
102
{ACAD_REACTORS
330
C
102
}
330
C
100
AcDbDictionary
  0
MLINESTYLE
  5
18
102
{ACAD_REACTORS
330
17
102
}
330
17
100
AcDbMlineStyle
  2
Standard
 70
     0
  3

 62
   256
 51
90.0
 52
90.0
 71
     2
 49
0.5
 62
   256
  6
BYLAYER
 49
-0.5
 62
   256
  6
BYLAYER
  0
ENDSEC
  0
EOF
